<svg id="Grupo_1021907" data-name="Grupo 1021907" xmlns="http://www.w3.org/2000/svg" xmlns:xlink="http://www.w3.org/1999/xlink" width="105" height="89.854" viewBox="0 0 105 89.854">
  <defs>
    <clipPath id="clip-path">
      <rect id="Rectángulo_358407" data-name="Rectángulo 358407" width="105" height="89.854" fill="none"/>
    </clipPath>
  </defs>
  <g id="Grupo_1021906" data-name="Grupo 1021906" clip-path="url(#clip-path)">
    <path id="Trazado_755690" data-name="Trazado 755690" d="M319.745,47.447a1.538,1.538,0,0,0,1.538-1.538V44.92a1.538,1.538,0,0,0-3.076,0v.988a1.538,1.538,0,0,0,1.538,1.538" transform="translate(-252.95 -34.485)" fill="#fff"/>
    <path id="Trazado_755691" data-name="Trazado 755691" d="M310.831,87.125a1.538,1.538,0,0,0,1.538,1.538h3.025a1.538,1.538,0,0,0,.026-3.075V76.251a1.538,1.538,0,0,0-1.538-1.538h-1.512a1.538,1.538,0,0,0-.026,3.076v7.8a1.538,1.538,0,0,0-1.512,1.537" transform="translate(-247.087 -59.391)" fill="#fff"/>
    <path id="Trazado_755692" data-name="Trazado 755692" d="M44.82,255.591h5.157a1.538,1.538,0,0,0,0-3.076H44.82a1.538,1.538,0,0,0,0,3.076" transform="translate(-34.406 -200.73)" fill="#fff"/>
    <path id="Trazado_755693" data-name="Trazado 755693" d="M44.82,281.832h5.157a1.538,1.538,0,0,0,0-3.076H44.82a1.538,1.538,0,1,0,0,3.076" transform="translate(-34.406 -221.59)" fill="#fff"/>
    <path id="Trazado_755694" data-name="Trazado 755694" d="M89.559,19.723a15.444,15.444,0,0,0-2.941.284c0-.06,0-.12,0-.18a19.862,19.862,0,0,0-2.354-9.374,1.538,1.538,0,0,0-2.71,1.456,16.778,16.778,0,0,1,1.987,7.918c0,.38-.017.758-.043,1.135a15.462,15.462,0,0,0-9.377,13.917,16.55,16.55,0,0,1-3.709,1.3,2.716,2.716,0,0,0-1.768,1.286l-1.854,3.212L64.94,37.467a2.716,2.716,0,0,0-1.768-1.286,16.79,16.79,0,0,1-2.03-.585V32.96A2.662,2.662,0,0,0,58.484,30.3H55.121a2.638,2.638,0,0,0-1.185.282A16.758,16.758,0,0,1,77.348,6.819a1.538,1.538,0,0,0,1.94-2.388A19.826,19.826,0,0,0,51.514,32.459c.3.365.62.714.947,1.054v.616L22.982,45.721H8.414A8.424,8.424,0,0,0,0,54.135v3.758a8.423,8.423,0,0,0,8.414,8.414h3.91V86.265a3.593,3.593,0,0,0,3.589,3.589H19.1a3.575,3.575,0,0,0,3.423-2.511l2.349-7.459a1.538,1.538,0,0,0-2.934-.924l-2.349,7.459a.511.511,0,0,1-.489.359H15.913a.513.513,0,0,1-.513-.513V66.307h7.582l2.62,1.03L24.1,72.1a1.538,1.538,0,0,0,2.934.924l1.435-4.558L52.462,77.9v1.169a2.662,2.662,0,0,0,2.659,2.659h3.363a2.662,2.662,0,0,0,2.659-2.659V66.258a10.292,10.292,0,0,0,0-20.489V38.826c.4.121.808.231,1.218.325l2.5,4.334a2.23,2.23,0,0,0,3.863,0l2.5-4.334a19.59,19.59,0,0,0,3.177-1.021,15.357,15.357,0,0,0,1.788,4.764l-2.4,5.82A1.538,1.538,0,0,0,75.8,50.722l5.736-2.364a15.441,15.441,0,1,0,8.019-28.635ZM21.735,63.23H8.414a5.344,5.344,0,0,1-5.338-5.338V54.135A5.344,5.344,0,0,1,8.414,48.8H21.735V63.23ZM58.067,78.651h-2.53V51.284a1.538,1.538,0,0,0-3.076,0V74.593L24.811,63.72V48.307l27.65-10.872v6.672a1.538,1.538,0,1,0,3.076,0V33.377h2.53Zm9.306-22.637a7.226,7.226,0,0,1-6.229,7.148V48.866a7.226,7.226,0,0,1,6.229,7.147m22.186-8.486a12.294,12.294,0,0,1-6.99-2.166,1.539,1.539,0,0,0-1.457-.154L78.047,46.47l1.289-3.128a1.538,1.538,0,0,0-.134-1.427,12.363,12.363,0,1,1,10.356,5.613" transform="translate(0 0)" fill="#fff"/>
    <path id="Trazado_755695" data-name="Trazado 755695" d="M415.913,139.908H405.6a1.538,1.538,0,0,0,0,3.076h10.315a1.538,1.538,0,0,0,0-3.076" transform="translate(-321.197 -111.216)" fill="#fff"/>
    <path id="Trazado_755696" data-name="Trazado 755696" d="M415.913,163.964H405.6a1.538,1.538,0,0,0,0,3.076h10.315a1.538,1.538,0,0,0,0-3.076" transform="translate(-321.197 -130.339)" fill="#fff"/>
    <path id="Trazado_755697" data-name="Trazado 755697" d="M415.913,188.019H405.6a1.538,1.538,0,0,0,0,3.076h10.315a1.538,1.538,0,0,0,0-3.076" transform="translate(-321.197 -149.461)" fill="#fff"/>
    <path id="Trazado_755698" data-name="Trazado 755698" d="M340.146,334.47h-1.8v-1.8a1.538,1.538,0,0,0-3.076,0v1.8h-1.8a1.538,1.538,0,0,0,0,3.076h1.8v1.8a1.538,1.538,0,1,0,3.076,0v-1.8h1.8a1.538,1.538,0,0,0,0-3.076" transform="translate(-263.865 -263.227)" fill="#fff"/>
    <path id="Trazado_755699" data-name="Trazado 755699" d="M146.538,109.405l-.482,2.811a2.154,2.154,0,0,0,3.125,2.27l2.524-1.327,2.525,1.327a2.154,2.154,0,0,0,3.124-2.27l-.482-2.811,2.043-1.991a2.154,2.154,0,0,0-1.194-3.673l-2.822-.41-1.262-2.557a2.14,2.14,0,0,0-1.931-1.2h0a2.14,2.14,0,0,0-1.931,1.2l-1.262,2.558-2.822.41a2.153,2.153,0,0,0-1.193,3.673Zm2.9-3.1a2.153,2.153,0,0,0,1.622-1.178l.649-1.316.649,1.316a2.151,2.151,0,0,0,1.621,1.178l1.452.211-1.05,1.024a2.152,2.152,0,0,0-.62,1.906l.248,1.446-1.3-.682a2.152,2.152,0,0,0-2,0l-1.3.683.248-1.447a2.152,2.152,0,0,0-.62-1.905l-1.051-1.024Z" transform="translate(-114.345 -79.153)" fill="#fff"/>
    <path id="Trazado_755700" data-name="Trazado 755700" d="M383.718,262.813l-2.822-.41-1.262-2.557a2.14,2.14,0,0,0-1.931-1.2h0a2.14,2.14,0,0,0-1.931,1.2L374.51,262.4l-2.822.41a2.153,2.153,0,0,0-1.194,3.673l2.042,1.991-.482,2.811a2.154,2.154,0,0,0,3.125,2.27l2.524-1.327,2.524,1.327a2.153,2.153,0,0,0,3.124-2.27l-.482-2.811,2.042-1.991a2.153,2.153,0,0,0-1.193-3.673Zm-3.344,3.8a2.153,2.153,0,0,0-.619,1.906l.248,1.446-1.3-.683a2.155,2.155,0,0,0-2,0l-1.3.683.248-1.447a2.154,2.154,0,0,0-.62-1.906l-1.051-1.024,1.451-.211a2.154,2.154,0,0,0,1.622-1.178l.649-1.316.65,1.316a2.152,2.152,0,0,0,1.621,1.177l1.452.211Z" transform="translate(-293.996 -205.603)" fill="#fff"/>
  </g>
</svg>
