<svg id="Grupo_1023929" data-name="Grupo 1023929" xmlns="http://www.w3.org/2000/svg" xmlns:xlink="http://www.w3.org/1999/xlink" width="295" height="194.632" viewBox="0 0 295 194.632">
  <defs>
    <clipPath id="clip-path">
      <rect id="Rectángulo_358604" data-name="Rectángulo 358604" width="295" height="194.632" fill="none"/>
    </clipPath>
    <clipPath id="clip-path-3">
      <rect id="Rectángulo_358594" data-name="Rectángulo 358594" width="31.509" height="4.426" fill="none"/>
    </clipPath>
  </defs>
  <g id="Grupo_1023928" data-name="Grupo 1023928" clip-path="url(#clip-path)">
    <path id="Trazado_755992" data-name="Trazado 755992" d="M-10,0H293.606V1.533H-10Z" transform="translate(1.394 193.1)" fill="#d0d2d3"/>
    <g id="Grupo_1023927" data-name="Grupo 1023927">
      <g id="Grupo_1023926" data-name="Grupo 1023926" clip-path="url(#clip-path)">
        <path id="Trazado_755808" data-name="Trazado 755808" d="M480.4,190.79v2.9H391.833v-2.9h-8.807l.4,5.164c.024.321.431.574.924.574h1.818l1.761.035h3.633v3.371c0,.476.591.861,1.321.861h9.248c.729,0,1.321-.385,1.321-.861v-3.371h28.4v3.443c0,.475.591.86,1.32.86h9.247c.731,0,1.322-.385,1.322-.86v-3.443h29.834v3.371c0,.476.59.861,1.32.861h9.247c.731,0,1.322-.385,1.322-.861V196.6c0-.019.023-.034.052-.034h2.811c.486,0,.881-.256.881-.573v-4.052c0-.633-.789-1.147-1.762-1.147Z" transform="translate(-227.635 -113.388)" fill="#68370c"/>
        <path id="Trazado_755809" data-name="Trazado 755809" d="M478.041,190.79c-1.1,0-1.982.578-1.982,1.291v1.613H382.647v-1.613c0-.713-.886-1.291-1.981-1.291s-1.981.578-1.981,1.291l.048,3.908c.006.318.4.573.888.573h2.7c.027,0,.051.016.051.034v3.337c0,.476.592.861,1.321.861h9.248c.729,0,1.321-.385,1.321-.861v-3.371h28.4v3.443c0,.475.591.86,1.321.86h9.247c.73,0,1.322-.385,1.322-.86v-3.443H464.39v3.371c0,.476.591.861,1.321.861h9.246c.73,0,1.322-.385,1.322-.861V196.6c0-.019.023-.034.052-.034h2.81c.488,0,.882-.256.882-.573v-3.908c0-.713-.888-1.291-1.981-1.291" transform="translate(-225.056 -113.388)" fill="#ff6700"/>
        <rect id="Rectángulo_358428" data-name="Rectángulo 358428" width="9.602" height="9.603" transform="translate(166.833 70.693)" fill="#d6b154"/>
        <rect id="Rectángulo_358429" data-name="Rectángulo 358429" width="9.604" height="9.603" transform="translate(163.968 70.693)" fill="#f2d886"/>
        <rect id="Rectángulo_358430" data-name="Rectángulo 358430" width="9.602" height="9.603" transform="translate(179.299 70.693)" fill="#d6b154"/>
        <rect id="Rectángulo_358431" data-name="Rectángulo 358431" width="9.603" height="9.603" transform="translate(176.435 70.693)" fill="#f2d886"/>
        <rect id="Rectángulo_358432" data-name="Rectángulo 358432" width="9.602" height="9.603" transform="translate(191.766 70.693)" fill="#d6b154"/>
        <rect id="Rectángulo_358433" data-name="Rectángulo 358433" width="9.604" height="9.603" transform="translate(188.901 70.693)" fill="#f2d886"/>
        <rect id="Rectángulo_358434" data-name="Rectángulo 358434" width="9.602" height="9.603" transform="translate(204.232 70.693)" fill="#d6b154"/>
        <rect id="Rectángulo_358435" data-name="Rectángulo 358435" width="9.604" height="9.603" transform="translate(201.367 70.693)" fill="#f2d886"/>
        <rect id="Rectángulo_358436" data-name="Rectángulo 358436" width="9.601" height="9.603" transform="translate(216.699 70.693)" fill="#d6b154"/>
        <rect id="Rectángulo_358437" data-name="Rectángulo 358437" width="9.603" height="9.603" transform="translate(213.834 70.693)" fill="#f2d886"/>
        <rect id="Rectángulo_358438" data-name="Rectángulo 358438" width="9.602" height="9.603" transform="translate(229.164 70.693)" fill="#d6b154"/>
        <rect id="Rectángulo_358439" data-name="Rectángulo 358439" width="9.604" height="9.603" transform="translate(226.3 70.693)" fill="#f2d886"/>
        <rect id="Rectángulo_358440" data-name="Rectángulo 358440" width="9.601" height="9.603" transform="translate(241.632 70.693)" fill="#d6b154"/>
        <rect id="Rectángulo_358441" data-name="Rectángulo 358441" width="9.604" height="9.603" transform="translate(238.766 70.693)" fill="#f2d886"/>
        <rect id="Rectángulo_358442" data-name="Rectángulo 358442" width="9.602" height="9.602" transform="translate(173.066 61.152)" fill="#d6b154"/>
        <rect id="Rectángulo_358443" data-name="Rectángulo 358443" width="9.604" height="9.602" transform="translate(170.201 61.152)" fill="#f2d886"/>
        <rect id="Rectángulo_358444" data-name="Rectángulo 358444" width="9.602" height="9.602" transform="translate(185.532 61.152)" fill="#d6b154"/>
        <rect id="Rectángulo_358445" data-name="Rectángulo 358445" width="9.604" height="9.602" transform="translate(182.668 61.152)" fill="#f2d886"/>
        <rect id="Rectángulo_358446" data-name="Rectángulo 358446" width="9.602" height="9.602" transform="translate(197.999 61.152)" fill="#d6b154"/>
        <rect id="Rectángulo_358447" data-name="Rectángulo 358447" width="9.603" height="9.602" transform="translate(195.134 61.152)" fill="#f2d886"/>
        <rect id="Rectángulo_358448" data-name="Rectángulo 358448" width="9.601" height="9.602" transform="translate(210.465 61.152)" fill="#d6b154"/>
        <rect id="Rectángulo_358449" data-name="Rectángulo 358449" width="9.604" height="9.602" transform="translate(207.6 61.152)" fill="#f2d886"/>
        <rect id="Rectángulo_358450" data-name="Rectángulo 358450" width="9.602" height="9.602" transform="translate(222.932 61.152)" fill="#d6b154"/>
        <rect id="Rectángulo_358451" data-name="Rectángulo 358451" width="9.604" height="9.602" transform="translate(220.066 61.152)" fill="#f2d886"/>
        <rect id="Rectángulo_358452" data-name="Rectángulo 358452" width="9.601" height="9.602" transform="translate(235.398 61.152)" fill="#d6b154"/>
        <rect id="Rectángulo_358453" data-name="Rectángulo 358453" width="9.604" height="9.602" transform="translate(232.533 61.152)" fill="#f2d886"/>
        <rect id="Rectángulo_358454" data-name="Rectángulo 358454" width="9.602" height="9.603" transform="translate(179.299 51.549)" fill="#d6b154"/>
        <rect id="Rectángulo_358455" data-name="Rectángulo 358455" width="9.603" height="9.603" transform="translate(176.435 51.549)" fill="#f2d886"/>
        <rect id="Rectángulo_358456" data-name="Rectángulo 358456" width="9.602" height="9.603" transform="translate(191.766 51.549)" fill="#d6b154"/>
        <rect id="Rectángulo_358457" data-name="Rectángulo 358457" width="9.604" height="9.603" transform="translate(188.901 51.549)" fill="#f2d886"/>
        <rect id="Rectángulo_358458" data-name="Rectángulo 358458" width="9.602" height="9.603" transform="translate(204.232 51.549)" fill="#d6b154"/>
        <rect id="Rectángulo_358459" data-name="Rectángulo 358459" width="9.604" height="9.603" transform="translate(201.367 51.549)" fill="#f2d886"/>
        <rect id="Rectángulo_358460" data-name="Rectángulo 358460" width="9.601" height="9.603" transform="translate(216.699 51.549)" fill="#d6b154"/>
        <rect id="Rectángulo_358461" data-name="Rectángulo 358461" width="9.603" height="9.603" transform="translate(213.834 51.549)" fill="#f2d886"/>
        <rect id="Rectángulo_358462" data-name="Rectángulo 358462" width="9.602" height="9.603" transform="translate(229.164 51.549)" fill="#d6b154"/>
        <rect id="Rectángulo_358463" data-name="Rectángulo 358463" width="9.604" height="9.603" transform="translate(226.3 51.549)" fill="#f2d886"/>
        <rect id="Rectángulo_358464" data-name="Rectángulo 358464" width="9.602" height="9.603" transform="translate(185.532 41.946)" fill="#d6b154"/>
        <rect id="Rectángulo_358465" data-name="Rectángulo 358465" width="9.604" height="9.603" transform="translate(182.668 41.946)" fill="#f2d886"/>
        <rect id="Rectángulo_358466" data-name="Rectángulo 358466" width="9.602" height="9.603" transform="translate(197.999 41.946)" fill="#d6b154"/>
        <rect id="Rectángulo_358467" data-name="Rectángulo 358467" width="9.604" height="9.603" transform="translate(195.134 41.946)" fill="#f2d886"/>
        <rect id="Rectángulo_358468" data-name="Rectángulo 358468" width="9.601" height="9.603" transform="translate(210.465 41.946)" fill="#d6b154"/>
        <rect id="Rectángulo_358469" data-name="Rectángulo 358469" width="9.603" height="9.603" transform="translate(207.601 41.946)" fill="#f2d886"/>
        <rect id="Rectángulo_358470" data-name="Rectángulo 358470" width="9.602" height="9.603" transform="translate(222.932 41.946)" fill="#d6b154"/>
        <rect id="Rectángulo_358471" data-name="Rectángulo 358471" width="9.604" height="9.603" transform="translate(220.066 41.946)" fill="#f2d886"/>
        <path id="Trazado_755810" data-name="Trazado 755810" d="M591.031,447.8a8.295,8.295,0,1,0-8.3-8.295,8.3,8.3,0,0,0,8.3,8.295" transform="translate(-346.325 -256.272)" fill="#4a4949"/>
        <path id="Trazado_755811" data-name="Trazado 755811" d="M588.506,430.409a6.571,6.571,0,1,1-6.571,6.571,6.579,6.579,0,0,1,6.571-6.571m0-3.448a10.019,10.019,0,1,0,10.019,10.019,10.019,10.019,0,0,0-10.019-10.019" transform="translate(-343.8 -253.746)" fill="#2d2d2d"/>
        <path id="Trazado_755812" data-name="Trazado 755812" d="M419.305,447.8a8.295,8.295,0,1,0-8.294-8.295,8.305,8.305,0,0,0,8.294,8.295" transform="translate(-244.267 -256.272)" fill="#4a4949"/>
        <path id="Trazado_755813" data-name="Trazado 755813" d="M416.781,430.409a6.571,6.571,0,1,1-6.57,6.571,6.578,6.578,0,0,1,6.57-6.571m0-3.448A10.019,10.019,0,1,0,426.8,436.98a10.019,10.019,0,0,0-10.019-10.019" transform="translate(-241.743 -253.746)" fill="#252424"/>
        <path id="Trazado_755814" data-name="Trazado 755814" d="M589.854,384.792h37.075V367.029a14.393,14.393,0,0,0-2.323-7.837l-10.12-15.57c-2.6-4,1.032-6.436-3.742-6.436h-17.48a3.41,3.41,0,0,0-3.409,3.411Z" transform="translate(-350.555 -200.392)" fill="#c6240b"/>
        <path id="Trazado_755815" data-name="Trazado 755815" d="M380.043,365.225h69.115V307.672a3.411,3.411,0,0,0-3.411-3.411H383.453a3.411,3.411,0,0,0-3.41,3.411Z" transform="translate(-225.863 -180.825)" fill="#9d9fa1"/>
        <path id="Trazado_755816" data-name="Trazado 755816" d="M620.444,384.792H657.52V367.029a14.391,14.391,0,0,0-2.324-7.837l-10.121-15.57a14.17,14.17,0,0,0-11.856-6.436h-9.366a3.41,3.41,0,0,0-3.409,3.411Z" transform="translate(-368.735 -200.392)" fill="#f3482f"/>
        <path id="Trazado_755817" data-name="Trazado 755817" d="M437.825,365.225h69.113V307.672a3.411,3.411,0,0,0-3.41-3.411H441.234a3.41,3.41,0,0,0-3.409,3.411Z" transform="translate(-260.203 -180.825)" fill="#bdc0c1"/>
        <path id="Trazado_755818" data-name="Trazado 755818" d="M371.074,442.626a1.706,1.706,0,0,0,1.706,1.706H486.564a1.7,1.7,0,0,0,1.7-1.706v-3.553a1.706,1.706,0,0,0-1.7-1.7H372.78a1.706,1.706,0,0,0-1.706,1.7Z" transform="translate(-220.532 -259.932)" fill="#1c2121"/>
        <path id="Trazado_755819" data-name="Trazado 755819" d="M642.222,367.943h17.8a1.636,1.636,0,0,0,1.349-2.526l-8.834-13.824a8.564,8.564,0,0,0-7.2-3.971h-3.118Z" transform="translate(-381.678 -206.595)" fill="#88d9ed"/>
        <path id="Trazado_755820" data-name="Trazado 755820" d="M691.671,419.345a.852.852,0,0,0,.852.852h7.328V415.58h-7.328a.851.851,0,0,0-.852.852Z" transform="translate(-411.066 -246.983)" fill="#fccd06"/>
        <path id="Trazado_755821" data-name="Trazado 755821" d="M421.255,416.432a.852.852,0,0,1,.853-.852h5.948V420.2h-5.948a.852.852,0,0,1-.853-.852Z" transform="translate(-250.355 -246.983)" fill="#db400f"/>
        <path id="Trazado_755822" data-name="Trazado 755822" d="M386.845,419.346a.853.853,0,0,1-.853.852h-5.949V415.58h5.949a.852.852,0,0,1,.853.852Z" transform="translate(-225.863 -246.983)" fill="#db400f"/>
        <path id="Trazado_755823" data-name="Trazado 755823" d="M446,419.345a.852.852,0,0,1-.853.852h-7.327V415.58h7.327a.851.851,0,0,1,.853.852Z" transform="translate(-260.203 -246.983)" fill="#f94c08"/>
        <path id="Rectángulo_358472" data-name="Rectángulo 358472" d="M3.481,0H113.714a3.48,3.48,0,0,1,3.48,3.48v0a3.48,3.48,0,0,1-3.48,3.48H3.481A3.481,3.481,0,0,1,0,3.481v0A3.481,3.481,0,0,1,3.481,0Z" transform="translate(174.672 177.437)" fill="#303535"/>
        <path id="Trazado_755824" data-name="Trazado 755824" d="M650.794,447.8a8.295,8.295,0,1,0-8.3-8.294,8.3,8.3,0,0,0,8.3,8.294" transform="translate(-381.842 -256.272)" fill="#996b48"/>
        <path id="Trazado_755825" data-name="Trazado 755825" d="M648.269,430.407a6.572,6.572,0,1,1-6.571,6.572,6.579,6.579,0,0,1,6.571-6.572m0-3.447a10.019,10.019,0,1,0,10.018,10.019,10.019,10.019,0,0,0-10.018-10.019" transform="translate(-379.318 -253.746)" fill="#252424"/>
        <path id="Trazado_755826" data-name="Trazado 755826" d="M479.067,447.8a8.295,8.295,0,1,0-8.294-8.294,8.3,8.3,0,0,0,8.294,8.294" transform="translate(-279.784 -256.272)" fill="#996b48"/>
        <path id="Trazado_755827" data-name="Trazado 755827" d="M476.542,430.407a6.572,6.572,0,1,1-6.571,6.572,6.579,6.579,0,0,1,6.571-6.572m0-3.447a10.019,10.019,0,1,0,10.019,10.019,10.019,10.019,0,0,0-10.019-10.019" transform="translate(-277.258 -253.746)" fill="#252424"/>
        <path id="Trazado_755828" data-name="Trazado 755828" d="M646.587,441.934a6.637,6.637,0,1,0,6.637-6.637,6.637,6.637,0,0,0-6.637,6.637" transform="translate(-384.272 -258.701)" fill="#bdbcbc"/>
        <path id="Trazado_755829" data-name="Trazado 755829" d="M474.86,441.934A6.637,6.637,0,1,0,481.5,435.3a6.636,6.636,0,0,0-6.636,6.637" transform="translate(-282.213 -258.701)" fill="#bdbcbc"/>
        <rect id="Rectángulo_358473" data-name="Rectángulo 358473" width="10.343" height="4.596" transform="translate(157.002 178.488)" fill="#c6c6c6"/>
        <rect id="Rectángulo_358474" data-name="Rectángulo 358474" width="21.747" height="42.25" transform="translate(154.99 132.305)" fill="#1d2c42"/>
        <rect id="Rectángulo_358475" data-name="Rectángulo 358475" width="1.82" height="39.621" transform="translate(154.99 134.934)" fill="#113e63"/>
        <rect id="Rectángulo_358476" data-name="Rectángulo 358476" width="21.747" height="7.444" transform="translate(154.99 134.738)" fill="#939393"/>
        <rect id="Rectángulo_358477" data-name="Rectángulo 358477" width="21.747" height="0.805" transform="translate(154.99 141.377)" fill="#777"/>
        <rect id="Rectángulo_358478" data-name="Rectángulo 358478" width="21.747" height="0.804" transform="translate(154.99 140.055)" fill="#777"/>
        <rect id="Rectángulo_358479" data-name="Rectángulo 358479" width="21.747" height="0.806" transform="translate(154.99 138.733)" fill="#777"/>
        <rect id="Rectángulo_358480" data-name="Rectángulo 358480" width="21.747" height="0.806" transform="translate(154.99 137.411)" fill="#777"/>
        <rect id="Rectángulo_358481" data-name="Rectángulo 358481" width="21.747" height="0.805" transform="translate(154.99 136.09)" fill="#777"/>
        <rect id="Rectángulo_358482" data-name="Rectángulo 358482" width="21.747" height="0.805" transform="translate(154.99 134.768)" fill="#777"/>
        <path id="Trazado_755830" data-name="Trazado 755830" d="M380.043,324.9h58.043a1.278,1.278,0,0,0,1.277-1.279v-2.7a1.278,1.278,0,0,0-1.277-1.279H380.043Z" transform="translate(-225.863 -189.966)" fill="#c4c4c4"/>
        <path id="Trazado_755831" data-name="Trazado 755831" d="M437.825,324.9h45.87a1.279,1.279,0,0,0,1.279-1.279v-2.7a1.279,1.279,0,0,0-1.279-1.279h-45.87Z" transform="translate(-260.203 -189.966)" fill="#e0dede"/>
        <rect id="Rectángulo_358483" data-name="Rectángulo 358483" width="2.13" height="9.479" transform="translate(174.607 155.595)" fill="#f2d886"/>
        <path id="Trazado_755832" data-name="Trazado 755832" d="M408.508,416.307h-9.481l-.008-9.515,9.514-.014Z" transform="translate(-237.14 -241.751)" fill="#d6b154"/>
        <rect id="Rectángulo_358484" data-name="Rectángulo 358484" width="9.481" height="9.515" transform="translate(159.056 165.041)" fill="#f2d886"/>
        <rect id="Rectángulo_358485" data-name="Rectángulo 358485" width="9.481" height="9.479" transform="translate(166.627 155.595)" fill="#d6b154"/>
        <rect id="Rectángulo_358486" data-name="Rectángulo 358486" width="9.481" height="9.479" transform="translate(163.8 155.595)" fill="#f2d886"/>
        <rect id="Rectángulo_358487" data-name="Rectángulo 358487" width="5.369" height="9.512" transform="translate(171.371 165.043)" fill="#f2d886"/>
        <rect id="Rectángulo_358488" data-name="Rectángulo 358488" width="8.196" height="9.83" transform="translate(168.541 146.114)" fill="#f2d886"/>
        <rect id="Rectángulo_358489" data-name="Rectángulo 358489" width="293.606" height="1.533" transform="translate(1.394 87.827)" fill="#d0d2d3"/>
        <path id="Trazado_755833" data-name="Trazado 755833" d="M115.364,345.144H110.6l.851-3.954a.879.879,0,0,1,.858-.693h1.34a.879.879,0,0,1,.858.693Z" transform="translate(-65.733 -202.36)" fill="#ff6700"/>
        <rect id="Rectángulo_358490" data-name="Rectángulo 358490" width="6.018" height="1.217" transform="translate(44.242 142.209)" fill="#62575e"/>
        <path id="Trazado_755834" data-name="Trazado 755834" d="M83.917,375.115a2.344,2.344,0,0,0-2.719,1.9l-.7,3.9a2.343,2.343,0,0,0,1.9,2.719Z" transform="translate(-47.82 -222.912)" fill="#ff6700"/>
        <path id="Trazado_755835" data-name="Trazado 755835" d="M229.894,450.155h-38.9a.879.879,0,0,0,0,1.757h38.9a.879.879,0,0,0,0-1.757" transform="translate(-112.99 -267.531)" fill="#9b9b9b"/>
        <path id="Trazado_755836" data-name="Trazado 755836" d="M91.521,417.58a.444.444,0,0,0,.44.448h10.223a.448.448,0,0,0,0-.9H91.961a.444.444,0,0,0-.44.448" transform="translate(-54.392 -247.905)" fill="#62575e"/>
        <path id="Trazado_755837" data-name="Trazado 755837" d="M129.388,420.923a.352.352,0,0,0,.408.274,3.115,3.115,0,0,1,1.316.045,1.088,1.088,0,0,1,.552.832l.028.144c.033.185.024.278-.17.313l-1.293.239a2.105,2.105,0,0,1-.577,0s-.685,0-.774-.009c-.166-.009-.444.176-.417.33l-.694.127c-.152.028-.2,0-.228-.114l-.226-1.233-.192-1.054c-.026-.139-.057-.256.181-.3l1.43-.263c.378-.071.552.076.619.455Z" transform="translate(-75.538 -249.753)" fill="#8d5b24"/>
        <path id="Trazado_755838" data-name="Trazado 755838" d="M132.233,424.757l.027.144c.033.185.024.278-.17.313l-1.368.254a2.107,2.107,0,0,1-.573,0s-.613-.019-.7-.024c-.205-.013.035.248-.168.282l-.943.174c-.152.028-.2,0-.228-.114l-.049-.268Z" transform="translate(-76.106 -252.437)" fill="#281910"/>
        <path id="Trazado_755839" data-name="Trazado 755839" d="M131.807,423.045a.055.055,0,0,0,.085.041.2.2,0,0,0,.065-.085.593.593,0,0,1,.221-.2l.429-.248a.067.067,0,0,0,.023-.1.066.066,0,0,0-.093-.023l-.428.243c-.036.022-.313.186-.3.364" transform="translate(-78.334 -251.052)" fill="#54311a"/>
        <path id="Trazado_755840" data-name="Trazado 755840" d="M131.479,422.657a.055.055,0,0,0,.084.043.2.2,0,0,0,.067-.087.628.628,0,0,1,.222-.2l.2-.116a.072.072,0,0,0,.028-.1.075.075,0,0,0-.1-.026l-.208.116c-.034.024-.312.188-.3.366" transform="translate(-78.139 -250.897)" fill="#54311a"/>
        <path id="Trazado_755841" data-name="Trazado 755841" d="M109.894,401.263l-.207,1.749,4.15-.09,3.05,6.1c0,.389-1.08.738-1.562.983-.643.328-.683.181-.853-.131l-2.332-5.163-5.424-.888-.329-1.547,1.1-1.008Z" transform="translate(-63.226 -238.474)" fill="#3374a5"/>
        <path id="Trazado_755842" data-name="Trazado 755842" d="M240.573,442.847v1.48H203.556v-1.48h-4.488l.2,2.631c.013.164.219.292.471.292h.926l.9.018h1.851v1.718c0,.243.3.439.673.439H208.8c.372,0,.673-.2.673-.439v-1.718h10.416v1.755c0,.242.3.438.673.438h4.712c.372,0,.674-.2.674-.438v-1.755h11.145v1.718c0,.243.3.439.673.439h4.712c.372,0,.673-.2.673-.439v-1.7c0-.009.012-.017.026-.017h1.432c.247,0,.449-.13.449-.292v-2.065c0-.323-.4-.585-.9-.585Z" transform="translate(-118.308 -263.188)" fill="#68370c"/>
        <path id="Trazado_755843" data-name="Trazado 755843" d="M228.753,450.1l-9.11.024v1.757l9.11-.024Z" transform="translate(-130.536 -267.497)" fill="#9b9b9b"/>
        <path id="Trazado_755844" data-name="Trazado 755844" d="M270.268,450.1l-9.718.024v1.757l9.718-.024Z" transform="translate(-154.847 -267.497)" fill="#9b9b9b"/>
        <path id="Trazado_755845" data-name="Trazado 755845" d="M239.371,442.847c-.558,0-1.01.295-1.01.658v.822H198.875v-.822c0-.363-.452-.658-1.01-.658s-1.009.295-1.009.658l.025,1.992c0,.162.2.292.452.292h1.376c.014,0,.026.008.026.017v1.7c0,.243.3.439.673.439h4.712c.372,0,.673-.2.673-.439v-1.718H215.21v1.755c0,.242.3.438.673.438H220.6c.372,0,.673-.2.673-.438v-1.755h11.146v1.718c0,.243.3.439.673.439H237.8c.372,0,.674-.2.674-.439v-1.7c0-.009.011-.017.026-.017h1.432c.249,0,.45-.13.45-.292v-1.992c0-.363-.452-.658-1.01-.658" transform="translate(-116.993 -263.188)" fill="#ff6700"/>
        <path id="Trazado_755846" data-name="Trazado 755846" d="M307.883,450.155h-4.539v1.757h4.539a.879.879,0,0,0,0-1.757" transform="translate(-180.28 -267.531)" fill="#9b9b9b"/>
        <rect id="Rectángulo_358491" data-name="Rectángulo 358491" width="7.451" height="7.451" transform="translate(84.658 173.865)" fill="#d6b154"/>
        <rect id="Rectángulo_358492" data-name="Rectángulo 358492" width="7.451" height="7.451" transform="translate(82.436 173.865)" fill="#f2d886"/>
        <rect id="Rectángulo_358493" data-name="Rectángulo 358493" width="7.449" height="7.451" transform="translate(94.331 173.865)" fill="#d6b154"/>
        <rect id="Rectángulo_358494" data-name="Rectángulo 358494" width="7.451" height="7.451" transform="translate(92.109 173.865)" fill="#f2d886"/>
        <rect id="Rectángulo_358495" data-name="Rectángulo 358495" width="7.45" height="7.451" transform="translate(104.004 173.865)" fill="#d6b154"/>
        <rect id="Rectángulo_358496" data-name="Rectángulo 358496" width="7.452" height="7.451" transform="translate(101.781 173.865)" fill="#f2d886"/>
        <rect id="Rectángulo_358497" data-name="Rectángulo 358497" width="7.45" height="7.451" transform="translate(113.677 173.865)" fill="#d6b154"/>
        <rect id="Rectángulo_358498" data-name="Rectángulo 358498" width="7.451" height="7.451" transform="translate(111.454 173.865)" fill="#f2d886"/>
        <rect id="Rectángulo_358499" data-name="Rectángulo 358499" width="7.451" height="7.451" transform="translate(89.494 166.415)" fill="#d6b154"/>
        <rect id="Rectángulo_358500" data-name="Rectángulo 358500" width="7.451" height="7.451" transform="translate(87.272 166.415)" fill="#f2d886"/>
        <rect id="Rectángulo_358501" data-name="Rectángulo 358501" width="7.45" height="7.451" transform="translate(99.168 166.415)" fill="#d6b154"/>
        <rect id="Rectángulo_358502" data-name="Rectángulo 358502" width="7.451" height="7.451" transform="translate(96.945 166.415)" fill="#f2d886"/>
        <rect id="Rectángulo_358503" data-name="Rectángulo 358503" width="7.45" height="7.451" transform="translate(108.84 166.415)" fill="#d6b154"/>
        <rect id="Rectángulo_358504" data-name="Rectángulo 358504" width="7.451" height="7.451" transform="translate(106.618 166.415)" fill="#f2d886"/>
        <rect id="Rectángulo_358505" data-name="Rectángulo 358505" width="7.451" height="7.451" transform="translate(94.331 158.963)" fill="#d6b154"/>
        <rect id="Rectángulo_358506" data-name="Rectángulo 358506" width="7.451" height="7.451" transform="translate(92.109 158.963)" fill="#f2d886"/>
        <rect id="Rectángulo_358507" data-name="Rectángulo 358507" width="7.45" height="7.451" transform="translate(104.004 158.963)" fill="#d6b154"/>
        <rect id="Rectángulo_358508" data-name="Rectángulo 358508" width="7.451" height="7.451" transform="translate(101.781 158.963)" fill="#f2d886"/>
        <rect id="Rectángulo_358509" data-name="Rectángulo 358509" width="7.451" height="7.451" transform="translate(99.167 151.513)" fill="#d6b154"/>
        <rect id="Rectángulo_358510" data-name="Rectángulo 358510" width="7.451" height="7.451" transform="translate(96.945 151.513)" fill="#f2d886"/>
        <path id="Trazado_755847" data-name="Trazado 755847" d="M131.959,418.888a.392.392,0,0,0,.519.174,3.436,3.436,0,0,1,1.436-.34,1.229,1.229,0,0,1,.841.735l.073.149c.093.189.108.291-.095.39l-1.326.636a2.281,2.281,0,0,1-.618.175s-.743.2-.84.217c-.181.039-.43.321-.349.481l-.713.342c-.155.074-.222.062-.28-.06l-.6-1.263-.521-1.079c-.067-.142-.139-.257.109-.378l1.463-.7c.391-.188.616-.082.8.308Z" transform="translate(-76.912 -248.582)" fill="#b47a32"/>
        <path id="Trazado_755848" data-name="Trazado 755848" d="M136.306,421.193l.073.148c.092.19.108.292-.095.391l-1.4.672a2.394,2.394,0,0,1-.621.175s-.668.159-.765.18c-.225.049.112.256-.1.358l-.966.466c-.155.073-.222.062-.28-.06l-.131-.271Z" transform="translate(-78.464 -250.318)" fill="#54311a"/>
        <path id="Trazado_755849" data-name="Trazado 755849" d="M134.588,420.771a.061.061,0,0,0,.09.054.2.2,0,0,0,.08-.091.68.68,0,0,1,.265-.2l.5-.241a.078.078,0,0,0-.069-.14l-.5.239c-.041.02-.361.182-.366.382" transform="translate(-79.987 -249.694)" fill="#54311a"/>
        <path id="Trazado_755850" data-name="Trazado 755850" d="M134.268,420.287a.062.062,0,0,0,.091.054.266.266,0,0,0,.082-.093.712.712,0,0,1,.261-.2l.239-.116a.077.077,0,0,0,.038-.1.081.081,0,0,0-.107-.036l-.237.116c-.043.02-.364.182-.366.382" transform="translate(-79.796 -249.479)" fill="#54311a"/>
        <path id="Trazado_755851" data-name="Trazado 755851" d="M133.942,419.637a.062.062,0,0,0,.093.052.222.222,0,0,0,.081-.093.736.736,0,0,1,.262-.2l.218-.105a.078.078,0,0,0,.036-.1.079.079,0,0,0-.106-.039l-.215.106c-.041.019-.366.183-.369.383" transform="translate(-79.603 -249.099)" fill="#54311a"/>
        <path id="Trazado_755852" data-name="Trazado 755852" d="M104.332,413.056h6.843a1.406,1.406,0,0,0,0-2.811h-6.843Z" transform="translate(-62.005 -243.812)" fill="#2e707c"/>
        <path id="Trazado_755853" data-name="Trazado 755853" d="M97.426,398.3h3V386.918a1.5,1.5,0,1,0-3,0Z" transform="translate(-57.901 -229.056)" fill="#2e707c"/>
        <path id="Trazado_755854" data-name="Trazado 755854" d="M100.863,421.533a4.692,4.692,0,0,1-1.811,3.7L87.121,434.49a1.373,1.373,0,0,1-2.213-1.09V422.044a2.8,2.8,0,0,1,2.8-2.806H98.574a2.292,2.292,0,0,1,2.289,2.3" transform="translate(-50.462 -249.157)" fill="#2d2a2f"/>
        <path id="Trazado_755855" data-name="Trazado 755855" d="M138.813,396.806a1.78,1.78,0,0,1-2.516,2.517l-2.353-2.353a1.78,1.78,0,0,1,2.517-2.516Z" transform="translate(-79.294 -234.117)" fill="#62575e"/>
        <path id="Trazado_755856" data-name="Trazado 755856" d="M142.211,406.1a2.8,2.8,0,0,0,2.8,2.8H148.8a1.968,1.968,0,0,0,1.853-2.633l-1.47-4.1a3.985,3.985,0,0,0-3.743-2.634h-.429a2.8,2.8,0,0,0-2.8,2.8Z" transform="translate(-84.517 -237.447)" fill="#2d2a2f"/>
        <path id="Trazado_755857" data-name="Trazado 755857" d="M128.188,392.612a.893.893,0,1,0,1.264,1.263l4.16-4.159a.893.893,0,1,0-1.264-1.263Z" transform="translate(-76.027 -230.705)" fill="#b9b9b9"/>
        <path id="Trazado_755858" data-name="Trazado 755858" d="M99.333,430.819a1.28,1.28,0,0,0-.969-2.117H84.158a2.243,2.243,0,0,0-2.192,2.732l1.705,6.711c.789,3.564,5.532,3.411,7.953.609Z" transform="translate(-48.681 -254.781)" fill="#62575e"/>
        <path id="Trazado_755859" data-name="Trazado 755859" d="M113.758,370.176l1.192.191-.613,3.054c-.161.879-.548.968-.818.938a3.242,3.242,0,0,1-1.426-.671c-.56-.428-.422-1.461-.42-1.545l.054-2.084Z" transform="translate(-66.358 -219.929)" fill="#f4d0b8"/>
        <path id="Trazado_755860" data-name="Trazado 755860" d="M107.63,379.185l.56-.959.246-2.2,1.493.166-.216,1.931a.659.659,0,0,0,.085.51l.6,1.255a2.58,2.58,0,0,1,.373,1.584l-.487,4.353-3.605.095.646-5.777a2.613,2.613,0,0,1,.3-.961" transform="translate(-63.402 -223.478)" fill="#f4d0b8"/>
        <path id="Trazado_755861" data-name="Trazado 755861" d="M112.688,368.191c.914.174,1.215.612,1.121,1.461l-.071.64c-.024.206-.078.256-.248.138l-.946-.732c-.361-.227-.357.144-.374.287l-.1.9c-.013.116-.086.2-.252.12-.114-.055-.167-.234-.187-.364a.407.407,0,0,0-.238-.11l-.222-.026c-.157-.017-.183-.052-.239.091l-.244.642c-.289.773-.723.8-.762.7-.132-.363-.422-1.147-.508-1.449a1.882,1.882,0,0,1,2.223-2.478Z" transform="translate(-64.978 -218.699)" fill="#623c16"/>
        <path id="Trazado_755862" data-name="Trazado 755862" d="M113.586,373.848a.412.412,0,0,1,.375.4l-.084.75a.232.232,0,0,1-.181.174c-.215.017-.288-.177-.359-.392,0-.014-.093-.326-.1-.345-.076-.267-.006-.631.347-.59" transform="translate(-67.283 -222.179)" fill="#fde6d8"/>
        <path id="Trazado_755863" data-name="Trazado 755863" d="M107.63,382.266l.56-.959.011-.093,1.5.168a.613.613,0,0,0,.1.336l.6,1.255a2.58,2.58,0,0,1,.373,1.584l-.542,4.847-3.55-.4.646-5.777a2.612,2.612,0,0,1,.3-.961" transform="translate(-63.402 -226.559)" fill="#ececec"/>
        <path id="Trazado_755864" data-name="Trazado 755864" d="M111.69,382.273a1.823,1.823,0,0,1-1.32-1.082l.012-.026.022-.189,1.493.168a.965.965,0,0,0,.093.433l.357.746a1.7,1.7,0,0,1-.658-.05" transform="translate(-65.594 -226.417)" fill="#f4d0b8"/>
        <path id="Trazado_755865" data-name="Trazado 755865" d="M113.909,369.4c-.191-.069-.151-.276-.161-.528a2.2,2.2,0,0,0-2.169-2.183,2.257,2.257,0,0,0-2.5,1.991l-.045.416a.163.163,0,0,0,.143.181l3.547.4.614.069.664.073c.129.015.237,0,.252-.128.017-.161-.349-.288-.349-.288" transform="translate(-64.802 -217.92)" fill="#ffd243"/>
        <path id="Trazado_755866" data-name="Trazado 755866" d="M107.926,391.353a.915.915,0,0,0,.914-.914v-1.368l1.625.05c.073,0,.12.038.12.105l-.532,4.79-.006.239c2.744,0,4.783-.388,5.483.92,1.552,2.9,2.829,6.022,2.829,6.022a.388.388,0,0,1-.091.448,12.6,12.6,0,0,1-2.383,1.235.385.385,0,0,1-.338-.3s-2.164-4.9-2.551-4.9c-6.114.049-6.719.2-6.622-2.653.019-.556.378-3.672.378-3.672Z" transform="translate(-63.213 -231.228)" fill="#3a82c4"/>
        <path id="Trazado_755867" data-name="Trazado 755867" d="M108.946,383.27l.163-.278.373-.017a2,2,0,0,1,1.821,2.231l-.019.176-.5-.056.02-.171a1.519,1.519,0,0,0-1.375-1.694l-.57-.007c.028-.062.056-.126.088-.185" transform="translate(-64.695 -227.605)" fill="#3a82c4"/>
        <path id="Trazado_755868" data-name="Trazado 755868" d="M109.683,386.771c-.233-.386-.448-.884.157-1.25.565-.34,1.022.284,1.2.573.626,1.018,1.6,1.95,2.391,3.037l.054.084,4.57.388.4.9a51.14,51.14,0,0,1-5.28.181c-1.271-.4-3.485-3.913-3.485-3.913" transform="translate(-65.045 -229.06)" fill="#f4d0b8"/>
        <path id="Trazado_755869" data-name="Trazado 755869" d="M131.052,394.881c.243-.05.333-.407.286-.628-.015-.075.429-.218.572-.365a.2.2,0,0,0-.05-.335,8.041,8.041,0,0,0-.824.406c-.533.264-.5.5-.46.716s.232.256.475.206" transform="translate(-77.59 -233.891)" fill="#f4d0b8"/>
        <path id="Trazado_755870" data-name="Trazado 755870" d="M130.718,396.009l-.141-.633.7-.4.123-.024,1.005-.107a.5.5,0,0,1,.587.413c.074.332.006.036.006.036a.517.517,0,0,1-.377.594l-1.246.381c-.265.065-.6.029-.66-.262" transform="translate(-77.603 -234.657)" fill="#f4d0b8"/>
        <path id="Trazado_755871" data-name="Trazado 755871" d="M109.772,385.419c.539-.382,1.04.209,1.235.482.5.688.759,1.071,1.121,1.586l-1.3.938-1.193-1.681a.865.865,0,0,1,.135-1.325" transform="translate(-65.011 -228.983)" fill="#f3f2f1"/>
        <path id="Trazado_755872" data-name="Trazado 755872" d="M41.193,433.474H58.965v9.64H38.254Z" transform="translate(-22.735 -257.617)" fill="#966502"/>
        <path id="Trazado_755873" data-name="Trazado 755873" d="M108.775,434.269a1.149,1.149,0,0,0,.806,1.966h26.151a2.8,2.8,0,0,0,2.8-2.8v-8.1a2.8,2.8,0,0,0-2.8-2.8H123.452c-1.789,0-4.54.536-5.813,1.792Z" transform="translate(-64.441 -251.121)" fill="#966502"/>
        <path id="Trazado_755874" data-name="Trazado 755874" d="M177.563,401.99a2.418,2.418,0,0,1-4.836,0V365.1a2.418,2.418,0,0,1,4.836,0Z" transform="translate(-102.653 -215.544)" fill="#2d2a2f"/>
        <path id="Trazado_755875" data-name="Trazado 755875" d="M184.584,410.9a1.119,1.119,0,1,0,2.239,0V382.906a1.119,1.119,0,0,0-2.239,0Z" transform="translate(-109.7 -226.905)" fill="#62575e"/>
        <path id="Trazado_755876" data-name="Trazado 755876" d="M190.1,430.941a.74.74,0,0,0,1.48,0V416.848a.74.74,0,0,0-1.48,0Z" transform="translate(-112.979 -247.3)" fill="#9b9b9b"/>
        <path id="Trazado_755877" data-name="Trazado 755877" d="M43.391,447.695a7.292,7.292,0,1,0,7.292-7.292,7.292,7.292,0,0,0-7.292,7.292" transform="translate(-25.788 -261.735)" fill="#2d2a2f"/>
        <path id="Trazado_755878" data-name="Trazado 755878" d="M49.179,451.135a4.943,4.943,0,1,0,4.944-4.943,4.944,4.944,0,0,0-4.944,4.943" transform="translate(-29.227 -265.176)" fill="#b9b9b9"/>
        <path id="Trazado_755879" data-name="Trazado 755879" d="M51.548,452.543a3.983,3.983,0,1,0,3.983-3.983,3.982,3.982,0,0,0-3.983,3.983" transform="translate(-30.635 -266.583)" fill="#73716b"/>
        <path id="Trazado_755880" data-name="Trazado 755880" d="M55.688,455a2.3,2.3,0,1,0,2.3-2.3,2.3,2.3,0,0,0-2.3,2.3" transform="translate(-33.096 -269.045)" fill="#fff"/>
        <path id="Trazado_755881" data-name="Trazado 755881" d="M42.927,386.958c1.851,0,3.7-.376,5.542-.191A8.237,8.237,0,0,1,55.7,393.3a3.189,3.189,0,0,0,2.876,2.807H71.344c.385,0,.37-.5.275-.875A10.617,10.617,0,0,1,83.9,382.217c4.975.959,2.906.893,8.627.893,2.063,0,2.33-3.107.632-4.086-1.5-.86-.991-.308-7.407-19.862-1.024-3.12-3.254-4.08-5.708-5.545-3.061-1.827-4.482-1.508-17.1-1.95a3.228,3.228,0,0,0-3.287,2.656l-2.7,15.157a16.751,16.751,0,0,0-.26,2.938,1.481,1.481,0,0,1-1.48,1.48H41.911a2.674,2.674,0,0,0-2.6,2.044l-.224.927a.9.9,0,0,0,.879,1.116A1.033,1.033,0,0,1,41,379.13l-.549,5.168A1.155,1.155,0,0,1,39.3,385.33h-.223a.814.814,0,0,0,0,1.629ZM59.165,371.6l2.408-15.1a3.169,3.169,0,0,1,3.236-2.667l9.162.318a11.08,11.08,0,0,1,6.229,2.35,7.811,7.811,0,0,1,3.168,4.207l4.7,15.165a2.06,2.06,0,0,1-1.969,2.672H81.755c-3.514,0-4.757,1.814-10.175,6.828a7.426,7.426,0,0,1-5.67,1.9,3.957,3.957,0,0,1-3.725-2.64l-2.093-5.95a16.4,16.4,0,0,1-.927-5.436Z" transform="translate(-22.744 -208.998)" fill="#f2b61d"/>
        <path id="Trazado_755882" data-name="Trazado 755882" d="M42.2,438.124a.236.236,0,0,1,.057.463,8.206,8.206,0,0,0-5.412,8.976,1.4,1.4,0,0,1-1.289,1.682,1.732,1.732,0,0,1-1.731-1.732v-6.592a2.8,2.8,0,0,1,2.8-2.8Z" transform="translate(-20.101 -260.381)" fill="#62565b"/>
        <path id="Trazado_755883" data-name="Trazado 755883" d="M75.687,417.727a2.35,2.35,0,1,1-2.349-2.349,2.35,2.35,0,0,1,2.349,2.349" transform="translate(-42.189 -246.863)" fill="#966502"/>
        <path id="Trazado_755884" data-name="Trazado 755884" d="M122.47,438.715a9.54,9.54,0,1,0,9.54-9.541,9.54,9.54,0,0,0-9.54,9.541" transform="translate(-72.785 -255.062)" fill="#2d2a2f"/>
        <path id="Trazado_755885" data-name="Trazado 755885" d="M130.044,443.217a6.468,6.468,0,1,0,6.467-6.468,6.467,6.467,0,0,0-6.467,6.468" transform="translate(-77.286 -259.564)" fill="#b9b9b9"/>
        <path id="Trazado_755886" data-name="Trazado 755886" d="M133.14,445.057a5.212,5.212,0,1,0,5.212-5.211,5.211,5.211,0,0,0-5.212,5.211" transform="translate(-79.126 -261.404)" fill="#73716b"/>
        <path id="Trazado_755887" data-name="Trazado 755887" d="M138.561,448.278a3.012,3.012,0,1,0,3.012-3.012,3.012,3.012,0,0,0-3.012,3.012" transform="translate(-82.348 -264.625)" fill="#fff"/>
        <rect id="Rectángulo_358511" data-name="Rectángulo 358511" width="77.32" height="14.336" transform="translate(10.368 73.143)" fill="#a8a8a8"/>
        <rect id="Rectángulo_358512" data-name="Rectángulo 358512" width="4.432" height="14.336" transform="translate(87.688 73.143)" fill="#898989"/>
        <path id="Trazado_755888" data-name="Trazado 755888" d="M99.3,141.244H19.376V117.333a2.914,2.914,0,0,1,2.912-2.913H96.394a2.913,2.913,0,0,1,2.911,2.913Z" transform="translate(-11.515 -68.001)" fill="#f0f0f0"/>
        <path id="Trazado_755889" data-name="Trazado 755889" d="M94.153,161.848H13.983a7.52,7.52,0,0,1,0-15.04h80.17a7.52,7.52,0,0,1,0,15.04M13.983,149.72a4.608,4.608,0,0,0,0,9.216h80.17a4.608,4.608,0,0,0,0-9.216Z" transform="translate(-3.843 -87.249)" fill="#5d6060"/>
        <rect id="Rectángulo_358513" data-name="Rectángulo 358513" width="7.421" height="7.725" transform="translate(45.003 52.089)" fill="#d6b154"/>
        <rect id="Rectángulo_358514" data-name="Rectángulo 358514" width="7.422" height="7.725" transform="translate(42.805 52.089)" fill="#f2d886"/>
        <path id="Trazado_755890" data-name="Trazado 755890" d="M118.341,122.613a.084.084,0,0,0-.083-.082h-7.242a.082.082,0,0,0-.082.082v2.3h7.407Z" transform="translate(-65.929 -72.821)" fill="#e2c36d"/>
        <path id="Trazado_755891" data-name="Trazado 755891" d="M123.753,125.947l1.6-1.6a.2.2,0,0,1,.142-.06l2.048-.039a.033.033,0,0,1,.022.057l-1.637,1.638Z" transform="translate(-73.547 -73.842)" fill="#ba9643"/>
        <path id="Trazado_755892" data-name="Trazado 755892" d="M105.32,125.907l-1.6-1.6a.2.2,0,0,0-.14-.06l-2.048-.039a.034.034,0,0,0-.023.058l1.638,1.638Z" transform="translate(-60.321 -73.818)" fill="#f4dd9d"/>
        <rect id="Rectángulo_358515" data-name="Rectángulo 358515" width="7.422" height="7.423" transform="translate(72.56 52.228)" fill="#d6b154"/>
        <rect id="Rectángulo_358516" data-name="Rectángulo 358516" width="7.423" height="7.511" transform="translate(70.346 52.139)" fill="#f2d886"/>
        <path id="Trazado_755893" data-name="Trazado 755893" d="M95.884,156.461a6.065,6.065,0,0,1-6.064,6.064H9.65a6.064,6.064,0,0,1,0-12.127H89.82a6.064,6.064,0,0,1,6.064,6.063" transform="translate(-2.132 -89.383)" fill="#1d394c"/>
        <path id="Trazado_755894" data-name="Trazado 755894" d="M87.687,161.848H7.517a7.52,7.52,0,0,1,0-15.04h80.17a7.52,7.52,0,0,1,0,15.04M7.517,149.72a4.608,4.608,0,0,0,0,9.216h80.17a4.608,4.608,0,0,0,0-9.216Z" transform="translate(0 -87.249)" fill="#d0d4d7"/>
        <path id="Trazado_755895" data-name="Trazado 755895" d="M141.612,152.387a.686.686,0,0,1-.685.686h-7.093a.687.687,0,0,1-.688-.686v-2.4a.688.688,0,0,1,.688-.687h7.093a.687.687,0,0,1,.685.687Z" transform="translate(-79.129 -88.729)" fill="#d0d4d7"/>
        <path id="Trazado_755896" data-name="Trazado 755896" d="M186.837,152.387a.686.686,0,0,1-.687.686h-7.091a.688.688,0,0,1-.689-.686v-2.4a.689.689,0,0,1,.689-.687h7.091a.687.687,0,0,1,.687.687Z" transform="translate(-106.006 -88.729)" fill="#d0d4d7"/>
        <path id="Trazado_755897" data-name="Trazado 755897" d="M90.855,152.387a.688.688,0,0,1-.688.686H83.073a.685.685,0,0,1-.686-.686v-2.4a.686.686,0,0,1,.686-.687h7.094a.688.688,0,0,1,.688.687Z" transform="translate(-48.963 -88.729)" fill="#d0d4d7"/>
        <path id="Rectángulo_358517" data-name="Rectángulo 358517" d="M1.691,0H6.773A1.693,1.693,0,0,1,8.466,1.693v.389A1.693,1.693,0,0,1,6.773,3.775H1.693A1.693,1.693,0,0,1,0,2.082V1.691A1.691,1.691,0,0,1,1.691,0Z" transform="translate(12.831 60.569)" fill="#d0d4d7"/>
        <path id="Trazado_755898" data-name="Trazado 755898" d="M166.636,174.15a.686.686,0,0,1-.686.688h-7.094a.686.686,0,0,1-.686-.688v-2.4a.686.686,0,0,1,.686-.686h7.094a.686.686,0,0,1,.686.686Z" transform="translate(-94.002 -101.664)" fill="#d0d4d7"/>
        <path id="Rectángulo_358518" data-name="Rectángulo 358518" d="M1.7,0H6.773A1.693,1.693,0,0,1,8.466,1.693v.392A1.691,1.691,0,0,1,6.775,3.776H1.693A1.693,1.693,0,0,1,0,2.083V1.7A1.7,1.7,0,0,1,1.7,0Z" transform="translate(43.575 69.398)" fill="#d0d4d7"/>
        <path id="Rectángulo_358519" data-name="Rectángulo 358519" d="M1.7,0H6.773A1.693,1.693,0,0,1,8.466,1.693v.392A1.691,1.691,0,0,1,6.775,3.776H1.689A1.689,1.689,0,0,1,0,2.087V1.7A1.7,1.7,0,0,1,1.7,0Z" transform="translate(22.982 69.398)" fill="#d0d4d7"/>
        <path id="Trazado_755899" data-name="Trazado 755899" d="M214.2,159.922a3.7,3.7,0,1,1-3.7-3.7,3.7,3.7,0,0,1,3.7,3.7" transform="translate(-122.903 -92.844)" fill="#d0d4d7"/>
        <path id="Trazado_755900" data-name="Trazado 755900" d="M17.51,159.922a3.7,3.7,0,1,1-3.7-3.7,3.7,3.7,0,0,1,3.7,3.7" transform="translate(-6.007 -92.844)" fill="#d0d4d7"/>
        <path id="Trazado_755901" data-name="Trazado 755901" d="M95.637,7.2H5.1l0,9.077,90.536-.028Z" transform="translate(-3.031 -4.279)" fill="#2f5c70"/>
        <path id="Trazado_755902" data-name="Trazado 755902" d="M95.637,0H5.1l0,4.749,90.536-.015Z" transform="translate(-3.031 0)" fill="#80949b"/>
        <rect id="Rectángulo_358520" data-name="Rectángulo 358520" width="2.114" height="19.688" transform="translate(46.546 11.97)" fill="#9fa7aa"/>
        <path id="Rectángulo_358521" data-name="Rectángulo 358521" d="M.522,0H3.071a.523.523,0,0,1,.523.523V6.789a.521.521,0,0,1-.521.521H.518A.518.518,0,0,1,0,6.792V.522A.522.522,0,0,1,.522,0Z" transform="translate(45.806 11.97)" fill="#7f7f7f"/>
        <rect id="Rectángulo_358522" data-name="Rectángulo 358522" width="6.218" height="5.768" transform="translate(44.494 38.868)" fill="#e8ad72"/>
        <rect id="Rectángulo_358523" data-name="Rectángulo 358523" width="0.182" height="5.768" transform="translate(48.761 38.868)" fill="#b5763c"/>
        <path id="Trazado_755903" data-name="Trazado 755903" d="M112.809,76.2h-4.725a2.187,2.187,0,1,0-4.374,0H98.985a.9.9,0,0,0-.9.9v4.761a1.349,1.349,0,0,0,.4.956l2.755,2.727a1.361,1.361,0,0,0,.96.394h.587V83.824l-2.17-2.151a.669.669,0,0,1-.2-.478V78.814a.28.28,0,0,1,.28-.28h10.4a.28.28,0,0,1,.281.28V81.2a.675.675,0,0,1-.2.478l-2.173,2.151V85.94h.59a1.361,1.361,0,0,0,.958-.394l2.755-2.727a1.348,1.348,0,0,0,.4-.956V77.1a.9.9,0,0,0-.9-.9M105.9,75.143a1.06,1.06,0,0,1,1.06,1.062h-2.12a1.061,1.061,0,0,1,1.06-1.062" transform="translate(-58.295 -43.989)" fill="#0e3c55"/>
        <rect id="Rectángulo_358524" data-name="Rectángulo 358524" width="2.115" height="19.688" transform="translate(18.541 11.97)" fill="#9fa7aa"/>
        <path id="Trazado_755904" data-name="Trazado 755904" d="M43.777,76.2H39.053a2.187,2.187,0,1,0-4.375,0H29.954a.9.9,0,0,0-.9.9v4.761a1.353,1.353,0,0,0,.4.956l2.756,2.727a1.362,1.362,0,0,0,.96.394h.588V83.824l-2.171-2.151a.667.667,0,0,1-.2-.478V78.814a.279.279,0,0,1,.279-.28h10.4a.279.279,0,0,1,.281.28V81.2a.677.677,0,0,1-.2.478l-2.172,2.151V85.94h.589a1.362,1.362,0,0,0,.959-.394l2.755-2.727a1.347,1.347,0,0,0,.4-.956V77.1a.9.9,0,0,0-.9-.9m-6.911-1.062A1.062,1.062,0,0,1,37.927,76.2H35.805a1.06,1.06,0,0,1,1.06-1.062" transform="translate(-17.268 -43.989)" fill="#0e3c55"/>
        <rect id="Rectángulo_358525" data-name="Rectángulo 358525" width="2.115" height="37.242" transform="translate(74.094 11.97)" fill="#9fa7aa"/>
        <path id="Trazado_755905" data-name="Trazado 755905" d="M180.813,36.6a.211.211,0,0,0,.21.212H184.2a.213.213,0,0,0,.213-.212V29.716a.213.213,0,0,0-.213-.211h-3.173a.211.211,0,0,0-.21.211Z" transform="translate(-107.459 -17.535)" fill="#7f7f7f"/>
        <path id="Rectángulo_358526" data-name="Rectángulo 358526" d="M.522,0H3.074a.52.52,0,0,1,.52.52V6.789a.521.521,0,0,1-.521.521H.522A.522.522,0,0,1,0,6.788V.522A.522.522,0,0,1,.522,0Z" transform="translate(17.816 11.97)" fill="#7f7f7f"/>
        <path id="Rectángulo_358527" data-name="Rectángulo 358527" d="M1.2,0H14.42a1.2,1.2,0,0,1,1.2,1.2v0a1.2,1.2,0,0,1-1.2,1.2H1.2A1.2,1.2,0,0,1,0,1.2v0A1.2,1.2,0,0,1,1.2,0Z" transform="translate(67.342 49.77)" fill="#0e3c55"/>
        <path id="Trazado_755906" data-name="Trazado 755906" d="M182.041,118.412a1.061,1.061,0,0,1,1.062,1.062h1.125a2.187,2.187,0,1,0-4.374,0h1.125a1.061,1.061,0,0,1,1.062-1.062" transform="translate(-106.889 -69.704)" fill="#0e3c55"/>
        <rect id="Rectángulo_358528" data-name="Rectángulo 358528" width="7.422" height="7.423" transform="translate(16.997 38.369)" fill="#d6b154"/>
        <rect id="Rectángulo_358529" data-name="Rectángulo 358529" width="7.422" height="7.423" transform="translate(14.799 38.369)" fill="#f2d886"/>
        <path id="Trazado_755907" data-name="Trazado 755907" d="M49.306,88.795a.08.08,0,0,0-.079-.082H41.984a.083.083,0,0,0-.083.082V91.1h7.405Z" transform="translate(-24.902 -52.723)" fill="#e2c36d"/>
        <path id="Trazado_755908" data-name="Trazado 755908" d="M54.772,92.146l1.577-1.594a.2.2,0,0,1,.14-.06l2.046-.037a.033.033,0,0,1,.026.056l-1.585,1.636Z" transform="translate(-32.551 -53.758)" fill="#ba9643"/>
        <path id="Trazado_755909" data-name="Trazado 755909" d="M36.268,92.111,34.641,90.5a.194.194,0,0,0-.14-.06L32.453,90.4a.035.035,0,0,0-.026.057L34.067,92.1Z" transform="translate(-19.267 -53.727)" fill="#f4dd9d"/>
        <path id="Trazado_755910" data-name="Trazado 755910" d="M40.3,197.38a1.737,1.737,0,1,1-1.737-1.736A1.737,1.737,0,0,1,40.3,197.38" transform="translate(-21.888 -116.273)" fill="#81d152"/>
        <path id="Trazado_755911" data-name="Trazado 755911" d="M53.519,197.38a1.737,1.737,0,1,1-1.737-1.736,1.737,1.737,0,0,1,1.737,1.736" transform="translate(-29.742 -116.273)" fill="#d13920"/>
        <path id="Trazado_755912" data-name="Trazado 755912" d="M66.734,197.38A1.737,1.737,0,1,1,65,195.644a1.737,1.737,0,0,1,1.737,1.736" transform="translate(-37.596 -116.273)" fill="#edc314"/>
        <rect id="Rectángulo_358530" data-name="Rectángulo 358530" width="0.577" height="7.853" transform="translate(84.203 76.929)" fill="#898989"/>
        <rect id="Rectángulo_358531" data-name="Rectángulo 358531" width="0.253" height="7.853" transform="translate(83.954 76.929)" fill="#6d6d6d"/>
        <rect id="Rectángulo_358532" data-name="Rectángulo 358532" width="0.577" height="7.853" transform="translate(82.636 76.929)" fill="#898989"/>
        <rect id="Rectángulo_358533" data-name="Rectángulo 358533" width="0.253" height="7.853" transform="translate(82.387 76.929)" fill="#6d6d6d"/>
        <rect id="Rectángulo_358534" data-name="Rectángulo 358534" width="0.578" height="7.853" transform="translate(81.069 76.929)" fill="#898989"/>
        <rect id="Rectángulo_358535" data-name="Rectángulo 358535" width="0.252" height="7.853" transform="translate(80.821 76.929)" fill="#6d6d6d"/>
        <rect id="Rectángulo_358536" data-name="Rectángulo 358536" width="0.577" height="7.853" transform="translate(79.503 76.929)" fill="#898989"/>
        <rect id="Rectángulo_358537" data-name="Rectángulo 358537" width="0.252" height="7.853" transform="translate(79.254 76.929)" fill="#6d6d6d"/>
        <rect id="Rectángulo_358538" data-name="Rectángulo 358538" width="0.577" height="7.853" transform="translate(77.936 76.929)" fill="#898989"/>
        <rect id="Rectángulo_358539" data-name="Rectángulo 358539" width="0.253" height="7.853" transform="translate(77.687 76.929)" fill="#6d6d6d"/>
        <rect id="Rectángulo_358540" data-name="Rectángulo 358540" width="0.578" height="7.853" transform="translate(76.369 76.929)" fill="#898989"/>
        <rect id="Rectángulo_358541" data-name="Rectángulo 358541" width="0.253" height="7.853" transform="translate(76.12 76.929)" fill="#6d6d6d"/>
        <rect id="Rectángulo_358542" data-name="Rectángulo 358542" width="0.577" height="7.853" transform="translate(74.803 76.929)" fill="#898989"/>
        <rect id="Rectángulo_358543" data-name="Rectángulo 358543" width="0.253" height="7.853" transform="translate(74.553 76.929)" fill="#6d6d6d"/>
        <rect id="Rectángulo_358544" data-name="Rectángulo 358544" width="0.577" height="7.853" transform="translate(73.235 76.929)" fill="#898989"/>
        <rect id="Rectángulo_358545" data-name="Rectángulo 358545" width="0.253" height="7.853" transform="translate(72.986 76.929)" fill="#6d6d6d"/>
        <rect id="Rectángulo_358546" data-name="Rectángulo 358546" width="0.578" height="7.853" transform="translate(71.669 76.929)" fill="#898989"/>
        <rect id="Rectángulo_358547" data-name="Rectángulo 358547" width="0.253" height="7.853" transform="translate(71.42 76.929)" fill="#6d6d6d"/>
        <rect id="Rectángulo_358548" data-name="Rectángulo 358548" width="0.577" height="7.853" transform="translate(70.102 76.929)" fill="#898989"/>
        <rect id="Rectángulo_358549" data-name="Rectángulo 358549" width="0.253" height="7.853" transform="translate(69.853 76.929)" fill="#6d6d6d"/>
        <rect id="Rectángulo_358550" data-name="Rectángulo 358550" width="0.577" height="7.853" transform="translate(68.535 76.929)" fill="#898989"/>
        <rect id="Rectángulo_358551" data-name="Rectángulo 358551" width="0.253" height="7.853" transform="translate(68.286 76.929)" fill="#6d6d6d"/>
        <rect id="Rectángulo_358552" data-name="Rectángulo 358552" width="0.578" height="7.853" transform="translate(66.968 76.929)" fill="#898989"/>
        <rect id="Rectángulo_358553" data-name="Rectángulo 358553" width="0.252" height="7.853" transform="translate(66.72 76.929)" fill="#6d6d6d"/>
        <rect id="Rectángulo_358554" data-name="Rectángulo 358554" width="0.577" height="7.853" transform="translate(65.402 76.929)" fill="#898989"/>
        <rect id="Rectángulo_358555" data-name="Rectángulo 358555" width="0.252" height="7.853" transform="translate(65.153 76.929)" fill="#6d6d6d"/>
        <rect id="Rectángulo_358556" data-name="Rectángulo 358556" width="0.578" height="7.853" transform="translate(63.835 76.929)" fill="#898989"/>
        <rect id="Rectángulo_358557" data-name="Rectángulo 358557" width="0.253" height="7.853" transform="translate(63.586 76.929)" fill="#6d6d6d"/>
        <rect id="Rectángulo_358558" data-name="Rectángulo 358558" width="0.578" height="7.853" transform="translate(62.268 76.929)" fill="#898989"/>
        <rect id="Rectángulo_358559" data-name="Rectángulo 358559" width="0.253" height="7.853" transform="translate(62.019 76.929)" fill="#6d6d6d"/>
        <rect id="Rectángulo_358560" data-name="Rectángulo 358560" width="0.577" height="7.853" transform="translate(60.702 76.929)" fill="#898989"/>
        <rect id="Rectángulo_358561" data-name="Rectángulo 358561" width="0.253" height="7.853" transform="translate(60.453 76.929)" fill="#6d6d6d"/>
        <g id="Grupo_1023925" data-name="Grupo 1023925" transform="translate(7.432 6.156)" opacity="0.25" style="mix-blend-mode: multiply;isolation: isolate">
          <g id="Grupo_1023924" data-name="Grupo 1023924">
            <g id="Grupo_1023923" data-name="Grupo 1023923" clip-path="url(#clip-path-3)">
              <rect id="Rectángulo_358562" data-name="Rectángulo 358562" width="0.748" height="4.426" transform="translate(30.761)" fill="#898989"/>
              <rect id="Rectángulo_358563" data-name="Rectángulo 358563" width="0.327" height="4.426" transform="translate(30.439)" fill="#6d6d6d"/>
              <rect id="Rectángulo_358564" data-name="Rectángulo 358564" width="0.748" height="4.426" transform="translate(28.732)" fill="#898989"/>
              <rect id="Rectángulo_358565" data-name="Rectángulo 358565" width="0.327" height="4.426" transform="translate(28.409)" fill="#6d6d6d"/>
              <rect id="Rectángulo_358566" data-name="Rectángulo 358566" width="0.748" height="4.426" transform="translate(26.703)" fill="#898989"/>
              <rect id="Rectángulo_358567" data-name="Rectángulo 358567" width="0.327" height="4.426" transform="translate(26.38)" fill="#6d6d6d"/>
              <rect id="Rectángulo_358568" data-name="Rectángulo 358568" width="0.748" height="4.426" transform="translate(24.673)" fill="#898989"/>
              <rect id="Rectángulo_358569" data-name="Rectángulo 358569" width="0.327" height="4.426" transform="translate(24.351)" fill="#6d6d6d"/>
              <rect id="Rectángulo_358570" data-name="Rectángulo 358570" width="0.748" height="4.426" transform="translate(22.644)" fill="#898989"/>
              <rect id="Rectángulo_358571" data-name="Rectángulo 358571" width="0.327" height="4.426" transform="translate(22.321)" fill="#6d6d6d"/>
              <rect id="Rectángulo_358572" data-name="Rectángulo 358572" width="0.748" height="4.426" transform="translate(20.615)" fill="#898989"/>
              <rect id="Rectángulo_358573" data-name="Rectángulo 358573" width="0.327" height="4.426" transform="translate(20.293)" fill="#6d6d6d"/>
              <rect id="Rectángulo_358574" data-name="Rectángulo 358574" width="0.748" height="4.426" transform="translate(18.586)" fill="#898989"/>
              <rect id="Rectángulo_358575" data-name="Rectángulo 358575" width="0.327" height="4.426" transform="translate(18.263)" fill="#6d6d6d"/>
              <rect id="Rectángulo_358576" data-name="Rectángulo 358576" width="0.748" height="4.426" transform="translate(16.557)" fill="#898989"/>
              <rect id="Rectángulo_358577" data-name="Rectángulo 358577" width="0.327" height="4.426" transform="translate(16.234)" fill="#6d6d6d"/>
              <rect id="Rectángulo_358578" data-name="Rectángulo 358578" width="0.748" height="4.426" transform="translate(14.527)" fill="#898989"/>
              <rect id="Rectángulo_358579" data-name="Rectángulo 358579" width="0.327" height="4.426" transform="translate(14.205)" fill="#6d6d6d"/>
              <rect id="Rectángulo_358580" data-name="Rectángulo 358580" width="0.748" height="4.426" transform="translate(12.498)" fill="#898989"/>
              <rect id="Rectángulo_358581" data-name="Rectángulo 358581" width="0.327" height="4.426" transform="translate(12.176)" fill="#6d6d6d"/>
              <rect id="Rectángulo_358582" data-name="Rectángulo 358582" width="0.748" height="4.426" transform="translate(10.469)" fill="#898989"/>
              <rect id="Rectángulo_358583" data-name="Rectángulo 358583" width="0.327" height="4.426" transform="translate(10.146)" fill="#6d6d6d"/>
              <rect id="Rectángulo_358584" data-name="Rectángulo 358584" width="0.748" height="4.426" transform="translate(8.439)" fill="#898989"/>
              <rect id="Rectángulo_358585" data-name="Rectángulo 358585" width="0.327" height="4.426" transform="translate(8.117)" fill="#6d6d6d"/>
              <rect id="Rectángulo_358586" data-name="Rectángulo 358586" width="0.747" height="4.426" transform="translate(6.411)" fill="#898989"/>
              <rect id="Rectángulo_358587" data-name="Rectángulo 358587" width="0.327" height="4.426" transform="translate(6.088)" fill="#6d6d6d"/>
              <rect id="Rectángulo_358588" data-name="Rectángulo 358588" width="0.748" height="4.426" transform="translate(4.381)" fill="#898989"/>
              <rect id="Rectángulo_358589" data-name="Rectángulo 358589" width="0.327" height="4.426" transform="translate(4.059)" fill="#6d6d6d"/>
              <rect id="Rectángulo_358590" data-name="Rectángulo 358590" width="0.748" height="4.426" transform="translate(2.352)" fill="#898989"/>
              <rect id="Rectángulo_358591" data-name="Rectángulo 358591" width="0.327" height="4.426" transform="translate(2.029)" fill="#6d6d6d"/>
              <rect id="Rectángulo_358592" data-name="Rectángulo 358592" width="0.748" height="4.426" transform="translate(0.323)" fill="#898989"/>
              <rect id="Rectángulo_358593" data-name="Rectángulo 358593" width="0.327" height="4.426" transform="translate(0)" fill="#6d6d6d"/>
            </g>
          </g>
        </g>
        <path id="Trazado_755913" data-name="Trazado 755913" d="M5.1,29.533l90.536-.028-6.107,2.438H11Z" transform="translate(-3.034 -17.535)" fill="#75939e"/>
        <path id="Trazado_755914" data-name="Trazado 755914" d="M649.749,129.728c.529-.188,3.445.675,3.445.675l.473,1.617a1.44,1.44,0,0,1-1.24.52c-.443-.02-1.052-.193-1.579-.18l-1.968-1.7a2.171,2.171,0,0,1,.869-.93" transform="translate(-385.635 -77.082)" fill="#cca283"/>
        <path id="Trazado_755915" data-name="Trazado 755915" d="M667.7,107.644l-2.352,6.984a2.155,2.155,0,0,1-.331.677,5.756,5.756,0,0,1-3.157,1.533,13.688,13.688,0,0,0-2.3.978l-.759-1.7,3.448-2.342c.1-.007.192-.205.215-.307l1.585-7.667Z" transform="translate(-391.536 -62.879)" fill="#cca283"/>
        <path id="Trazado_755916" data-name="Trazado 755916" d="M666.918,103.619c.841-1.6,2.087-4.777,2.76-5.956a3.281,3.281,0,0,1,3.211-1.413l-1.241,6.8s-.533,1.3-1.144,2.583Z" transform="translate(-396.355 -57.186)" fill="#d35133"/>
        <path id="Trazado_755917" data-name="Trazado 755917" d="M673.224,99.527c-.042-2.562,1.775-3.058,1.775-3.058a3.439,3.439,0,0,1,1.1-.191l4.6.1c.045,0,1.617.306,2.026.377,0,0,4.417,1.431,4.674,1.583,1.551.912.729,4.1.729,4.1l-3.381,7.479s-.433,4.827-.619,5.034a3.7,3.7,0,0,1-1.989.929v.009a26.4,26.4,0,0,1-4.234.233c-4.8-.38-5.218-2.01-5.185-2.208a15.7,15.7,0,0,0,.157-3.884c-.038-1.381.374-8.876.346-10.5" transform="translate(-399.803 -57.219)" fill="#ff592c"/>
        <path id="Trazado_755918" data-name="Trazado 755918" d="M669.9,125.921c.064-1.041.065-3.133.34-5.267.187-3.8,1-18.886,1-18.886h.836c.686-5.27,3.142-5.439,3.142-5.439l1.736.038c-3.092.895-2.8,5.711-2.8,5.711l4.77,1.049c.825-5.2,3.626-5.771,3.626-5.771l1.438.475c-3.239,1.473-3.237,6.537-3.237,6.537.424,1.114,2.791,1.065,2.791,1.065-.932,3.135-1,9.158-1.39,12.476L682,120.164l-.3,8.434-.607,15.579-3.687-.1-.671-14.381-.687-8.932a39.732,39.732,0,0,0-1.547,6.082c-.522,2.859-1.614,17.023-1.614,17.023l-3.394-.034s.187-14.354.407-17.911" transform="translate(-397.888 -57.249)" fill="#162744"/>
        <path id="Trazado_755919" data-name="Trazado 755919" d="M687.939,96.115l3.919.631a3.069,3.069,0,0,1-.257,1.162,2.085,2.085,0,1,1-3.734-1.65c.023-.049.047-.1.071-.144" transform="translate(-408.652 -57.122)" fill="#fff"/>
        <path id="Trazado_755920" data-name="Trazado 755920" d="M665.476,210.15a2.284,2.284,0,0,0-.933.186c-.456.129-.952.391-1.164.45-.3.085-.714-.06-1.278-.8-.4-.517-.589-.6-.6-.286-.027.55-.6.757-.93.854l-2.679.3a1.648,1.648,0,0,0-1.42,1.869l.237.418c.084.411.053.613.138.611l3.929-.148c.37.011,3.218.046,3.218.046l1.437-.093c.275.009.318-.652.326-.912l-.018-1.983c-.017-.246-.124-.476-.258-.516" transform="translate(-390.144 -124.52)" fill="#3a5869"/>
        <path id="Trazado_755921" data-name="Trazado 755921" d="M656.458,217.27s-.089,1.062.375,1.035l8.408-.08c.346-.055.488-.174.5-.6l0-.447Z" transform="translate(-390.134 -129.068)" fill="#bccbd6"/>
        <path id="Trazado_755922" data-name="Trazado 755922" d="M693.389,76.3l1.324-3.33s0-1.925-.683-2.582a4.69,4.69,0,0,0-2.308-1.075,19.638,19.638,0,0,0-3.153.578c-.31.076-.465.756-.465.756a22.874,22.874,0,0,0-.566,3.687c.146,1.319.721,4.137.721,4.137L690.7,79s.878.35,1.169.2c.409-.2,1.52-2.9,1.52-2.9" transform="translate(-408.605 -41.195)" fill="#2f0102"/>
        <path id="Trazado_755923" data-name="Trazado 755923" d="M692.256,91.2l1.057-4.394-4.41.692-.482,2.539c-.122.642-.384,2.444.327,2.975a2.051,2.051,0,0,0,2.034.142,3.489,3.489,0,0,0,1.472-1.955" transform="translate(-409.046 -51.59)" fill="#e8c5ac"/>
        <path id="Trazado_755924" data-name="Trazado 755924" d="M692.482,89.221a15.657,15.657,0,0,1-2.095,1.127,1.887,1.887,0,0,1-1.777-.245l.276-1.458.4-1.173,4.229-.664-.491,2.043a3.114,3.114,0,0,1-.54.371" transform="translate(-409.247 -51.59)" fill="#cca283"/>
        <path id="Trazado_755925" data-name="Trazado 755925" d="M689.673,71.636c-2.83-.023-2.861,3.074-2.861,3.074s-.2,3.221-.175,3.861a3.854,3.854,0,0,0,.307,1.054,3.911,3.911,0,0,0,.534,1.067,2.079,2.079,0,0,0,1.908.331,13.767,13.767,0,0,0,1.876-1.053c.78-.488.686-.842.992-1.592a20.664,20.664,0,0,0,.847-2.4c0-.021.008-.038.01-.05l.376-1.821a3.769,3.769,0,0,0-3.814-2.467" transform="translate(-408.073 -42.574)" fill="#e5ccb7"/>
        <path id="Trazado_755926" data-name="Trazado 755926" d="M690.713,82.751c.037-.415.5-.635.513-.487l-.1,2.3s-.036.246-.521.284a1.011,1.011,0,0,1-.539-.084c-.121-.063-.119-.178-.069-.165.313.081.49,0,.518-.2.055-.385.135-1.005.193-1.646" transform="translate(-410.055 -48.863)" fill="#cca283"/>
        <path id="Trazado_755927" data-name="Trazado 755927" d="M693.095,81.293a.173.173,0,0,0,.178.168c.32,0,.994,0,1.328.034.179.016.749.031.686-.034a1,1,0,0,0-.656-.3c-.36-.033-1.07-.036-1.383-.036a.16.16,0,0,0-.153.17" transform="translate(-411.912 -48.212)" fill="#351d0c"/>
        <path id="Trazado_755928" data-name="Trazado 755928" d="M687.087,80.01c-.159.062.23.266.489.309.275.046.6.123.8.168a.16.16,0,0,0,.2-.112.181.181,0,0,0-.151-.2c-.2-.048-.536-.124-.821-.173a.971.971,0,0,0-.521.005" transform="translate(-408.32 -47.529)" fill="#351d0c"/>
        <path id="Trazado_755929" data-name="Trazado 755929" d="M690.205,81.178l-.493,2.588a1.576,1.576,0,0,1,.379.08c.194.069.421-2.788.421-2.788Z" transform="translate(-409.901 -48.173)" fill="#e5ccb7"/>
        <path id="Trazado_755930" data-name="Trazado 755930" d="M694.5,83.559c.084.015.159.031.228.046a.253.253,0,0,1,0,.086.239.239,0,0,1-.271.2.244.244,0,0,1-.19-.284.251.251,0,0,1,.025-.074,1.387,1.387,0,0,1,.208.022" transform="translate(-412.609 -49.647)" fill="#428287"/>
        <path id="Trazado_755931" data-name="Trazado 755931" d="M693.592,83.094c.031-.022.06,0,.094.018a1.326,1.326,0,0,0,.4.144,1.3,1.3,0,0,0,.549.018c.032-.008.061.018.066.057a.076.076,0,0,1-.052.087,1.252,1.252,0,0,1-.576,0,.958.958,0,0,1-.495-.225.074.074,0,0,1,.015-.1" transform="translate(-412.19 -49.378)" fill="#19120a"/>
        <path id="Trazado_755932" data-name="Trazado 755932" d="M688.118,82.747c.065.005.123.013.176.021a.28.28,0,0,1,0,.078.205.205,0,0,1-.2.211.208.208,0,0,1-.161-.241.283.283,0,0,1,.016-.069.838.838,0,0,1,.161,0" transform="translate(-408.849 -49.175)" fill="#428287"/>
        <path id="Trazado_755933" data-name="Trazado 755933" d="M687.392,82.41c.024-.023.046,0,.073.008a1.005,1.005,0,0,0,.734.059c.024-.011.047.011.054.045a.078.078,0,0,1-.036.084.822.822,0,0,1-.441.055.643.643,0,0,1-.391-.159.08.08,0,0,1,.006-.092" transform="translate(-408.512 -48.97)" fill="#19120a"/>
        <path id="Trazado_755934" data-name="Trazado 755934" d="M689.432,90.058a2.733,2.733,0,0,0,.328.092,1.446,1.446,0,0,0,.835-.057.075.075,0,0,0,.035-.107.094.094,0,0,0-.116-.042,1.309,1.309,0,0,1-.719.042,2.046,2.046,0,0,1-.619-.229.094.094,0,0,0-.12.023.074.074,0,0,0,.014.109,1.85,1.85,0,0,0,.361.17" transform="translate(-409.502 -53.336)" fill="#cca283"/>
        <path id="Trazado_755935" data-name="Trazado 755935" d="M690.288,91.017a.764.764,0,0,0,.129.031.8.8,0,0,0,.325-.008c.041-.01.047-.06.03-.1a.107.107,0,0,0-.112-.057.739.739,0,0,1-.218,0,.519.519,0,0,1-.146-.044.164.164,0,0,0-.151-.019.066.066,0,0,0-.021.1.481.481,0,0,0,.162.095" transform="translate(-410.137 -53.968)" fill="#cca283"/>
        <path id="Trazado_755936" data-name="Trazado 755936" d="M698.45,84.071s.549-.846.628-.972c.38-.6,1.037-.817,1.315-.308.309.566-.307,1.449-1.079,2.044-.432.333-1.1.516-1.1.073a1.9,1.9,0,0,1,.233-.837" transform="translate(-414.956 -49.035)" fill="#e5ccb7"/>
        <rect id="Rectángulo_358595" data-name="Rectángulo 358595" width="13.639" height="13.637" transform="matrix(0.153, -0.988, 0.988, 0.153, 261.33, 56.746)" fill="#d6b154"/>
        <rect id="Rectángulo_358596" data-name="Rectángulo 358596" width="13.638" height="13.638" transform="translate(265.321 57.364) rotate(-81.198)" fill="#f2d886"/>
        <path id="Trazado_755937" data-name="Trazado 755937" d="M694.494,75.254l-1.071,1.225s-.412.217-.35-.109c.145-.765.293-2.365.293-2.365s.1-.591-.716-.588a11.733,11.733,0,0,1-2.959-.322c-.912-.2-1.013-1.326-1.013-1.326l1.378-1.05s2.268-.219,2.338-.242,1.6.79,1.6.79l1.061,1.112a5.186,5.186,0,0,1,.082.982c-.049.165-.645,1.892-.645,1.892" transform="translate(-409.286 -41.886)" fill="#2f0102"/>
        <path id="Trazado_755938" data-name="Trazado 755938" d="M691.695,114.263l-2.6,7.232c-.337.516-.65.849-1.074.925,0,0-.535.646-4.271,1.408-2.874.587-3.78.855-3.78.855l-.759-1.452,6.913-3.579c.1-.007.315-.329.339-.43l1.584-6.8Z" transform="translate(-403.661 -66.813)" fill="#e8c5ac"/>
        <path id="Trazado_755939" data-name="Trazado 755939" d="M671.69,138.889s-2.029-.378-2.579.416c-1.023,1.476-5.094.641-1.729,2.2a2.8,2.8,0,0,0,2.151.23,5.8,5.8,0,0,0,1.388-.485,3.955,3.955,0,0,0,1.241-.891Z" transform="translate(-395.854 -82.49)" fill="#e8c5ac"/>
        <path id="Trazado_755940" data-name="Trazado 755940" d="M697.308,110.194s1.451-4.658,1.925-6.2c.248-.809,1.231-2.644,2.371-2.644,1.095,0,2.5,1.727,1.458,4.786-.7,2.065-.776,3.237-1.355,4.766Z" transform="translate(-414.416 -60.233)" fill="#ff947b"/>
        <path id="Trazado_755941" data-name="Trazado 755941" d="M694.081,73.509a2.777,2.777,0,0,0-1.226-1.3,5.631,5.631,0,0,0-5.354-1.534s1-3.994,4.722-2.844a3.228,3.228,0,0,1,2.527,4.084,16.32,16.32,0,0,1-.669,1.6" transform="translate(-408.587 -40.187)" fill="#ff592c"/>
        <path id="Trazado_755942" data-name="Trazado 755942" d="M690.979,76.53l-3.64-.314A4.969,4.969,0,0,0,683.43,75.2l1.652-.559s2.542-1.534,5.9,1.889" transform="translate(-406.168 -44.156)" fill="#ff7b5c"/>
        <path id="Trazado_755943" data-name="Trazado 755943" d="M691.658,146.185s1.97,1.514,3.465.9l-.23,3.5s-5.164,1.016-3.236-4.392" transform="translate(-410.802 -86.879)" fill="#35527c"/>
        <path id="Trazado_755944" data-name="Trazado 755944" d="M684.888,212.9l-1.579,1.19a1.878,1.878,0,0,0-.623,1.249c0,.22,0,.368,0,.714,0,.561.163.561.51.563l3.116.011a6.776,6.776,0,0,0,2.464-.817c.336-.178.257-.88.258-1.563l-.28-.1Z" transform="translate(-405.725 -126.531)" fill="#dfe4e8"/>
        <path id="Trazado_755945" data-name="Trazado 755945" d="M688.978,211s-.21.211-.357.392c-.491.6-.936.142-1.551-.432a2.225,2.225,0,0,0-1.108-.681c-.414-.132-.813-.206-.888.092a1.765,1.765,0,0,1-.633.8l-1.186.757a2.114,2.114,0,0,0-.561,1.566c0,.223.166.27.509.271l2.844.01a4.133,4.133,0,0,0,2.282-.611l.71-.448,0-1.189c-.021-.485-.062-.525-.062-.525" transform="translate(-405.73 -124.9)" fill="#4f778e"/>
        <path id="Trazado_755946" data-name="Trazado 755946" d="M645.111,125.843l-.076-.132a2.115,2.115,0,0,1,.147-2.332l.4-.525c.121.555.981.816,1.445,1.369.176.209-.471,1.607-1.562,1.674-.09.006-.047.053-.352-.053" transform="translate(-383.182 -73.013)" fill="#cca283"/>
        <path id="Trazado_755947" data-name="Trazado 755947" d="M333.391,207.785a2.436,2.436,0,1,0,.878-3.331,2.436,2.436,0,0,0-.878,3.331" transform="translate(-197.94 -121.312)" fill="#a0a0a0"/>
        <path id="Trazado_755948" data-name="Trazado 755948" d="M332.173,207.785a2.436,2.436,0,1,0,.878-3.331,2.436,2.436,0,0,0-.878,3.331" transform="translate(-197.216 -121.312)" fill="#546674"/>
        <path id="Trazado_755949" data-name="Trazado 755949" d="M334.989,208.947a1.227,1.227,0,1,0,.443-1.678,1.227,1.227,0,0,0-.443,1.678" transform="translate(-198.987 -123.082)" fill="#546674"/>
        <path id="Trazado_755950" data-name="Trazado 755950" d="M320.139,128.737c-.514-.183-3.348.656-3.348.656l-.459,1.571a1.4,1.4,0,0,0,1.2.506c.43-.019,1.023-.187,1.534-.175l1.912-1.654a2.111,2.111,0,0,0-.844-.9" transform="translate(-187.999 -76.494)" fill="#cca283"/>
        <path id="Trazado_755951" data-name="Trazado 755951" d="M299.215,107.277l2.286,6.787a2.112,2.112,0,0,0,.322.658,5.6,5.6,0,0,0,3.068,1.489,13.283,13.283,0,0,1,2.23.951l.738-1.65-3.351-2.276c-.1-.006-.186-.2-.209-.3l-1.54-7.451Z" transform="translate(-177.826 -62.692)" fill="#cca283"/>
        <path id="Trazado_755952" data-name="Trazado 755952" d="M304.192,103.424c-.817-1.557-2.027-4.642-2.681-5.787a3.063,3.063,0,0,0-3.086-1.323l1.171,6.555s.518,1.264,1.112,2.511Z" transform="translate(-177.357 -57.218)" fill="#d35133"/>
        <path id="Trazado_755953" data-name="Trazado 755953" d="M284.266,99.39c.041-2.489-1.724-2.971-1.724-2.971a3.338,3.338,0,0,0-1.066-.186L277,96.328c-.044,0-1.571.3-1.969.366,0,0-4.291,1.391-4.542,1.538-1.506.886-.709,3.987-.709,3.987l3.286,7.268s.421,4.69.6,4.892a3.59,3.59,0,0,0,1.933.9v.008a25.682,25.682,0,0,0,4.115.228c4.667-.37,5.07-1.953,5.039-2.146a15.247,15.247,0,0,1-.153-3.775c.037-1.341-.363-8.625-.336-10.2" transform="translate(-160.208 -57.192)" fill="#ff592c"/>
        <path id="Trazado_755954" data-name="Trazado 755954" d="M289.109,125.036c-.062-1.012-.062-3.044-.33-5.118-.182-3.7-.983-18.35-.983-18.35l-.8,0c-.667-5.121-3.077-5.287-3.077-5.287l-1.664.038c3,.87,2.721,5.549,2.721,5.549l-4.635,1.019c-.8-5.054-3.523-5.607-3.523-5.607l-1.4.461a5.7,5.7,0,0,1,3.146,6.352c-.21,1.139-2.713,1.034-2.713,1.034.906,3.047.97,8.9,1.351,12.124l.147,2.192h0l.289,8.2.59,15.138,3.583-.1.652-13.975.667-8.679a38.557,38.557,0,0,1,1.5,5.91c.507,2.779,1.569,16.542,1.569,16.542l3.3-.033s-.182-13.949-.4-17.4" transform="translate(-163.686 -57.219)" fill="#162744"/>
        <path id="Trazado_755955" data-name="Trazado 755955" d="M286.165,96.075l-3.809.613a2.986,2.986,0,0,0,.25,1.13,2.026,2.026,0,1,0,3.628-1.6c-.021-.048-.045-.094-.069-.14" transform="translate(-167.806 -57.098)" fill="#fff"/>
        <rect id="Rectángulo_358597" data-name="Rectángulo 358597" width="12.003" height="1.098" transform="matrix(0.986, -0.169, 0.169, 0.986, 124.111, 67.756)" fill="#a0a0a0"/>
        <path id="Trazado_755956" data-name="Trazado 755956" d="M300.825,206.887c.272-.144.682.122.906.18.446.116.925.38,1.131.438.295.083.694-.059,1.242-.772.386-.5.572-.583.587-.277.026.533.579.736.9.829l2.6.292c1.273.17,1.364,1.328,1.381,1.911l.009.312c.012.4-.027.583-.374.593l-3.818-.144c-.36.011-3.127.045-3.127.045l-1.4-.091c-.267.008-.309-.634-.316-.886,0,0,0-1.445.018-1.927a.522.522,0,0,1,.251-.5" transform="translate(-178.623 -122.591)" fill="#3a5869"/>
        <path id="Trazado_755957" data-name="Trazado 755957" d="M309.577,213.807v.03c.023.832.024.961-.363.972l-8.17-.079c-.336-.053-.474-.169-.486-.586l0-.435Z" transform="translate(-178.623 -127.01)" fill="#bccbd6"/>
        <path id="Trazado_755958" data-name="Trazado 755958" d="M297.054,134.12c-.475,0-.74-.245-.74-.549s.265-.548.74-.548h12.382c.475,0,.74.245.74.548s-.265.549-.74.549Z" transform="translate(-176.102 -79.057)" fill="#a0a0a0"/>
        <path id="Trazado_755959" data-name="Trazado 755959" d="M276.694,76.821l-1.286-3.236s0-1.87.664-2.509a4.56,4.56,0,0,1,2.243-1.044,19.042,19.042,0,0,1,3.063.561c.3.073.452.734.452.734a22.185,22.185,0,0,1,.549,3.583c-.142,1.281-.7,4.019-.7,4.019l-2.372.514s-.853.34-1.136.2c-.4-.2-1.477-2.822-1.477-2.822" transform="translate(-163.677 -41.621)" fill="#2f0102"/>
        <path id="Trazado_755960" data-name="Trazado 755960" d="M280.844,91.3l-1.028-4.27,4.285.673.469,2.467c.118.624.373,2.375-.318,2.891a1.992,1.992,0,0,1-1.977.138,3.392,3.392,0,0,1-1.43-1.9" transform="translate(-166.297 -51.722)" fill="#e8c5ac"/>
        <path id="Trazado_755961" data-name="Trazado 755961" d="M280.818,89.375a15.168,15.168,0,0,0,2.036,1.095,1.835,1.835,0,0,0,1.727-.239l-.269-1.417-.387-1.14-4.109-.645.541,2a2.306,2.306,0,0,0,.462.349" transform="translate(-166.297 -51.723)" fill="#cca283"/>
        <path id="Trazado_755962" data-name="Trazado 755962" d="M280.775,72.287c2.75-.022,2.78,2.987,2.78,2.987s.194,3.13.171,3.751a6.222,6.222,0,0,1-.817,2.062,2.019,2.019,0,0,1-1.854.322,13.375,13.375,0,0,1-1.823-1.023c-.757-.474-.667-.818-.964-1.547a20.234,20.234,0,0,1-.823-2.337c0-.021-.008-.037-.01-.049l-.366-1.769a3.662,3.662,0,0,1,3.706-2.4" transform="translate(-164.664 -42.961)" fill="#e5ccb7"/>
        <path id="Trazado_755963" data-name="Trazado 755963" d="M304.59,163.359l1.195-.219-5.261-28.608a.607.607,0,0,0-1.194.22Z" transform="translate(-177.888 -79.658)" fill="#a0a0a0"/>
        <path id="Trazado_755964" data-name="Trazado 755964" d="M329.57,162.637l1.195-.219L325.5,134.532a.607.607,0,1,0-1.194.219Z" transform="translate(-192.734 -79.658)" fill="#a0a0a0"/>
        <rect id="Rectángulo_358598" data-name="Rectángulo 358598" width="9.636" height="9.637" transform="translate(130.622 61.536) rotate(-8.806)" fill="#d6b154"/>
        <path id="Trazado_755965" data-name="Trazado 755965" d="M326.019,158.647l-9.5,1.48-1.493-9.528,9.523-1.475Z" transform="translate(-187.22 -88.625)" fill="#f2d886"/>
        <rect id="Rectángulo_358599" data-name="Rectángulo 358599" width="2.618" height="9.637" transform="translate(131.191 61.448) rotate(-8.807)" fill="#fceec8"/>
        <path id="Trazado_755966" data-name="Trazado 755966" d="M287.731,83.087c-.037-.4-.486-.617-.5-.474l.092,2.235s.036.24.507.276a.977.977,0,0,0,.523-.082c.118-.062.115-.174.067-.16-.3.079-.476,0-.5-.2-.052-.374-.131-.977-.187-1.6" transform="translate(-170.704 -49.071)" fill="#cca283"/>
        <path id="Trazado_755967" data-name="Trazado 755967" d="M284.076,81.672a.168.168,0,0,1-.173.162c-.312,0-.966,0-1.29.033-.174.015-.728.031-.667-.033a.974.974,0,0,1,.638-.293c.35-.032,1.04-.034,1.344-.034a.156.156,0,0,1,.148.166" transform="translate(-167.56 -48.44)" fill="#351d0c"/>
        <path id="Trazado_755968" data-name="Trazado 755968" d="M290.862,80.425c.154.06-.224.258-.475.3-.267.045-.588.118-.778.163a.156.156,0,0,1-.2-.109.176.176,0,0,1,.147-.192c.2-.046.52-.12.8-.168a.929.929,0,0,1,.505.005" transform="translate(-171.998 -47.775)" fill="#351d0c"/>
        <path id="Trazado_755969" data-name="Trazado 755969" d="M288.875,81.56l.479,2.514a1.528,1.528,0,0,0-.367.077,12.748,12.748,0,0,1-.409-2.71Z" transform="translate(-171.504 -48.402)" fill="#e5ccb7"/>
        <path id="Trazado_755970" data-name="Trazado 755970" d="M285.167,83.873c-.082.014-.155.03-.221.045a.239.239,0,0,0,0,.083.232.232,0,0,0,.264.2.236.236,0,0,0,.185-.276.279.279,0,0,0-.024-.072,1.3,1.3,0,0,0-.2.021" transform="translate(-169.344 -49.834)" fill="#428287"/>
        <path id="Trazado_755971" data-name="Trazado 755971" d="M285.1,83.421c-.03-.021-.058,0-.091.017a1.513,1.513,0,0,1-.922.158c-.031-.007-.058.018-.064.055a.075.075,0,0,0,.051.084,1.216,1.216,0,0,0,.561,0,.935.935,0,0,0,.48-.218.072.072,0,0,0-.015-.1" transform="translate(-168.798 -49.572)" fill="#19120a"/>
        <path id="Trazado_755972" data-name="Trazado 755972" d="M291.529,83.084c-.063.005-.119.012-.171.02a.265.265,0,0,0,0,.076.2.2,0,0,0,.19.2.2.2,0,0,0,.156-.233.282.282,0,0,0-.015-.068.794.794,0,0,0-.156,0" transform="translate(-173.153 -49.375)" fill="#428287"/>
        <path id="Trazado_755973" data-name="Trazado 755973" d="M291.492,82.756c-.023-.023-.045,0-.071.008a.98.98,0,0,1-.714.058c-.023-.011-.045.01-.052.043a.078.078,0,0,0,.034.082.8.8,0,0,0,.429.054.627.627,0,0,0,.379-.155.078.078,0,0,0-.006-.09" transform="translate(-172.738 -49.176)" fill="#19120a"/>
        <path id="Trazado_755974" data-name="Trazado 755974" d="M288.483,90.189a2.686,2.686,0,0,1-.318.09,1.41,1.41,0,0,1-.812-.056.074.074,0,0,1-.035-.1.093.093,0,0,1,.113-.041,1.269,1.269,0,0,0,.7.041,1.994,1.994,0,0,0,.6-.222.09.09,0,0,1,.116.021.072.072,0,0,1-.013.107,1.854,1.854,0,0,1-.351.165" transform="translate(-170.75 -53.418)" fill="#cca283"/>
        <path id="Trazado_755975" data-name="Trazado 755975" d="M288.973,91.121a.725.725,0,0,1-.126.03.774.774,0,0,1-.316-.008c-.04-.009-.047-.058-.029-.1a.1.1,0,0,1,.108-.055.7.7,0,0,0,.212,0,.5.5,0,0,0,.141-.043.16.16,0,0,1,.146-.019.063.063,0,0,1,.021.1.459.459,0,0,1-.157.092" transform="translate(-171.454 -54.033)" fill="#cca283"/>
        <path id="Trazado_755976" data-name="Trazado 755976" d="M278.785,84.371s-.533-.822-.611-.945c-.369-.581-1.009-.794-1.278-.3-.3.55.3,1.408,1.049,1.986.42.324,1.07.5,1.067.071a1.848,1.848,0,0,0-.226-.813" transform="translate(-164.514 -49.239)" fill="#e5ccb7"/>
        <path id="Trazado_755977" data-name="Trazado 755977" d="M276.631,75.8l1.041,1.19s.4.211.34-.106c-.141-.743-.285-2.3-.285-2.3s-.1-.574.695-.572a11.4,11.4,0,0,0,2.876-.313c.887-.194.985-1.288.985-1.288l-1.339-1.02s-2.2-.213-2.272-.235-1.558.768-1.558.768l-1.032,1.08a5.041,5.041,0,0,0-.079.955c.047.159.626,1.838.626,1.838" transform="translate(-164.025 -42.292)" fill="#2f0102"/>
        <path id="Trazado_755978" data-name="Trazado 755978" d="M270.794,113.709l2.526,7.028c.327.5.751.464,1.164.538a8.463,8.463,0,0,0,4.03.166c2.773-.661,3.674-.853,3.674-.853l.737-1.41-6.838-.472a.231.231,0,0,1-.209-.178l-1.54-6.609Z" transform="translate(-160.935 -66.514)" fill="#e8c5ac"/>
        <path id="Trazado_755979" data-name="Trazado 755979" d="M299.336,129.557a19.066,19.066,0,0,1,3.348-.077c.514.184,1.028,2.59.838,2.621-1.469.242-1.571.433-2.09.1a1.659,1.659,0,0,0-1.35-.471,1.352,1.352,0,0,1-1.2-.746Z" transform="translate(-177.625 -76.912)" fill="#e8c5ac"/>
        <path id="Trazado_755980" data-name="Trazado 755980" d="M274.259,109.582s-1.21-4.55-1.671-6.05c-.241-.785-1.2-2.569-2.3-2.569-1.065,0-2.207,1.611-1.417,4.651a41.62,41.62,0,0,0,1.3,4.62Z" transform="translate(-159.634 -60.003)" fill="#ff947b"/>
        <path id="Trazado_755981" data-name="Trazado 755981" d="M275.734,74.107a2.7,2.7,0,0,1,1.191-1.267,5.472,5.472,0,0,1,5.2-1.489s-.973-3.882-4.588-2.764a3.137,3.137,0,0,0-2.456,3.968,15.865,15.865,0,0,0,.65,1.553" transform="translate(-163.406 -40.641)" fill="#ff592c"/>
        <path id="Trazado_755982" data-name="Trazado 755982" d="M278.513,77.043l3.537-.305a4.83,4.83,0,0,1,3.8-.987l-1.605-.543s-2.47-1.491-5.73,1.835" transform="translate(-165.523 -44.498)" fill="#ff7b5c"/>
        <path id="Trazado_755983" data-name="Trazado 755983" d="M283.052,144.729s-1.914,1.471-3.367.871l.223,3.4s5.018.987,3.144-4.268" transform="translate(-166.219 -86.014)" fill="#35527c"/>
        <path id="Trazado_755984" data-name="Trazado 755984" d="M286.132,209.564l1.534,1.156a1.825,1.825,0,0,1,.605,1.214c0,.213,0,.358,0,.695,0,.544-.158.545-.495.546l-3.029.011a6.588,6.588,0,0,1-2.395-.793c-.326-.174-.249-.856-.25-1.519l.273-.095Z" transform="translate(-167.653 -124.546)" fill="#dfe4e8"/>
        <path id="Trazado_755985" data-name="Trazado 755985" d="M282.168,207.71a2.874,2.874,0,0,1,.391.367c.478.587.865.152,1.462-.406a2.164,2.164,0,0,1,1.077-.662c.4-.128.79-.2.863.089a1.722,1.722,0,0,0,.615.776s.884.525,1.153.736a1.86,1.86,0,0,1,.545,1.521c0,.217-.161.262-.5.263l-2.762.01a4.023,4.023,0,0,1-2.218-.594l-.691-.436,0-1.155c.021-.472.061-.51.061-.51" transform="translate(-167.659 -122.96)" fill="#4f778e"/>
        <path id="Trazado_755986" data-name="Trazado 755986" d="M324.512,131l-2.243.819c.475.011.821.947,1.349,1.24.2.111,1.245-.64,1.129-1.546a2.076,2.076,0,0,0-.235-.514" transform="translate(-191.527 -77.856)" fill="#cca283"/>
        <rect id="Rectángulo_358600" data-name="Rectángulo 358600" width="11.57" height="11.57" transform="matrix(0.987, -0.158, 0.158, 0.987, 132.68, 70.952)" fill="#d6936e"/>
        <rect id="Rectángulo_358601" data-name="Rectángulo 358601" width="11.569" height="11.571" transform="translate(129.297 71.493) rotate(-9.091)" fill="#f2b891"/>
        <rect id="Rectángulo_358602" data-name="Rectángulo 358602" width="4.089" height="11.681" transform="translate(133.073 70.882) rotate(-9.307)" fill="#f2d4bf"/>
        <path id="Trazado_755987" data-name="Trazado 755987" d="M311.056,201.684a.967.967,0,0,0,1.119.785l20.279-3.153a.967.967,0,0,0-.333-1.905l-20.279,3.153a.967.967,0,0,0-.786,1.12" transform="translate(-184.855 -117.314)" fill="#546674"/>
        <path id="Trazado_755988" data-name="Trazado 755988" d="M311.047,202.993a.966.966,0,0,0,1.059.865l14.2-2.208a1,1,0,0,0,.835-1.123.882.882,0,0,0-1.015-.805l-14.213,2.212a.966.966,0,0,0-.865,1.059" transform="translate(-184.855 -118.693)" fill="#b5b4b4"/>
        <path id="Trazado_755989" data-name="Trazado 755989" d="M316.919,209.6a2.436,2.436,0,1,0,.878-3.331,2.436,2.436,0,0,0-.878,3.331" transform="translate(-188.151 -122.391)" fill="#546674"/>
        <path id="Trazado_755990" data-name="Trazado 755990" d="M315.7,209.6a2.436,2.436,0,1,0,.878-3.331,2.435,2.435,0,0,0-.878,3.331" transform="translate(-187.427 -122.391)" fill="#3a3a3a"/>
        <path id="Trazado_755991" data-name="Trazado 755991" d="M318.517,210.763a1.227,1.227,0,1,0,.442-1.678,1.227,1.227,0,0,0-.442,1.678" transform="translate(-189.198 -124.162)" fill="#546674"/>
      </g>
    </g>
  </g>
</svg>
