<svg xmlns="http://www.w3.org/2000/svg" width="112.934" height="114.542" viewBox="0 0 112.934 114.542">
  <path id="Trazado_755687" data-name="Trazado 755687" d="M43.152,95.2l12.305-6.3,5.464,10.679a14.2,14.2,0,0,0-4.567,17.655l25.546,52.7a13.879,13.879,0,1,0,21.435,9.631,2,2,0,0,0,.659-.165l49.221-25.182a1.975,1.975,0,0,0,.858-2.657l-3.6-7.033a1.972,1.972,0,0,0-2.657-.856l-5.273,2.7-17.093-33.4a1.975,1.975,0,0,0-2.659-.858l-5.273,2.7L104.028,88.444a1.972,1.972,0,0,0-1.151-.987,2,2,0,0,0-1.508.119L75,101.079l-9.9-19.338a1.972,1.972,0,0,0-2.657-.856l-7.033,3.6-14.06,7.2ZM59.908,115.51a10.234,10.234,0,0,1,2.831-12.38l33.975,66.4a13.7,13.7,0,0,0-11.255-1.311Zm29.737,75.739a9.874,9.874,0,1,1,9.874-9.874,9.874,9.874,0,0,1-9.874,9.874m33.189-74.721,16.194,31.643-31.643,16.194L91.195,132.722l10.545-5.4,6.3,12.305a1.975,1.975,0,0,0,1.76,1.074h.158a1.971,1.971,0,0,0,1.721-1.362l1.11-3.433,3.435,1.108a1.973,1.973,0,0,0,2.368-2.778l-6.3-12.305Zm-14.065,7.2,4.126,8.06-.776-.252a1.977,1.977,0,0,0-2.487,1.273l-.252.778-4.124-8.06ZM93.187,101.944l-.778-.252a1.972,1.972,0,0,0-2.482,1.273l-.255.778L87.348,99.2l3.515-1.8ZM83.83,101l4.5,8.79a1.975,1.975,0,0,0,1.758,1.076q.08,0,.16,0a1.974,1.974,0,0,0,1.719-1.362l1.11-3.435,3.435,1.11a1.976,1.976,0,0,0,2.371-2.778l-4.5-8.8,7.033-3.6,12.589,24.605L89.4,129.2,76.81,104.594ZM62.49,85.3l42.278,82.621a1.975,1.975,0,0,0,2.65.856l40.44-20.688,1.8,3.515-45.706,23.391L58.975,87.1Z" transform="translate(-41.356 -80.667)" fill="#fff"/>
</svg>
