<svg xmlns="http://www.w3.org/2000/svg" width="84.672" height="98.541" viewBox="0 0 84.672 98.541">
  <path id="Trazado_755689" data-name="Trazado 755689" d="M312.407,182.508h4.6a1.538,1.538,0,0,0,1.539-1.539v-3.113h69.273v3.113a1.538,1.538,0,0,0,1.539,1.539h4.62a1.538,1.538,0,0,0,1.539-1.539V87.817a3.85,3.85,0,0,0-7.7,0v23.871H383.2V90.137a1.54,1.54,0,0,0-1.539-1.539h-24.63a1.54,1.54,0,0,0-1.539,1.539v21.549h-4.623V90.137a1.54,1.54,0,0,0-1.539-1.539H324.7a1.54,1.54,0,0,0-1.539,1.539v21.549h-4.618V87.817a3.85,3.85,0,1,0-7.7,0l.022,93.152a1.538,1.538,0,0,0,1.539,1.539M390.9,87.817a.77.77,0,1,1,1.539,0v91.61H390.9Zm-23.09,3.862h3.084V93.23h-3.084Zm-9.234,0h6.153v3.091a1.54,1.54,0,0,0,1.539,1.539h6.162a1.54,1.54,0,0,0,1.539-1.539V91.678h6.157v20.007H358.573Zm-23.1,0h3.079V93.23h-3.079Zm-9.231,0H332.4v3.091a1.538,1.538,0,0,0,1.539,1.539h6.157a1.54,1.54,0,0,0,1.539-1.539V91.678h6.16v20.007H326.244Zm-7.7,23.085h69.273v1.542H318.545Zm0,4.62h69.273v21.51h-4.613V123.973a1.54,1.54,0,0,0-1.539-1.539H324.7a1.54,1.54,0,0,0-1.539,1.539V140.9h-4.613Zm30.787,10.749h7.7a1.54,1.54,0,0,0,1.539-1.539v-3.081h21.556V140.9H326.237V125.513h21.556v3.081a1.54,1.54,0,0,0,1.539,1.539m1.539-4.62h4.618v1.539h-4.618Zm-32.326,18.463h69.273v1.544H318.545Zm0,4.623h69.273v21.556h-4.611v-18.46a1.535,1.535,0,0,0-1.539-1.539H360.11a1.537,1.537,0,0,0-1.539,1.539v18.46H353.96v-13.84a1.538,1.538,0,0,0-1.539-1.539H341.652l-.015,0-.017,0H335.49l-.015,0-.017,0H324.7a1.538,1.538,0,0,0-1.539,1.539v13.84h-4.618Zm49.264,9.265h6.162a1.539,1.539,0,0,0,1.539-1.542v-3.091h4.618v16.921H361.65V153.231h4.621v3.091a1.539,1.539,0,0,0,1.539,1.542m1.539-4.633h3.084v1.552h-3.084Zm-33.873,9.251h6.162a1.539,1.539,0,0,0,1.539-1.539v-3.088h7.7v12.3H326.244v-12.3h7.692v3.088a1.538,1.538,0,0,0,1.539,1.539m1.539-4.628H340.1V159.4h-3.084Zm-18.47,15.379h69.273v1.544H318.545ZM314.7,87.046a.771.771,0,0,1,.771.771v91.61h-1.52l-.022-91.61a.771.771,0,0,1,.771-.771" transform="translate(-310.846 -83.967)" fill="#fff"/>
</svg>
