<svg xmlns="http://www.w3.org/2000/svg" xmlns:xlink="http://www.w3.org/1999/xlink" width="440" height="295" viewBox="0 0 440 295">
  <defs>
    <clipPath id="clip-path">
      <rect id="Rectángulo_45028" data-name="Rectángulo 45028" width="308.672" height="259.689" fill="none"/>
    </clipPath>
  </defs>
  <g id="Grupo_1019400" data-name="Grupo 1019400" transform="translate(-895 -2513)">
    <rect id="Rectángulo_44940" data-name="Rectángulo 44940" width="440" height="295" transform="translate(895 2513)" fill="#fff"/>
    <g id="Grupo_139327" data-name="Grupo 139327" transform="translate(104.516 6.539)">
      <g id="Grupo_139326" data-name="Grupo 139326" transform="translate(852.484 2524.462)">
        <g id="Grupo_139325" data-name="Grupo 139325" clip-path="url(#clip-path)">
          <path id="Trazado_205302" data-name="Trazado 205302" d="M188.132,41.6V36.85h-3.413A14.292,14.292,0,0,0,184,34.18l2.956-1.707-2.375-4.114-2.948,1.7a14.568,14.568,0,0,0-1.958-1.958l1.7-2.948-4.114-2.375-1.707,2.956a14.291,14.291,0,0,0-2.67-.715V21.608h-4.75v3.414a14.285,14.285,0,0,0-2.669.715l-1.707-2.956-4.114,2.375,1.7,2.948a14.573,14.573,0,0,0-1.958,1.958l-2.948-1.7-2.376,4.114,2.957,1.707a14.293,14.293,0,0,0-.716,2.67H152.9V41.6h3.414a14.286,14.286,0,0,0,.716,2.669l-2.957,1.707,2.376,4.114,2.948-1.7a14.531,14.531,0,0,0,1.958,1.958l-1.7,2.948,4.114,2.376,1.707-2.957a14.237,14.237,0,0,0,2.669.716v3.414h4.75V53.429a14.229,14.229,0,0,0,2.67-.716l1.707,2.957,4.114-2.376-1.7-2.948a14.531,14.531,0,0,0,1.958-1.958l2.948,1.7,2.375-4.114L184,44.27a14.285,14.285,0,0,0,.716-2.669ZM181.7,39.225a11.189,11.189,0,1,1-11.189-11.189A11.2,11.2,0,0,1,181.7,39.225" transform="translate(-54.44 -7.694)" fill="#d8e4fd"/>
          <path id="Trazado_205303" data-name="Trazado 205303" d="M183.809,44.571a7.949,7.949,0,1,1-7.949-7.949,7.949,7.949,0,0,1,7.949,7.949" transform="translate(-59.786 -13.04)" fill="#d8e4fd"/>
          <path id="Trazado_205304" data-name="Trazado 205304" d="M413.748,284.246v-2.528h-1.817a7.611,7.611,0,0,0-.381-1.421l1.573-.908L411.86,277.2l-1.569.905a7.73,7.73,0,0,0-1.042-1.042l.906-1.569-2.189-1.264-.909,1.574a7.546,7.546,0,0,0-1.421-.381v-1.817h-2.528v1.817a7.558,7.558,0,0,0-1.421.381l-.908-1.574-2.189,1.264.905,1.569a7.81,7.81,0,0,0-1.042,1.042l-1.569-.905-1.264,2.189,1.574.908a7.613,7.613,0,0,0-.381,1.421H395v2.528h1.817a7.6,7.6,0,0,0,.381,1.421l-1.574.909,1.264,2.189,1.569-.906A7.813,7.813,0,0,0,399.5,288.9l-.905,1.569,2.189,1.264.908-1.573a7.606,7.606,0,0,0,1.421.381v1.817h2.528v-1.817a7.594,7.594,0,0,0,1.421-.381l.909,1.573,2.189-1.264-.906-1.569a7.734,7.734,0,0,0,1.042-1.042l1.569.906,1.264-2.189-1.573-.909a7.6,7.6,0,0,0,.381-1.421Zm-3.421-1.264a5.954,5.954,0,1,1-5.955-5.954,5.961,5.961,0,0,1,5.955,5.954" transform="translate(-140.642 -97.42)" fill="#d8e4fd"/>
          <path id="Trazado_205305" data-name="Trazado 205305" d="M411.449,285.827a4.23,4.23,0,1,1-4.23-4.23,4.23,4.23,0,0,1,4.23,4.23" transform="translate(-143.487 -100.264)" fill="#d8e4fd"/>
          <path id="Trazado_205306" data-name="Trazado 205306" d="M308.672,374.267c0,7.609-69.1,13.777-154.336,13.777S0,381.876,0,374.267,69.1,360.49,154.336,360.49s154.336,6.168,154.336,13.777" transform="translate(0 -128.355)" fill="#d8e4fd"/>
          <rect id="Rectángulo_45010" data-name="Rectángulo 45010" width="12.887" height="145.3" transform="translate(17.581 98.224)" fill="#d8e4fd"/>
          <rect id="Rectángulo_45011" data-name="Rectángulo 45011" width="12.887" height="103.291" transform="translate(39.645 140.233)" fill="#d8e4fd"/>
          <rect id="Rectángulo_45012" data-name="Rectángulo 45012" width="12.887" height="77.706" transform="translate(61.709 165.818)" fill="#d8e4fd"/>
          <rect id="Rectángulo_45013" data-name="Rectángulo 45013" width="12.887" height="138.792" transform="translate(83.773 104.732)" fill="#d8e4fd"/>
          <rect id="Rectángulo_45014" data-name="Rectángulo 45014" width="12.887" height="121.623" transform="translate(105.837 121.901)" fill="#d8e4fd"/>
          <rect id="Rectángulo_45015" data-name="Rectángulo 45015" width="12.887" height="97.458" transform="translate(149.966 146.066)" fill="#d8e4fd"/>
          <rect id="Rectángulo_45016" data-name="Rectángulo 45016" width="12.887" height="89.846" transform="translate(172.03 153.678)" fill="#d8e4fd"/>
          <rect id="Rectángulo_45017" data-name="Rectángulo 45017" width="12.887" height="68.842" transform="translate(194.094 174.682)" fill="#d8e4fd"/>
          <rect id="Rectángulo_45018" data-name="Rectángulo 45018" width="12.887" height="42.954" transform="translate(216.158 200.57)" fill="#d8e4fd"/>
          <rect id="Rectángulo_45019" data-name="Rectángulo 45019" width="12.887" height="34.421" transform="translate(238.222 209.103)" fill="#d8e4fd"/>
          <rect id="Rectángulo_45020" data-name="Rectángulo 45020" width="12.887" height="24.725" transform="translate(260.286 218.798)" fill="#d8e4fd"/>
          <rect id="Rectángulo_45021" data-name="Rectángulo 45021" width="12.887" height="19.799" transform="translate(282.35 223.725)" fill="#d8e4fd"/>
          <path id="Trazado_205307" data-name="Trazado 205307" d="M242.6,217.256l-18.957-32.375L207.2,182.7l-5.927-54.056-84.93-39.22-11.623-56.93L80.341,10.471,58.851,21.153,46.141.965A.629.629,0,1,1,47.206.294l12.1,19.225L80.548,8.961l25.324,22.87.041.2,11.537,56.509,85,39.251,5.9,53.783,16.072,2.139.156.265,18.5,31.6,33.776-18.06,32.341,8.6a.63.63,0,0,1-.324,1.217l-31.862-8.47Z" transform="translate(-16.394 0)" fill="#c4f2f1"/>
          <path id="Trazado_205308" data-name="Trazado 205308" d="M429.911,174.273a4.73,4.73,0,0,1-3.717-1.475,5.681,5.681,0,0,1-1.321-3.937v-4.678a5.784,5.784,0,0,1,1.25-4,5.861,5.861,0,0,1,7.583,0,5.764,5.764,0,0,1,1.256,4v4.678a5.681,5.681,0,0,1-1.321,3.937,4.745,4.745,0,0,1-3.73,1.475m0-3.376a1.126,1.126,0,0,0,.851-.367,1.272,1.272,0,0,0,.348-.909v-6.263a2.713,2.713,0,0,0-.219-1.2q-.219-.438-.979-.438a.985.985,0,0,0-.973.444,2.659,2.659,0,0,0-.225,1.192v6.263a1.272,1.272,0,0,0,.348.909,1.128,1.128,0,0,0,.851.367m2.925,10.18,6.958-22.77h4.175L437,181.077Zm13.788.232a4.729,4.729,0,0,1-3.717-1.475,5.681,5.681,0,0,1-1.321-3.937v-4.678a5.785,5.785,0,0,1,1.25-3.994,5.86,5.86,0,0,1,7.584,0,5.761,5.761,0,0,1,1.256,3.994V175.9a5.684,5.684,0,0,1-1.321,3.937,4.746,4.746,0,0,1-3.73,1.475m0-3.376a1.125,1.125,0,0,0,.85-.367,1.269,1.269,0,0,0,.348-.909v-6.263a2.723,2.723,0,0,0-.219-1.2q-.219-.438-.979-.438a.984.984,0,0,0-.973.444,2.661,2.661,0,0,0-.225,1.192v6.263a1.271,1.271,0,0,0,.348.909,1.127,1.127,0,0,0,.851.367" transform="translate(-151.279 -56.366)" fill="#fe7062"/>
          <path id="Trazado_205309" data-name="Trazado 205309" d="M26.5,48.7a4.73,4.73,0,0,1-3.717-1.475,5.681,5.681,0,0,1-1.321-3.937V38.613a5.784,5.784,0,0,1,1.25-4A4.838,4.838,0,0,1,26.5,33.226a4.858,4.858,0,0,1,3.795,1.392,5.764,5.764,0,0,1,1.256,4v4.678a5.681,5.681,0,0,1-1.321,3.937A4.745,4.745,0,0,1,26.5,48.7m0-3.376a1.126,1.126,0,0,0,.851-.367,1.272,1.272,0,0,0,.348-.909V37.788a2.713,2.713,0,0,0-.219-1.2q-.219-.438-.979-.438a.985.985,0,0,0-.973.444,2.659,2.659,0,0,0-.225,1.192v6.263a1.272,1.272,0,0,0,.348.909,1.128,1.128,0,0,0,.851.367m2.925,10.18,6.958-22.77h4.175l-6.971,22.77Zm13.788.232A4.729,4.729,0,0,1,39.5,54.263a5.681,5.681,0,0,1-1.321-3.937V45.649a5.785,5.785,0,0,1,1.25-3.994,4.838,4.838,0,0,1,3.789-1.392,4.857,4.857,0,0,1,3.795,1.392,5.761,5.761,0,0,1,1.256,3.994v4.678a5.684,5.684,0,0,1-1.321,3.937,4.746,4.746,0,0,1-3.73,1.475m0-3.376a1.125,1.125,0,0,0,.85-.367,1.269,1.269,0,0,0,.348-.909V44.824a2.722,2.722,0,0,0-.219-1.2q-.219-.438-.979-.438a.984.984,0,0,0-.973.444,2.661,2.661,0,0,0-.225,1.192v6.263a1.271,1.271,0,0,0,.348.909,1.127,1.127,0,0,0,.851.367" transform="translate(-7.642 -11.656)" fill="#fe7062"/>
          <path id="Trazado_205310" data-name="Trazado 205310" d="M291.169,333.089a4.73,4.73,0,0,1-3.717-1.475,5.681,5.681,0,0,1-1.321-3.937V323a5.784,5.784,0,0,1,1.25-4,5.861,5.861,0,0,1,7.583,0,5.764,5.764,0,0,1,1.256,4v4.678a5.681,5.681,0,0,1-1.321,3.937,4.745,4.745,0,0,1-3.73,1.475m0-3.376a1.126,1.126,0,0,0,.851-.367,1.272,1.272,0,0,0,.348-.909v-6.263a2.713,2.713,0,0,0-.219-1.2q-.219-.438-.979-.438a.985.985,0,0,0-.973.444,2.659,2.659,0,0,0-.225,1.192v6.263a1.272,1.272,0,0,0,.348.909,1.128,1.128,0,0,0,.851.367m2.925,10.18,6.958-22.77h4.175l-6.971,22.77Zm13.788.232a4.729,4.729,0,0,1-3.717-1.475,5.681,5.681,0,0,1-1.321-3.937v-4.678a5.785,5.785,0,0,1,1.25-3.994,5.86,5.86,0,0,1,7.584,0,5.761,5.761,0,0,1,1.256,3.994v4.678a5.684,5.684,0,0,1-1.321,3.937,4.746,4.746,0,0,1-3.73,1.475m0-3.376a1.125,1.125,0,0,0,.85-.367,1.269,1.269,0,0,0,.348-.909V329.21a2.722,2.722,0,0,0-.219-1.2q-.219-.438-.979-.438a.984.984,0,0,0-.973.444,2.661,2.661,0,0,0-.225,1.192v6.263a1.271,1.271,0,0,0,.348.909,1.127,1.127,0,0,0,.851.367" transform="translate(-101.879 -112.914)" fill="#57dbd8"/>
          <path id="Trazado_205311" data-name="Trazado 205311" d="M42.327,244.353a.629.629,0,0,1-.515-.991,28.137,28.137,0,0,1,2-2.518.629.629,0,1,1,.94.838,26.753,26.753,0,0,0-1.909,2.405.629.629,0,0,1-.515.267m4.176-4.689a.629.629,0,0,1-.421-1.1,31.192,31.192,0,0,1,2.5-2.016.629.629,0,1,1,.739,1.019,29.931,29.931,0,0,0-2.4,1.934.628.628,0,0,1-.42.161m5.077-3.7a.63.63,0,0,1-.321-1.173c.893-.526,1.842-1.032,2.822-1.5a.629.629,0,0,1,.546,1.134c-.948.457-1.866.947-2.728,1.455a.635.635,0,0,1-.319.088m5.658-2.733a.63.63,0,0,1-.229-1.216c.962-.377,1.973-.735,3-1.063a.63.63,0,0,1,.382,1.2c-1.006.319-1.991.667-2.927,1.034a.629.629,0,0,1-.23.044m5.991-1.912a.63.63,0,0,1-.156-1.24c1-.255,2.046-.493,3.1-.705a.63.63,0,0,1,.249,1.234c-1.034.208-2.055.44-3.037.69a.6.6,0,0,1-.156.021m6.168-1.251a.63.63,0,0,1-.1-1.252c1.021-.159,2.079-.3,3.146-.424a.629.629,0,1,1,.144,1.25c-1.05.121-2.092.263-3.1.419a.621.621,0,0,1-.1.008m6.255-.727a.629.629,0,0,1-.05-1.256c1.038-.084,2.1-.152,3.163-.2a.629.629,0,0,1,.061,1.257c-1.048.052-2.1.118-3.124.2a.456.456,0,0,1-.051,0m6.287-.317a.629.629,0,0,1-.017-1.258q1.572-.044,3.152-.07a.63.63,0,0,1,.023,1.259q-1.574.027-3.141.069Zm6.306-.118a.635.635,0,0,1-.636-.62.625.625,0,0,1,.614-.639h.012q1.567-.022,3.133-.05a.658.658,0,0,1,.641.618.629.629,0,0,1-.618.641q-1.57.029-3.138.051Zm6.284-.125a.63.63,0,0,1-.019-1.259q1.571-.046,3.135-.118a.62.62,0,0,1,.658.6.629.629,0,0,1-.6.658c-1.05.05-2.1.088-3.157.12Zm6.289-.3a.63.63,0,0,1-.045-1.258c1.079-.078,2.127-.17,3.116-.274a.63.63,0,0,1,.131,1.252c-1,.106-2.064.2-3.157.278h-.046m6.26-.664a.63.63,0,0,1-.09-1.252c1.054-.153,2.088-.33,3.074-.522a.63.63,0,0,1,.241,1.236c-1.005.2-2.059.375-3.133.532a.633.633,0,0,1-.091.007m6.175-1.214a.63.63,0,0,1-.155-1.24c1.023-.261,2.027-.55,2.983-.861a.63.63,0,1,1,.389,1.2c-.983.319-2.013.616-3.062.883a.618.618,0,0,1-.155.02m5.978-1.947a.63.63,0,0,1-.237-1.213c.94-.382,1.864-.8,2.746-1.235l.08-.04a.629.629,0,1,1,.557,1.129l-.075.038c-.912.453-1.865.881-2.835,1.274a.614.614,0,0,1-.236.047m5.626-2.808a.63.63,0,0,1-.325-1.17c.868-.52,1.743-1.088,2.6-1.69a.63.63,0,0,1,.723,1.032c-.883.618-1.783,1.2-2.676,1.739a.625.625,0,0,1-.323.09m5.157-3.6a.629.629,0,0,1-.393-1.12c.789-.63,1.589-1.306,2.379-2.008a.629.629,0,1,1,.837.94c-.806.718-1.623,1.409-2.43,2.052a.628.628,0,0,1-.393.137m4.7-4.179a.629.629,0,0,1-.44-1.079c.712-.7,1.448-1.447,2.188-2.228a.63.63,0,1,1,.914.865c-.751.793-1.5,1.554-2.223,2.262a.623.623,0,0,1-.44.18m4.33-4.567a.629.629,0,0,1-.471-1.046q1.04-1.174,2.048-2.371a.629.629,0,1,1,.962.811q-1.017,1.207-2.068,2.394a.628.628,0,0,1-.471.212m4.061-4.8a.63.63,0,0,1-.488-1.026q.987-1.213,1.961-2.445a.629.629,0,1,1,.987.78q-.978,1.239-1.971,2.459a.627.627,0,0,1-.489.232m3.9-4.93a.629.629,0,0,1-.5-1.014q.958-1.24,1.908-2.493a.63.63,0,1,1,1,.761q-.953,1.256-1.915,2.5a.628.628,0,0,1-.5.244m3.8-5.009a.629.629,0,0,1-.5-1.006q.942-1.258,1.879-2.52a.629.629,0,1,1,1.011.75q-.94,1.264-1.882,2.524a.627.627,0,0,1-.5.252m3.755-5.05a.629.629,0,0,1-.505-1l1.874-2.53a.629.629,0,0,1,1.012.749l-1.874,2.53a.629.629,0,0,1-.506.255m3.752-5.057a.63.63,0,0,1-.5-1.006q.944-1.264,1.891-2.522a.629.629,0,0,1,1.005.758q-.946,1.256-1.887,2.517a.627.627,0,0,1-.5.253m3.8-5.029a.629.629,0,0,1-.5-1.012q.961-1.254,1.932-2.5a.629.629,0,1,1,.992.775q-.968,1.237-1.925,2.488a.631.631,0,0,1-.5.246m7.91-9.818a.629.629,0,0,1-.477-1.039q1.033-1.2,2.085-2.381a.63.63,0,0,1,.939.839q-1.044,1.168-2.069,2.362a.628.628,0,0,1-.478.219m4.207-4.7a.63.63,0,0,1-.46-1.06q1.088-1.159,2.2-2.283a.63.63,0,0,1,.9.885q-1.1,1.113-2.174,2.26a.628.628,0,0,1-.459.2m4.434-4.482a.629.629,0,0,1-.435-1.084c.778-.742,1.562-1.466,2.329-2.152a.63.63,0,0,1,.839.939c-.758.677-1.531,1.392-2.3,2.124a.63.63,0,0,1-.435.173m4.7-4.2a.629.629,0,0,1-.4-1.113c.82-.683,1.653-1.349,2.477-1.983a.629.629,0,0,1,.767,1c-.81.623-1.63,1.28-2.439,1.952a.624.624,0,0,1-.4.146m4.991-3.834a.629.629,0,0,1-.363-1.144c.862-.608,1.746-1.2,2.631-1.771a.63.63,0,0,1,.681,1.061c-.869.556-1.739,1.142-2.585,1.74a.625.625,0,0,1-.363.115m5.291-3.388a.63.63,0,0,1-.316-1.175c.913-.527,1.851-1.039,2.788-1.521a.63.63,0,0,1,.576,1.12c-.918.472-1.838.974-2.734,1.491a.627.627,0,0,1-.314.085m5.593-2.874a.63.63,0,0,1-.26-1.2q.949-.429,1.916-.827c.335-.138.673-.274,1.011-.406a.63.63,0,0,1,.459,1.173q-.5.194-.99.4-.949.39-1.877.811a.625.625,0,0,1-.258.056m5.85-2.3a.63.63,0,0,1-.2-1.225c.961-.328,1.948-.644,3.017-.966a.629.629,0,0,1,.363,1.205c-1.054.317-2.027.629-2.973.952a.628.628,0,0,1-.2.034m6.02-1.819a.63.63,0,0,1-.163-1.238q1.522-.41,3.06-.788a.63.63,0,0,1,.3,1.223q-1.524.376-3.034.781a.634.634,0,0,1-.165.022m6.108-1.514a.63.63,0,0,1-.141-1.243q1.535-.355,3.075-.7a.63.63,0,1,1,.275,1.229q-1.535.343-3.066.7a.642.642,0,0,1-.143.017m6.146-1.381a.63.63,0,0,1-.136-1.244q1.538-.344,3.069-.692a.63.63,0,1,1,.281,1.227q-1.534.351-3.077.693a.633.633,0,0,1-.138.015m6.14-1.413a.63.63,0,0,1-.148-1.242q1.529-.372,3.039-.77a.63.63,0,0,1,.323,1.217c-1.014.269-2.037.525-3.065.776a.622.622,0,0,1-.149.018m6.085-1.619a.63.63,0,0,1-.178-1.234c1.032-.3,2.035-.62,2.981-.938a.63.63,0,0,1,.4,1.194c-.96.322-1.978.642-3.025.952a.635.635,0,0,1-.178.026m5.963-2.012a.629.629,0,0,1-.227-1.216c.995-.386,1.96-.791,2.867-1.2a.63.63,0,0,1,.521,1.146c-.929.422-1.916.836-2.934,1.231a.627.627,0,0,1-.227.043m5.724-2.609a.63.63,0,0,1-.3-1.184c.925-.5,1.825-1.021,2.675-1.563a.629.629,0,0,1,.677,1.061c-.876.559-1.8,1.1-2.757,1.612a.632.632,0,0,1-.3.074m5.293-3.385a.629.629,0,0,1-.383-1.129c.825-.63,1.621-1.3,2.366-1.981a.63.63,0,0,1,.852.927c-.773.71-1.6,1.4-2.453,2.054a.627.627,0,0,1-.381.129m4.622-4.249a.629.629,0,0,1-.467-1.051l.285-.322c.581-.661,1.142-1.355,1.666-2.062a.629.629,0,0,1,1.011.75c-.545.735-1.127,1.455-1.73,2.142l-.3.334a.627.627,0,0,1-.467.208M260.935,119a.63.63,0,0,1-.537-.958c.527-.865,1.029-1.775,1.492-2.705a.63.63,0,0,1,1.128.562c-.479.961-1,1.9-1.544,2.8a.631.631,0,0,1-.539.3m2.81-5.615a.63.63,0,0,1-.583-.867c.381-.934.741-1.914,1.072-2.913a.63.63,0,0,1,1.2.4c-.34,1.025-.71,2.032-1.1,2.991a.631.631,0,0,1-.583.392m1.993-5.965a.644.644,0,0,1-.166-.022.629.629,0,0,1-.442-.773c.262-.968.513-1.987.744-3.027a.629.629,0,1,1,1.229.272c-.235,1.06-.491,2.1-.759,3.085a.63.63,0,0,1-.607.464m1.375-6.141a.645.645,0,0,1-.115-.011.63.63,0,0,1-.5-.733c.18-.977.355-2.015.521-3.088a.63.63,0,0,1,1.245.193c-.168,1.084-.346,2.134-.528,3.122a.63.63,0,0,1-.618.516m.973-6.222a.75.75,0,0,1-.084-.005.629.629,0,0,1-.54-.708q.208-1.55.395-3.112a.629.629,0,1,1,1.249.15q-.188,1.57-.4,3.129a.63.63,0,0,1-.623.546m.76-6.247a.664.664,0,0,1-.071,0,.63.63,0,0,1-.554-.7l.358-3.131a.629.629,0,0,1,1.251.144l-.357,3.129a.63.63,0,0,1-.625.558m.73-6.26a.642.642,0,0,1-.078-.005.629.629,0,0,1-.548-.7q.194-1.573.408-3.135a.629.629,0,0,1,1.247.17q-.214,1.554-.405,3.12a.63.63,0,0,1-.624.553m.871-6.242a.611.611,0,0,1-.1-.008.63.63,0,0,1-.521-.721c.175-1.082.359-2.131.549-3.119a.63.63,0,0,1,1.237.238c-.187.975-.37,2.012-.543,3.082a.629.629,0,0,1-.621.529m1.2-6.179a.606.606,0,0,1-.143-.017.63.63,0,0,1-.471-.757c.247-1.061.513-2.1.791-3.076a.63.63,0,0,1,1.212.344c-.273.961-.534,1.977-.777,3.018a.63.63,0,0,1-.612.487m1.726-6.049a.611.611,0,0,1-.207-.035.63.63,0,0,1-.388-.8c.356-1.024.741-2.026,1.146-2.978a.629.629,0,1,1,1.158.491c-.393.927-.768,1.9-1.114,2.9a.629.629,0,0,1-.6.423m2.467-5.783a.616.616,0,0,1-.289-.071.63.63,0,0,1-.269-.849c.5-.956,1.032-1.888,1.591-2.77a.63.63,0,1,1,1.064.674c-.539.852-1.056,1.752-1.537,2.678a.631.631,0,0,1-.56.339M279.2,53a.63.63,0,0,1-.5-1.014q.448-.582.925-1.149.557-.662,1.147-1.294a.629.629,0,1,1,.922.858q-.567.61-1.106,1.247-.46.546-.89,1.106a.629.629,0,0,1-.5.245m4.274-4.607a.629.629,0,0,1-.424-1.094c.744-.679,1.559-1.375,2.423-2.068a.629.629,0,1,1,.788.981c-.842.677-1.637,1.356-2.361,2.017a.624.624,0,0,1-.424.164m4.895-3.951A.63.63,0,0,1,288,43.3c.787-.574,1.635-1.17,2.591-1.82a.629.629,0,1,1,.709,1.039c-.945.645-1.782,1.233-2.559,1.8a.627.627,0,0,1-.37.121m5.195-3.558a.629.629,0,0,1-.346-1.155L295.853,38a.63.63,0,1,1,.69,1.053l-2.634,1.724a.631.631,0,0,1-.345.1m5.262-3.462a.629.629,0,0,1-.352-1.151q1.3-.878,2.575-1.78a.629.629,0,1,1,.732,1.025q-1.282.916-2.6,1.8a.624.624,0,0,1-.35.108m5.114-3.672a.629.629,0,0,1-.389-1.124c.853-.668,1.656-1.337,2.388-1.989a.629.629,0,1,1,.837.94c-.751.669-1.576,1.355-2.448,2.04a.632.632,0,0,1-.388.133m4.682-4.2a.63.63,0,0,1-.456-1.064,30.113,30.113,0,0,0,2.008-2.332.629.629,0,1,1,1,.769,31.5,31.5,0,0,1-2.092,2.432.626.626,0,0,1-.457.2m3.821-4.979a.628.628,0,0,1-.54-.952,23.58,23.58,0,0,0,1.392-2.719.63.63,0,0,1,1.157.5,24.781,24.781,0,0,1-1.468,2.865.626.626,0,0,1-.541.307" transform="translate(-14.847 -7.306)" fill="#57dbd8"/>
          <path id="Trazado_205312" data-name="Trazado 205312" d="M201.641,374.126s-.845,8.148-.6,9.219,25.588.648,25.588.648-.495-4.873-13.05-7.75-11.934-2.117-11.934-2.117" transform="translate(-71.565 -133.178)" fill="#4f2830"/>
          <path id="Trazado_205313" data-name="Trazado 205313" d="M240.8,374.689s-.845,8.148-.6,9.219,25.588.648,25.588.648-.495-4.873-13.05-7.75-11.934-2.117-11.934-2.117" transform="translate(-85.508 -133.378)" fill="#4f2830"/>
          <path id="Trazado_205314" data-name="Trazado 205314" d="M199.03,195.7q.126,19.2.252,38.4c.04,6.182.08,12.374-.433,18.535-.454,5.439-1.339,10.856-1.3,16.313.047,6.591,1.294,32.309,1.386,38.5,3.318.83,9.74.836,13-.191,4.012-40.525,11.628-82.82,12.344-123.537.012-.7-3.4-.663-3.813-1.226a2.994,2.994,0,0,0-1.842-.948c-8.6-1.9-19.654,5.34-19.6,14.147" transform="translate(-70.338 -64.535)" fill="#fe7062"/>
          <path id="Trazado_205315" data-name="Trazado 205315" d="M249.67,184.462a389.019,389.019,0,0,1,6.311,42.3,90.163,90.163,0,0,1,.5,13.872c-.334,5.473-1.547,10.848-2.585,16.232-3.059,15.864-4.475,33.3-6.029,49.385-3.386,0-9.8-.6-13.183-.6-.118-11.623,1.705-23.619,1.588-35.242-.073-7.16-.084-14.609,3-21.07a3.5,3.5,0,0,0,.508-1.775c-.074-.773-.679-1.38-.974-2.1s0-1.828.775-1.791c-3.834-14.4-6.761-30.8-10.6-45.2-1.063-3.991-2.136-8.1-1.668-12.2s2.831-8.264,6.73-9.628c4.3-1.5,9.083.77,12.341,3.951,1.284,1.255,2.924,2.11,3.287,3.869" transform="translate(-80.896 -62.725)" fill="#fe7062"/>
          <path id="Trazado_205316" data-name="Trazado 205316" d="M236.582,224.956c.782-7.42,1.716-15.451,6.667-21.4.213-.256-.154-.627-.369-.369-5.052,6.072-6.021,14.193-6.819,21.77-.035.334.487.331.522,0" transform="translate(-84.05 -72.315)" fill="#c95b72"/>
          <path id="Trazado_205317" data-name="Trazado 205317" d="M246.4,210.776l1.839-.655a.268.268,0,0,0,.182-.321.264.264,0,0,0-.321-.182l-1.839.656a.267.267,0,0,0-.182.321.263.263,0,0,0,.321.182" transform="translate(-87.615 -74.632)" fill="#c95b72"/>
          <path id="Trazado_205318" data-name="Trazado 205318" d="M201.973,225.157a13.177,13.177,0,0,0,6.254-7.454c.1-.319-.4-.457-.5-.138a12.641,12.641,0,0,1-6.014,7.143c-.3.158-.033.609.263.45" transform="translate(-71.774 -77.401)" fill="#c95b72"/>
          <path id="Trazado_205319" data-name="Trazado 205319" d="M204.615,226.693c-.776,6.007-.149,12.045.42,18.04.577,6.084.938,12.111,0,18.18-.467,3.039-1.111,6.047-1.587,9.084a67.975,67.975,0,0,0-.78,8.913c-.147,6.26.37,12.521.758,18.764l1.326,21.315c.021.334.543.336.522,0l-1.182-19c-.386-6.2-.9-12.422-.925-18.641a71.646,71.646,0,0,1,.525-9.393c.4-3.08,1.038-6.12,1.565-9.178a57.686,57.686,0,0,0,.914-8.718,85.8,85.8,0,0,0-.415-9.122c-.594-6.729-1.494-13.5-.623-20.244.043-.332-.479-.329-.522,0" transform="translate(-72.154 -80.627)" fill="#c95b72"/>
          <path id="Trazado_205320" data-name="Trazado 205320" d="M260.11,296.176l2.114-2.947a.263.263,0,0,0-.094-.357.267.267,0,0,0-.357.093l-2.113,2.949a.263.263,0,0,0,.093.357.267.267,0,0,0,.357-.094" transform="translate(-92.44 -104.266)" fill="#c95b72"/>
          <path id="Trazado_205321" data-name="Trazado 205321" d="M260.6,290.268l1.451-1.451a.261.261,0,0,0-.369-.369l-1.451,1.451a.261.261,0,1,0,.369.369" transform="translate(-92.629 -102.677)" fill="#c95b72"/>
          <path id="Trazado_205322" data-name="Trazado 205322" d="M214.4,297.451l2.536-3.631c.193-.276-.26-.537-.45-.263l-2.536,3.631c-.193.276.259.537.45.263" transform="translate(-76.162 -104.482)" fill="#c95b72"/>
          <path id="Trazado_205323" data-name="Trazado 205323" d="M217.239,289.126l2.175-2.542a.267.267,0,0,0,0-.368.263.263,0,0,0-.369,0l-2.175,2.541a.268.268,0,0,0,0,.369.263.263,0,0,0,.369,0" transform="translate(-77.192 -101.882)" fill="#c95b72"/>
          <path id="Trazado_205324" data-name="Trazado 205324" d="M230.575,88.3l7.942,1.169,11.323,27.417-4.724,34.984H225.41l3.88-63.571Z" transform="translate(-80.259 -31.441)" fill="#fff"/>
          <path id="Trazado_205325" data-name="Trazado 205325" d="M261.2,171.026a15.242,15.242,0,0,1-11.042-8.147c-2.066-4.278-1.826-9.212-1.424-13.91,1.531-17.858,4.772-36.221-.545-53.4a19.422,19.422,0,0,0-3.656-7.265,13.621,13.621,0,0,1,9.329,5.227c2.114,2.773,2.959,6.23,3.643,9.6,4.54,22.354,4.12,45.126,3.694,67.9" transform="translate(-87.066 -31.441)" fill="#57dbd8"/>
          <path id="Trazado_205326" data-name="Trazado 205326" d="M244.669,53.783a3.728,3.728,0,0,0,3.9-3.163,2.32,2.32,0,0,0-.393-1.793,1.285,1.285,0,0,0-1.684-.307,4.052,4.052,0,0,0-.906-1.86,1.393,1.393,0,0,0-1.88-.147c-.169-1.191-1.961-2-3.05-2.5a6.781,6.781,0,0,0-5.966-.279,5.62,5.62,0,0,0-2.367,1.365,2.408,2.408,0,0,0-.553,2.545,5.227,5.227,0,0,0-4.781.072,3.318,3.318,0,0,0-1.224,4.233,7.741,7.741,0,0,1,.556.921c.5,1.23-.627,2.5-.77,3.819a4.5,4.5,0,0,0,1.589,3.421,12.023,12.023,0,0,1,2.534,2.938c.327.68.593,1.562,1.332,1.718a1.691,1.691,0,0,0,.952-.15c2.7-1.054,4.444-3.611,6.148-5.949s3.694-5.215,6.568-4.877" transform="translate(-80.259 -15.372)" fill="#4f2830"/>
          <path id="Trazado_205327" data-name="Trazado 205327" d="M248.574,58.263c-.035,5.213-3.414,11.8-7.72,11.2-3.553-.493-6.1-3.334-6.374-8.536-.418-8.078,4.088-10.357,7.665-10.333s6.463,2.453,6.428,7.665" transform="translate(-83.479 -18.016)" fill="#f9ac7c"/>
          <path id="Trazado_205328" data-name="Trazado 205328" d="M234.25,63.863c-.012,1.723-.442,3.576-1.67,3.568s-2.788-1.875-2.777-3.6,1.016-3.113,2.244-3.1,2.215,1.411,2.2,3.134" transform="translate(-81.823 -21.623)" fill="#f9ac7c"/>
          <path id="Trazado_205329" data-name="Trazado 205329" d="M249.124,61.506a8.835,8.835,0,0,0-.472,1.929,14.706,14.706,0,0,0-.059,1.829,2.063,2.063,0,0,1-.317,1.343c-.447.519-1.2.234-1.727.012-.265-.112-.495.277-.228.39a2.286,2.286,0,0,0,1.9.2A1.6,1.6,0,0,0,249,65.918c.084-.622.006-1.252.043-1.876a8.44,8.44,0,0,1,.513-2.416c.1-.273-.336-.391-.435-.12" transform="translate(-87.662 -21.845)" fill="#4f2830"/>
          <path id="Trazado_205330" data-name="Trazado 205330" d="M241.075,64.222a3.051,3.051,0,1,1,.563-.052,3.059,3.059,0,0,1-.563.052m.006-5.655a2.639,2.639,0,0,0-.485.045,2.59,2.59,0,1,0,.485-.045" transform="translate(-84.75 -20.692)" fill="#281419"/>
          <path id="Trazado_205331" data-name="Trazado 205331" d="M254.916,66.094a3.058,3.058,0,1,1,.569-.053,3.1,3.1,0,0,1-.569.053m.008-5.655a2.657,2.657,0,0,0-.48.044,2.6,2.6,0,1,0,.48-.044" transform="translate(-89.68 -21.359)" fill="#281419"/>
          <path id="Trazado_205332" data-name="Trazado 205332" d="M250.083,64.137c-.49-.939-2.323-.626-2.989-.426l-.129-.432c.112-.033,2.758-.81,3.519.65Z" transform="translate(-87.933 -22.447)" fill="#281419"/>
          <path id="Trazado_205333" data-name="Trazado 205333" d="M234.745,60.7a.231.231,0,0,1-.134-.044L231.2,58.135a1.716,1.716,0,0,0-1.725-.184l-1.074.486a.226.226,0,1,1-.185-.411l1.074-.486a2.168,2.168,0,0,1,2.179.232l3.409,2.517a.226.226,0,0,1-.135.408" transform="translate(-81.211 -20.419)" fill="#281419"/>
          <path id="Trazado_205334" data-name="Trazado 205334" d="M234.18,70.264l-1.405,11.375s3.323,4.759,8.1,2.909l-.56-9.01Z" transform="translate(-82.881 -25.018)" fill="#f9ac7c"/>
          <path id="Trazado_205335" data-name="Trazado 205335" d="M241.81,77.3c-2.6.229-4.821-1.867-5.864-4.065-.124-.262-.514-.033-.39.228,1.106,2.332,3.5,4.53,6.253,4.289.287-.025.29-.477,0-.451" transform="translate(-83.863 -26.036)" fill="#4f2830"/>
          <path id="Trazado_205336" data-name="Trazado 205336" d="M192.168,171.327a45.211,45.211,0,0,0,11.1-2.226,18.853,18.853,0,0,0,8.053-4.669c3.443-3.73,4.123-9.162,4.624-14.212,1.816-18.33,3.432-36.738,2.76-55.145-.133-3.637-.52-7.646-3.16-10.15-5.978-.409-12.281,3.61-15.838,8.432s-5.319,10.71-6.768,16.524a217.735,217.735,0,0,0-6.141,62.129,26.2,26.2,0,0,1,5.369-.681" transform="translate(-66.434 -30.227)" fill="#57dbd8"/>
          <path id="Trazado_205337" data-name="Trazado 205337" d="M251.268,85.9a4.023,4.023,0,0,0,.661-2.7,5.644,5.644,0,0,1-.138-1.535c.082-.509.531-1.017,1.037-.918-.433,0-.625.654-.334.974a.972.972,0,0,0,1.2.077,2.837,2.837,0,0,0,.844-.971,4.772,4.772,0,0,0,.922-2.242,4.315,4.315,0,0,0-1-2.555,22,22,0,0,0-2.025-2.488l2.867-1.912c.313-.209.666-.5.605-.876-.081-.5-.772-.562-1.261-.444a12.982,12.982,0,0,0-4.629,2.621,8.919,8.919,0,0,0-1.988,1.875c-1.117,1.6-1.068,3.706-.977,5.654a19.253,19.253,0,0,1-.49,3.3,43.843,43.843,0,0,1,4.705,2.142" transform="translate(-87.79 -25.018)" fill="#f9ac7c"/>
          <path id="Trazado_205338" data-name="Trazado 205338" d="M220.039,149.341a4.118,4.118,0,0,1-2.1-.523l-2.13-.959a6.649,6.649,0,0,1-1.762-1.021,2.25,2.25,0,0,1-.821-1.794,2.679,2.679,0,0,1,.782-1.511,11.93,11.93,0,0,1,3.557-2.445c1.441-.728,3.09-1.409,4.627-.914a4.546,4.546,0,0,1,2.755,4.3c.03,1.134-.325,2.8-1.437,3.378-.455.238-.959.279-1.419.548a5.539,5.539,0,0,1-2.055.936" transform="translate(-75.92 -49.85)" fill="#f9ac7c"/>
          <path id="Trazado_205339" data-name="Trazado 205339" d="M222.066,116.087l.549-1.451c.515.063.238-.361.451.14,2.145-9.69,5.4-18.122,7.93-27.707l7.273,2.922a144.294,144.294,0,0,1-2.455,19.726,64.481,64.481,0,0,1-2.63,10.906c-1.467,4.06-4.539,10.11-8.642,10.426a9.191,9.191,0,0,1-4.674-1.1c-5.854-2.866-9.552-10.735-12.121-16.987-2.021-4.919-3.323-10.747-1-15.518a5.506,5.506,0,0,1,2.467-2.724,4.559,4.559,0,0,1,4.8,1.084,12.817,12.817,0,0,1,2.845,4.506c2.21,5.085,4.364,10.257,5.213,15.78" transform="translate(-73.173 -31.001)" fill="#57dbd8"/>
          <path id="Trazado_205340" data-name="Trazado 205340" d="M228.688,133.865c9.915-.849,18.381-3.593,28.058-5.916,2.142-.515,3.877-3.3,3.645-5.487s-1.974-5.315-2.925-7.3l-5.759-12.045a20.574,20.574,0,0,0-3.41-5.535,3.5,3.5,0,0,0-1.375-.972,3.179,3.179,0,0,0-3.3,1.406,7.948,7.948,0,0,0-1.2,6.12c.359,2.108-.616,4.627.3,6.56,1.469,3.107-3.994,6.689-2.525,9.8-6.234,2.751-3.768,3.746-10.547,4.444-.712.073-1.54.207-1.879.838a2.128,2.128,0,0,0-.144,1.154,59.078,59.078,0,0,0,1.061,6.939" transform="translate(-81.043 -34.36)" fill="#57dbd8"/>
          <path id="Trazado_205341" data-name="Trazado 205341" d="M239.018,93.7c-.721,10.55-1.73,21.513-6.465,31.139a28.1,28.1,0,0,1-4.186,6.644,4.794,4.794,0,0,1-3.652,1.753,8.454,8.454,0,0,1-4.162-1.489,22.7,22.7,0,0,1-8.948-11.785c-2.247-6.242-2.334-13-2.213-19.55a.226.226,0,0,0-.451,0c-.2,10.9.6,23.884,10.232,30.946,1.947,1.427,4.607,2.929,7.094,2.111,2.338-.768,3.775-3.3,4.973-5.281a50.634,50.634,0,0,0,5.881-15.491,130.675,130.675,0,0,0,2.349-19c.02-.29-.431-.289-.451,0" transform="translate(-74.386 -33.284)" fill="#277489"/>
          <path id="Trazado_205342" data-name="Trazado 205342" d="M234.419,113.566a48.8,48.8,0,0,0-4.887,13.492c-.057.284.377.405.436.12a48.384,48.384,0,0,1,4.841-13.384c.138-.256-.251-.484-.39-.228" transform="translate(-81.725 -40.396)" fill="#277489"/>
          <path id="Trazado_205343" data-name="Trazado 205343" d="M231.305,122.846a10.315,10.315,0,0,0-2.672,2.751c-.161.243.23.469.39.228a9.75,9.75,0,0,1,2.511-2.589.231.231,0,0,0,.081-.308.228.228,0,0,0-.309-.081" transform="translate(-81.393 -43.729)" fill="#277489"/>
          <path id="Trazado_205344" data-name="Trazado 205344" d="M250.75,128.8a29.4,29.4,0,0,1,10.187-3.29c.284-.037.288-.489,0-.451a29.985,29.985,0,0,0-10.415,3.352c-.256.138-.028.528.228.39" transform="translate(-89.16 -44.526)" fill="#277489"/>
          <path id="Trazado_205345" data-name="Trazado 205345" d="M263.421,124.609a4.947,4.947,0,0,1,2.289-2.279.227.227,0,0,0,.081-.308.23.23,0,0,0-.309-.081,5.34,5.34,0,0,0-2.45,2.441.231.231,0,0,0,.081.309.228.228,0,0,0,.309-.081" transform="translate(-93.644 -43.408)" fill="#277489"/>
          <path id="Trazado_205346" data-name="Trazado 205346" d="M225.963,86.337q1.24,5.572,2.481,11.144a63.045,63.045,0,0,0,2.916,10.31c.109.265.546.149.435-.12a63.028,63.028,0,0,1-2.916-10.31q-1.24-5.571-2.481-11.143c-.063-.284-.5-.164-.435.12" transform="translate(-80.453 -30.641)" fill="#277489"/>
          <path id="Trazado_205347" data-name="Trazado 205347" d="M203.094,185.229a107.21,107.21,0,0,1,9.7-7.389c.24-.162.014-.553-.228-.39a108.283,108.283,0,0,0-9.792,7.46c-.221.189.1.507.319.319" transform="translate(-72.173 -63.168)" fill="#277489"/>
          <path id="Trazado_205348" data-name="Trazado 205348" d="M262.887,178.769a15.85,15.85,0,0,1,3.741,3c.2.214.516-.106.319-.319a16.225,16.225,0,0,0-3.832-3.068.226.226,0,0,0-.228.39" transform="translate(-93.564 -63.502)" fill="#277489"/>
          <path id="Trazado_205349" data-name="Trazado 205349" d="M173.25,283.568A16.349,16.349,0,1,1,156.9,267.219a16.349,16.349,0,0,1,16.349,16.349" transform="translate(-50.044 -95.145)" fill="#ffeae7"/>
          <path id="Trazado_205350" data-name="Trazado 205350" d="M158.009,299.021a14.344,14.344,0,1,1,14.344-14.344,14.36,14.36,0,0,1-14.344,14.344m0-27.988a13.644,13.644,0,1,0,13.644,13.644,13.659,13.659,0,0,0-13.644-13.644" transform="translate(-51.153 -96.254)" fill="#d85a2e"/>
          <path id="Trazado_205351" data-name="Trazado 205351" d="M163.322,296.429v-.158a4.442,4.442,0,0,1-.032-.656l-.032-.654-.567.02a6.538,6.538,0,0,1-1.953-.258c-.337-.119-.5-.258-.5-.417a.485.485,0,0,1,.173-.387.775.775,0,0,1,.52-.149,3.942,3.942,0,0,1,.945.158,3.891,3.891,0,0,0,.819.159,4.237,4.237,0,0,0,.5-.039l-.284-5.774-.062-1.231a24.432,24.432,0,0,1-2.726-2.609,3.025,3.025,0,0,1-.741-1.955,2.247,2.247,0,0,1,.835-1.618,5.5,5.5,0,0,1,2.284-1.2l-.031-.695c0-.357.136-.536.41-.536a.646.646,0,0,1,.488.218.754.754,0,0,1,.2.536v.258a13.277,13.277,0,0,1,1.922-.158,3.013,3.013,0,0,1,1.1.209,1.592,1.592,0,0,1,.757.525l-.536.417a9.571,9.571,0,0,1-1.1-.079q-.82-.06-1.2-.059a6.551,6.551,0,0,0-.882.059l.441,6.231q.756.615,1.213,1.041t.992,1.022a3.968,3.968,0,0,1,1.008,2.58,3.486,3.486,0,0,1-.661,2.024,3.763,3.763,0,0,1-1.859,1.389v1.507a.8.8,0,0,1-.914.893c-.358,0-.536-.205-.536-.615m-.567-11.688q-.095-1.329-.189-4.088a3.352,3.352,0,0,0-1.229.794,1.383,1.383,0,0,0-.441.913,2.755,2.755,0,0,0,.473,1.508,8.255,8.255,0,0,0,1.418,1.588Zm2.741,7.62a2.53,2.53,0,0,0,.346-1.151,4.375,4.375,0,0,0-1.638-2.936l.378,5.179a3.318,3.318,0,0,0,.914-1.092" transform="translate(-56.749 -99.137)" fill="#d85a2e"/>
          <rect id="Rectángulo_45022" data-name="Rectángulo 45022" width="49.705" height="115.648" transform="translate(217.99 29.281)" fill="#fe7062"/>
          <path id="Trazado_205352" data-name="Trazado 205352" d="M397.983,220.13,351.312,266.8,304.64,220.13Z" transform="translate(-108.469 -78.379)" fill="#fe7062"/>
          <path id="Trazado_205353" data-name="Trazado 205353" d="M384.994,80.938V76.186h-3.413a14.282,14.282,0,0,0-.716-2.669l2.956-1.707L381.446,67.7,378.5,69.4a14.567,14.567,0,0,0-1.958-1.958l1.7-2.948-4.114-2.376-1.707,2.957a14.291,14.291,0,0,0-2.67-.715V60.945H365v3.414a14.285,14.285,0,0,0-2.669.715l-1.707-2.957-4.114,2.376,1.7,2.948a14.537,14.537,0,0,0-1.958,1.958l-2.948-1.7-2.376,4.114,2.957,1.707a14.3,14.3,0,0,0-.716,2.669h-3.414v4.751h3.414a14.286,14.286,0,0,0,.716,2.669l-2.957,1.707,2.376,4.114,2.948-1.7a14.53,14.53,0,0,0,1.958,1.958l-1.7,2.948,4.114,2.376,1.707-2.957a14.236,14.236,0,0,0,2.669.716V96.18h4.75V92.766a14.23,14.23,0,0,0,2.67-.716l1.707,2.957,4.114-2.376-1.7-2.948a14.53,14.53,0,0,0,1.958-1.958l2.948,1.7,2.375-4.114-2.956-1.707a14.282,14.282,0,0,0,.716-2.669Zm-6.428-2.376a11.189,11.189,0,1,1-11.189-11.189,11.2,11.2,0,0,1,11.189,11.189" transform="translate(-124.534 -21.7)" fill="#fff"/>
          <path id="Trazado_205354" data-name="Trazado 205354" d="M380.672,83.908a7.949,7.949,0,1,1-7.949-7.949,7.949,7.949,0,0,1,7.949,7.949" transform="translate(-129.88 -27.046)" fill="#fff"/>
          <rect id="Rectángulo_45023" data-name="Rectángulo 45023" width="9.681" height="15.585" transform="translate(230.053 88.925)" fill="#fff"/>
          <path id="Trazado_205355" data-name="Trazado 205355" d="M369.33,159.914l-10.191,10.191-10.191-10.191Z" transform="translate(-124.245 -56.939)" fill="#fff"/>
          <rect id="Rectángulo_45024" data-name="Rectángulo 45024" width="7.74" height="12.46" transform="translate(251.061 125.547)" fill="#fff"/>
          <path id="Trazado_205356" data-name="Trazado 205356" d="M399.532,212.411l-8.148,8.148-8.148-8.148Z" transform="translate(-136.454 -75.63)" fill="#fff"/>
          <rect id="Rectángulo_45025" data-name="Rectángulo 45025" width="49.705" height="115.648" transform="translate(38.575 72.775)" fill="#57dbd8"/>
          <path id="Trazado_205357" data-name="Trazado 205357" d="M26.021,92.144,72.693,45.472l46.672,46.672Z" transform="translate(-9.265 -16.191)" fill="#57dbd8"/>
          <path id="Trazado_205358" data-name="Trazado 205358" d="M106.375,241.831v-4.75h-3.413a14.28,14.28,0,0,0-.716-2.67L105.2,232.7l-2.375-4.114-2.948,1.7a14.568,14.568,0,0,0-1.958-1.958l1.7-2.948-4.114-2.375L93.8,225.967a14.293,14.293,0,0,0-2.67-.715v-3.414h-4.75v3.414a14.286,14.286,0,0,0-2.669.715l-1.707-2.956-4.114,2.375,1.7,2.948a14.573,14.573,0,0,0-1.958,1.958l-2.948-1.7L72.313,232.7l2.957,1.707a14.294,14.294,0,0,0-.716,2.67H71.14v4.75h3.414a14.286,14.286,0,0,0,.716,2.669l-2.957,1.707,2.376,4.114,2.948-1.7a14.532,14.532,0,0,0,1.958,1.958l-1.7,2.948,4.114,2.376,1.707-2.957a14.236,14.236,0,0,0,2.669.716v3.414h4.75v-3.414a14.229,14.229,0,0,0,2.67-.716l1.707,2.957,4.114-2.376-1.7-2.948a14.53,14.53,0,0,0,1.958-1.958l2.948,1.7,2.375-4.114-2.956-1.707a14.286,14.286,0,0,0,.716-2.669Zm-6.428-2.376a11.189,11.189,0,1,1-11.189-11.189,11.2,11.2,0,0,1,11.189,11.189" transform="translate(-25.33 -78.987)" fill="#fff"/>
          <path id="Trazado_205359" data-name="Trazado 205359" d="M102.052,244.8a7.949,7.949,0,1,1-7.949-7.949,7.949,7.949,0,0,1,7.949,7.949" transform="translate(-30.676 -84.333)" fill="#fff"/>
          <rect id="Rectángulo_45026" data-name="Rectángulo 45026" width="9.681" height="15.585" transform="translate(47.272 65.304)" fill="#fff"/>
          <path id="Trazado_205360" data-name="Trazado 205360" d="M65.1,98.158,75.292,87.967,85.483,98.158Z" transform="translate(-23.18 -31.321)" fill="#fff"/>
          <rect id="Rectángulo_45027" data-name="Rectángulo 45027" width="7.14" height="11.494" transform="translate(67.414 99.876)" fill="#fff"/>
          <path id="Trazado_205361" data-name="Trazado 205361" d="M98.561,152.7l7.515-7.515,7.516,7.515Z" transform="translate(-35.093 -51.694)" fill="#fff"/>
          <path id="Trazado_205362" data-name="Trazado 205362" d="M41.9,151.239a10.27,10.27,0,1,1-10.27-10.27,10.269,10.269,0,0,1,10.27,10.27" transform="translate(-7.606 -50.193)" fill="#ffeae7"/>
          <path id="Trazado_205363" data-name="Trazado 205363" d="M32.326,160.945a9.01,9.01,0,1,1,9.01-9.01,9.02,9.02,0,0,1-9.01,9.01m0-17.58a8.57,8.57,0,1,0,8.57,8.57,8.58,8.58,0,0,0-8.57-8.57" transform="translate(-8.302 -50.889)" fill="#d85a2e"/>
          <path id="Trazado_205364" data-name="Trazado 205364" d="M35.664,159.317v-.1a2.748,2.748,0,0,1-.02-.411l-.02-.411-.356.012a4.1,4.1,0,0,1-1.227-.162q-.317-.112-.317-.261a.305.305,0,0,1,.109-.243.494.494,0,0,1,.327-.093,2.484,2.484,0,0,1,.594.1,2.461,2.461,0,0,0,.515.1,2.647,2.647,0,0,0,.316-.025l-.178-3.627-.04-.773a15.3,15.3,0,0,1-1.712-1.639,1.9,1.9,0,0,1-.465-1.227,1.41,1.41,0,0,1,.524-1.016,3.45,3.45,0,0,1,1.435-.754l-.02-.437c0-.224.086-.336.258-.336a.406.406,0,0,1,.307.137.471.471,0,0,1,.129.336v.162a8.349,8.349,0,0,1,1.207-.1,1.891,1.891,0,0,1,.693.131,1,1,0,0,1,.475.33l-.337.262a6.1,6.1,0,0,1-.693-.05q-.515-.038-.752-.037a4.112,4.112,0,0,0-.554.037l.278,3.913q.475.386.762.655t.623.641a2.491,2.491,0,0,1,.634,1.62,2.191,2.191,0,0,1-.415,1.272,2.368,2.368,0,0,1-1.168.873v.947A.5.5,0,0,1,36,159.7c-.225,0-.336-.129-.336-.386m-.357-7.342q-.059-.835-.118-2.567a2.1,2.1,0,0,0-.772.5.871.871,0,0,0-.278.573,1.725,1.725,0,0,0,.3.947,5.161,5.161,0,0,0,.891,1Zm1.722,4.786a1.6,1.6,0,0,0,.218-.723,2.749,2.749,0,0,0-1.029-1.844l.238,3.253a2.069,2.069,0,0,0,.574-.685" transform="translate(-11.818 -52.701)" fill="#d85a2e"/>
          <path id="Trazado_205365" data-name="Trazado 205365" d="M447.6,115.554a10.27,10.27,0,1,1-10.27-10.27,10.269,10.269,0,0,1,10.27,10.27" transform="translate(-152.058 -37.487)" fill="#ffeae7"/>
          <path id="Trazado_205366" data-name="Trazado 205366" d="M438.026,125.26a9.01,9.01,0,1,1,9.01-9.01,9.02,9.02,0,0,1-9.01,9.01m0-17.581a8.57,8.57,0,1,0,8.57,8.571,8.58,8.58,0,0,0-8.57-8.571" transform="translate(-152.754 -38.184)" fill="#d85a2e"/>
          <path id="Trazado_205367" data-name="Trazado 205367" d="M441.364,123.631v-.1a2.638,2.638,0,0,1-.021-.411l-.02-.411-.355.012a4.11,4.11,0,0,1-1.228-.162c-.211-.075-.316-.162-.316-.261a.305.305,0,0,1,.109-.243.492.492,0,0,1,.327-.093,2.489,2.489,0,0,1,.594.1,2.46,2.46,0,0,0,.515.1,2.647,2.647,0,0,0,.316-.025l-.178-3.627-.04-.773a15.3,15.3,0,0,1-1.712-1.639,1.9,1.9,0,0,1-.466-1.227,1.413,1.413,0,0,1,.524-1.016,3.457,3.457,0,0,1,1.435-.754l-.02-.437q0-.336.258-.336a.406.406,0,0,1,.307.137.471.471,0,0,1,.129.336v.162a8.348,8.348,0,0,1,1.207-.1,1.894,1.894,0,0,1,.693.131,1,1,0,0,1,.475.33l-.337.262a6.075,6.075,0,0,1-.693-.05q-.515-.038-.752-.037a4.113,4.113,0,0,0-.554.037l.278,3.913q.474.386.762.655t.623.641a2.491,2.491,0,0,1,.634,1.62,2.188,2.188,0,0,1-.416,1.272,2.363,2.363,0,0,1-1.167.873v.947a.5.5,0,0,1-.574.561c-.225,0-.336-.129-.336-.386m-.357-7.342q-.059-.835-.119-2.567a2.093,2.093,0,0,0-.772.5.868.868,0,0,0-.278.573,1.729,1.729,0,0,0,.3.947,5.182,5.182,0,0,0,.891,1Zm1.722,4.786a1.6,1.6,0,0,0,.218-.723,2.749,2.749,0,0,0-1.029-1.844l.237,3.253a2.062,2.062,0,0,0,.574-.685" transform="translate(-156.269 -39.994)" fill="#d85a2e"/>
          <path id="Trazado_205368" data-name="Trazado 205368" d="M294.465,33.808a13.117,13.117,0,1,1-13.117-13.117,13.117,13.117,0,0,1,13.117,13.117" transform="translate(-95.505 -7.367)" fill="#ffeae7"/>
          <path id="Trazado_205369" data-name="Trazado 205369" d="M282.238,46.206A11.509,11.509,0,1,1,293.747,34.7a11.521,11.521,0,0,1-11.509,11.509m0-22.455A10.946,10.946,0,1,0,293.184,34.7a10.958,10.958,0,0,0-10.946-10.946" transform="translate(-96.395 -8.257)" fill="#d85a2e"/>
          <path id="Trazado_205370" data-name="Trazado 205370" d="M286.5,44.126V44a3.507,3.507,0,0,1-.025-.525l-.026-.525-.455.015a5.258,5.258,0,0,1-1.568-.207q-.4-.143-.4-.335a.391.391,0,0,1,.139-.31.629.629,0,0,1,.417-.119,3.207,3.207,0,0,1,.758.127,3.11,3.11,0,0,0,.658.128,3.291,3.291,0,0,0,.4-.032l-.227-4.633-.051-.987a19.638,19.638,0,0,1-2.187-2.093,2.424,2.424,0,0,1-.593-1.568,1.8,1.8,0,0,1,.669-1.3,4.425,4.425,0,0,1,1.833-.963l-.025-.557q0-.43.329-.43a.518.518,0,0,1,.392.175.605.605,0,0,1,.165.43V30.5a10.611,10.611,0,0,1,1.542-.128,2.428,2.428,0,0,1,.885.167,1.276,1.276,0,0,1,.607.422l-.43.334a7.775,7.775,0,0,1-.885-.063q-.658-.048-.961-.048a5.234,5.234,0,0,0-.708.048l.354,5q.607.494.973.836t.8.82a3.181,3.181,0,0,1,.809,2.07,2.8,2.8,0,0,1-.531,1.623,3.018,3.018,0,0,1-1.492,1.115V43.9a.64.64,0,0,1-.733.716c-.287,0-.43-.165-.43-.493m-.455-9.376q-.075-1.066-.151-3.28a2.694,2.694,0,0,0-.987.637,1.112,1.112,0,0,0-.354.733,2.213,2.213,0,0,0,.379,1.21,6.6,6.6,0,0,0,1.138,1.273Zm2.2,6.113a2.033,2.033,0,0,0,.278-.923,3.513,3.513,0,0,0-1.314-2.356l.3,4.155a2.669,2.669,0,0,0,.733-.876" transform="translate(-100.885 -10.57)" fill="#d85a2e"/>
          <path id="Trazado_205371" data-name="Trazado 205371" d="M430.737,245.722A13.117,13.117,0,1,1,417.62,232.6a13.117,13.117,0,0,1,13.117,13.117" transform="translate(-144.026 -82.821)" fill="#ffeae7"/>
          <path id="Trazado_205372" data-name="Trazado 205372" d="M418.51,258.12a11.509,11.509,0,1,1,11.509-11.509A11.522,11.522,0,0,1,418.51,258.12m0-22.455a10.946,10.946,0,1,0,10.946,10.946,10.959,10.959,0,0,0-10.946-10.946" transform="translate(-144.915 -83.71)" fill="#d85a2e"/>
          <path id="Trazado_205373" data-name="Trazado 205373" d="M422.772,256.041v-.128a3.391,3.391,0,0,1-.026-.525l-.026-.525-.455.015a5.26,5.26,0,0,1-1.568-.207c-.269-.1-.4-.207-.4-.335a.391.391,0,0,1,.139-.31.629.629,0,0,1,.417-.119,3.206,3.206,0,0,1,.758.127,3.127,3.127,0,0,0,.658.128,3.29,3.29,0,0,0,.4-.032l-.227-4.633-.051-.987a19.558,19.558,0,0,1-2.187-2.093,2.425,2.425,0,0,1-.594-1.568,1.8,1.8,0,0,1,.669-1.3,4.425,4.425,0,0,1,1.833-.963l-.025-.557q0-.43.329-.43a.516.516,0,0,1,.392.174.606.606,0,0,1,.165.43v.207a10.628,10.628,0,0,1,1.542-.128,2.433,2.433,0,0,1,.885.167,1.282,1.282,0,0,1,.606.422l-.429.334a7.756,7.756,0,0,1-.885-.063q-.658-.048-.961-.048a5.249,5.249,0,0,0-.708.048l.354,5c.405.329.728.608.974.837s.509.5.8.82a3.181,3.181,0,0,1,.809,2.07,2.793,2.793,0,0,1-.531,1.623,3.018,3.018,0,0,1-1.492,1.115v1.21a.64.64,0,0,1-.733.716c-.287,0-.429-.165-.429-.493m-.455-9.376q-.076-1.066-.152-3.28a2.679,2.679,0,0,0-.986.638,1.111,1.111,0,0,0-.354.732,2.214,2.214,0,0,0,.379,1.21,6.581,6.581,0,0,0,1.138,1.273Zm2.2,6.113a2.029,2.029,0,0,0,.278-.923,3.513,3.513,0,0,0-1.314-2.356l.3,4.155a2.685,2.685,0,0,0,.733-.876" transform="translate(-149.406 -86.024)" fill="#d85a2e"/>
          <path id="Trazado_205374" data-name="Trazado 205374" d="M413.521,256.776c-1.3-3.5-.459-2.665-3.963-3.963,3.5-1.3,2.665-.46,3.963-3.963,1.3,3.5.459,2.665,3.963,3.963-3.5,1.3-2.665.459-3.963,3.963" transform="translate(-145.826 -88.605)" fill="#fff"/>
          <path id="Trazado_205375" data-name="Trazado 205375" d="M175.22,281.99a16.35,16.35,0,1,1-16.35-16.349,16.349,16.349,0,0,1,16.35,16.349" transform="translate(-50.746 -94.583)" fill="#ffeae7"/>
          <path id="Trazado_205376" data-name="Trazado 205376" d="M159.979,297.443A14.344,14.344,0,1,1,174.324,283.1a14.36,14.36,0,0,1-14.344,14.344m0-27.988A13.644,13.644,0,1,0,173.623,283.1a13.659,13.659,0,0,0-13.644-13.644" transform="translate(-51.854 -95.692)" fill="#d85a2e"/>
          <path id="Trazado_205377" data-name="Trazado 205377" d="M165.292,294.851v-.158a4.445,4.445,0,0,1-.032-.656l-.032-.654-.567.02a6.537,6.537,0,0,1-1.953-.258c-.337-.119-.5-.258-.5-.417a.485.485,0,0,1,.173-.387.775.775,0,0,1,.52-.149,3.941,3.941,0,0,1,.945.158,3.889,3.889,0,0,0,.819.159,4.237,4.237,0,0,0,.5-.039l-.284-5.774-.062-1.231a24.434,24.434,0,0,1-2.726-2.609,3.025,3.025,0,0,1-.741-1.955,2.247,2.247,0,0,1,.835-1.618,5.5,5.5,0,0,1,2.284-1.2l-.031-.695c0-.357.136-.536.41-.536a.646.646,0,0,1,.488.218.755.755,0,0,1,.2.536v.258a13.273,13.273,0,0,1,1.922-.158,3.013,3.013,0,0,1,1.1.209,1.592,1.592,0,0,1,.757.525l-.536.417a9.577,9.577,0,0,1-1.1-.079q-.82-.06-1.2-.059a6.545,6.545,0,0,0-.882.059l.441,6.231q.756.615,1.213,1.041t.992,1.022a3.968,3.968,0,0,1,1.008,2.58,3.486,3.486,0,0,1-.661,2.024,3.763,3.763,0,0,1-1.859,1.389v1.507a.8.8,0,0,1-.914.893c-.358,0-.536-.205-.536-.615m-.567-11.688q-.095-1.329-.189-4.088a3.353,3.353,0,0,0-1.229.794,1.383,1.383,0,0,0-.441.912,2.755,2.755,0,0,0,.473,1.508,8.256,8.256,0,0,0,1.418,1.588Zm2.741,7.62a2.53,2.53,0,0,0,.346-1.151,4.375,4.375,0,0,0-1.638-2.936l.378,5.179a3.317,3.317,0,0,0,.914-1.091" transform="translate(-57.451 -98.575)" fill="#d85a2e"/>
          <path id="Trazado_205378" data-name="Trazado 205378" d="M153.228,297.908c-1.3-3.5-.459-2.665-3.963-3.963,3.5-1.3,2.665-.46,3.963-3.963,1.3,3.5.459,2.665,3.963,3.963-3.5,1.3-2.665.459-3.963,3.963" transform="translate(-53.147 -103.25)" fill="#fff"/>
          <path id="Trazado_205379" data-name="Trazado 205379" d="M311.686,87.813a17.618,17.618,0,1,1-17.618-17.618,17.618,17.618,0,0,1,17.618,17.618" transform="translate(-98.432 -24.993)" fill="#ffeae7"/>
          <path id="Trazado_205380" data-name="Trazado 205380" d="M295.262,104.465A15.458,15.458,0,1,1,310.72,89.007a15.475,15.475,0,0,1-15.458,15.458m0-30.16a14.7,14.7,0,1,0,14.7,14.7,14.72,14.72,0,0,0-14.7-14.7" transform="translate(-99.626 -26.188)" fill="#d85a2e"/>
          <path id="Trazado_205381" data-name="Trazado 205381" d="M300.987,101.672V101.5a4.854,4.854,0,0,1-.033-.706l-.035-.706-.611.021a7.068,7.068,0,0,1-2.105-.278q-.543-.193-.543-.449a.522.522,0,0,1,.187-.417.837.837,0,0,1,.56-.16,4.27,4.27,0,0,1,1.019.171,4.2,4.2,0,0,0,.883.171,4.515,4.515,0,0,0,.544-.043l-.307-6.222-.068-1.325a26.338,26.338,0,0,1-2.937-2.812,3.256,3.256,0,0,1-.8-2.106,2.417,2.417,0,0,1,.9-1.743A5.93,5.93,0,0,1,300.1,83.6l-.033-.749c0-.384.146-.577.441-.577a.7.7,0,0,1,.526.235.812.812,0,0,1,.221.578v.278a14.186,14.186,0,0,1,2.071-.171,3.246,3.246,0,0,1,1.189.225,1.716,1.716,0,0,1,.815.567l-.578.449a10.245,10.245,0,0,1-1.189-.086q-.883-.064-1.29-.064a7.142,7.142,0,0,0-.951.064l.476,6.714q.814.663,1.307,1.122t1.069,1.1a4.273,4.273,0,0,1,1.087,2.78,3.759,3.759,0,0,1-.713,2.182,4.055,4.055,0,0,1-2,1.5v1.625a.86.86,0,0,1-.984.963q-.578,0-.578-.663m-.611-12.594q-.1-1.432-.2-4.405a3.616,3.616,0,0,0-1.325.855,1.493,1.493,0,0,0-.475.984,2.969,2.969,0,0,0,.509,1.625,8.9,8.9,0,0,0,1.527,1.71Zm2.954,8.211a2.737,2.737,0,0,0,.374-1.24,4.719,4.719,0,0,0-1.766-3.165l.408,5.582a3.562,3.562,0,0,0,.985-1.176" transform="translate(-105.657 -29.296)" fill="#d85a2e"/>
          <path id="Trazado_205382" data-name="Trazado 205382" d="M287.31,98.273c-1.3-3.5-.459-2.665-3.963-3.963,3.5-1.3,2.665-.46,3.963-3.963,1.3,3.5.459,2.665,3.963,3.963-3.5,1.3-2.665.459-3.963,3.963" transform="translate(-100.888 -32.169)" fill="#fff"/>
          <path id="Trazado_205383" data-name="Trazado 205383" d="M293.018,107.981c-.872-2.354-.308-1.791-2.663-2.663,2.355-.872,1.791-.308,2.663-2.663.871,2.354.308,1.791,2.662,2.663-2.354.872-1.791.308-2.662,2.663" transform="translate(-103.383 -36.551)" fill="#fff"/>
        </g>
      </g>
    </g>
  </g>
</svg>
