<svg xmlns="http://www.w3.org/2000/svg" width="266.645" height="290.293" viewBox="0 0 266.645 290.293">
  <g id="Grupo_139343" data-name="Grupo 139343" transform="translate(-981.855 -2887.707)">
    <path id="Trazado_205384" data-name="Trazado 205384" d="M67.965,236.971H36.317a9.3,9.3,0,0,1-9.294-9.294V122.938a9.3,9.3,0,0,1,9.294-9.294H138.572a7.192,7.192,0,0,0,7.184-7.185V65.778a9.3,9.3,0,0,1,9.294-9.294H264.263a9.3,9.3,0,0,1,9.294,9.294V103.06a9.3,9.3,0,0,1-9.294,9.294H161.273a7.192,7.192,0,0,0-7.184,7.184v80.367a1.055,1.055,0,0,1-2.11,0V119.539a9.3,9.3,0,0,1,9.294-9.294h102.99a7.192,7.192,0,0,0,7.184-7.184V65.778a7.192,7.192,0,0,0-7.184-7.184H155.05a7.192,7.192,0,0,0-7.184,7.184v40.681a9.305,9.305,0,0,1-9.294,9.295H36.317a7.192,7.192,0,0,0-7.184,7.184v104.74a7.192,7.192,0,0,0,7.184,7.184H67.965a1.055,1.055,0,1,1,0,2.11" transform="translate(971.427 2861.202)" fill="#edefee"/>
    <path id="Trazado_205385" data-name="Trazado 205385" d="M347.474,299.054H263.979a1.055,1.055,0,0,1,0-2.11h83.495a7.193,7.193,0,0,0,7.185-7.184V219.38a7.193,7.193,0,0,0-7.185-7.184H291.465a1.055,1.055,0,0,1,0-2.11h56.009a9.3,9.3,0,0,1,9.294,9.294v70.38a9.3,9.3,0,0,1-9.294,9.294" transform="translate(880.389 2801.924)" fill="#edefee"/>
    <path id="Trazado_205386" data-name="Trazado 205386" d="M238.877,237.137a.352.352,0,0,1-.352-.352V156.418a4.376,4.376,0,0,1,4.371-4.371H311.2a.352.352,0,1,1,0,.7H242.9a3.672,3.672,0,0,0-3.667,3.668v80.367a.351.351,0,0,1-.352.352" transform="translate(889.805 2824.322)" fill="#edefee"/>
    <path id="Trazado_205387" data-name="Trazado 205387" d="M425.593,81.428a.352.352,0,0,1-.352-.352V63.568a12.121,12.121,0,0,0-12.107-12.107.352.352,0,1,1,0-.7,12.825,12.825,0,0,1,12.81,12.81V81.076a.352.352,0,0,1-.352.352" transform="translate(822.556 2863.412)" fill="#edefee"/>
    <path id="Trazado_205388" data-name="Trazado 205388" d="M195.343,108.621H174.48a.352.352,0,1,1,0-.7h20.863a3.672,3.672,0,0,0,3.667-3.668V63.568a12.825,12.825,0,0,1,12.811-12.81.352.352,0,1,1,0,.7,12.121,12.121,0,0,0-12.107,12.107v40.681a4.376,4.376,0,0,1-4.371,4.371" transform="translate(914.656 2863.412)" fill="#edefee"/>
    <path id="Trazado_205389" data-name="Trazado 205389" d="M21.649,221.094a.352.352,0,0,1-.352-.352V156.648a12.826,12.826,0,0,1,12.811-12.81H98.417a.352.352,0,0,1,0,.7H34.108A12.121,12.121,0,0,0,22,156.648v64.094a.352.352,0,0,1-.352.352" transform="translate(973.637 2827.49)" fill="#edefee"/>
    <path id="Trazado_205390" data-name="Trazado 205390" d="M65.755,347.853H34.107a12.825,12.825,0,0,1-12.81-12.81.352.352,0,0,1,.7,0A12.121,12.121,0,0,0,34.107,347.15H65.755a.352.352,0,1,1,0,.7" transform="translate(973.637 2753.837)" fill="#edefee"/>
    <path id="Trazado_205391" data-name="Trazado 205391" d="M166.894,122.364H100.762a.352.352,0,1,1,0-.7h66.132A12.121,12.121,0,0,0,179,109.553V68.872a4.376,4.376,0,0,1,4.372-4.371h24.485a.352.352,0,0,1,0,.7H183.372a3.672,3.672,0,0,0-3.668,3.668v40.681a12.825,12.825,0,0,1-12.81,12.81" transform="translate(943.105 2858.107)" fill="#edefee"/>
    <path id="Trazado_205392" data-name="Trazado 205392" d="M71.059,291.768H39.411A4.376,4.376,0,0,1,35.04,287.4V211.582a.352.352,0,0,1,.7,0V287.4a3.672,3.672,0,0,0,3.668,3.668H71.059a.352.352,0,1,1,0,.7" transform="translate(968.333 2801.482)" fill="#edefee"/>
    <path id="Trazado_205393" data-name="Trazado 205393" d="M359.888,113.051H275.161a.352.352,0,1,1,0-.7h84.727a3.672,3.672,0,0,0,3.667-3.668V71.4a.352.352,0,0,1,.7,0V108.68a4.376,4.376,0,0,1-4.371,4.371" transform="translate(875.802 2855.582)" fill="#edefee"/>
    <path id="Trazado_205394" data-name="Trazado 205394" d="M225.134,269.153a.352.352,0,0,1-.352-.352V235.358a.352.352,0,0,1,.7,0V268.8a.352.352,0,0,1-.352.352" transform="translate(895.108 2792.307)" fill="#edefee"/>
    <path id="Trazado_205395" data-name="Trazado 205395" d="M351.6,218.806H309.181a.352.352,0,1,1,0-.7H351.6a.352.352,0,1,1,0,.7" transform="translate(862.673 2798.83)" fill="#edefee"/>
    <path id="Trazado_205396" data-name="Trazado 205396" d="M347.916,343.981H264.421a.352.352,0,1,1,0-.7h83.495a3.672,3.672,0,0,0,3.668-3.669.352.352,0,0,1,.7,0,4.376,4.376,0,0,1-4.372,4.372" transform="translate(879.946 2752.074)" fill="#edefee"/>
    <path id="Trazado_205397" data-name="Trazado 205397" d="M357.3,325.888H288.749a.352.352,0,1,1,0-.7H357.3a12.121,12.121,0,0,0,12.107-12.108V270.859a.352.352,0,1,1,.7,0v42.218A12.826,12.826,0,0,1,357.3,325.888" transform="translate(870.558 2778.606)" fill="#edefee"/>
    <path id="Trazado_205398" data-name="Trazado 205398" d="M377.649,217.521a.352.352,0,0,1-.352-.352,12.121,12.121,0,0,0-12.107-12.107H309.181a.352.352,0,0,1,0-.7H365.19A12.825,12.825,0,0,1,378,217.169a.351.351,0,0,1-.352.352" transform="translate(862.673 2804.135)" fill="#edefee"/>
    <path id="Trazado_205399" data-name="Trazado 205399" d="M311.668,313.657h-13.59l2.057-5.564h9.475Z" transform="translate(866.822 2764.102)" fill="#0f0957"/>
    <path id="Trazado_205400" data-name="Trazado 205400" d="M307.983,313.657h-9.905l2.057-5.564h5.791Z" transform="translate(866.822 2764.102)" fill="#1a0f91"/>
    <path id="Trazado_205401" data-name="Trazado 205401" d="M313.806,319.1v13.6a3.3,3.3,0,0,1-3.3,3.3h-18.5a3.3,3.3,0,0,1-3.3-3.3V319.1a3.3,3.3,0,0,1,3.3-3.291h18.5a3.293,3.293,0,0,1,3.3,3.291" transform="translate(870.438 2761.122)" fill="#0f0957"/>
    <path id="Trazado_205402" data-name="Trazado 205402" d="M309.4,319.1v13.6a3.3,3.3,0,0,1-3.3,3.3h-14.1a3.3,3.3,0,0,1-3.3-3.3V319.1a3.3,3.3,0,0,1,3.3-3.291h14.1a3.293,3.293,0,0,1,3.3,3.291" transform="translate(870.438 2761.122)" fill="#1a0f91"/>
    <path id="Trazado_205403" data-name="Trazado 205403" d="M312.093,327.256a7.939,7.939,0,1,1-7.939-7.939,7.939,7.939,0,0,1,7.939,7.939" transform="translate(867.541 2759.77)" fill="#0f0957"/>
    <path id="Trazado_205404" data-name="Trazado 205404" d="M311.9,327.585a7.415,7.415,0,1,1-7.415-7.415,7.415,7.415,0,0,1,7.415,7.415" transform="translate(867.212 2759.44)" fill="#edefee"/>
    <path id="Trazado_205405" data-name="Trazado 205405" d="M311.632,328.035a6.7,6.7,0,1,1-6.7-6.7,6.7,6.7,0,0,1,6.7,6.7" transform="translate(866.762 2758.99)" fill="#cfd1d0"/>
    <path id="Trazado_205406" data-name="Trazado 205406" d="M309.6,332.7a5.767,5.767,0,1,1,0-8.156,5.767,5.767,0,0,1,0,8.156" transform="translate(866.176 2758.405)" fill="#6be8e2"/>
    <path id="Trazado_205407" data-name="Trazado 205407" d="M313.177,324.543a5.746,5.746,0,0,0-4.149-1.686v11.528a5.765,5.765,0,0,0,4.149-9.843" transform="translate(862.596 2758.403)" fill="#57dbd8"/>
    <path id="Trazado_205408" data-name="Trazado 205408" d="M293.309,329.336a.614.614,0,0,1-.614-.614V323.4a.614.614,0,0,1,1.228,0v5.322a.614.614,0,0,1-.614.614" transform="translate(868.899 2758.432)" fill="#edefee"/>
    <path id="Trazado_205409" data-name="Trazado 205409" d="M293.309,337.516a.614.614,0,0,1-.614-.614v-1.334a.614.614,0,0,1,1.228,0V336.9a.614.614,0,0,1-.614.614" transform="translate(868.899 2753.736)" fill="#edefee"/>
    <rect id="Rectángulo_45029" data-name="Rectángulo 45029" width="32.957" height="27.704" transform="translate(1196.966 3047.271)" fill="#0f0957"/>
    <rect id="Rectángulo_45030" data-name="Rectángulo 45030" width="27.583" height="27.704" transform="translate(1196.966 3047.271)" fill="#1a0f91"/>
    <rect id="Rectángulo_45031" data-name="Rectángulo 45031" width="26.774" height="16.685" transform="translate(1200.056 3050.363)" fill="#f5b41d"/>
    <path id="Trazado_205410" data-name="Trazado 205410" d="M382.1,272.543l-26.774,16.685V272.543Z" transform="translate(844.729 2777.82)" fill="#ffcdc8"/>
    <path id="Trazado_205411" data-name="Trazado 205411" d="M378.784,289.665a4.452,4.452,0,1,1-4.452-4.452,4.452,4.452,0,0,1,4.452,4.452" transform="translate(839.112 2772.932)" fill="#fe7062"/>
    <path id="Trazado_205412" data-name="Trazado 205412" d="M382.1,289.223v6.442H355.328v-4.3a7.369,7.369,0,0,1,.976-.393,15.989,15.989,0,0,1,7.621-.018,28,28,0,0,0,7.639.774,34.87,34.87,0,0,0,6.528-1.744,16.348,16.348,0,0,1,4.01-.762" transform="translate(844.729 2771.384)" fill="#6be8e2"/>
    <path id="Trazado_205413" data-name="Trazado 205413" d="M382.1,292.463v4.452H355.328v-2.309a7.369,7.369,0,0,1,.976-.393,15.99,15.99,0,0,1,7.621-.018,28,28,0,0,0,7.639.774,34.866,34.866,0,0,0,6.528-1.744,16.348,16.348,0,0,1,4.01-.761" transform="translate(844.729 2770.133)" fill="#57dbd8"/>
    <path id="Trazado_205414" data-name="Trazado 205414" d="M359.809,284.32a.613.613,0,0,1-.614-.614v-6.972a.614.614,0,0,1,1.228,0v6.972a.613.613,0,0,1-.614.614" transform="translate(843.235 2776.44)" fill="#edefee"/>
    <path id="Trazado_205415" data-name="Trazado 205415" d="M359.642,293.694a.614.614,0,0,1-.614-.614v-1.345a.614.614,0,0,1,1.228,0v1.345a.614.614,0,0,1-.614.614" transform="translate(843.3 2770.651)" fill="#edefee"/>
    <path id="Trazado_205416" data-name="Trazado 205416" d="M193.275,258.275H175.6a4.757,4.757,0,0,1-4.757-4.757V240.336a4.757,4.757,0,0,1,4.757-4.757h17.676a4.757,4.757,0,0,1,4.757,4.757v13.183a4.757,4.757,0,0,1-4.757,4.757" transform="translate(915.924 2792.086)" fill="#1a0f91"/>
    <path id="Trazado_205417" data-name="Trazado 205417" d="M201.837,235.579h-8.809v22.7h8.809a4.757,4.757,0,0,0,4.757-4.757V240.336a4.757,4.757,0,0,0-4.757-4.757" transform="translate(907.362 2792.086)" fill="#0f0957"/>
    <path id="Trazado_205418" data-name="Trazado 205418" d="M207.983,255.744h-8.66a2.694,2.694,0,0,1-2.694-2.694v-3.682a2.694,2.694,0,0,1,2.694-2.694h8.66Z" transform="translate(905.973 2787.805)" fill="#6be8e2"/>
    <rect id="Rectángulo_45032" data-name="Rectángulo 45032" width="3.536" height="9.07" transform="translate(1110.421 3034.479)" fill="#57dbd8"/>
    <path id="Trazado_205419" data-name="Trazado 205419" d="M202.2,252.968a1.736,1.736,0,1,1-1.736-1.736,1.736,1.736,0,0,1,1.736,1.736" transform="translate(905.161 2786.045)" fill="#1a0f91"/>
    <path id="Trazado_205420" data-name="Trazado 205420" d="M340.831,135.456H332.8a1.957,1.957,0,0,1-1.956-1.957v-6.591a1.957,1.957,0,0,1,1.956-1.957h8.033a1.957,1.957,0,0,1,1.956,1.957V133.5a1.957,1.957,0,0,1-1.956,1.957" transform="translate(854.178 2834.779)" fill="#1a0f91"/>
    <path id="Trazado_205421" data-name="Trazado 205421" d="M341.1,138.757H338.22v-3.81a1.442,1.442,0,0,1,2.884,0Z" transform="translate(851.33 2831.479)" fill="#eea218"/>
    <path id="Trazado_205422" data-name="Trazado 205422" d="M341.323,122.581a1.236,1.236,0,0,1-1.236-1.236v-4.119a2.883,2.883,0,1,0-5.767,0v4.119a1.236,1.236,0,1,1-2.472,0v-4.119a5.355,5.355,0,1,1,10.71,0v4.119a1.236,1.236,0,0,1-1.236,1.236" transform="translate(853.789 2839.827)" fill="#1a0f91"/>
    <path id="Trazado_205423" data-name="Trazado 205423" d="M403.34,100.62a10.962,10.962,0,1,1-10.961-10.961A10.962,10.962,0,0,1,403.34,100.62" transform="translate(834.66 2848.398)" fill="#e33332"/>
    <path id="Trazado_205424" data-name="Trazado 205424" d="M402.941,101.3a9.887,9.887,0,1,1-9.887-9.887,9.887,9.887,0,0,1,9.887,9.887" transform="translate(833.984 2847.724)" fill="#fe7062"/>
    <path id="Trazado_205425" data-name="Trazado 205425" d="M402.176,102.59a7.827,7.827,0,1,1-7.827-7.827,7.827,7.827,0,0,1,7.827,7.827" transform="translate(832.689 2846.43)" fill="#6be8e2"/>
    <path id="Trazado_205426" data-name="Trazado 205426" d="M399.278,94.764v15.654a7.827,7.827,0,0,0,0-15.654" transform="translate(827.767 2846.429)" fill="#57dbd8"/>
    <path id="Trazado_205427" data-name="Trazado 205427" d="M401.959,105.394h-2.884a.307.307,0,0,1-.307-.307V99.938a.307.307,0,0,1,.614,0v4.842h2.577a.307.307,0,0,1,0,.614" transform="translate(827.964 2844.551)" fill="#1a0f91"/>
    <rect id="Rectángulo_45033" data-name="Rectángulo 45033" width="22.246" height="15.654" transform="translate(1208.707 2899.996)" fill="#6be8e2"/>
    <rect id="Rectángulo_45034" data-name="Rectángulo 45034" width="10.969" height="15.654" transform="translate(1219.983 2899.996)" fill="#57dbd8"/>
    <rect id="Rectángulo_45035" data-name="Rectángulo 45035" width="22.246" height="4.119" transform="translate(1208.707 2903.704)" fill="#1a0f91"/>
    <rect id="Rectángulo_45036" data-name="Rectángulo 45036" width="10.969" height="4.119" transform="translate(1219.983 2903.704)" fill="#0f0957"/>
    <rect id="Rectángulo_45037" data-name="Rectángulo 45037" width="21.422" height="14.212" transform="translate(1128.169 2931.718)" fill="#c81c1c"/>
    <path id="Trazado_205428" data-name="Trazado 205428" d="M238.264,79.334l10.711,7.673,10.711-7.673Z" transform="translate(889.905 2852.384)" fill="#fe7062"/>
    <rect id="Rectángulo_45038" data-name="Rectángulo 45038" width="74.049" height="48.405" transform="translate(1089.136 2968.793)" fill="#cfd1d0"/>
    <rect id="Rectángulo_45039" data-name="Rectángulo 45039" width="63.098" height="48.405" transform="translate(1089.136 2968.793)" fill="#edefee"/>
    <rect id="Rectángulo_45040" data-name="Rectángulo 45040" width="74.049" height="1.484" transform="translate(1089.136 3015.715)" fill="#cfd1d0"/>
    <rect id="Rectángulo_45041" data-name="Rectángulo 45041" width="20.512" height="40.357" transform="translate(1098.191 2978.07)" fill="#8a8a8a"/>
    <rect id="Rectángulo_45042" data-name="Rectángulo 45042" width="18.055" height="37.9" transform="translate(1099.418 2979.299)" fill="#6be8e2"/>
    <rect id="Rectángulo_45043" data-name="Rectángulo 45043" width="8.896" height="37.9" transform="translate(1108.579 2979.299)" fill="#57dbd8"/>
    <rect id="Rectángulo_45044" data-name="Rectángulo 45044" width="34.28" height="26.916" transform="translate(1123.851 2978.07)" fill="#8a8a8a"/>
    <rect id="Rectángulo_45045" data-name="Rectángulo 45045" width="31.824" height="24.46" transform="translate(1125.079 2979.299)" fill="#6be8e2"/>
    <rect id="Rectángulo_45046" data-name="Rectángulo 45046" width="15.983" height="24.46" transform="translate(1140.92 2979.299)" fill="#57dbd8"/>
    <path id="Trazado_205429" data-name="Trazado 205429" d="M164.8,154.9h0a6.533,6.533,0,0,1-6.533-6.533V139.71h13.065v8.659A6.533,6.533,0,0,1,164.8,154.9" transform="translate(920.778 2829.084)" fill="#fe7062"/>
    <path id="Trazado_205430" data-name="Trazado 205430" d="M186.073,154.9h0a6.533,6.533,0,0,1-6.533-6.533V139.71h13.065v8.659a6.533,6.533,0,0,1-6.533,6.533" transform="translate(912.568 2829.084)" fill="#edefee"/>
    <path id="Trazado_205431" data-name="Trazado 205431" d="M207.349,154.9h0a6.533,6.533,0,0,1-6.533-6.533V139.71h13.065v8.659a6.533,6.533,0,0,1-6.533,6.533" transform="translate(904.357 2829.084)" fill="#fe7062"/>
    <path id="Trazado_205432" data-name="Trazado 205432" d="M228.624,154.9h0a6.533,6.533,0,0,1-6.533-6.533V139.71h13.065v8.659a6.533,6.533,0,0,1-6.533,6.533" transform="translate(896.146 2829.084)" fill="#edefee"/>
    <path id="Trazado_205433" data-name="Trazado 205433" d="M249.9,154.9h0a6.533,6.533,0,0,1-6.533-6.533V139.71h13.065v8.659A6.533,6.533,0,0,1,249.9,154.9" transform="translate(887.936 2829.084)" fill="#fe7062"/>
    <path id="Trazado_205434" data-name="Trazado 205434" d="M271.175,154.9h0a6.533,6.533,0,0,1-6.533-6.533V139.71h13.065v8.659a6.533,6.533,0,0,1-6.533,6.533" transform="translate(879.726 2829.084)" fill="#edefee"/>
    <path id="Trazado_205435" data-name="Trazado 205435" d="M292.451,154.9h0a6.533,6.533,0,0,1-6.533-6.533V139.71h13.065v8.659a6.533,6.533,0,0,1-6.533,6.533" transform="translate(871.515 2829.084)" fill="#fe7062"/>
    <path id="Trazado_205436" data-name="Trazado 205436" d="M171.239,139.71v8.659A6.529,6.529,0,0,1,166.3,154.7a6.507,6.507,0,0,0,8.129-6.327V139.71Z" transform="translate(917.676 2829.084)" fill="#e33332"/>
    <path id="Trazado_205437" data-name="Trazado 205437" d="M192.515,139.71v8.659a6.529,6.529,0,0,1-4.936,6.327,6.507,6.507,0,0,0,8.129-6.327V139.71Z" transform="translate(909.465 2829.084)" fill="#cfd1d0"/>
    <path id="Trazado_205438" data-name="Trazado 205438" d="M213.79,139.71v8.659a6.529,6.529,0,0,1-4.936,6.327,6.507,6.507,0,0,0,8.129-6.327V139.71Z" transform="translate(901.255 2829.084)" fill="#e33332"/>
    <path id="Trazado_205439" data-name="Trazado 205439" d="M235.066,139.71v8.659a6.529,6.529,0,0,1-4.936,6.327,6.507,6.507,0,0,0,8.129-6.327V139.71Z" transform="translate(893.044 2829.084)" fill="#cfd1d0"/>
    <path id="Trazado_205440" data-name="Trazado 205440" d="M256.341,139.71v8.659A6.529,6.529,0,0,1,251.4,154.7a6.507,6.507,0,0,0,8.129-6.327V139.71Z" transform="translate(884.834 2829.084)" fill="#e33332"/>
    <path id="Trazado_205441" data-name="Trazado 205441" d="M277.617,139.71v8.659a6.529,6.529,0,0,1-4.936,6.327,6.507,6.507,0,0,0,8.129-6.327V139.71Z" transform="translate(876.623 2829.084)" fill="#cfd1d0"/>
    <path id="Trazado_205442" data-name="Trazado 205442" d="M298.893,139.71v8.659a6.529,6.529,0,0,1-4.937,6.327,6.508,6.508,0,0,0,8.129-6.327V139.71Z" transform="translate(868.413 2829.084)" fill="#e33332"/>
    <path id="Trazado_205443" data-name="Trazado 205443" d="M249.724,126.735H158.268l10.089-20.652h71.27Z" transform="translate(920.777 2842.061)" fill="#e33332"/>
    <path id="Trazado_205444" data-name="Trazado 205444" d="M231.5,126.735H158.268l10.089-20.652h53.051Z" transform="translate(920.777 2842.061)" fill="#fe7062"/>
    <rect id="Rectángulo_45047" data-name="Rectángulo 45047" width="82.289" height="3.501" transform="translate(1085.017 3020.701)" fill="#edefee"/>
    <rect id="Rectángulo_45048" data-name="Rectángulo 45048" width="78.169" height="3.501" transform="translate(1087.076 3017.199)" fill="#edefee"/>
    <rect id="Rectángulo_45049" data-name="Rectángulo 45049" width="82.289" height="1.936" transform="translate(1085.017 3022.266)" fill="#cfd1d0"/>
    <rect id="Rectángulo_45050" data-name="Rectángulo 45050" width="78.169" height="1.301" transform="translate(1087.076 3019.4)" fill="#cfd1d0"/>
    <path id="Trazado_205445" data-name="Trazado 205445" d="M237.642,175.448a.614.614,0,0,1-.614-.614v-6.767a.614.614,0,1,1,1.228,0v6.767a.614.614,0,0,1-.614.614" transform="translate(890.382 2818.377)" fill="#edefee"/>
    <path id="Trazado_205446" data-name="Trazado 205446" d="M237.975,184.781a.614.614,0,0,1-.614-.614v-1.433a.614.614,0,1,1,1.228,0v1.433a.614.614,0,0,1-.614.614" transform="translate(890.254 2812.717)" fill="#edefee"/>
    <path id="Trazado_205447" data-name="Trazado 205447" d="M196.642,186.752a.614.614,0,0,1-.614-.614V171.4a.614.614,0,0,1,1.228,0v14.739a.614.614,0,0,1-.614.614" transform="translate(906.205 2817.091)" fill="#edefee"/>
    <path id="Trazado_205448" data-name="Trazado 205448" d="M197.309,206.29a.614.614,0,0,1-.614-.614V202.4a.614.614,0,1,1,1.228,0v3.275a.614.614,0,0,1-.614.614" transform="translate(905.947 2805.127)" fill="#edefee"/>
    <path id="Trazado_205449" data-name="Trazado 205449" d="M174.152,120.984a.6.6,0,0,1-.242-.05.614.614,0,0,1-.322-.806l3.947-9.187a.614.614,0,0,1,1.129.485l-3.947,9.187a.614.614,0,0,1-.564.372" transform="translate(914.884 2840.33)" fill="#edefee"/>
    <path id="Trazado_205450" data-name="Trazado 205450" d="M38.588,234.852H3.2L7.89,202.1h26Z" transform="translate(980.621 2805.005)" fill="#f5b41d"/>
    <path id="Trazado_205451" data-name="Trazado 205451" d="M31.428,234.852H3.2L7.89,202.1H26.736Z" transform="translate(980.621 2805.005)" fill="#ffcdc8"/>
    <path id="Trazado_205452" data-name="Trazado 205452" d="M34.109,203.171a.921.921,0,0,1-.921-.921v-8.1a6.281,6.281,0,0,0-12.559,0v8.1a.921.921,0,1,1-1.842,0v-8.1a8.123,8.123,0,0,1,16.244,0v8.1a.921.921,0,0,1-.921.921" transform="translate(974.605 2811.151)" fill="#edefee"/>
    <path id="Trazado_205453" data-name="Trazado 205453" d="M44.333,210.675a1.8,1.8,0,1,1-1.8-1.8,1.8,1.8,0,0,1,1.8,1.8" transform="translate(966.133 2802.39)" fill="#1a0f91"/>
    <path id="Trazado_205454" data-name="Trazado 205454" d="M21.025,210.675a1.8,1.8,0,1,1-1.8-1.8,1.8,1.8,0,0,1,1.8,1.8" transform="translate(975.128 2802.39)" fill="#1a0f91"/>
    <path id="Trazado_205455" data-name="Trazado 205455" d="M35.724,368.241h-12.6l-.192-.848h11a1.179,1.179,0,0,0,1.151-.922l.788-3.549v0l1.006-4.529a1.179,1.179,0,0,0-1.15-1.434H20.6l-.619-2.785a1.178,1.178,0,0,0-1.15-.923H14.786a1.178,1.178,0,1,0,0,2.357h3.1l2.1,9.461,1.045,4.613a1.178,1.178,0,0,0,1.15.918H35.724a1.178,1.178,0,0,0,0-2.356m-13.576-4.38h1.66l.1,1.175h-1.5Zm4.131,1.175-.1-1.175h3.042l-.1,1.175Zm5.2,0,.1-1.175h1.66l-.261,1.175Zm2.289-3.531H31.792l.2-2.192h2.267Zm-4.146-2.192-.2,2.192H25.965l-.2-2.192Zm-6.218,0L23.6,361.5H21.624l-.487-2.192Z" transform="translate(976.604 2746.676)" fill="#ffcdc8"/>
    <path id="Trazado_205456" data-name="Trazado 205456" d="M32.776,382.146a2.017,2.017,0,1,1-2.017-2.017,2.017,2.017,0,0,1,2.017,2.017" transform="translate(970.764 2736.302)" fill="#ffcdc8"/>
    <path id="Trazado_205457" data-name="Trazado 205457" d="M45.269,382.146a2.017,2.017,0,1,1-2.017-2.017,2.017,2.017,0,0,1,2.017,2.017" transform="translate(965.942 2736.302)" fill="#ffcdc8"/>
    <text id="_0.0001" data-name="0.0001" transform="translate(1203.991 3118.48)" fill="#fff" font-size="6" font-family="SegoeUI, Segoe UI"><tspan x="0" y="0">0.0001</tspan></text>
    <path id="Trazado_205458" data-name="Trazado 205458" d="M382.069,236.6a9.681,9.681,0,1,1-9.681-9.681,9.681,9.681,0,0,1,9.681,9.681" transform="translate(841.881 2795.428)" fill="#ffcdc8"/>
    <path id="Trazado_205459" data-name="Trazado 205459" d="M378.4,226.921c-.04,0-.079.006-.118.006v19.35c.04,0,.079.006.118.006a9.681,9.681,0,1,0,0-19.362" transform="translate(835.871 2795.428)" fill="#f5b41d"/>
    <path id="Trazado_205460" data-name="Trazado 205460" d="M381.38,237.767a7.827,7.827,0,1,1-7.827-7.827,7.827,7.827,0,0,1,7.827,7.827" transform="translate(840.715 2794.262)" fill="#eea218"/>
    <path id="Trazado_205461" data-name="Trazado 205461" d="M378.528,229.943v15.651a7.826,7.826,0,0,0,0-15.651" transform="translate(835.774 2794.261)" fill="#de9716"/>
    <text id="_" data-name="$" transform="translate(1212.366 3033.048)" fill="#fff" font-size="6" font-family="SegoeUI, Segoe UI"><tspan x="0" y="0">$</tspan></text>
    <path id="Trazado_205462" data-name="Trazado 205462" d="M70.747,271.769A10.965,10.965,0,1,1,59.782,260.8a10.965,10.965,0,0,1,10.965,10.965" transform="translate(963.016 2782.352)" fill="#fe7062"/>
    <text id="_2" data-name="%" transform="translate(1017.543 3058.278)" fill="#1a0f91" font-size="12" font-family="SegoeUI, Segoe UI"><tspan x="0" y="0">%</tspan></text>
    <rect id="Rectángulo_45054" data-name="Rectángulo 45054" width="33.776" height="18.742" transform="translate(1063.7 2922.45)" fill="#6be8e2"/>
    <rect id="Rectángulo_45055" data-name="Rectángulo 45055" width="16.89" height="18.742" transform="translate(1080.586 2922.45)" fill="#57dbd8"/>
    <path id="Trazado_205463" data-name="Trazado 205463" d="M162.426,76.718A4.428,4.428,0,1,1,158,72.289a4.429,4.429,0,0,1,4.429,4.429" transform="translate(922.59 2855.103)" fill="#ffcdc8"/>
    <path id="Trazado_205464" data-name="Trazado 205464" d="M160.779,72.29h0v8.857h0a4.428,4.428,0,1,0,0-8.857" transform="translate(919.809 2855.102)" fill="#f5b41d"/>
    <path id="Trazado_205465" data-name="Trazado 205465" d="M183.4,64.243v7.768a1.292,1.292,0,0,1-.154.006,7.619,7.619,0,0,1-7.62-7.62,1.3,1.3,0,0,1,.006-.154Z" transform="translate(914.08 2858.207)" fill="#f5b41d"/>
    <path id="Trazado_205466" data-name="Trazado 205466" d="M183.4,82.11v7.768h-7.768a1.305,1.305,0,0,1-.006-.155,7.619,7.619,0,0,1,7.62-7.619,1.294,1.294,0,0,1,.154.006" transform="translate(914.08 2851.314)" fill="#f5b41d"/>
    <path id="Trazado_205467" data-name="Trazado 205467" d="M141.053,64.4a7.619,7.619,0,0,1-7.619,7.619,1.3,1.3,0,0,1-.155-.006V64.243h7.768a1.29,1.29,0,0,1,.006.154" transform="translate(930.421 2858.207)" fill="#ffcdc8"/>
    <path id="Trazado_205468" data-name="Trazado 205468" d="M141.053,89.724a1.3,1.3,0,0,1-.006.154h-7.768V82.111a1.305,1.305,0,0,1,.155-.006,7.619,7.619,0,0,1,7.619,7.619" transform="translate(930.421 2851.314)" fill="#ffcdc8"/>
    <text id="_3" data-name="$" transform="translate(1079.045 2933.82)" fill="#1a0f91" font-size="6" font-family="SegoeUI, Segoe UI"><tspan x="0" y="0">$</tspan></text>
    <path id="Trazado_205469" data-name="Trazado 205469" d="M392.378,158.955l-1.314-3.78a2.9,2.9,0,0,0-2.682-2.047h-9.745a2.9,2.9,0,0,0-2.682,2.047l-1.314,3.78a3.524,3.524,0,0,0-.194,1.156v18.146h18.126V160.111a3.524,3.524,0,0,0-.194-1.156" transform="translate(837.351 2823.905)" fill="#fe7062"/>
    <path id="Trazado_205470" data-name="Trazado 205470" d="M398.006,158.955l-1.314-3.78a2.9,2.9,0,0,0-2.682-2.047h-4.981v25.129H398.2V160.111a3.525,3.525,0,0,0-.194-1.156" transform="translate(831.723 2823.905)" fill="#e33332"/>
    <path id="Trazado_205471" data-name="Trazado 205471" d="M389.894,159.342a1.854,1.854,0,1,1-1.854-1.854,1.854,1.854,0,0,1,1.854,1.854" transform="translate(832.819 2822.223)" fill="#1a0f91"/>
    <path id="Trazado_205472" data-name="Trazado 205472" d="M389.012,155.7a.307.307,0,0,1-.307-.307v-7.827a.307.307,0,0,1,.614,0V155.4a.307.307,0,0,1-.307.307" transform="translate(831.848 2826.17)" fill="#1a0f91"/>
    <text id="_4" data-name="$" transform="translate(1218.004 2996.119)" fill="#1a0f91" font-size="10" font-family="SegoeUI, Segoe UI"><tspan x="0" y="0">$</tspan></text>
    <rect id="Rectángulo_45058" data-name="Rectángulo 45058" width="2.731" height="8.126" transform="translate(1151.366 3034.037) rotate(-45)" fill="#d0cfd5"/>
    <path id="Trazado_205473" data-name="Trazado 205473" d="M289.913,276.7h0a2.678,2.678,0,0,1-3.788,0l-3.266-3.266a2.679,2.679,0,0,1,3.789-3.789l3.266,3.266a2.678,2.678,0,0,1,0,3.788" transform="translate(872.998 2766.954)" fill="#1a0f91"/>
    <path id="Trazado_205474" data-name="Trazado 205474" d="M267.4,238.772a10.9,10.9,0,1,1-15.415,0,10.9,10.9,0,0,1,15.415,0" transform="translate(885.841 2779.797)" fill="#1a0f91"/>
    <path id="Trazado_205475" data-name="Trazado 205475" d="M274.15,238.776a10.859,10.859,0,0,0-7.872-3.185v21.785a10.894,10.894,0,0,0,7.872-18.6" transform="translate(879.094 2779.793)" fill="#0f0957"/>
    <path id="Trazado_205476" data-name="Trazado 205476" d="M267.215,241.98a8.5,8.5,0,1,1-12.019,0,8.5,8.5,0,0,1,12.019,0" transform="translate(884.331 2778.287)" fill="#6be8e2"/>
    <path id="Trazado_205477" data-name="Trazado 205477" d="M272.549,241.98a8.472,8.472,0,0,0-6.02-2.489v17a8.5,8.5,0,0,0,6.02-14.507" transform="translate(878.997 2778.287)" fill="#57dbd8"/>
    <path id="Trazado_205478" data-name="Trazado 205478" d="M320.045,28.564a14.728,14.728,0,1,0-27.023,8.1l12.3,14.657,12.3-14.657a14.652,14.652,0,0,0,2.432-8.1" transform="translate(869.712 2873.871)" fill="#ffcdc8"/>
    <path id="Trazado_205479" data-name="Trazado 205479" d="M314.459,13.836c-.061,0-.12,0-.181,0V51.108l.181.216,12.3-14.657a14.726,14.726,0,0,0-12.3-22.832" transform="translate(860.57 2873.871)" fill="#f5b41d"/>
    <path id="Trazado_205480" data-name="Trazado 205480" d="M316.477,32.8a5.122,5.122,0,1,1-5.122-5.122,5.122,5.122,0,0,1,5.122,5.122" transform="translate(863.675 2865.029)" fill="#fe7062"/>
    <path id="Trazado_205481" data-name="Trazado 205481" d="M314.459,27.678c-.061,0-.12.007-.181.009V37.912c.061,0,.12.009.181.009a5.122,5.122,0,1,0,0-10.244" transform="translate(860.57 2865.029)" fill="#e33332"/>
    <path id="Trazado_205482" data-name="Trazado 205482" d="M54.648,112.541H42.791a4.374,4.374,0,0,0-3.11,1.3l-6.4,6.476a4.373,4.373,0,0,0-1.264,3.076v13.431H54.648Z" transform="translate(969.501 2827.279)" fill="#fe7062"/>
    <rect id="Rectángulo_45059" data-name="Rectángulo 45059" width="22.641" height="13.129" transform="translate(1001.511 2950.974)" fill="#e33332"/>
    <path id="Trazado_205483" data-name="Trazado 205483" d="M53.73,126.452v-9.887H44.345a1.914,1.914,0,0,0-1.353.565l-6.4,6.476a1.889,1.889,0,0,0-.55,1.338v1.509Z" transform="translate(967.948 2825.727)" fill="#6be8e2"/>
    <rect id="Rectángulo_45060" data-name="Rectángulo 45060" width="6.798" height="9.887" transform="translate(1014.879 2942.291)" fill="#57dbd8"/>
    <path id="Trazado_205484" data-name="Trazado 205484" d="M53.31,146.432c0,.166-.006.332-.018.491H37.9c-.012-.16-.018-.325-.018-.491a7.716,7.716,0,1,1,15.432,0" transform="translate(967.238 2817.18)" fill="#b52928"/>
    <path id="Trazado_205485" data-name="Trazado 205485" d="M52.854,147.2a6.5,6.5,0,1,1-6.491-6.491,6.493,6.493,0,0,1,6.491,6.491" transform="translate(966.466 2816.407)" fill="#0f0957"/>
    <rect id="Rectángulo_45061" data-name="Rectángulo 45061" width="42.137" height="30.458" transform="translate(1022.798 2933.644)" fill="#ffcdc8"/>
    <rect id="Rectángulo_45062" data-name="Rectángulo 45062" width="42.132" height="12.976" transform="translate(1022.801 2951.127)" fill="#f5b41d"/>
    <path id="Trazado_205486" data-name="Trazado 205486" d="M117.655,102.483v27.775a22.828,22.828,0,0,1-17.52-10.12c-3.4-5.226-4.6-11.852-8.978-16.279a15.053,15.053,0,0,0-1.56-1.376Z" transform="translate(947.278 2831.161)" fill="#fe7062"/>
    <path id="Trazado_205487" data-name="Trazado 205487" d="M123.753,102.483v24.895a22.156,22.156,0,0,1-7.817-7.24c-3.4-5.226-4.6-11.852-8.978-16.279a15.052,15.052,0,0,0-1.56-1.376Z" transform="translate(941.181 2831.161)" fill="#e33332"/>
    <path id="Trazado_205488" data-name="Trazado 205488" d="M125.58,146.432c0,.166-.006.332-.018.491h-15.4c-.012-.16-.018-.325-.018-.491a7.716,7.716,0,1,1,15.432,0" transform="translate(939.348 2817.18)" fill="#c78f0e"/>
    <path id="Trazado_205489" data-name="Trazado 205489" d="M125.124,147.2a6.5,6.5,0,1,1-6.491-6.491,6.493,6.493,0,0,1,6.491,6.491" transform="translate(938.576 2816.407)" fill="#0f0957"/>
    <path id="Trazado_205490" data-name="Trazado 205490" d="M83.65,146.432c0,.166-.006.332-.018.491h-15.4c-.012-.16-.018-.325-.018-.491a7.716,7.716,0,1,1,15.432,0" transform="translate(955.529 2817.18)" fill="#c78f0e"/>
    <path id="Trazado_205491" data-name="Trazado 205491" d="M83.194,147.2a6.5,6.5,0,1,1-6.491-6.491,6.493,6.493,0,0,1,6.491,6.491" transform="translate(954.757 2816.407)" fill="#0f0957"/>
    <path id="Trazado_205492" data-name="Trazado 205492" d="M49.3,147.358a6.506,6.506,0,0,1-4.71,6.245,6.5,6.5,0,0,1,0-12.49,6.5,6.5,0,0,1,4.71,6.245" transform="translate(966.466 2816.253)" fill="#1a0f91"/>
    <path id="Trazado_205493" data-name="Trazado 205493" d="M121.562,147.358a6.508,6.508,0,0,1-4.7,6.245,6.5,6.5,0,0,1,0-12.49,6.5,6.5,0,0,1,4.7,6.245" transform="translate(938.576 2816.253)" fill="#1a0f91"/>
    <path id="Trazado_205494" data-name="Trazado 205494" d="M79.632,147.358a6.508,6.508,0,0,1-4.7,6.245,6.5,6.5,0,0,1,0-12.49,6.5,6.5,0,0,1,4.7,6.245" transform="translate(954.757 2816.253)" fill="#1a0f91"/>
    <path id="Trazado_205495" data-name="Trazado 205495" d="M51.706,149.145a3.4,3.4,0,0,1-3.4,3.4,3.334,3.334,0,0,1-.995-.147,3.4,3.4,0,0,1,0-6.5,3.333,3.333,0,0,1,.995-.147,3.4,3.4,0,0,1,3.4,3.4" transform="translate(964.524 2814.466)" fill="#cfd1d0"/>
    <path id="Trazado_205496" data-name="Trazado 205496" d="M123.976,149.145a3.4,3.4,0,0,1-3.4,3.4,3.334,3.334,0,0,1-.995-.147,3.4,3.4,0,0,1,0-6.5,3.333,3.333,0,0,1,.995-.147,3.4,3.4,0,0,1,3.4,3.4" transform="translate(936.634 2814.466)" fill="#cfd1d0"/>
    <path id="Trazado_205497" data-name="Trazado 205497" d="M82.046,149.145a3.4,3.4,0,0,1-3.4,3.4,3.334,3.334,0,0,1-.995-.147,3.4,3.4,0,0,1,0-6.5,3.333,3.333,0,0,1,.995-.147,3.4,3.4,0,0,1,3.4,3.4" transform="translate(952.816 2814.466)" fill="#cfd1d0"/>
    <path id="Trazado_205498" data-name="Trazado 205498" d="M49.71,149.238a3.4,3.4,0,0,1-2.4,3.248,3.4,3.4,0,0,1,0-6.5,3.413,3.413,0,0,1,2.4,3.255" transform="translate(964.524 2814.373)" fill="#edefee"/>
    <path id="Trazado_205499" data-name="Trazado 205499" d="M121.98,149.238a3.4,3.4,0,0,1-2.4,3.248,3.4,3.4,0,0,1,0-6.5,3.413,3.413,0,0,1,2.4,3.255" transform="translate(936.634 2814.373)" fill="#edefee"/>
    <path id="Trazado_205500" data-name="Trazado 205500" d="M80.05,149.238a3.4,3.4,0,0,1-2.4,3.248,3.4,3.4,0,0,1,0-6.5,3.413,3.413,0,0,1,2.4,3.255" transform="translate(952.816 2814.373)" fill="#edefee"/>
    <path id="Trazado_205501" data-name="Trazado 205501" d="M41.642,126.344a.614.614,0,0,1-.423-1.059l5.168-4.913a.614.614,0,0,1,.846.89l-5.168,4.913a.611.611,0,0,1-.423.169" transform="translate(966.022 2824.322)" fill="#edefee"/>
    <path id="Trazado_205502" data-name="Trazado 205502" d="M71.642,124.537a.614.614,0,0,1-.614-.614V110.567a.614.614,0,1,1,1.228,0v13.356a.614.614,0,0,1-.614.614" transform="translate(954.444 2828.278)" fill="#edefee"/>
    <path id="Trazado_205503" data-name="Trazado 205503" d="M113.465,324.194a8.574,8.574,0,1,1,8.574-8.574,8.584,8.584,0,0,1-8.574,8.574m0-12.2a3.63,3.63,0,1,0,3.63,3.63,3.634,3.634,0,0,0-3.63-3.63" transform="translate(941.376 2752.216)" fill="#e33332"/>
    <path id="Trazado_205504" data-name="Trazado 205504" d="M94.138,324.194a8.574,8.574,0,1,1,8.574-8.574,8.584,8.584,0,0,1-8.574,8.574m0-12.2a3.63,3.63,0,1,0,3.63,3.63,3.634,3.634,0,0,0-3.63-3.63" transform="translate(948.834 2752.216)" fill="#fe7062"/>
    <rect id="Rectángulo_45063" data-name="Rectángulo 45063" width="38.598" height="29.84" transform="translate(1029.608 3080.504)" fill="#ffcdc8"/>
    <rect id="Rectángulo_45064" data-name="Rectángulo 45064" width="8.549" height="29.84" transform="translate(1059.657 3080.504)" fill="#f5b41d"/>
    <rect id="Rectángulo_45065" data-name="Rectángulo 45065" width="38.598" height="1.73" transform="translate(1029.608 3080.504)" fill="#f5b41d"/>
    <rect id="Rectángulo_45066" data-name="Rectángulo 45066" width="45.19" height="11.71" transform="translate(1026.312 3068.792)" fill="#6be8e2"/>
    <path id="Trazado_205505" data-name="Trazado 205505" d="M110.857,322.564v10.371H72.4v1.339h45.19v-11.71Z" transform="translate(953.917 2746.228)" fill="#57dbd8"/>
    <rect id="Rectángulo_45067" data-name="Rectángulo 45067" width="13.057" height="41.55" transform="translate(1042.378 3068.792)" fill="#fe7062"/>
    <rect id="Rectángulo_45068" data-name="Rectángulo 45068" width="7.037" height="41.55" transform="translate(1048.398 3068.792)" fill="#e33332"/>
    <path id="Trazado_205506" data-name="Trazado 205506" d="M86.123,235.264a.307.307,0,0,1-.307-.307v-2.393a.307.307,0,0,1,.614,0v2.393a.307.307,0,0,1-.307.307" transform="translate(948.737 2781.079)" fill="#edefee"/>
    <path id="Trazado_205507" data-name="Trazado 205507" d="M86.123,251.225a.307.307,0,0,1-.307-.307v-2.393a.307.307,0,1,1,.614,0v2.393a.307.307,0,0,1-.307.307" transform="translate(948.737 2774.919)" fill="#edefee"/>
    <path id="Trazado_205508" data-name="Trazado 205508" d="M94.548,242.8H92.154a.307.307,0,0,1,0-.614h2.394a.307.307,0,1,1,0,.614" transform="translate(946.41 2777.248)" fill="#edefee"/>
    <path id="Trazado_205509" data-name="Trazado 205509" d="M78.587,242.8H76.194a.307.307,0,1,1,0-.614h2.393a.307.307,0,0,1,0,.614" transform="translate(952.569 2777.248)" fill="#edefee"/>
    <path id="Trazado_205510" data-name="Trazado 205510" d="M80.794,237.471a.308.308,0,0,1-.217-.09l-1.692-1.692a.307.307,0,0,1,.434-.434l1.692,1.692a.307.307,0,0,1-.217.524" transform="translate(951.447 2779.957)" fill="#edefee"/>
    <path id="Trazado_205511" data-name="Trazado 205511" d="M92.08,248.757a.308.308,0,0,1-.217-.09l-1.692-1.692a.307.307,0,0,1,.434-.434l1.692,1.692a.307.307,0,0,1-.217.524" transform="translate(947.092 2775.602)" fill="#edefee"/>
    <path id="Trazado_205512" data-name="Trazado 205512" d="M90.388,237.471a.307.307,0,0,1-.217-.524l1.692-1.692a.307.307,0,0,1,.434.434l-1.692,1.692a.308.308,0,0,1-.217.09" transform="translate(947.092 2779.957)" fill="#edefee"/>
    <path id="Trazado_205513" data-name="Trazado 205513" d="M79.1,248.757a.307.307,0,0,1-.217-.524l1.692-1.692a.307.307,0,0,1,.434.434l-1.692,1.692a.308.308,0,0,1-.217.09" transform="translate(951.447 2775.602)" fill="#edefee"/>
    <path id="Trazado_205514" data-name="Trazado 205514" d="M10.236,95.056a.307.307,0,0,1-.307-.307V92.356a.307.307,0,1,1,.614,0v2.393a.307.307,0,0,1-.307.307" transform="translate(978.023 2835.188)" fill="#edefee"/>
    <path id="Trazado_205515" data-name="Trazado 205515" d="M10.236,111.017a.307.307,0,0,1-.307-.307v-2.393a.307.307,0,1,1,.614,0v2.393a.307.307,0,0,1-.307.307" transform="translate(978.023 2829.028)" fill="#edefee"/>
    <path id="Trazado_205516" data-name="Trazado 205516" d="M18.661,102.592H16.268a.307.307,0,1,1,0-.614h2.393a.307.307,0,1,1,0,.614" transform="translate(975.696 2831.355)" fill="#edefee"/>
    <path id="Trazado_205517" data-name="Trazado 205517" d="M2.7,102.592H.307a.307.307,0,0,1,0-.614H2.7a.307.307,0,0,1,0,.614" transform="translate(981.855 2831.355)" fill="#edefee"/>
    <path id="Trazado_205518" data-name="Trazado 205518" d="M4.907,97.263a.306.306,0,0,1-.217-.09L3,95.481a.307.307,0,1,1,.434-.434l1.692,1.692a.307.307,0,0,1-.217.524" transform="translate(980.733 2834.065)" fill="#edefee"/>
    <path id="Trazado_205519" data-name="Trazado 205519" d="M16.193,108.549a.308.308,0,0,1-.217-.09l-1.692-1.692a.307.307,0,1,1,.434-.434l1.692,1.692a.307.307,0,0,1-.217.524" transform="translate(976.378 2829.71)" fill="#edefee"/>
    <path id="Trazado_205520" data-name="Trazado 205520" d="M14.5,97.263a.307.307,0,0,1-.217-.524l1.692-1.692a.307.307,0,1,1,.434.434l-1.692,1.692a.306.306,0,0,1-.217.09" transform="translate(976.378 2834.065)" fill="#edefee"/>
    <path id="Trazado_205521" data-name="Trazado 205521" d="M3.215,108.549A.307.307,0,0,1,3,108.026l1.692-1.692a.307.307,0,1,1,.434.434L3.432,108.46a.308.308,0,0,1-.217.09" transform="translate(980.733 2829.71)" fill="#edefee"/>
    <path id="Trazado_205522" data-name="Trazado 205522" d="M167.8,33a.307.307,0,0,1-.307-.307V30.3a.307.307,0,0,1,.614,0V32.7A.307.307,0,0,1,167.8,33" transform="translate(917.217 2859.135)" fill="#edefee"/>
    <path id="Trazado_205523" data-name="Trazado 205523" d="M167.8,48.963a.307.307,0,0,1-.307-.307V46.262a.307.307,0,0,1,.614,0v2.394a.307.307,0,0,1-.307.307" transform="translate(917.217 2852.977)" fill="#edefee"/>
    <path id="Trazado_205524" data-name="Trazado 205524" d="M176.224,40.538h-2.393a.307.307,0,1,1,0-.614h2.393a.307.307,0,1,1,0,.614" transform="translate(914.89 2855.304)" fill="#edefee"/>
    <path id="Trazado_205525" data-name="Trazado 205525" d="M160.263,40.538H157.87a.307.307,0,0,1,0-.614h2.393a.307.307,0,0,1,0,.614" transform="translate(921.049 2855.304)" fill="#edefee"/>
    <path id="Trazado_205526" data-name="Trazado 205526" d="M162.47,35.209a.306.306,0,0,1-.217-.09l-1.692-1.692a.307.307,0,1,1,.434-.434l1.692,1.692a.307.307,0,0,1-.217.524" transform="translate(919.927 2858.014)" fill="#edefee"/>
    <path id="Trazado_205527" data-name="Trazado 205527" d="M173.756,46.5a.306.306,0,0,1-.217-.09l-1.692-1.692a.307.307,0,1,1,.434-.434l1.692,1.692a.307.307,0,0,1-.217.524" transform="translate(915.571 2853.658)" fill="#edefee"/>
    <path id="Trazado_205528" data-name="Trazado 205528" d="M172.064,35.209a.307.307,0,0,1-.217-.524l1.692-1.692a.307.307,0,0,1,.434.434l-1.692,1.692a.3.3,0,0,1-.217.09" transform="translate(915.571 2858.014)" fill="#edefee"/>
    <path id="Trazado_205529" data-name="Trazado 205529" d="M160.778,46.5a.307.307,0,0,1-.217-.524l1.692-1.692a.307.307,0,1,1,.434.434L161,46.405a.306.306,0,0,1-.217.09" transform="translate(919.927 2853.658)" fill="#edefee"/>
    <path id="Trazado_205530" data-name="Trazado 205530" d="M340.375,243.245a.307.307,0,0,1-.307-.307v-2.393a.307.307,0,0,1,.614,0v2.393a.307.307,0,0,1-.307.307" transform="translate(850.617 2777.999)" fill="#edefee"/>
    <path id="Trazado_205531" data-name="Trazado 205531" d="M340.375,259.206a.307.307,0,0,1-.307-.307v-2.393a.307.307,0,1,1,.614,0V258.9a.307.307,0,0,1-.307.307" transform="translate(850.617 2771.839)" fill="#edefee"/>
    <path id="Trazado_205532" data-name="Trazado 205532" d="M348.8,250.78h-2.394a.307.307,0,0,1,0-.614H348.8a.307.307,0,0,1,0,.614" transform="translate(848.29 2774.168)" fill="#edefee"/>
    <path id="Trazado_205533" data-name="Trazado 205533" d="M332.84,250.78h-2.393a.307.307,0,1,1,0-.614h2.393a.307.307,0,0,1,0,.614" transform="translate(854.448 2774.168)" fill="#edefee"/>
    <path id="Trazado_205534" data-name="Trazado 205534" d="M335.047,245.451a.306.306,0,0,1-.217-.09l-1.692-1.692a.307.307,0,0,1,.434-.434l1.692,1.692a.307.307,0,0,1-.217.524" transform="translate(853.326 2776.877)" fill="#edefee"/>
    <path id="Trazado_205535" data-name="Trazado 205535" d="M346.332,256.737a.309.309,0,0,1-.217-.09l-1.692-1.692a.307.307,0,0,1,.434-.434l1.692,1.692a.307.307,0,0,1-.217.524" transform="translate(848.972 2772.521)" fill="#edefee"/>
    <path id="Trazado_205536" data-name="Trazado 205536" d="M344.64,245.451a.307.307,0,0,1-.217-.524l1.692-1.692a.307.307,0,1,1,.434.434l-1.692,1.692a.308.308,0,0,1-.217.09" transform="translate(848.972 2776.877)" fill="#edefee"/>
    <path id="Trazado_205537" data-name="Trazado 205537" d="M333.355,256.737a.307.307,0,0,1-.217-.524l1.692-1.692a.307.307,0,1,1,.434.434l-1.692,1.692a.309.309,0,0,1-.217.09" transform="translate(853.326 2772.521)" fill="#edefee"/>
    <path id="Trazado_205538" data-name="Trazado 205538" d="M328.531,372.708a.307.307,0,0,1-.307-.307v-2.393a.307.307,0,0,1,.614,0V372.4a.307.307,0,0,1-.307.307" transform="translate(855.188 2728.037)" fill="#edefee"/>
    <path id="Trazado_205539" data-name="Trazado 205539" d="M328.531,388.669a.307.307,0,0,1-.307-.307v-2.394a.307.307,0,0,1,.614,0v2.394a.307.307,0,0,1-.307.307" transform="translate(855.188 2721.877)" fill="#edefee"/>
    <path id="Trazado_205540" data-name="Trazado 205540" d="M336.955,380.243h-2.393a.307.307,0,1,1,0-.614h2.393a.307.307,0,1,1,0,.614" transform="translate(852.86 2724.205)" fill="#edefee"/>
    <path id="Trazado_205541" data-name="Trazado 205541" d="M320.994,380.243H318.6a.307.307,0,0,1,0-.614h2.394a.307.307,0,0,1,0,.614" transform="translate(859.021 2724.205)" fill="#edefee"/>
    <path id="Trazado_205542" data-name="Trazado 205542" d="M323.2,374.914a.306.306,0,0,1-.217-.09l-1.692-1.692a.307.307,0,0,1,.434-.434l1.692,1.692a.307.307,0,0,1-.217.524" transform="translate(857.898 2726.915)" fill="#edefee"/>
    <path id="Trazado_205543" data-name="Trazado 205543" d="M334.487,386.2a.306.306,0,0,1-.217-.09l-1.692-1.692a.307.307,0,1,1,.434-.434l1.692,1.692a.307.307,0,0,1-.217.524" transform="translate(853.543 2722.56)" fill="#edefee"/>
    <path id="Trazado_205544" data-name="Trazado 205544" d="M332.795,374.914a.307.307,0,0,1-.217-.524l1.692-1.692a.307.307,0,0,1,.434.434l-1.692,1.692a.306.306,0,0,1-.217.09" transform="translate(853.543 2726.915)" fill="#edefee"/>
    <path id="Trazado_205545" data-name="Trazado 205545" d="M321.509,386.2a.307.307,0,0,1-.217-.524l1.692-1.692a.307.307,0,1,1,.434.434l-1.692,1.692a.308.308,0,0,1-.217.09" transform="translate(857.898 2722.56)" fill="#edefee"/>
    <path id="Trazado_205546" data-name="Trazado 205546" d="M119.628,403.667a.307.307,0,0,1-.307-.307v-2.393a.307.307,0,1,1,.614,0v2.393a.307.307,0,0,1-.307.307" transform="translate(935.808 2716.089)" fill="#edefee"/>
    <path id="Trazado_205547" data-name="Trazado 205547" d="M119.628,419.628a.307.307,0,0,1-.307-.307v-2.394a.307.307,0,0,1,.614,0v2.394a.307.307,0,0,1-.307.307" transform="translate(935.808 2709.93)" fill="#edefee"/>
    <path id="Trazado_205548" data-name="Trazado 205548" d="M128.054,411.2H125.66a.307.307,0,1,1,0-.614h2.394a.307.307,0,1,1,0,.614" transform="translate(933.479 2712.258)" fill="#edefee"/>
    <path id="Trazado_205549" data-name="Trazado 205549" d="M112.092,411.2H109.7a.307.307,0,1,1,0-.614h2.393a.307.307,0,1,1,0,.614" transform="translate(939.639 2712.258)" fill="#edefee"/>
    <path id="Trazado_205550" data-name="Trazado 205550" d="M114.3,405.873a.308.308,0,0,1-.217-.09l-1.692-1.692a.307.307,0,0,1,.434-.434l1.692,1.692a.307.307,0,0,1-.217.524" transform="translate(938.517 2714.967)" fill="#edefee"/>
    <path id="Trazado_205551" data-name="Trazado 205551" d="M125.585,417.159a.308.308,0,0,1-.217-.09l-1.692-1.692a.307.307,0,1,1,.434-.434l1.692,1.692a.307.307,0,0,1-.217.524" transform="translate(934.162 2710.611)" fill="#edefee"/>
    <path id="Trazado_205552" data-name="Trazado 205552" d="M123.893,405.873a.307.307,0,0,1-.217-.524l1.692-1.692a.307.307,0,0,1,.434.434l-1.692,1.692a.308.308,0,0,1-.217.09" transform="translate(934.162 2714.967)" fill="#edefee"/>
    <path id="Trazado_205553" data-name="Trazado 205553" d="M112.607,417.159a.307.307,0,0,1-.217-.524l1.692-1.692a.307.307,0,1,1,.434.434l-1.692,1.692a.306.306,0,0,1-.217.09" transform="translate(938.517 2710.611)" fill="#edefee"/>
    <g id="Grupo_139342" data-name="Grupo 139342">
      <path id="Trazado_205554" data-name="Trazado 205554" d="M344.64,3.007a.307.307,0,0,1-.307-.307V.307a.307.307,0,1,1,.614,0V2.7a.307.307,0,0,1-.307.307" transform="translate(858.972 2930.711)" fill="#edefee"/>
      <path id="Trazado_205555" data-name="Trazado 205555" d="M344.64,18.968a.307.307,0,0,1-.307-.307V16.268a.307.307,0,1,1,.614,0v2.393a.307.307,0,0,1-.307.307" transform="translate(858.972 2924.551)" fill="#edefee"/>
      <path id="Trazado_205556" data-name="Trazado 205556" d="M353.066,10.543h-2.393a.307.307,0,0,1,0-.614h2.393a.307.307,0,0,1,0,.614" transform="translate(856.643 2926.879)" fill="#edefee"/>
      <path id="Trazado_205557" data-name="Trazado 205557" d="M337.105,10.543h-2.393a.307.307,0,0,1,0-.614h2.393a.307.307,0,0,1,0,.614" transform="translate(862.803 2926.879)" fill="#edefee"/>
      <path id="Trazado_205558" data-name="Trazado 205558" d="M339.311,5.214a.308.308,0,0,1-.217-.09L337.4,3.432A.307.307,0,1,1,337.836,3l1.692,1.692a.307.307,0,0,1-.217.524" transform="translate(861.681 2929.589)" fill="#edefee"/>
      <path id="Trazado_205559" data-name="Trazado 205559" d="M350.6,16.5a.308.308,0,0,1-.217-.09l-1.692-1.692a.307.307,0,0,1,.434-.434l1.692,1.692a.307.307,0,0,1-.217.524" transform="translate(857.325 2925.233)" fill="#edefee"/>
      <path id="Trazado_205560" data-name="Trazado 205560" d="M348.906,5.214a.307.307,0,0,1-.217-.524L350.381,3a.307.307,0,0,1,.434.434l-1.692,1.692a.306.306,0,0,1-.217.09" transform="translate(857.325 2929.589)" fill="#edefee"/>
      <path id="Trazado_205561" data-name="Trazado 205561" d="M337.62,16.5a.307.307,0,0,1-.218-.524l1.692-1.692a.307.307,0,0,1,.434.434l-1.692,1.692a.306.306,0,0,1-.216.09" transform="translate(861.681 2925.233)" fill="#edefee"/>
    </g>
    <path id="Trazado_205562" data-name="Trazado 205562" d="M11.644,231.581a.613.613,0,0,1-.609-.7l1.329-9.232a.614.614,0,0,1,1.216.175l-1.33,9.233a.613.613,0,0,1-.607.526" transform="translate(977.6 2785.377)" fill="#edefee"/>
    <path id="Trazado_205563" data-name="Trazado 205563" d="M82.976,361.93a.614.614,0,0,1-.614-.614V349.4a.614.614,0,0,1,1.228,0v11.916a.614.614,0,0,1-.614.614" transform="translate(950.07 2736.108)" fill="#edefee"/>
    <path id="Trazado_205564" data-name="Trazado 205564" d="M82.976,375.395a.614.614,0,0,1-.614-.614v-2.047a.614.614,0,0,1,1.228,0v2.047a.614.614,0,0,1-.614.614" transform="translate(950.07 2727.104)" fill="#edefee"/>
    <path id="Trazado_205565" data-name="Trazado 205565" d="M75.642,330.481a.614.614,0,0,1-.614-.614v-5.133a.614.614,0,0,1,1.228,0v5.133a.614.614,0,0,1-.614.614" transform="translate(952.901 2745.627)" fill="#edefee"/>
    <path id="Trazado_205566" data-name="Trazado 205566" d="M102.309,350.567a.614.614,0,0,1-.614-.614V331.067a.614.614,0,0,1,1.228,0v18.886a.614.614,0,0,1-.614.614" transform="translate(942.609 2743.184)" fill="#edefee"/>
    <path id="Trazado_205567" data-name="Trazado 205567" d="M169.957,416.14l11.818-13.131V361.762h-2.824a8.589,8.589,0,0,0-7.616,4.619l-8.432,16.18a5.233,5.233,0,0,0-.593,2.419v13.009a6.271,6.271,0,0,1-1.418,3.973l-2.753,3.365Z" transform="translate(920.827 2731.101)" fill="#ffe4a9"/>
    <path id="Trazado_205568" data-name="Trazado 205568" d="M187.174,361.762h-2.846a8.316,8.316,0,0,0-.867.048l-.065.006-.072.007v.006c-.275.033-.548.076-.817.134v39.7l-10.378,11.522,3.23,2.954,11.815-13.129h0Z" transform="translate(915.428 2731.101)" fill="#ebcb86"/>
    <path id="Trazado_205569" data-name="Trazado 205569" d="M147.661,456.311l-8.622,9.543-7.787,8.616H84.208l28.659-31.724,8.622-9.543Z" transform="translate(949.358 2703.53)" fill="#1a0f91"/>
    <path id="Trazado_205570" data-name="Trazado 205570" d="M165.672,456.311l-8.622,9.543-26.172-23.108L139.5,433.2Z" transform="translate(931.347 2703.53)" fill="#0f0957"/>
    <path id="Trazado_205571" data-name="Trazado 205571" d="M171.682,450.4l-8.591,9.727a3.084,3.084,0,0,1-4.36.27l-5.042-4.452-22.058-19.473a3.09,3.09,0,0,1-.27-4.36l8.585-9.727a3.1,3.1,0,0,1,3.875-.626,3.029,3.029,0,0,1,.491.356l27.093,23.925a3.085,3.085,0,0,1,.276,4.36" transform="translate(931.459 2708.106)" fill="#0f0957"/>
    <path id="Trazado_205572" data-name="Trazado 205572" d="M166.15,445.594l-8.591,9.727a3.092,3.092,0,0,1-3.869.626l-22.058-19.473a3.09,3.09,0,0,1-.27-4.36l8.585-9.727a3.1,3.1,0,0,1,3.875-.626l22.058,19.473a3.09,3.09,0,0,1,.27,4.36" transform="translate(931.459 2708.106)" fill="#1a0f91"/>
    <path id="Trazado_205573" data-name="Trazado 205573" d="M138.142,438.586a.614.614,0,0,1-.454-1.027l8.094-8.9a.614.614,0,1,1,.908.827l-8.094,8.9a.612.612,0,0,1-.454.2" transform="translate(928.781 2705.363)" fill="#edefee"/>
    <path id="Trazado_205574" data-name="Trazado 205574" d="M117.142,467.941a.614.614,0,0,1-.453-1.029l9.825-10.726a.614.614,0,0,1,.906.83L117.6,467.742a.613.613,0,0,1-.453.2" transform="translate(936.885 2694.737)" fill="#edefee"/>
    <path id="Trazado_205575" data-name="Trazado 205575" d="M169.138,415.666a.614.614,0,0,1-.614-.614v-9.4a.614.614,0,1,1,1.228,0v9.4a.614.614,0,0,1-.614.614" transform="translate(916.819 2714.399)" fill="#edefee"/>
    <path id="Trazado_205576" data-name="Trazado 205576" d="M234.114,372.185H197.788a7.106,7.106,0,0,1-7.106-7.106V287.527a7.106,7.106,0,0,1,7.106-7.106h36.325a7.106,7.106,0,0,1,7.106,7.106v77.551a7.106,7.106,0,0,1-7.106,7.106" transform="translate(908.268 2762.491)" fill="#1a0f91"/>
    <path id="Trazado_205577" data-name="Trazado 205577" d="M264.7,280.9v91.173a7.106,7.106,0,0,0,5.088-6.811V287.713A7.106,7.106,0,0,0,264.7,280.9" transform="translate(879.705 2762.306)" fill="#0f0957"/>
    <rect id="Rectángulo_45069" data-name="Rectángulo 45069" width="40.651" height="69.581" rx="3.522" transform="translate(1103.893 3054.653)" fill="#6be8e2"/>
    <path id="Trazado_205578" data-name="Trazado 205578" d="M250.263,299.541H232.528v69.581h17.735a2.165,2.165,0,0,0,2.163-2.163V301.7a2.165,2.165,0,0,0-2.163-2.163" transform="translate(892.119 2755.113)" fill="#57dbd8"/>
    <path id="Trazado_205579" data-name="Trazado 205579" d="M232.634,338.839h-21.01a5.561,5.561,0,1,1,0-11.123h21.01a5.561,5.561,0,1,1,0,11.123" transform="translate(902.332 2744.239)" fill="#ffcdc8"/>
    <path id="Trazado_205580" data-name="Trazado 205580" d="M242.848,327.716H232.529v11.123h10.319a5.561,5.561,0,1,0,0-11.123" transform="translate(892.118 2744.239)" fill="#f5b41d"/>
    <path id="Trazado_205581" data-name="Trazado 205581" d="M232.634,366.26h-21.01a5.561,5.561,0,1,1,0-11.123h21.01a5.561,5.561,0,1,1,0,11.123" transform="translate(902.332 2733.657)" fill="#fe7062"/>
    <path id="Trazado_205582" data-name="Trazado 205582" d="M242.752,355.137H232.279V366.26h10.473a5.561,5.561,0,1,0,0-11.123" transform="translate(892.215 2733.657)" fill="#e33332"/>
    <path id="Trazado_205583" data-name="Trazado 205583" d="M232.36,422.018h-6.868a1.818,1.818,0,1,1,0-3.636h6.868a1.818,1.818,0,1,1,0,3.636" transform="translate(895.536 2709.25)" fill="#6be8e2"/>
    <path id="Trazado_205584" data-name="Trazado 205584" d="M232.36,290.715h-6.868a1.818,1.818,0,1,1,0-3.636h6.868a1.818,1.818,0,1,1,0,3.636" transform="translate(895.536 2759.922)" fill="#6be8e2"/>
    <text id="BUY" transform="translate(1118.048 3090.773)" fill="#1a0f91" font-size="6" font-family="SegoeUI, Segoe UI"><tspan x="0" y="0">BUY</tspan></text>
    <text id="SELL" transform="translate(1117.307 3107.613)" fill="#1a0f91" font-size="6" font-family="SegoeUI, Segoe UI"><tspan x="0" y="0">SELL</tspan></text>
    <path id="Trazado_205585" data-name="Trazado 205585" d="M194.309,300.336a.6.6,0,0,1-.614-.594V292.38a.614.614,0,0,1,1.228,0v7.363a.6.6,0,0,1-.614.594" transform="translate(907.105 2762.396)" fill="#edefee"/>
    <path id="Trazado_205586" data-name="Trazado 205586" d="M194.642,311.492a.6.6,0,0,1-.614-.594v-2.185a.614.614,0,0,1,1.228,0V310.9a.6.6,0,0,1-.614.594" transform="translate(906.977 2755.756)" fill="#edefee"/>
    <path id="Trazado_205587" data-name="Trazado 205587" d="M201.976,346.546a.6.6,0,0,1-.614-.594V324.38a.614.614,0,0,1,1.228,0v21.573a.6.6,0,0,1-.614.594" transform="translate(904.146 2749.388)" fill="#edefee"/>
    <path id="Trazado_205588" data-name="Trazado 205588" d="M201.976,371.1a.6.6,0,0,1-.614-.593v-4.752a.614.614,0,0,1,1.228,0v4.752a.6.6,0,0,1-.614.593" transform="translate(904.146 2732.568)" fill="#edefee"/>
    <path id="Trazado_205589" data-name="Trazado 205589" d="M188.9,390.8v-8.587a3.682,3.682,0,0,0-3.54-3.676,3.6,3.6,0,0,0-3.764,3.528v1.676A7.185,7.185,0,0,0,188.9,390.8Z" transform="translate(911.776 2727.133)" fill="#ebcb86"/>
    <path id="Trazado_205590" data-name="Trazado 205590" d="M184.735,397.711h0v-16a3.654,3.654,0,0,1,7.3,0v8.943a7.185,7.185,0,0,1-7.3,7.059" transform="translate(910.563 2727.278)" fill="#ffe4a9"/>
    <path id="Trazado_205591" data-name="Trazado 205591" d="M328.872,478.945h-37.22l-2.935-7.674-3.881-10.137-.528-1.383,32.577-12.138,4.415,11.538Z" transform="translate(872.136 2699.055)" fill="#0f0957"/>
    <path id="Trazado_205592" data-name="Trazado 205592" d="M324.273,480.994H291.985l-2.935-7.674-3.881-10.137,28.266-10.529,4.415,11.538Z" transform="translate(871.804 2697.006)" fill="#1a0f91"/>
    <path id="Trazado_205593" data-name="Trazado 205593" d="M300.7,410.561,268.121,422.7a8.657,8.657,0,0,0-3.672-4.244l-.018-.012a8.631,8.631,0,0,1-3.672-4.244l-1.105-3.241-9.359-4.012a3.48,3.48,0,0,1-1.695-4.968,3.825,3.825,0,0,1,4.8-1.424l7.332,3.14-11.655-28.732a3.435,3.435,0,0,1,.4-3.27,3.615,3.615,0,0,1,1.8-1.329,3.788,3.788,0,0,1,4.673,2.2l5.975,14.98a.946.946,0,0,0,.89.588.966.966,0,0,0,.338-.059.911.911,0,0,0,.54-1.187l-2.426-6.084a3.5,3.5,0,0,1,2.2-4.6,3.786,3.786,0,0,1,4.673,2.2l2.37,5.947a.946.946,0,0,0,.89.588.965.965,0,0,0,.338-.059.914.914,0,0,0,.547-1.187l-1.234-3.1a3.494,3.494,0,0,1,2.2-4.6,3.784,3.784,0,0,1,4.667,2.2l1.185,2.956a.947.947,0,0,0,.884.588.975.975,0,0,0,.338-.065.9.9,0,0,0,.547-1.181l-.491-1.24a3.494,3.494,0,0,1,2.2-4.6,3.787,3.787,0,0,1,4.667,2.2Z" transform="translate(886.101 2730.533)" fill="#ffe4a9"/>
    <path id="Trazado_205594" data-name="Trazado 205594" d="M249.876,423.086a3.5,3.5,0,0,0,1.707,5l-1.29-.552a3.48,3.48,0,0,1-1.695-4.968,3.825,3.825,0,0,1,4.8-1.424l.823.35a3.8,3.8,0,0,0-4.348,1.6" transform="translate(886.101 2709.948)" fill="#ebcb86"/>
    <path id="Trazado_205595" data-name="Trazado 205595" d="M256.4,372.558l.473,1.175a3.788,3.788,0,0,0-4.667-2.178,3.5,3.5,0,0,0-2.229,4.511l-.448-1.1a3.5,3.5,0,0,1,2.2-4.6,3.788,3.788,0,0,1,4.673,2.2" transform="translate(885.654 2730.533)" fill="#ebcb86"/>
    <path id="Trazado_205596" data-name="Trazado 205596" d="M276.246,382.388l.467,1.169a3.787,3.787,0,0,0-4.655-2.172,3.5,3.5,0,0,0-2.2,4.606l2.426,6.078a.91.91,0,0,1-.547,1.187.981.981,0,0,1-.344.065.953.953,0,0,1-.884-.588l-.473-1.193a.942.942,0,0,0,.884.582.966.966,0,0,0,.338-.059.911.911,0,0,0,.54-1.187l-2.426-6.084a3.5,3.5,0,0,1,2.2-4.6,3.785,3.785,0,0,1,4.673,2.2" transform="translate(877.994 2726.537)" fill="#ebcb86"/>
    <path id="Trazado_205597" data-name="Trazado 205597" d="M286.847,394.126a.907.907,0,0,1-.547,1.187.975.975,0,0,1-.338.065.947.947,0,0,1-.884-.588l-.461-1.145a.942.942,0,0,0,.866.534.967.967,0,0,0,.338-.059.914.914,0,0,0,.546-1.187Z" transform="translate(872.017 2721.281)" fill="#ebcb86"/>
    <path id="Trazado_205598" data-name="Trazado 205598" d="M292.168,382.035l.418,1.045a3.779,3.779,0,0,0-4.606-2.048,3.5,3.5,0,0,0-2.2,4.6l-.479-1.2a3.494,3.494,0,0,1,2.2-4.6,3.784,3.784,0,0,1,4.667,2.2" transform="translate(871.848 2726.684)" fill="#ebcb86"/>
    <path id="Trazado_205599" data-name="Trazado 205599" d="M300.827,388.736a.909.909,0,0,1-.54,1.187.975.975,0,0,1-.344.059.944.944,0,0,1-.884-.588l-.461-1.151a.947.947,0,0,0,.866.546.974.974,0,0,0,.338-.065.9.9,0,0,0,.547-1.181Z" transform="translate(866.621 2723.473)" fill="#ebcb86"/>
    <path id="Trazado_205600" data-name="Trazado 205600" d="M307.782,380.825a3.786,3.786,0,0,0-4.612-2.054,3.5,3.5,0,0,0-2.2,4.6l-.479-1.2a3.494,3.494,0,0,1,2.2-4.6,3.787,3.787,0,0,1,4.667,2.2Z" transform="translate(865.985 2727.603)" fill="#ebcb86"/>
    <path id="Trazado_205601" data-name="Trazado 205601" d="M281.5,386.043l1.916,4.8c-.006-.018-.018-.036-.025-.053Z" transform="translate(873.221 2724.082)" fill="#ebcb86"/>
    <path id="Trazado_205602" data-name="Trazado 205602" d="M298.086,387.344l-.768-1.911a1.106,1.106,0,0,1,.068.148Z" transform="translate(867.115 2724.33)" fill="#ebcb86"/>
    <path id="Trazado_205603" data-name="Trazado 205603" d="M277.408,445.2a8.55,8.55,0,0,1,2.014,2.984L312,436.042l-1.269-3.179Z" transform="translate(874.799 2705.051)" fill="#ebcb86"/>
    <path id="Trazado_205604" data-name="Trazado 205604" d="M321.3,459.151l-32.282,12.025a2.933,2.933,0,0,1-.3.095l-4.409-11.52,32.577-12.138Z" transform="translate(872.136 2699.055)" fill="#0f0957"/>
    <path id="Trazado_205605" data-name="Trazado 205605" d="M261.18,404.736,249.525,376a3.435,3.435,0,0,1,.4-3.27l12.712,30.062a1.419,1.419,0,0,1-1.455,1.941" transform="translate(885.653 2729.492)" fill="#ebcb86"/>
    <path id="Trazado_205606" data-name="Trazado 205606" d="M317.977,452.023l-33.725,12.565a2.7,2.7,0,0,1-.356.107,3.114,3.114,0,0,1-3.642-1.816l-4.667-11.7a2.952,2.952,0,0,1,1.775-3.858l26.062-9.716,7.664-2.855a3.126,3.126,0,0,1,4,1.715l4.667,11.7a2.956,2.956,0,0,1-1.775,3.864" transform="translate(875.582 2704.367)" fill="#0f0957"/>
    <path id="Trazado_205607" data-name="Trazado 205607" d="M309.945,457.023l-26.049,9.7a3.114,3.114,0,0,1-3.642-1.816l-4.667-11.7a2.952,2.952,0,0,1,1.775-3.858l26.062-9.716a3.118,3.118,0,0,1,3.629,1.828l4.667,11.7a2.956,2.956,0,0,1-1.775,3.864" transform="translate(875.582 2702.334)" fill="#1a0f91"/>
    <path id="Trazado_205608" data-name="Trazado 205608" d="M274.842,443.152a.627.627,0,0,1-.253-.053,7.54,7.54,0,0,1-4.453-6.258.6.6,0,0,1,.576-.628.611.611,0,0,1,.65.557,6.322,6.322,0,0,0,3.735,5.247.586.586,0,0,1,.306.786.616.616,0,0,1-.56.348" transform="translate(877.605 2703.689)" fill="#edefee"/>
    <path id="Trazado_205609" data-name="Trazado 205609" d="M285.575,470.7a.614.614,0,0,1-.575-.385l-.95-2.451a.587.587,0,0,1,.36-.764.621.621,0,0,1,.79.348l.949,2.451a.588.588,0,0,1-.359.764.639.639,0,0,1-.216.037" transform="translate(872.251 2691.148)" fill="#edefee"/>
    <path id="Trazado_205610" data-name="Trazado 205610" d="M316.818,407.476a.614.614,0,0,1-.575-.385l-7.676-19.747a.588.588,0,0,1,.359-.764.622.622,0,0,1,.791.347l7.676,19.746a.588.588,0,0,1-.359.764.642.642,0,0,1-.216.038" transform="translate(862.789 2723.879)" fill="#edefee"/>
  </g>
</svg>
