<svg xmlns="http://www.w3.org/2000/svg" width="71.333" height="84.784" viewBox="0 0 71.333 84.784">
  <g id="Grupo_1021706" data-name="Grupo 1021706" transform="translate(-390 -6433)">
    <g id="book-of-black-cover-closed" transform="translate(390 6433)">
      <path id="Trazado_751392" data-name="Trazado 751392" d="M47.232,67.683h57.753a2.2,2.2,0,0,0,.513-.064l.037,0a2.235,2.235,0,0,0,2.234-2.234V2.234A2.235,2.235,0,0,0,105.534,0h-58.3A10.8,10.8,0,0,0,36.45,10.784a2.277,2.277,0,0,0,.023.232c-.008,5.492-.076,55.96-.008,62.595,0,.13-.02.256-.02.387A10.792,10.792,0,0,0,46.553,84.75a2.217,2.217,0,0,0,.341.034h58.64a2.235,2.235,0,0,0,2.234-2.234V74.139a2.234,2.234,0,0,0-4.469,0v6.176H47.232a6.319,6.319,0,0,1-6.3-6.058c0-.06.014-.117.013-.178,0-.1-.006-.251-.008-.454A6.32,6.32,0,0,1,47.232,67.683Z" transform="translate(-36.436)" fill="#fe7062"/>
    </g>
    <path id="google" d="M0,25.3A25.333,25.333,0,0,1,25.3,0,25.071,25.071,0,0,1,40.729,5.243l-5.88,7.639A15.513,15.513,0,0,0,25.3,9.64,15.665,15.665,0,1,0,40.211,30.124H25.3v-9.64h25.3V25.3A25.3,25.3,0,0,1,0,25.3Z" transform="translate(401.781 6442.229)" fill="#fff"/>
  </g>
</svg>
