<svg xmlns="http://www.w3.org/2000/svg" xmlns:xlink="http://www.w3.org/1999/xlink" width="440" height="295" viewBox="0 0 440 295">
  <defs>
    <clipPath id="clip-path">
      <rect id="Rectángulo_45118" data-name="Rectángulo 45118" width="287.465" height="281.933" fill="none"/>
    </clipPath>
    <clipPath id="clip-path-3">
      <rect id="Rectángulo_45070" data-name="Rectángulo 45070" width="271.169" height="266.994" fill="none"/>
    </clipPath>
    <clipPath id="clip-path-6">
      <rect id="Rectángulo_45073" data-name="Rectángulo 45073" width="82.598" height="95.112" fill="none"/>
    </clipPath>
  </defs>
  <g id="Grupo_1019401" data-name="Grupo 1019401" transform="translate(-895 -3253)">
    <rect id="Rectángulo_44941" data-name="Rectángulo 44941" width="440" height="295" transform="translate(895 3253)" fill="#fff"/>
    <g id="Grupo_139366" data-name="Grupo 139366" transform="translate(970.902 3260)">
      <g id="Grupo_139365" data-name="Grupo 139365" clip-path="url(#clip-path)">
        <g id="Grupo_139348" data-name="Grupo 139348">
          <g id="Grupo_139347" data-name="Grupo 139347" clip-path="url(#clip-path)">
            <path id="Trazado_205611" data-name="Trazado 205611" d="M270.7,154.644c-3,25.387-14.589,54.9-37.74,68.463-34.978,20.492-32.051,52.009-100.325,65.712a140.4,140.4,0,0,1-30.272,2.859,116.935,116.935,0,0,1-14.858-1.211c-43.392-6.339-72.593-36.5-83.307-72.91-14.1-47.884,14.053-79.233,32.712-98.121S69.237,41.7,136.25,27.7a136.038,136.038,0,0,1,31.112-2.956c23.843.585,49.849,8.414,67.844,24.755q2.027,1.841,3.946,3.813c25.011,25.672,35.639,66.722,31.55,101.332" transform="translate(-0.152 -9.767)" fill="#57dbd8"/>
            <g id="Grupo_139346" data-name="Grupo 139346" transform="translate(0.233 14.939)" opacity="0.7">
              <g id="Grupo_139345" data-name="Grupo 139345">
                <g id="Grupo_139344" data-name="Grupo 139344" clip-path="url(#clip-path-3)">
                  <path id="Trazado_205612" data-name="Trazado 205612" d="M270.7,154.644c-3,25.387-14.589,54.9-37.74,68.463-34.978,20.492-32.051,52.009-100.325,65.712a140.4,140.4,0,0,1-30.272,2.859,116.935,116.935,0,0,1-14.858-1.211c-43.392-6.339-72.593-36.5-83.307-72.91-14.1-47.884,14.053-79.233,32.712-98.121S69.237,41.7,136.25,27.7a136.038,136.038,0,0,1,31.112-2.956c23.843.585,49.849,8.414,67.844,24.755q2.027,1.841,3.946,3.813c25.011,25.672,35.639,66.722,31.55,101.332" transform="translate(-0.385 -24.706)" fill="#fff"/>
                </g>
              </g>
            </g>
          </g>
        </g>
        <path id="Trazado_205613" data-name="Trazado 205613" d="M.5,422.659h0Z" transform="translate(-0.198 -167.084)" fill="#fe7062"/>
        <g id="Grupo_139350" data-name="Grupo 139350">
          <g id="Grupo_139349" data-name="Grupo 139349" clip-path="url(#clip-path)">
            <line id="Línea_260" data-name="Línea 260" x1="286.861" transform="translate(0.302 255.575)" fill="none" stroke="#263238" stroke-linecap="round" stroke-linejoin="round" stroke-width="1"/>
          </g>
        </g>
        <g id="Grupo_139358" data-name="Grupo 139358">
          <g id="Grupo_139357" data-name="Grupo 139357" clip-path="url(#clip-path)">
            <g id="Grupo_139353" data-name="Grupo 139353" transform="translate(3.95 160.463)" opacity="0.3">
              <g id="Grupo_139352" data-name="Grupo 139352">
                <g id="Grupo_139351" data-name="Grupo 139351" clip-path="url(#clip-path-6)">
                  <path id="Trazado_205614" data-name="Trazado 205614" d="M11.437,302.175c2.323,1.014,8,.886,8.006.886.059,0-1.221-3.718-1.328-3.943-1.246-2.607-5.187-6.912-8.394-6.478a3.83,3.83,0,0,0-3.073,4.8c.533,2.222,2.812,3.872,4.789,4.736" transform="translate(-6.532 -276.137)"/>
                  <path id="Trazado_205615" data-name="Trazado 205615" d="M13.71,307.857c2.408.351,7.478-1.119,7.88-1.238a67.77,67.77,0,0,0,3.075,8.507c.7,1.614,1.449,3.218,2.224,4.817-.463-.677-.881-1.28-.948-1.358-1.891-2.185-6.829-5.3-9.806-4.031a3.829,3.829,0,0,0-1.7,5.44c1.1,2,3.735,2.992,5.87,3.3,2.167.316,6.514-.85,7.66-1.174.3.61.6,1.223.906,1.832,1.468,2.923,2.945,5.833,4.307,8.732.48,1.021.915,2.045,1.355,3.068-.411-.6-.763-1.1-.824-1.176-1.89-2.185-6.828-5.3-9.806-4.031a3.829,3.829,0,0,0-1.7,5.44c1.1,2,3.735,2.992,5.87,3.3,2.068.3,6.09-.739,7.453-1.117.418,1.061.84,2.122,1.2,3.169.228.72.5,1.4.686,2.133s.4,1.443.6,2.153c.331,1.382.682,2.807.972,4.164.209.942.39,1.844.576,2.751-.466-1.022-1.422-3-1.52-3.161-1.537-2.447-5.946-6.269-9.082-5.47a3.829,3.829,0,0,0-2.5,5.12c.784,2.145,3.237,3.523,5.3,4.154,2.272.695,7.3.06,7.932-.024.3,1.5.58,2.968.821,4.355q.272,1.539.5,2.96h2.015q-.286-1.582-.628-3.312c-.3-1.527-.651-3.153-1.027-4.821a41.625,41.625,0,0,0,4.425-2.081c1.656,1.793,5.9,3.893,6.449,4.16-.577,1.42-1.153,2.8-1.717,4.085-.3.684-.586,1.328-.873,1.969h2.131c.169-.405.336-.8.509-1.223.593-1.439,1.2-2.99,1.8-4.587.609.127,5.589,1.139,7.91.615,2.1-.476,4.655-1.667,5.6-3.748a3.829,3.829,0,0,0-2.114-5.292c-3.067-1.03-7.749,2.453-9.465,4.778-.1.137-1.033,1.748-1.6,2.774.244-.654.487-1.287.73-1.963.49-1.334.939-2.68,1.428-4.126q.317-1.06.641-2.142c.229-.71.38-1.49.576-2.241.417-1.752.754-3.547,1.054-5.362,1.169.425,5.344,1.878,7.507,1.725s4.853-.941,6.1-2.856a3.83,3.83,0,0,0-1.287-5.552c-2.876-1.483-8.031,1.252-10.079,3.29-.128.126-1.433,1.754-2.132,2.662.171-1.093.348-2.183.486-3.294.4-3.208.7-6.468,1.019-9.719.1-1,.2-1.987.309-2.98.415.157,5.339,1.99,7.762,1.819,2.153-.151,4.853-.942,6.1-2.857a3.828,3.828,0,0,0-1.287-5.551c-2.876-1.483-8.031,1.251-10.079,3.289-.154.154-2.029,2.5-2.477,3.118.231-2.186.481-4.362.816-6.5a67.42,67.42,0,0,1,1.865-8.545c.192.074,5.324,2.01,7.8,1.836,2.153-.151,4.854-.942,6.1-2.857a3.828,3.828,0,0,0-1.287-5.551c-2.876-1.483-8.031,1.251-10.079,3.289-.16.16-2.176,2.684-2.509,3.168.048-.163.08-.336.129-.5a49.318,49.318,0,0,1,3.385-8.086c.736-1.44,1.52-2.776,2.312-4.057.919.459,5.141,2.509,7.39,2.6,2.157.086,4.928-.4,6.376-2.17a3.828,3.828,0,0,0-.669-5.659c-2.7-1.79-8.12.361-10.38,2.162-.122.1-1.261,1.232-2.079,2.069.366-.573.733-1.171,1.1-1.713,1.354-2.039,2.719-3.822,3.941-5.392.7-.886,1.354-1.675,1.972-2.405,1.136-.02,5.714-.159,7.716-1.1,1.953-.918,4.187-2.629,4.66-4.863a3.829,3.829,0,0,0-3.2-4.714c-3.217-.347-7.04,4.062-8.216,6.7-.1.229-1.28,3.978-1.221,3.978h.069c-.61.691-1.254,1.44-1.942,2.272-1.259,1.546-2.666,3.3-4.069,5.321a68.017,68.017,0,0,0-4.219,6.722,49.947,49.947,0,0,0-3.6,8.114c-.011.033-.018.07-.029.1.017-.948-.025-3.6-.052-3.8-.371-2.866-2.772-8.184-5.956-8.773a3.83,3.83,0,0,0-4.416,3.6c-.186,2.277,1.464,4.555,3.074,5.993,1.815,1.621,6.853,3.192,7.255,3.315a67.775,67.775,0,0,0-2.129,8.79c-.308,1.732-.566,3.485-.8,5.246-.012-.82-.028-1.553-.042-1.655-.371-2.866-2.773-8.184-5.955-8.772a3.828,3.828,0,0,0-4.416,3.6c-.187,2.277,1.464,4.556,3.073,5.993,1.633,1.459,5.9,2.884,7.037,3.246-.083.677-.174,1.351-.255,2.029-.388,3.247-.761,6.489-1.225,9.658-.162,1.117-.364,2.211-.561,3.306-.011-.728-.028-1.341-.039-1.434-.372-2.866-2.773-8.184-5.954-8.773a3.83,3.83,0,0,0-4.418,3.6c-.186,2.276,1.465,4.555,3.074,5.992,1.558,1.393,5.487,2.743,6.834,3.179-.236,1.116-.471,2.233-.75,3.3-.207.726-.356,1.44-.6,2.158q-.346,1.074-.686,2.127c-.487,1.336-.98,2.717-1.486,4.009-.346.9-.692,1.753-1.038,2.612.175-1.11.472-3.289.476-3.474a14.869,14.869,0,0,0-1.994-7.233,4.46,4.46,0,0,0-.053-.847,3.829,3.829,0,0,0-4.683-3.248c-3.126.832-5.11,6.321-5.257,9.206-.009.17.1,2.027.192,3.2-.158-.68-.3-1.342-.473-2.04-.328-1.383-.7-2.753-1.086-4.23l-.648-2.139c-.2-.718-.5-1.452-.755-2.187-.619-1.691-1.328-3.375-2.08-5.055,1.211-.29,5.494-1.382,7.213-2.7s3.528-3.464,3.513-5.747a3.829,3.829,0,0,0-4.136-3.921c-3.217.349-6.009,5.474-6.593,8.3-.036.177-.227,2.254-.31,3.4-.46-1.006-.914-2.013-1.412-3.016-1.437-2.9-2.983-5.782-4.512-8.668-.469-.884-.925-1.77-1.386-2.655.432-.1,5.551-1.287,7.478-2.765,1.712-1.313,3.528-3.463,3.512-5.748a3.829,3.829,0,0,0-4.135-3.92c-3.218.349-6.009,5.474-6.593,8.3-.044.213-.314,3.2-.345,3.967-1.013-1.95-2-3.9-2.9-5.868a67.472,67.472,0,0,1-3.158-8.156c.2-.046,5.549-1.261,7.523-2.776,1.712-1.313,3.528-3.463,3.511-5.747a3.829,3.829,0,0,0-4.136-3.921c-3.216.35-6.008,5.474-6.592,8.3-.046.223-.335,3.439-.345,4.025-.05-.161-.12-.324-.167-.485a49.413,49.413,0,0,1-1.637-8.612c-.181-1.607-.263-3.153-.31-4.659,1.019-.124,5.671-.744,7.6-1.91,1.847-1.118,3.888-3.055,4.122-5.327a3.829,3.829,0,0,0-3.679-4.351c-3.236-.006-6.574,4.781-7.465,7.53-.048.15-.373,1.723-.593,2.873-.011-.68-.035-1.382-.032-2.034,0-2.447.159-4.688.313-6.67.1-1.128.206-2.145.318-3.095.936-.644,4.678-3.286,5.83-5.174,1.124-1.843,2.042-4.5,1.2-6.627a3.83,3.83,0,0,0-5.271-2.167c-2.875,1.486-3.631,7.273-3.156,10.123.042.246,1.128,4.024,1.177,3.992l.056-.039c-.126.912-.251,1.893-.366,2.965-.2,1.984-.4,4.227-.458,6.684a67.957,67.957,0,0,0,.189,7.935,49.967,49.967,0,0,0,1.47,8.755c.009.034.024.068.033.1-.509-.8-2.008-2.988-2.142-3.143-1.89-2.185-6.827-5.3-9.806-4.031a3.83,3.83,0,0,0-1.7,5.44c1.1,2,3.735,2.991,5.87,3.3" transform="translate(-6.845 -265.367)"/>
                  <path id="Trazado_205616" data-name="Trazado 205616" d="M104.518,301.069c.05.031,1.033-3.775,1.068-4.022.4-2.862-.515-8.626-3.428-10.034a3.829,3.829,0,0,0-5.21,2.307c-.782,2.146.209,4.78,1.382,6.592,1.377,2.127,6.185,5.153,6.188,5.156" transform="translate(-42.165 -273.781)"/>
                </g>
              </g>
            </g>
            <g id="Grupo_139356" data-name="Grupo 139356" transform="translate(117.79)" opacity="0.3">
              <g id="Grupo_139355" data-name="Grupo 139355">
                <g id="Grupo_139354" data-name="Grupo 139354" clip-path="url(#clip-path-6)">
                  <path id="Trazado_205617" data-name="Trazado 205617" d="M199.7,36.808c2.323,1.014,8,.886,8.006.886.059,0-1.221-3.718-1.329-3.944-1.246-2.607-5.187-6.912-8.394-6.478a3.83,3.83,0,0,0-3.073,4.8c.533,2.222,2.812,3.872,4.789,4.736" transform="translate(-194.797 -10.77)"/>
                  <path id="Trazado_205618" data-name="Trazado 205618" d="M201.975,42.49c2.408.351,7.478-1.119,7.88-1.238a67.858,67.858,0,0,0,3.074,8.507c.7,1.615,1.45,3.218,2.225,4.818-.463-.677-.881-1.28-.948-1.358-1.891-2.185-6.829-5.3-9.806-4.031a3.829,3.829,0,0,0-1.7,5.44c1.1,2,3.735,2.992,5.87,3.3,2.167.316,6.514-.85,7.66-1.174.3.61.6,1.223.906,1.832,1.468,2.923,2.945,5.833,4.307,8.732.48,1.021.916,2.045,1.355,3.068-.411-.6-.762-1.1-.824-1.176-1.89-2.185-6.828-5.3-9.806-4.031a3.829,3.829,0,0,0-1.7,5.44c1.1,2,3.735,2.992,5.87,3.3,2.068.3,6.09-.739,7.453-1.117.418,1.061.84,2.122,1.2,3.169.228.72.5,1.4.686,2.133s.4,1.443.6,2.153c.331,1.382.682,2.807.972,4.164.209.942.39,1.844.576,2.751-.466-1.022-1.422-3-1.52-3.161-1.537-2.447-5.946-6.269-9.082-5.47a3.829,3.829,0,0,0-2.5,5.12c.784,2.145,3.237,3.523,5.3,4.154,2.272.695,7.3.06,7.932-.024.3,1.5.58,2.968.821,4.355q.272,1.539.5,2.96h2.015q-.286-1.582-.628-3.312c-.3-1.528-.651-3.154-1.027-4.821a41.7,41.7,0,0,0,4.425-2.08c1.656,1.793,5.9,3.892,6.449,4.159-.577,1.42-1.153,2.8-1.717,4.086-.3.683-.586,1.328-.873,1.968h2.131c.169-.405.336-.8.509-1.223.593-1.439,1.2-2.99,1.8-4.587.608.127,5.589,1.139,7.909.615,2.1-.476,4.655-1.667,5.6-3.748a3.829,3.829,0,0,0-2.114-5.292c-3.067-1.03-7.749,2.453-9.464,4.779-.1.137-1.033,1.748-1.6,2.774.244-.654.487-1.287.73-1.963.49-1.334.939-2.68,1.428-4.126q.317-1.06.641-2.142c.229-.711.38-1.49.576-2.241.417-1.752.754-3.547,1.054-5.362,1.169.425,5.344,1.878,7.507,1.725s4.853-.941,6.1-2.856a3.83,3.83,0,0,0-1.287-5.552c-2.876-1.483-8.031,1.252-10.079,3.29-.128.126-1.433,1.754-2.133,2.662.172-1.093.348-2.183.486-3.294.4-3.208.7-6.468,1.019-9.719.1-1,.2-1.987.309-2.98.415.157,5.339,1.99,7.762,1.819,2.153-.151,4.853-.942,6.1-2.857a3.828,3.828,0,0,0-1.287-5.551c-2.876-1.483-8.031,1.251-10.079,3.289-.154.154-2.029,2.5-2.477,3.118.231-2.186.481-4.362.816-6.5a67.421,67.421,0,0,1,1.865-8.545c.193.074,5.324,2.01,7.8,1.836,2.153-.151,4.854-.942,6.1-2.857a3.828,3.828,0,0,0-1.287-5.551c-2.876-1.483-8.031,1.251-10.079,3.289-.16.16-2.176,2.684-2.509,3.167.048-.162.08-.336.129-.5a49.3,49.3,0,0,1,3.385-8.086c.736-1.44,1.52-2.775,2.312-4.057.919.459,5.141,2.509,7.39,2.6,2.157.086,4.928-.4,6.376-2.17a3.828,3.828,0,0,0-.669-5.659c-2.7-1.79-8.12.361-10.38,2.162-.122.1-1.261,1.232-2.079,2.069.366-.573.733-1.172,1.1-1.713,1.354-2.039,2.719-3.822,3.941-5.392.7-.886,1.354-1.675,1.973-2.405,1.136-.02,5.714-.159,7.716-1.1,1.953-.918,4.187-2.629,4.66-4.863a3.829,3.829,0,0,0-3.2-4.714c-3.217-.347-7.04,4.062-8.216,6.7-.1.229-1.28,3.978-1.221,3.978h.069c-.61.691-1.254,1.44-1.942,2.272-1.259,1.546-2.666,3.3-4.069,5.321a67.932,67.932,0,0,0-4.219,6.722,49.949,49.949,0,0,0-3.6,8.114c-.011.033-.018.07-.029.1.017-.948-.025-3.6-.052-3.8-.371-2.866-2.772-8.184-5.956-8.773a3.83,3.83,0,0,0-4.416,3.6c-.186,2.277,1.464,4.555,3.074,5.993,1.815,1.621,6.854,3.191,7.255,3.315a67.777,67.777,0,0,0-2.129,8.79c-.308,1.732-.566,3.485-.8,5.246-.012-.821-.028-1.553-.042-1.656-.371-2.866-2.773-8.184-5.955-8.772a3.828,3.828,0,0,0-4.416,3.6c-.187,2.277,1.464,4.556,3.073,5.993,1.633,1.459,5.9,2.884,7.037,3.246-.083.677-.174,1.351-.255,2.029-.388,3.247-.761,6.489-1.225,9.658-.162,1.117-.364,2.211-.561,3.306-.011-.728-.028-1.341-.039-1.434-.372-2.866-2.773-8.184-5.955-8.773a3.83,3.83,0,0,0-4.417,3.6c-.186,2.276,1.465,4.555,3.074,5.992,1.558,1.393,5.487,2.743,6.834,3.179-.236,1.116-.471,2.233-.75,3.3-.207.726-.356,1.44-.6,2.158q-.346,1.074-.686,2.127c-.487,1.336-.98,2.717-1.486,4.009-.346.9-.692,1.753-1.038,2.612.175-1.11.472-3.289.476-3.475a14.876,14.876,0,0,0-1.994-7.233,4.509,4.509,0,0,0-.053-.847,3.829,3.829,0,0,0-4.682-3.248c-3.127.832-5.11,6.321-5.258,9.206-.009.17.1,2.027.192,3.2-.158-.68-.3-1.342-.473-2.041-.328-1.383-.7-2.753-1.086-4.23l-.648-2.139c-.2-.718-.5-1.452-.756-2.187-.618-1.691-1.327-3.375-2.079-5.054,1.211-.29,5.494-1.382,7.213-2.7s3.528-3.464,3.512-5.747a3.829,3.829,0,0,0-4.135-3.921c-3.217.349-6.009,5.474-6.593,8.3-.036.177-.227,2.254-.31,3.4-.46-1.006-.914-2.013-1.412-3.016-1.437-2.9-2.983-5.782-4.512-8.668-.469-.884-.925-1.77-1.386-2.655.432-.1,5.551-1.287,7.478-2.765,1.712-1.313,3.528-3.463,3.512-5.748a3.829,3.829,0,0,0-4.135-3.92c-3.218.35-6.009,5.474-6.593,8.3-.044.213-.314,3.2-.345,3.967-1.013-1.95-2-3.9-2.9-5.868a67.469,67.469,0,0,1-3.158-8.156c.2-.046,5.549-1.261,7.523-2.775,1.712-1.313,3.528-3.463,3.511-5.747a3.829,3.829,0,0,0-4.136-3.921c-3.216.35-6.008,5.474-6.592,8.3-.046.223-.335,3.439-.345,4.025-.05-.161-.12-.324-.167-.485a49.4,49.4,0,0,1-1.637-8.613c-.181-1.607-.263-3.153-.31-4.659,1.02-.124,5.671-.744,7.6-1.91,1.847-1.118,3.888-3.055,4.122-5.327a3.829,3.829,0,0,0-3.679-4.351c-3.236-.006-6.574,4.781-7.465,7.53-.048.15-.373,1.723-.593,2.873-.011-.68-.035-1.382-.032-2.034,0-2.447.159-4.688.313-6.67.1-1.128.206-2.145.318-3.095.936-.644,4.678-3.286,5.83-5.174,1.124-1.843,2.042-4.5,1.2-6.627A3.83,3.83,0,0,0,210.806.406c-2.875,1.486-3.631,7.273-3.156,10.123.042.246,1.128,4.024,1.177,3.992l.056-.039c-.126.912-.251,1.893-.366,2.965-.2,1.984-.4,4.227-.458,6.684a67.954,67.954,0,0,0,.189,7.935,49.967,49.967,0,0,0,1.47,8.755c.009.034.024.068.033.1-.509-.8-2.008-2.988-2.142-3.143-1.89-2.185-6.827-5.3-9.806-4.031a3.83,3.83,0,0,0-1.7,5.44c1.1,2,3.735,2.991,5.87,3.3" transform="translate(-195.11 0)"/>
                  <path id="Trazado_205619" data-name="Trazado 205619" d="M292.783,35.7c.05.031,1.033-3.775,1.068-4.022.4-2.862-.515-8.626-3.428-10.034a3.829,3.829,0,0,0-5.21,2.307c-.781,2.146.209,4.78,1.382,6.592,1.377,2.127,6.185,5.153,6.188,5.156" transform="translate(-230.43 -8.414)"/>
                </g>
              </g>
            </g>
          </g>
        </g>
        <g id="Grupo_139360" data-name="Grupo 139360">
          <g id="Grupo_139359" data-name="Grupo 139359" clip-path="url(#clip-path)">
            <path id="Trazado_205620" data-name="Trazado 205620" d="M158.774,209.3H45.41a7.128,7.128,0,0,1-7.128-7.128V50.593a7.127,7.127,0,0,1,7.128-7.128H158.774a7.127,7.127,0,0,1,7.128,7.128V202.169a7.128,7.128,0,0,1-7.128,7.128" transform="translate(-15.134 -17.182)" fill="#0f0957"/>
            <rect id="Rectángulo_45076" data-name="Rectángulo 45076" width="115.408" height="148.158" transform="translate(29.255 36.087)" fill="#fff"/>
            <rect id="Rectángulo_45077" data-name="Rectángulo 45077" width="115.408" height="148.158" transform="translate(29.255 36.087)" fill="none" stroke="#263238" stroke-linecap="round" stroke-linejoin="round" stroke-width="1"/>
            <line id="Línea_261" data-name="Línea 261" x2="46.871" transform="translate(63.523 58.276)" fill="#fe7062"/>
            <line id="Línea_262" data-name="Línea 262" x2="46.871" transform="translate(63.523 58.276)" fill="none" stroke="#263238" stroke-linecap="round" stroke-linejoin="round" stroke-width="1"/>
            <path id="Trazado_205621" data-name="Trazado 205621" d="M72.09,131.224a7.757,7.757,0,1,0-7.757,7.757,7.757,7.757,0,0,0,7.757-7.757" transform="translate(-22.365 -48.809)" fill="#fe7062"/>
            <path id="Trazado_205622" data-name="Trazado 205622" d="M72.09,131.224a7.757,7.757,0,1,0-7.757,7.757A7.757,7.757,0,0,0,72.09,131.224Z" transform="translate(-22.365 -48.809)" fill="none" stroke="#263238" stroke-linecap="round" stroke-linejoin="round" stroke-width="1"/>
            <line id="Línea_263" data-name="Línea 263" x2="79.188" transform="translate(53.28 83.062)" fill="#fe7062"/>
            <line id="Línea_264" data-name="Línea 264" x2="79.188" transform="translate(53.28 83.062)" fill="none" stroke="#263238" stroke-linecap="round" stroke-linejoin="round" stroke-width="1"/>
            <path id="Trazado_205623" data-name="Trazado 205623" d="M64.059,128.017l2.909,4.525,9.373-12.282" transform="translate(-25.324 -47.54)" fill="#fe7062"/>
            <path id="Trazado_205624" data-name="Trazado 205624" d="M64.059,128.017l2.909,4.525,9.373-12.282" transform="translate(-25.324 -47.54)" fill="none" stroke="#1a0f91" stroke-linecap="round" stroke-linejoin="round" stroke-width="4"/>
            <path id="Trazado_205625" data-name="Trazado 205625" d="M72.09,162.761a7.757,7.757,0,1,0-7.757,7.757,7.757,7.757,0,0,0,7.757-7.757" transform="translate(-22.365 -61.276)" fill="#fe7062"/>
            <path id="Trazado_205626" data-name="Trazado 205626" d="M72.09,162.761a7.757,7.757,0,1,0-7.757,7.757A7.757,7.757,0,0,0,72.09,162.761Z" transform="translate(-22.365 -61.276)" fill="none" stroke="#263238" stroke-linecap="round" stroke-linejoin="round" stroke-width="1"/>
            <line id="Línea_265" data-name="Línea 265" x2="79.188" transform="translate(53.28 102.132)" fill="#fe7062"/>
            <line id="Línea_266" data-name="Línea 266" x2="79.188" transform="translate(53.28 102.132)" fill="none" stroke="#263238" stroke-linecap="round" stroke-linejoin="round" stroke-width="1"/>
            <path id="Trazado_205627" data-name="Trazado 205627" d="M64.059,159.554l2.909,4.525L76.342,151.8" transform="translate(-25.324 -60.008)" fill="#fe7062"/>
            <path id="Trazado_205628" data-name="Trazado 205628" d="M64.059,159.554l2.909,4.525L76.342,151.8" transform="translate(-25.324 -60.008)" fill="none" stroke="#1a0f91" stroke-linecap="round" stroke-linejoin="round" stroke-width="4"/>
            <path id="Trazado_205629" data-name="Trazado 205629" d="M72.09,194.3a7.757,7.757,0,1,0-7.757,7.757A7.757,7.757,0,0,0,72.09,194.3" transform="translate(-22.365 -73.742)" fill="#fe7062"/>
            <path id="Trazado_205630" data-name="Trazado 205630" d="M72.09,194.3a7.757,7.757,0,1,0-7.757,7.757A7.757,7.757,0,0,0,72.09,194.3Z" transform="translate(-22.365 -73.742)" fill="none" stroke="#263238" stroke-linecap="round" stroke-linejoin="round" stroke-width="1"/>
            <line id="Línea_267" data-name="Línea 267" x2="79.188" transform="translate(53.28 121.201)" fill="#fe7062"/>
            <line id="Línea_268" data-name="Línea 268" x2="79.188" transform="translate(53.28 121.201)" fill="none" stroke="#263238" stroke-linecap="round" stroke-linejoin="round" stroke-width="1"/>
            <path id="Trazado_205631" data-name="Trazado 205631" d="M64.059,191.09l2.909,4.525,9.373-12.282" transform="translate(-25.324 -72.475)" fill="#fe7062"/>
            <path id="Trazado_205632" data-name="Trazado 205632" d="M64.059,191.09l2.909,4.525,9.373-12.282" transform="translate(-25.324 -72.475)" fill="none" stroke="#1a0f91" stroke-linecap="round" stroke-linejoin="round" stroke-width="4"/>
            <path id="Trazado_205633" data-name="Trazado 205633" d="M72.09,225.834a7.757,7.757,0,1,0-7.757,7.757,7.757,7.757,0,0,0,7.757-7.757" transform="translate(-22.365 -86.209)" fill="#fe7062"/>
            <path id="Trazado_205634" data-name="Trazado 205634" d="M72.09,225.834a7.757,7.757,0,1,0-7.757,7.757A7.757,7.757,0,0,0,72.09,225.834Z" transform="translate(-22.365 -86.209)" fill="none" stroke="#263238" stroke-linecap="round" stroke-linejoin="round" stroke-width="1"/>
            <line id="Línea_269" data-name="Línea 269" x2="79.188" transform="translate(53.28 140.271)" fill="#fe7062"/>
            <line id="Línea_270" data-name="Línea 270" x2="79.188" transform="translate(53.28 140.271)" fill="none" stroke="#263238" stroke-linecap="round" stroke-linejoin="round" stroke-width="1"/>
            <path id="Trazado_205635" data-name="Trazado 205635" d="M64.059,222.626l2.909,4.525,9.373-12.282" transform="translate(-25.324 -84.941)" fill="#fe7062"/>
            <path id="Trazado_205636" data-name="Trazado 205636" d="M64.059,222.626l2.909,4.525,9.373-12.282" transform="translate(-25.324 -84.941)" fill="none" stroke="#1a0f91" stroke-linecap="round" stroke-linejoin="round" stroke-width="4"/>
            <path id="Trazado_205637" data-name="Trazado 205637" d="M72.09,257.371a7.757,7.757,0,1,0-7.757,7.757,7.757,7.757,0,0,0,7.757-7.757" transform="translate(-22.365 -98.676)" fill="#fe7062"/>
            <path id="Trazado_205638" data-name="Trazado 205638" d="M72.09,257.371a7.757,7.757,0,1,0-7.757,7.757A7.757,7.757,0,0,0,72.09,257.371Z" transform="translate(-22.365 -98.676)" fill="none" stroke="#263238" stroke-linecap="round" stroke-linejoin="round" stroke-width="1"/>
            <line id="Línea_271" data-name="Línea 271" x2="79.188" transform="translate(53.28 159.34)" fill="#fe7062"/>
            <line id="Línea_272" data-name="Línea 272" x2="79.188" transform="translate(53.28 159.34)" fill="none" stroke="#263238" stroke-linecap="round" stroke-linejoin="round" stroke-width="1"/>
            <path id="Trazado_205639" data-name="Trazado 205639" d="M64.059,254.163l2.909,4.525,9.373-12.282" transform="translate(-25.324 -97.409)" fill="#fe7062"/>
            <path id="Trazado_205640" data-name="Trazado 205640" d="M64.059,254.163l2.909,4.525,9.373-12.282" transform="translate(-25.324 -97.409)" fill="none" stroke="#1a0f91" stroke-linecap="round" stroke-linejoin="round" stroke-width="4"/>
            <path id="Trazado_205641" data-name="Trazado 205641" d="M141.06,23.81a3.122,3.122,0,0,1-2.55-4.874,10.933,10.933,0,1,0-18.434.172,3.086,3.086,0,0,1-2.658,4.7H98.407l5.139,14.76H154.93l5.138-14.76Zm-11.822-6.287a3.826,3.826,0,1,1,3.826-3.826,3.826,3.826,0,0,1-3.826,3.826" transform="translate(-38.902 -0.877)" fill="#fff"/>
            <path id="Trazado_205642" data-name="Trazado 205642" d="M141.06,23.81a3.122,3.122,0,0,1-2.55-4.874,10.933,10.933,0,1,0-18.434.172,3.086,3.086,0,0,1-2.658,4.7H98.407l5.139,14.76H154.93l5.138-14.76Zm-11.822-6.287a3.826,3.826,0,1,1,3.826-3.826A3.826,3.826,0,0,1,129.238,17.524Z" transform="translate(-38.902 -0.877)" fill="none" stroke="#263238" stroke-linecap="round" stroke-linejoin="round" stroke-width="1"/>
          </g>
        </g>
        <rect id="Rectángulo_45079" data-name="Rectángulo 45079" width="66.781" height="59.792" transform="translate(152.117 195.783)" fill="#57dbd8"/>
        <rect id="Rectángulo_45080" data-name="Rectángulo 45080" width="21.506" height="59.792" transform="translate(152.117 195.783)" fill="#0f0957"/>
        <rect id="Rectángulo_45081" data-name="Rectángulo 45081" width="5.771" height="16.306" transform="translate(159.984 195.783)" fill="#fff"/>
        <rect id="Rectángulo_45082" data-name="Rectángulo 45082" width="5.771" height="16.306" transform="translate(159.984 195.783)" fill="none" stroke="#263238" stroke-linecap="round" stroke-linejoin="round" stroke-width="1"/>
        <rect id="Rectángulo_45083" data-name="Rectángulo 45083" width="9.946" height="6.096" transform="translate(205.034 202.026)" fill="#fe7062"/>
        <rect id="Rectángulo_45084" data-name="Rectángulo 45084" width="9.946" height="6.096" transform="translate(205.034 202.026)" fill="none" stroke="#263238" stroke-linecap="round" stroke-linejoin="round" stroke-width="1"/>
        <rect id="Rectángulo_45085" data-name="Rectángulo 45085" width="66.781" height="59.792" transform="translate(104.98 195.783)" fill="#57dbd8"/>
        <rect id="Rectángulo_45086" data-name="Rectángulo 45086" width="21.506" height="59.792" transform="translate(104.98 195.783)" fill="#0f0957"/>
        <rect id="Rectángulo_45087" data-name="Rectángulo 45087" width="5.771" height="16.306" transform="translate(112.847 195.783)" fill="#fff"/>
        <rect id="Rectángulo_45088" data-name="Rectángulo 45088" width="5.771" height="16.306" transform="translate(112.847 195.783)" fill="none" stroke="#263238" stroke-linecap="round" stroke-linejoin="round" stroke-width="1"/>
        <rect id="Rectángulo_45089" data-name="Rectángulo 45089" width="9.946" height="6.096" transform="translate(157.387 202.026)" fill="#fe7062"/>
        <rect id="Rectángulo_45090" data-name="Rectángulo 45090" width="9.946" height="6.096" transform="translate(157.387 202.026)" fill="none" stroke="#263238" stroke-linecap="round" stroke-linejoin="round" stroke-width="1"/>
        <rect id="Rectángulo_45091" data-name="Rectángulo 45091" width="66.781" height="59.792" transform="translate(57.12 195.783)" fill="#57dbd8"/>
        <rect id="Rectángulo_45092" data-name="Rectángulo 45092" width="21.506" height="59.792" transform="translate(57.12 195.783)" fill="#0f0957"/>
        <rect id="Rectángulo_45093" data-name="Rectángulo 45093" width="5.771" height="16.306" transform="translate(64.987 195.783)" fill="#fff"/>
        <rect id="Rectángulo_45094" data-name="Rectángulo 45094" width="5.771" height="16.306" transform="translate(64.987 195.783)" fill="none" stroke="#263238" stroke-linecap="round" stroke-linejoin="round" stroke-width="1"/>
        <rect id="Rectángulo_45095" data-name="Rectángulo 45095" width="9.946" height="6.096" transform="translate(110.543 202.026)" fill="#fe7062"/>
        <rect id="Rectángulo_45096" data-name="Rectángulo 45096" width="9.946" height="6.096" transform="translate(110.543 202.026)" fill="none" stroke="#263238" stroke-linecap="round" stroke-linejoin="round" stroke-width="1"/>
        <rect id="Rectángulo_45097" data-name="Rectángulo 45097" width="66.781" height="59.792" transform="translate(129.243 135.918)" fill="#57dbd8"/>
        <rect id="Rectángulo_45098" data-name="Rectángulo 45098" width="21.506" height="59.792" transform="translate(129.243 135.918)" fill="#0f0957"/>
        <rect id="Rectángulo_45099" data-name="Rectángulo 45099" width="5.771" height="16.306" transform="translate(137.11 135.918)" fill="#fff"/>
        <rect id="Rectángulo_45100" data-name="Rectángulo 45100" width="5.771" height="16.306" transform="translate(137.11 135.918)" fill="none" stroke="#263238" stroke-linecap="round" stroke-linejoin="round" stroke-width="1"/>
        <rect id="Rectángulo_45101" data-name="Rectángulo 45101" width="6.738" height="34.331" transform="translate(186.746 136.572)" fill="#fe7062"/>
        <rect id="Rectángulo_45102" data-name="Rectángulo 45102" width="6.738" height="34.331" transform="translate(186.746 136.572)" fill="none" stroke="#263238" stroke-linecap="round" stroke-linejoin="round" stroke-width="1"/>
        <rect id="Rectángulo_45103" data-name="Rectángulo 45103" width="66.781" height="59.792" transform="translate(112.213 76.02)" fill="#57dbd8"/>
        <rect id="Rectángulo_45104" data-name="Rectángulo 45104" width="21.506" height="59.792" transform="translate(112.213 76.02)" fill="#0f0957"/>
        <rect id="Rectángulo_45105" data-name="Rectángulo 45105" width="5.771" height="16.306" transform="translate(120.08 76.02)" fill="#fff"/>
        <rect id="Rectángulo_45106" data-name="Rectángulo 45106" width="5.771" height="16.306" transform="translate(120.08 76.02)" fill="none" stroke="#263238" stroke-linecap="round" stroke-linejoin="round" stroke-width="1"/>
        <rect id="Rectángulo_45107" data-name="Rectángulo 45107" width="6.738" height="34.331" transform="translate(169.098 76.638)" fill="#fe7062"/>
        <rect id="Rectángulo_45108" data-name="Rectángulo 45108" width="6.738" height="34.331" transform="translate(169.098 76.638)" fill="none" stroke="#263238" stroke-linecap="round" stroke-linejoin="round" stroke-width="1"/>
        <rect id="Rectángulo_45109" data-name="Rectángulo 45109" width="66.78" height="59.792" transform="translate(80.503 135.918)" fill="#57dbd8"/>
        <rect id="Rectángulo_45110" data-name="Rectángulo 45110" width="21.506" height="59.792" transform="translate(80.503 135.918)" fill="#0f0957"/>
        <rect id="Rectángulo_45111" data-name="Rectángulo 45111" width="5.771" height="16.306" transform="translate(88.37 135.918)" fill="#fff"/>
        <rect id="Rectángulo_45112" data-name="Rectángulo 45112" width="5.771" height="16.306" transform="translate(88.37 135.918)" fill="none" stroke="#263238" stroke-linecap="round" stroke-linejoin="round" stroke-width="1"/>
        <rect id="Rectángulo_45113" data-name="Rectángulo 45113" width="6.738" height="34.331" transform="translate(136.692 136.572)" fill="#fe7062"/>
        <rect id="Rectángulo_45114" data-name="Rectángulo 45114" width="6.738" height="34.331" transform="translate(136.692 136.572)" fill="none" stroke="#263238" stroke-linecap="round" stroke-linejoin="round" stroke-width="1"/>
        <g id="Grupo_139362" data-name="Grupo 139362">
          <g id="Grupo_139361" data-name="Grupo 139361" clip-path="url(#clip-path)">
            <path id="Trazado_205643" data-name="Trazado 205643" d="M351.231,197.147a.592.592,0,0,1,.814-.393l3.857,1.72-4.13-3.9a.634.634,0,0,1,.772-1l4.5,2.811-2.61-3.2a.6.6,0,0,1,.856-.841l5.185,4.388-.487-1.914a.741.741,0,0,1,1.406-.46c.334.836.967,2.408,1.214,2.924a8.973,8.973,0,0,1,.775,2.92c-.043.59-.045,1.972-.045,1.972l9.72,7.629.753-.889,2.621,2.49-.075.974,2.383,1.821s16.011-8.128,18.1-8.273,4.978,3.522,3.725,7.184-22.426,9.44-23.121,9.488S361.466,204.8,361.466,204.8a33.44,33.44,0,0,1-3.732-1.654c-.951-.565-4.808-2.1-6.039-2.589a.436.436,0,0,1,.264-.828l3.2.761-3.708-2.722a.592.592,0,0,1-.223-.625" transform="translate(-138.84 -75.981)" fill="#0f0957"/>
            <path id="Trazado_205644" data-name="Trazado 205644" d="M290.858,281.05l5.32-4.259,6.513-5.205,18.952-15.165.144.1.018.012.011.011,18.71,12.952,6.674,4.623,5.574,3.856L330.2,181.161l-1.3.034-1.66.047-22.358.605Z" transform="translate(-114.981 -71.616)" fill="#0f0957"/>
            <path id="Trazado_205645" data-name="Trazado 205645" d="M341.848,305.641l.013-.017.111.118Z" transform="translate(-135.138 -120.818)" fill="#fff"/>
            <path id="Trazado_205646" data-name="Trazado 205646" d="M341.848,305.641l.013-.017.111.118Z" transform="translate(-135.138 -120.818)" fill="none" stroke="#263238" stroke-linecap="round" stroke-linejoin="round" stroke-width="1"/>
            <path id="Trazado_205647" data-name="Trazado 205647" d="M299.656,276.941l6.513-5.2L314.36,182l10.934-.455-14.3.455Z" transform="translate(-118.459 -71.767)" fill="#fff"/>
            <path id="Trazado_205648" data-name="Trazado 205648" d="M299.656,276.941l6.513-5.2L314.36,182l10.934-.455-14.3.455Z" transform="translate(-118.459 -71.767)" fill="none" stroke="#263238" stroke-linecap="round" stroke-linejoin="round" stroke-width="1"/>
            <path id="Trazado_205649" data-name="Trazado 205649" d="M351.015,181.219l.006.023,13.285,88.251,6.674,4.623-18.3-92.92-.006-.034Z" transform="translate(-138.762 -71.616)" fill="#fff"/>
            <path id="Trazado_205650" data-name="Trazado 205650" d="M351.015,181.219l.006.023,13.285,88.251,6.674,4.623-18.3-92.92-.006-.034Z" transform="translate(-138.762 -71.616)" fill="none" stroke="#263238" stroke-linecap="round" stroke-linejoin="round" stroke-width="1"/>
            <path id="Trazado_205651" data-name="Trazado 205651" d="M270.537,139.461c0-1.328-2.231-2.759-2.1-4.051.137-1.318,2.616-2.258,2.886-3.532.274-1.293-1.61-3.157-1.208-4.4.408-1.255,3.029-1.656,3.561-2.85s-.916-3.42-.261-4.553,3.306-.985,4.077-2.044-.187-3.533.691-4.508,3.436-.276,4.412-1.156.545-3.494,1.608-4.267,3.416.442,4.555-.217,1.256-3.3,2.459-3.84,3.245,1.145,4.5.738,1.915-2.967,3.208-3.241c1.274-.269,2.929,1.8,4.247,1.663,1.293-.134,2.485-2.5,3.813-2.5s2.52,2.369,3.813,2.5c1.318.137,2.973-1.933,4.247-1.663,1.293.274,1.968,2.838,3.209,3.241s3.307-1.27,4.5-.738,1.327,3.185,2.46,3.841,3.5-.554,4.555.217.634,3.39,1.608,4.268,3.533.18,4.412,1.156-.083,3.445.691,4.508,3.418.9,4.077,2.044-.8,3.349-.261,4.553,3.153,1.594,3.56,2.849-1.481,3.1-1.208,4.4c.27,1.273,2.749,2.213,2.886,3.531.134,1.292-2.1,2.723-2.1,4.051s2.231,2.759,2.1,4.051c-.137,1.318-2.616,2.258-2.886,3.532-.274,1.293,1.61,3.157,1.208,4.4-.408,1.255-3.029,1.656-3.561,2.85s.916,3.42.261,4.553-3.306.985-4.077,2.044.188,3.533-.69,4.508-3.436.276-4.412,1.156-.545,3.494-1.608,4.267-3.416-.442-4.555.217-1.256,3.3-2.459,3.84-3.245-1.145-4.5-.738-1.915,2.967-3.208,3.241c-1.273.269-2.929-1.8-4.247-1.663-1.292.134-2.485,2.5-3.813,2.5s-2.52-2.369-3.812-2.5c-1.318-.137-2.973,1.933-4.247,1.663-1.293-.273-1.968-2.838-3.208-3.24s-3.307,1.27-4.5.738-1.327-3.185-2.459-3.841-3.5.554-4.556-.217-.633-3.39-1.608-4.268-3.533-.18-4.412-1.156.083-3.445-.691-4.508-3.418-.9-4.077-2.044.8-3.349.261-4.553-3.153-1.594-3.561-2.849,1.481-3.1,1.208-4.4c-.269-1.273-2.748-2.214-2.886-3.531-.134-1.292,2.1-2.723,2.1-4.051" transform="translate(-106.117 -39.81)" fill="#fff"/>
            <path id="Trazado_205652" data-name="Trazado 205652" d="M270.537,139.461c0-1.328-2.231-2.759-2.1-4.051.137-1.318,2.616-2.258,2.886-3.532.274-1.293-1.61-3.157-1.208-4.4.408-1.255,3.029-1.656,3.561-2.85s-.916-3.42-.261-4.553,3.306-.985,4.077-2.044-.187-3.533.691-4.508,3.436-.276,4.412-1.156.545-3.494,1.608-4.267,3.416.442,4.555-.217,1.256-3.3,2.459-3.84,3.245,1.145,4.5.738,1.915-2.967,3.208-3.241c1.274-.269,2.929,1.8,4.247,1.663,1.293-.134,2.485-2.5,3.813-2.5s2.52,2.369,3.813,2.5c1.318.137,2.973-1.933,4.247-1.663,1.293.274,1.968,2.838,3.209,3.241s3.307-1.27,4.5-.738,1.327,3.185,2.46,3.841,3.5-.554,4.555.217.634,3.39,1.608,4.268,3.533.18,4.412,1.156-.083,3.445.691,4.508,3.418.9,4.077,2.044-.8,3.349-.261,4.553,3.153,1.594,3.56,2.849-1.481,3.1-1.208,4.4c.27,1.273,2.749,2.213,2.886,3.531.134,1.292-2.1,2.723-2.1,4.051s2.231,2.759,2.1,4.051c-.137,1.318-2.616,2.258-2.886,3.532-.274,1.293,1.61,3.157,1.208,4.4-.408,1.255-3.029,1.656-3.561,2.85s.916,3.42.261,4.553-3.306.985-4.077,2.044.188,3.533-.69,4.508-3.436.276-4.412,1.156-.545,3.494-1.608,4.267-3.416-.442-4.555.217-1.256,3.3-2.459,3.84-3.245-1.145-4.5-.738-1.915,2.967-3.208,3.241c-1.273.269-2.929-1.8-4.247-1.663-1.292.134-2.485,2.5-3.813,2.5s-2.52-2.369-3.812-2.5c-1.318-.137-2.973,1.933-4.247,1.663-1.293-.273-1.968-2.838-3.208-3.24s-3.307,1.27-4.5.738-1.327-3.185-2.459-3.841-3.5.554-4.556-.217-.633-3.39-1.608-4.268-3.533-.18-4.412-1.156.083-3.445-.691-4.508-3.418-.9-4.077-2.044.8-3.349.261-4.553-3.153-1.594-3.561-2.849,1.481-3.1,1.208-4.4c-.269-1.273-2.748-2.214-2.886-3.531C268.306,142.219,270.537,140.789,270.537,139.461Z" transform="translate(-106.117 -39.81)" fill="none" stroke="#263238" stroke-linecap="round" stroke-linejoin="round" stroke-width="1"/>
            <path id="Trazado_205653" data-name="Trazado 205653" d="M280.944,144.539a30.989,30.989,0,1,1,30.989,30.989,30.989,30.989,0,0,1-30.989-30.989" transform="translate(-111.062 -44.888)" fill="#91b3fa"/>
            <path id="Trazado_205654" data-name="Trazado 205654" d="M286.76,146.838a27.473,27.473,0,1,1,27.473,27.473,27.473,27.473,0,0,1-27.473-27.473" transform="translate(-113.361 -47.187)" fill="#0f0957"/>
            <path id="Trazado_205655" data-name="Trazado 205655" d="M436.028,333.559s-.524,4.456.131,6.291,4.849,14.419,5.5,25.559,1.311,21.372.918,21.9-2.753.262-2.753.262h-7.863a.938.938,0,0,1-.262-1.18c.393-.656,4.193-3.539,4.718-4.456a10.177,10.177,0,0,0,1.18-2.621c0-.393-.917-9.97-4.063-16.261s-7.208-21.758-7.6-27.393Z" transform="translate(-168.38 -131.861)" fill="#fff"/>
            <path id="Trazado_205656" data-name="Trazado 205656" d="M436.028,333.559s-.524,4.456.131,6.291,4.849,14.419,5.5,25.559,1.311,21.372.918,21.9-2.753.262-2.753.262h-7.863a.938.938,0,0,1-.262-1.18c.393-.656,4.193-3.539,4.718-4.456a10.177,10.177,0,0,0,1.18-2.621c0-.393-.917-9.97-4.063-16.261s-7.208-21.758-7.6-27.393Z" transform="translate(-168.38 -131.861)" fill="none" stroke="#263238" stroke-linecap="round" stroke-linejoin="round" stroke-width="1"/>
            <path id="Trazado_205657" data-name="Trazado 205657" d="M435.39,419.281a26.881,26.881,0,0,1,2.752-2.512V418.1h8.236a6.863,6.863,0,0,1-.111,2.1c-.393.524-2.752.262-2.752.262h-7.863a.938.938,0,0,1-.262-1.18" transform="translate(-172.067 -164.756)" fill="#57dbd8"/>
            <path id="Trazado_205658" data-name="Trazado 205658" d="M416.257,334.473s-1.835,13.108-.524,17.04.786,11.009-1.048,18.479-3.276,12.188-3.276,12.581,0,3.932-.393,4.587-11.926.524-12.712.524-1.573-.787-.918-1.573,4.2-1.645,6.553-2.753c2.228-1.048,2.359-1.31,2.359-1.31s1.311-15.333.787-22.148-3.417-20.97-2.893-25.688Z" transform="translate(-156.996 -132.12)" fill="#fff"/>
            <path id="Trazado_205659" data-name="Trazado 205659" d="M416.257,334.473s-1.835,13.108-.524,17.04.786,11.009-1.048,18.479-3.276,12.188-3.276,12.581,0,3.932-.393,4.587-11.926.524-12.712.524-1.573-.787-.918-1.573,4.2-1.645,6.553-2.753c2.228-1.048,2.359-1.31,2.359-1.31s1.311-15.333.787-22.148-3.417-20.97-2.893-25.688Z" transform="translate(-156.996 -132.12)" fill="none" stroke="#263238" stroke-linecap="round" stroke-linejoin="round" stroke-width="1"/>
            <path id="Trazado_205660" data-name="Trazado 205660" d="M398.3,420.22c-.786,0-1.573-.786-.917-1.573.527-.633,2.927-1.313,5.071-2.132l.433.953,8.489-.637a9.576,9.576,0,0,1-.363,2.864c-.393.655-11.926.524-12.712.524" transform="translate(-156.996 -164.655)" fill="#57dbd8"/>
            <path id="Trazado_205661" data-name="Trazado 205661" d="M425.835,261.124s4.476,9.726,4.869,15.624-2.1,12.319-2.1,12.319l1.573,16.906s-5.242,3.276-14.023,3.145-13.105-1.573-13.105-1.573-1.049-20.576,1.7-30.535,1.774-15.394,1.774-15.394,12.209.528,19.306-.492" transform="translate(-159.256 -103.227)" fill="#0f0957"/>
            <path id="Trazado_205662" data-name="Trazado 205662" d="M410.99,197.481s1.281,4.235,1.773,6.6-.788,6.9-2.462,10.047-3.546,6.5-2.659,9.357,1.28,3.94,1.28,3.94-.689,6.994-.591,8.175,5.122,2.364,10.145,1.871,8.767-1.477,9.16-2.364,0-5.812.689-8.372.887-14.48-.689-17.041a62.237,62.237,0,0,0-5.22-6.6l-2.955-7.782Z" transform="translate(-161.057 -77.211)" fill="#57dbd8"/>
            <path id="Trazado_205663" data-name="Trazado 205663" d="M426.239,204.8a9.9,9.9,0,0,0-5.523.364,25.669,25.669,0,0,0-6.168,4.138,12.243,12.243,0,0,0,.553-5.222c-.492-2.364-1.773-6.6-1.773-6.6l8.471-2.167,2.955,7.782s.634.7,1.484,1.7" transform="translate(-163.396 -77.211)" fill="#fff"/>
            <path id="Trazado_205664" data-name="Trazado 205664" d="M426.239,204.8a9.9,9.9,0,0,0-5.523.364,25.669,25.669,0,0,0-6.168,4.138,12.243,12.243,0,0,0,.553-5.222c-.492-2.364-1.773-6.6-1.773-6.6l8.471-2.167,2.955,7.782S425.388,203.8,426.239,204.8Z" transform="translate(-163.396 -77.211)" fill="none" stroke="#263238" stroke-linecap="round" stroke-linejoin="round" stroke-width="1"/>
            <path id="Trazado_205665" data-name="Trazado 205665" d="M403.821,171.165s-1.181,3.155-1.6,4.5-1.038,2.674-1.841,2.8-1.553.747-1.055,1.783a9.478,9.478,0,0,0,1.87,2.249s.716,5.111,1.25,5.754,3.013.574,4.53.219,4.434-.877,4.434-.877.949-10.3.354-12.431a13.55,13.55,0,0,0-3.935-5.605c-.758-.366-4.006,1.609-4.006,1.609" transform="translate(-157.796 -67.011)" fill="#fff"/>
            <path id="Trazado_205666" data-name="Trazado 205666" d="M403.821,171.165s-1.181,3.155-1.6,4.5-1.038,2.674-1.841,2.8-1.553.747-1.055,1.783a9.478,9.478,0,0,0,1.87,2.249s.716,5.111,1.25,5.754,3.013.574,4.53.219,4.434-.877,4.434-.877.949-10.3.354-12.431a13.55,13.55,0,0,0-3.935-5.605C407.07,169.19,403.821,171.165,403.821,171.165Z" transform="translate(-157.796 -67.011)" fill="none" stroke="#263238" stroke-linecap="round" stroke-linejoin="round" stroke-width="1"/>
            <path id="Trazado_205667" data-name="Trazado 205667" d="M405.888,182.175c-.05.542.107,1,.351,1.021s.482-.4.532-.94-.107-1-.351-1.022-.481.4-.531.94" transform="translate(-160.451 -71.645)" fill="#0f0957"/>
            <path id="Trazado_205668" data-name="Trazado 205668" d="M408.412,179.741s-1.425-1.714-2.469-1.118" transform="translate(-160.476 -70.563)" fill="#fe7062"/>
            <path id="Trazado_205669" data-name="Trazado 205669" d="M408.412,179.741s-1.425-1.714-2.469-1.118" transform="translate(-160.476 -70.563)" fill="none" stroke="#263238" stroke-linecap="round" stroke-linejoin="round" stroke-width="1"/>
            <path id="Trazado_205670" data-name="Trazado 205670" d="M407.062,191.067a4.613,4.613,0,0,1-2.552.853" transform="translate(-159.91 -75.532)" fill="#fe7062"/>
            <path id="Trazado_205671" data-name="Trazado 205671" d="M407.062,191.067a4.613,4.613,0,0,1-2.552.853" transform="translate(-159.91 -75.532)" fill="none" stroke="#263238" stroke-linecap="round" stroke-linejoin="round" stroke-width="1"/>
            <path id="Trazado_205672" data-name="Trazado 205672" d="M408.759,167.346s2.677,5.292,2.918,5.907.423,11.514-.2,14.027a6.371,6.371,0,0,1-2.109,3.565,44.4,44.4,0,0,0,10.495.967c5.948-.144,8.652-1.576,8.652-1.576a141.326,141.326,0,0,1-1.141-14.448c-.134-7.135-3.32-12.275-7.287-13.234a25.383,25.383,0,0,0-8.793-.119,4.791,4.791,0,0,0-6.26-.775c-3.481,2.35-2.21,5.731-.623,6.768a21.7,21.7,0,0,0,3.788,1.833Z" transform="translate(-159.237 -63.561)" fill="#0f0957"/>
            <path id="Trazado_205673" data-name="Trazado 205673" d="M377.274,218.507s15.387-9.466,17.456-9.761,5.22,3.152,4.235,6.895-21.691,11.239-22.381,11.337-17.471-16.239-17.471-16.239a33.325,33.325,0,0,1-3.842-1.379c-.989-.495-4.948-1.749-6.211-2.144a.436.436,0,0,1,.2-.845l3.249.527-3.9-2.447a.592.592,0,0,1,.516-1.058l3.971,1.436-4.4-3.593a.634.634,0,0,1,.7-1.052l4.69,2.478-2.835-3a.6.6,0,0,1,.793-.9l5.489,4-.625-1.874a.741.741,0,0,1,1.369-.561c.394.81,1.139,2.332,1.423,2.829a8.988,8.988,0,0,1,.985,2.857c0,.591.1,1.97.1,1.97Z" transform="translate(-137.705 -78.527)" fill="#fff"/>
            <path id="Trazado_205674" data-name="Trazado 205674" d="M377.274,218.507s15.387-9.466,17.456-9.761,5.22,3.152,4.235,6.895-21.691,11.239-22.381,11.337-17.471-16.239-17.471-16.239a33.325,33.325,0,0,1-3.842-1.379c-.989-.495-4.948-1.749-6.211-2.144a.436.436,0,0,1,.2-.845l3.249.527-3.9-2.447a.592.592,0,0,1,.516-1.058l3.971,1.436-4.4-3.593a.634.634,0,0,1,.7-1.052l4.69,2.478-2.835-3a.6.6,0,0,1,.793-.9l5.489,4-.625-1.874a.741.741,0,0,1,1.369-.561c.394.81,1.139,2.332,1.423,2.829a8.988,8.988,0,0,1,.985,2.857c0,.591.1,1.97.1,1.97Z" transform="translate(-137.705 -78.527)" fill="none" stroke="#263238" stroke-linecap="round" stroke-linejoin="round" stroke-width="1"/>
            <path id="Trazado_205675" data-name="Trazado 205675" d="M381.759,226.371l.194-.324,3.092-4.265,5.439,3.317s15.387-9.465,17.456-9.761,5.22,3.152,4.236,6.9S390.485,233.472,389.8,233.57c-.33.047-2.822-2.441-8.036-7.2" transform="translate(-150.916 -85.12)" fill="#57dbd8"/>
            <path id="Trazado_205676" data-name="Trazado 205676" d="M385.86,226.488l-4.325,5.242-2.49-1.966,4.325-5.373Z" transform="translate(-149.843 -88.705)" fill="#57dbd8"/>
          </g>
        </g>
        <g id="Grupo_139364" data-name="Grupo 139364">
          <g id="Grupo_139363" data-name="Grupo 139363" clip-path="url(#clip-path)">
            <path id="Trazado_205677" data-name="Trazado 205677" d="M295.829,160.858V151.3h3.031a2.708,2.708,0,0,1,1.4.325,1.972,1.972,0,0,1,.808.937,3.742,3.742,0,0,1,.265,1.486,3.116,3.116,0,0,1-.348,1.6,1.928,1.928,0,0,1-.949.82,3.685,3.685,0,0,1-1.38.241h-.885v4.14Zm1.946-5.507h.684a1.3,1.3,0,0,0,.654-.135.693.693,0,0,0,.313-.431,2.892,2.892,0,0,0,.082-.755,3.494,3.494,0,0,0-.065-.731.749.749,0,0,0-.289-.46,1.2,1.2,0,0,0-.708-.165h-.672Z" transform="translate(-116.946 -59.813)" fill="#91b3fa"/>
            <path id="Trazado_205678" data-name="Trazado 205678" d="M306.477,160.858V151.3h2.477a5.544,5.544,0,0,1,1.657.218,1.935,1.935,0,0,1,1.061.773,2.726,2.726,0,0,1,.372,1.533,4.887,4.887,0,0,1-.1,1.044,2.024,2.024,0,0,1-.354.79,1.744,1.744,0,0,1-.714.536l1.321,4.658H310.2l-1.1-4.328h-.684v4.328Zm1.946-5.484h.566a1.516,1.516,0,0,0,.743-.154.838.838,0,0,0,.383-.466,2.316,2.316,0,0,0,.112-.772,1.759,1.759,0,0,0-.242-1.009,1.027,1.027,0,0,0-.9-.348h-.66Z" transform="translate(-121.155 -59.813)" fill="#91b3fa"/>
            <path id="Trazado_205679" data-name="Trazado 205679" d="M320.3,160.91a3.156,3.156,0,0,1-1.663-.377,2.1,2.1,0,0,1-.879-1.079,4.761,4.761,0,0,1-.265-1.68v-3.562a4.712,4.712,0,0,1,.265-1.674,2.044,2.044,0,0,1,.879-1.061,3.975,3.975,0,0,1,3.343.005,2.068,2.068,0,0,1,.885,1.062,4.662,4.662,0,0,1,.265,1.668v3.562a4.763,4.763,0,0,1-.265,1.68,2.091,2.091,0,0,1-.885,1.079,3.217,3.217,0,0,1-1.68.377m0-1.4a.771.771,0,0,0,.554-.171.863.863,0,0,0,.236-.46,3.143,3.143,0,0,0,.059-.619V153.74a3.051,3.051,0,0,0-.059-.613.862.862,0,0,0-.236-.454.774.774,0,0,0-.554-.171.738.738,0,0,0-.531.171.857.857,0,0,0-.236.454,3.007,3.007,0,0,0-.059.613v4.517a3.463,3.463,0,0,0,.053.619.829.829,0,0,0,.23.46.752.752,0,0,0,.542.171" transform="translate(-125.512 -59.736)" fill="#91b3fa"/>
            <path id="Trazado_205680" data-name="Trazado 205680" d="M328.964,160.858V151.3H331.3a4.634,4.634,0,0,1,1.893.313,1.843,1.843,0,0,1,.961.979,4.394,4.394,0,0,1,.284,1.7v3.479a4.6,4.6,0,0,1-.284,1.745,1.89,1.89,0,0,1-.949,1.009,4.334,4.334,0,0,1-1.858.324Zm1.946-1.356h.413a1.327,1.327,0,0,0,.773-.171.766.766,0,0,0,.288-.507,4.93,4.93,0,0,0,.059-.831v-3.939a3.358,3.358,0,0,0-.076-.8.7.7,0,0,0-.307-.442,1.491,1.491,0,0,0-.749-.142h-.4Z" transform="translate(-130.045 -59.813)" fill="#91b3fa"/>
            <path id="Trazado_205681" data-name="Trazado 205681" d="M342.774,160.987a3.21,3.21,0,0,1-1.686-.372,1.971,1.971,0,0,1-.843-1.073,5.257,5.257,0,0,1-.242-1.7V151.3h1.922v6.8a4.5,4.5,0,0,0,.053.7,1.078,1.078,0,0,0,.236.554.7.7,0,0,0,.56.212.716.716,0,0,0,.572-.212,1.054,1.054,0,0,0,.23-.554,5.186,5.186,0,0,0,.047-.7v-6.8h1.922v6.534a5.275,5.275,0,0,1-.241,1.7,1.975,1.975,0,0,1-.844,1.073,3.21,3.21,0,0,1-1.686.372" transform="translate(-134.409 -59.813)" fill="#91b3fa"/>
            <path id="Trazado_205682" data-name="Trazado 205682" d="M353.973,160.91a3.064,3.064,0,0,1-1.68-.4,2.117,2.117,0,0,1-.867-1.114,5.053,5.053,0,0,1-.247-1.657v-3.432a5.217,5.217,0,0,1,.247-1.7,2.062,2.062,0,0,1,.867-1.1,3.132,3.132,0,0,1,1.68-.389,3.2,3.2,0,0,1,1.61.342,1.877,1.877,0,0,1,.825.967,4,4,0,0,1,.242,1.451v.8h-1.887v-.9a5.091,5.091,0,0,0-.036-.619.853.853,0,0,0-.195-.472.7.7,0,0,0-.548-.183.747.747,0,0,0-.567.189.9.9,0,0,0-.224.49,4.315,4.315,0,0,0-.047.666v4.34a3.336,3.336,0,0,0,.065.7.813.813,0,0,0,.248.46.776.776,0,0,0,.525.159.681.681,0,0,0,.536-.183.909.909,0,0,0,.2-.49,4.8,4.8,0,0,0,.042-.648v-.932h1.887v.79a4.28,4.28,0,0,1-.236,1.48,1.991,1.991,0,0,1-.813,1.014,3,3,0,0,1-1.628.372" transform="translate(-138.827 -59.736)" fill="#91b3fa"/>
            <path id="Trazado_205683" data-name="Trazado 205683" d="M362.715,160.858v-8.1h-1.474v-1.451h4.882v1.451h-1.45v8.1Z" transform="translate(-142.805 -59.814)" fill="#91b3fa"/>
            <path id="Trazado_205684" data-name="Trazado 205684" d="M305.6,186.07a3.63,3.63,0,0,1-.626-.4,6.085,6.085,0,0,1-.7-.631,4.68,4.68,0,0,1-.578-.738.407.407,0,0,1-.1.012h-.112a3.154,3.154,0,0,1-1.663-.377,2.1,2.1,0,0,1-.879-1.079,4.754,4.754,0,0,1-.266-1.681v-3.562a4.7,4.7,0,0,1,.266-1.674,2.042,2.042,0,0,1,.879-1.061,3.976,3.976,0,0,1,3.343.005,2.069,2.069,0,0,1,.884,1.062,4.65,4.65,0,0,1,.266,1.668v3.562a5.591,5.591,0,0,1-.125,1.232,2.61,2.61,0,0,1-.407.949,2,2,0,0,1-.754.637c.1.11.208.219.318.33s.219.212.33.307a2.65,2.65,0,0,0,.319.236Zm-2.111-3.161a.777.777,0,0,0,.554-.171.866.866,0,0,0,.235-.46,3.142,3.142,0,0,0,.059-.619v-4.517a3.049,3.049,0,0,0-.059-.613.86.86,0,0,0-.235-.454.777.777,0,0,0-.554-.171.754.754,0,0,0-.542.171.827.827,0,0,0-.231.454,3.355,3.355,0,0,0-.053.613v4.517a3.457,3.457,0,0,0,.053.619.833.833,0,0,0,.231.46.754.754,0,0,0,.542.171" transform="translate(-118.866 -68.988)" fill="#91b3fa"/>
            <path id="Trazado_205685" data-name="Trazado 205685" d="M314.788,184.39a3.211,3.211,0,0,1-1.686-.372,1.971,1.971,0,0,1-.843-1.073,5.257,5.257,0,0,1-.242-1.7v-6.534h1.922v6.8a4.493,4.493,0,0,0,.053.7,1.077,1.077,0,0,0,.236.554.7.7,0,0,0,.56.212.716.716,0,0,0,.572-.212,1.049,1.049,0,0,0,.23-.554,5.092,5.092,0,0,0,.047-.7v-6.8h1.922v6.534a5.275,5.275,0,0,1-.241,1.7,1.975,1.975,0,0,1-.844,1.073,3.21,3.21,0,0,1-1.686.372" transform="translate(-123.346 -69.065)" fill="#91b3fa"/>
            <path id="Trazado_205686" data-name="Trazado 205686" d="M322.528,184.26l1.852-9.552h2.158l1.839,9.552h-1.8l-.342-2.1h-1.51l-.365,2.1Zm2.37-3.29h1.144l-.578-3.857Z" transform="translate(-127.501 -69.065)" fill="#91b3fa"/>
            <path id="Trazado_205687" data-name="Trazado 205687" d="M333.684,184.261v-9.552h1.946v8.232h2.241v1.321Z" transform="translate(-131.911 -69.065)" fill="#91b3fa"/>
            <rect id="Rectángulo_45116" data-name="Rectángulo 45116" width="1.934" height="9.552" transform="translate(206.833 105.643)" fill="#91b3fa"/>
            <path id="Trazado_205688" data-name="Trazado 205688" d="M348.186,184.261v-8.1h-1.474v-1.451h4.882v1.451h-1.45v8.1Z" transform="translate(-137.061 -69.065)" fill="#91b3fa"/>
            <path id="Trazado_205689" data-name="Trazado 205689" d="M357.059,184.261v-3.785l-1.863-5.767h1.827l1.026,3.361.955-3.361h1.769l-1.839,5.767v3.785Z" transform="translate(-140.415 -69.065)" fill="#91b3fa"/>
            <path id="Trazado_205690" data-name="Trazado 205690" d="M307.173,136.113l.649,2h2.1l-1.7,1.235.649,2-1.7-1.235-1.7,1.235.649-2-1.7-1.235h2.1Z" transform="translate(-120.343 -53.808)" fill="#91b3fa"/>
            <path id="Trazado_205691" data-name="Trazado 205691" d="M319.339,136.113l.649,2h2.1l-1.7,1.235.649,2-1.7-1.235-1.7,1.235.649-2-1.7-1.235h2.1Z" transform="translate(-125.153 -53.808)" fill="#91b3fa"/>
            <path id="Trazado_205692" data-name="Trazado 205692" d="M331.5,136.113l.649,2h2.1l-1.7,1.235.649,2-1.7-1.235-1.7,1.235.649-2-1.7-1.235h2.1Z" transform="translate(-129.962 -53.808)" fill="#91b3fa"/>
            <path id="Trazado_205693" data-name="Trazado 205693" d="M343.671,136.113l.649,2h2.1l-1.7,1.235.649,2-1.7-1.235-1.7,1.235.649-2-1.7-1.235h2.1Z" transform="translate(-134.771 -53.808)" fill="#91b3fa"/>
            <path id="Trazado_205694" data-name="Trazado 205694" d="M355.837,136.113l.649,2h2.1l-1.7,1.235.649,2-1.7-1.235-1.7,1.235.649-2-1.7-1.235h2.1Z" transform="translate(-139.581 -53.808)" fill="#91b3fa"/>
          </g>
        </g>
      </g>
    </g>
  </g>
</svg>
