<svg xmlns="http://www.w3.org/2000/svg" xmlns:xlink="http://www.w3.org/1999/xlink" width="451.826" height="319.416" viewBox="0 0 451.826 319.416">
  <defs>
    <clipPath id="clip-path">
      <rect id="BG" width="451.826" height="319.416" transform="translate(758.175 3791.975)" fill="#57dbd8" opacity="0.4"/>
    </clipPath>
    <clipPath id="clip-path-2">
      <rect id="Rectángulo_45127" data-name="Rectángulo 45127" width="301.016" height="300.529" fill="none"/>
    </clipPath>
  </defs>
  <g id="Enmascarar_grupo_230" data-name="Enmascarar grupo 230" transform="translate(-758.175 -3791.975)" clip-path="url(#clip-path)">
    <g id="Grupo_139368" data-name="Grupo 139368" transform="translate(855.984 3801.417)">
      <g id="Grupo_139367" data-name="Grupo 139367" transform="translate(0 0.001)" clip-path="url(#clip-path-2)">
        <path id="Trazado_205695" data-name="Trazado 205695" d="M166.017,11.252l-2.445-5.473m-7.062,9.055,5.155,3.594m22.819-3.7,5.184-4.97M175.925,4l-.971,6.531m18.438,13.73-4.623.174M184.5,31.457l4.892,2.446" transform="translate(-75.144 1.753)" fill="none" stroke="#f6e250" stroke-linecap="round" stroke-linejoin="round" stroke-width="3"/>
        <path id="Trazado_205696" data-name="Trazado 205696" d="M284.066,343.358c0,45.532-63.59,82.443-142.033,82.443S0,388.889,0,343.358s63.591-82.444,142.033-82.444,142.033,36.911,142.033,82.444" transform="translate(0 -125.271)" fill="#ccc7d4" opacity="0.47"/>
        <path id="Trazado_205697" data-name="Trazado 205697" d="M234.885,273.213c-24.308-12.189-55.984-19.562-90.628-19.562s-66.319,7.373-90.627,19.562H5.555v61.606h.014c.61,44.161,62.464,79.852,138.688,79.852s138.079-35.691,138.689-79.852h.015V273.213Z" transform="translate(-2.667 -121.784)" fill="#45afac"/>
        <path id="Trazado_205698" data-name="Trazado 205698" d="M349.326,351.738v61.494c36.962-14.322,61.408-38.672,61.79-66.352h.015V285.274H363.055a159.247,159.247,0,0,0-15.276-6.651l-75.351,6.287Z" transform="translate(-130.799 -133.774)" fill="#fe7062"/>
        <path id="Trazado_205699" data-name="Trazado 205699" d="M515.406,346.347s-.553,18.7.463,22.556,8.535,1.423,8.738-7.926-3.532-23.227-3.532-23.227Z" transform="translate(-247.387 -162.163)" fill="#641c1c"/>
        <path id="Trazado_205700" data-name="Trazado 205700" d="M282.961,215.661c0,44.464-62.1,80.51-138.7,80.51s-138.7-36.046-138.7-80.51,62.1-80.511,138.7-80.511,138.7,36.046,138.7,80.511" transform="translate(-2.667 -64.889)" fill="#57dbd8"/>
        <path id="Trazado_205701" data-name="Trazado 205701" d="M382.365,191.549,270.01,239.414v8.695l2.02,1.829L384.175,215.7c-.6-.483-1.2-23.672-1.81-24.148" transform="translate(-129.638 -91.968)" fill="#348381"/>
        <path id="Trazado_205702" data-name="Trazado 205702" d="M274.1,273.778c0,5.623-4.147,10.681-10.765,14.2-5.888,3.14-13.737,5.049-22.355,5.049-18.287,0-33.116-8.613-33.116-19.246s14.828-19.245,33.12-19.245c8.613,0,16.458,1.913,22.351,5.044,6.618,3.521,10.765,8.578,10.765,14.2" transform="translate(-99.801 -122.208)" fill="#348381"/>
        <path id="Trazado_205703" data-name="Trazado 205703" d="M325.331,278.437c0,5.623-4.147,10.681-10.765,14.2v-28.4c6.618,3.521,10.765,8.578,10.765,14.2" transform="translate(-151.031 -126.866)" fill="#348381"/>
        <rect id="Rectángulo_45119" data-name="Rectángulo 45119" width="16.638" height="26.798" transform="translate(167.658 139.965)" fill="#641c1c"/>
        <path id="Trazado_205704" data-name="Trazado 205704" d="M428.736,246.85a50.531,50.531,0,0,1-6.6,24.612,66.954,66.954,0,0,1-7.7,11.034,93,93,0,0,1-17.258,15.487q-2.821,1.988-5.853,3.865a147.471,147.471,0,0,1-24.621,12.1l-57.524-50.969c8.224-3.5,13.565-9.152,13.569-15.536,0-4.271-2.395-8.216-6.444-11.41l86.148-36.348c16.534,13.255,26.291,29.547,26.291,47.162" transform="translate(-148.441 -95.875)" fill="#cb594e"/>
        <path id="Trazado_205705" data-name="Trazado 205705" d="M446.54,387.871q-2.824,1.988-5.853,3.865H414.408a2.414,2.414,0,0,1,0-4.828h30.2a2.391,2.391,0,0,1,1.927.963" transform="translate(-197.809 -185.764)" fill="#641c1c"/>
        <path id="Trazado_205706" data-name="Trazado 205706" d="M406.276,327.267h-24.91a2.414,2.414,0,0,1,0-4.829h24.91a2.414,2.414,0,0,1,0,4.829" transform="translate(-181.944 -154.811)" fill="#641c1c"/>
        <path id="Trazado_205707" data-name="Trazado 205707" d="M390.085,282.9H339.554a2.414,2.414,0,0,1,0-4.829h50.531a2.414,2.414,0,0,1,0,4.829" transform="translate(-161.869 -133.511)" fill="#641c1c"/>
        <path id="Trazado_205708" data-name="Trazado 205708" d="M481.727,286.5H431.2a2.414,2.414,0,0,1,0-4.828h50.531a2.414,2.414,0,0,1,0,4.828" transform="translate(-205.868 -135.235)" fill="#8a2326"/>
        <path id="Trazado_205709" data-name="Trazado 205709" d="M498.924,336.242c-2.1,3.812-2.654,5.056-5.669,8.6-9.584-.016-24.137-1.869-24.137-4.84s7.775-5.389,17.366-5.389a42.773,42.773,0,0,1,12.441,1.633" transform="translate(-225.234 -160.654)" fill="#641c1c"/>
        <path id="Trazado_205710" data-name="Trazado 205710" d="M452.429,281.9v-.033a2.891,2.891,0,0,1,2.892-2.892h2.457a1.03,1.03,0,0,0,1.029-1.029v-.021a1.029,1.029,0,0,1,1.029-1.03l5.013,1.626a1.029,1.029,0,0,1,1.029,1.029v2.715h-4.567v-.543l-1.142.543h-7.375a.366.366,0,0,1-.365-.366" transform="translate(-217.222 -132.946)" fill="#271614"/>
        <path id="Trazado_205711" data-name="Trazado 205711" d="M465.093,276.784v-1.209a1.016,1.016,0,0,0-.243-.032h-5.013a1.03,1.03,0,0,0-1.029,1.03v.021a1.03,1.03,0,0,1-1.029,1.03h-2.457a2.891,2.891,0,0,0-2.892,2.891v.033a.365.365,0,0,0,.365.365h6.683a2.163,2.163,0,0,0,1.258-.4l.011-.008a2.163,2.163,0,0,1,1.257-.4h3.875v-1.341a2.114,2.114,0,0,0-.56-1.365.931.931,0,0,1-.226-.61" transform="translate(-217.222 -132.295)" fill="#271614"/>
        <path id="Trazado_205712" data-name="Trazado 205712" d="M502.385,281.9v-.033a2.891,2.891,0,0,0-2.892-2.892h-2.457a1.029,1.029,0,0,1-1.029-1.029v-.021a1.03,1.03,0,0,0-1.03-1.03l-5.012,1.626a1.029,1.029,0,0,0-1.029,1.029v2.715H493.5v-.543l1.142.543h7.375a.366.366,0,0,0,.365-.366" transform="translate(-234.75 -132.946)" fill="#271614"/>
        <path id="Trazado_205713" data-name="Trazado 205713" d="M489.721,276.784v-1.209a1.02,1.02,0,0,1,.244-.032h5.012a1.03,1.03,0,0,1,1.03,1.03v.021a1.03,1.03,0,0,0,1.029,1.03h2.457a2.891,2.891,0,0,1,2.892,2.891v.033a.365.365,0,0,1-.365.365h-6.683a2.162,2.162,0,0,1-1.257-.4l-.011-.008a2.164,2.164,0,0,0-1.258-.4h-3.875v-1.341a2.112,2.112,0,0,1,.56-1.365.931.931,0,0,0,.226-.61" transform="translate(-234.749 -132.295)" fill="#271614"/>
        <path id="Trazado_205714" data-name="Trazado 205714" d="M454.53,281.367l.836-.7c.25-.211-.111-.569-.359-.359l-.837.7c-.25.211.111.569.36.359" transform="translate(-218.017 -134.55)" fill="#874634"/>
        <path id="Trazado_205715" data-name="Trazado 205715" d="M511.979,281.008l-.836-.7c-.248-.21-.61.148-.359.359l.836.7c.249.21.61-.148.359-.359" transform="translate(-245.199 -134.55)" fill="#874634"/>
        <path id="Trazado_205716" data-name="Trazado 205716" d="M476.407,234.144l-1.317-38.113h-3.737l-.9,38.113-.97.36a9.33,9.33,0,0,1-7.57-.474l-.037-.02,2.331-45.883h18.008l2.685,45.883-.04.017a10.768,10.768,0,0,1-7.96.293Z" transform="translate(-221.759 -90.325)" fill="#44414d"/>
        <path id="Trazado_205717" data-name="Trazado 205717" d="M483.281,190.133H465.274l-1.174,20.7h7.872l.165-1.757,4.463.034.083,1.723h7.955Z" transform="translate(-222.825 -91.288)" fill="#313038"/>
        <path id="Trazado_205718" data-name="Trazado 205718" d="M473.775,146.68c12.322,0,10.793,6.783,10.793,6.783v28.764c-5.281,2.94-18.565,2.62-21.485-1.048V151.448s-1.629-4.768,10.692-4.768" transform="translate(-222.302 -70.425)" fill="#44414d"/>
        <path id="Trazado_205719" data-name="Trazado 205719" d="M493.014,201.735l-1.418.593-.306-.722a3.514,3.514,0,0,1-.725,1.689c-2.479,3.07-3.838,1.365-2.775.1-1.8.312-3.368-1.864-1.474-2.175a7.675,7.675,0,0,0,2.184-.725s-3.5,1.349-3.629-.663c-.066-1.056,1.552-1.264,2.8-1.8a2,2,0,0,1-.946-2.23c.246-1.007,1.736.665,1.736.665.3.134.6.228.857.321l1.538-.643-.205-.531a18.632,18.632,0,0,0,4.283-2.542v8.552c-.926.463-1.564.706-1.672.747Z" transform="translate(-232.797 -92.699)" fill="#313038"/>
        <path id="Trazado_205720" data-name="Trazado 205720" d="M465.117,201.187l1.418.593.306-.722a3.521,3.521,0,0,0,.725,1.689c2.479,3.07,3.838,1.365,2.775.1,1.8.312,3.369-1.864,1.474-2.175a7.683,7.683,0,0,1-2.184-.725s3.5,1.349,3.629-.663c.066-1.056-1.551-1.264-2.8-1.8a2,2,0,0,0,.946-2.23c-.246-1.007-1.736.665-1.736.665-.305.134-.6.228-.857.321l-1.538-.643.205-.532a18.6,18.6,0,0,1-4.283-2.542v8.552c.926.463,1.563.707,1.672.747Z" transform="translate(-222.393 -92.436)" fill="#313038"/>
        <path id="Trazado_205721" data-name="Trazado 205721" d="M477.565,176.626l-.493,21.922a.318.318,0,1,0,.636,0q.246-10.961.493-21.922a.318.318,0,1,0-.636,0" transform="translate(-229.053 -84.648)" fill="#313038"/>
        <path id="Trazado_205722" data-name="Trazado 205722" d="M488.773,196.686a5.516,5.516,0,0,0-1.518-.766s-1.417-1.735-1.706-.739a2,2,0,0,0,.849,2.269c-1.268.483-2.893.622-2.873,1.68.039,2.015,3.6.818,3.6.818a7.667,7.667,0,0,1-2.213.631c-1.906.23-.433,2.471,1.38,2.236-1.117,1.216.168,2.979,2.776.017a4.785,4.785,0,0,0,.816-3.884,3.784,3.784,0,0,0-1.109-2.261" transform="translate(-232.152 -93.564)" fill="#e8b07d"/>
        <path id="Trazado_205723" data-name="Trazado 205723" d="M494.777,195.795l2.1,5.609-2.572.948-2.1-5.609Z" transform="translate(-236.319 -94.006)" fill="#fff"/>
        <path id="Trazado_205724" data-name="Trazado 205724" d="M492.84,179.14c.511-.166,12.514-4.175,12.543-14.9.019-7.19-5.047-13.577-12.428-16.408-1.527-.586-6.292-1.111-7.143.141-1.118,1.644,6.107,8.1,7.008,8.649,1.752,1.063,5.826,3.891,5.817,7.175-.015,5.637-8.036,8.451-8.117,8.478Z" transform="translate(-233.194 -70.679)" fill="#44414d"/>
        <path id="Trazado_205725" data-name="Trazado 205725" d="M483.717,149.4l-7.93,14.3-3.08-14.3Z" transform="translate(-226.957 -71.729)" fill="#fff"/>
        <path id="Trazado_205726" data-name="Trazado 205726" d="M472.236,151.389l.063-.025a13.937,13.937,0,0,1,10.9,0l.051.024L481.07,155.3l-3.545-2.635-4.448,2.635Z" transform="translate(-226.732 -72.142)" fill="#aaa09e"/>
        <path id="Trazado_205727" data-name="Trazado 205727" d="M472.376,196.528a5.518,5.518,0,0,1,1.549-.7s1.49-1.672,1.736-.665a2,2,0,0,1-.946,2.23c1.247.537,2.864.744,2.8,1.8-.125,2.011-3.629.663-3.629.663a7.668,7.668,0,0,0,2.183.725c1.894.311.327,2.488-1.474,2.175,1.064,1.263-.3,2.969-2.775-.1a4.788,4.788,0,0,1-.649-3.916,3.786,3.786,0,0,1,1.206-2.211" transform="translate(-226.154 -93.548)" fill="#e8b07d"/>
        <path id="Trazado_205728" data-name="Trazado 205728" d="M468.036,195.371l-2.339,5.514,2.529,1.057,2.339-5.514Z" transform="translate(-223.592 -93.803)" fill="#fff"/>
        <path id="Trazado_205729" data-name="Trazado 205729" d="M456.368,178.786c-.5-.187-12.324-4.708-11.893-15.421.289-7.185,5.625-13.348,13.121-15.859,1.55-.52,6.334-.84,7.13.447.594.96-3.433,1.051-5.58,3.034-.6.555.67,3.38.133,3.83a18.887,18.887,0,0,1-1.925,1.476c-1.8.988-5.988,3.639-6.12,6.919-.227,5.632,7.666,8.787,7.745,8.818Z" transform="translate(-213.398 -70.603)" fill="#44414d"/>
        <path id="Trazado_205730" data-name="Trazado 205730" d="M472.148,164.509l-2.931-15.191-4.237,1.553,1.911,2.854,1.477.547-.984,1.885Z" transform="translate(-223.247 -71.692)" fill="#313038"/>
        <path id="Trazado_205731" data-name="Trazado 205731" d="M478.7,164.51l-.071-.855,8.207-14.335,3.741,1.345-2.925,3.063-1.665.546.338,1.885Z" transform="translate(-229.802 -71.693)" fill="#313038"/>
        <path id="Trazado_205732" data-name="Trazado 205732" d="M477.427,160.768l.63,2.926,1.624-2.926.8-11.369Z" transform="translate(-229.224 -71.73)" fill="#100f0f"/>
        <path id="Trazado_205733" data-name="Trazado 205733" d="M480.724,153.4H480.7a1.013,1.013,0,0,1-1.069-.8l-.3-1.892a1.4,1.4,0,0,1,1.454-1.439h1.273a.975.975,0,0,1,.961,1.439l-.951,1.892a1.535,1.535,0,0,1-1.344.8" transform="translate(-230.133 -71.667)" fill="#100f0f"/>
        <path id="Trazado_205734" data-name="Trazado 205734" d="M472.707,148.351l.062-.025a13.937,13.937,0,0,1,10.9,0l.051.023-2.18,3.907-3.6-2.344-4.4,2.344Z" transform="translate(-226.958 -70.683)" fill="#fff"/>
        <path id="Trazado_205735" data-name="Trazado 205735" d="M472.02,162.867l-2.931-15.191-4.237,1.553,1.911,2.854,1.477.546-.984,1.886Z" transform="translate(-223.186 -70.903)" fill="#595666"/>
        <path id="Trazado_205736" data-name="Trazado 205736" d="M478.64,162.868l8.136-15.191,3.74,1.345-2.925,3.062-1.664.547.337,1.885Z" transform="translate(-229.806 -70.904)" fill="#595666"/>
        <path id="Trazado_205737" data-name="Trazado 205737" d="M486.1,113.655s6.318-14.214,1.383-16.62c-1.429-6.681-11.837-7.178-15.82-6.5-4.761.808-9.991,6.7-6.457,12.487Z" transform="translate(-222.8 -43.359)" fill="#9c532d"/>
        <rect id="Rectángulo_45120" data-name="Rectángulo 45120" width="5.28" height="8.675" rx="2.64" transform="translate(249.188 70.412)" fill="#e29b62"/>
        <path id="Trazado_205738" data-name="Trazado 205738" d="M472.688,100.555l6.671.54a8.054,8.054,0,0,1,7.177,8.837l-.158,1.951.035.037a2.906,2.906,0,0,1,.415,0l.078.006a3.171,3.171,0,0,1,2.826,3.479l-.005.066a3.168,3.168,0,0,1-3.346,2.977l-.081-.007a2.9,2.9,0,0,1-.418-.068l-.04.03a8,8,0,0,1-8.434,7.213l-6.7-.543a8.054,8.054,0,0,1-7.177-8.837l.657-8.115a8.054,8.054,0,0,1,8.5-7.567" transform="translate(-222.536 -48.267)" fill="#e8b07d"/>
        <path id="Trazado_205739" data-name="Trazado 205739" d="M487.665,123.881c-.046.57.251,1.059.663,1.092s.784-.4.831-.971-.251-1.058-.664-1.092-.784.4-.83.971" transform="translate(-234.137 -59.012)" fill="#1b1c1d"/>
        <path id="Trazado_205740" data-name="Trazado 205740" d="M471.521,122.574c-.046.57.251,1.058.663,1.092s.785-.4.831-.971-.251-1.059-.664-1.092-.784.4-.83.971" transform="translate(-226.386 -58.384)" fill="#1b1c1d"/>
        <path id="Trazado_205741" data-name="Trazado 205741" d="M470.709,116.18a1.627,1.627,0,0,1,2.707-.557c.273.257.686-.155.412-.413a2.21,2.21,0,0,0-3.622.676c-.171.334.332.629.5.294" transform="translate(-225.74 -54.992)" fill="#6b4528"/>
        <path id="Trazado_205742" data-name="Trazado 205742" d="M489.057,117.209a2.9,2.9,0,0,0-4.2-1.158c-.35.218-.028.774.323.555a2.258,2.258,0,0,1,3.323.927c.186.369.74.045.554-.324" transform="translate(-232.719 -55.493)" fill="#6b4528"/>
        <path id="Trazado_205743" data-name="Trazado 205743" d="M471.931,95.376a6.212,6.212,0,0,0,2.028.668,1.329,1.329,0,0,1,1.376-.983c1.252.059,2.5.177,3.748.292a17.033,17.033,0,0,1,3.825.439q.142.029.283.061l.032.007.016,0a8.9,8.9,0,0,1,4.357,2.287,10.031,10.031,0,0,1,2.847,8.152q-.226,2.786-.452,5.572a1.373,1.373,0,1,1-2.736-.221c.195-2.405.734-5.172.341-7.618-1.207-2.865-4.607-2.9-10.783-3.4-8.648-.7-4.882-5.256-4.882-5.256" transform="translate(-226.193 -45.641)" fill="#9c532d"/>
        <path id="Trazado_205744" data-name="Trazado 205744" d="M479.975,136.244l-4.227-.536c-.8-.1-.8,1.159,0,1.26l4.227.535c.8.1.795-1.159,0-1.26" transform="translate(-228.13 -65.154)" fill="#da894a"/>
        <path id="Trazado_205745" data-name="Trazado 205745" d="M149.927,305.328c-9.048,0-16.383-2.847-16.383-6.36s7.335-6.361,16.383-6.361,16.382,2.847,16.382,6.361-7.334,6.36-16.382,6.36" transform="translate(-64.118 -140.488)" fill="#45afac"/>
        <path id="Trazado_205746" data-name="Trazado 205746" d="M123.049,245.189a4.792,4.792,0,0,0,1.291,2.845,2.336,2.336,0,0,1,.723,1.758,8.051,8.051,0,0,0,1.225,4.229c1.971,3.614,5.006,5.92,7.921,5.55,2.828-.359,1.8-2.1.093-5.385-1.585-3.05-1.482-4.349-1.449-8.111a2.349,2.349,0,0,0-1.117-2.02c-1.727-1.064-5.1-2.69-7.626-1.093a2.318,2.318,0,0,0-1.061,2.228" transform="translate(-59.071 -116.331)" fill="#5e2f1f"/>
        <path id="Trazado_205747" data-name="Trazado 205747" d="M184.33,236.2l.01-.041a3.726,3.726,0,0,0-2.7-4.523l-3.071-.773a1.326,1.326,0,0,1-.962-1.61l.007-.026a1.327,1.327,0,0,0-.962-1.611l-5.45-1.577a1.327,1.327,0,0,0-1.611.963l-1.82,4a1.468,1.468,0,0,0,1.065,1.781l3.613.909a.692.692,0,0,0,.84-.5l0-.007,1.256,1.037,9.216,2.321a.471.471,0,0,0,.571-.342" transform="translate(-80.528 -108.509)" fill="#5e2f1f"/>
        <path id="Trazado_205748" data-name="Trazado 205748" d="M116.1,159.372a5.942,5.942,0,0,1,1.81.36s2.291-.561,1.963.511a1.952,1.952,0,0,1-2.1,1.416c.851,1.288,2.224,2.516,1.581,3.431-1.223,1.745-3.7-1.729-3.7-1.729a9.482,9.482,0,0,0,1.609,2.06c1.571,1.5-1.069,2.467-2.553,1.027.282,1.828-1.907,2.5-2.5-1.875a5.007,5.007,0,0,1,1.56-3.969,3.661,3.661,0,0,1,2.327-1.232" transform="translate(-53.86 -76.51)" fill="#e8b07d"/>
        <path id="Trazado_205749" data-name="Trazado 205749" d="M187.378,42.983c.648,2.992-1.426,3.88-3.6,3.88a3.637,3.637,0,1,1,0-7.248c2.177,0,3.179,1.412,3.6,3.368" transform="translate(-86.343 -19.021)" fill="#e29b62"/>
        <path id="Trazado_205750" data-name="Trazado 205750" d="M189.062,38.279c0,1.192-.7,2.157-1.56,2.157s-1.56-.965-1.56-2.157.7-2.157,1.56-2.157,1.56.966,1.56,2.157" transform="translate(-89.275 -17.344)" fill="#e8b07d"/>
        <path id="Trazado_205751" data-name="Trazado 205751" d="M181.916,43.387c-1.931-1.608-.965-6.936,1.447-7.249s1.722,4,0,4.192c-1.447.161-1.126-1.931-1.126-1.931" transform="translate(-86.849 -17.343)" fill="#e8b07d"/>
        <path id="Trazado_205752" data-name="Trazado 205752" d="M180.671,39.276c-2.447.662-1.267,7.485,2.087,7.414s2.319-6.284-.8-4.29c0,0-.1-3.445-1.287-3.124" transform="translate(-86.12 -18.848)" fill="#e8b07d"/>
        <path id="Trazado_205753" data-name="Trazado 205753" d="M191.914,40.065c-.35,1.022-1.234,1.645-1.973,1.391a1.753,1.753,0,0,1-.7-2.309c.351-1.022,1.234-1.645,1.973-1.391a1.753,1.753,0,0,1,.7,2.309" transform="translate(-90.788 -18.101)" fill="#e8b07d"/>
        <path id="Trazado_205754" data-name="Trazado 205754" d="M194.321,41.608c-.3.862-1.04,1.387-1.663,1.173a1.479,1.479,0,0,1-.594-1.947c.3-.861,1.04-1.387,1.664-1.173a1.478,1.478,0,0,1,.593,1.946" transform="translate(-92.157 -19.02)" fill="#e8b07d"/>
        <path id="Trazado_205755" data-name="Trazado 205755" d="M184.723,53.987l-6.612-2.2.967-2.963,6.613,2.2Z" transform="translate(-85.515 -23.442)" fill="#fff"/>
        <rect id="Rectángulo_45121" data-name="Rectángulo 45121" width="6.259" height="3.117" transform="matrix(0.829, -0.559, 0.559, 0.829, 56.195, 83.941)" fill="#fff"/>
        <path id="Trazado_205756" data-name="Trazado 205756" d="M104.042,139.038c-.36-.493-8.74-12.186-2.442-21.63,6.532-9.794,24.225-5.818,33.958.673l-4.009,4.249c-10.923-1.269-9.462-2.51-14.211-3.068-2.2-.258-7.511-.545-9.439,2.347-3.311,4.964,2.209,12.9,2.266,12.975Z" transform="translate(-47.658 -53.543)" fill="#292936"/>
        <path id="Trazado_205925" data-name="Trazado 205925" d="M0,36,12.547,0" transform="translate(83.991 27.835)" fill="none" stroke="#292936" stroke-width="8"/>
        <path id="Trazado_205757" data-name="Trazado 205757" d="M127.533,174.059h0" transform="translate(-61.219 -83.541)" fill="#292936"/>
        <path id="Trazado_205758" data-name="Trazado 205758" d="M162.064,178.718a8.211,8.211,0,0,0-2.124-4.595c-3.259-4.078-7.528-7.5-11.564-10.806A4.613,4.613,0,0,0,145,161.846H132.062a5.178,5.178,0,0,0-4.514,6.64c.018.062.036.123.058.182.053.155.11.31.177.462-.228-.527-.345-.8-.392-.906.053.123.173.414.251.626.217.593.4,1.2.582,1.8.278.946.507,1.906.716,2.87.143.662.267,1.329.382,2,.064.369.121.74.177,1.109.011.072.02.13.028.18.008.073.021.178.039.333a69.229,69.229,0,0,1-2.314,26.426c-.655,2.425,7.108,4.778,7.816,2.155a76.638,76.638,0,0,0,2.6-28.582c-.215-1.871-.492-3.743-.88-5.589h8.853a85.424,85.424,0,0,1,7.587,7.157c.212.231.417.468.621.707l.039.045a6.389,6.389,0,0,1,.025.878c0,.044-.007.073-.01.109-.013.071-.03.171-.053.319-.068.431-.149.861-.229,1.29a102.845,102.845,0,0,1-2.76,11.032c-.764,2.507,7.058,4.648,7.817,2.155a106.828,106.828,0,0,0,2.843-11.475,19.116,19.116,0,0,0,.542-5.052" transform="translate(-61.077 -77.707)" fill="#292936"/>
        <path id="Trazado_205759" data-name="Trazado 205759" d="M138.274,110.75c-12.666,0-11.095,6.407-11.095,6.407v24.976c5.429,2.777,18.229,3.209,22.085-1.93v-24.95s1.675-4.5-10.991-4.5" transform="translate(-61.032 -53.174)" fill="#292936"/>
        <path id="Trazado_205760" data-name="Trazado 205760" d="M138.123,113.317l8.152,13.5,3.167-13.5Z" transform="translate(-66.316 -54.407)" fill="#fff"/>
        <path id="Trazado_205761" data-name="Trazado 205761" d="M149.921,115.2l-.065-.024a15.5,15.5,0,0,0-11.2,0l-.053.022,2.241,3.691,3.644-2.489,4.572,2.489Z" transform="translate(-66.544 -54.796)" fill="#aaa09e"/>
        <path id="Trazado_205762" data-name="Trazado 205762" d="M152.141,124.057l-.648,2.764-1.669-2.764L149,113.318Z" transform="translate(-71.538 -54.407)" fill="#c72e2e"/>
        <path id="Trazado_205763" data-name="Trazado 205763" d="M148.026,117.1h.019a1.029,1.029,0,0,0,1.1-.759l.311-1.787c.119-.678-.629-1.359-1.494-1.359h-1.309c-.865,0-1.358.681-.987,1.359l.978,1.787a1.6,1.6,0,0,0,1.382.759" transform="translate(-69.878 -54.347)" fill="#c72e2e"/>
        <path id="Trazado_205764" data-name="Trazado 205764" d="M153.973,127.167l3.013-13.13,2.941.991a1.094,1.094,0,0,1,.535,1.681l-1.085,1.491-1.519.516,1.011,1.781Z" transform="translate(-73.926 -54.752)" fill="#1b1c1d"/>
        <path id="Trazado_205765" data-name="Trazado 205765" d="M143.417,127.167l-8.363-13.13-2.464.815a.877.877,0,0,0-.333,1.465l1.958,1.884,1.711.516-.347,1.781Z" transform="translate(-63.37 -54.752)" fill="#1b1c1d"/>
        <path id="Trazado_205766" data-name="Trazado 205766" d="M149.437,112.329l-.065-.024a15.5,15.5,0,0,0-11.205,0l-.053.022,2.241,3.69,3.7-2.214,4.521,2.214Z" transform="translate(-66.312 -53.418)" fill="#fff"/>
        <path id="Trazado_205767" data-name="Trazado 205767" d="M153.795,126.04l3.013-14.349,2.941.991a1.094,1.094,0,0,1,.535,1.682l-1.086,1.49-1.519.516,1.011,1.781Z" transform="translate(-73.841 -53.626)" fill="#353545"/>
        <path id="Trazado_205768" data-name="Trazado 205768" d="M143.239,126.041l-8.363-14.349-2.464.815a.877.877,0,0,0-.333,1.465l1.958,1.884,1.711.516-.347,1.781Z" transform="translate(-63.285 -53.626)" fill="#353545"/>
        <path id="Trazado_205769" data-name="Trazado 205769" d="M124.442,79.813s-7.712-12.973.01-16.5c1.819-6.985,11.32-5.222,13.642-4.566a4.081,4.081,0,0,0,3.7-.535,3.65,3.65,0,0,1,.852,2.177l1.8-2.348c2.379,1.489,3.7,5.325.364,10.787Z" transform="translate(-58.103 -27.867)" fill="#6b4528"/>
        <rect id="Rectángulo_45122" data-name="Rectángulo 45122" width="4.988" height="8.194" rx="2.494" transform="translate(74.682 52.057)" fill="#e29b62"/>
        <path id="Trazado_205770" data-name="Trazado 205770" d="M136.618,67.18l-6.3.509a7.608,7.608,0,0,0-6.779,8.348l.149,1.842-.033.035a2.742,2.742,0,0,0-.392,0l-.074.006a3,3,0,0,0-2.669,3.286l.005.062a2.993,2.993,0,0,0,3.161,2.813l.075-.006a2.741,2.741,0,0,0,.4-.064l.037.028a7.558,7.558,0,0,0,7.967,6.814l6.333-.513a7.607,7.607,0,0,0,6.779-8.347l-.621-7.665a7.608,7.608,0,0,0-8.034-7.148" transform="translate(-57.859 -32.244)" fill="#e8b07d"/>
        <path id="Trazado_205771" data-name="Trazado 205771" d="M128.858,77.665c-.3-3.646-1.428-8.172,1.584-10.911,1.525-1.387,3.321-1.527,5.23-1.681,1.554-.126,3.107-.28,4.664-.378,1.68-.105,1.472-2.783-.218-2.7-1.705.081-3.4.276-5.1.414a9.82,9.82,0,0,0-6.479,2.505,9.47,9.47,0,0,0-2.689,7.7q.212,2.632.426,5.263a1.3,1.3,0,1,0,2.584-.209" transform="translate(-60.404 -29.763)" fill="#6b4528"/>
        <path id="Trazado_205772" data-name="Trazado 205772" d="M144.056,89.214c.044.538-.237,1-.627,1.031s-.74-.38-.784-.918.237-1,.626-1.031.741.38.785.918" transform="translate(-68.485 -42.393)" fill="#1b1c1d"/>
        <path id="Trazado_205773" data-name="Trazado 205773" d="M159.306,87.98c.044.538-.237,1-.626,1.031s-.741-.38-.785-.918.237-1,.627-1.031.74.379.784.918" transform="translate(-75.807 -41.8)" fill="#1b1c1d"/>
        <path id="Trazado_205774" data-name="Trazado 205774" d="M158.732,81.263a2.087,2.087,0,0,0-3.472.245c-.188.3.289.579.476.278a1.539,1.539,0,0,1,2.607-.134c.237.264.625-.126.389-.389" transform="translate(-74.523 -38.627)" fill="#6b4528"/>
        <path id="Trazado_205775" data-name="Trazado 205775" d="M140.5,83.068a1.537,1.537,0,0,1,2.6-.246c.235.266.623-.124.389-.389a2.088,2.088,0,0,0-3.462.358c-.19.3.286.576.475.278" transform="translate(-67.208 -39.211)" fill="#6b4528"/>
        <path id="Trazado_205776" data-name="Trazado 205776" d="M148.179,62.774s.451,4.095-7.719,4.756-11.2.464-10.594,7.949c0,0-2.511-10.856,4.54-12.458s9.889,1.679,13.773-.248" transform="translate(-62.143 -30.04)" fill="#6b4528"/>
        <path id="Trazado_205777" data-name="Trazado 205777" d="M145.237,98.678a3.718,3.718,0,0,0,7.411-.6Z" transform="translate(-69.732 -47.09)" fill="#fff"/>
        <path id="Trazado_205778" data-name="Trazado 205778" d="M149.294,166.461v-1.024c-9.043,6.382-20.318,2.293-22.085,1.587v1.367c5.429,2.777,18.229,3.209,22.085-1.93" transform="translate(-61.076 -79.431)" fill="#1b1c1d"/>
        <line id="Línea_274" data-name="Línea 274" x2="0.644" y2="16.751" transform="translate(79.959 72.413)" fill="none" stroke="#1b1c1d" stroke-miterlimit="10" stroke-width="0.92"/>
        <path id="Trazado_205779" data-name="Trazado 205779" d="M150.706,168.415l.483-.289a2.826,2.826,0,0,0,1.34-1.958l.29-1.714.346,1.054a2.829,2.829,0,0,0,2.689,1.948h.02a12.592,12.592,0,0,1-5.168.958" transform="translate(-72.358 -78.959)" fill="#fff"/>
        <path id="Trazado_205780" data-name="Trazado 205780" d="M353.713,275.031,348.7,273.4a1.029,1.029,0,0,0-1.029,1.029v.021a1.029,1.029,0,0,1-1.029,1.029h-2.457a2.892,2.892,0,0,0-2.892,2.892v.033l.012.061c-.007.081-.012.162-.012.245v.033a.366.366,0,0,0,.366.365h7.375l1.142-.543v.543h4.567v-3.053a1.029,1.029,0,0,0-1.029-1.03" transform="translate(-163.863 -131.269)" fill="#271614"/>
        <path id="Trazado_205781" data-name="Trazado 205781" d="M353.957,273.289V272.08a1.049,1.049,0,0,0-.243-.032H348.7a1.03,1.03,0,0,0-1.03,1.03v.021a1.029,1.029,0,0,1-1.029,1.029h-2.457a2.892,2.892,0,0,0-2.892,2.892v.033a.365.365,0,0,0,.365.366h6.683a2.167,2.167,0,0,0,1.258-.4l.011-.008a2.168,2.168,0,0,1,1.258-.4h3.875v-1.34a2.112,2.112,0,0,0-.56-1.366.93.93,0,0,1-.226-.61" transform="translate(-163.863 -130.617)" fill="#8e3728"/>
        <path id="Trazado_205782" data-name="Trazado 205782" d="M391.249,278.376a2.891,2.891,0,0,0-2.892-2.892H385.9a1.029,1.029,0,0,1-1.029-1.029v-.021a1.029,1.029,0,0,0-1.03-1.029l-5.013,1.626a1.029,1.029,0,0,0-1.029,1.029v2.986h4.567V278.5l1.142.543h7.374a.365.365,0,0,0,.366-.365v-.033c0-.064-.006-.127-.01-.191l.01-.047Z" transform="translate(-181.391 -131.269)" fill="#271614"/>
        <path id="Trazado_205783" data-name="Trazado 205783" d="M378.585,273.289V272.08a1.05,1.05,0,0,1,.243-.032h5.013a1.03,1.03,0,0,1,1.03,1.03v.021a1.029,1.029,0,0,0,1.029,1.029h2.457a2.892,2.892,0,0,1,2.892,2.892v.033a.366.366,0,0,1-.365.366H384.2a2.167,2.167,0,0,1-1.258-.4l-.011-.008a2.168,2.168,0,0,0-1.258-.4H377.8v-1.34a2.112,2.112,0,0,1,.56-1.366.93.93,0,0,0,.226-.61" transform="translate(-181.39 -130.617)" fill="#8e3728"/>
        <path id="Trazado_205784" data-name="Trazado 205784" d="M358.906,232.035l1.245-39.84h3.737l.844,39.636s6.252.512,8.594-.711h.037l-1.519-46.829H351.8l-1.466,46.829h.039c2.518,1.111,8.528.914,8.528.914" transform="translate(-168.206 -88.483)" fill="#292936"/>
        <path id="Trazado_205785" data-name="Trazado 205785" d="M352.773,186.3h20.04l.482,17.725-7.922,1.345-.11-1.412h-4.549l-.088,1.412-8.272-1.416Z" transform="translate(-169.173 -89.446)" fill="#1b1c1d"/>
        <path id="Trazado_205786" data-name="Trazado 205786" d="M362.764,142.844c-12.322,0-10.793,6.783-10.793,6.783v28.764c5.281,2.94,18.565,2.62,21.485-1.048V147.612s1.629-4.768-10.692-4.768" transform="translate(-168.961 -68.583)" fill="#292936"/>
        <path id="Trazado_205787" data-name="Trazado 205787" d="M377.107,172.7q.246,10.412.492,20.825a.4.4,0,0,0,.8,0L377.9,172.7a.4.4,0,0,0-.795,0" transform="translate(-181.058 -82.735)" fill="#1b1c1d"/>
        <path id="Trazado_205788" data-name="Trazado 205788" d="M365.1,196.41a5.151,5.151,0,0,1-1.511-.619,3.186,3.186,0,0,1-1.155-1.206l.018.766-1.3.05.035.665c-.071.006-.388.03-.888.03a16.732,16.732,0,0,1-8.245-2.122v-8.914c1.887,3.668,6.863,3.952,8.343,3.952.258,0,.41-.008.42-.009l.029.556,1.413-.054c.166-.188.36-.391.548-.634,0,0,.394-1.476.844-1.476a.334.334,0,0,1,.26.179,2.188,2.188,0,0,1,.057,2.365c.454-.011.934-.091,1.369-.126q.029,1.21.057,2.421a5.988,5.988,0,0,1-1.2.232s.1.008.258.008a5.983,5.983,0,0,0,.943-.077q.045,1.947.091,3.9-.19.062-.387.118m1.141-1.89q-.028-1.156-.055-2.312a1.161,1.161,0,0,1,.314-.047c.98,0,.732,1.663-.259,2.36m-.062-2.632-.048-2.046a.809.809,0,0,1,.63.56,1.183,1.183,0,0,1-.582,1.486" transform="translate(-169.03 -88.853)" fill="#202126"/>
        <path id="Trazado_205789" data-name="Trazado 205789" d="M377.76,200.667q-.045-1.948-.091-3.9a5.4,5.4,0,0,0,.74-.174l.051-.015q.027,1.156.055,2.312a1.665,1.665,0,0,1-.475.233l.016.009a.866.866,0,0,1-.111,1.469l-.183.061m-.1-4.058q-.029-1.21-.057-2.421c.12-.01.236-.016.348-.016a1.992,1.992,0,0,1,.448.044l.048,2.046a3.357,3.357,0,0,1-.787.346" transform="translate(-181.298 -93.228)" fill="#1b1c1d"/>
        <path id="Trazado_205790" data-name="Trazado 205790" d="M368.919,190.25c.194-.375.758-.633,1.312-1.081,0,0,1-2,1.5-1.1a2,2,0,0,1-.329,2.4c1.344.192,2.959-.032,3.173,1,.406,1.974-3.329,1.591-3.329,1.591a7.659,7.659,0,0,0,2.3.128c1.91-.2.967,2.314-.853,2.485,1.357.939.492,2.942-2.7.629a4.786,4.786,0,0,1-1.652-3.608,3.787,3.787,0,0,1,.584-2.45" transform="translate(-176.839 -90.185)" fill="#e8b07d"/>
        <path id="Trazado_205791" data-name="Trazado 205791" d="M364.71,190.756l-.813,5.934,2.718.358.812-5.934Z" transform="translate(-174.716 -91.587)" fill="#fff"/>
        <path id="Trazado_205792" data-name="Trazado 205792" d="M351.374,173.96c-.534-.049-13.127-1.314-15.519-11.766-1.6-7.009,1.931-14.355,8.506-18.744,1.36-.908,5.892-2.47,7-1.437,1.453,1.357-4.171,9.249-4.929,9.981-1.474,1.424-4.825,5.08-4.093,8.281,1.257,5.495,9.7,6.471,9.786,6.48Z" transform="translate(-161.068 -68.021)" fill="#292936"/>
        <path id="Trazado_205793" data-name="Trazado 205793" d="M377.727,160.595l2.931-15.191,4.237,1.553-1.911,2.854-1.477.547.984,1.885Z" transform="translate(-181.355 -69.812)" fill="#1b1c1d"/>
        <path id="Trazado_205794" data-name="Trazado 205794" d="M366.758,160.6,358.622,145.4l-3.741,1.345,2.925,3.062,1.665.547-.338,1.885Z" transform="translate(-170.387 -69.813)" fill="#1b1c1d"/>
        <path id="Trazado_205795" data-name="Trazado 205795" d="M362.618,145.561l7.93,14.3,3.08-14.3Z" transform="translate(-174.101 -69.888)" fill="#fff"/>
        <path id="Trazado_205796" data-name="Trazado 205796" d="M374.095,147.554l-.063-.025a13.935,13.935,0,0,0-10.9,0l-.051.024,2.18,3.907,3.545-2.635,4.448,2.635Z" transform="translate(-174.323 -70.3)" fill="#aaa09e"/>
        <path id="Trazado_205797" data-name="Trazado 205797" d="M376.254,156.933l-.63,2.925L374,156.932l-.8-11.368Z" transform="translate(-179.181 -69.889)" fill="#100f0f"/>
        <path id="Trazado_205798" data-name="Trazado 205798" d="M372.251,149.566h.019a1.014,1.014,0,0,0,1.069-.8l.3-1.892a1.4,1.4,0,0,0-1.453-1.439h-1.274a.975.975,0,0,0-.96,1.439l.951,1.892a1.536,1.536,0,0,0,1.344.8" transform="translate(-177.566 -69.825)" fill="#100f0f"/>
        <path id="Trazado_205799" data-name="Trazado 205799" d="M373.623,144.515l-.063-.025a13.936,13.936,0,0,0-10.9,0l-.051.024,2.181,3.907,3.594-2.344,4.4,2.344Z" transform="translate(-174.097 -68.841)" fill="#fff"/>
        <path id="Trazado_205800" data-name="Trazado 205800" d="M377.863,159.031l2.931-15.191,4.237,1.553-1.911,2.854-1.477.547.984,1.885Z" transform="translate(-181.421 -69.061)" fill="#353545"/>
        <path id="Trazado_205801" data-name="Trazado 205801" d="M366.895,159.031l-8.136-15.191-3.74,1.346,2.925,3.062,1.665.547-.338,1.885Z" transform="translate(-170.453 -69.062)" fill="#353545"/>
        <path id="Trazado_205802" data-name="Trazado 205802" d="M346.687,109.781s-8.165-13.734.011-17.469c1.479-6.132,10.443-6.329,14.426-5.653,4.761.808,9.991,6.7,6.457,12.487Z" transform="translate(-164.712 -41.479)" fill="#ae7333"/>
        <rect id="Rectángulo_45123" data-name="Rectángulo 45123" width="5.28" height="8.675" rx="2.64" transform="translate(190.807 68.418)" fill="#e29b62"/>
        <path id="Trazado_205803" data-name="Trazado 205803" d="M359.577,96.719l-6.671.54a8.054,8.054,0,0,0-7.176,8.837l.158,1.951-.035.037a2.909,2.909,0,0,0-.415,0l-.078.006a3.171,3.171,0,0,0-2.826,3.48l.005.066a3.169,3.169,0,0,0,3.346,2.977l.081-.007a2.885,2.885,0,0,0,.418-.068l.04.03a8,8,0,0,0,8.434,7.213l6.7-.543a8.053,8.053,0,0,0,7.177-8.837l-.657-8.115a8.054,8.054,0,0,0-8.5-7.567" transform="translate(-164.453 -46.426)" fill="#e8b07d"/>
        <path id="Trazado_205804" data-name="Trazado 205804" d="M367.451,120.045c.046.569-.251,1.059-.663,1.092s-.784-.4-.83-.971.251-1.058.663-1.092.784.4.83.971" transform="translate(-175.703 -57.17)" fill="#1b1c1d"/>
        <path id="Trazado_205805" data-name="Trazado 205805" d="M383.595,118.739c.046.57-.251,1.059-.663,1.092s-.784-.4-.831-.971.251-1.059.664-1.092.784.4.83.971" transform="translate(-183.453 -56.543)" fill="#1b1c1d"/>
        <path id="Trazado_205806" data-name="Trazado 205806" d="M382.837,112.05a2.209,2.209,0,0,0-3.622-.676c-.274.257.139.669.412.412a1.627,1.627,0,0,1,2.706.558c.171.334.674.04.5-.294" transform="translate(-182.027 -53.15)" fill="#6b4528"/>
        <path id="Trazado_205807" data-name="Trazado 205807" d="M363.947,113.7a2.257,2.257,0,0,1,3.323-.927c.351.219.674-.336.324-.555a2.9,2.9,0,0,0-4.2,1.158c-.185.369.368.694.554.324" transform="translate(-174.455 -53.652)" fill="#6b4528"/>
        <path id="Trazado_205808" data-name="Trazado 205808" d="M366.686,91.54a6.2,6.2,0,0,1-2.028.668,1.329,1.329,0,0,0-1.376-.983c-1.252.06-2.5.177-3.747.292a17.025,17.025,0,0,0-3.825.439c-.1.02-.19.04-.283.061l-.032.007-.016,0a8.9,8.9,0,0,0-4.358,2.287,10.03,10.03,0,0,0-2.846,8.152q.225,2.786.451,5.572a1.373,1.373,0,1,0,2.736-.221c-.194-2.4-.734-5.172-.341-7.617,1.207-2.865,4.607-2.9,10.783-3.4,8.648-.7,4.882-5.256,4.882-5.256" transform="translate(-167.148 -43.799)" fill="#ae7333"/>
        <path id="Trazado_205809" data-name="Trazado 205809" d="M371.518,133.668l4.228-.535c.793-.1.8-1.362,0-1.26l-4.228.536c-.793.1-.8,1.361,0,1.259" transform="translate(-178.087 -63.313)" fill="#da894a"/>
        <path id="Trazado_205810" data-name="Trazado 205810" d="M407.086,211.054a5.51,5.51,0,0,0-.236,1.683s-1.186,1.9-.15,1.853a2,2,0,0,0,1.874-1.535c.866,1.045,1.52,2.539,2.516,2.178,1.895-.685-.385-3.669-.385-3.669a7.666,7.666,0,0,1,1.31,1.892c.832,1.73,2.479-.386,1.673-2.026,1.511.665,2.765-1.118-.879-2.634a4.789,4.789,0,0,0-3.94.479,3.786,3.786,0,0,0-1.783,1.779" transform="translate(-195.062 -100.126)" fill="#e8b07d"/>
        <path id="Trazado_205811" data-name="Trazado 205811" d="M406.276,208.218l.35.792c3.476,1.438,4.687-2.133,4.687-2.133l-.476-1.178Z" transform="translate(-195.063 -98.761)" fill="#fff"/>
        <path id="Trazado_205812" data-name="Trazado 205812" d="M385.388,158.841l10.09,22.8c4.22,1.746,5.692-2.59,5.692-2.59l-11.517-28.486Z" transform="translate(-185.034 -72.291)" fill="#292936"/>
        <path id="Trazado_205813" data-name="Trazado 205813" d="M398.912,201.868c0,2.031,3.7,3.677,8.263,3.677s8.263-1.646,8.263-3.677-3.7-3.677-8.263-3.677-8.263,1.646-8.263,3.677" transform="translate(-191.527 -95.157)" fill="#353545"/>
        <path id="Trazado_205814" data-name="Trazado 205814" d="M384.152,321.874v-.033a2.891,2.891,0,0,1,2.892-2.892H389.5a1.029,1.029,0,0,0,1.029-1.029V317.9a1.03,1.03,0,0,1,1.03-1.03l5.013,1.626a1.029,1.029,0,0,1,1.029,1.029v2.715h-4.567V321.7l-1.142.543h-7.375a.366.366,0,0,1-.365-.366" transform="translate(-184.44 -152.137)" fill="#271614"/>
        <path id="Trazado_205815" data-name="Trazado 205815" d="M384.152,322.656v-.033a2.892,2.892,0,0,1,2.892-2.892H389.5a1.029,1.029,0,0,0,1.029-1.029v-.021a1.029,1.029,0,0,1,1.03-1.029l5.013,1.626a1.029,1.029,0,0,1,1.029,1.029v2.715h-4.567v-.543l-1.142.543h-7.375a.366.366,0,0,1-.365-.366" transform="translate(-184.44 -152.513)" fill="#271614"/>
        <path id="Trazado_205816" data-name="Trazado 205816" d="M396.815,316.754v-1.209a1.017,1.017,0,0,0-.243-.032h-5.013a1.03,1.03,0,0,0-1.03,1.03v.021a1.03,1.03,0,0,1-1.029,1.03h-2.457a2.891,2.891,0,0,0-2.892,2.891v.033a.365.365,0,0,0,.365.365H391.2a2.166,2.166,0,0,0,1.258-.4l.011-.008a2.165,2.165,0,0,1,1.257-.4H397.6v-1.34a2.112,2.112,0,0,0-.56-1.366.933.933,0,0,1-.226-.61" transform="translate(-184.44 -151.486)" fill="#5e2f1f"/>
        <path id="Trazado_205817" data-name="Trazado 205817" d="M434.108,321.874v-.033a2.892,2.892,0,0,0-2.892-2.892h-2.457a1.029,1.029,0,0,1-1.029-1.029V317.9a1.03,1.03,0,0,0-1.03-1.03l-5.012,1.626a1.029,1.029,0,0,0-1.029,1.029v2.715h4.567V321.7l1.142.543h7.375a.366.366,0,0,0,.365-.366" transform="translate(-201.968 -152.137)" fill="#271614"/>
        <path id="Trazado_205818" data-name="Trazado 205818" d="M434.108,322.656v-.033a2.892,2.892,0,0,0-2.892-2.892h-2.457a1.029,1.029,0,0,1-1.029-1.029v-.021a1.03,1.03,0,0,0-1.03-1.029l-5.012,1.626a1.029,1.029,0,0,0-1.029,1.029v2.715h4.567v-.543l1.142.543h7.375a.366.366,0,0,0,.365-.366" transform="translate(-201.968 -152.513)" fill="#271614"/>
        <path id="Trazado_205819" data-name="Trazado 205819" d="M421.444,316.754v-1.209a1.021,1.021,0,0,1,.243-.032H426.7a1.03,1.03,0,0,1,1.03,1.03v.021a1.03,1.03,0,0,0,1.029,1.03h2.457a2.891,2.891,0,0,1,2.892,2.891v.033a.365.365,0,0,1-.365.365h-6.683a2.163,2.163,0,0,1-1.257-.4l-.011-.008a2.168,2.168,0,0,0-1.258-.4h-3.875v-1.34a2.113,2.113,0,0,1,.56-1.366.93.93,0,0,0,.226-.61" transform="translate(-201.968 -151.486)" fill="#5e2f1f"/>
        <path id="Trazado_205820" data-name="Trazado 205820" d="M443.7,320.979l-.836-.7c-.249-.21-.61.148-.359.359l.836.7c.249.21.61-.148.359-.359" transform="translate(-212.417 -153.741)" fill="#874634"/>
        <path id="Trazado_205821" data-name="Trazado 205821" d="M407.6,277.654l-.013-26.229H404.14l-.093,26.229-7.915-.123.6-42.34h18.242l1.276,42.34Z" transform="translate(-190.193 -112.921)" fill="#4e5657"/>
        <path id="Trazado_205822" data-name="Trazado 205822" d="M415.4,237.042H397.076l-.064,17.573h7.526l.022-2.152h3.448l.006,2.152H415.9Z" transform="translate(-190.615 -113.81)" fill="#3e4349"/>
        <path id="Trazado_205823" data-name="Trazado 205823" d="M405.743,197.655c11.287,0,9.887,6.887,9.887,6.887v26.844H395.949V204.57s-1.493-6.915,9.794-6.915" transform="translate(-190.073 -94.899)" fill="#626971"/>
        <path id="Trazado_205824" data-name="Trazado 205824" d="M427.175,246.517c-.686-.5-.165-1.031.51-1.43-.644.194-1.325.244-1.632-.259-.52-.853,1.53-1.925,2.321-2.3a10.825,10.825,0,0,0-1.9.544c-1.039.4-1.84-.976-.034-1.631a10.858,10.858,0,0,1,1.489-.451,8.583,8.583,0,0,1-.218-1.781c-.037-1.3,1.353-.823,1.479,1.056l.653-.352v5.907c-.913.754-2.195,1.039-2.665.7" transform="translate(-204.228 -114.499)" fill="#3e4349"/>
        <path id="Trazado_205825" data-name="Trazado 205825" d="M398.68,245.861c.686-.5.164-1.03-.51-1.43.644.195,1.325.244,1.632-.258.52-.853-1.53-1.925-2.321-2.3a10.846,10.846,0,0,1,1.9.544c1.039.4,1.84-.976.034-1.631a10.744,10.744,0,0,0-1.489-.451,8.562,8.562,0,0,0,.219-1.781c.037-1.3-1.353-.822-1.479,1.056l-.653-.351v5.907c.913.754,2.2,1.038,2.666.7" transform="translate(-190.136 -114.185)" fill="#3e4349"/>
        <path id="Trazado_205826" data-name="Trazado 205826" d="M395.76,240.052a10.838,10.838,0,0,1,1.9.545c1.039.4,1.84-.977.033-1.632a10.9,10.9,0,0,0-1.489-.451,8.6,8.6,0,0,0,.219-1.78c.037-1.314-1.392-.813-1.486,1.128a16.3,16.3,0,0,0-1.278,2.216c-.067.155-.133.32-.2.5-.953,2.611,2.634,4.091,3.5,3.462,1.344-.979-1.943-2.074-1.943-2.074s2.4,1.47,3.065.386c.52-.853-1.531-1.925-2.321-2.3" transform="translate(-188.834 -113.31)" fill="#e8b07d"/>
        <path id="Trazado_205827" data-name="Trazado 205827" d="M414.36,225.162v19.646a.254.254,0,0,0,.508,0V225.162a.254.254,0,0,0-.508,0" transform="translate(-198.944 -107.988)" fill="#3e4349"/>
        <line id="Línea_275" data-name="Línea 275" x1="2.209" y2="4.103" transform="translate(202.95 123.967)" fill="none" stroke="#fff" stroke-miterlimit="10" stroke-width="5.19"/>
        <path id="Trazado_205828" data-name="Trazado 205828" d="M382.043,223.831c-.4-.216-9.82-5.408-8.781-14.129,1.078-9.044,14.1-12.425,22.692-11.3l-.694,5.817a24.115,24.115,0,0,0-10.97,1.316c-1.538.582-5.15,2.226-5.468,4.9-.546,4.585,5.734,8.163,5.8,8.2Z" transform="translate(-179.174 -95.157)" fill="#626971"/>
        <path id="Trazado_205829" data-name="Trazado 205829" d="M430.528,239.838a11.631,11.631,0,0,0-1.971.538c-1.076.395-1.906-.964-.035-1.612a11.571,11.571,0,0,1,1.543-.445,4.87,4.87,0,0,1-.64-2.555c.231-1.284,1.342-.619,1.522,1.135a30.967,30.967,0,0,1,1.755,2.964c.069.153.137.316.206.495.988,2.581-2.729,4.043-3.621,3.421-1.392-.969,2.012-2.05,2.012-2.05s-2.49,1.452-3.175.382c-.539-.843,1.585-1.9,2.4-2.272" transform="translate(-205.21 -112.875)" fill="#e8b07d"/>
        <line id="Línea_276" data-name="Línea 276" x2="2.288" y2="4.053" transform="translate(226.753 123.434)" fill="none" stroke="#fff" stroke-miterlimit="10" stroke-width="5.25"/>
        <path id="Trazado_205830" data-name="Trazado 205830" d="M427.424,222.982c.415-.214,10.171-5.343,9.095-13.96-1.116-8.936-14.606-12.276-23.5-11.169l.718,5.748a26.1,26.1,0,0,1,11.363,1.3c1.593.576,5.335,2.2,5.664,4.838.566,4.53-5.939,8.065-6,8.1Z" transform="translate(-198.298 -94.896)" fill="#626971"/>
        <path id="Trazado_205831" data-name="Trazado 205831" d="M415.193,199.644l-5.021,14.7-5.065-14.7Z" transform="translate(-194.501 -95.854)" fill="#fff"/>
        <path id="Trazado_205832" data-name="Trazado 205832" d="M405.152,201.692l.054-.026a11.508,11.508,0,0,1,9.986,0l.05.024-1.384,4.018L410.2,203l-3.661,2.71Z" transform="translate(-194.523 -96.278)" fill="#aaa09e"/>
        <path id="Trazado_205833" data-name="Trazado 205833" d="M412.863,211.336l1.037,3.009,1.028-3.009-1.05-11.69Z" transform="translate(-198.225 -95.855)" fill="#c72e2e"/>
        <path id="Trazado_205834" data-name="Trazado 205834" d="M413.254,203.762h-.018a1.153,1.153,0,0,1-1.106-.827l-.574-1.945a1.153,1.153,0,0,1,1.105-1.48h1.167a1.153,1.153,0,0,1,1.105,1.48l-.574,1.945a1.153,1.153,0,0,1-1.106.827" transform="translate(-197.575 -95.79)" fill="#c72e2e"/>
        <path id="Trazado_205835" data-name="Trazado 205835" d="M405.069,197.084l-.042-.434a7.536,7.536,0,0,1,4.928-2.337c3.025-.023,6.037,1.965,5.154,2.747l.05.024-1.384,4.018-3.661-2.41-3.661,2.41Z" transform="translate(-194.463 -93.295)" fill="#fff"/>
        <path id="Trazado_205836" data-name="Trazado 205836" d="M406.571,213.268,401.792,197.4l-4.193,1.289.264,1.772,2.2,2.935,1.439.562L400.9,205.9Z" transform="translate(-190.897 -94.779)" fill="#595f63"/>
        <path id="Trazado_205837" data-name="Trazado 205837" d="M414.857,214.225l5.069-14.4,3.994-.429-.356,1.813-2.2,3.148-1.439.562.605,1.939Z" transform="translate(-199.182 -95.735)" fill="#595f63"/>
        <path id="Trazado_205838" data-name="Trazado 205838" d="M406.525,213.286,401.77,197.44,397.5,198.71l2.514,3.487,1.44.562-.606,1.939Z" transform="translate(-190.85 -94.796)" fill="#879097"/>
        <path id="Trazado_205839" data-name="Trazado 205839" d="M414.76,212.9l5.151-15.948,3.962,1.118-2.606,3.743-1.439.561.605,1.939Z" transform="translate(-199.136 -94.562)" fill="#879097"/>
        <path id="Trazado_205840" data-name="Trazado 205840" d="M388.714,162.669s-7.686-13.7.977-17.661c1.534-5.814,7.6-6.054,11.4-5.59a34.11,34.11,0,0,0,5.512.155c5.2-.208,8.227,5.41,4.951,10.771Z" transform="translate(-185.121 -66.864)" fill="#8b7970"/>
        <path id="Rectángulo_45124" data-name="Rectángulo 45124" d="M2.8,0h0a2.8,2.8,0,0,1,2.8,2.8V6.4a2.8,2.8,0,0,1-2.8,2.8h0A2.8,2.8,0,0,1,0,6.395V2.8A2.8,2.8,0,0,1,2.8,0Z" transform="translate(212.952 95.928)" fill="#e29b62"/>
        <path id="Trazado_205841" data-name="Trazado 205841" d="M401.728,147.557l-7.068.572a8.533,8.533,0,0,0-7.6,9.363l.167,2.068-.037.04a3.039,3.039,0,0,0-.44,0l-.082.007a3.36,3.36,0,0,0-2.995,3.687l.006.069a3.357,3.357,0,0,0,3.546,3.155l.085-.007a3.108,3.108,0,0,0,.443-.072l.042.032a8.478,8.478,0,0,0,8.937,7.643l7.1-.576a8.534,8.534,0,0,0,7.6-9.364l-.7-8.6a8.534,8.534,0,0,0-9.012-8.018" transform="translate(-184.203 -70.833)" fill="#e8b07d"/>
        <path id="Trazado_205842" data-name="Trazado 205842" d="M393.024,159.317c-.331-4.09-1.6-9.166,1.777-12.239,1.711-1.557,3.726-1.713,5.867-1.886,1.744-.141,3.486-.314,5.232-.423,1.884-.118,1.651-3.123-.245-3.033-1.912.09-3.816.309-5.724.464-2.724.22-5.194.806-7.267,2.81a10.629,10.629,0,0,0-3.017,8.638q.239,2.952.478,5.9a1.455,1.455,0,1,0,2.9-.234" transform="translate(-187.059 -68.05)" fill="#8b7970"/>
        <path id="Trazado_205843" data-name="Trazado 205843" d="M410.073,172.273c.049.6-.266,1.122-.7,1.158s-.831-.425-.88-1.03.266-1.121.7-1.156.832.425.88,1.028" transform="translate(-196.123 -82.218)" fill="#1b1c1d"/>
        <path id="Trazado_205844" data-name="Trazado 205844" d="M427.18,170.889c.048.6-.266,1.121-.7,1.157s-.831-.425-.88-1.029.266-1.121.7-1.157.831.425.88,1.029" transform="translate(-204.337 -81.553)" fill="#1b1c1d"/>
        <path id="Trazado_205845" data-name="Trazado 205845" d="M426.528,163.784a2.584,2.584,0,0,0-2-.425,2.557,2.557,0,0,0-1.9.7c-.233.324.3.632.533.311s1.019-.361,1.365-.394c.447-.043,1.214-.109,1.56.244.279.285.716-.152.437-.437" transform="translate(-202.889 -78.422)" fill="#8b7970"/>
        <path id="Trazado_205846" data-name="Trazado 205846" d="M406.075,165.877c.318-.43,1.389-.389,1.849-.4.443-.015,1.367-.09,1.716.251.285.278.722-.158.437-.437-.538-.525-1.649-.448-2.329-.426-.711.023-1.744.077-2.206.7-.236.321.3.629.533.311" transform="translate(-194.682 -79.146)" fill="#8b7970"/>
        <path id="Trazado_205847" data-name="Trazado 205847" d="M414.7,142.614s.505,4.594-8.659,5.335-12.564.521-11.884,8.918c0,0-2.817-12.178,5.092-13.975s11.094,1.884,15.45-.278" transform="translate(-189.009 -68.36)" fill="#8b7970"/>
        <path id="Trazado_205848" data-name="Trazado 205848" d="M413.1,187.474c.525-.714,2.3-.645,3.063-.67.735-.024,2.265-.149,2.843.415.472.461,1.2-.262.724-.724-.892-.87-2.732-.742-3.86-.706-1.177.037-2.888.128-3.653,1.168-.393.533.5,1.042.883.517" transform="translate(-197.87 -89.189)" fill="#da894a"/>
        <path id="Trazado_205849" data-name="Trazado 205849" d="M428.459,266.284c0,2.031,3.7,3.677,8.263,3.677s8.263-1.646,8.263-3.677-3.7-3.677-8.263-3.677-8.263,1.646-8.263,3.677" transform="translate(-205.713 -126.084)" fill="#353545"/>
        <path id="Trazado_205850" data-name="Trazado 205850" d="M413.7,386.29v-.033a2.891,2.891,0,0,1,2.892-2.892h2.457a1.03,1.03,0,0,0,1.029-1.029v-.021a1.029,1.029,0,0,1,1.029-1.03l5.013,1.626a1.029,1.029,0,0,1,1.029,1.03v2.715h-4.567v-.543l-1.142.543h-7.375a.366.366,0,0,1-.365-.366" transform="translate(-198.626 -183.065)" fill="#271614"/>
        <path id="Trazado_205851" data-name="Trazado 205851" d="M426.362,381.17v-1.209a1.021,1.021,0,0,0-.243-.032h-5.013a1.03,1.03,0,0,0-1.029,1.03v.021a1.03,1.03,0,0,1-1.029,1.03H416.59A2.891,2.891,0,0,0,413.7,384.9v.033a.365.365,0,0,0,.365.365h6.683a2.163,2.163,0,0,0,1.258-.4l.011-.008a2.168,2.168,0,0,1,1.258-.4h3.875v-1.34a2.112,2.112,0,0,0-.56-1.366.931.931,0,0,1-.226-.61" transform="translate(-198.626 -182.413)" fill="#8e3728"/>
        <path id="Trazado_205852" data-name="Trazado 205852" d="M463.655,386.29v-.033a2.892,2.892,0,0,0-2.892-2.892h-2.457a1.029,1.029,0,0,1-1.029-1.029v-.021a1.03,1.03,0,0,0-1.03-1.03l-5.012,1.626a1.03,1.03,0,0,0-1.029,1.03v2.715h4.567v-.543l1.142.543h7.375a.366.366,0,0,0,.366-.366" transform="translate(-216.154 -183.065)" fill="#271614"/>
        <path id="Trazado_205853" data-name="Trazado 205853" d="M450.991,381.17v-1.209a1.021,1.021,0,0,1,.243-.032h5.013a1.03,1.03,0,0,1,1.03,1.03v.021a1.03,1.03,0,0,0,1.029,1.03h2.457a2.891,2.891,0,0,1,2.892,2.891v.033a.365.365,0,0,1-.365.365h-6.683a2.166,2.166,0,0,1-1.258-.4l-.011-.008a2.168,2.168,0,0,0-1.258-.4H450.2v-1.34a2.112,2.112,0,0,1,.56-1.366.931.931,0,0,0,.226-.61" transform="translate(-216.154 -182.413)" fill="#8e3728"/>
        <path id="Trazado_205854" data-name="Trazado 205854" d="M437.148,342.07l-.013-26.229h-3.448l-.093,26.229-7.915-.123.6-42.34h18.243l1.276,42.34Z" transform="translate(-204.379 -143.849)" fill="#292936"/>
        <path id="Trazado_205855" data-name="Trazado 205855" d="M444.944,301.458H426.623l-.064,17.812h7.526l.022-1.321h3.448l.006,1.321h7.883Z" transform="translate(-204.801 -144.737)" fill="#1b1c1d"/>
        <path id="Trazado_205856" data-name="Trazado 205856" d="M435.29,262.071c11.287,0,9.887,6.886,9.887,6.886V295.8H425.5V268.986s-1.493-6.915,9.794-6.915" transform="translate(-204.259 -125.827)" fill="#292936"/>
        <path id="Trazado_205857" data-name="Trazado 205857" d="M456.722,310.932c-.686-.5-.165-1.03.509-1.43-.643.195-1.325.244-1.631-.258-.52-.853,1.53-1.925,2.321-2.3a10.861,10.861,0,0,0-1.9.544c-1.039.4-1.84-.976-.034-1.631a10.843,10.843,0,0,1,1.49-.451,8.566,8.566,0,0,1-.219-1.781c-.037-1.3,1.353-.823,1.479,1.056l.653-.351v5.907c-.913.754-2.195,1.039-2.665.7" transform="translate(-218.414 -145.427)" fill="#1b1c1d"/>
        <path id="Trazado_205858" data-name="Trazado 205858" d="M428.227,310.278c.686-.5.164-1.03-.51-1.43.644.194,1.325.244,1.632-.259.52-.853-1.53-1.925-2.321-2.3a10.814,10.814,0,0,1,1.9.544c1.039.4,1.84-.976.034-1.631a10.839,10.839,0,0,0-1.49-.451,8.559,8.559,0,0,0,.219-1.78c.036-1.3-1.353-.823-1.479,1.056l-.654-.351v5.907c.913.754,2.2,1.039,2.666.7" transform="translate(-204.322 -145.113)" fill="#1b1c1d"/>
        <path id="Trazado_205859" data-name="Trazado 205859" d="M425.307,304.468a10.846,10.846,0,0,1,1.9.544c1.039.4,1.84-.976.034-1.632a10.806,10.806,0,0,0-1.489-.45,8.558,8.558,0,0,0,.219-1.781c.037-1.315-1.393-.813-1.486,1.128a16.341,16.341,0,0,0-1.278,2.216c-.067.156-.133.32-.2.5-.953,2.612,2.634,4.092,3.5,3.462,1.344-.98-1.943-2.075-1.943-2.075s2.4,1.47,3.065.386c.52-.853-1.53-1.925-2.321-2.3" transform="translate(-203.02 -144.238)" fill="#e8b07d"/>
        <path id="Trazado_205860" data-name="Trazado 205860" d="M443.907,289.579v19.646a.254.254,0,0,0,.508,0V289.579a.254.254,0,0,0-.508,0" transform="translate(-213.13 -138.917)" fill="#1b1c1d"/>
        <line id="Línea_277" data-name="Línea 277" x1="2.209" y2="4.103" transform="translate(218.312 157.455)" fill="none" stroke="#fff" stroke-miterlimit="10" stroke-width="5.19"/>
        <path id="Trazado_205861" data-name="Trazado 205861" d="M411.59,287.976c-.4-.216-9.82-5.408-8.781-14.129,1.078-9.045,14.87-12.451,22.692-11.706l-.694,6.219a24.108,24.108,0,0,0-10.97,1.316c-1.538.582-5.15,2.226-5.468,4.9-.546,4.584,5.734,8.163,5.8,8.2Z" transform="translate(-193.36 -125.813)" fill="#292936"/>
        <path id="Trazado_205862" data-name="Trazado 205862" d="M460.075,304.254a11.644,11.644,0,0,0-1.971.538c-1.076.395-1.906-.964-.035-1.612a11.676,11.676,0,0,1,1.542-.446,4.868,4.868,0,0,1-.639-2.554c.231-1.284,1.342-.619,1.522,1.135a30.958,30.958,0,0,1,1.755,2.964c.069.153.137.316.206.495.988,2.581-2.728,4.043-3.621,3.421-1.392-.969,2.012-2.05,2.012-2.05s-2.49,1.452-3.175.382c-.539-.843,1.585-1.9,2.4-2.272" transform="translate(-219.397 -143.803)" fill="#e8b07d"/>
        <line id="Línea_278" data-name="Línea 278" x2="2.288" y2="4.053" transform="translate(242.114 156.922)" fill="none" stroke="#fff" stroke-miterlimit="10" stroke-width="5.25"/>
        <path id="Trazado_205863" data-name="Trazado 205863" d="M456.971,287.4c.416-.214,10.171-5.343,9.095-13.96-1.116-8.936-14.606-12.276-23.5-11.168l.718,5.747a26.1,26.1,0,0,1,11.363,1.3c1.593.576,5.334,2.2,5.664,4.838.566,4.53-5.939,8.065-6,8.1Z" transform="translate(-212.484 -125.824)" fill="#292936"/>
        <path id="Trazado_205864" data-name="Trazado 205864" d="M444.74,264.06l-5.021,14.7-5.065-14.7Z" transform="translate(-208.688 -126.782)" fill="#fff"/>
        <path id="Trazado_205865" data-name="Trazado 205865" d="M434.7,266.108l.054-.026a11.507,11.507,0,0,1,9.986,0l.051.024-1.384,4.017-3.661-2.709-3.661,2.709Z" transform="translate(-208.709 -127.206)" fill="#aaa09e"/>
        <path id="Trazado_205866" data-name="Trazado 205866" d="M442.41,275.752l1.037,3.009,1.028-3.01-1.05-11.689Z" transform="translate(-212.412 -126.783)" fill="#100f0f"/>
        <path id="Trazado_205867" data-name="Trazado 205867" d="M442.8,268.178h-.018a1.153,1.153,0,0,1-1.106-.826l-.574-1.946a1.153,1.153,0,0,1,1.105-1.479h1.167a1.153,1.153,0,0,1,1.105,1.479l-.574,1.946a1.154,1.154,0,0,1-1.106.826" transform="translate(-211.761 -126.718)" fill="#100f0f"/>
        <path id="Trazado_205868" data-name="Trazado 205868" d="M434.654,262.984l.054-.026a11.507,11.507,0,0,1,9.986,0l.05.024L443.36,267l-3.661-2.41L436.038,267Z" transform="translate(-208.688 -125.706)" fill="#fff"/>
        <path id="Trazado_205869" data-name="Trazado 205869" d="M436.2,278.2l-4.616-15.311-4.268.644.176,1.864,2.2,2.935,1.439.562-.605,1.939Z" transform="translate(-205.164 -126.218)" fill="#1b1c1d"/>
        <path id="Trazado_205870" data-name="Trazado 205870" d="M444.4,279.037l5.069-14.4,3.638.164v1.22l-2.2,3.149-1.439.562.605,1.939Z" transform="translate(-213.369 -127.059)" fill="#1b1c1d"/>
        <path id="Trazado_205871" data-name="Trazado 205871" d="M436.086,277.758,431.1,261.973l-4.018,1.054,2.5,3.643,1.439.562-.606,1.939Z" transform="translate(-205.051 -125.78)" fill="#353545"/>
        <path id="Trazado_205872" data-name="Trazado 205872" d="M444.4,277.911l5.069-15.62,3.638,1.383-2.2,3.149-1.439.562.605,1.939Z" transform="translate(-213.369 -125.933)" fill="#353545"/>
        <path id="Trazado_205873" data-name="Trazado 205873" d="M445.419,228.649s8.289-13.943-.011-17.735c-2.182-8.277-14.879-3.949-14.879-3.949-6.284-2.186-10.583,4.006-6.995,9.877Z" transform="translate(-202.723 -98.826)" fill="#542f1c"/>
        <path id="Rectángulo_45125" data-name="Rectángulo 45125" d="M2.68,0h0A2.681,2.681,0,0,1,5.36,2.681V6.126A2.681,2.681,0,0,1,2.68,8.806h0A2.68,2.68,0,0,1,0,6.126V2.68A2.68,2.68,0,0,1,2.68,0Z" transform="translate(228.37 129.941)" fill="#e29b62"/>
        <path id="Trazado_205874" data-name="Trazado 205874" d="M432.543,214.53l6.772.548a8.176,8.176,0,0,1,7.286,8.971l-.16,1.981.035.037a3,3,0,0,1,.421,0l.079.006a3.22,3.22,0,0,1,2.869,3.532l-.005.067a3.217,3.217,0,0,1-3.4,3.022l-.082-.006a3.011,3.011,0,0,1-.425-.069l-.04.03a8.123,8.123,0,0,1-8.562,7.322l-6.806-.552a8.175,8.175,0,0,1-7.286-8.971l.667-8.238a8.176,8.176,0,0,1,8.634-7.682" transform="translate(-203.195 -102.989)" fill="#e8b07d"/>
        <path id="Trazado_205875" data-name="Trazado 205875" d="M449.92,225.8c.317-3.918,1.535-8.782-1.7-11.726-1.64-1.49-3.57-1.64-5.621-1.806-1.671-.136-3.34-.3-5.013-.406-1.806-.113-1.582-2.992.235-2.906,1.832.086,3.656.3,5.485.444,2.61.211,4.976.773,6.963,2.692a10.182,10.182,0,0,1,2.89,8.276q-.228,2.828-.458,5.657a1.393,1.393,0,1,1-2.778-.225" transform="translate(-209.495 -100.323)" fill="#542f1c"/>
        <path id="Trazado_205876" data-name="Trazado 205876" d="M447.746,238.21c-.046.579.255,1.075.674,1.109s.8-.408.843-.986-.255-1.074-.674-1.108-.8.408-.843.986" transform="translate(-214.971 -113.897)" fill="#1b1c1d"/>
        <path id="Trazado_205877" data-name="Trazado 205877" d="M431.357,236.884c-.047.578.254,1.074.673,1.109s.8-.408.843-.986-.254-1.075-.673-1.108-.8.407-.843.986" transform="translate(-207.102 -113.26)" fill="#1b1c1d"/>
        <path id="Trazado_205878" data-name="Trazado 205878" d="M430.239,230.085a1.656,1.656,0,0,1,2.8.143c.2.323.713.026.51-.3a2.243,2.243,0,0,0-3.731-.264c-.253.283.164.7.418.419" transform="translate(-206.329 -109.849)" fill="#6b4528"/>
        <path id="Trazado_205879" data-name="Trazado 205879" d="M449.936,231.307a2.244,2.244,0,0,0-3.721-.384c-.251.284.166.7.418.418a1.651,1.651,0,0,1,2.792.265c.2.321.716.024.511-.3" transform="translate(-214.201 -110.477)" fill="#6b4528"/>
        <path id="Trazado_205880" data-name="Trazado 205880" d="M426.112,209.794s-.485,4.4,8.3,5.112,12.037.5,11.385,8.544c0,0,2.7-11.668-4.879-13.389s-10.629,1.8-14.8-.267" transform="translate(-204.584 -100.62)" fill="#542f1c"/>
        <path id="Trazado_205881" data-name="Trazado 205881" d="M435.212,249.949a1.55,1.55,0,1,0,1.55-1.55,1.55,1.55,0,0,0-1.55,1.55" transform="translate(-208.956 -119.263)" fill="#351917"/>
        <path id="Trazado_205882" data-name="Trazado 205882" d="M173.54,219.287c-.407,1.9-1.761,5.419-.677,6.1s1.084-2.032,3.251-1.626,3.386,1.49,3.929-2.032-6.5-2.439-6.5-2.439" transform="translate(-82.798 -105.21)" fill="#292936"/>
        <path id="Trazado_205883" data-name="Trazado 205883" d="M376.062,368.307V429.8l-7.765-9.117-.234-49.044L312.017,327.3V320l.331-.159Z" transform="translate(-149.807 -153.562)" fill="#98433a"/>
        <path id="Trazado_205884" data-name="Trazado 205884" d="M420.271,530.073V513.817l7.767,9.115Z" transform="translate(-201.782 -246.696)" fill="#ccc7d4"/>
        <path id="Trazado_205885" data-name="Trazado 205885" d="M566.69,365.2l-.01-.031a2.848,2.848,0,0,0-3.652-1.7l-2.274.829a1.014,1.014,0,0,1-1.3-.605l-.007-.019a1.013,1.013,0,0,0-1.3-.605l-4.089,3.2a1.014,1.014,0,0,0-.606,1.3l.916,2.512,4.226-1.541-.183-.5,1.24.116,6.824-2.489a.359.359,0,0,0,.215-.461" transform="translate(-265.696 -174.288)" fill="#271614"/>
        <path id="Trazado_205886" data-name="Trazado 205886" d="M553.155,364.734l-.408-1.119a.978.978,0,0,1,.215-.112l4.638-1.691a1.014,1.014,0,0,1,1.3.605l.007.019a1.014,1.014,0,0,0,1.3.605l2.273-.829a2.848,2.848,0,0,1,3.652,1.7l.011.03a.36.36,0,0,1-.215.462l-6.184,2.256a2.13,2.13,0,0,1-1.3.052l-.013,0a2.132,2.132,0,0,0-1.3.052l-3.585,1.307-.452-1.24a2.077,2.077,0,0,1,.057-1.453.921.921,0,0,0,0-.641" transform="translate(-265.387 -173.685)" fill="#5e2f1f"/>
        <path id="Trazado_205887" data-name="Trazado 205887" d="M540.487,380.372l-.007-.031a2.848,2.848,0,0,0-3.4-2.167l-2.363.522a1.014,1.014,0,0,1-1.209-.772l0-.02a1.014,1.014,0,0,0-1.208-.771l-4.476,2.628a1.015,1.015,0,0,0-.772,1.209l.577,2.611,4.392-.97-.115-.522,1.213.28,7.094-1.566a.36.36,0,0,0,.274-.429" transform="translate(-253.039 -181.059)" fill="#271614"/>
        <path id="Trazado_205888" data-name="Trazado 205888" d="M527.315,378.137l-.257-1.163a1.041,1.041,0,0,1,.228-.083l4.821-1.065a1.014,1.014,0,0,1,1.209.772l0,.02a1.015,1.015,0,0,0,1.209.771l2.363-.521a2.847,2.847,0,0,1,3.395,2.167l.007.032a.36.36,0,0,1-.274.429l-6.428,1.419a2.132,2.132,0,0,1-1.3-.12l-.012-.005a2.136,2.136,0,0,0-1.3-.12l-3.726.823-.285-1.289a2.079,2.079,0,0,1,.249-1.432.915.915,0,0,0,.087-.635" transform="translate(-252.995 -180.432)" fill="#5e2f1f"/>
        <path id="Trazado_205889" data-name="Trazado 205889" d="M509.443,316.017l1.168,6.977a4.985,4.985,0,0,0,4.061,4.087l9.61,1.784a1.791,1.791,0,0,1,1.34,1.106l5.065,12.878a9.815,9.815,0,0,0,8.778-4.022l-6.34-15.611a7.654,7.654,0,0,0-4.557-4.194Z" transform="translate(-244.596 -151.728)" fill="#1b1c1d"/>
        <path id="Trazado_205890" data-name="Trazado 205890" d="M518.643,348.928a9.875,9.875,0,0,1-9.425,2.1l-2.227-13.781-.138-.862-9.933-4.616a4.98,4.98,0,0,1-3.1-4.857l.117-2.309.224-4.361,18.049,7.011a7.673,7.673,0,0,1,3.561,5.068Z" transform="translate(-237.093 -153.759)" fill="#25252e"/>
        <path id="Trazado_205891" data-name="Trazado 205891" d="M501.26,334.748c1.118-1.32,5.487-3.251,7.417-3.657s-5.283-1.626-5.893-1.626-4.064.3-3.759,1.118,2.235,4.165,2.235,4.165" transform="translate(-239.585 -158.184)" fill="#1b1c1d"/>
        <path id="Trazado_205892" data-name="Trazado 205892" d="M506.99,341.279l-.138-.862-9.933-4.616a4.98,4.98,0,0,1-3.1-4.857l.118-2.309c.87.122,1.78.33,1.78.33l2.585,2.857c.057,1.715,2.089,3.137,6.153,4.966,1.918.861,2.479,2.743,2.532,4.491" transform="translate(-237.093 -157.786)" fill="#1b1c1d"/>
        <path id="Trazado_205893" data-name="Trazado 205893" d="M529.829,319.221l-17.758-2.79,10.46,2.675s2.036,3.34.166,6.238l3.913,2.061a1.791,1.791,0,0,1,1.332,1.088l5.894,14.524a9.414,9.414,0,0,0,6.892-3.992l-6.34-15.611a7.655,7.655,0,0,0-4.557-4.194" transform="translate(-245.857 -151.926)" fill="#25252e"/>
        <path id="Trazado_205894" data-name="Trazado 205894" d="M503.338,274.376s-6.4.092-7.3,3.716-2.211,26.8-2.211,26.8,18.179,3.92,19.937-7.011l1.217-17.217c.311-3.8-4.274-6.255-11.642-6.288" transform="translate(-237.098 -131.735)" fill="#292936"/>
        <path id="Trazado_205895" data-name="Trazado 205895" d="M487.072,309.23s-.282,6.539,7.993,6.016l.472-21.14Z" transform="translate(-233.854 -141.208)" fill="#1b1c1d"/>
        <path id="Trazado_205896" data-name="Trazado 205896" d="M480.2,339.667a7.017,7.017,0,0,0-6.874-.715c-4.054,1.613-1.7,4.127,1.9,2.1Z" transform="translate(-226.232 -162.466)" fill="#e29b62"/>
        <path id="Trazado_205897" data-name="Trazado 205897" d="M480.2,339.56a5.007,5.007,0,0,0-.624.013c-1.327.089-5.818,1.087-6.163,2.725-.4,1.905,6.791-.331,6.791-.331s1.534,1.668,3.249.792c.924-.473-.74-3.058-3.253-3.2" transform="translate(-227.291 -163.029)" fill="#e8b07d"/>
        <rect id="Rectángulo_45126" data-name="Rectángulo 45126" width="1.723" height="7.887" transform="translate(248.863 175.793) rotate(-73.052)" fill="#fff"/>
        <path id="Trazado_205898" data-name="Trazado 205898" d="M478.387,307.482l8.662,2.6,5.711-26.733c.712-2.368.624-5.394-1.744-6.106l-.087-.026a4.478,4.478,0,0,0-5.577,3Z" transform="translate(-229.685 -133.009)" fill="#292936"/>
        <path id="Trazado_205899" data-name="Trazado 205899" d="M544.019,264.127c-.252.082-.508.159-.76.24q-6.218,1.945-12.433,3.9a2.958,2.958,0,0,1-.516.11,3.889,3.889,0,0,1-1.227-7.661c4.4-1.382,9.083-2.78,9.083-2.78q-1.426-3.883-2.845-7.762c-.731-1.987,1.036-4.219,2.9-4.65,2.251-.52,3.922.923,4.649,2.9q2.024,5.528,4.052,11.054c.768,2.093-1.089,4.081-2.906,4.649" transform="translate(-252.581 -117.83)" fill="#292936"/>
        <path id="Trazado_205900" data-name="Trazado 205900" d="M550.68,248.877c-.064,1.547-1.65,2.738-3.542,2.658s-3.371-1.4-3.307-2.945,1.651-2.738,3.542-2.659,3.372,1.4,3.307,2.946" transform="translate(-261.105 -118.076)" fill="#fff"/>
        <path id="Trazado_205901" data-name="Trazado 205901" d="M544.274,242.522s-1.45,5.375,2.76,5.883,3.1-7.724-2.76-5.883" transform="translate(-261.203 -116.312)" fill="#e29b62"/>
        <path id="Trazado_205902" data-name="Trazado 205902" d="M517.525,277.559l-3.318,12.575-5.642-13.049Z" transform="translate(-244.174 -133.035)" fill="#fff"/>
        <path id="Trazado_205903" data-name="Trazado 205903" d="M508.847,279.077l.046-.02a10.48,10.48,0,0,1,8.872.472l.046.023-.917,3.436-3.463-2.534-3.042,2.189Z" transform="translate(-244.309 -133.611)" fill="#aaa09e"/>
        <path id="Trazado_205904" data-name="Trazado 205904" d="M517.2,287.683l1.155,2.671.679-2.574-1.841-10.238Z" transform="translate(-248.315 -133.255)" fill="#100f0f"/>
        <path id="Trazado_205905" data-name="Trazado 205905" d="M516.2,281.106h-.016a1.221,1.221,0,0,1-1.047-.772l-.661-1.723a.872.872,0,0,1,.867-1.237l1.036.055a1.178,1.178,0,0,1,1.1,1.341l-.359,1.669a.858.858,0,0,1-.918.669" transform="translate(-246.978 -133.173)" fill="#100f0f"/>
        <path id="Trazado_205906" data-name="Trazado 205906" d="M508.564,276.352l.046-.02a10.478,10.478,0,0,1,8.872.471l.046.023-.918,3.436-3.439-2.273-3.065,1.928Z" transform="translate(-244.174 -132.303)" fill="#fff"/>
        <path id="Trazado_205907" data-name="Trazado 205907" d="M511.274,289.21,505.8,275.158l-3.347,1.42.095,1.063,2.181,2.662,1.322.558-.387,1.66Z" transform="translate(-241.237 -132.11)" fill="#1b1c1d"/>
        <path id="Trazado_205908" data-name="Trazado 205908" d="M519.424,290.817l3.384-12.312,3.245.314.095,1.063-1.709,2.64-1.235.422.689,1.718Z" transform="translate(-249.388 -133.717)" fill="#1b1c1d"/>
        <path id="Trazado_205909" data-name="Trazado 205909" d="M511.274,289.394l-5.718-13.852-3.108,1.221,2.181,2.661,1.322.558-.387,1.661Z" transform="translate(-241.237 -132.295)" fill="#353545"/>
        <path id="Trazado_205910" data-name="Trazado 205910" d="M519.424,289.835l3.289-13.375,3.34,1.377-1.709,2.64-1.235.422.688,1.718Z" transform="translate(-249.388 -132.735)" fill="#353545"/>
        <path id="Trazado_205911" data-name="Trazado 205911" d="M520.384,247.1s9.363-13.911,4.887-17.089c-.321-6.825-9.707-8.879-13.747-8.861-4.829.022-10.951,4.986-8.406,11.267Z" transform="translate(-241.272 -106.182)" fill="#9c532d"/>
        <path id="Trazado_205912" data-name="Trazado 205912" d="M511.379,270.2a2.348,2.348,0,0,0,2.569,2.1l.584-.059a2.347,2.347,0,0,0,2.1-2.568l-.4-3.962a2.346,2.346,0,0,0-2.568-2.1l-.584.058a2.347,2.347,0,0,0-2.1,2.569Z" transform="translate(-245.329 -126.559)" fill="#e29b62"/>
        <path id="Trazado_205913" data-name="Trazado 205913" d="M508.571,228.486l6.494,1.62a8.053,8.053,0,0,1,5.64,9.889l-.474,1.9.029.043a2.874,2.874,0,0,1,.409.068l.076.019a3.171,3.171,0,0,1,2.221,3.893l-.016.064a3.169,3.169,0,0,1-3.787,2.392l-.078-.02a2.946,2.946,0,0,1-.4-.135l-.044.023a8,8,0,0,1-9.5,5.742l-6.527-1.629a8.054,8.054,0,0,1-5.64-9.889l1.971-7.9a8.053,8.053,0,0,1,9.624-6.079" transform="translate(-238.486 -109.594)" fill="#e8b07d"/>
        <path id="Trazado_205914" data-name="Trazado 205914" d="M520.258,251.358c-.077.566.194,1.07.6,1.126s.8-.359.881-.925-.194-1.071-.6-1.126-.8.359-.881.925" transform="translate(-249.782 -120.237)" fill="#1b1c1d"/>
        <path id="Trazado_205915" data-name="Trazado 205915" d="M504.988,249.232c-.076.566.194,1.07.6,1.126s.8-.359.882-.925-.194-1.07-.6-1.126-.8.359-.881.925" transform="translate(-242.45 -119.216)" fill="#1b1c1d"/>
        <path id="Trazado_205916" data-name="Trazado 205916" d="M503.959,242.851a1.637,1.637,0,0,1,2.766-.09c.219.3.726.009.5-.294a2.206,2.206,0,0,0-3.681-.028c-.227.293.183.709.412.412" transform="translate(-241.733 -115.932)" fill="#6b4528"/>
        <path id="Trazado_205917" data-name="Trazado 205917" d="M523.324,248.425a2.91,2.91,0,0,0-4.112-1.6c-.37.183-.045.737.324.555A2.254,2.254,0,0,1,522.7,248.6c.147.382.767.216.619-.171" transform="translate(-249.208 -118.345)" fill="#6b4528"/>
        <path id="Trazado_205918" data-name="Trazado 205918" d="M513.31,223.652a1.329,1.329,0,0,1,1.518-.745c1.225.262,2.437.582,3.65.9a17.024,17.024,0,0,1,3.7,1.057q.136.051.269.106l.031.012.016.007a8.9,8.9,0,0,1,3.926,2.966,10.027,10.027,0,0,1,1.48,8.507q-.676,2.711-1.353,5.424a1.373,1.373,0,1,1-2.663-.664c.584-2.342,1.567-4.984,1.577-7.46-.723-3.023-4.072-3.616-10.083-5.116-8.419-2.1-2.616-5.151-2.068-4.992" transform="translate(-245.273 -107.006)" fill="#9c532d"/>
        <path id="Trazado_205919" data-name="Trazado 205919" d="M513.3,263.092l-5.073-.545c-.805-.087-.8,1.173,0,1.26l5.073.545c.805.087.8-1.174,0-1.26" transform="translate(-243.723 -126.053)" fill="#da894a"/>
        <path id="Trazado_205920" data-name="Trazado 205920" d="M546.563,240.083s-.348-2.852-2.091-2.274-2.984,2.993-.762,3.047Z" transform="translate(-260.474 -114.141)" fill="#e29b62"/>
        <path id="Trazado_205921" data-name="Trazado 205921" d="M542.819,241.742c-2.939,1.309-3.966,2.971-3.03,3.942s4.583-2.148,5.9-2.41.009-2.812-2.866-1.532" transform="translate(-259.005 -115.895)" fill="#e8b07d"/>
        <path id="Trazado_205922" data-name="Trazado 205922" d="M545.884,244.3c-2.519,1.056-3.422,2.446-2.646,3.288s4.037-1,5.156-1.194-.047-3.127-2.51-2.094" transform="translate(-260.692 -117.188)" fill="#e8b07d"/>
        <path id="Trazado_205923" data-name="Trazado 205923" d="M546.983,281.871q-6.218,1.945-12.433,3.9a2.946,2.946,0,0,1-.516.11,11.77,11.77,0,0,0-.2-2.939s8.339.159,13.152-1.069" transform="translate(-256.305 -135.333)" fill="#1b1c1d"/>
        <path id="Trazado_205924" data-name="Trazado 205924" d="M306.249,320.143v7.306L300,322.506a40.232,40.232,0,0,0,6.245-2.363" transform="translate(-144.039 -153.709)" fill="#348381"/>
      </g>
    </g>
  </g>
</svg>
