<svg xmlns="http://www.w3.org/2000/svg" xmlns:xlink="http://www.w3.org/1999/xlink" width="1030" height="365.941" viewBox="0 0 1030 365.941">
  <defs>
    <linearGradient id="linear-gradient" y1="0.5" x2="1" y2="0.5" gradientUnits="objectBoundingBox">
      <stop offset="0.113" stop-color="#5fb8c0"/>
      <stop offset="0.305" stop-color="#d66d67"/>
      <stop offset="0.5" stop-color="#96b0db"/>
      <stop offset="0.702" stop-color="#313183"/>
      <stop offset="0.891" stop-color="#5fb8c0"/>
    </linearGradient>
    <linearGradient id="linear-gradient-2" y1="0.5" x2="1" y2="0.5" gradientUnits="objectBoundingBox">
      <stop offset="0" stop-color="#e6e7e8"/>
      <stop offset="1" stop-color="#fff"/>
    </linearGradient>
    <filter id="Trazado_207351" x="24.284" y="27.283" width="184.06" height="317.374" filterUnits="userSpaceOnUse">
      <feOffset dy="3" input="SourceAlpha"/>
      <feGaussianBlur stdDeviation="3" result="blur"/>
      <feFlood flood-opacity="0.161"/>
      <feComposite operator="in" in2="blur"/>
      <feComposite in="SourceGraphic"/>
    </filter>
    <linearGradient id="linear-gradient-3" x1="0" y1="0.5" x2="1" y2="0.5" xlink:href="#linear-gradient-2"/>
    <filter id="Trazado_207353" x="223.591" y="27.283" width="184.06" height="317.374" filterUnits="userSpaceOnUse">
      <feOffset dy="3" input="SourceAlpha"/>
      <feGaussianBlur stdDeviation="3" result="blur-2"/>
      <feFlood flood-opacity="0.161"/>
      <feComposite operator="in" in2="blur-2"/>
      <feComposite in="SourceGraphic"/>
    </filter>
    <filter id="Trazado_729827" x="421.323" y="27.194" width="179.899" height="313.213" filterUnits="userSpaceOnUse">
      <feOffset dy="3" input="SourceAlpha"/>
      <feGaussianBlur stdDeviation="3" result="blur-3"/>
      <feFlood flood-opacity="0.161"/>
      <feComposite operator="in" in2="blur-3"/>
      <feComposite in="SourceGraphic"/>
    </filter>
    <filter id="Trazado_729828" x="624.322" y="29.364" width="179.899" height="313.213" filterUnits="userSpaceOnUse">
      <feOffset dy="3" input="SourceAlpha"/>
      <feGaussianBlur stdDeviation="3" result="blur-4"/>
      <feFlood flood-opacity="0.161"/>
      <feComposite operator="in" in2="blur-4"/>
      <feComposite in="SourceGraphic"/>
    </filter>
    <filter id="Trazado_729829" x="823.666" y="29.364" width="179.899" height="313.213" filterUnits="userSpaceOnUse">
      <feOffset dy="3" input="SourceAlpha"/>
      <feGaussianBlur stdDeviation="3" result="blur-5"/>
      <feFlood flood-opacity="0.161"/>
      <feComposite operator="in" in2="blur-5"/>
      <feComposite in="SourceGraphic"/>
    </filter>
  </defs>
  <g id="Grupo_1019400" data-name="Grupo 1019400" transform="translate(-288 -2174)">
    <path id="Trazado_729824" data-name="Trazado 729824" d="M913.615,0A116.355,116.355,0,0,0,797.3,115.237V250.7a83.019,83.019,0,0,1-166.024,0V115.237a116.319,116.319,0,0,0-232.627,0V250.7a83.019,83.019,0,0,1-166.024,0V115.237A116.316,116.316,0,0,0,0,116.313v66.639H33.284V116.313a83.033,83.033,0,0,1,166.06-1.076V250.7a116.319,116.319,0,0,0,232.627,0V115.237a83.037,83.037,0,0,1,166.06,0V250.7a116.319,116.319,0,0,0,232.627,0V115.237a83.033,83.033,0,0,1,166.06,1.076v66.639H1030V116.313C1029.928,52.185,977.743,0,913.615,0Z" transform="translate(288 2174)" fill="url(#linear-gradient)"/>
    <g id="Grupo_1019322" data-name="Grupo 1019322" transform="translate(321.284 2207.283)">
      <g transform="matrix(1, 0, 0, 1, -33.28, -33.28)" filter="url(#Trazado_207351)">
        <path id="Trazado_207351-2" data-name="Trazado 207351" d="M175.83,392.174a83.147,83.147,0,0,1-83.03-83.03V175.83a83.03,83.03,0,1,1,166.06,0V309.144A83.147,83.147,0,0,1,175.83,392.174Z" transform="translate(-59.52 -59.52)" fill="url(#linear-gradient-2)"/>
      </g>
    </g>
    <path id="Trazado_729825" data-name="Trazado 729825" d="M179.55,393.813h0a80.95,80.95,0,0,1-80.95-80.95V179.55A80.95,80.95,0,0,1,179.55,98.6h0a80.95,80.95,0,0,1,80.95,80.95V312.863A80.973,80.973,0,0,1,179.55,393.813Z" transform="translate(224.764 2110.764)" fill="#fff"/>
    <g id="Grupo_1019323" data-name="Grupo 1019323" transform="translate(520.591 2207.283)">
      <g transform="matrix(1, 0, 0, 1, -232.59, -33.28)" filter="url(#Trazado_207353)">
        <path id="Trazado_207353-2" data-name="Trazado 207353" d="M731.53,392.174a83.124,83.124,0,0,1-83.03-83.03V175.83a83.03,83.03,0,0,1,166.06,0V309.144A83.124,83.124,0,0,1,731.53,392.174Z" transform="translate(-415.91 -59.52)" fill="url(#linear-gradient-3)"/>
      </g>
    </g>
    <path id="Trazado_729826" data-name="Trazado 729826" d="M735.25,393.813h0a80.95,80.95,0,0,1-80.95-80.95V179.55A80.95,80.95,0,0,1,735.25,98.6h0A80.95,80.95,0,0,1,816.2,179.55V312.863A80.95,80.95,0,0,1,735.25,393.813Z" transform="translate(-131.628 2110.764)" fill="#fff"/>
    <g transform="matrix(1, 0, 0, 1, 288, 2174)" filter="url(#Trazado_729827)">
      <path id="Trazado_729827-2" data-name="Trazado 729827" d="M1291.05,393.813h0a80.95,80.95,0,0,1-80.949-80.95V179.55A80.95,80.95,0,0,1,1291.05,98.6h0A80.95,80.95,0,0,1,1372,179.55V312.863A80.973,80.973,0,0,1,1291.05,393.813Z" transform="translate(-779.78 -65.41)" fill="#fff"/>
    </g>
    <g transform="matrix(1, 0, 0, 1, 288, 2174)" filter="url(#Trazado_729828)">
      <path id="Trazado_729828-2" data-name="Trazado 729828" d="M1846.75,393.813h0a80.95,80.95,0,0,1-80.949-80.95V179.55A80.95,80.95,0,0,1,1846.75,98.6h0a80.95,80.95,0,0,1,80.95,80.95V312.863A80.95,80.95,0,0,1,1846.75,393.813Z" transform="translate(-1132.48 -63.24)" fill="#fff"/>
    </g>
    <g transform="matrix(1, 0, 0, 1, 288, 2174)" filter="url(#Trazado_729829)">
      <path id="Trazado_729829-2" data-name="Trazado 729829" d="M2402.55,393.813h0a80.95,80.95,0,0,1-80.949-80.95V179.55A80.95,80.95,0,0,1,2402.55,98.6h0a80.95,80.95,0,0,1,80.949,80.95V312.863A81,81,0,0,1,2402.55,393.813Z" transform="translate(-1488.93 -63.24)" fill="#fff"/>
    </g>
    <g id="Grupo_1019324" data-name="Grupo 1019324" transform="translate(380.167 2255.479)">
      <path id="Trazado_207358" data-name="Trazado 207358" d="M269.624,245.359a.507.507,0,0,1,.717.717,9.849,9.849,0,0,0,0,13.916.52.52,0,0,1,0,.717.545.545,0,0,1-.717,0A10.867,10.867,0,0,1,269.624,245.359Z" transform="translate(-263.052 -238.751)" fill="#348381"/>
      <path id="Trazado_207359" data-name="Trazado 207359" d="M302.928,273.164a3.377,3.377,0,0,0,0-4.734l-12.266-12.266a3.319,3.319,0,0,0-4.053-.5l-4.734-4.734a14.052,14.052,0,1,0-1.148,1.184l4.734,4.734a3.37,3.37,0,0,0,.5,4.053l12.266,12.266A3.334,3.334,0,0,0,302.928,273.164Zm-22.811-22.775a12.617,12.617,0,1,1,0-17.861A12.62,12.62,0,0,1,280.118,250.389Z" transform="translate(-256.975 -227.175)" fill="#348381"/>
    </g>
    <g id="Grupo_1019325" data-name="Grupo 1019325" transform="translate(575.768 2404.762)">
      <g id="Grupo_141644" data-name="Grupo 141644">
        <g id="Grupo_141633" data-name="Grupo 141633" transform="translate(33.95 34.324)">
          <path id="Trazado_207360" data-name="Trazado 207360" d="M897,739.1" transform="translate(-897 -739.1)" fill="#812823"/>
        </g>
        <g id="Grupo_141634" data-name="Grupo 141634" transform="translate(6.224 6.451)">
          <path id="Trazado_207361" data-name="Trazado 207361" d="M834.869,715.406v-.825h1.793v.753h4.232a.861.861,0,0,0,0-1.722h-7.137a2.25,2.25,0,0,1-2.26-2.26v-.108a2.25,2.25,0,0,1,2.26-2.26h10.258a.466.466,0,0,0,0-.932H831.354a2.25,2.25,0,0,1-2.26-2.26v-.143a2.25,2.25,0,0,1,2.26-2.26h14.705a.475.475,0,0,0,.466-.466V702.6a.475.475,0,0,0-.466-.466h-18.4V696.4a3.163,3.163,0,0,0-1.184-2.475,18.3,18.3,0,1,1,23.062.072,3.13,3.13,0,0,0-1.148,2.475v2.977h-9.11V689.224h-1.937v9.684H835.55v-9.684h-1.578a1.347,1.347,0,0,1-1.219-.789,1.289,1.289,0,0,1,.179-1.291l2.08-3.874.108-.108a1.318,1.318,0,0,1,1.435-.287,1.29,1.29,0,0,1,.789,1.22v3.371h1.937V684.31a1.27,1.27,0,0,1,.861-1.219,1.343,1.343,0,0,1,1.435.359l2.4,3.694a1.275,1.275,0,0,1,.143,1.327,1.3,1.3,0,0,1-1.184.753h-1.865v8.429H846.6v-1.184a5.063,5.063,0,0,1,1.829-3.874,16.567,16.567,0,1,0-21.986-24.748,16.563,16.563,0,0,0,1.148,24.712,4.9,4.9,0,0,1,1.829,3.873v3.945h16.642a2.25,2.25,0,0,1,2.26,2.26v.323a2.25,2.25,0,0,1-2.26,2.26H831.354a.475.475,0,0,0-.466.466v.143a.475.475,0,0,0,.466.466h12.661a2.26,2.26,0,0,1,0,4.519H833.757a.475.475,0,0,0-.466.466v.108a.475.475,0,0,0,.466.466h7.137a2.654,2.654,0,0,1,0,5.308h-4.3A1.776,1.776,0,0,1,834.869,715.406Zm.682-29.374-.753,1.4h.753Zm5.523-.108v1.506h.968Z" transform="translate(-819.696 -661.387)" fill="#812823"/>
        </g>
        <g id="Grupo_141635" data-name="Grupo 141635" transform="translate(23.657)">
          <rect id="Rectángulo_45872" data-name="Rectángulo 45872" width="1.793" height="4.089" fill="#812823"/>
        </g>
        <g id="Grupo_141636" data-name="Grupo 141636" transform="translate(32.036 1.782)">
          <rect id="Rectángulo_45873" data-name="Rectángulo 45873" width="4.089" height="1.793" transform="translate(0 3.735) rotate(-66.001)" fill="#812823"/>
        </g>
        <g id="Grupo_141637" data-name="Grupo 141637" transform="translate(39.15 7.453)">
          <rect id="Rectángulo_45874" data-name="Rectángulo 45874" width="4.089" height="1.793" transform="matrix(0.743, -0.669, 0.669, 0.743, 0, 2.736)" fill="#812823"/>
        </g>
        <g id="Grupo_141638" data-name="Grupo 141638" transform="translate(43.755 16.13)">
          <rect id="Rectángulo_45875" data-name="Rectángulo 45875" width="4.089" height="1.793" transform="translate(0 1.263) rotate(-17.998)" fill="#812823"/>
        </g>
        <g id="Grupo_141639" data-name="Grupo 141639" transform="translate(44.799 25.819)">
          <rect id="Rectángulo_45876" data-name="Rectángulo 45876" width="1.793" height="4.089" transform="translate(0 1.783) rotate(-84.001)" fill="#812823"/>
        </g>
        <g id="Grupo_141640" data-name="Grupo 141640" transform="translate(0 25.831)">
          <rect id="Rectángulo_45877" data-name="Rectángulo 45877" width="4.089" height="1.793" transform="translate(0 0.427) rotate(-5.999)" fill="#812823"/>
        </g>
        <g id="Grupo_141641" data-name="Grupo 141641" transform="translate(0.918 16.109)">
          <rect id="Rectángulo_45878" data-name="Rectángulo 45878" width="1.793" height="4.089" transform="translate(0 1.706) rotate(-72.002)" fill="#812823"/>
        </g>
        <g id="Grupo_141642" data-name="Grupo 141642" transform="translate(5.666 7.485)">
          <rect id="Rectángulo_45879" data-name="Rectángulo 45879" width="1.793" height="4.089" transform="matrix(0.669, -0.743, 0.743, 0.669, 0, 1.333)" fill="#812823"/>
        </g>
        <g id="Grupo_141643" data-name="Grupo 141643" transform="translate(13.772 1.781)">
          <rect id="Rectángulo_45880" data-name="Rectángulo 45880" width="1.793" height="4.089" transform="translate(0 0.729) rotate(-23.997)" fill="#812823"/>
        </g>
      </g>
    </g>
    <g id="Grupo_1019326" data-name="Grupo 1019326" transform="translate(773.698 2251.793)">
      <path id="Trazado_207362" data-name="Trazado 207362" d="M1407.82,216.9c-.646,0-15.853.179-25.5,9.863-1,1-1.937,2.009-2.833,3.049l-10.186-.861L1354.2,244.8l17.18-9,2.654,1.686a29.9,29.9,0,0,0-2.3,5.093l-.144.43,1.148,1.148L1370.2,246.7l8.536,8.536,2.546-2.546,1.184,1.184.43-.143a29.907,29.907,0,0,0,5.093-2.3l1.686,2.654-9,17.18,15.853-15.1-.861-10.15c1.04-.9,2.08-1.865,3.084-2.833,9.684-9.684,9.863-24.855,9.863-25.5v-.753Zm-46.16,22.309,8.249-8.68,7.962.681-3.371,4.77-3.048-1.937Zm24.6,24.6,5.129-9.791-1.937-3.049,4.77-3.371.681,7.962Zm-6.061-12.194-1.47,1.47-6.348-6.348,1.471-1.471Zm17.431-9.5c-4.734,4.734-10.078,8.357-14.813,10.042l-.5-.5-8.536-8.536h0l-.466-.466c1.686-4.7,5.308-10.078,10.043-14.813,8-8,20.408-9.218,23.636-9.4C1406.851,221.706,1405.632,234.116,1397.634,242.114Z" transform="translate(-1354.2 -216.9)" fill="#576b96"/>
      <path id="Trazado_207363" data-name="Trazado 207363" d="M1387.487,324.5a13.51,13.51,0,0,0-3.443,6.779l-.144.825.825-.143a13.646,13.646,0,0,0,6.779-3.443,16.64,16.64,0,0,0,3.084-4.053c.968-1.865.646-2.8.179-3.228C1393.476,319.913,1390.1,321.886,1387.487,324.5Zm6.026-.574a15.55,15.55,0,0,1-2.869,3.73,11.839,11.839,0,0,1-5.165,2.869,12.223,12.223,0,0,1,2.869-5.165c2.475-2.475,4.519-3.336,5.272-3.336a.463.463,0,0,1,.287.072C1394.05,322.244,1394.05,322.854,1393.512,323.93Z" transform="translate(-1373.248 -283.545)" fill="#576b96"/>
      <path id="Trazado_207364" data-name="Trazado 207364" d="M1379.788,309.768c.968-1.865.646-2.8.179-3.228-1.327-1.327-4.662.646-7.281,3.264a13.511,13.511,0,0,0-3.443,6.779l-.143.825.825-.143a13.647,13.647,0,0,0,6.779-3.443A15.781,15.781,0,0,0,1379.788,309.768Zm-9.11,6.061a12.224,12.224,0,0,1,2.869-5.165c2.905-2.905,5.236-3.622,5.559-3.264.143.143.143.753-.43,1.829a15.542,15.542,0,0,1-2.869,3.73A11.38,11.38,0,0,1,1370.678,315.829Z" transform="translate(-1363.756 -274.117)" fill="#576b96"/>
      <path id="Trazado_207365" data-name="Trazado 207365" d="M1453.7,253.026a6.091,6.091,0,1,0-4.3-10.4h0a6.1,6.1,0,0,0,4.3,10.4Zm-3.228-9.289h0a4.589,4.589,0,1,1-1.327,3.228A4.529,4.529,0,0,1,1450.469,243.737Z" transform="translate(-1414.101 -232.26)" fill="#576b96"/>
    </g>
    <g id="Grupo_1019327" data-name="Grupo 1019327" transform="translate(975.301 2410.356)">
      <g id="Grupo_141647" data-name="Grupo 141647">
        <path id="Trazado_207366" data-name="Trazado 207366" d="M1961.455,689.056a20.02,20.02,0,0,1-2.546,6.133l3.766,4.555-5.7,5.7-4.483-3.838a20.021,20.021,0,0,1-6.133,2.546l-.538,5.882h-8.07l-.466-5.882a20.02,20.02,0,0,1-6.133-2.546l-4.555,3.766-5.7-5.7,3.838-4.483a20.017,20.017,0,0,1-2.546-6.133l-5.882-.538v-8.07l5.882-.466a20.018,20.018,0,0,1,2.546-6.133l-3.766-4.555,5.7-5.7,4.483,3.838a20.021,20.021,0,0,1,6.133-2.546l.538-5.882h8.07l.466,5.882a20.02,20.02,0,0,1,6.133,2.546l4.591-3.766,5.7,5.7-3.838,4.483a20.018,20.018,0,0,1,2.547,6.133l5.882.538v8.07Zm-1.291-7.6-.108-.574a18.012,18.012,0,0,0-2.762-6.635l-.323-.5,3.658-4.268-3.658-3.658-4.34,3.587-.5-.323a18.011,18.011,0,0,0-6.635-2.762l-.574-.108-.43-5.6h-5.165l-.538,5.559-.574.108a18.011,18.011,0,0,0-6.635,2.762l-.5.323-4.268-3.658-3.658,3.658,3.587,4.34-.323.5a18.01,18.01,0,0,0-2.762,6.635l-.108.574-5.595.43v5.165l5.595.538.108.574a18.011,18.011,0,0,0,2.762,6.635l.323.5-3.658,4.268,3.658,3.658,4.34-3.587.5.323a18.012,18.012,0,0,0,6.635,2.762l.574.108.43,5.6h5.165l.538-5.6.574-.108a18.012,18.012,0,0,0,6.635-2.762l.5-.323,4.268,3.658,3.658-3.658-3.587-4.34.323-.5a18.008,18.008,0,0,0,2.762-6.635l.108-.574,5.6-.43v-5.165Z" transform="translate(-1916.3 -659)" fill="#313183"/>
      </g>
      <g id="Grupo_141648" data-name="Grupo 141648" transform="translate(11.656 11.621)">
        <path id="Trazado_207367" data-name="Trazado 207367" d="M1962.68,719.16a13.88,13.88,0,1,1,13.88-13.88A13.891,13.891,0,0,1,1962.68,719.16Zm0-1.578a12.3,12.3,0,1,0-12.3-12.3A12.322,12.322,0,0,0,1962.68,717.582Z" transform="translate(-1948.8 -691.4)" fill="#313183"/>
      </g>
    </g>
    <g id="Grupo_1019328" data-name="Grupo 1019328" transform="translate(1177.477 2253.479)">
      <g id="Grupo_141650" data-name="Grupo 141650" transform="translate(0 3.515)">
        <path id="Trazado_207368" data-name="Trazado 207368" d="M2503.743,278.887a23.743,23.743,0,1,1,23.743-23.743A23.771,23.771,0,0,1,2503.743,278.887Zm0-45.873a22.129,22.129,0,1,0,22.129,22.129A22.164,22.164,0,0,0,2503.743,233.014Z" transform="translate(-2480 -231.4)" fill="#348381"/>
      </g>
      <g id="Grupo_141651" data-name="Grupo 141651" transform="translate(6.815 10.365)">
        <path id="Trazado_207369" data-name="Trazado 207369" d="M2515.929,284.357a16.929,16.929,0,1,1,16.928-16.929A16.96,16.96,0,0,1,2515.929,284.357Zm0-32.279a15.351,15.351,0,1,0,15.351,15.351A15.368,15.368,0,0,0,2515.929,252.078Z" transform="translate(-2499 -250.5)" fill="#348381"/>
      </g>
      <g id="Grupo_141652" data-name="Grupo 141652" transform="translate(14.669 18.184)">
        <path id="Trazado_207370" data-name="Trazado 207370" d="M2529.974,290.448a9.074,9.074,0,1,1,9.074-9.074A9.085,9.085,0,0,1,2529.974,290.448Zm0-16.534a7.46,7.46,0,1,0,7.46,7.46A7.455,7.455,0,0,0,2529.974,273.914Z" transform="translate(-2520.9 -272.3)" fill="#348381"/>
      </g>
      <g id="Grupo_141656" data-name="Grupo 141656" transform="translate(22.853)">
        <g id="Grupo_141653" data-name="Grupo 141653" transform="translate(0 16.613)">
          <path id="Trazado_207371" data-name="Trazado 207371" d="M2544.537,279.819a.819.819,0,0,1-.682-.359.807.807,0,0,1,.215-1.112l15.423-10.294a.8.8,0,1,1,.9,1.327l-15.422,10.294A.689.689,0,0,1,2544.537,279.819Z" transform="translate(-2543.719 -267.918)" fill="#348381"/>
        </g>
        <g id="Grupo_141655" data-name="Grupo 141655" transform="translate(14.555)">
          <g id="Grupo_141654" data-name="Grupo 141654">
            <path id="Trazado_207372" data-name="Trazado 207372" d="M2584.3,239.318l5.057-10.832,10.365-6.886-1.9,9.54,9.5,1.9L2597,239.928l-11.907.574Z" transform="translate(-2584.3 -221.6)" fill="#348381"/>
          </g>
        </g>
      </g>
    </g>
    <g id="Grupo_1019329" data-name="Grupo 1019329" transform="translate(366.915 2340.8)">
      <text id="MEDIDAS_DE" data-name="MEDIDAS DE" transform="translate(0 11)" fill="#348381" font-size="12" font-family="Roboto-Black, Roboto" font-weight="800"><tspan x="0" y="0">MEDIDAS DE</tspan></text>
      <text id="DISPERSIÓN" transform="translate(0.215 26.494)" fill="#348381" font-size="12" font-family="Roboto-Black, Roboto" font-weight="800"><tspan x="0" y="0">DISPERSIÓN</tspan></text>
    </g>
    <g id="Grupo_1019331" data-name="Grupo 1019331" transform="translate(750.901 2340.8)">
      <text id="DISTRIBUCIÓN" transform="translate(8.034 11)" fill="#576b96" font-size="12" font-family="Roboto-Black, Roboto" font-weight="800"><tspan x="0" y="0">DISTRIBUCIÓN</tspan></text>
      <text id="DE_FRECUENCIAS" data-name="DE FRECUENCIAS" transform="translate(0 26.494)" fill="#576b96" font-size="12" font-family="Roboto-Black, Roboto" font-weight="800"><tspan x="0" y="0">DE FRECUENCIAS</tspan></text>
    </g>
    <path id="Trazado_730101" data-name="Trazado 730101" d="M7.342-6.943H4.781V0H2.725V-6.943H.211V-8.531H7.342Zm5.01,5.35H9.533L9.041,0h-2.2L9.973-8.531h1.934L15.059,0H12.85ZM10.025-3.182h1.834l-.92-2.959ZM15.68,0V-8.531h3.064a4.339,4.339,0,0,1,2.5.6,2.008,2.008,0,0,1,.858,1.752,2.03,2.03,0,0,1-.3,1.131,1.775,1.775,0,0,1-.9.691,1.8,1.8,0,0,1,1.025.656,1.908,1.908,0,0,1,.357,1.172A2.259,2.259,0,0,1,21.5-.642,3.778,3.778,0,0,1,19.143,0Zm2.057-3.627v2.045h1.348a1.282,1.282,0,0,0,.855-.255.892.892,0,0,0,.3-.718.946.946,0,0,0-1.061-1.072Zm0-1.348h1.072a1.523,1.523,0,0,0,.961-.247.876.876,0,0,0,.287-.711.92.92,0,0,0-.311-.779,1.662,1.662,0,0,0-1-.238H17.736Zm7.74,3.393h3.58V0H23.42V-8.531h2.057Zm9.4-.012H32.063L31.57,0h-2.2L32.5-8.531h1.934L37.588,0H35.379ZM32.555-3.182h1.834l-.92-2.959Zm10.055.914a.845.845,0,0,0-.319-.7,3.969,3.969,0,0,0-1.122-.521,10.765,10.765,0,0,1-1.312-.521A2.486,2.486,0,0,1,38.2-6.252,2.007,2.007,0,0,1,38.61-7.5a2.672,2.672,0,0,1,1.169-.844,4.549,4.549,0,0,1,1.7-.3,3.979,3.979,0,0,1,1.649.328,2.611,2.611,0,0,1,1.134.935A2.441,2.441,0,0,1,44.666-6H42.615a1.031,1.031,0,0,0-.319-.809,1.245,1.245,0,0,0-.864-.287,1.4,1.4,0,0,0-.87.243.746.746,0,0,0-.319.618.751.751,0,0,0,.352.595,4.433,4.433,0,0,0,1.236.551,7.574,7.574,0,0,1,1.453.612,2.442,2.442,0,0,1,1.383,2.2,2.083,2.083,0,0,1-.844,1.758,3.753,3.753,0,0,1-2.314.639A4.592,4.592,0,0,1,39.63-.255a2.831,2.831,0,0,1-1.266-1.02,2.657,2.657,0,0,1-.425-1.491H40a1.308,1.308,0,0,0,.354,1.011,1.676,1.676,0,0,0,1.151.325,1.324,1.324,0,0,0,.806-.22A.725.725,0,0,0,42.609-2.268Z" transform="translate(980.032 2351.8)" fill="#313183"/>
    <path id="Trazado_730102" data-name="Trazado 730102" d="M7.629-1.055a3.307,3.307,0,0,1-1.389.85,5.989,5.989,0,0,1-2,.322A3.573,3.573,0,0,1,1.559-.908,4.151,4.151,0,0,1,.486-3.762L.48-4.5A5.091,5.091,0,0,1,.926-6.7,3.307,3.307,0,0,1,2.2-8.147a3.6,3.6,0,0,1,1.919-.507,3.779,3.779,0,0,1,2.476.729A3.091,3.091,0,0,1,7.623-5.748H5.643a1.618,1.618,0,0,0-.457-1.02,1.475,1.475,0,0,0-1-.3,1.342,1.342,0,0,0-1.2.656,3.5,3.5,0,0,0-.428,1.875v.516A3.43,3.43,0,0,0,3-2.106a1.544,1.544,0,0,0,1.374.642,1.728,1.728,0,0,0,1.2-.357V-3.146H4.143V-4.559H7.629Zm4.365-1.963H10.881V0H8.824V-8.531h3.357a3.747,3.747,0,0,1,2.373.673,2.281,2.281,0,0,1,.855,1.9,2.77,2.77,0,0,1-.36,1.475,2.558,2.558,0,0,1-1.128.948L15.7-.088V0H13.5ZM10.881-4.6h1.3a1.168,1.168,0,0,0,.882-.308,1.192,1.192,0,0,0,.3-.861,1.206,1.206,0,0,0-.3-.866,1.157,1.157,0,0,0-.879-.314h-1.3ZM21.5-1.594H18.68L18.188,0h-2.2l3.129-8.531h1.934L24.205,0H22ZM19.172-3.182h1.834l-.92-2.959Zm1.184-7.635h2.086l-1.629,1.84-1.611,0ZM30.2-3.4H26.883V0H24.826V-8.531h5.707v1.588h-3.65V-4.98H30.2ZM33.58,0H31.529V-8.531H33.58Zm8.332-2.889a3.116,3.116,0,0,1-.48,1.573A2.9,2.9,0,0,1,40.2-.258a4.2,4.2,0,0,1-1.813.375,3.35,3.35,0,0,1-2.648-1.1,4.524,4.524,0,0,1-.967-3.094v-.422a5.164,5.164,0,0,1,.437-2.194,3.308,3.308,0,0,1,1.257-1.453,3.507,3.507,0,0,1,1.9-.513,3.677,3.677,0,0,1,2.5.817A3.23,3.23,0,0,1,41.93-5.584H39.879A1.528,1.528,0,0,0,39.486-6.7a1.615,1.615,0,0,0-1.125-.34,1.229,1.229,0,0,0-1.125.574,3.691,3.691,0,0,0-.375,1.834v.6A4.084,4.084,0,0,0,37.2-2.08a1.254,1.254,0,0,0,1.181.586,1.579,1.579,0,0,0,1.084-.334,1.418,1.418,0,0,0,.4-1.061Zm8.2-1.2a5.031,5.031,0,0,1-.463,2.209A3.421,3.421,0,0,1,48.331-.4a3.663,3.663,0,0,1-1.942.519,3.715,3.715,0,0,1-1.934-.5A3.415,3.415,0,0,1,43.14-1.816a4.886,4.886,0,0,1-.5-2.139v-.48a5.053,5.053,0,0,1,.46-2.212,3.413,3.413,0,0,1,1.318-1.479,3.688,3.688,0,0,1,1.954-.521,3.652,3.652,0,0,1,1.934.516,3.474,3.474,0,0,1,1.321,1.468,4.908,4.908,0,0,1,.478,2.183Zm-2.092-.357a3.587,3.587,0,0,0-.425-1.931,1.363,1.363,0,0,0-1.216-.659q-1.547,0-1.635,2.32l-.006.627a3.69,3.69,0,0,0,.416,1.928,1.361,1.361,0,0,0,1.236.674,1.344,1.344,0,0,0,1.2-.662,3.589,3.589,0,0,0,.428-1.9Zm7.553,2.18a.845.845,0,0,0-.319-.7,3.969,3.969,0,0,0-1.122-.521,10.765,10.765,0,0,1-1.312-.521,2.486,2.486,0,0,1-1.658-2.238A2.007,2.007,0,0,1,51.571-7.5a2.672,2.672,0,0,1,1.169-.844,4.549,4.549,0,0,1,1.7-.3,3.979,3.979,0,0,1,1.649.328,2.611,2.611,0,0,1,1.134.935A2.441,2.441,0,0,1,57.627-6H55.576a1.031,1.031,0,0,0-.319-.809,1.245,1.245,0,0,0-.864-.287,1.4,1.4,0,0,0-.87.243.746.746,0,0,0-.319.618.751.751,0,0,0,.352.595,4.433,4.433,0,0,0,1.236.551,7.574,7.574,0,0,1,1.453.612,2.442,2.442,0,0,1,1.383,2.2,2.083,2.083,0,0,1-.844,1.758,3.753,3.753,0,0,1-2.314.639,4.592,4.592,0,0,1-1.878-.372,2.831,2.831,0,0,1-1.266-1.02A2.657,2.657,0,0,1,50.9-2.766h2.063a1.308,1.308,0,0,0,.354,1.011,1.676,1.676,0,0,0,1.151.325,1.324,1.324,0,0,0,.806-.22A.725.725,0,0,0,55.57-2.268Z" transform="translate(1170.377 2359.841)" fill="#348381"/>
    <g id="Grupo_1019330" data-name="Grupo 1019330" transform="translate(566.236 2340.8)">
      <text id="MEDIDAS_DE-2" data-name="MEDIDAS DE" transform="translate(-0.236 11)" fill="#812823" font-size="12" font-family="Roboto-Black, Roboto" font-weight="800"><tspan x="0" y="0">MEDIDAS DE</tspan></text>
      <text id="POSICIÓN" transform="translate(6.764 26.494)" fill="#812823" font-size="12" font-family="Roboto-Black, Roboto" font-weight="800"><tspan x="0" y="0">POSICIÓN</tspan></text>
    </g>
  </g>
</svg>
