<svg xmlns="http://www.w3.org/2000/svg" xmlns:xlink="http://www.w3.org/1999/xlink" width="420" height="414" viewBox="0 0 420 414">
  <defs>
    <clipPath id="clip-path">
      <rect id="Rectángulo_45915" data-name="Rectángulo 45915" width="385.584" height="129" fill="none"/>
    </clipPath>
    <clipPath id="clip-path-2">
      <rect id="Rectángulo_45892" data-name="Rectángulo 45892" width="385.583" height="129" fill="none"/>
    </clipPath>
    <clipPath id="clip-path-3">
      <rect id="Rectángulo_45883" data-name="Rectángulo 45883" width="19.99" height="19.99" fill="none"/>
    </clipPath>
    <clipPath id="clip-path-4">
      <rect id="Rectángulo_45886" data-name="Rectángulo 45886" width="11.268" height="11.268" fill="none"/>
    </clipPath>
    <clipPath id="clip-path-6">
      <path id="Trazado_207468" data-name="Trazado 207468" d="M2108.76,290.084a35.831,35.831,0,1,0,35.831-35.831,35.83,35.83,0,0,0-35.831,35.831" transform="translate(-2108.76 -254.253)" fill="none"/>
    </clipPath>
    <clipPath id="clip-path-8">
      <rect id="Rectángulo_45899" data-name="Rectángulo 45899" width="1.426" height="0.727" fill="none"/>
    </clipPath>
    <clipPath id="clip-path-9">
      <rect id="Rectángulo_45900" data-name="Rectángulo 45900" width="1.292" height="0.663" fill="none"/>
    </clipPath>
    <clipPath id="clip-path-10">
      <rect id="Rectángulo_45901" data-name="Rectángulo 45901" width="1.823" height="1.233" fill="none"/>
    </clipPath>
    <clipPath id="clip-path-11">
      <rect id="Rectángulo_45905" data-name="Rectángulo 45905" width="14.568" height="0.473" fill="none"/>
    </clipPath>
    <clipPath id="clip-path-17">
      <rect id="Rectángulo_45911" data-name="Rectángulo 45911" width="14.567" height="0.473" fill="none"/>
    </clipPath>
  </defs>
  <g id="Grupo_1019402" data-name="Grupo 1019402" transform="translate(-288 -7798)">
    <rect id="Rectángulo_356100" data-name="Rectángulo 356100" width="420" height="414" transform="translate(288 7798)" fill="#57dbd8" opacity="0.1"/>
    <g id="Grupo_1019341" data-name="Grupo 1019341" transform="translate(305 7941)">
      <g id="Grupo_141763" data-name="Grupo 141763" clip-path="url(#clip-path)">
        <g id="Grupo_141725" data-name="Grupo 141725" transform="translate(0 0)">
          <g id="Grupo_141724" data-name="Grupo 141724" clip-path="url(#clip-path-2)">
            <path id="Trazado_207424" data-name="Trazado 207424" d="M1442.6,338.362a27.448,27.448,0,0,0-.959-8.574l6.9-6.1-4.093-7.213-8.525,2.61c-.141-.163-.262-.338-.408-.5a27.474,27.474,0,0,0-6.815-5.444l.825-8.711-7.917-2.467-4.409,7.679a27.168,27.168,0,0,0-9.164.883l-5.438-6.349-7.275,3.98,2.29,7.921c-.159.138-.329.255-.486.4a26.6,26.6,0,0,0-5.388,6.812l-8.726-.1-1.9,8.072,7.29,3.422a27.433,27.433,0,0,0,1.043,9.421l-6.627,6.166,4.194,7.154,8.251-2.759c.065.074.12.154.186.228a27.479,27.479,0,0,0,6.688,5.378l-.076,9.593,8.08,1.867,3.664-7.89a27.161,27.161,0,0,0,9.295-.937l6.2,6.561,7.121-4.25-2.765-8.063c.059-.052.123-.1.181-.148a26.588,26.588,0,0,0,5.526-7.076l8.657.668,2.329-7.959Zm-14.248,12.363a19,19,0,1,1,1.072-26.6,18.847,18.847,0,0,1-1.072,26.6" transform="translate(-1224.536 -267.734)" fill="#dcdbef"/>
            <path id="Trazado_207425" data-name="Trazado 207425" d="M1862.83,156.537a9.654,9.654,0,0,0-.338-3.016l2.427-2.145-1.44-2.538-3,.918c-.05-.057-.092-.119-.144-.175a9.666,9.666,0,0,0-2.4-1.915l.29-3.064-2.785-.868-1.551,2.7a9.56,9.56,0,0,0-3.224.311l-1.913-2.234-2.559,1.4L1847,148.7c-.056.048-.116.09-.171.14a9.359,9.359,0,0,0-1.9,2.4l-3.07-.037-.668,2.84,2.565,1.2a9.648,9.648,0,0,0,.367,3.314l-2.331,2.169,1.476,2.517,2.9-.971c.023.026.042.054.066.08a9.669,9.669,0,0,0,2.353,1.892l-.027,3.375,2.843.657,1.289-2.776a9.556,9.556,0,0,0,3.27-.33l2.182,2.308,2.505-1.5-.973-2.837c.021-.018.043-.033.064-.052a9.351,9.351,0,0,0,1.944-2.489l3.046.235.819-2.8Zm-5.013,4.349a6.683,6.683,0,1,1,.377-9.358,6.63,6.63,0,0,1-.377,9.358" transform="translate(-1632.462 -127.438)" fill="#dcdbef"/>
            <path id="Trazado_207426" data-name="Trazado 207426" d="M439.428,1045.035c0,3.081-82.186,5.579-183.567,5.579s-183.567-2.5-183.567-5.579,82.186-5.579,183.567-5.579,183.567,2.5,183.567,5.579" transform="translate(-64.099 -921.615)" fill="#d8e4fd"/>
            <path id="Trazado_207427" data-name="Trazado 207427" d="M1.624,703.642s-.857,27.324,21.384,29.2l1.952-1.5s5.386-20.837-23.336-27.7" transform="translate(-1.436 -623.871)" fill="#365902"/>
            <path id="Trazado_207428" data-name="Trazado 207428" d="M42.753,754.82a.395.395,0,0,0,.345-.634L21.46,725.954a.4.4,0,1,0-.628.481L42.47,754.667a.4.4,0,0,0,.283.154" transform="translate(-18.398 -643.517)" fill="#fff"/>
            <path id="Trazado_207429" data-name="Trazado 207429" d="M25.061,742.159a.4.4,0,0,0,.425-.421l-.537-7.776a.4.4,0,0,0-.789.054l.495,7.166-6.532-2.419a.4.4,0,0,0-.274.742l7.106,2.631a.408.408,0,0,0,.107.023" transform="translate(-15.596 -650.427)" fill="#fff"/>
            <path id="Trazado_207430" data-name="Trazado 207430" d="M104.707,846.072a.4.4,0,0,0,.425-.421l-.538-7.776a.4.4,0,0,0-.789.054l.5,7.166-6.532-2.419a.4.4,0,0,0-.274.742l7.106,2.631a.418.418,0,0,0,.107.023" transform="translate(-86.213 -742.56)" fill="#fff"/>
            <path id="Trazado_207431" data-name="Trazado 207431" d="M43.372,776.993a.4.4,0,0,0,.426-.4l-.233-10.555a.384.384,0,0,0-.4-.386.4.4,0,0,0-.386.4L43,776.066l-9.79-2.9a.4.4,0,1,0-.224.758l10.309,3.055a.406.406,0,0,0,.081.015" transform="translate(-28.991 -678.849)" fill="#fff"/>
            <path id="Trazado_207432" data-name="Trazado 207432" d="M3123.553,686.075s10.32,25.315-9.875,34.819l-2.351-.722s-12.306-17.656,12.226-34.1" transform="translate(-2755.864 -608.296)" fill="#365902"/>
            <path id="Trazado_207433" data-name="Trazado 207433" d="M3135.966,749.239a.4.4,0,0,1-.544-.475l10.451-34a.4.4,0,1,1,.756.232l-10.451,34a.4.4,0,0,1-.212.243" transform="translate(-2779.948 -633.485)" fill="#fff"/>
            <path id="Trazado_207434" data-name="Trazado 207434" d="M3181.71,749.1a.4.4,0,0,1-.545-.247l-2.205-7.477a.4.4,0,1,1,.758-.224l2.032,6.89,5.281-4.542a.4.4,0,0,1,.516.6l-5.745,4.941a.411.411,0,0,1-.092.059" transform="translate(-2818.551 -656.881)" fill="#fff"/>
            <path id="Trazado_207435" data-name="Trazado 207435" d="M3143.248,874.248a.4.4,0,0,1-.545-.247l-2.2-7.477a.4.4,0,0,1,.759-.224l2.031,6.89,5.281-4.542a.4.4,0,0,1,.516.6l-5.745,4.941a.407.407,0,0,1-.092.059" transform="translate(-2784.449 -767.839)" fill="#fff"/>
            <path id="Trazado_207436" data-name="Trazado 207436" d="M3150.961,797.69a.4.4,0,0,1-.539-.229l-3.458-9.975a.384.384,0,0,1,.244-.5.4.4,0,0,1,.5.244l3.279,9.464,8.167-6.129a.4.4,0,1,1,.474.632l-8.6,6.454a.4.4,0,0,1-.071.042" transform="translate(-2790.177 -697.744)" fill="#fff"/>
            <path id="Trazado_207437" data-name="Trazado 207437" d="M0,946.281s14.477,16.085,28.215,4.975l.3-1.924S20.176,934.473,0,946.281" transform="translate(0 -834.96)" fill="#45afac"/>
            <path id="Trazado_207438" data-name="Trazado 207438" d="M52.528,986.3a.313.313,0,0,0-.151-.551l-27.829-4.283a.313.313,0,1,0-.1.619l27.829,4.283a.314.314,0,0,0,.246-.067" transform="translate(-21.446 -870.194)" fill="#fff"/>
            <path id="Trazado_207439" data-name="Trazado 207439" d="M57.523,960.6a.313.313,0,0,0,.012-.473l-4.567-4.149a.308.308,0,0,0-.442.021.313.313,0,0,0,.021.442l4.209,3.824-5.059,2.2a.313.313,0,0,0,.249.574l5.5-2.389a.327.327,0,0,0,.074-.045" transform="translate(-45.669 -847.525)" fill="#fff"/>
            <path id="Trazado_207440" data-name="Trazado 207440" d="M159.956,976.37a.313.313,0,0,0,.012-.474l-4.566-4.15a.313.313,0,0,0-.421.463l4.208,3.824-5.058,2.2a.313.313,0,0,0,.249.574l5.5-2.389a.327.327,0,0,0,.074-.045" transform="translate(-136.49 -861.508)" fill="#fff"/>
            <path id="Trazado_207441" data-name="Trazado 207441" d="M97.156,955.447a.313.313,0,0,0,.023-.463l-5.915-5.9a.3.3,0,0,0-.442,0,.313.313,0,0,0,0,.442l5.612,5.6-7.183,3.7a.31.31,0,0,0-.135.422.313.313,0,0,0,.422.134l7.564-3.9a.318.318,0,0,0,.055-.036" transform="translate(-78.981 -841.399)" fill="#fff"/>
            <path id="Trazado_207442" data-name="Trazado 207442" d="M3184.575,862.042s-24.594-2.5-27.692,17.445l1.226,1.855s18.456,6.175,26.466-19.3" transform="translate(-2798.992 -764.225)" fill="#45afac"/>
            <path id="Trazado_207443" data-name="Trazado 207443" d="M3136.747,896.467a.357.357,0,0,0,.551.351l26.833-17.735a.357.357,0,1,0-.394-.6L3136.9,896.221a.357.357,0,0,0-.156.246" transform="translate(-2781.135 -778.842)" fill="#fff"/>
            <path id="Trazado_207444" data-name="Trazado 207444" d="M3300.771,878.758a.358.358,0,0,0,.353.41l7.049.006a.351.351,0,0,0,.358-.357.357.357,0,0,0-.357-.358l-6.5-.005,2.595-5.741a.358.358,0,0,0-.652-.294l-2.823,6.245a.377.377,0,0,0-.028.095" transform="translate(-2926.564 -773.327)" fill="#fff"/>
            <path id="Trazado_207445" data-name="Trazado 207445" d="M3202,944.041a.358.358,0,0,0,.354.41l7.048.007a.357.357,0,1,0,0-.715l-6.5-.006,2.595-5.74a.358.358,0,0,0-.652-.294l-2.823,6.244a.371.371,0,0,0-.028.095" transform="translate(-2838.994 -831.21)" fill="#fff"/>
            <path id="Trazado_207446" data-name="Trazado 207446" d="M3247,891.918a.357.357,0,0,0,.336.409l9.536.456a.348.348,0,0,0,.374-.339.358.358,0,0,0-.34-.374l-9.047-.432,3.235-8.647a.354.354,0,0,0-.209-.46.358.358,0,0,0-.46.21l-3.406,9.105a.365.365,0,0,0-.019.073" transform="translate(-2878.893 -782.459)" fill="#fff"/>
            <path id="Trazado_207447" data-name="Trazado 207447" d="M287.061,399.06a12,12,0,1,0-16.786,2.487,12,12,0,0,0,16.786-2.487" transform="translate(-235.333 -336.84)" fill="#ffe239"/>
            <g id="Grupo_141717" data-name="Grupo 141717" transform="translate(32.199 45.151)" style="mix-blend-mode: multiply;isolation: isolate">
              <g id="Grupo_141716" data-name="Grupo 141716">
                <g id="Grupo_141715" data-name="Grupo 141715" clip-path="url(#clip-path-3)">
                  <path id="Trazado_207448" data-name="Trazado 207448" d="M302.04,414.221a9.994,9.994,0,1,0-13.981,2.071,9.994,9.994,0,0,0,13.981-2.071" transform="translate(-284.019 -398.271)" fill="#eed069"/>
                </g>
              </g>
            </g>
            <path id="Trazado_207449" data-name="Trazado 207449" d="M302.869,415.03a10,10,0,0,0-6.637-15.854,9.408,9.408,0,0,1,3.558,1.63c4.19,3.108,5.617,9.459,2.374,13.544-4.083,5.143-9.441,4.735-13.63,1.627a9.406,9.406,0,0,1-3.589-5.532,9.992,9.992,0,0,0,17.924,4.584" transform="translate(-252.641 -353.922)" fill="#303030"/>
            <path id="Trazado_207450" data-name="Trazado 207450" d="M321.4,441.217a7.37,7.37,0,0,1-1.534-1.479,4.422,4.422,0,0,1-.769-1.553,3.458,3.458,0,0,1-.032-1.582,4.346,4.346,0,0,1,.7-1.565l1.48,1.1a2.34,2.34,0,0,0-.255,2,3.1,3.1,0,0,0,.5.933,4.27,4.27,0,0,0,.848.821,4.335,4.335,0,0,0,.951.545,2.809,2.809,0,0,0,.9.216,1.768,1.768,0,0,0,.781-.125,1.4,1.4,0,0,0,.595-.471,1.289,1.289,0,0,0,.279-.721,1.646,1.646,0,0,0-.211-.8,6.189,6.189,0,0,0-.669-1q-.444-.559-1.1-1.313a9.638,9.638,0,0,1-.989-1.343,4.011,4.011,0,0,1-.5-1.213,2.535,2.535,0,0,1,.005-1.122,2.972,2.972,0,0,1,.527-1.077,2.882,2.882,0,0,1,1.048-.887,3.006,3.006,0,0,1,1.327-.307,4.33,4.33,0,0,1,1.5.278,6.141,6.141,0,0,1,1.568.864,6.658,6.658,0,0,1,1.333,1.282,4.142,4.142,0,0,1,.721,1.394,3.2,3.2,0,0,1,.073,1.441,3.648,3.648,0,0,1-.6,1.422l-1.508-1.118q.973-1.658-.974-3.1a4.09,4.09,0,0,0-.9-.519,2.577,2.577,0,0,0-.825-.2,1.549,1.549,0,0,0-.7.116,1.25,1.25,0,0,0-.518.411,1.014,1.014,0,0,0-.2.492,1.312,1.312,0,0,0,.092.6,3.649,3.649,0,0,0,.414.766,11.1,11.1,0,0,0,.772.989q.415.49.807.962a11.031,11.031,0,0,1,.7.935,6.021,6.021,0,0,1,.507.921,2.975,2.975,0,0,1,.241.926,2.569,2.569,0,0,1-.1.955,3.2,3.2,0,0,1-.52,1,3.094,3.094,0,0,1-1.135.962,3.321,3.321,0,0,1-1.421.333,4.473,4.473,0,0,1-1.583-.283,6.306,6.306,0,0,1-1.62-.888" transform="translate(-282.822 -381.498)" fill="#303030"/>
            <rect id="Rectángulo_45884" data-name="Rectángulo 45884" width="15.283" height="1.653" transform="translate(36.735 60.446) rotate(-53.429)" fill="#303030"/>
            <path id="Trazado_207451" data-name="Trazado 207451" d="M323.824,443.144a7.372,7.372,0,0,1-1.534-1.479,4.421,4.421,0,0,1-.769-1.553,3.458,3.458,0,0,1-.032-1.582,4.346,4.346,0,0,1,.7-1.565l1.48,1.1a2.34,2.34,0,0,0-.255,2,3.1,3.1,0,0,0,.5.933,4.269,4.269,0,0,0,.848.821,4.335,4.335,0,0,0,.951.545,2.81,2.81,0,0,0,.9.216,1.768,1.768,0,0,0,.781-.125,1.4,1.4,0,0,0,.595-.471,1.289,1.289,0,0,0,.279-.721,1.646,1.646,0,0,0-.211-.8,6.187,6.187,0,0,0-.669-1q-.445-.559-1.1-1.313a9.649,9.649,0,0,1-.989-1.343,4.011,4.011,0,0,1-.5-1.213,2.533,2.533,0,0,1,.005-1.122,2.97,2.97,0,0,1,.527-1.077,2.879,2.879,0,0,1,1.048-.888,3.007,3.007,0,0,1,1.327-.307,4.328,4.328,0,0,1,1.5.278,6.141,6.141,0,0,1,1.568.864,6.66,6.66,0,0,1,1.333,1.282,4.143,4.143,0,0,1,.721,1.394,3.2,3.2,0,0,1,.073,1.441,3.649,3.649,0,0,1-.6,1.422l-1.508-1.118q.973-1.658-.975-3.1a4.089,4.089,0,0,0-.9-.519,2.577,2.577,0,0,0-.825-.2,1.549,1.549,0,0,0-.7.116,1.251,1.251,0,0,0-.518.411,1.015,1.015,0,0,0-.2.492,1.313,1.313,0,0,0,.092.6,3.645,3.645,0,0,0,.414.766,11.079,11.079,0,0,0,.772.989q.415.49.807.962a11.05,11.05,0,0,1,.7.935,6.028,6.028,0,0,1,.507.921,2.974,2.974,0,0,1,.241.926,2.566,2.566,0,0,1-.1.955,3.2,3.2,0,0,1-.52,1,3.093,3.093,0,0,1-1.135.962,3.322,3.322,0,0,1-1.421.333,4.474,4.474,0,0,1-1.583-.283,6.307,6.307,0,0,1-1.62-.888" transform="translate(-284.975 -383.206)" fill="#ffe239"/>
            <rect id="Rectángulo_45885" data-name="Rectángulo 45885" width="15.283" height="1.653" transform="translate(37.01 60.665) rotate(-53.429)" fill="#ffe239"/>
            <path id="Trazado_207452" data-name="Trazado 207452" d="M159.088,288.877a6.764,6.764,0,1,0-5.9,7.528,6.764,6.764,0,0,0,5.9-7.528" transform="translate(-129.102 -250.852)" fill="#ffe239"/>
            <g id="Grupo_141720" data-name="Grupo 141720" transform="translate(17.709 33.196)" style="mix-blend-mode: multiply;isolation: isolate">
              <g id="Grupo_141719" data-name="Grupo 141719">
                <g id="Grupo_141718" data-name="Grupo 141718" clip-path="url(#clip-path-4)">
                  <path id="Trazado_207453" data-name="Trazado 207453" d="M167.438,297.777a5.633,5.633,0,1,0-4.915,6.271,5.633,5.633,0,0,0,4.915-6.271" transform="translate(-156.212 -292.821)" fill="#eed069"/>
                </g>
              </g>
            </g>
            <path id="Trazado_207454" data-name="Trazado 207454" d="M184.052,297.772a5.635,5.635,0,0,0-8.864-3.909,5.3,5.3,0,0,1,2.087-.714c2.919-.354,5.966,1.689,6.225,4.618.325,3.687-2.024,5.6-4.943,5.953a5.3,5.3,0,0,1-3.614-.87,5.632,5.632,0,0,0,9.109-5.078" transform="translate(-155.11 -259.62)" fill="#303030"/>
            <path id="Trazado_207455" data-name="Trazado 207455" d="M183.659,318.727a4.151,4.151,0,0,1-1.2-.01,2.493,2.493,0,0,1-.917-.337,1.948,1.948,0,0,1-.627-.635,2.449,2.449,0,0,1-.322-.91l1.031-.125a1.319,1.319,0,0,0,.673.919,1.748,1.748,0,0,0,.568.187,2.411,2.411,0,0,0,.665.007,2.446,2.446,0,0,0,.6-.146,1.583,1.583,0,0,0,.453-.262,1,1,0,0,0,.271-.354.79.79,0,0,0,.061-.424.728.728,0,0,0-.166-.4.928.928,0,0,0-.4-.246,3.484,3.484,0,0,0-.66-.149q-.4-.056-.96-.11a5.421,5.421,0,0,1-.925-.165,2.259,2.259,0,0,1-.674-.3,1.43,1.43,0,0,1-.433-.461,1.676,1.676,0,0,1-.2-.645,1.625,1.625,0,0,1,.084-.77,1.7,1.7,0,0,1,.424-.64,2.44,2.44,0,0,1,.72-.467,3.459,3.459,0,0,1,.977-.255,3.752,3.752,0,0,1,1.042.007,2.334,2.334,0,0,1,.836.291,1.806,1.806,0,0,1,.589.561,2.059,2.059,0,0,1,.306.815l-1.05.127q-.245-1.056-1.6-.891a2.307,2.307,0,0,0-.57.137,1.448,1.448,0,0,0-.414.24.873.873,0,0,0-.241.319.705.705,0,0,0-.053.369.572.572,0,0,0,.109.279.74.74,0,0,0,.271.21,2.052,2.052,0,0,0,.466.153,6.226,6.226,0,0,0,.7.1q.36.039.7.08a6.284,6.284,0,0,1,.649.111,3.405,3.405,0,0,1,.564.18,1.675,1.675,0,0,1,.458.285,1.448,1.448,0,0,1,.329.43,1.8,1.8,0,0,1,.174.609,1.743,1.743,0,0,1-.091.834,1.872,1.872,0,0,1-.452.687,2.522,2.522,0,0,1-.757.5,3.557,3.557,0,0,1-1.007.266" transform="translate(-160.022 -276.622)" fill="#303030"/>
            <rect id="Rectángulo_45887" data-name="Rectángulo 45887" width="0.932" height="8.615" transform="matrix(0.993, -0.12, 0.12, 0.993, 22.13, 34.563)" fill="#303030"/>
            <path id="Trazado_207456" data-name="Trazado 207456" d="M185.4,318.573a4.151,4.151,0,0,1-1.2-.01,2.49,2.49,0,0,1-.917-.337,1.948,1.948,0,0,1-.627-.635,2.449,2.449,0,0,1-.322-.91l1.031-.125a1.319,1.319,0,0,0,.673.919,1.749,1.749,0,0,0,.568.187,2.4,2.4,0,0,0,.665.007,2.445,2.445,0,0,0,.6-.146,1.58,1.58,0,0,0,.452-.262,1,1,0,0,0,.271-.354.79.79,0,0,0,.061-.423.727.727,0,0,0-.166-.4.927.927,0,0,0-.4-.246,3.48,3.48,0,0,0-.66-.149q-.4-.056-.96-.11a5.424,5.424,0,0,1-.925-.165,2.261,2.261,0,0,1-.674-.3,1.429,1.429,0,0,1-.433-.461,1.676,1.676,0,0,1-.2-.645,1.623,1.623,0,0,1,.084-.769,1.7,1.7,0,0,1,.424-.64,2.444,2.444,0,0,1,.72-.467,3.463,3.463,0,0,1,.977-.255,3.751,3.751,0,0,1,1.042.007,2.334,2.334,0,0,1,.836.291,1.806,1.806,0,0,1,.589.561,2.058,2.058,0,0,1,.306.815l-1.05.127q-.245-1.056-1.6-.891a2.309,2.309,0,0,0-.57.137,1.449,1.449,0,0,0-.414.24.872.872,0,0,0-.241.319.7.7,0,0,0-.053.369.572.572,0,0,0,.109.279.741.741,0,0,0,.271.21,2.056,2.056,0,0,0,.466.153,6.264,6.264,0,0,0,.7.1q.36.039.7.08a6.284,6.284,0,0,1,.649.111,3.405,3.405,0,0,1,.564.18,1.675,1.675,0,0,1,.458.285,1.45,1.45,0,0,1,.329.43,1.805,1.805,0,0,1,.174.609,1.743,1.743,0,0,1-.091.834,1.872,1.872,0,0,1-.452.687,2.521,2.521,0,0,1-.757.5,3.557,3.557,0,0,1-1.007.266" transform="translate(-161.564 -276.486)" fill="#ffe239"/>
            <rect id="Rectángulo_45888" data-name="Rectángulo 45888" width="0.932" height="8.615" transform="matrix(0.993, -0.12, 0.12, 0.993, 22.327, 34.546)" fill="#ffe239"/>
            <path id="Trazado_207457" data-name="Trazado 207457" d="M3127.286,470.877a6.764,6.764,0,1,0-5.9,7.529,6.764,6.764,0,0,0,5.9-7.529" transform="translate(-2760.799 -412.218)" fill="#ffe239"/>
            <g id="Grupo_141723" data-name="Grupo 141723" transform="translate(354.21 53.83)" style="mix-blend-mode: multiply;isolation: isolate">
              <g id="Grupo_141722" data-name="Grupo 141722">
                <g id="Grupo_141721" data-name="Grupo 141721" clip-path="url(#clip-path-4)">
                  <path id="Trazado_207458" data-name="Trazado 207458" d="M3135.636,479.776a5.633,5.633,0,1,0-4.915,6.27,5.634,5.634,0,0,0,4.915-6.27" transform="translate(-3124.41 -474.82)" fill="#eed069"/>
                </g>
              </g>
            </g>
            <path id="Trazado_207459" data-name="Trazado 207459" d="M3152.25,479.772a5.635,5.635,0,0,0-8.864-3.909,5.3,5.3,0,0,1,2.087-.714c2.919-.354,5.966,1.689,6.225,4.618.325,3.687-2.024,5.6-4.943,5.953a5.3,5.3,0,0,1-3.613-.87,5.633,5.633,0,0,0,9.109-5.078" transform="translate(-2786.808 -420.987)" fill="#303030"/>
            <path id="Trazado_207460" data-name="Trazado 207460" d="M3151.856,500.726a4.149,4.149,0,0,1-1.2-.01,2.49,2.49,0,0,1-.917-.337,1.947,1.947,0,0,1-.627-.635,2.45,2.45,0,0,1-.322-.91l1.031-.125a1.317,1.317,0,0,0,.674.919,1.746,1.746,0,0,0,.568.187,2.406,2.406,0,0,0,.665.007,2.444,2.444,0,0,0,.6-.146,1.582,1.582,0,0,0,.453-.262,1,1,0,0,0,.271-.354.787.787,0,0,0,.061-.423.725.725,0,0,0-.166-.4.926.926,0,0,0-.4-.246,3.48,3.48,0,0,0-.66-.149q-.4-.056-.96-.11a5.434,5.434,0,0,1-.926-.165,2.257,2.257,0,0,1-.674-.3,1.426,1.426,0,0,1-.433-.461,1.672,1.672,0,0,1-.2-.645,1.622,1.622,0,0,1,.084-.769,1.7,1.7,0,0,1,.424-.64,2.443,2.443,0,0,1,.72-.467,3.463,3.463,0,0,1,.977-.255,3.751,3.751,0,0,1,1.042.007,2.334,2.334,0,0,1,.836.291,1.808,1.808,0,0,1,.589.561,2.056,2.056,0,0,1,.306.815l-1.051.127q-.245-1.056-1.6-.891a2.308,2.308,0,0,0-.57.137,1.451,1.451,0,0,0-.414.24.878.878,0,0,0-.241.319.7.7,0,0,0-.052.369.571.571,0,0,0,.109.279.739.739,0,0,0,.271.21,2.063,2.063,0,0,0,.466.153,6.243,6.243,0,0,0,.7.1q.36.039.7.08a6.3,6.3,0,0,1,.649.111,3.4,3.4,0,0,1,.564.18,1.673,1.673,0,0,1,.458.285,1.451,1.451,0,0,1,.33.43,1.812,1.812,0,0,1,.174.609,1.751,1.751,0,0,1-.091.834,1.875,1.875,0,0,1-.452.687,2.525,2.525,0,0,1-.757.5,3.558,3.558,0,0,1-1.007.266" transform="translate(-2791.719 -437.989)" fill="#303030"/>
            <rect id="Rectángulo_45890" data-name="Rectángulo 45890" width="0.932" height="8.615" transform="translate(358.631 55.196) rotate(-6.911)" fill="#303030"/>
            <path id="Trazado_207461" data-name="Trazado 207461" d="M3153.6,500.573a4.147,4.147,0,0,1-1.2-.01,2.488,2.488,0,0,1-.917-.337,1.952,1.952,0,0,1-.627-.635,2.45,2.45,0,0,1-.322-.91l1.031-.125a1.32,1.32,0,0,0,.674.919,1.746,1.746,0,0,0,.568.187,2.4,2.4,0,0,0,.665.007,2.444,2.444,0,0,0,.6-.146,1.588,1.588,0,0,0,.453-.262,1,1,0,0,0,.271-.354.787.787,0,0,0,.06-.423.725.725,0,0,0-.166-.4.925.925,0,0,0-.4-.246,3.483,3.483,0,0,0-.66-.149q-.4-.056-.96-.11a5.429,5.429,0,0,1-.925-.165,2.259,2.259,0,0,1-.674-.3,1.425,1.425,0,0,1-.433-.461,1.677,1.677,0,0,1-.2-.645,1.621,1.621,0,0,1,.084-.769,1.693,1.693,0,0,1,.424-.64,2.44,2.44,0,0,1,.72-.467,3.464,3.464,0,0,1,.977-.255,3.754,3.754,0,0,1,1.042.007,2.332,2.332,0,0,1,.836.291,1.8,1.8,0,0,1,.589.561,2.059,2.059,0,0,1,.306.815l-1.051.127q-.245-1.055-1.6-.891a2.294,2.294,0,0,0-.57.137,1.452,1.452,0,0,0-.414.24.87.87,0,0,0-.241.319.7.7,0,0,0-.053.369.571.571,0,0,0,.109.279.742.742,0,0,0,.271.21,2.056,2.056,0,0,0,.466.153,6.249,6.249,0,0,0,.7.1q.36.039.7.08a6.261,6.261,0,0,1,.649.111,3.416,3.416,0,0,1,.564.18,1.681,1.681,0,0,1,.458.285,1.449,1.449,0,0,1,.329.43,1.807,1.807,0,0,1,.174.609,1.742,1.742,0,0,1-.091.834,1.87,1.87,0,0,1-.452.687,2.518,2.518,0,0,1-.757.5,3.559,3.559,0,0,1-1.007.265" transform="translate(-2793.262 -437.852)" fill="#ffe239"/>
            <rect id="Rectángulo_45891" data-name="Rectángulo 45891" width="0.932" height="8.615" transform="translate(358.828 55.179) rotate(-6.911)" fill="#ffe239"/>
            <path id="Trazado_207462" data-name="Trazado 207462" d="M1531.326,120.574l-1.041-.7-.724,1.081h-11.293v12.224h12.224V121.818Zm-2.606,1.636-4.32,6.443-4.879-4V122.21Zm.518,9.717h-9.717v-5.653l5.151,4.225,4.566-6.811Z" transform="translate(-1346.144 -106.286)" fill="#1a1a1a"/>
            <path id="Trazado_207463" data-name="Trazado 207463" d="M1405.6,41.206l-.748-.5-.521.777h-8.119v8.788H1405V42.1Zm-1.873,1.176-3.105,4.632-3.508-2.877V42.382Zm.372,6.986h-6.986V45.3l3.7,3.037,3.282-4.9Z" transform="translate(-1237.925 -36.09)" fill="#1a1a1a"/>
          </g>
        </g>
        <g id="Grupo_141727" data-name="Grupo 141727" transform="translate(239.067 28.824)">
          <g id="Grupo_141726" data-name="Grupo 141726" clip-path="url(#clip-path-6)">
            <rect id="Rectángulo_45893" data-name="Rectángulo 45893" width="76.929" height="77.784" transform="translate(-1.896 -0.195)" fill="#1a0f91"/>
            <path id="Trazado_207464" data-name="Trazado 207464" d="M2092.315,206.855l37.719,32.268,22.2-43.347Z" transform="translate(-2094.179 -202.406)" fill="#fe7062"/>
            <path id="Trazado_207465" data-name="Trazado 207465" d="M2425.029,242.331l12.637,46.287,39.266-44.771-19.448-38.138-15.154-6.314Z" transform="translate(-2389.174 -205.614)" fill="#45afac"/>
            <path id="Trazado_207466" data-name="Trazado 207466" d="M2480.059,246.812l-9.943,24.541,3.808,3.808,21.156-17.983Z" transform="translate(-2429.149 -247.655)" fill="#afabd8"/>
            <path id="Trazado_207467" data-name="Trazado 207467" d="M2303.555,438.3a17.238,17.238,0,1,0-17.238,17.238,17.238,17.238,0,0,0,17.238-17.238" transform="translate(-2250.904 -402.153)" fill="#fff"/>
          </g>
        </g>
        <g id="Grupo_141762" data-name="Grupo 141762" transform="translate(0 0)">
          <g id="Grupo_141761" data-name="Grupo 141761" clip-path="url(#clip-path-2)">
            <rect id="Rectángulo_45894" data-name="Rectángulo 45894" width="90.601" height="38.539" transform="translate(231.69 64.652)" fill="#fff"/>
            <rect id="Rectángulo_45895" data-name="Rectángulo 45895" width="16.148" height="106.72" transform="translate(132.255 12.837)" fill="#1a0f91"/>
            <rect id="Rectángulo_45896" data-name="Rectángulo 45896" width="16.148" height="90.221" transform="translate(108.383 29.337)" fill="#1a0f91"/>
            <rect id="Rectángulo_45897" data-name="Rectángulo 45897" width="16.148" height="67.753" transform="translate(84.862 51.804)" fill="#1a0f91"/>
            <rect id="Rectángulo_45898" data-name="Rectángulo 45898" width="16.148" height="48.796" transform="translate(60.64 70.761)" fill="#1a0f91"/>
            <path id="Trazado_207469" data-name="Trazado 207469" d="M600.447,10.816l1.092-6.553L584.454,23.221h-12.17L558.241,47.327H545.368L534.6,67.924H519.389" transform="translate(-460.507 -3.779)" fill="none" stroke="#1a1a1a" stroke-linecap="round" stroke-linejoin="round" stroke-width="3"/>
            <line id="Línea_286" data-name="Línea 286" y1="2.161" x2="6.316" transform="translate(134.647 0.499)" fill="none" stroke="#1a1a1a" stroke-linecap="round" stroke-linejoin="round" stroke-width="3"/>
            <path id="Trazado_207470" data-name="Trazado 207470" d="M216.417,709.739V663.354H229.7q7.263,0,11.309,3.17T245.057,676a11.472,11.472,0,0,1-1.481,5.846,8.974,8.974,0,0,1-4.381,3.807,8.588,8.588,0,0,1,5.782,3.727,12.337,12.337,0,0,1,1.9,6.849q0,6.659-3.871,10.083t-11.039,3.425Zm8.984-26.76h4.715a6.123,6.123,0,0,0,4.428-1.625,6.2,6.2,0,0,0,1.529-4.524q0-3.313-1.593-4.874a6.574,6.574,0,0,0-4.778-1.561h-4.3Zm0,6.212v13.54h6.563a5.7,5.7,0,0,0,4.428-1.641,6.986,6.986,0,0,0,1.5-4.859,8.376,8.376,0,0,0-1.37-5.129,5.235,5.235,0,0,0-4.269-1.911H225.4Z" transform="translate(-191.882 -588.151)" fill="#1a1a1a"/>
            <path id="Trazado_207471" data-name="Trazado 207471" d="M216.417,709.739V663.354H229.7q7.263,0,11.309,3.17T245.057,676a11.472,11.472,0,0,1-1.481,5.846,8.974,8.974,0,0,1-4.381,3.807,8.588,8.588,0,0,1,5.782,3.727,12.337,12.337,0,0,1,1.9,6.849q0,6.659-3.871,10.083t-11.039,3.425Zm8.984-26.76h4.715a6.123,6.123,0,0,0,4.428-1.625,6.2,6.2,0,0,0,1.529-4.524q0-3.313-1.593-4.874a6.574,6.574,0,0,0-4.778-1.561h-4.3Zm0,6.212v13.54h6.563a5.7,5.7,0,0,0,4.428-1.641,6.986,6.986,0,0,0,1.5-4.859,8.376,8.376,0,0,0-1.37-5.129,5.235,5.235,0,0,0-4.269-1.911H225.4Z" transform="translate(-191.882 -588.151)" fill="none" stroke="#1a1a1a" stroke-miterlimit="10" stroke-width="3"/>
            <path id="Trazado_207472" data-name="Trazado 207472" d="M560.49,689.253H546.313v13.476h16.98v7.009H537.33V663.353h25.9v7.04H546.313v11.851H560.49Z" transform="translate(-476.413 -588.15)" fill="#1a1a1a"/>
            <path id="Trazado_207473" data-name="Trazado 207473" d="M560.49,689.253H546.313v13.476h16.98v7.009H537.33V663.353h25.9v7.04H546.313v11.851H560.49Z" transform="translate(-476.413 -588.15)" fill="none" stroke="#1a1a1a" stroke-miterlimit="10" stroke-width="3"/>
            <path id="Trazado_207474" data-name="Trazado 207474" d="M849.53,709.738h-8.984l-14.718-29.6-.191.032v29.564h-8.984V663.354h8.984l14.718,29.627.191-.032v-29.6h8.984Z" transform="translate(-724.07 -588.151)" fill="#1a1a1a"/>
            <path id="Trazado_207475" data-name="Trazado 207475" d="M849.53,709.738h-8.984l-14.718-29.6-.191.032v29.564h-8.984V663.354h8.984l14.718,29.627.191-.032v-29.6h8.984Z" transform="translate(-724.07 -588.151)" fill="none" stroke="#1a1a1a" stroke-miterlimit="10" stroke-width="3"/>
            <path id="Trazado_207476" data-name="Trazado 207476" d="M1193.264,690.105l.064.191q.127,7.454-3.807,11.166t-11.23,3.712q-7.487,0-11.883-4.412t-4.4-12.536V674.463q0-8.092,4.253-12.552t11.485-4.46q7.614,0,11.692,3.7t3.95,11.182l-.063.191H1184.6q0-4.46-1.577-6.244t-5.272-1.784a5.753,5.753,0,0,0-5.066,2.437Q1171,669.366,1171,674.4v13.826q0,5.066,1.816,7.5a6.393,6.393,0,0,0,5.48,2.437q3.345,0,4.81-1.768t1.466-6.292Z" transform="translate(-1030.276 -582.917)" fill="#1a1a1a"/>
            <path id="Trazado_207477" data-name="Trazado 207477" d="M1193.264,690.105l.064.191q.127,7.454-3.807,11.166t-11.23,3.712q-7.487,0-11.883-4.412t-4.4-12.536V674.463q0-8.092,4.253-12.552t11.485-4.46q7.614,0,11.692,3.7t3.95,11.182l-.063.191H1184.6q0-4.46-1.577-6.244t-5.272-1.784a5.753,5.753,0,0,0-5.066,2.437Q1171,669.366,1171,674.4v13.826q0,5.066,1.816,7.5a6.393,6.393,0,0,0,5.48,2.437q3.345,0,4.81-1.768t1.466-6.292Z" transform="translate(-1030.276 -582.917)" fill="none" stroke="#1a1a1a" stroke-miterlimit="10" stroke-width="3"/>
            <path id="Trazado_207478" data-name="Trazado 207478" d="M1520.86,709.738h-8.952V690.4h-14.941v19.338h-8.984V663.354h8.984v20.038h14.941V663.354h8.952Z" transform="translate(-1319.293 -588.151)" fill="#1a1a1a"/>
            <path id="Trazado_207479" data-name="Trazado 207479" d="M1520.86,709.738h-8.952V690.4h-14.941v19.338h-8.984V663.354h8.984v20.038h14.941V663.354h8.952Z" transform="translate(-1319.293 -588.151)" fill="none" stroke="#1a1a1a" stroke-miterlimit="10" stroke-width="3"/>
            <path id="Trazado_207480" data-name="Trazado 207480" d="M1859.851,697.76h.191l8.7-34.406h11.755v46.385h-8.92V680.525l-.191-.032L1863,709.738h-6.021l-8.315-29.022-.191.032v28.99h-8.952V663.354h11.692Z" transform="translate(-1630.981 -588.15)" fill="#1a1a1a"/>
            <path id="Trazado_207481" data-name="Trazado 207481" d="M1859.851,697.76h.191l8.7-34.406h11.755v46.385h-8.92V680.525l-.191-.032L1863,709.738h-6.021l-8.315-29.022-.191.032v28.99h-8.952V663.354h11.692Z" transform="translate(-1630.981 -588.15)" fill="none" stroke="#1a1a1a" stroke-miterlimit="10" stroke-width="3"/>
            <path id="Trazado_207482" data-name="Trazado 207482" d="M2264.66,699.7h-11.6l-2.612,10.035h-9.366l13.157-46.385h9.3l13.157,46.385h-9.4Zm-9.749-7.072h7.9l-3.855-14.718h-.191Z" transform="translate(-1987.016 -588.151)" fill="#1a1a1a"/>
            <path id="Trazado_207483" data-name="Trazado 207483" d="M2264.66,699.7h-11.6l-2.612,10.035h-9.366l13.157-46.385h9.3l13.157,46.385h-9.4Zm-9.749-7.072h7.9l-3.855-14.718h-.191Z" transform="translate(-1987.016 -588.151)" fill="none" stroke="#1a1a1a" stroke-miterlimit="10" stroke-width="3"/>
            <path id="Trazado_207484" data-name="Trazado 207484" d="M2597.117,691.381v18.6h-8.984V663.633h13.89q6.913,0,10.879,3.6t3.966,10.035a11.435,11.435,0,0,1-1.672,6.244,11.658,11.658,0,0,1-4.827,4.205,8.962,8.962,0,0,1,5.225,4.014,14.024,14.024,0,0,1,1.593,7.009v3.377a19.906,19.906,0,0,0,.446,4.078,5.449,5.449,0,0,0,1.593,3.122v.669h-9.3a5.309,5.309,0,0,1-1.418-3.329,35.372,35.372,0,0,1-.3-4.6V698.8a8.948,8.948,0,0,0-1.465-5.48,4.951,4.951,0,0,0-4.205-1.943Zm0-7.009h4.843a5.537,5.537,0,0,0,4.412-1.736,7.262,7.262,0,0,0,1.513-4.922,8.151,8.151,0,0,0-1.5-5.161,5.21,5.21,0,0,0-4.364-1.912h-4.906Z" transform="translate(-2294.72 -588.398)" fill="#1a1a1a"/>
            <path id="Trazado_207485" data-name="Trazado 207485" d="M2597.117,691.381v18.6h-8.984V663.633h13.89q6.913,0,10.879,3.6t3.966,10.035a11.435,11.435,0,0,1-1.672,6.244,11.658,11.658,0,0,1-4.827,4.205,8.962,8.962,0,0,1,5.225,4.014,14.024,14.024,0,0,1,1.593,7.009v3.377a19.906,19.906,0,0,0,.446,4.078,5.449,5.449,0,0,0,1.593,3.122v.669h-9.3a5.309,5.309,0,0,1-1.418-3.329,35.372,35.372,0,0,1-.3-4.6V698.8a8.948,8.948,0,0,0-1.465-5.48,4.951,4.951,0,0,0-4.205-1.943Zm0-7.009h4.843a5.537,5.537,0,0,0,4.412-1.736,7.262,7.262,0,0,0,1.513-4.922,8.151,8.151,0,0,0-1.5-5.161,5.21,5.21,0,0,0-4.364-1.912h-4.906Z" transform="translate(-2294.72 -588.398)" fill="none" stroke="#1a1a1a" stroke-miterlimit="10" stroke-width="3"/>
            <path id="Trazado_207486" data-name="Trazado 207486" d="M2917.111,690.274h-2.453v19.465h-8.984V663.354h8.984v18.987h1.848l9.844-18.987h11.15l-13.38,21.185,14.368,25.2h-11.469Z" transform="translate(-2576.262 -588.151)" fill="#1a1a1a"/>
            <path id="Trazado_207487" data-name="Trazado 207487" d="M2917.111,690.274h-2.453v19.465h-8.984V663.354h8.984v18.987h1.848l9.844-18.987h11.15l-13.38,21.185,14.368,25.2h-11.469Z" transform="translate(-2576.262 -588.151)" fill="none" stroke="#1a1a1a" stroke-miterlimit="10" stroke-width="3"/>
            <path id="Trazado_207488" data-name="Trazado 207488" d="M231.813,709.739V663.354H245.1q7.263,0,11.309,3.17T260.453,676a11.472,11.472,0,0,1-1.481,5.846,8.973,8.973,0,0,1-4.38,3.807,8.588,8.588,0,0,1,5.782,3.727,12.337,12.337,0,0,1,1.9,6.849q0,6.659-3.871,10.083t-11.039,3.425Zm8.984-26.76h4.715a6.122,6.122,0,0,0,4.428-1.625,6.2,6.2,0,0,0,1.529-4.524q0-3.313-1.593-4.874a6.574,6.574,0,0,0-4.779-1.561h-4.3Zm0,6.212v13.54h6.563a5.7,5.7,0,0,0,4.428-1.641,6.986,6.986,0,0,0,1.5-4.859,8.376,8.376,0,0,0-1.37-5.129,5.235,5.235,0,0,0-4.269-1.911H240.8Z" transform="translate(-205.533 -588.151)" fill="#91b3fa"/>
            <path id="Trazado_207489" data-name="Trazado 207489" d="M575.885,689.253H561.709v13.476h16.98v7.009H552.725V663.353h25.9v7.04H561.709v11.851h14.177Z" transform="translate(-490.063 -588.15)" fill="#91b3fa"/>
            <path id="Trazado_207490" data-name="Trazado 207490" d="M864.925,709.738h-8.984l-14.718-29.6-.191.032v29.564h-8.984V663.354h8.984l14.718,29.627.191-.032v-29.6h8.984Z" transform="translate(-737.72 -588.151)" fill="#91b3fa"/>
            <path id="Trazado_207491" data-name="Trazado 207491" d="M1208.659,690.105l.064.191q.127,7.454-3.807,11.166t-11.23,3.712q-7.487,0-11.883-4.412t-4.4-12.536V674.463q0-8.092,4.253-12.552t11.485-4.46q7.614,0,11.692,3.7t3.95,11.182l-.063.191h-8.729q0-4.46-1.577-6.244t-5.272-1.784a5.753,5.753,0,0,0-5.066,2.437q-1.689,2.437-1.688,7.471v13.826q0,5.066,1.816,7.5a6.393,6.393,0,0,0,5.48,2.437q3.345,0,4.81-1.768t1.466-6.292Z" transform="translate(-1043.926 -582.917)" fill="#91b3fa"/>
            <path id="Trazado_207492" data-name="Trazado 207492" d="M1536.255,709.738H1527.3V690.4h-14.941v19.338h-8.984V663.354h8.984v20.038H1527.3V663.354h8.952Z" transform="translate(-1332.943 -588.151)" fill="#91b3fa"/>
            <path id="Trazado_207493" data-name="Trazado 207493" d="M1875.246,697.76h.191l8.7-34.406h11.755v46.385h-8.92V680.525l-.191-.032-8.379,29.245h-6.021l-8.315-29.022-.191.032v28.99h-8.952V663.354h11.692Z" transform="translate(-1644.631 -588.15)" fill="#91b3fa"/>
            <path id="Trazado_207494" data-name="Trazado 207494" d="M2280.054,699.7h-11.6l-2.612,10.035h-9.366l13.157-46.385h9.3l13.157,46.385h-9.4Zm-9.748-7.072h7.9l-3.854-14.718h-.191Z" transform="translate(-2000.666 -588.151)" fill="#91b3fa"/>
            <path id="Trazado_207495" data-name="Trazado 207495" d="M2612.512,691.381v18.6h-8.984V663.633h13.89q6.913,0,10.879,3.6t3.967,10.035a11.435,11.435,0,0,1-1.672,6.244,11.658,11.658,0,0,1-4.827,4.205,8.963,8.963,0,0,1,5.225,4.014,14.027,14.027,0,0,1,1.593,7.009v3.377a19.906,19.906,0,0,0,.446,4.078,5.45,5.45,0,0,0,1.593,3.122v.669h-9.3a5.306,5.306,0,0,1-1.418-3.329,35.33,35.33,0,0,1-.3-4.6V698.8a8.948,8.948,0,0,0-1.465-5.48,4.951,4.951,0,0,0-4.205-1.943Zm0-7.009h4.842a5.537,5.537,0,0,0,4.412-1.736,7.262,7.262,0,0,0,1.513-4.922,8.151,8.151,0,0,0-1.5-5.161,5.21,5.21,0,0,0-4.364-1.912h-4.906Z" transform="translate(-2308.37 -588.398)" fill="#91b3fa"/>
            <path id="Trazado_207496" data-name="Trazado 207496" d="M2932.506,690.274h-2.453v19.465h-8.984V663.354h8.984v18.987h1.848l9.844-18.987h11.15l-13.38,21.185,14.368,25.2h-11.469Z" transform="translate(-2589.912 -588.151)" fill="#91b3fa"/>
            <path id="Trazado_207497" data-name="Trazado 207497" d="M1938.351,537.612c-.769,1.388-2,2.539-2.44,4.063a2.141,2.141,0,0,0-.071,1.095,2.271,2.271,0,0,0,.764,1.108,7.492,7.492,0,0,0,1.895,1.179,9.138,9.138,0,0,0,7.463.208,6.465,6.465,0,0,0,3.842-6.122c-.142-1.717-1.074-3.254-1.616-4.889a29.335,29.335,0,0,0-1.041-3.281,3.589,3.589,0,0,0-2.494-2.173,4.311,4.311,0,0,0-1.685.159,4.857,4.857,0,0,0-3.162,1.9c-.68,1.144-.458,2.582-.579,3.907a7.26,7.26,0,0,1-.876,2.844" transform="translate(-1716.338 -468.823)" fill="#eed069"/>
            <path id="Trazado_207498" data-name="Trazado 207498" d="M2059.522,1014.106l1.222,3.614s-1.018,1.832-.865,2.545a4.465,4.465,0,0,1,1.578.916,2.923,2.923,0,0,0,2.341,1.68,4.563,4.563,0,0,0,1.934-.1l.178-.025a2,2,0,0,0-1.342-1.247,1.326,1.326,0,0,1-.669-.407c-.305-.458-1.527-3.308-1.527-3.308l-.967-5.344Z" transform="translate(-1826.037 -897.649)" fill="#ffa192"/>
            <path id="Trazado_207499" data-name="Trazado 207499" d="M2063.886,1082.072l.034,1.968h-.814l-.441-2.477Z" transform="translate(-1828.823 -958.948)" fill="#1a1a1a"/>
            <path id="Trazado_207500" data-name="Trazado 207500" d="M2061.767,1081.264a3.193,3.193,0,0,1,1.68.95,2.975,2.975,0,0,0,2.63,1.714,6.426,6.426,0,0,0,1.883-.136" transform="translate(-1828.027 -958.683)" fill="none" stroke="#1a1a1a" stroke-linecap="round" stroke-linejoin="round" stroke-width="0.25"/>
            <path id="Trazado_207501" data-name="Trazado 207501" d="M2085.191,1082.983l-.271,1.425a6.022,6.022,0,0,1-1.222-.187,3.928,3.928,0,0,1-.832-.526l1.343-1.851s.608,1.088.982,1.139" transform="translate(-1846.735 -959.197)" fill="#1a1a1a"/>
            <path id="Trazado_207502" data-name="Trazado 207502" d="M1949.278,1003.211l-.119,6.8s-1.018,1.832-.865,2.545a4.465,4.465,0,0,1,1.578.916,2.923,2.923,0,0,0,2.341,1.68,4.566,4.566,0,0,0,1.934-.1l.178-.025a2,2,0,0,0-1.342-1.247,1.325,1.325,0,0,1-.669-.407c-.305-.458-1.527-3.308-1.527-3.308l.967-6.532Z" transform="translate(-1727.405 -889.479)" fill="#ffa192"/>
            <path id="Trazado_207503" data-name="Trazado 207503" d="M1949.637,1086.18l.034,1.968h-.814l-.441-2.477Z" transform="translate(-1727.527 -962.59)" fill="#1a1a1a"/>
            <path id="Trazado_207504" data-name="Trazado 207504" d="M1947.518,1085.371a3.192,3.192,0,0,1,1.679.95,2.976,2.976,0,0,0,2.63,1.714,6.435,6.435,0,0,0,1.883-.136" transform="translate(-1726.731 -962.324)" fill="none" stroke="#1a1a1a" stroke-linecap="round" stroke-linejoin="round" stroke-width="0.25"/>
            <path id="Trazado_207505" data-name="Trazado 207505" d="M1970.943,1087.09l-.271,1.425a6.034,6.034,0,0,1-1.222-.187,3.931,3.931,0,0,1-.831-.526l1.342-1.851s.609,1.088.982,1.139" transform="translate(-1745.439 -962.838)" fill="#1a1a1a"/>
            <path id="Trazado_207506" data-name="Trazado 207506" d="M1952.579,747.23a15.173,15.173,0,0,0-2.511,4.16c-.611,1.929-2.008,30.021-2.008,30.021a5.929,5.929,0,0,0,3.871.228l3.787-26.487s.051-.241.254,0,4.781,26.354,4.781,26.354a3.135,3.135,0,0,0,3.093-.4s-1.766-27.909-2.852-30.38a17.423,17.423,0,0,0-1.9-3.5Z" transform="translate(-1727.211 -662.518)" fill="#333"/>
            <path id="Trazado_207507" data-name="Trazado 207507" d="M1956.413,750.522a19.2,19.2,0,0,0-2.138,4.275c-.509,1.832-2.2,29.646-2.2,29.646" transform="translate(-1730.774 -665.437)" fill="none" stroke="#fff9f8" stroke-linecap="round" stroke-linejoin="round" stroke-width="0.25"/>
            <path id="Trazado_207508" data-name="Trazado 207508" d="M2016.093,758.383l.825-.683.07-6.729h.992l-.076,5.446-.941,1.222" transform="translate(-1787.531 -665.835)" fill="none" stroke="#fff9f8" stroke-linecap="round" stroke-linejoin="round" stroke-width="0.25"/>
            <line id="Línea_287" data-name="Línea 287" x1="3.741" y2="5.293" transform="translate(223.298 85.264)" fill="none" stroke="#fff9f8" stroke-linecap="round" stroke-linejoin="round" stroke-width="0.25"/>
            <path id="Trazado_207509" data-name="Trazado 207509" d="M2034.12,664.862l1.312,4.178s5.83-3.692,6.316-3.838a9.831,9.831,0,0,1,3.3-.486l-.826.535,1.555.729,1.166-.632-.146.583.292-.1-.923.777.777-.146-1.895,1.117-3.061-1.555s-5.927,6.17-7.385,5.684-2.866-5.15-2.866-5.15Z" transform="translate(-1801.404 -589.346)" fill="#ffa192"/>
            <path id="Trazado_207510" data-name="Trazado 207510" d="M1922.707,666.759l-1.572,9.588.078,8.094-1.965,2.829-.393,1.572.314.393.393-.314.472.55.786-1.886.786-1.1-.629,1.965a4.04,4.04,0,0,0,1.257-3.694s1.414-7.466,1.336-8.959l1.415-7.151Z" transform="translate(-1701.318 -591.17)" fill="#ffa192"/>
            <line id="Línea_288" data-name="Línea 288" x2="2.468" y2="4.428" transform="translate(231.518 85.314)" fill="none" stroke="#fff9f8" stroke-linecap="round" stroke-linejoin="round" stroke-width="0.25"/>
            <path id="Trazado_207511" data-name="Trazado 207511" d="M1946.8,636.489a23.184,23.184,0,0,0-4.224,1.374c-.662.509-2.087,5.344-2.087,5.344s3.529.78,3.783.78c0,0,1.739,3.216,2.08,4.05a.205.205,0,0,1-.021.2l-1.075,1.557s5.259,1.052,7.651-.017l-.407-1.425-.043-3.952s1.061-.934,1.111-1.6l.051-.662.814-.356-1.781-4.377-3.416-.847Z" transform="translate(-1720.495 -564.331)" fill="#ff404e"/>
            <line id="Línea_289" data-name="Línea 289" y1="2.918" x2="0.339" transform="translate(223.773 76.738)" fill="none" stroke="#333" stroke-linecap="round" stroke-linejoin="round" stroke-width="0.25"/>
            <path id="Trazado_207512" data-name="Trazado 207512" d="M1979.781,598.291s.048,3.6-.062,3.884-1.813.932-1.813.932,3.4,1.727,6.1-.01a6.641,6.641,0,0,1-1.333-.867c-.1-.213-.159-2.562-.159-2.562Z" transform="translate(-1753.673 -530.464)" fill="#ffa192"/>
            <path id="Trazado_207513" data-name="Trazado 207513" d="M1994.5,603.858v-.041l1.462.114,1.263.637s.009.328.025.75a3.25,3.25,0,0,1-2.749-1.46" transform="translate(-1768.388 -535.363)" fill="#333"/>
            <path id="Trazado_207514" data-name="Trazado 207514" d="M1981.567,537.509c.542,3.6-1.174,5.239-1.992,5.353a3.47,3.47,0,0,1-3.467-2.147s-1.308.054-1.439-.658c-.24-1.311.829-.671.829-.671s-2.021-3.946,1.524-5.107c2.315-.758,4.025-.224,4.545,3.228" transform="translate(-1750.773 -473.444)" fill="#ffa192"/>
            <path id="Trazado_207515" data-name="Trazado 207515" d="M1997.354,565.96c.034-.078.2-.1.271-.121a1.347,1.347,0,0,1,.463-.063,2.784,2.784,0,0,1,.367.043c.082.014.225.058.3-.009a.119.119,0,0,0,0-.161c-.091-.1-.3-.109-.432-.118a.89.89,0,0,0-.961.429" transform="translate(-1770.917 -501.413)" fill="#333"/>
            <g id="Grupo_141730" data-name="Grupo 141730" transform="translate(226.271 66.102)" opacity="0.47">
              <g id="Grupo_141729" data-name="Grupo 141729">
                <g id="Grupo_141728" data-name="Grupo 141728" clip-path="url(#clip-path-8)">
                  <path id="Trazado_207516" data-name="Trazado 207516" d="M1995.891,583.474c-.011-.2.3-.379.693-.4s.722.122.733.322-.3.379-.693.4-.721-.122-.733-.322" transform="translate(-1995.891 -583.071)" fill="#e54141"/>
                </g>
              </g>
            </g>
            <g id="Grupo_141733" data-name="Grupo 141733" transform="translate(229.467 65.828)" opacity="0.47">
              <g id="Grupo_141732" data-name="Grupo 141732">
                <g id="Grupo_141731" data-name="Grupo 141731" clip-path="url(#clip-path-9)">
                  <path id="Trazado_207517" data-name="Trazado 207517" d="M2024.084,581.022c-.01-.182.271-.345.627-.365s.654.112.664.294-.271.345-.627.365-.654-.112-.664-.294" transform="translate(-2024.083 -580.655)" fill="#e54141"/>
                </g>
              </g>
            </g>
            <path id="Trazado_207518" data-name="Trazado 207518" d="M2016.76,573.036a.617.617,0,0,0,.424-.285.05.05,0,0,0,0-.05,3.037,3.037,0,0,1-.3-1.555.05.05,0,0,0-.044-.055.051.051,0,0,0-.056.044,3.1,3.1,0,0,0,.293,1.585.494.494,0,0,1-.328.215h-.017a.05.05,0,0,0,0,.1h.02" transform="translate(-1788.061 -506.347)" fill="#333"/>
            <g id="Grupo_141736" data-name="Grupo 141736" transform="translate(227.884 67.159)" opacity="0.58">
              <g id="Grupo_141735" data-name="Grupo 141735">
                <g id="Grupo_141734" data-name="Grupo 141734" clip-path="url(#clip-path-10)">
                  <path id="Trazado_207519" data-name="Trazado 207519" d="M2010.117,592.748l.714-.319.286.2.233-.236.59.245s-.168.912-.819.983c-.753.083-1-.873-1-.873" transform="translate(-2010.117 -592.394)" fill="#e54141"/>
                </g>
              </g>
            </g>
            <path id="Trazado_207520" data-name="Trazado 207520" d="M2010.117,594.664l1.823-.11a1.048,1.048,0,0,1-1.823.11" transform="translate(-1782.233 -527.15)" fill="#fff"/>
            <path id="Trazado_207521" data-name="Trazado 207521" d="M2002.126,571.1c-.035-.33-.209-.582-.389-.563s-.3.3-.261.632.21.582.389.563.3-.3.261-.632" transform="translate(-1774.566 -505.853)" fill="#333"/>
            <path id="Trazado_207522" data-name="Trazado 207522" d="M2022.249,563.917c-.046-.069-.2-.054-.271-.061a1.179,1.179,0,0,0-.434.035,2.461,2.461,0,0,0-.326.119c-.072.031-.194.1-.271.054a.125.125,0,0,1-.028-.158c.063-.12.254-.17.37-.206a.792.792,0,0,1,.96.218" transform="translate(-1791.797 -499.735)" fill="#333"/>
            <path id="Trazado_207523" data-name="Trazado 207523" d="M2024.188,568.737c-.035-.33.082-.613.261-.632s.354.233.389.563-.082.613-.261.632-.354-.233-.389-.563" transform="translate(-1794.703 -503.699)" fill="#333"/>
            <path id="Trazado_207524" data-name="Trazado 207524" d="M1990.866,693.351a2.689,2.689,0,0,0,3.4-.155s-1.764,2.537-3.4.155" transform="translate(-1765.164 -614.609)" fill="#333"/>
            <path id="Trazado_207525" data-name="Trazado 207525" d="M2047.649,666.283a8.707,8.707,0,0,1-1.108-2.562" transform="translate(-1814.528 -588.476)" fill="none" stroke="#333" stroke-linecap="round" stroke-linejoin="round" stroke-width="0.25"/>
            <path id="Trazado_207526" data-name="Trazado 207526" d="M1970.125,534.536a5.668,5.668,0,0,1,.732-1.9,3.806,3.806,0,0,1,3.218-1.738,3.393,3.393,0,0,1,3,2.021,6.27,6.27,0,0,1,.311,1.163l.362,1.81a4.876,4.876,0,0,0-3.374-3.256c-.738,2.815-3.357,4.966-3.645,7.862a9.8,9.8,0,0,1-.6-5.967" transform="translate(-1746.582 -470.714)" fill="#eed069"/>
            <path id="Trazado_207527" data-name="Trazado 207527" d="M1933.123,536.915a2.859,2.859,0,0,0-2.009,1.46,10.488,10.488,0,0,0-.627,2.9,8.549,8.549,0,0,1-2.4,4.158c-.823.845-1.827,1.751-1.789,2.93a2.439,2.439,0,0,0,.9,1.713,5.2,5.2,0,0,0,1.753.917" transform="translate(-1707.92 -476.046)" fill="none" stroke="#eed069" stroke-miterlimit="10" stroke-width="1.004"/>
            <path id="Trazado_207528" data-name="Trazado 207528" d="M2377.176,531.56a2.826,2.826,0,1,0-3.91.827,2.826,2.826,0,0,0,3.91-.827" transform="translate(-2103.073 -467.425)" fill="#1a1a1a"/>
            <path id="Trazado_207529" data-name="Trazado 207529" d="M2380.756,414.158l8.125-19.379-12.862,16.3Z" transform="translate(-2106.653 -350.023)" fill="#1a1a1a"/>
            <path id="Trazado_207530" data-name="Trazado 207530" d="M1024.067,802.34a1.563,1.563,0,0,1,.427.081,1.982,1.982,0,0,0,1.407-.192c.017-.209.027-.419.024-.641a1.672,1.672,0,0,1,.028-.323c-.116-.037-.19-.056-.19-.056l-.651-2.3-2,.1,1.052,3.055s-.036.1-.094.28" transform="translate(-907.121 -708.334)" fill="#ffa192"/>
            <path id="Trazado_207531" data-name="Trazado 207531" d="M1023.878,819.712c-.144.434-.433.995-.965.971a3.9,3.9,0,0,1-.841-.132c-.191.562-2.357,7.04-.536,7.519,1.9.5,3.956-7.312,3.956-7.312a2.937,2.937,0,0,0-1.614-1.047" transform="translate(-905.084 -726.782)" fill="#c1272d"/>
            <path id="Trazado_207532" data-name="Trazado 207532" d="M1027.221,825.172c-.368,1.3-2.316,7.84-4.032,7.389h0a.762.762,0,0,0,.455.352c1.9.5,3.956-7.312,3.956-7.312a1.435,1.435,0,0,0-.375-.428" transform="translate(-907.189 -731.624)" fill="#f7ead5"/>
            <path id="Trazado_207533" data-name="Trazado 207533" d="M1079.508,802.34a1.562,1.562,0,0,1,.427.081,1.982,1.982,0,0,0,1.407-.192c.017-.209.027-.419.024-.641a1.672,1.672,0,0,1,.028-.323c-.116-.037-.19-.056-.19-.056l-.651-2.3-2,.1,1.052,3.055s-.036.1-.094.28" transform="translate(-956.276 -708.334)" fill="#ffa192"/>
            <path id="Trazado_207534" data-name="Trazado 207534" d="M987.077,596.954s-.15,3.23-.826,3.681-5.784,2.479-5.784,2.479l1.8,14.048a4.737,4.737,0,0,1-4.733.676l-3.981-12.32,2.279,11.744a5.269,5.269,0,0,1-4.282,1.177s-6.035-17.879-5.734-18.179,8.639-6.16,8.639-6.16l.9-1.052Z" transform="translate(-856.315 -525.815)" fill="#f28705"/>
            <path id="Trazado_207535" data-name="Trazado 207535" d="M1094.392,627.837s-.3,1.277-.488,1.84-5.972,2.78-6.235,3.268,2.141,15.212,2.141,15.212" transform="translate(-964.344 -556.66)" fill="none" stroke="#333" stroke-linecap="round" stroke-linejoin="round" stroke-width="0.25"/>
            <path id="Trazado_207536" data-name="Trazado 207536" d="M1024.777,637.809s-1.39-3.844-1.277-4.557,5.208-3.831,5.208-3.831,1.778-.651,5.121.213" transform="translate(-907.462 -557.856)" fill="none" stroke="#333" stroke-linecap="round" stroke-linejoin="round" stroke-width="0.25"/>
            <path id="Trazado_207537" data-name="Trazado 207537" d="M1066.273,611.5l1.615-1.8-1.39-.413-1.2,1.8.3.789" transform="translate(-944.525 -540.21)" fill="none" stroke="#333" stroke-linecap="round" stroke-linejoin="round" stroke-width="0.25"/>
            <path id="Trazado_207538" data-name="Trazado 207538" d="M1079.319,819.712c-.144.434-.434.995-.965.971a3.9,3.9,0,0,1-.841-.132c-.191.562-2.357,7.04-.536,7.519,1.9.5,3.957-7.312,3.957-7.312a2.937,2.937,0,0,0-1.614-1.047" transform="translate(-954.239 -726.782)" fill="#c1272d"/>
            <path id="Trazado_207539" data-name="Trazado 207539" d="M1082.661,825.172c-.368,1.3-2.316,7.84-4.032,7.389h0a.762.762,0,0,0,.454.352c1.9.5,3.956-7.312,3.956-7.312a1.437,1.437,0,0,0-.375-.428" transform="translate(-956.344 -731.624)" fill="#f7ead5"/>
            <path id="Trazado_207540" data-name="Trazado 207540" d="M1076.578,828.062a1.423,1.423,0,0,1,1.212,1.175c.024.165-.015.379-.177.42s-.308-.146-.385-.307l-.392-.814c-.123-.257-.288-.546-.57-.589a.888.888,0,0,0-.492.12c-.327.151-.707.384-.691.743a1.3,1.3,0,0,0,1.3-.644,9.274,9.274,0,0,0,.543,1.426c-.323-.029-.647-.042-.972-.039l.789.79a7.041,7.041,0,0,1-1.094.385l.727.568c.078.061.165.151.129.243a.231.231,0,0,1-.109.1,9.158,9.158,0,0,1-.99.5l.521-.14" transform="translate(-953.203 -734.08)" fill="none" stroke="#333" stroke-linecap="round" stroke-linejoin="round" stroke-width="0.25"/>
            <path id="Trazado_207541" data-name="Trazado 207541" d="M1022.214,828.062a1.423,1.423,0,0,1,1.212,1.175c.024.165-.015.379-.177.42s-.308-.146-.385-.307l-.392-.814c-.124-.257-.288-.546-.57-.589a.887.887,0,0,0-.492.12c-.327.151-.707.384-.691.743a1.3,1.3,0,0,0,1.3-.644,9.274,9.274,0,0,0,.543,1.426c-.323-.029-.647-.042-.972-.039l.789.79a7.041,7.041,0,0,1-1.094.385l.727.568c.078.061.165.151.129.243a.232.232,0,0,1-.109.1,9.171,9.171,0,0,1-.99.5l.521-.14" transform="translate(-905.002 -734.08)" fill="none" stroke="#333" stroke-linecap="round" stroke-linejoin="round" stroke-width="0.25"/>
            <path id="Trazado_207542" data-name="Trazado 207542" d="M1011.868,480.636l1.886-3.689,3.05,2.64.817,8.409-.847.118a1.509,1.509,0,0,1-1.557-.817Z" transform="translate(-897.154 -422.876)" fill="#ffa192"/>
            <path id="Trazado_207543" data-name="Trazado 207543" d="M1023.359,440.288l4.378-1.23,5.665.089s3.479.535,4.564,2.109c.36.522.484,2.728,0,4.532s-1.948,16.058-1.948,16.058a53.658,53.658,0,0,0-8.153-3.082c-4.18-1.144-4.687-1.027-4.687-1.027l2.337-3.546-1.1-7.2-3.3-2s.97-4.13,2.246-4.7" transform="translate(-905.351 -389.283)" fill="#45afac"/>
            <path id="Trazado_207544" data-name="Trazado 207544" d="M1081.859,404.828s.365,2.667,1.069,3.195,1.105.842,1.105.842-3.661,1.729-6.066-.089l.691-.335-.111-2.777Z" transform="translate(-955.759 -358.933)" fill="#ffa192"/>
            <path id="Trazado_207545" data-name="Trazado 207545" d="M987.356,455.755l-1.54-4.532,3.124-.924,1.8,5.9Z" transform="translate(-874.056 -399.25)" fill="#0e2349"/>
            <path id="Trazado_207546" data-name="Trazado 207546" d="M1005.157,483.92a11.609,11.609,0,0,1,4.569,1.421l-3.029,7.906-1.364.66s-3.036.176-9.547-7.391l-3.74-.528-.616-1.144a10.262,10.262,0,0,1-.968-1.54,7.516,7.516,0,0,1,.484-.748l.352.7,3.476.968a12.359,12.359,0,0,1-.528-2.068c0-.484,2.6,3.124,2.6,3.124s5.719,3.212,7.171,4.136Z" transform="translate(-878.174 -427.459)" fill="#ffa192"/>
            <path id="Trazado_207547" data-name="Trazado 207547" d="M1086.594,406.633c-.01-.056-.018-.106-.024-.149l-2.313.389-1.027.259.07,1.752a2.891,2.891,0,0,0,3.294-2.252" transform="translate(-960.425 -360.402)" fill="#333"/>
            <path id="Trazado_207548" data-name="Trazado 207548" d="M1058.405,341.846c.321,1.885,1.428,5.569,3.329,5.368a3.121,3.121,0,0,0,3.026-3.293s1.035.282.855-1.074c-.079-.6-.723-.225-.723-.225s.75-5.025-2.4-5.18-4.526,1.825-4.087,4.405" transform="translate(-938.345 -299.178)" fill="#ffa192"/>
            <path id="Trazado_207549" data-name="Trazado 207549" d="M1086.507,370.208a.571.571,0,0,1-.166.094.155.155,0,0,1-.171-.057.3.3,0,0,1,.019-.308.731.731,0,0,1,.463-.293,1.558,1.558,0,0,1,.539-.085.7.7,0,0,1,.5.254.131.131,0,0,1,.033.07.083.083,0,0,1-.052.083.176.176,0,0,1-.091,0,1.432,1.432,0,0,0-1.075.243" transform="translate(-963.002 -327.661)" fill="#333"/>
            <path id="Trazado_207550" data-name="Trazado 207550" d="M1064.25,374.844a.485.485,0,0,0,.17.033.131.131,0,0,0,.121-.109.336.336,0,0,0-.126-.282.632.632,0,0,0-.486-.121,1.231,1.231,0,0,0-.475.1.606.606,0,0,0-.322.4.14.14,0,0,0,0,.076.083.083,0,0,0,.073.06.14.14,0,0,0,.075-.031,1.148,1.148,0,0,1,.973-.127" transform="translate(-942.6 -331.921)" fill="#333"/>
            <path id="Trazado_207551" data-name="Trazado 207551" d="M1080.467,386.85a2.742,2.742,0,0,1-.093,1.313.169.169,0,0,0,0,.129.144.144,0,0,0,.042.039.532.532,0,0,0,.286.093c.145,0,.312-.046.422.049" transform="translate(-957.884 -342.993)" fill="none" stroke="#333" stroke-linecap="round" stroke-linejoin="round" stroke-width="0.25"/>
            <path id="Trazado_207552" data-name="Trazado 207552" d="M1069.2,382.339c-.058-.318.028-.6.191-.63s.343.2.4.523-.028.6-.191.63-.343-.2-.4-.523" transform="translate(-947.969 -338.433)" fill="#333"/>
            <path id="Trazado_207553" data-name="Trazado 207553" d="M1091.614,379.332c-.058-.318.028-.6.191-.63s.343.2.4.523-.028.6-.191.63-.343-.2-.4-.523" transform="translate(-967.843 -335.767)" fill="#333"/>
            <path id="Trazado_207554" data-name="Trazado 207554" d="M1076.765,403.842a5.345,5.345,0,0,0,2.41-.373s-.325,1-1.113,1.076a1.552,1.552,0,0,1-1.3-.7" transform="translate(-954.694 -357.728)" fill="#fff"/>
            <path id="Trazado_207555" data-name="Trazado 207555" d="M1086.159,414.156s.194.152.614-.059" transform="translate(-963.023 -367.152)" fill="none" stroke="#333" stroke-linecap="round" stroke-miterlimit="10" stroke-width="0.25"/>
            <path id="Trazado_207556" data-name="Trazado 207556" d="M1052.314,329.25a3.427,3.427,0,0,0,.66.562,5.216,5.216,0,0,0-3.416.5,1.977,1.977,0,0,0-1.021.676l.613.006a6.441,6.441,0,0,0-1.078.842,1.194,1.194,0,0,0-.473.976,3.749,3.749,0,0,1,.964-.509,4.768,4.768,0,0,0-.409,1.849.174.174,0,0,0,.033.129c.061.061.162.007.229-.048l2.572-2.13a1.319,1.319,0,0,0-.594,1.016.417.417,0,0,0,.066.316c.123.142.352.089.526.017a5.946,5.946,0,0,0,2.241-1.648,1.312,1.312,0,0,0,.271.954,23.893,23.893,0,0,0,1.842,2.622,5.249,5.249,0,0,0,.106-3.484,2.291,2.291,0,0,0,.4.475,1.287,1.287,0,0,0-.7-1.454,2.282,2.282,0,0,0-.453-1.387,1.162,1.162,0,0,0-.128.734,2.639,2.639,0,0,0-2.251-1.014" transform="translate(-928.826 -291.918)" fill="#333"/>
            <path id="Trazado_207557" data-name="Trazado 207557" d="M1015.8,518.14l2.452.316,1.964,2.182" transform="translate(-900.642 -459.4)" fill="none" stroke="#333" stroke-linecap="round" stroke-linejoin="round" stroke-width="0.25"/>
            <path id="Trazado_207558" data-name="Trazado 207558" d="M1042.655,504.468l.464.634.462.258" transform="translate(-924.451 -447.277)" fill="none" stroke="#333" stroke-linecap="round" stroke-linejoin="round" stroke-width="0.25"/>
            <path id="Trazado_207559" data-name="Trazado 207559" d="M1122.457,484.393l-.513,1.16a14.786,14.786,0,0,0-5.419-1.606l.535-1.806" transform="translate(-989.946 -427.481)" fill="none" stroke="#333" stroke-linecap="round" stroke-linejoin="round" stroke-width="0.25"/>
            <line id="Línea_290" data-name="Línea 290" y1="2.736" x2="0.545" transform="translate(119.064 54.972)" fill="none" stroke="#333" stroke-linecap="round" stroke-linejoin="round" stroke-width="0.25"/>
            <rect id="Rectángulo_45902" data-name="Rectángulo 45902" width="12.151" height="20.632" transform="matrix(0.024, -1, 1, 0.024, 325.714, 40.969)" fill="none" stroke="#1a1a1a" stroke-linecap="round" stroke-linejoin="round" stroke-width="1"/>
            <path id="Trazado_207560" data-name="Trazado 207560" d="M2896.233,254.721l-10.458,5.828-10.168-6.32" transform="translate(-2549.603 -225.408)" fill="none" stroke="#1a1a1a" stroke-linecap="round" stroke-linejoin="round" stroke-width="1"/>
            <rect id="Rectángulo_45903" data-name="Rectángulo 45903" width="21.719" height="2.735" transform="translate(311.854 20.394)" fill="#333"/>
            <rect id="Rectángulo_45904" data-name="Rectángulo 45904" width="18.616" height="13.883" transform="translate(313.432 12.506)" fill="#fff"/>
            <path id="Trazado_207561" data-name="Trazado 207561" d="M2781.177,122.047H2761.93V107.533h19.247Zm-18.616-.631h17.985V108.164h-17.985Z" transform="translate(-2448.814 -95.342)" fill="#333"/>
            <g id="Grupo_141739" data-name="Grupo 141739" transform="translate(315.482 14.663)" opacity="0.24">
              <g id="Grupo_141738" data-name="Grupo 141738">
                <g id="Grupo_141737" data-name="Grupo 141737" clip-path="url(#clip-path-11)">
                  <path id="Trazado_207562" data-name="Trazado 207562" d="M2797.224,129.808H2782.95a.147.147,0,0,1-.147-.147v-.18a.147.147,0,0,1,.147-.147h14.274a.147.147,0,0,1,.147.147v.18a.147.147,0,0,1-.147.147" transform="translate(-2782.803 -129.336)" fill="#372cd3"/>
                </g>
              </g>
            </g>
            <g id="Grupo_141742" data-name="Grupo 141742" transform="translate(315.482 15.819)" opacity="0.24">
              <g id="Grupo_141741" data-name="Grupo 141741">
                <g id="Grupo_141740" data-name="Grupo 141740" clip-path="url(#clip-path-11)">
                  <path id="Trazado_207563" data-name="Trazado 207563" d="M2797.224,140.013H2782.95a.147.147,0,0,1-.147-.147v-.18a.147.147,0,0,1,.147-.147h14.274a.147.147,0,0,1,.147.147v.18a.147.147,0,0,1-.147.147" transform="translate(-2782.803 -139.54)" fill="#372cd3"/>
                </g>
              </g>
            </g>
            <g id="Grupo_141745" data-name="Grupo 141745" transform="translate(315.482 17.765)" opacity="0.24">
              <g id="Grupo_141744" data-name="Grupo 141744">
                <g id="Grupo_141743" data-name="Grupo 141743" clip-path="url(#clip-path-11)">
                  <path id="Trazado_207564" data-name="Trazado 207564" d="M2797.224,157.176H2782.95a.147.147,0,0,1-.147-.147v-.18a.147.147,0,0,1,.147-.147h14.274a.147.147,0,0,1,.147.147v.18a.147.147,0,0,1-.147.147" transform="translate(-2782.803 -156.703)" fill="#372cd3"/>
                </g>
              </g>
            </g>
            <g id="Grupo_141748" data-name="Grupo 141748" transform="translate(315.482 18.922)" opacity="0.24">
              <g id="Grupo_141747" data-name="Grupo 141747">
                <g id="Grupo_141746" data-name="Grupo 141746" clip-path="url(#clip-path-11)">
                  <path id="Trazado_207565" data-name="Trazado 207565" d="M2797.224,167.381H2782.95a.147.147,0,0,1-.147-.147v-.18a.147.147,0,0,1,.147-.147h14.274a.147.147,0,0,1,.147.147v.18a.147.147,0,0,1-.147.147" transform="translate(-2782.803 -166.908)" fill="#372cd3"/>
                </g>
              </g>
            </g>
            <g id="Grupo_141751" data-name="Grupo 141751" transform="translate(315.482 20.237)" opacity="0.24">
              <g id="Grupo_141750" data-name="Grupo 141750">
                <g id="Grupo_141749" data-name="Grupo 141749" clip-path="url(#clip-path-11)">
                  <path id="Trazado_207566" data-name="Trazado 207566" d="M2797.224,178.978H2782.95a.147.147,0,0,1-.147-.147v-.18a.147.147,0,0,1,.147-.147h14.274a.147.147,0,0,1,.147.147v.18a.147.147,0,0,1-.147.147" transform="translate(-2782.803 -178.505)" fill="#372cd3"/>
                </g>
              </g>
            </g>
            <g id="Grupo_141754" data-name="Grupo 141754" transform="translate(315.482 21.394)" opacity="0.24">
              <g id="Grupo_141753" data-name="Grupo 141753">
                <g id="Grupo_141752" data-name="Grupo 141752" clip-path="url(#clip-path-11)">
                  <path id="Trazado_207567" data-name="Trazado 207567" d="M2797.224,189.184H2782.95a.147.147,0,0,1-.147-.146v-.18a.147.147,0,0,1,.147-.147h14.274a.147.147,0,0,1,.147.147v.18a.147.147,0,0,1-.147.146" transform="translate(-2782.803 -188.711)" fill="#372cd3"/>
                </g>
              </g>
            </g>
            <g id="Grupo_141757" data-name="Grupo 141757" transform="translate(315.272 22.761)" opacity="0.24">
              <g id="Grupo_141756" data-name="Grupo 141756">
                <g id="Grupo_141755" data-name="Grupo 141755" clip-path="url(#clip-path-17)">
                  <path id="Trazado_207568" data-name="Trazado 207568" d="M2795.369,201.244H2781.1a.147.147,0,0,1-.147-.147v-.18a.147.147,0,0,1,.147-.147h14.274a.147.147,0,0,1,.147.147v.18a.147.147,0,0,1-.147.147" transform="translate(-2780.949 -200.771)" fill="#372cd3"/>
                </g>
              </g>
            </g>
            <g id="Grupo_141760" data-name="Grupo 141760" transform="translate(315.272 23.918)" opacity="0.24">
              <g id="Grupo_141759" data-name="Grupo 141759">
                <g id="Grupo_141758" data-name="Grupo 141758" clip-path="url(#clip-path-17)">
                  <path id="Trazado_207569" data-name="Trazado 207569" d="M2795.369,211.449H2781.1a.147.147,0,0,1-.147-.147v-.18a.147.147,0,0,1,.147-.147h14.274a.147.147,0,0,1,.147.147v.18a.147.147,0,0,1-.147.147" transform="translate(-2780.949 -210.976)" fill="#372cd3"/>
                </g>
              </g>
            </g>
            <path id="Trazado_207570" data-name="Trazado 207570" d="M2774.721,184.535l-10.833,4.523-10.307-4.523v12.306h21.14Z" transform="translate(-2441.412 -163.615)" fill="#fe7062"/>
            <path id="Trazado_207571" data-name="Trazado 207571" d="M2772.569,193.375H2750.8v-13.1l10.625,4.663,11.146-4.653Zm-21.14-.631h20.509V181.228l-10.521,4.392-9.989-4.383Z" transform="translate(-2438.943 -159.834)" fill="#333"/>
            <path id="Trazado_207572" data-name="Trazado 207572" d="M2805.715,1042.126l.708-2.326-1.525-.539-1.032,2.726.893.616Z" transform="translate(-2485.996 -921.442)" fill="#ff9b80"/>
            <path id="Trazado_207573" data-name="Trazado 207573" d="M2850.276,1037.91l-.046-3.4-1.664.246.031,2.988.724.647Z" transform="translate(-2525.628 -917.226)" fill="#ff9b80"/>
            <path id="Trazado_207574" data-name="Trazado 207574" d="M2766.316,1059.393a9.412,9.412,0,0,1-.246,2.588s-6.1-.1-6.408-.1-1.479-1.623,4.929-2.916a1.175,1.175,0,0,0,1.725.431" transform="translate(-2446.551 -938.909)" fill="#994436"/>
            <path id="Trazado_207575" data-name="Trazado 207575" d="M2809.793,1059.393a9.408,9.408,0,0,1-.246,2.588s-6.1-.1-6.408-.1-1.479-1.623,4.929-2.916a1.175,1.175,0,0,0,1.725.431" transform="translate(-2485.099 -938.909)" fill="#994436"/>
            <path id="Trazado_207577" data-name="Trazado 207577" d="M2693.28,822.013l4.929,3.974L2693.5,834l-4.436-4.682Z" transform="translate(-2384.205 -728.822)" fill="#fff"/>
            <path id="Trazado_207578" data-name="Trazado 207578" d="M2724.3,843.719a.061.061,0,0,1-.039-.014l-3.389-2.834a.061.061,0,1,1,.079-.094l3.388,2.834a.061.061,0,0,1,.008.087.06.06,0,0,1-.047.022" transform="translate(-2412.393 -745.446)" fill="#0e2349"/>
            <path id="Trazado_207579" data-name="Trazado 207579" d="M2721.641,848.666a.06.06,0,0,1-.039-.014l-3.173-2.619a.061.061,0,1,1,.078-.095l3.173,2.618a.061.061,0,0,1,.009.087.062.062,0,0,1-.048.022" transform="translate(-2410.224 -750.023)" fill="#0e2349"/>
            <path id="Trazado_207580" data-name="Trazado 207580" d="M2717.811,858.966a.063.063,0,0,1-.04-.015l-3.419-2.865a.061.061,0,1,1,.079-.094l3.419,2.865a.062.062,0,0,1-.039.109" transform="translate(-2406.61 -758.937)" fill="#0e2349"/>
            <path id="Trazado_207581" data-name="Trazado 207581" d="M2701.915,880.568a.062.062,0,0,1-.04-.014l-3.419-2.865a.061.061,0,1,1,.079-.094l3.419,2.865a.061.061,0,0,1,.008.087.06.06,0,0,1-.047.022" transform="translate(-2392.516 -778.09)" fill="#0e2349"/>
            <path id="Trazado_207582" data-name="Trazado 207582" d="M2711.089,862.273a.061.061,0,0,1-.041-.015l-2.4-2.095a.062.062,0,0,1,.081-.093l2.4,2.095a.062.062,0,0,1,.006.087.06.06,0,0,1-.046.021" transform="translate(-2401.552 -762.552)" fill="#0e2349"/>
            <path id="Trazado_207583" data-name="Trazado 207583" d="M2706.2,874.908a.062.062,0,0,1-.04-.015l-2.4-2.095a.062.062,0,0,1,.081-.093l2.4,2.095a.062.062,0,0,1,.006.087.061.061,0,0,1-.046.021" transform="translate(-2397.216 -773.755)" fill="#0e2349"/>
            <path id="Trazado_207584" data-name="Trazado 207584" d="M2728.692,812.5l-.678.739a3.259,3.259,0,0,0-2.282,1.6.232.232,0,0,0,.275.336l1.206-.423,1.54,1.232a2.65,2.65,0,0,0,.647-1.6l.677-1.294Z" transform="translate(-2416.69 -720.39)" fill="#ff9b80"/>
            <path id="Trazado_207585" data-name="Trazado 207585" d="M2810.259,804.622c.123.986-3.758,15.218-3.758,15.218l-.863,12.261a7.4,7.4,0,0,1-2.9.37l-.308-.616-.37.8s-1.171.37-4.313-1.171l2.033-7.825s-1.54-12.384-.924-18.853Z" transform="translate(-2480.575 -713.403)" fill="#a3c2ef"/>
            <path id="Trazado_207586" data-name="Trazado 207586" d="M2761.263,627.091a44.884,44.884,0,0,1,4.231,3.779c1.273,1.438,1.273,6.408.123,9.94l-.9,7.065a19.764,19.764,0,0,1-12.363-.246l.246-4.19a18.413,18.413,0,0,1-4.436,6.2l-2.218-1.766a91.653,91.653,0,0,0,3.861-9.653c1.52-4.724,2.012-7.106,4.231-8.667a12.153,12.153,0,0,1,3.327-1.848Z" transform="translate(-2434.638 -555.999)" fill="#45afac"/>
            <path id="Trazado_207587" data-name="Trazado 207587" d="M2847.433,592.253s.407,3.744.941,4.4-3,1.931-3.861,1.52-.334-1.687-.458-3.371Z" transform="translate(-2521.585 -525.11)" fill="#ffa192"/>
            <path id="Trazado_207588" data-name="Trazado 207588" d="M2842.037,634.246s-.154,1.294-3.82,4.128a9.037,9.037,0,0,1-1.879-3.635l2.311.185Z" transform="translate(-2514.786 -562.343)" fill="#ffe6a1"/>
            <path id="Trazado_207589" data-name="Trazado 207589" d="M2719.149,679.09l10.125-1.563,2.542,7.164-10.124,1.563Z" transform="translate(-2410.883 -600.717)" fill="#1a1a1a"/>
            <rect id="Rectángulo_45913" data-name="Rectángulo 45913" width="6.526" height="0.648" transform="translate(318.356 83.669) rotate(-8.773)" fill="#1a1a1a"/>
            <path id="Trazado_207590" data-name="Trazado 207590" d="M2762.524,705.318a.879.879,0,1,1,1,.735.88.88,0,0,1-1-.735" transform="translate(-2449.331 -624.458)" fill="#fff"/>
            <path id="Trazado_207591" data-name="Trazado 207591" d="M2780.584,735.509a.511.511,0,0,0-.106-.173,4.551,4.551,0,0,0-1.594-1.226c-.087-.04-.229-.051-.243.044a.159.159,0,0,0,.028.1l.433.8-2.053.008c-.146,0-.332.032-.362.174-.037.168.181.267.351.3a.759.759,0,0,0-.347.114.26.26,0,0,0-.091.324.376.376,0,0,0,.122.109l.4.266c-.149.053-.333.175-.272.321a.288.288,0,0,0,.161.132,5.628,5.628,0,0,0,3.026.471.37.37,0,0,0,.227-.085.377.377,0,0,0,.079-.2l.232-1.219a.543.543,0,0,0,.007-.256" transform="translate(-2461.797 -650.86)" fill="#ff9b80"/>
            <path id="Trazado_207592" data-name="Trazado 207592" d="M2884.928,662.2a.061.061,0,0,1-.021,0,.062.062,0,0,1-.037-.079,8.8,8.8,0,0,1,1.136-2.293,3.419,3.419,0,0,1,2.118-1.393.062.062,0,0,1,.02.122,3.3,3.3,0,0,0-2.04,1.345,8.7,8.7,0,0,0-1.118,2.261.061.061,0,0,1-.058.041" transform="translate(-2557.813 -583.784)" fill="#262626"/>
            <path id="Trazado_207593" data-name="Trazado 207593" d="M2817.155,712.895a19.342,19.342,0,0,1-4.373-.591c-.091-.024-.2-.051-.328-.081-1.116-.272-3.194-.777-2.989-1.91q.1-.576.21-1.151l.085-.464a.272.272,0,0,1,.267-.263,51.513,51.513,0,0,1,7.512-.891l.185-3.38a.062.062,0,1,1,.123.007l-.188,3.436a.062.062,0,0,1-.059.058,51.362,51.362,0,0,0-7.551.891.234.234,0,0,0-.127.05.243.243,0,0,0-.041.115l-.085.464q-.106.576-.21,1.151c-.185,1.019,1.9,1.525,2.9,1.769.126.031.238.058.33.082,1.967.521,5.759,1.077,7.492-.145a2.084,2.084,0,0,0,.905-1.6.062.062,0,0,1,.076-.055l.326.083a.062.062,0,0,1-.031.119l-.256-.065a2.194,2.194,0,0,1-.949,1.616,5.745,5.745,0,0,1-3.222.754" transform="translate(-2490.948 -624.281)" fill="#262626"/>
            <path id="Trazado_207594" data-name="Trazado 207594" d="M2839.055,955.851A114.144,114.144,0,0,0,2843,944.473" transform="translate(-2517.195 -837.4)" fill="none" stroke="#0e2349" stroke-linecap="round" stroke-linejoin="round" stroke-width="0.25"/>
            <path id="Trazado_207595" data-name="Trazado 207595" d="M2816.773,836.306l3.235-12.538-.031-4.744" transform="translate(-2497.44 -726.172)" fill="none" stroke="#0e2349" stroke-linecap="round" stroke-linejoin="round" stroke-width="0.25"/>
            <path id="Trazado_207596" data-name="Trazado 207596" d="M2832.806,818.752l.185,3.573,1.232,1.2" transform="translate(-2511.655 -725.931)" fill="none" stroke="#0e2349" stroke-linecap="round" stroke-linejoin="round" stroke-width="0.25"/>
            <path id="Trazado_207597" data-name="Trazado 207597" d="M2883.6,819.765s-1.355.524-1.879-2.372" transform="translate(-2555.021 -724.726)" fill="none" stroke="#0e2349" stroke-linecap="round" stroke-linejoin="round" stroke-width="0.25"/>
            <path id="Trazado_207598" data-name="Trazado 207598" d="M2807.263,817.067a2.152,2.152,0,0,0,1.232-1.848" transform="translate(-2489.008 -722.799)" fill="none" stroke="#0e2349" stroke-linecap="round" stroke-linejoin="round" stroke-width="0.25"/>
            <path id="Trazado_207599" data-name="Trazado 207599" d="M2847.939,640.224l-.868.185.632.893-.575,1.578a5.9,5.9,0,0,0,.606.794c.285-.221.542-.428.786-.63l-.355-1.757.647-.8Z" transform="translate(-2524.303 -567.643)" fill="#1a1a1a"/>
            <path id="Trazado_207600" data-name="Trazado 207600" d="M2834.911,626.2l1.263,1.1,2.927-1.653,1.212.965-2.813,1.643-1.335-.842-1.13.8-1.232-1.273Z" transform="translate(-2512.538 -554.714)" fill="#ffefbb"/>
            <path id="Trazado_207601" data-name="Trazado 207601" d="M2847.866,592.9c-.021-.165-.035-.29-.043-.359l-.045-.038-3.34,2.522c.018.242.021.474.018.7,2.843-.028,3.33-2.037,3.41-2.822" transform="translate(-2521.968 -525.331)" fill="#333"/>
            <path id="Trazado_207602" data-name="Trazado 207602" d="M2825.93,544.421c.128,1.69.8,5.033,2.5,5.011a2.767,2.767,0,0,0,2.942-2.657s.89.334.843-.878c-.021-.535-.62-.258-.62-.258s1.075-4.373-1.692-4.769-4.145,1.238-3.97,3.551" transform="translate(-2505.545 -479.5)" fill="#ffa192"/>
            <path id="Trazado_207603" data-name="Trazado 207603" d="M2850.431,570.1a.5.5,0,0,1-.154.07.138.138,0,0,1-.146-.064.268.268,0,0,1,.042-.27.648.648,0,0,1,.433-.22,1.379,1.379,0,0,1,.483-.031.615.615,0,0,1,.422.266.115.115,0,0,1,.024.064.074.074,0,0,1-.053.069.155.155,0,0,1-.081-.009,1.27,1.27,0,0,0-.969.126" transform="translate(-2526.997 -504.999)" fill="#333"/>
            <path id="Trazado_207604" data-name="Trazado 207604" d="M2830.421,572.274a.428.428,0,0,0,.147.044.116.116,0,0,0,.115-.087.3.3,0,0,0-.087-.259.56.56,0,0,0-.419-.147,1.093,1.093,0,0,0-.427.048.537.537,0,0,0-.317.329.123.123,0,0,0-.009.067.073.073,0,0,0,.06.059.122.122,0,0,0,.068-.021,1.019,1.019,0,0,1,.869-.032" transform="translate(-2508.655 -506.997)" fill="#333"/>
            <path id="Trazado_207605" data-name="Trazado 207605" d="M2843.207,583.743a2.427,2.427,0,0,1-.19,1.151.151.151,0,0,0-.006.114.13.13,0,0,0,.033.038.47.47,0,0,0,.245.106c.128.015.279-.015.368.078" transform="translate(-2520.694 -517.565)" fill="none" stroke="#333" stroke-linecap="round" stroke-linejoin="round" stroke-width="0.1"/>
            <path id="Trazado_207606" data-name="Trazado 207606" d="M2834.216,578.916c-.024-.286.074-.527.221-.54s.286.208.311.494-.074.527-.221.54-.285-.208-.31-.494" transform="translate(-2512.902 -512.806)" fill="#333"/>
            <path id="Trazado_207607" data-name="Trazado 207607" d="M2854.248,578.108c-.025-.286.074-.527.221-.54s.285.208.31.494-.074.527-.221.54-.286-.208-.31-.494" transform="translate(-2530.662 -512.09)" fill="#333"/>
            <path id="Trazado_207608" data-name="Trazado 207608" d="M2839.2,599.92a4.738,4.738,0,0,0,2.157-.131s-.369.852-1.071.858a1.376,1.376,0,0,1-1.087-.727" transform="translate(-2517.321 -531.792)" fill="#fff"/>
            <path id="Trazado_207609" data-name="Trazado 207609" d="M2846.84,608.639s.158.15.547,0" transform="translate(-2524.098 -539.638)" fill="none" stroke="#333" stroke-linecap="round" stroke-miterlimit="10" stroke-width="0.1"/>
            <path id="Trazado_207610" data-name="Trazado 207610" d="M2817.259,539.145a7.654,7.654,0,0,1-1.028-3.267,2.152,2.152,0,0,1-1.741.4,2.749,2.749,0,0,0-1.008-.169c-.428.072-.723.453-1.07.714a1.82,1.82,0,0,1-1.049.379,1.4,1.4,0,0,1-1.025-.406,1.541,1.541,0,0,1-.4-1.057,2.8,2.8,0,0,1,.26-1.119,1.9,1.9,0,0,1,1.1-1.16,3.1,3.1,0,0,1,1.515.163,4.828,4.828,0,0,0,2.108,0,7.14,7.14,0,0,1,.911-.194,1.21,1.21,0,0,1,.881.22,1.27,1.27,0,0,1,.351,1.149.705.705,0,0,1,.6.245,1.471,1.471,0,0,1,.3.6,4.74,4.74,0,0,1-.248,2.9.957.957,0,0,1-.461.609" transform="translate(-2491.381 -472.934)" fill="#febd00"/>
          </g>
        </g>
      </g>
    </g>
  </g>
</svg>
