<svg xmlns="http://www.w3.org/2000/svg" width="548.892" height="248.237" viewBox="0 0 548.892 248.237">
  <g id="Grupo_1024079" data-name="Grupo 1024079" transform="translate(-220 -3720.235)">
    <rect id="Rectángulo_358813" data-name="Rectángulo 358813" width="80.111" height="25.912" transform="translate(535.964 3851.639)" fill="#748fc8"/>
    <rect id="Rectángulo_358814" data-name="Rectángulo 358814" width="105.559" height="36.921" transform="translate(523.472 3814.718)" fill="#576b96"/>
    <rect id="Rectángulo_358815" data-name="Rectángulo 358815" width="69.949" height="6.774" transform="translate(541.046 3807.943)" fill="#748fc8"/>
    <rect id="Rectángulo_358816" data-name="Rectángulo 358816" width="91.733" height="9.675" transform="translate(530.45 3820.255)" fill="#d8e4fd"/>
    <path id="Trazado_756492" data-name="Trazado 756492" d="M1161.9,464.676v8.679h-90.737v-8.679H1161.9m1-1H1070.17v10.671H1162.9V463.68Z" transform="translate(-540.217 3356.075)" fill="#1a0f91"/>
    <rect id="Rectángulo_358817" data-name="Rectángulo 358817" width="91.733" height="9.675" transform="translate(530.45 3836.195)" fill="#d8e4fd"/>
    <path id="Trazado_756493" data-name="Trazado 756493" d="M1161.9,514.146v8.679h-90.737v-8.679H1161.9m1-1H1070.17v10.671H1162.9V513.15Z" transform="translate(-540.217 3322.549)" fill="#1a0f91"/>
    <line id="Línea_3306" data-name="Línea 3306" y2="8.976" transform="translate(541.469 3820.603)" fill="none" stroke="#1a0f91" stroke-miterlimit="10" stroke-width="3.09"/>
    <line id="Línea_3307" data-name="Línea 3307" y2="8.976" transform="translate(553.071 3820.603)" fill="none" stroke="#1a0f91" stroke-miterlimit="10" stroke-width="3.09"/>
    <line id="Línea_3308" data-name="Línea 3308" y2="8.976" transform="translate(564.673 3820.603)" fill="none" stroke="#1a0f91" stroke-miterlimit="10" stroke-width="3.09"/>
    <line id="Línea_3309" data-name="Línea 3309" y2="8.976" transform="translate(576.272 3820.603)" fill="none" stroke="#1a0f91" stroke-miterlimit="10" stroke-width="3.09"/>
    <line id="Línea_3310" data-name="Línea 3310" y2="8.976" transform="translate(587.875 3820.603)" fill="none" stroke="#1a0f91" stroke-miterlimit="10" stroke-width="3.09"/>
    <line id="Línea_3311" data-name="Línea 3311" y2="8.976" transform="translate(599.477 3820.603)" fill="none" stroke="#1a0f91" stroke-miterlimit="10" stroke-width="3.09"/>
    <line id="Línea_3312" data-name="Línea 3312" y2="8.976" transform="translate(611.08 3820.603)" fill="none" stroke="#1a0f91" stroke-miterlimit="10" stroke-width="3.09"/>
    <line id="Línea_3313" data-name="Línea 3313" y2="8.976" transform="translate(541.469 3836.546)" fill="none" stroke="#1a0f91" stroke-miterlimit="10" stroke-width="3.09"/>
    <line id="Línea_3314" data-name="Línea 3314" y2="8.976" transform="translate(553.071 3836.546)" fill="none" stroke="#1a0f91" stroke-miterlimit="10" stroke-width="3.09"/>
    <line id="Línea_3315" data-name="Línea 3315" y2="8.976" transform="translate(564.673 3836.546)" fill="none" stroke="#1a0f91" stroke-miterlimit="10" stroke-width="3.09"/>
    <line id="Línea_3316" data-name="Línea 3316" y2="8.976" transform="translate(576.272 3836.546)" fill="none" stroke="#1a0f91" stroke-miterlimit="10" stroke-width="3.09"/>
    <line id="Línea_3317" data-name="Línea 3317" y2="8.976" transform="translate(587.875 3836.546)" fill="none" stroke="#1a0f91" stroke-miterlimit="10" stroke-width="3.09"/>
    <line id="Línea_3318" data-name="Línea 3318" y2="8.976" transform="translate(599.477 3836.546)" fill="none" stroke="#1a0f91" stroke-miterlimit="10" stroke-width="3.09"/>
    <line id="Línea_3319" data-name="Línea 3319" y2="8.976" transform="translate(611.08 3836.546)" fill="none" stroke="#1a0f91" stroke-miterlimit="10" stroke-width="3.09"/>
    <rect id="Rectángulo_358818" data-name="Rectángulo 358818" width="6.288" height="8.637" transform="translate(525.825 3851.639)" fill="#748fc8"/>
    <rect id="Rectángulo_358819" data-name="Rectángulo 358819" width="3.619" height="9.653" transform="translate(527.156 3860.276)" fill="#576b96"/>
    <rect id="Rectángulo_358820" data-name="Rectángulo 358820" width="6.288" height="8.637" transform="translate(525.825 3869.932)" fill="#748fc8"/>
    <rect id="Rectángulo_358821" data-name="Rectángulo 358821" width="6.288" height="8.637" transform="translate(620.5 3851.639)" fill="#748fc8"/>
    <rect id="Rectángulo_358822" data-name="Rectángulo 358822" width="3.619" height="9.653" transform="translate(621.834 3860.276)" fill="#576b96"/>
    <rect id="Rectángulo_358823" data-name="Rectángulo 358823" width="6.288" height="8.637" transform="translate(620.5 3869.932)" fill="#748fc8"/>
    <rect id="Rectángulo_358824" data-name="Rectángulo 358824" width="8.637" height="14.1" transform="translate(543.415 3863.454)" fill="#576b96"/>
    <rect id="Rectángulo_358825" data-name="Rectángulo 358825" width="14.226" height="5.208" transform="translate(540.621 3855.387)" fill="#576b96"/>
    <rect id="Rectángulo_358826" data-name="Rectángulo 358826" width="8.637" height="14.1" transform="translate(571.935 3863.454)" fill="#576b96"/>
    <rect id="Rectángulo_358827" data-name="Rectángulo 358827" width="14.226" height="5.208" transform="translate(569.14 3855.387)" fill="#576b96"/>
    <rect id="Rectángulo_358828" data-name="Rectángulo 358828" width="8.637" height="14.1" transform="translate(600.006 3863.454)" fill="#576b96"/>
    <rect id="Rectángulo_358829" data-name="Rectángulo 358829" width="14.226" height="5.208" transform="translate(597.211 3855.387)" fill="#576b96"/>
    <path id="Trazado_756494" data-name="Trazado 756494" d="M1614.607,386.218a2.359,2.359,0,0,1-.793,1.692,2.778,2.778,0,0,1-1.885.616,2.508,2.508,0,0,1-2.015-.86,3.529,3.529,0,0,1-.735-2.366v-.406a3.984,3.984,0,0,1,.338-1.692,2.541,2.541,0,0,1,.967-1.122,3.027,3.027,0,0,1,3.316.226,2.519,2.519,0,0,1,.812,1.734h-1.373a1.4,1.4,0,0,0-.358-.935,1.333,1.333,0,0,0-.941-.29,1.164,1.164,0,0,0-1.025.49,2.77,2.77,0,0,0-.351,1.524v.5a2.963,2.963,0,0,0,.326,1.576,1.146,1.146,0,0,0,1.031.5,1.35,1.35,0,0,0,.948-.29,1.3,1.3,0,0,0,.358-.9h1.373Z" transform="translate(-905.511 3411.641)" fill="#12263f"/>
    <path id="Trazado_756495" data-name="Trazado 756495" d="M1630.085,387.853h-1.325V380.83h1.325Z" transform="translate(-918.78 3412.224)" fill="#12263f"/>
    <path id="Trazado_756496" data-name="Trazado 756496" d="M1636.213,381.863a.659.659,0,0,1,.2-.49.742.742,0,0,1,.542-.193.734.734,0,0,1,.538.193.642.642,0,0,1,.2.49.651.651,0,0,1-.2.493.846.846,0,0,1-1.077,0,.652.652,0,0,1-.2-.493Zm1.4,6.227h-1.325v-4.947h1.325Z" transform="translate(-923.829 3411.986)" fill="#12263f"/>
    <path id="Trazado_756497" data-name="Trazado 756497" d="M1645.846,392.111a2.435,2.435,0,0,1-1.772-.667,2.377,2.377,0,0,1-.683-1.779v-.129a3,3,0,0,1,.287-1.331,2.143,2.143,0,0,1,.815-.906,2.283,2.283,0,0,1,1.205-.319,2.05,2.05,0,0,1,1.6.641,2.591,2.591,0,0,1,.583,1.814v.538h-3.149a1.215,1.215,0,0,0,.387.777,1.162,1.162,0,0,0,.815.293,1.421,1.421,0,0,0,1.193-.554l.648.728a2.009,2.009,0,0,1-.806.657,2.622,2.622,0,0,1-1.125.235Zm-.151-4.064a.832.832,0,0,0-.638.267,1.364,1.364,0,0,0-.312.764h1.837v-.106a1,1,0,0,0-.238-.683A.846.846,0,0,0,1645.694,388.047Z" transform="translate(-928.695 3408.056)" fill="#12263f"/>
    <path id="Trazado_756498" data-name="Trazado 756498" d="M1660.8,387.073l.042.57a1.732,1.732,0,0,1,1.421-.664,1.437,1.437,0,0,1,1.17.461,2.165,2.165,0,0,1,.393,1.379v3.2H1662.5v-3.165a.849.849,0,0,0-.184-.609.824.824,0,0,0-.609-.19.911.911,0,0,0-.838.477v3.487h-1.321V387.07h1.244Z" transform="translate(-939.646 3408.056)" fill="#12263f"/>
    <path id="Trazado_756499" data-name="Trazado 756499" d="M1676.54,383.5v1.215h.844v.97h-.844v2.469a.585.585,0,0,0,.106.393.522.522,0,0,0,.4.119,2.028,2.028,0,0,0,.39-.032v1a2.668,2.668,0,0,1-.8.119,1.261,1.261,0,0,1-1.418-1.4v-2.665h-.722v-.97h.722V383.5h1.322Z" transform="translate(-949.778 3410.414)" fill="#12263f"/>
    <path id="Trazado_756500" data-name="Trazado 756500" d="M1687.636,392.111a2.435,2.435,0,0,1-1.773-.667,2.377,2.377,0,0,1-.683-1.779v-.129a3,3,0,0,1,.287-1.331,2.143,2.143,0,0,1,.815-.906,2.283,2.283,0,0,1,1.205-.319,2.051,2.051,0,0,1,1.6.641,2.591,2.591,0,0,1,.583,1.814v.538h-3.149a1.217,1.217,0,0,0,.386.777,1.163,1.163,0,0,0,.816.293,1.421,1.421,0,0,0,1.192-.554l.648.728a2,2,0,0,1-.806.657,2.621,2.621,0,0,1-1.125.235Zm-.151-4.064a.832.832,0,0,0-.638.267,1.366,1.366,0,0,0-.312.764h1.837v-.106a1,1,0,0,0-.239-.683A.846.846,0,0,0,1687.485,388.047Z" transform="translate(-957.017 3408.056)" fill="#12263f"/>
    <path id="Trazado_756501" data-name="Trazado 756501" d="M1703.59,390.668a.423.423,0,0,0-.239-.38,2.645,2.645,0,0,0-.771-.248q-1.764-.372-1.766-1.5a1.351,1.351,0,0,1,.548-1.1,2.209,2.209,0,0,1,1.428-.441,2.358,2.358,0,0,1,1.505.445,1.4,1.4,0,0,1,.564,1.151h-1.321a.632.632,0,0,0-.184-.467.778.778,0,0,0-.57-.184.788.788,0,0,0-.516.151.475.475,0,0,0-.184.384.4.4,0,0,0,.21.355,2.119,2.119,0,0,0,.7.232,5.415,5.415,0,0,1,.832.222,1.369,1.369,0,0,1,1.047,1.331,1.294,1.294,0,0,1-.58,1.1,2.492,2.492,0,0,1-1.5.419,2.613,2.613,0,0,1-1.105-.222,1.861,1.861,0,0,1-.758-.609,1.405,1.405,0,0,1-.274-.835h1.254a.686.686,0,0,0,.261.538,1.025,1.025,0,0,0,.648.187.954.954,0,0,0,.574-.145.45.45,0,0,0,.193-.377Z" transform="translate(-967.508 3408.042)" fill="#12263f"/>
    <path id="Trazado_756502" data-name="Trazado 756502" d="M1724.769,391.144h2.417v1.067h-4.106V391.4l2.327-3.078h-2.259V387.26h3.964v.78l-2.346,3.1Z" transform="translate(-982.702 3407.866)" fill="#12263f"/>
    <path id="Trazado_756503" data-name="Trazado 756503" d="M1737.53,389.5a2.917,2.917,0,0,1,.284-1.312,2.1,2.1,0,0,1,.815-.893,2.389,2.389,0,0,1,1.238-.316,2.248,2.248,0,0,1,1.634.612,2.459,2.459,0,0,1,.706,1.663l.01.338a2.6,2.6,0,0,1-.635,1.827,2.464,2.464,0,0,1-3.413,0,2.632,2.632,0,0,1-.638-1.866V389.5Zm1.322.093a1.855,1.855,0,0,0,.264,1.08.953.953,0,0,0,1.509.006,2.015,2.015,0,0,0,.271-1.18,1.817,1.817,0,0,0-.271-1.07.873.873,0,0,0-.758-.38.863.863,0,0,0-.751.377,2.052,2.052,0,0,0-.264,1.17Z" transform="translate(-992.494 3408.056)" fill="#12263f"/>
    <path id="Trazado_756504" data-name="Trazado 756504" d="M1755.737,387.073l.042.57a1.731,1.731,0,0,1,1.421-.664,1.436,1.436,0,0,1,1.17.461,2.165,2.165,0,0,1,.393,1.379v3.2h-1.322v-3.165a.849.849,0,0,0-.184-.609.825.825,0,0,0-.609-.19.91.91,0,0,0-.838.477v3.487h-1.321V387.07h1.244Z" transform="translate(-1003.989 3408.056)" fill="#12263f"/>
    <path id="Trazado_756505" data-name="Trazado 756505" d="M1773.312,392.021a1.428,1.428,0,0,1-.132-.445,1.591,1.591,0,0,1-1.247.535,1.746,1.746,0,0,1-1.205-.422,1.351,1.351,0,0,1-.477-1.06,1.391,1.391,0,0,1,.583-1.205,2.882,2.882,0,0,1,1.686-.425h.609v-.284a.8.8,0,0,0-.177-.548.685.685,0,0,0-.554-.206.784.784,0,0,0-.522.161.547.547,0,0,0-.19.438h-1.321a1.327,1.327,0,0,1,.264-.8,1.736,1.736,0,0,1,.751-.574,2.736,2.736,0,0,1,1.089-.21,2.157,2.157,0,0,1,1.45.461,1.611,1.611,0,0,1,.538,1.292v2.143a2.317,2.317,0,0,0,.2,1.067v.077h-1.334Zm-1.092-.919a1.134,1.134,0,0,0,.538-.129.835.835,0,0,0,.364-.351v-.851h-.493c-.661,0-1.012.229-1.057.686v.077a.51.51,0,0,0,.167.406.678.678,0,0,0,.477.161Z" transform="translate(-1014.67 3408.056)" fill="#12263f"/>
    <path id="Trazado_756506" data-name="Trazado 756506" d="M1796.512,387.252h-2.4l-.458,1.373h-1.46l2.478-6.655h1.27l2.491,6.655h-1.46l-.461-1.373Zm-2.034-1.112h1.663l-.838-2.491-.828,2.491Z" transform="translate(-1029.538 3411.451)" fill="#12263f"/>
    <path id="Trazado_756507" data-name="Trazado 756507" d="M1614.877,540.448a2.359,2.359,0,0,1-.793,1.692,2.778,2.778,0,0,1-1.885.616,2.508,2.508,0,0,1-2.015-.86,3.53,3.53,0,0,1-.735-2.366v-.406a3.983,3.983,0,0,1,.338-1.692,2.543,2.543,0,0,1,.967-1.122,3.027,3.027,0,0,1,3.316.226,2.519,2.519,0,0,1,.812,1.734h-1.373a1.4,1.4,0,0,0-.358-.935,1.333,1.333,0,0,0-.941-.29,1.164,1.164,0,0,0-1.025.49,2.767,2.767,0,0,0-.351,1.525v.5a2.966,2.966,0,0,0,.325,1.576,1.146,1.146,0,0,0,1.031.5,1.35,1.35,0,0,0,.947-.29,1.3,1.3,0,0,0,.358-.9h1.373Z" transform="translate(-905.694 3307.117)" fill="#12263f"/>
    <path id="Trazado_756508" data-name="Trazado 756508" d="M1630.355,542.083h-1.325V535.06h1.325Z" transform="translate(-918.963 3307.7)" fill="#12263f"/>
    <path id="Trazado_756509" data-name="Trazado 756509" d="M1636.483,536.093a.658.658,0,0,1,.2-.49.742.742,0,0,1,.542-.193.734.734,0,0,1,.538.193.641.641,0,0,1,.2.49.652.652,0,0,1-.2.493.846.846,0,0,1-1.077,0,.651.651,0,0,1-.2-.493Zm1.4,6.227h-1.325v-4.947h1.325Z" transform="translate(-924.012 3307.463)" fill="#12263f"/>
    <path id="Trazado_756510" data-name="Trazado 756510" d="M1646.116,546.341a2.435,2.435,0,0,1-1.772-.667,2.377,2.377,0,0,1-.683-1.779v-.129a3.005,3.005,0,0,1,.287-1.331,2.142,2.142,0,0,1,.816-.906,2.284,2.284,0,0,1,1.205-.319,2.05,2.05,0,0,1,1.6.641,2.59,2.59,0,0,1,.583,1.814v.538H1645a1.215,1.215,0,0,0,.387.777,1.162,1.162,0,0,0,.815.293,1.421,1.421,0,0,0,1.193-.554l.648.728a1.987,1.987,0,0,1-.806.657,2.623,2.623,0,0,1-1.125.235Zm-.151-4.064a.832.832,0,0,0-.638.268,1.366,1.366,0,0,0-.312.764h1.837V543.2a.98.98,0,0,0-.238-.683A.846.846,0,0,0,1645.965,542.277Z" transform="translate(-928.878 3303.532)" fill="#12263f"/>
    <path id="Trazado_756511" data-name="Trazado 756511" d="M1661.067,541.3l.042.57a1.731,1.731,0,0,1,1.421-.664,1.435,1.435,0,0,1,1.17.461,2.165,2.165,0,0,1,.393,1.379v3.2h-1.321v-3.165a.849.849,0,0,0-.184-.609.825.825,0,0,0-.609-.19.911.911,0,0,0-.838.477v3.487h-1.321V541.3h1.244Z" transform="translate(-939.83 3303.532)" fill="#12263f"/>
    <path id="Trazado_756512" data-name="Trazado 756512" d="M1676.81,537.73v1.215h.844v.97h-.844v2.469a.586.586,0,0,0,.106.393.523.523,0,0,0,.4.119,2.031,2.031,0,0,0,.39-.032v1a2.665,2.665,0,0,1-.8.119,1.263,1.263,0,0,1-1.418-1.4v-2.665h-.722v-.97h.722v-1.215h1.321Z" transform="translate(-949.962 3305.891)" fill="#12263f"/>
    <path id="Trazado_756513" data-name="Trazado 756513" d="M1687.906,546.341a2.435,2.435,0,0,1-1.773-.667,2.377,2.377,0,0,1-.683-1.779v-.129a3,3,0,0,1,.287-1.331,2.141,2.141,0,0,1,.815-.906,2.284,2.284,0,0,1,1.205-.319,2.05,2.05,0,0,1,1.6.641,2.59,2.59,0,0,1,.583,1.814v.538h-3.149a1.216,1.216,0,0,0,.387.777,1.162,1.162,0,0,0,.815.293,1.421,1.421,0,0,0,1.193-.554l.648.728a2.008,2.008,0,0,1-.806.657,2.622,2.622,0,0,1-1.125.235Zm-.151-4.064a.832.832,0,0,0-.638.268,1.365,1.365,0,0,0-.312.764h1.837V543.2a.981.981,0,0,0-.239-.683A.845.845,0,0,0,1687.754,542.277Z" transform="translate(-957.2 3303.532)" fill="#12263f"/>
    <path id="Trazado_756514" data-name="Trazado 756514" d="M1703.86,544.9a.423.423,0,0,0-.238-.38,2.645,2.645,0,0,0-.77-.248q-1.764-.372-1.766-1.5a1.36,1.36,0,0,1,.548-1.1,2.209,2.209,0,0,1,1.428-.442,2.357,2.357,0,0,1,1.505.445,1.4,1.4,0,0,1,.564,1.151h-1.321a.632.632,0,0,0-.184-.467.778.778,0,0,0-.57-.184.788.788,0,0,0-.516.151.485.485,0,0,0-.184.384.4.4,0,0,0,.21.355,2.12,2.12,0,0,0,.7.232,5.407,5.407,0,0,1,.831.222,1.368,1.368,0,0,1,1.048,1.331,1.294,1.294,0,0,1-.58,1.1,2.492,2.492,0,0,1-1.5.419,2.613,2.613,0,0,1-1.105-.222,1.86,1.86,0,0,1-.758-.609,1.406,1.406,0,0,1-.274-.835h1.254a.687.687,0,0,0,.261.538,1.026,1.026,0,0,0,.648.187.947.947,0,0,0,.574-.145.451.451,0,0,0,.193-.377Z" transform="translate(-967.69 3303.519)" fill="#12263f"/>
    <path id="Trazado_756515" data-name="Trazado 756515" d="M1725.039,545.373h2.417v1.067h-4.106v-.806l2.327-3.078h-2.259V541.49h3.964v.78l-2.346,3.1Z" transform="translate(-982.885 3303.342)" fill="#12263f"/>
    <path id="Trazado_756516" data-name="Trazado 756516" d="M1737.8,543.73a2.922,2.922,0,0,1,.284-1.312,2.107,2.107,0,0,1,.815-.893,2.358,2.358,0,0,1,1.238-.316,2.249,2.249,0,0,1,1.634.612,2.458,2.458,0,0,1,.706,1.663l.01.338a2.6,2.6,0,0,1-.635,1.827,2.465,2.465,0,0,1-3.413,0,2.634,2.634,0,0,1-.638-1.866v-.058Zm1.322.093a1.855,1.855,0,0,0,.264,1.08.953.953,0,0,0,1.508.006,2.016,2.016,0,0,0,.271-1.18,1.817,1.817,0,0,0-.271-1.07.873.873,0,0,0-.758-.38.863.863,0,0,0-.751.377,2.053,2.053,0,0,0-.264,1.17Z" transform="translate(-992.678 3303.532)" fill="#12263f"/>
    <path id="Trazado_756517" data-name="Trazado 756517" d="M1756.007,541.3l.042.57a1.731,1.731,0,0,1,1.421-.664,1.435,1.435,0,0,1,1.17.461,2.165,2.165,0,0,1,.393,1.379v3.2h-1.321v-3.165a.85.85,0,0,0-.184-.609.825.825,0,0,0-.609-.19.91.91,0,0,0-.838.477v3.487h-1.322V541.3H1756Z" transform="translate(-1004.172 3303.532)" fill="#12263f"/>
    <path id="Trazado_756518" data-name="Trazado 756518" d="M1773.592,546.25a1.417,1.417,0,0,1-.132-.445,1.592,1.592,0,0,1-1.247.535,1.746,1.746,0,0,1-1.205-.422,1.352,1.352,0,0,1-.477-1.06,1.391,1.391,0,0,1,.583-1.205,2.883,2.883,0,0,1,1.686-.425h.609v-.284a.8.8,0,0,0-.177-.548.7.7,0,0,0-.554-.206.785.785,0,0,0-.522.161.548.548,0,0,0-.19.438h-1.321a1.325,1.325,0,0,1,.264-.8,1.736,1.736,0,0,1,.751-.574,2.737,2.737,0,0,1,1.089-.209,2.156,2.156,0,0,1,1.45.461,1.611,1.611,0,0,1,.538,1.292v2.143a2.317,2.317,0,0,0,.2,1.067v.077H1773.6Zm-1.093-.918a1.135,1.135,0,0,0,.538-.129.836.836,0,0,0,.364-.351V544h-.493c-.661,0-1.012.229-1.057.686v.077a.511.511,0,0,0,.168.406.678.678,0,0,0,.477.161Z" transform="translate(-1014.859 3303.532)" fill="#12263f"/>
    <path id="Trazado_756519" data-name="Trazado 756519" d="M1794.2,542.855V536.2h2.33a3.053,3.053,0,0,1,1.837.464,1.584,1.584,0,0,1,.625,1.36,1.5,1.5,0,0,1-.251.861,1.451,1.451,0,0,1-.7.548,1.414,1.414,0,0,1,.806.516,1.525,1.525,0,0,1,.293.951,1.751,1.751,0,0,1-.612,1.454,2.762,2.762,0,0,1-1.747.5h-2.588Zm1.373-3.867h1.015c.693-.013,1.038-.287,1.038-.828a.757.757,0,0,0-.264-.651,1.386,1.386,0,0,0-.828-.2h-.96Zm0,.97v1.8h1.177a1.132,1.132,0,0,0,.757-.232.8.8,0,0,0,.271-.638.837.837,0,0,0-.948-.928h-1.257Z" transform="translate(-1030.894 3306.928)" fill="#12263f"/>
    <path id="Trazado_756520" data-name="Trazado 756520" d="M1614.637,693.468a2.359,2.359,0,0,1-.793,1.692,2.779,2.779,0,0,1-1.885.616,2.507,2.507,0,0,1-2.014-.861,3.528,3.528,0,0,1-.735-2.365v-.406a3.984,3.984,0,0,1,.338-1.692,2.544,2.544,0,0,1,.967-1.122,3.027,3.027,0,0,1,3.316.226,2.519,2.519,0,0,1,.812,1.734h-1.373a1.4,1.4,0,0,0-.358-.935,1.331,1.331,0,0,0-.941-.29,1.165,1.165,0,0,0-1.025.49,2.771,2.771,0,0,0-.351,1.525v.5a2.964,2.964,0,0,0,.325,1.576,1.146,1.146,0,0,0,1.031.5,1.35,1.35,0,0,0,.948-.29,1.3,1.3,0,0,0,.358-.9h1.373Z" transform="translate(-905.531 3203.414)" fill="#12263f"/>
    <path id="Trazado_756521" data-name="Trazado 756521" d="M1630.125,695.1H1628.8V688.08h1.325Z" transform="translate(-918.808 3203.996)" fill="#12263f"/>
    <path id="Trazado_756522" data-name="Trazado 756522" d="M1636.243,689.113a.659.659,0,0,1,.2-.49.743.743,0,0,1,.542-.193.734.734,0,0,1,.538.193.641.641,0,0,1,.2.49.651.651,0,0,1-.2.493.846.846,0,0,1-1.077,0,.651.651,0,0,1-.2-.493Zm1.4,6.227h-1.325v-4.947h1.325Z" transform="translate(-923.849 3203.76)" fill="#12263f"/>
    <path id="Trazado_756523" data-name="Trazado 756523" d="M1645.886,699.361a2.436,2.436,0,0,1-1.773-.667,2.378,2.378,0,0,1-.683-1.779v-.129a3,3,0,0,1,.287-1.331,2.142,2.142,0,0,1,.816-.906,2.283,2.283,0,0,1,1.205-.319,2.05,2.05,0,0,1,1.6.641,2.591,2.591,0,0,1,.583,1.815v.538h-3.149a1.216,1.216,0,0,0,.387.777,1.163,1.163,0,0,0,.815.293,1.421,1.421,0,0,0,1.192-.554l.648.728a1.988,1.988,0,0,1-.806.658,2.625,2.625,0,0,1-1.125.235Zm-.151-4.064a.832.832,0,0,0-.638.268,1.365,1.365,0,0,0-.312.764h1.837v-.106a.98.98,0,0,0-.239-.683A.846.846,0,0,0,1645.734,695.3Z" transform="translate(-928.723 3199.828)" fill="#12263f"/>
    <path id="Trazado_756524" data-name="Trazado 756524" d="M1660.837,694.324l.042.57a1.731,1.731,0,0,1,1.421-.664,1.436,1.436,0,0,1,1.17.461,2.164,2.164,0,0,1,.393,1.379v3.2h-1.321V696.1a.85.85,0,0,0-.183-.609.826.826,0,0,0-.609-.19.911.911,0,0,0-.838.477v3.487h-1.321V694.32h1.244Z" transform="translate(-939.674 3199.828)" fill="#12263f"/>
    <path id="Trazado_756525" data-name="Trazado 756525" d="M1676.58,690.74v1.215h.844v.97h-.844v2.469a.586.586,0,0,0,.106.393.524.524,0,0,0,.4.119,2.026,2.026,0,0,0,.39-.032v1a2.668,2.668,0,0,1-.8.119,1.263,1.263,0,0,1-1.418-1.4v-2.665h-.722v-.97h.722v-1.215h1.322Z" transform="translate(-949.806 3202.193)" fill="#12263f"/>
    <path id="Trazado_756526" data-name="Trazado 756526" d="M1687.676,699.361a2.435,2.435,0,0,1-1.773-.667,2.377,2.377,0,0,1-.683-1.779v-.129a3,3,0,0,1,.287-1.331,2.14,2.14,0,0,1,.815-.906,2.283,2.283,0,0,1,1.205-.319,2.05,2.05,0,0,1,1.6.641,2.591,2.591,0,0,1,.584,1.815v.538h-3.149a1.216,1.216,0,0,0,.387.777,1.162,1.162,0,0,0,.816.293,1.421,1.421,0,0,0,1.192-.554l.648.728a2.008,2.008,0,0,1-.806.658,2.623,2.623,0,0,1-1.125.235Zm-.152-4.064a.831.831,0,0,0-.638.268,1.365,1.365,0,0,0-.313.764h1.837v-.106a.979.979,0,0,0-.239-.683A.845.845,0,0,0,1687.524,695.3Z" transform="translate(-957.044 3199.828)" fill="#12263f"/>
    <path id="Trazado_756527" data-name="Trazado 756527" d="M1703.63,697.908a.423.423,0,0,0-.239-.38,2.645,2.645,0,0,0-.77-.248q-1.765-.372-1.766-1.5a1.36,1.36,0,0,1,.548-1.1,2.21,2.21,0,0,1,1.428-.442,2.358,2.358,0,0,1,1.505.445,1.4,1.4,0,0,1,.564,1.151h-1.322a.631.631,0,0,0-.184-.467.778.778,0,0,0-.57-.184.787.787,0,0,0-.516.151.483.483,0,0,0-.184.384.4.4,0,0,0,.21.354,2.118,2.118,0,0,0,.7.232,5.434,5.434,0,0,1,.832.222,1.369,1.369,0,0,1,1.047,1.331,1.294,1.294,0,0,1-.58,1.1,2.492,2.492,0,0,1-1.5.419,2.614,2.614,0,0,1-1.105-.222,1.856,1.856,0,0,1-.758-.609,1.407,1.407,0,0,1-.274-.835h1.254a.686.686,0,0,0,.261.538,1.025,1.025,0,0,0,.648.187.947.947,0,0,0,.574-.145.451.451,0,0,0,.193-.377Z" transform="translate(-967.535 3199.822)" fill="#12263f"/>
    <path id="Trazado_756528" data-name="Trazado 756528" d="M1724.809,698.394h2.417v1.067h-4.106v-.806l2.327-3.078h-2.259V694.51h3.964v.78l-2.346,3.1Z" transform="translate(-982.729 3199.639)" fill="#12263f"/>
    <path id="Trazado_756529" data-name="Trazado 756529" d="M1737.56,696.75a2.913,2.913,0,0,1,.284-1.312,2.1,2.1,0,0,1,.815-.893,2.357,2.357,0,0,1,1.238-.316,2.249,2.249,0,0,1,1.634.612,2.459,2.459,0,0,1,.706,1.663l.01.338a2.6,2.6,0,0,1-.635,1.827,2.464,2.464,0,0,1-3.413,0,2.632,2.632,0,0,1-.638-1.866v-.058Zm1.321.094a1.856,1.856,0,0,0,.264,1.08.953.953,0,0,0,1.508.006,2.014,2.014,0,0,0,.271-1.18,1.815,1.815,0,0,0-.271-1.07.873.873,0,0,0-.757-.38.863.863,0,0,0-.751.377,2.054,2.054,0,0,0-.264,1.17Z" transform="translate(-992.516 3199.828)" fill="#12263f"/>
    <path id="Trazado_756530" data-name="Trazado 756530" d="M1755.777,694.324l.042.57a1.731,1.731,0,0,1,1.421-.664,1.436,1.436,0,0,1,1.17.461,2.163,2.163,0,0,1,.393,1.379v3.2h-1.322V696.1a.85.85,0,0,0-.183-.609.825.825,0,0,0-.609-.19.911.911,0,0,0-.838.477v3.487h-1.321V694.32h1.244Z" transform="translate(-1004.016 3199.828)" fill="#12263f"/>
    <path id="Trazado_756531" data-name="Trazado 756531" d="M1773.352,699.271a1.424,1.424,0,0,1-.132-.445,1.591,1.591,0,0,1-1.247.535,1.747,1.747,0,0,1-1.205-.422,1.352,1.352,0,0,1-.477-1.06,1.391,1.391,0,0,1,.583-1.205,2.884,2.884,0,0,1,1.686-.425h.609v-.284a.8.8,0,0,0-.177-.548.7.7,0,0,0-.554-.206.784.784,0,0,0-.522.161.548.548,0,0,0-.19.438H1770.4a1.326,1.326,0,0,1,.264-.8,1.735,1.735,0,0,1,.751-.574,2.737,2.737,0,0,1,1.089-.209,2.157,2.157,0,0,1,1.45.461,1.611,1.611,0,0,1,.538,1.292v2.143a2.318,2.318,0,0,0,.2,1.067v.077h-1.334Zm-1.093-.918a1.135,1.135,0,0,0,.538-.129.836.836,0,0,0,.364-.351v-.851h-.493c-.661,0-1.012.229-1.057.686v.077a.511.511,0,0,0,.168.406.678.678,0,0,0,.477.161Z" transform="translate(-1014.697 3199.828)" fill="#12263f"/>
    <path id="Trazado_756532" data-name="Trazado 756532" d="M1798.777,693.468a2.359,2.359,0,0,1-.793,1.692,2.779,2.779,0,0,1-1.885.616,2.507,2.507,0,0,1-2.014-.861,3.528,3.528,0,0,1-.735-2.365v-.406a3.984,3.984,0,0,1,.338-1.692,2.543,2.543,0,0,1,.967-1.122,3.027,3.027,0,0,1,3.316.226,2.512,2.512,0,0,1,.812,1.734h-1.373a1.4,1.4,0,0,0-.358-.935,1.332,1.332,0,0,0-.941-.29,1.164,1.164,0,0,0-1.025.49,2.769,2.769,0,0,0-.352,1.525v.5a2.964,2.964,0,0,0,.325,1.576,1.146,1.146,0,0,0,1.031.5,1.35,1.35,0,0,0,.948-.29,1.3,1.3,0,0,0,.358-.9h1.373Z" transform="translate(-1030.324 3203.414)" fill="#12263f"/>
    <path id="Trazado_756533" data-name="Trazado 756533" d="M1505.384,383.168l-7.165-4.138v2.536h-25.5v3.059h25.5V387.3Z" transform="translate(-813.03 3413.443)" fill="#576b96"/>
    <path id="Trazado_756534" data-name="Trazado 756534" d="M1505.384,536.795l-7.165-4.135v2.533h-25.5v3.062h25.5v2.675Z" transform="translate(-813.03 3309.326)" fill="#576b96"/>
    <path id="Trazado_756535" data-name="Trazado 756535" d="M1505.384,690.415l-7.165-4.135v2.536h-25.5v3.058h25.5v2.678Z" transform="translate(-813.03 3205.217)" fill="#576b96"/>
    <path id="Trazado_756536" data-name="Trazado 756536" d="M1157.282,698.029a2.365,2.365,0,0,1-.761,1.586,2.479,2.479,0,0,1-1.7.558,2.275,2.275,0,0,1-1.84-.825,3.314,3.314,0,0,1-.693-2.2v-.622a3.681,3.681,0,0,1,.322-1.589,2.4,2.4,0,0,1,.915-1.054,2.538,2.538,0,0,1,1.37-.367,2.346,2.346,0,0,1,1.657.577,2.4,2.4,0,0,1,.725,1.6h-.86a1.855,1.855,0,0,0-.483-1.125,1.462,1.462,0,0,0-1.041-.348,1.54,1.54,0,0,0-1.286.606,2.785,2.785,0,0,0-.464,1.724v.628a2.864,2.864,0,0,0,.441,1.679,1.427,1.427,0,0,0,1.234.625,1.643,1.643,0,0,0,1.092-.322,1.792,1.792,0,0,0,.506-1.125h.86Z" transform="translate(-595.871 3200.316)" fill="#12263f"/>
    <path id="Trazado_756537" data-name="Trazado 756537" d="M1172.551,703.679a2.1,2.1,0,0,1-1.6-.645,2.389,2.389,0,0,1-.615-1.721v-.152a2.868,2.868,0,0,1,.274-1.279,2.157,2.157,0,0,1,.767-.883,1.923,1.923,0,0,1,1.067-.319,1.807,1.807,0,0,1,1.46.619,2.674,2.674,0,0,1,.522,1.773v.342h-3.265a1.728,1.728,0,0,0,.416,1.151,1.3,1.3,0,0,0,1.012.438,1.422,1.422,0,0,0,.738-.177,1.882,1.882,0,0,0,.529-.471l.5.393a2.019,2.019,0,0,1-1.818.932Zm-.1-4.319a1.1,1.1,0,0,0-.838.364,1.769,1.769,0,0,0-.419,1.018h2.414v-.061a1.561,1.561,0,0,0-.338-.973,1.038,1.038,0,0,0-.819-.345Z" transform="translate(-608.104 3196.813)" fill="#12263f"/>
    <path id="Trazado_756538" data-name="Trazado 756538" d="M1186.76,698.787l.026.606a1.75,1.75,0,0,1,1.444-.693q1.528,0,1.541,1.724v3.184h-.825v-3.188a1.1,1.1,0,0,0-.238-.77.949.949,0,0,0-.728-.248,1.185,1.185,0,0,0-.7.213,1.429,1.429,0,0,0-.471.561v3.432h-.825V698.79h.78Z" transform="translate(-618.703 3196.799)" fill="#12263f"/>
    <path id="Trazado_756539" data-name="Trazado 756539" d="M1201.489,695.343v1.167h.9v.638h-.9v2.991a.667.667,0,0,0,.119.435.5.5,0,0,0,.409.145,2.071,2.071,0,0,0,.393-.055v.664a2.444,2.444,0,0,1-.632.087,1.026,1.026,0,0,1-.832-.335,1.433,1.433,0,0,1-.28-.947v-2.988h-.877v-.638h.877V695.34h.825Z" transform="translate(-628.062 3199.076)" fill="#12263f"/>
    <path id="Trazado_756540" data-name="Trazado 756540" d="M1213.16,699.518a2.659,2.659,0,0,0-.406-.032,1.083,1.083,0,0,0-1.1.69V703.6h-.825v-4.818h.8l.013.557a1.286,1.286,0,0,1,1.147-.644.833.833,0,0,1,.364.061v.767Z" transform="translate(-635.544 3196.806)" fill="#12263f"/>
    <path id="Trazado_756541" data-name="Trazado 756541" d="M1219.46,701.143a2.873,2.873,0,0,1,.277-1.273,2.039,2.039,0,0,1,1.908-1.18,2.034,2.034,0,0,1,1.592.68,2.614,2.614,0,0,1,.609,1.811v.058a2.863,2.863,0,0,1-.271,1.263,2.026,2.026,0,0,1-.77.87,2.153,2.153,0,0,1-1.151.313,2.017,2.017,0,0,1-1.586-.68,2.6,2.6,0,0,1-.609-1.8v-.058Zm.828.1a2.052,2.052,0,0,0,.371,1.286,1.2,1.2,0,0,0,1,.487,1.181,1.181,0,0,0,1-.493,2.265,2.265,0,0,0,.371-1.379,2.06,2.06,0,0,0-.377-1.286,1.2,1.2,0,0,0-1-.493,1.164,1.164,0,0,0-.983.487,2.241,2.241,0,0,0-.374,1.389Z" transform="translate(-641.393 3196.806)" fill="#12263f"/>
    <path id="Trazado_756542" data-name="Trazado 756542" d="M1242.65,697.1a2.81,2.81,0,0,1,.526-1.782,1.788,1.788,0,0,1,2.717-.094V692.71h.825v6.839h-.757l-.039-.516a1.681,1.681,0,0,1-1.376.606,1.606,1.606,0,0,1-1.363-.686,2.857,2.857,0,0,1-.528-1.789V697.1Zm.825.093a2.142,2.142,0,0,0,.338,1.283,1.094,1.094,0,0,0,.935.464,1.2,1.2,0,0,0,1.144-.7V696.02a1.208,1.208,0,0,0-1.134-.68,1.1,1.1,0,0,0-.944.467,2.357,2.357,0,0,0-.338,1.386Z" transform="translate(-657.108 3200.859)" fill="#12263f"/>
    <path id="Trazado_756543" data-name="Trazado 756543" d="M1260.781,703.679a2.1,2.1,0,0,1-1.6-.645,2.39,2.39,0,0,1-.615-1.721v-.152a2.868,2.868,0,0,1,.274-1.279,2.156,2.156,0,0,1,.767-.883,1.924,1.924,0,0,1,1.067-.319,1.806,1.806,0,0,1,1.46.619,2.674,2.674,0,0,1,.522,1.773v.342H1259.4a1.727,1.727,0,0,0,.416,1.151,1.3,1.3,0,0,0,1.012.438,1.421,1.421,0,0,0,.738-.177,1.879,1.879,0,0,0,.529-.471l.5.393a2.019,2.019,0,0,1-1.818.932Zm-.1-4.319a1.1,1.1,0,0,0-.838.364,1.767,1.767,0,0,0-.419,1.018h2.414v-.061a1.56,1.56,0,0,0-.338-.973,1.038,1.038,0,0,0-.819-.345Z" transform="translate(-667.898 3196.813)" fill="#12263f"/>
    <path id="Trazado_756544" data-name="Trazado 756544" d="M1130.5,736.962a1.192,1.192,0,0,0,.771-.267.933.933,0,0,0,.364-.667h.78a1.518,1.518,0,0,1-.284.79,1.875,1.875,0,0,1-.7.6,2.031,2.031,0,0,1-.928.222,1.988,1.988,0,0,1-1.566-.657,2.619,2.619,0,0,1-.58-1.8v-.139a2.918,2.918,0,0,1,.258-1.25,1.97,1.97,0,0,1,.741-.851,2.094,2.094,0,0,1,1.141-.3,1.923,1.923,0,0,1,1.347.487,1.743,1.743,0,0,1,.574,1.26h-.78a1.122,1.122,0,0,0-.355-.767,1.1,1.1,0,0,0-.786-.3,1.155,1.155,0,0,0-.973.451,2.135,2.135,0,0,0-.345,1.305v.155a2.081,2.081,0,0,0,.341,1.283,1.16,1.16,0,0,0,.98.451Z" transform="translate(-579.646 3173.798)" fill="#12263f"/>
    <path id="Trazado_756545" data-name="Trazado 756545" d="M1143.15,735.093a2.873,2.873,0,0,1,.277-1.273,2.04,2.04,0,0,1,1.908-1.18,2.034,2.034,0,0,1,1.592.68,2.615,2.615,0,0,1,.609,1.811v.058a2.862,2.862,0,0,1-.271,1.263,2.026,2.026,0,0,1-.77.87,2.153,2.153,0,0,1-1.151.313,2.016,2.016,0,0,1-1.586-.68,2.616,2.616,0,0,1-.609-1.8V735.1Zm.828.1a2.052,2.052,0,0,0,.371,1.286,1.2,1.2,0,0,0,1,.487,1.181,1.181,0,0,0,1-.493,2.264,2.264,0,0,0,.371-1.379,2.06,2.06,0,0,0-.377-1.286,1.2,1.2,0,0,0-1-.493,1.165,1.165,0,0,0-.983.487,2.243,2.243,0,0,0-.374,1.389Z" transform="translate(-589.676 3173.798)" fill="#12263f"/>
    <path id="Trazado_756546" data-name="Trazado 756546" d="M1160.74,732.737l.026.606a1.75,1.75,0,0,1,1.444-.693q1.528,0,1.541,1.724v3.184h-.825v-3.187a1.1,1.1,0,0,0-.239-.77.949.949,0,0,0-.728-.248,1.185,1.185,0,0,0-.7.213,1.427,1.427,0,0,0-.47.561v3.432h-.825V732.74h.78Z" transform="translate(-601.068 3173.791)" fill="#12263f"/>
    <path id="Trazado_756547" data-name="Trazado 756547" d="M1177.94,736.269a.606.606,0,0,0-.251-.519,2.462,2.462,0,0,0-.877-.319,4.33,4.33,0,0,1-.992-.319,1.424,1.424,0,0,1-.545-.445,1.073,1.073,0,0,1-.177-.616,1.258,1.258,0,0,1,.5-1,1.952,1.952,0,0,1,1.279-.409,2.018,2.018,0,0,1,1.328.422,1.349,1.349,0,0,1,.509,1.083h-.828a.748.748,0,0,0-.287-.583,1.065,1.065,0,0,0-.722-.245,1.13,1.13,0,0,0-.7.2.626.626,0,0,0-.255.513.5.5,0,0,0,.235.451,2.976,2.976,0,0,0,.854.29,4.576,4.576,0,0,1,1,.329,1.459,1.459,0,0,1,.567.461,1.143,1.143,0,0,1,.183.657,1.225,1.225,0,0,1-.516,1.035,2.157,2.157,0,0,1-1.341.39,2.4,2.4,0,0,1-1.025-.206,1.658,1.658,0,0,1-.7-.574,1.38,1.38,0,0,1-.251-.8h.825a.855.855,0,0,0,.332.657,1.285,1.285,0,0,0,.815.242,1.336,1.336,0,0,0,.751-.19.584.584,0,0,0,.284-.506Z" transform="translate(-611.214 3173.798)" fill="#12263f"/>
    <path id="Trazado_756548" data-name="Trazado 756548" d="M1189.48,735.093a2.873,2.873,0,0,1,.277-1.273,2.04,2.04,0,0,1,1.908-1.18,2.034,2.034,0,0,1,1.592.68,2.615,2.615,0,0,1,.609,1.811v.058a2.863,2.863,0,0,1-.271,1.263,2.024,2.024,0,0,1-.77.87,2.151,2.151,0,0,1-1.151.313,2.017,2.017,0,0,1-1.586-.68,2.6,2.6,0,0,1-.609-1.8V735.1Zm.828.1a2.052,2.052,0,0,0,.371,1.286,1.2,1.2,0,0,0,1,.487,1.181,1.181,0,0,0,1-.493,2.265,2.265,0,0,0,.371-1.379,2.06,2.06,0,0,0-.377-1.286,1.2,1.2,0,0,0-1-.493,1.165,1.165,0,0,0-.983.487,2.243,2.243,0,0,0-.374,1.389Z" transform="translate(-621.075 3173.798)" fill="#12263f"/>
    <path id="Trazado_756549" data-name="Trazado 756549" d="M1207.335,733.479h-.825V726.64h.825Z" transform="translate(-632.616 3177.863)" fill="#12263f"/>
    <path id="Trazado_756550" data-name="Trazado 756550" d="M1213.17,727.947a.5.5,0,0,1,.122-.338.466.466,0,0,1,.364-.139.46.46,0,0,1,.364.139.489.489,0,0,1,.126.338.445.445,0,0,1-.49.467.44.44,0,0,1-.487-.467Zm.889,6.094h-.825v-4.818h.825Z" transform="translate(-637.13 3177.301)" fill="#12263f"/>
    <path id="Trazado_756551" data-name="Trazado 756551" d="M1219.4,731.046a2.812,2.812,0,0,1,.525-1.782,1.788,1.788,0,0,1,2.717-.093V726.66h.825V733.5h-.757l-.039-.516a1.682,1.682,0,0,1-1.376.606,1.606,1.606,0,0,1-1.363-.686,2.858,2.858,0,0,1-.528-1.789v-.061Zm.825.094a2.142,2.142,0,0,0,.339,1.283,1.094,1.094,0,0,0,.935.464,1.2,1.2,0,0,0,1.144-.7V729.97a1.208,1.208,0,0,0-1.135-.68,1.1,1.1,0,0,0-.944.467,2.355,2.355,0,0,0-.339,1.386Z" transform="translate(-641.352 3177.851)" fill="#12263f"/>
    <path id="Trazado_756552" data-name="Trazado 756552" d="M1238.663,737.552a1.662,1.662,0,0,1-.116-.506,1.845,1.845,0,0,1-1.37.6,1.715,1.715,0,0,1-1.17-.4,1.307,1.307,0,0,1-.458-1.022,1.362,1.362,0,0,1,.574-1.17,2.7,2.7,0,0,1,1.608-.416h.8v-.377a.929.929,0,0,0-.258-.687,1.033,1.033,0,0,0-.761-.255,1.2,1.2,0,0,0-.738.222.656.656,0,0,0-.3.538h-.828a1.125,1.125,0,0,1,.255-.7,1.757,1.757,0,0,1,.693-.532,2.362,2.362,0,0,1,.964-.2,1.912,1.912,0,0,1,1.305.416,1.5,1.5,0,0,1,.49,1.147v2.217a2.709,2.709,0,0,0,.167,1.054v.071h-.864Zm-1.366-.628a1.466,1.466,0,0,0,.735-.2,1.188,1.188,0,0,0,.5-.522v-.99h-.645q-1.513,0-1.515.886a.755.755,0,0,0,.258.606A.993.993,0,0,0,1237.3,736.924Z" transform="translate(-652.297 3173.791)" fill="#12263f"/>
    <path id="Trazado_756553" data-name="Trazado 756553" d="M1252.846,736.962a1.192,1.192,0,0,0,.77-.267.933.933,0,0,0,.364-.667h.78a1.523,1.523,0,0,1-.284.79,1.874,1.874,0,0,1-.7.6,2.03,2.03,0,0,1-.928.222,1.987,1.987,0,0,1-1.566-.657,2.619,2.619,0,0,1-.58-1.8v-.139a2.918,2.918,0,0,1,.258-1.25,1.968,1.968,0,0,1,.741-.851,2.094,2.094,0,0,1,1.141-.3,1.923,1.923,0,0,1,1.347.487,1.743,1.743,0,0,1,.574,1.26h-.78a1.123,1.123,0,0,0-.355-.767,1.1,1.1,0,0,0-.786-.3,1.155,1.155,0,0,0-.973.451,2.135,2.135,0,0,0-.345,1.305v.155a2.08,2.08,0,0,0,.342,1.283,1.159,1.159,0,0,0,.98.451Z" transform="translate(-662.564 3173.798)" fill="#12263f"/>
    <path id="Trazado_756554" data-name="Trazado 756554" d="M1266.19,727.947a.5.5,0,0,1,.122-.338.466.466,0,0,1,.364-.139.46.46,0,0,1,.364.139.489.489,0,0,1,.126.338.445.445,0,0,1-.49.467.44.44,0,0,1-.487-.467Zm.889,6.094h-.825v-4.818h.825Z" transform="translate(-673.062 3177.301)" fill="#12263f"/>
    <path id="Trazado_756555" data-name="Trazado 756555" d="M1272.36,731.026a2.873,2.873,0,0,1,.277-1.273,2.039,2.039,0,0,1,1.908-1.18,2.034,2.034,0,0,1,1.592.68,2.614,2.614,0,0,1,.609,1.811v.058a2.863,2.863,0,0,1-.271,1.263,2.028,2.028,0,0,1-.77.87,2.153,2.153,0,0,1-1.151.313,2.016,2.016,0,0,1-1.586-.68,2.6,2.6,0,0,1-.609-1.8v-.058Zm.828.1a2.053,2.053,0,0,0,.371,1.286,1.2,1.2,0,0,0,1,.487,1.181,1.181,0,0,0,1-.493,2.265,2.265,0,0,0,.371-1.379,2.059,2.059,0,0,0-.377-1.286,1.2,1.2,0,0,0-1-.493,1.164,1.164,0,0,0-.983.487,2.242,2.242,0,0,0-.374,1.389Zm1.731-4.483h1l-1.192,1.309h-.664Z" transform="translate(-677.243 3177.863)" fill="#12263f"/>
    <path id="Trazado_756556" data-name="Trazado 756556" d="M1289.95,732.737l.026.606a1.749,1.749,0,0,1,1.444-.693q1.528,0,1.541,1.724v3.184h-.825v-3.187a1.1,1.1,0,0,0-.238-.77.95.95,0,0,0-.728-.248,1.186,1.186,0,0,0-.7.213,1.427,1.427,0,0,0-.47.561v3.432h-.825V732.74h.78Z" transform="translate(-688.636 3173.791)" fill="#12263f"/>
    <g id="Grupo_1024075" data-name="Grupo 1024075">
      <path id="Trazado_756557" data-name="Trazado 756557" d="M134.677,164.922V148.06H120.4v59.024h80.385V164.922Z" transform="translate(103.454 3579.975)" fill="#57dbd8"/>
      <rect id="Rectángulo_358830" data-name="Rectángulo 358830" width="7.474" height="5.079" transform="translate(226.625 3749.689)" fill="#45afac"/>
      <rect id="Rectángulo_358831" data-name="Rectángulo 358831" width="7.474" height="5.079" transform="translate(240.136 3749.689)" fill="#45afac"/>
      <rect id="Rectángulo_358832" data-name="Rectángulo 358832" width="7.474" height="5.079" transform="translate(253.646 3749.689)" fill="#45afac"/>
      <rect id="Rectángulo_358833" data-name="Rectángulo 358833" width="7.474" height="5.079" transform="translate(267.156 3749.689)" fill="#45afac"/>
      <rect id="Rectángulo_358834" data-name="Rectángulo 358834" width="7.474" height="5.079" transform="translate(280.67 3749.689)" fill="#45afac"/>
      <rect id="Rectángulo_358835" data-name="Rectángulo 358835" width="7.474" height="5.079" transform="translate(294.18 3749.689)" fill="#45afac"/>
      <rect id="Rectángulo_358836" data-name="Rectángulo 358836" width="7.474" height="5.079" transform="translate(226.625 3758.313)" fill="#45afac"/>
      <rect id="Rectángulo_358837" data-name="Rectángulo 358837" width="7.474" height="5.079" transform="translate(240.136 3758.313)" fill="#45afac"/>
      <rect id="Rectángulo_358838" data-name="Rectángulo 358838" width="7.474" height="5.079" transform="translate(253.646 3758.313)" fill="#45afac"/>
      <rect id="Rectángulo_358839" data-name="Rectángulo 358839" width="7.474" height="5.079" transform="translate(267.156 3758.313)" fill="#45afac"/>
      <rect id="Rectángulo_358840" data-name="Rectángulo 358840" width="7.474" height="5.079" transform="translate(280.67 3758.313)" fill="#45afac"/>
      <rect id="Rectángulo_358841" data-name="Rectángulo 358841" width="7.474" height="5.079" transform="translate(294.18 3758.313)" fill="#45afac"/>
      <rect id="Rectángulo_358842" data-name="Rectángulo 358842" width="7.474" height="5.079" transform="translate(226.625 3766.935)" fill="#45afac"/>
      <rect id="Rectángulo_358843" data-name="Rectángulo 358843" width="7.474" height="5.079" transform="translate(240.136 3766.935)" fill="#45afac"/>
      <rect id="Rectángulo_358844" data-name="Rectángulo 358844" width="7.474" height="5.079" transform="translate(253.646 3766.935)" fill="#45afac"/>
      <rect id="Rectángulo_358845" data-name="Rectángulo 358845" width="7.474" height="5.079" transform="translate(226.625 3775.559)" fill="#45afac"/>
      <rect id="Rectángulo_358846" data-name="Rectángulo 358846" width="7.474" height="5.079" transform="translate(240.136 3775.559)" fill="#45afac"/>
      <rect id="Rectángulo_358847" data-name="Rectángulo 358847" width="7.474" height="5.079" transform="translate(253.646 3775.559)" fill="#45afac"/>
      <rect id="Rectángulo_358848" data-name="Rectángulo 358848" width="7.474" height="5.079" transform="translate(267.156 3766.935)" fill="#45afac"/>
      <rect id="Rectángulo_358849" data-name="Rectángulo 358849" width="7.474" height="5.079" transform="translate(280.67 3766.935)" fill="#45afac"/>
      <rect id="Rectángulo_358850" data-name="Rectángulo 358850" width="7.474" height="5.079" transform="translate(294.18 3766.935)" fill="#45afac"/>
      <rect id="Rectángulo_358851" data-name="Rectángulo 358851" width="33.441" height="11.403" transform="translate(267.156 3775.559)" fill="#348381"/>
      <path id="Trazado_756558" data-name="Trazado 756558" d="M119.346,131.659H108.44l5.453-3.9,5.453-3.9,5.456,3.9,5.453,3.9Z" transform="translate(111.56 3596.375)" fill="#348381"/>
      <path id="Trazado_756559" data-name="Trazado 756559" d="M197.754,183H164.7l16.527-4.132,16.527-4.132,16.527,4.132L230.808,183Z" transform="translate(73.431 3561.894)" fill="#348381"/>
    </g>
    <path id="Trazado_756560" data-name="Trazado 756560" d="M441.127,248.912l-7.29-4.212v2.582H407.88v3.113h25.957v2.727Z" transform="translate(-91.375 3514.48)" fill="#576b96"/>
    <g id="Grupo_1024076" data-name="Grupo 1024076">
      <path id="Trazado_756561" data-name="Trazado 756561" d="M616.166,182.929l-17.494-4.093-17.49-4.1-17.491,4.1L546.2,182.929h0v41.214h69.988V182.929Z" transform="translate(-185.116 3561.894)" fill="#57dbd8"/>
      <path id="Trazado_756562" data-name="Trazado 756562" d="M619.2,254.044H554.67V218.86H619.2Z" transform="translate(-190.856 3531.993)" fill="#45afac"/>
      <rect id="Rectángulo_358852" data-name="Rectángulo 358852" width="58.592" height="32.003" transform="translate(366.782 3754.033)" fill="#348381"/>
      <rect id="Rectángulo_358853" data-name="Rectángulo 358853" width="27.443" height="13.011" transform="translate(368.777 3773.026)" fill="#ffcdc8"/>
      <rect id="Rectángulo_358854" data-name="Rectángulo 358854" width="9.685" height="8.547" transform="translate(396.22 3777.49)" fill="#fe7062"/>
      <rect id="Rectángulo_358855" data-name="Rectángulo 358855" width="9.685" height="8.547" transform="translate(385.607 3764.482)" fill="#fe7062"/>
      <rect id="Rectángulo_358856" data-name="Rectángulo 358856" width="9.685" height="8.547" transform="translate(375.922 3764.482)" fill="#cb594e"/>
      <rect id="Rectángulo_358857" data-name="Rectángulo 358857" width="7.835" height="6.913" transform="translate(414.31 3779.124)" fill="#fe7062"/>
      <rect id="Rectángulo_358858" data-name="Rectángulo 358858" width="8.405" height="9.685" transform="translate(405.908 3776.352)" fill="#ffcdc8"/>
      <path id="Trazado_756563" data-name="Trazado 756563" d="M581.194,182.929H546.2l17.5-4.093,17.5-4.1,17.5,4.1,17.5,4.093Z" transform="translate(-185.116 3561.894)" fill="#348381"/>
    </g>
    <path id="Trazado_756564" data-name="Trazado 756564" d="M134.677,440.132V423.27H120.4v59.024h80.385V440.132Z" transform="translate(103.454 3383.461)" fill="#57dbd8"/>
    <rect id="Rectángulo_358859" data-name="Rectángulo 358859" width="7.474" height="5.079" transform="translate(226.625 3828.386)" fill="#45afac"/>
    <rect id="Rectángulo_358860" data-name="Rectángulo 358860" width="7.474" height="5.079" transform="translate(240.136 3828.386)" fill="#45afac"/>
    <rect id="Rectángulo_358861" data-name="Rectángulo 358861" width="7.474" height="5.079" transform="translate(253.646 3828.386)" fill="#45afac"/>
    <rect id="Rectángulo_358862" data-name="Rectángulo 358862" width="7.474" height="5.079" transform="translate(267.156 3828.386)" fill="#45afac"/>
    <rect id="Rectángulo_358863" data-name="Rectángulo 358863" width="7.474" height="5.079" transform="translate(280.67 3828.386)" fill="#45afac"/>
    <rect id="Rectángulo_358864" data-name="Rectángulo 358864" width="7.474" height="5.079" transform="translate(294.18 3828.386)" fill="#45afac"/>
    <rect id="Rectángulo_358865" data-name="Rectángulo 358865" width="7.474" height="5.079" transform="translate(226.625 3837.01)" fill="#45afac"/>
    <rect id="Rectángulo_358866" data-name="Rectángulo 358866" width="7.474" height="5.079" transform="translate(240.136 3837.01)" fill="#45afac"/>
    <rect id="Rectángulo_358867" data-name="Rectángulo 358867" width="7.474" height="5.079" transform="translate(253.646 3837.01)" fill="#45afac"/>
    <rect id="Rectángulo_358868" data-name="Rectángulo 358868" width="7.474" height="5.079" transform="translate(267.156 3837.01)" fill="#45afac"/>
    <rect id="Rectángulo_358869" data-name="Rectángulo 358869" width="7.474" height="5.079" transform="translate(280.67 3837.01)" fill="#45afac"/>
    <rect id="Rectángulo_358870" data-name="Rectángulo 358870" width="7.474" height="5.079" transform="translate(294.18 3837.01)" fill="#45afac"/>
    <rect id="Rectángulo_358871" data-name="Rectángulo 358871" width="7.474" height="5.079" transform="translate(226.625 3845.632)" fill="#45afac"/>
    <rect id="Rectángulo_358872" data-name="Rectángulo 358872" width="7.474" height="5.079" transform="translate(240.136 3845.632)" fill="#45afac"/>
    <rect id="Rectángulo_358873" data-name="Rectángulo 358873" width="7.474" height="5.079" transform="translate(253.646 3845.632)" fill="#45afac"/>
    <rect id="Rectángulo_358874" data-name="Rectángulo 358874" width="7.474" height="5.079" transform="translate(226.625 3854.256)" fill="#45afac"/>
    <rect id="Rectángulo_358875" data-name="Rectángulo 358875" width="7.474" height="5.079" transform="translate(240.136 3854.256)" fill="#45afac"/>
    <rect id="Rectángulo_358876" data-name="Rectángulo 358876" width="7.474" height="5.079" transform="translate(253.646 3854.256)" fill="#45afac"/>
    <rect id="Rectángulo_358877" data-name="Rectángulo 358877" width="7.474" height="5.079" transform="translate(267.156 3845.632)" fill="#45afac"/>
    <rect id="Rectángulo_358878" data-name="Rectángulo 358878" width="7.474" height="5.079" transform="translate(280.67 3845.632)" fill="#45afac"/>
    <rect id="Rectángulo_358879" data-name="Rectángulo 358879" width="7.474" height="5.079" transform="translate(294.18 3845.632)" fill="#45afac"/>
    <rect id="Rectángulo_358880" data-name="Rectángulo 358880" width="33.441" height="11.403" transform="translate(267.156 3854.256)" fill="#348381"/>
    <path id="Trazado_756565" data-name="Trazado 756565" d="M119.346,406.869H108.44l5.453-3.9,5.453-3.9,5.456,3.9,5.453,3.9Z" transform="translate(111.56 3399.862)" fill="#348381"/>
    <path id="Trazado_756566" data-name="Trazado 756566" d="M197.754,458.213H164.7l16.527-4.132,16.527-4.132,16.527,4.132,16.527,4.132Z" transform="translate(73.431 3365.38)" fill="#348381"/>
    <path id="Trazado_756567" data-name="Trazado 756567" d="M441.127,524.122l-7.29-4.212v2.582H407.88V525.6h25.957v2.727Z" transform="translate(-91.375 3317.967)" fill="#576b96"/>
    <path id="Trazado_756568" data-name="Trazado 756568" d="M847.6,524.122l-7.29-4.212v2.582H814.35V525.6h25.957v2.727Z" transform="translate(-366.844 3317.967)" fill="#576b96"/>
    <path id="Trazado_756569" data-name="Trazado 756569" d="M850.542,744.95l-8.131,2.179,1.824,1.824L825.88,767.31l2.2,2.2,18.354-18.354,1.927,1.927Z" transform="translate(-374.659 3155.455)" fill="#576b96"/>
    <path id="Trazado_756570" data-name="Trazado 756570" d="M850.758,269.135,848.58,261l-1.824,1.827L828.4,244.47l-2.2,2.2,18.354,18.354-1.927,1.927Z" transform="translate(-374.875 3514.637)" fill="#576b96"/>
    <path id="Trazado_756571" data-name="Trazado 756571" d="M616.166,458.139l-17.494-4.1-17.49-4.093-17.491,4.093-17.491,4.1h0v41.214h69.988V458.139Z" transform="translate(-185.116 3365.38)" fill="#57dbd8"/>
    <path id="Trazado_756572" data-name="Trazado 756572" d="M619.2,529.254H554.67V494.07H619.2Z" transform="translate(-190.856 3335.479)" fill="#45afac"/>
    <rect id="Rectángulo_358881" data-name="Rectángulo 358881" width="58.592" height="32.003" transform="translate(366.782 3832.73)" fill="#348381"/>
    <rect id="Rectángulo_358882" data-name="Rectángulo 358882" width="27.443" height="13.011" transform="translate(368.777 3851.723)" fill="#ffcdc8"/>
    <rect id="Rectángulo_358883" data-name="Rectángulo 358883" width="9.685" height="8.547" transform="translate(396.22 3856.187)" fill="#fe7062"/>
    <rect id="Rectángulo_358884" data-name="Rectángulo 358884" width="9.685" height="8.547" transform="translate(385.607 3843.179)" fill="#fe7062"/>
    <rect id="Rectángulo_358885" data-name="Rectángulo 358885" width="9.685" height="8.547" transform="translate(375.922 3843.179)" fill="#cb594e"/>
    <rect id="Rectángulo_358886" data-name="Rectángulo 358886" width="7.835" height="6.913" transform="translate(414.31 3857.82)" fill="#fe7062"/>
    <rect id="Rectángulo_358887" data-name="Rectángulo 358887" width="8.405" height="9.685" transform="translate(405.908 3855.049)" fill="#ffcdc8"/>
    <path id="Trazado_756573" data-name="Trazado 756573" d="M581.194,458.139H546.2l17.5-4.1,17.5-4.093,17.5,4.093,17.5,4.1Z" transform="translate(-185.116 3365.38)" fill="#348381"/>
    <g id="Grupo_1024077" data-name="Grupo 1024077">
      <path id="Trazado_756574" data-name="Trazado 756574" d="M134.677,715.342V698.48H120.4V757.5h80.385V715.342Z" transform="translate(103.454 3186.948)" fill="#57dbd8"/>
      <rect id="Rectángulo_358888" data-name="Rectángulo 358888" width="7.474" height="5.079" transform="translate(226.625 3907.083)" fill="#45afac"/>
      <rect id="Rectángulo_358889" data-name="Rectángulo 358889" width="7.474" height="5.079" transform="translate(240.136 3907.083)" fill="#45afac"/>
      <rect id="Rectángulo_358890" data-name="Rectángulo 358890" width="7.474" height="5.079" transform="translate(253.646 3907.083)" fill="#45afac"/>
      <rect id="Rectángulo_358891" data-name="Rectángulo 358891" width="7.474" height="5.079" transform="translate(267.156 3907.083)" fill="#45afac"/>
      <rect id="Rectángulo_358892" data-name="Rectángulo 358892" width="7.474" height="5.079" transform="translate(280.67 3907.083)" fill="#45afac"/>
      <rect id="Rectángulo_358893" data-name="Rectángulo 358893" width="7.474" height="5.079" transform="translate(294.18 3907.083)" fill="#45afac"/>
      <rect id="Rectángulo_358894" data-name="Rectángulo 358894" width="7.474" height="5.079" transform="translate(226.625 3915.707)" fill="#45afac"/>
      <rect id="Rectángulo_358895" data-name="Rectángulo 358895" width="7.474" height="5.079" transform="translate(240.136 3915.707)" fill="#45afac"/>
      <rect id="Rectángulo_358896" data-name="Rectángulo 358896" width="7.474" height="5.079" transform="translate(253.646 3915.707)" fill="#45afac"/>
      <rect id="Rectángulo_358897" data-name="Rectángulo 358897" width="7.474" height="5.079" transform="translate(267.156 3915.707)" fill="#45afac"/>
      <rect id="Rectángulo_358898" data-name="Rectángulo 358898" width="7.474" height="5.079" transform="translate(280.67 3915.707)" fill="#45afac"/>
      <rect id="Rectángulo_358899" data-name="Rectángulo 358899" width="7.474" height="5.079" transform="translate(294.18 3915.707)" fill="#45afac"/>
      <rect id="Rectángulo_358900" data-name="Rectángulo 358900" width="7.474" height="5.079" transform="translate(226.625 3924.328)" fill="#45afac"/>
      <rect id="Rectángulo_358901" data-name="Rectángulo 358901" width="7.474" height="5.079" transform="translate(240.136 3924.328)" fill="#45afac"/>
      <rect id="Rectángulo_358902" data-name="Rectángulo 358902" width="7.474" height="5.079" transform="translate(253.646 3924.328)" fill="#45afac"/>
      <rect id="Rectángulo_358903" data-name="Rectángulo 358903" width="7.474" height="5.079" transform="translate(226.625 3932.953)" fill="#45afac"/>
      <rect id="Rectángulo_358904" data-name="Rectángulo 358904" width="7.474" height="5.079" transform="translate(240.136 3932.953)" fill="#45afac"/>
      <rect id="Rectángulo_358905" data-name="Rectángulo 358905" width="7.474" height="5.079" transform="translate(253.646 3932.953)" fill="#45afac"/>
      <rect id="Rectángulo_358906" data-name="Rectángulo 358906" width="7.474" height="5.079" transform="translate(267.156 3924.328)" fill="#45afac"/>
      <rect id="Rectángulo_358907" data-name="Rectángulo 358907" width="7.474" height="5.079" transform="translate(280.67 3924.328)" fill="#45afac"/>
      <rect id="Rectángulo_358908" data-name="Rectángulo 358908" width="7.474" height="5.079" transform="translate(294.18 3924.328)" fill="#45afac"/>
      <rect id="Rectángulo_358909" data-name="Rectángulo 358909" width="33.441" height="11.403" transform="translate(267.156 3932.953)" fill="#348381"/>
      <path id="Trazado_756575" data-name="Trazado 756575" d="M119.346,682.079H108.44l5.453-3.9,5.453-3.9,5.456,3.9,5.453,3.9Z" transform="translate(111.56 3203.349)" fill="#348381"/>
      <path id="Trazado_756576" data-name="Trazado 756576" d="M197.754,733.423H164.7l16.527-4.132,16.527-4.132,16.527,4.132,16.527,4.132Z" transform="translate(73.431 3168.867)" fill="#348381"/>
    </g>
    <path id="Trazado_756577" data-name="Trazado 756577" d="M441.127,799.329l-7.29-4.209V797.7H407.88v3.113h25.957v2.727Z" transform="translate(-91.375 3121.454)" fill="#576b96"/>
    <g id="Grupo_1024078" data-name="Grupo 1024078">
      <path id="Trazado_756578" data-name="Trazado 756578" d="M616.166,733.349l-17.494-4.1-17.49-4.093-17.491,4.093-17.491,4.1h0v41.214h69.988V733.349Z" transform="translate(-185.116 3168.867)" fill="#57dbd8"/>
      <path id="Trazado_756579" data-name="Trazado 756579" d="M619.2,804.464H554.67V769.28H619.2Z" transform="translate(-190.856 3138.967)" fill="#45afac"/>
      <rect id="Rectángulo_358910" data-name="Rectángulo 358910" width="58.592" height="32.003" transform="translate(366.782 3911.427)" fill="#348381"/>
      <rect id="Rectángulo_358911" data-name="Rectángulo 358911" width="27.443" height="13.011" transform="translate(368.777 3930.42)" fill="#ffcdc8"/>
      <rect id="Rectángulo_358912" data-name="Rectángulo 358912" width="9.685" height="8.547" transform="translate(396.22 3934.883)" fill="#fe7062"/>
      <rect id="Rectángulo_358913" data-name="Rectángulo 358913" width="9.685" height="8.547" transform="translate(385.607 3921.873)" fill="#fe7062"/>
      <rect id="Rectángulo_358914" data-name="Rectángulo 358914" width="9.685" height="8.547" transform="translate(375.922 3921.873)" fill="#cb594e"/>
      <rect id="Rectángulo_358915" data-name="Rectángulo 358915" width="7.835" height="6.913" transform="translate(414.31 3936.518)" fill="#fe7062"/>
      <rect id="Rectángulo_358916" data-name="Rectángulo 358916" width="8.405" height="9.685" transform="translate(405.908 3933.746)" fill="#ffcdc8"/>
      <path id="Trazado_756580" data-name="Trazado 756580" d="M581.194,733.349H546.2l17.5-4.1,17.5-4.093,17.5,4.093,17.5,4.1Z" transform="translate(-185.116 3168.867)" fill="#348381"/>
    </g>
    <path id="Trazado_756581" data-name="Trazado 756581" d="M201.572,938.678H198.74v2.981h-.89V934.91h4.18v.728H198.74v2.314h2.833v.728Z" transform="translate(50.965 3026.717)" fill="#12263f"/>
    <path id="Trazado_756582" data-name="Trazado 756582" d="M216.026,940.879a1.786,1.786,0,0,1-.119-.529,1.908,1.908,0,0,1-1.428.622,1.763,1.763,0,0,1-1.215-.419,1.361,1.361,0,0,1-.474-1.063,1.415,1.415,0,0,1,.6-1.215,2.8,2.8,0,0,1,1.676-.432h.835v-.393a.968.968,0,0,0-.267-.716,1.087,1.087,0,0,0-.793-.268,1.256,1.256,0,0,0-.77.232.684.684,0,0,0-.309.561H212.9a1.182,1.182,0,0,1,.268-.725,1.828,1.828,0,0,1,.722-.554,2.434,2.434,0,0,1,1-.2,1.987,1.987,0,0,1,1.357.432,1.561,1.561,0,0,1,.509,1.192v2.308a2.783,2.783,0,0,0,.177,1.1v.074h-.9Zm-1.421-.654a1.514,1.514,0,0,0,.764-.209,1.24,1.24,0,0,0,.522-.542v-1.028h-.674q-1.576,0-1.576.922a.791.791,0,0,0,.267.632,1.034,1.034,0,0,0,.69.226Zm.793-6.465h1.038l-1.241,1.363h-.69l.9-1.363Z" transform="translate(40.84 3027.496)" fill="#12263f"/>
    <path id="Trazado_756583" data-name="Trazado 756583" d="M233.485,938.42a2.984,2.984,0,0,1-.529,1.847,1.688,1.688,0,0,1-1.418.7,1.742,1.742,0,0,1-1.47-.674l-.042.58h-.786V933.75h.857v2.656a1.737,1.737,0,0,1,1.431-.645,1.7,1.7,0,0,1,1.434.69,3.067,3.067,0,0,1,.522,1.892v.074Zm-.857-.1a2.32,2.32,0,0,0-.338-1.354,1.119,1.119,0,0,0-.973-.477,1.263,1.263,0,0,0-1.218.786v2.169a1.293,1.293,0,0,0,1.228.786,1.116,1.116,0,0,0,.96-.477,2.464,2.464,0,0,0,.342-1.437Z" transform="translate(29.692 3027.503)" fill="#12263f"/>
    <path id="Trazado_756584" data-name="Trazado 756584" d="M248.194,940.864a2.474,2.474,0,0,0-.422-.032,1.125,1.125,0,0,0-1.144.719v3.558h-.857v-5.015h.835l.013.58a1.336,1.336,0,0,1,1.2-.674.9.9,0,0,1,.38.064v.8Z" transform="translate(18.489 3023.268)" fill="#12263f"/>
    <path id="Trazado_756585" data-name="Trazado 756585" d="M255.74,935.116a.5.5,0,0,1,.129-.351.472.472,0,0,1,.377-.145.483.483,0,0,1,.38.145.5.5,0,0,1,.129.351.462.462,0,0,1-.509.487.48.48,0,0,1-.377-.139A.5.5,0,0,1,255.74,935.116Zm.928,6.346h-.857v-5.015h.857Z" transform="translate(11.732 3026.913)" fill="#12263f"/>
    <path id="Trazado_756586" data-name="Trazado 756586" d="M264.43,944.5a1.246,1.246,0,0,0,.8-.277.983.983,0,0,0,.38-.7h.812a1.587,1.587,0,0,1-.3.822,1.96,1.96,0,0,1-.728.622,2.1,2.1,0,0,1-.967.232,2.065,2.065,0,0,1-1.628-.683,2.722,2.722,0,0,1-.606-1.869V942.5a3.052,3.052,0,0,1,.267-1.3,2.069,2.069,0,0,1,.77-.886,2.2,2.2,0,0,1,1.189-.316,2.01,2.01,0,0,1,1.4.506,1.818,1.818,0,0,1,.6,1.312h-.812a1.192,1.192,0,0,0-.367-.8,1.144,1.144,0,0,0-.819-.313,1.2,1.2,0,0,0-1.012.47,2.214,2.214,0,0,0-.358,1.36v.161a2.163,2.163,0,0,0,.358,1.334,1.2,1.2,0,0,0,1.018.467Z" transform="translate(7.354 3023.268)" fill="#12263f"/>
    <path id="Trazado_756587" data-name="Trazado 756587" d="M281.1,945.122a1.783,1.783,0,0,1-.119-.528,1.908,1.908,0,0,1-1.428.622,1.763,1.763,0,0,1-1.215-.419,1.361,1.361,0,0,1-.474-1.063,1.414,1.414,0,0,1,.6-1.215,2.8,2.8,0,0,1,1.676-.432h.835v-.393a.968.968,0,0,0-.267-.715,1.087,1.087,0,0,0-.793-.268,1.25,1.25,0,0,0-.77.232.684.684,0,0,0-.309.561h-.86a1.181,1.181,0,0,1,.267-.725,1.829,1.829,0,0,1,.722-.554,2.436,2.436,0,0,1,1-.2,1.988,1.988,0,0,1,1.357.432,1.562,1.562,0,0,1,.509,1.193v2.308a2.783,2.783,0,0,0,.177,1.1v.074h-.9Zm-1.421-.654a1.516,1.516,0,0,0,.764-.209,1.24,1.24,0,0,0,.522-.542v-1.028h-.674q-1.576,0-1.576.922a.791.791,0,0,0,.267.632,1.033,1.033,0,0,0,.69.226Z" transform="translate(-3.259 3023.254)" fill="#12263f"/>
    <path id="Trazado_756588" data-name="Trazado 756588" d="M597.16,939.893h-2.827l-.635,1.766h-.918l2.578-6.749h.78l2.582,6.749h-.912l-.645-1.766Zm-2.559-.728H596.9l-1.151-3.155Z" transform="translate(-216.684 3026.717)" fill="#12263f"/>
    <path id="Trazado_756589" data-name="Trazado 756589" d="M614.7,940.879h-.857V933.76h.857Z" transform="translate(-230.957 3027.496)" fill="#12263f"/>
    <path id="Trazado_756590" data-name="Trazado 756590" d="M621.559,940.1l.023.558a1.854,1.854,0,0,1,1.489-.648,1.428,1.428,0,0,1,1.431.806,1.892,1.892,0,0,1,.651-.583,1.925,1.925,0,0,1,.948-.222q1.649,0,1.679,1.747v3.361h-.857v-3.31a1.144,1.144,0,0,0-.245-.8,1.083,1.083,0,0,0-.825-.268,1.134,1.134,0,0,0-.793.284,1.165,1.165,0,0,0-.367.767v3.326h-.861v-3.287a.956.956,0,0,0-1.07-1.092,1.146,1.146,0,0,0-1.154.719v3.661h-.857V940.1h.812Z" transform="translate(-235.64 3023.261)" fill="#12263f"/>
    <path id="Trazado_756591" data-name="Trazado 756591" d="M649.366,945.122a1.78,1.78,0,0,1-.119-.528,1.908,1.908,0,0,1-1.428.622,1.763,1.763,0,0,1-1.215-.419,1.361,1.361,0,0,1-.474-1.063,1.414,1.414,0,0,1,.6-1.215,2.8,2.8,0,0,1,1.676-.432h.835v-.393a.968.968,0,0,0-.267-.715,1.087,1.087,0,0,0-.793-.268,1.25,1.25,0,0,0-.77.232.684.684,0,0,0-.309.561h-.861a1.182,1.182,0,0,1,.267-.725,1.831,1.831,0,0,1,.722-.554,2.437,2.437,0,0,1,1-.2,1.988,1.988,0,0,1,1.357.432,1.562,1.562,0,0,1,.509,1.193v2.308a2.783,2.783,0,0,0,.177,1.1v.074h-.9Zm-1.421-.654a1.516,1.516,0,0,0,.764-.209,1.241,1.241,0,0,0,.522-.542v-1.028h-.674q-1.576,0-1.576.922a.791.791,0,0,0,.267.632,1.034,1.034,0,0,0,.69.226Z" transform="translate(-252.84 3023.254)" fill="#12263f"/>
    <path id="Trazado_756592" data-name="Trazado 756592" d="M664.14,944.5a1.246,1.246,0,0,0,.8-.277.983.983,0,0,0,.38-.7h.812a1.588,1.588,0,0,1-.3.822,1.96,1.96,0,0,1-.728.622,2.1,2.1,0,0,1-.967.232,2.066,2.066,0,0,1-1.628-.683,2.723,2.723,0,0,1-.606-1.869V942.5a3.052,3.052,0,0,1,.267-1.3,2.07,2.07,0,0,1,.77-.886,2.2,2.2,0,0,1,1.189-.316,2.009,2.009,0,0,1,1.4.506,1.819,1.819,0,0,1,.6,1.312h-.812a1.192,1.192,0,0,0-.367-.8,1.144,1.144,0,0,0-.819-.313,1.2,1.2,0,0,0-1.012.47,2.213,2.213,0,0,0-.358,1.36v.161a2.162,2.162,0,0,0,.358,1.334,1.2,1.2,0,0,0,1.018.467Z" transform="translate(-263.534 3023.268)" fill="#12263f"/>
    <path id="Trazado_756593" data-name="Trazado 756593" d="M679.628,940.973a2.185,2.185,0,0,1-1.66-.67,2.487,2.487,0,0,1-.638-1.792v-.158a3,3,0,0,1,.284-1.331,2.238,2.238,0,0,1,.8-.918,2.021,2.021,0,0,1,1.109-.332,1.883,1.883,0,0,1,1.521.645,2.79,2.79,0,0,1,.541,1.844v.358h-3.4a1.8,1.8,0,0,0,.432,1.2,1.369,1.369,0,0,0,1.054.458,1.483,1.483,0,0,0,.77-.187,1.934,1.934,0,0,0,.551-.49l.522.409a2.109,2.109,0,0,1-1.892.97Zm-.106-4.5a1.14,1.14,0,0,0-.87.377,1.83,1.83,0,0,0-.435,1.06h2.511v-.064a1.64,1.64,0,0,0-.351-1.012,1.077,1.077,0,0,0-.854-.358Zm.416-2.717h1.038l-1.241,1.363h-.69l.9-1.363Z" transform="translate(-273.984 3027.496)" fill="#12263f"/>
    <path id="Trazado_756594" data-name="Trazado 756594" d="M694.426,940.1l.029.632a1.822,1.822,0,0,1,1.5-.722q1.591,0,1.605,1.8v3.313H696.7V941.8a1.15,1.15,0,0,0-.248-.8.991.991,0,0,0-.757-.261,1.236,1.236,0,0,0-.732.222,1.494,1.494,0,0,0-.49.583v3.574h-.857V940.1h.812Z" transform="translate(-285.024 3023.26)" fill="#12263f"/>
  </g>
</svg>
