<svg xmlns="http://www.w3.org/2000/svg" width="549.045" height="248.308" viewBox="0 0 549.045 248.308">
  <g id="Grupo_1021717" data-name="Grupo 1021717" transform="translate(-220.478 -3757.619)">
    <g id="Grupo_1020209" data-name="Grupo 1020209" transform="translate(524.035 3845.354)">
      <rect id="Rectángulo_356357" data-name="Rectángulo 356357" width="80.133" height="25.919" transform="translate(12.495 43.708)" fill="#748fc8"/>
      <rect id="Rectángulo_356358" data-name="Rectángulo 356358" width="105.588" height="36.932" transform="translate(0 6.776)" fill="#576b96"/>
      <rect id="Rectángulo_356359" data-name="Rectángulo 356359" width="69.969" height="6.776" transform="translate(17.576)" fill="#748fc8"/>
      <g id="Grupo_1020203" data-name="Grupo 1020203" transform="translate(6.48 11.815)">
        <rect id="Rectángulo_356360" data-name="Rectángulo 356360" width="91.758" height="9.678" transform="translate(0.5 0.496)" fill="#d8e4fd"/>
        <path id="Trazado_751323" data-name="Trazado 751323" d="M1053.478,340.816V349.5H962.716v-8.682h90.762m1-1H961.72v10.674h92.755V339.82Z" transform="translate(-961.72 -339.82)" fill="#1a0f91"/>
      </g>
      <g id="Grupo_1020204" data-name="Grupo 1020204" transform="translate(6.48 27.76)">
        <rect id="Rectángulo_356361" data-name="Rectángulo 356361" width="91.758" height="9.678" transform="translate(0.5 0.5)" fill="#d8e4fd"/>
        <path id="Trazado_751324" data-name="Trazado 751324" d="M1053.478,390.276v8.682H962.716v-8.682h90.762m1-1H961.72v10.674h92.755V389.28Z" transform="translate(-961.72 -389.28)" fill="#1a0f91"/>
      </g>
      <g id="Grupo_1020205" data-name="Grupo 1020205" transform="translate(18.002 12.663)">
        <line id="Línea_1" data-name="Línea 1" y2="8.978" fill="none" stroke="#1a0f91" stroke-miterlimit="10" stroke-width="3.09"/>
        <line id="Línea_2" data-name="Línea 2" y2="8.978" transform="translate(11.606)" fill="none" stroke="#1a0f91" stroke-miterlimit="10" stroke-width="3.09"/>
        <line id="Línea_3" data-name="Línea 3" y2="8.978" transform="translate(23.208)" fill="none" stroke="#1a0f91" stroke-miterlimit="10" stroke-width="3.09"/>
        <line id="Línea_4" data-name="Línea 4" y2="8.978" transform="translate(34.814)" fill="none" stroke="#1a0f91" stroke-miterlimit="10" stroke-width="3.09"/>
        <line id="Línea_5" data-name="Línea 5" y2="8.978" transform="translate(46.419)" fill="none" stroke="#1a0f91" stroke-miterlimit="10" stroke-width="3.09"/>
        <line id="Línea_6" data-name="Línea 6" y2="8.978" transform="translate(58.025)" fill="none" stroke="#1a0f91" stroke-miterlimit="10" stroke-width="3.09"/>
        <line id="Línea_7" data-name="Línea 7" y2="8.978" transform="translate(69.627)" fill="none" stroke="#1a0f91" stroke-miterlimit="10" stroke-width="3.09"/>
      </g>
      <g id="Grupo_1020206" data-name="Grupo 1020206" transform="translate(18.002 28.608)">
        <line id="Línea_8" data-name="Línea 8" y2="8.978" fill="none" stroke="#1a0f91" stroke-miterlimit="10" stroke-width="3.09"/>
        <line id="Línea_9" data-name="Línea 9" y2="8.978" transform="translate(11.606)" fill="none" stroke="#1a0f91" stroke-miterlimit="10" stroke-width="3.09"/>
        <line id="Línea_10" data-name="Línea 10" y2="8.978" transform="translate(23.208)" fill="none" stroke="#1a0f91" stroke-miterlimit="10" stroke-width="3.09"/>
        <line id="Línea_11" data-name="Línea 11" y2="8.978" transform="translate(34.814)" fill="none" stroke="#1a0f91" stroke-miterlimit="10" stroke-width="3.09"/>
        <line id="Línea_12" data-name="Línea 12" y2="8.978" transform="translate(46.419)" fill="none" stroke="#1a0f91" stroke-miterlimit="10" stroke-width="3.09"/>
        <line id="Línea_13" data-name="Línea 13" y2="8.978" transform="translate(58.025)" fill="none" stroke="#1a0f91" stroke-miterlimit="10" stroke-width="3.09"/>
        <line id="Línea_14" data-name="Línea 14" y2="8.978" transform="translate(69.627)" fill="none" stroke="#1a0f91" stroke-miterlimit="10" stroke-width="3.09"/>
      </g>
      <g id="Grupo_1020207" data-name="Grupo 1020207" transform="translate(2.35 43.708)">
        <rect id="Rectángulo_356362" data-name="Rectángulo 356362" width="6.29" height="8.64" fill="#748fc8"/>
        <rect id="Rectángulo_356363" data-name="Rectángulo 356363" width="3.62" height="9.655" transform="translate(1.335 8.64)" fill="#576b96"/>
        <rect id="Rectángulo_356364" data-name="Rectángulo 356364" width="6.29" height="8.64" transform="translate(0 18.295)" fill="#748fc8"/>
      </g>
      <g id="Grupo_1020208" data-name="Grupo 1020208" transform="translate(97.055 43.708)">
        <rect id="Rectángulo_356365" data-name="Rectángulo 356365" width="6.29" height="8.64" fill="#748fc8"/>
        <rect id="Rectángulo_356366" data-name="Rectángulo 356366" width="3.62" height="9.655" transform="translate(1.331 8.64)" fill="#576b96"/>
        <rect id="Rectángulo_356367" data-name="Rectángulo 356367" width="6.29" height="8.64" transform="translate(0 18.295)" fill="#748fc8"/>
      </g>
      <rect id="Rectángulo_356368" data-name="Rectángulo 356368" width="8.64" height="14.104" transform="translate(19.949 55.523)" fill="#576b96"/>
      <rect id="Rectángulo_356369" data-name="Rectángulo 356369" width="14.23" height="5.21" transform="translate(17.154 47.454)" fill="#576b96"/>
      <rect id="Rectángulo_356370" data-name="Rectángulo 356370" width="8.64" height="14.104" transform="translate(48.473 55.523)" fill="#576b96"/>
      <rect id="Rectángulo_356371" data-name="Rectángulo 356371" width="14.23" height="5.21" transform="translate(45.678 47.454)" fill="#576b96"/>
      <rect id="Rectángulo_356372" data-name="Rectángulo 356372" width="8.64" height="14.104" transform="translate(76.555 55.523)" fill="#576b96"/>
      <rect id="Rectángulo_356373" data-name="Rectángulo 356373" width="14.23" height="5.21" transform="translate(73.76 47.454)" fill="#576b96"/>
    </g>
    <g id="Grupo_1020210" data-name="Grupo 1020210" transform="translate(704.279 3830.457)">
      <path id="Trazado_751325" data-name="Trazado 751325" d="M1506.159,262.349a2.359,2.359,0,0,1-.793,1.692,2.779,2.779,0,0,1-1.886.616,2.508,2.508,0,0,1-2.015-.861,3.53,3.53,0,0,1-.735-2.366v-.406a3.986,3.986,0,0,1,.338-1.692,2.543,2.543,0,0,1,.967-1.122,3.028,3.028,0,0,1,3.317.226,2.519,2.519,0,0,1,.813,1.734h-1.373a1.4,1.4,0,0,0-.358-.935,1.333,1.333,0,0,0-.941-.29,1.165,1.165,0,0,0-1.025.49,2.769,2.769,0,0,0-.351,1.525v.5a2.964,2.964,0,0,0,.326,1.576,1.146,1.146,0,0,0,1.031.5,1.35,1.35,0,0,0,.948-.29,1.3,1.3,0,0,0,.358-.9h1.373Z" transform="translate(-1500.73 -257.543)" fill="#12263f"/>
      <path id="Trazado_751326" data-name="Trazado 751326" d="M1521.645,263.985h-1.325V256.96h1.325Z" transform="translate(-1514.005 -256.96)" fill="#12263f"/>
      <path id="Trazado_751327" data-name="Trazado 751327" d="M1527.763,257.993a.658.658,0,0,1,.2-.49.85.85,0,0,1,1.08,0,.642.642,0,0,1,.2.49.652.652,0,0,1-.2.493.846.846,0,0,1-1.077,0,.651.651,0,0,1-.2-.493Zm1.4,6.228h-1.325v-4.948h1.325Z" transform="translate(-1519.046 -257.197)" fill="#12263f"/>
      <path id="Trazado_751328" data-name="Trazado 751328" d="M1537.406,268.252a2.436,2.436,0,0,1-1.773-.667,2.378,2.378,0,0,1-.683-1.78v-.129a3,3,0,0,1,.287-1.331,2.142,2.142,0,0,1,.816-.906,2.284,2.284,0,0,1,1.206-.319,2.052,2.052,0,0,1,1.6.642,2.593,2.593,0,0,1,.583,1.815v.538h-3.15a1.215,1.215,0,0,0,.387.777,1.162,1.162,0,0,0,.816.293,1.421,1.421,0,0,0,1.193-.555l.648.729a2.01,2.01,0,0,1-.806.658,2.625,2.625,0,0,1-1.125.235Zm-.151-4.065a.832.832,0,0,0-.638.268,1.365,1.365,0,0,0-.313.764h1.838v-.106a1,1,0,0,0-.239-.683A.847.847,0,0,0,1537.255,264.187Z" transform="translate(-1523.918 -261.134)" fill="#12263f"/>
      <path id="Trazado_751329" data-name="Trazado 751329" d="M1552.358,263.2l.042.571a1.731,1.731,0,0,1,1.422-.664,1.436,1.436,0,0,1,1.17.461,2.165,2.165,0,0,1,.393,1.38v3.2h-1.322v-3.166a.85.85,0,0,0-.184-.609.825.825,0,0,0-.609-.19.911.911,0,0,0-.838.477v3.488h-1.322V263.2h1.244Z" transform="translate(-1534.869 -261.127)" fill="#12263f"/>
      <path id="Trazado_751330" data-name="Trazado 751330" d="M1568.1,259.63v1.215h.845v.97h-.845v2.469a.586.586,0,0,0,.106.393.523.523,0,0,0,.4.119,2.027,2.027,0,0,0,.39-.032v1a2.668,2.668,0,0,1-.8.119,1.261,1.261,0,0,1-1.418-1.4v-2.666h-.722v-.97h.722v-1.215h1.322Z" transform="translate(-1544.999 -258.769)" fill="#12263f"/>
      <path id="Trazado_751331" data-name="Trazado 751331" d="M1579.2,268.252a2.436,2.436,0,0,1-1.773-.667,2.378,2.378,0,0,1-.683-1.78v-.129a3,3,0,0,1,.287-1.331,2.141,2.141,0,0,1,.816-.906,2.284,2.284,0,0,1,1.206-.319,2.052,2.052,0,0,1,1.6.642,2.593,2.593,0,0,1,.583,1.815v.538h-3.15a1.215,1.215,0,0,0,.387.777,1.162,1.162,0,0,0,.816.293,1.421,1.421,0,0,0,1.193-.555l.648.729a2.009,2.009,0,0,1-.806.658,2.624,2.624,0,0,1-1.125.235Zm-.151-4.065a.832.832,0,0,0-.638.268,1.365,1.365,0,0,0-.313.764h1.837v-.106a1,1,0,0,0-.239-.683A.846.846,0,0,0,1579.045,264.187Z" transform="translate(-1552.236 -261.134)" fill="#12263f"/>
      <path id="Trazado_751332" data-name="Trazado 751332" d="M1595.151,266.8a.424.424,0,0,0-.239-.38,2.649,2.649,0,0,0-.771-.248q-1.765-.372-1.767-1.5a1.351,1.351,0,0,1,.548-1.1,2.21,2.21,0,0,1,1.428-.442,2.358,2.358,0,0,1,1.505.445,1.4,1.4,0,0,1,.564,1.151H1595.1a.632.632,0,0,0-.184-.467.778.778,0,0,0-.571-.184.787.787,0,0,0-.516.152.474.474,0,0,0-.184.384.4.4,0,0,0,.209.355,2.121,2.121,0,0,0,.7.232,5.416,5.416,0,0,1,.832.222,1.369,1.369,0,0,1,1.048,1.331,1.294,1.294,0,0,1-.58,1.1,2.492,2.492,0,0,1-1.5.419,2.615,2.615,0,0,1-1.106-.222,1.859,1.859,0,0,1-.758-.609,1.406,1.406,0,0,1-.274-.835h1.254a.687.687,0,0,0,.261.538,1.025,1.025,0,0,0,.648.187.954.954,0,0,0,.574-.145.45.45,0,0,0,.193-.377Z" transform="translate(-1562.726 -261.141)" fill="#12263f"/>
      <path id="Trazado_751333" data-name="Trazado 751333" d="M1616.329,267.285h2.418v1.067h-4.107v-.806l2.328-3.079h-2.26V263.4h3.965v.78l-2.347,3.1Z" transform="translate(-1577.918 -261.324)" fill="#12263f"/>
      <path id="Trazado_751334" data-name="Trazado 751334" d="M1629.08,265.641a2.917,2.917,0,0,1,.284-1.312,2.1,2.1,0,0,1,.816-.893,2.388,2.388,0,0,1,1.238-.316,2.249,2.249,0,0,1,1.634.612,2.459,2.459,0,0,1,.706,1.664l.01.339a2.6,2.6,0,0,1-.635,1.828,2.465,2.465,0,0,1-3.414,0,2.633,2.633,0,0,1-.638-1.867v-.058Zm1.322.094a1.856,1.856,0,0,0,.264,1.08.953.953,0,0,0,1.509.006,2.015,2.015,0,0,0,.271-1.18,1.816,1.816,0,0,0-.271-1.07.873.873,0,0,0-.757-.38.863.863,0,0,0-.751.377,2.053,2.053,0,0,0-.264,1.17Z" transform="translate(-1587.703 -261.134)" fill="#12263f"/>
      <path id="Trazado_751335" data-name="Trazado 751335" d="M1647.3,263.2l.042.571a1.731,1.731,0,0,1,1.422-.664,1.436,1.436,0,0,1,1.17.461,2.166,2.166,0,0,1,.393,1.38v3.2H1649v-3.166a.85.85,0,0,0-.184-.609.826.826,0,0,0-.609-.19.911.911,0,0,0-.838.477v3.488h-1.322V263.2h1.245Z" transform="translate(-1599.202 -261.127)" fill="#12263f"/>
      <path id="Trazado_751336" data-name="Trazado 751336" d="M1664.873,268.152a1.428,1.428,0,0,1-.132-.445,1.592,1.592,0,0,1-1.248.535,1.748,1.748,0,0,1-1.206-.422,1.352,1.352,0,0,1-.477-1.061,1.391,1.391,0,0,1,.583-1.206,2.883,2.883,0,0,1,1.686-.426h.609v-.284a.8.8,0,0,0-.177-.548.686.686,0,0,0-.554-.206.785.785,0,0,0-.522.161.548.548,0,0,0-.19.438h-1.322a1.327,1.327,0,0,1,.264-.8,1.737,1.737,0,0,1,.751-.574,2.737,2.737,0,0,1,1.09-.21,2.157,2.157,0,0,1,1.451.461,1.612,1.612,0,0,1,.538,1.293v2.144a2.318,2.318,0,0,0,.2,1.067v.077h-1.335Zm-1.093-.919a1.134,1.134,0,0,0,.538-.129.836.836,0,0,0,.364-.351V265.9h-.493c-.661,0-1.012.229-1.057.687v.077a.512.512,0,0,0,.168.406.678.678,0,0,0,.477.161Z" transform="translate(-1609.881 -261.127)" fill="#12263f"/>
      <path id="Trazado_751337" data-name="Trazado 751337" d="M1688.073,263.394h-2.405l-.458,1.373h-1.46l2.479-6.657h1.27l2.492,6.657h-1.461l-.461-1.373Zm-2.034-1.112h1.663l-.838-2.492-.829,2.492Z" transform="translate(-1624.748 -257.739)" fill="#12263f"/>
    </g>
    <g id="Grupo_1020211" data-name="Grupo 1020211" transform="translate(704.37 3880.178)">
      <path id="Trazado_751338" data-name="Trazado 751338" d="M1506.439,416.579a2.359,2.359,0,0,1-.793,1.693,2.779,2.779,0,0,1-1.886.616,2.509,2.509,0,0,1-2.015-.861,3.53,3.53,0,0,1-.735-2.366v-.406a3.986,3.986,0,0,1,.339-1.692,2.543,2.543,0,0,1,.967-1.122,3.028,3.028,0,0,1,3.317.226,2.52,2.52,0,0,1,.813,1.734h-1.373a1.4,1.4,0,0,0-.358-.935,1.332,1.332,0,0,0-.941-.29,1.164,1.164,0,0,0-1.025.49,2.769,2.769,0,0,0-.351,1.525v.5a2.964,2.964,0,0,0,.326,1.576,1.146,1.146,0,0,0,1.031.5,1.35,1.35,0,0,0,.948-.29,1.3,1.3,0,0,0,.358-.9h1.374Z" transform="translate(-1501.01 -411.773)" fill="#12263f"/>
      <path id="Trazado_751339" data-name="Trazado 751339" d="M1521.915,418.215h-1.325V411.19h1.325Z" transform="translate(-1514.278 -411.19)" fill="#12263f"/>
      <path id="Trazado_751340" data-name="Trazado 751340" d="M1528.033,412.223a.658.658,0,0,1,.2-.49.742.742,0,0,1,.542-.193.734.734,0,0,1,.538.193.641.641,0,0,1,.2.49.652.652,0,0,1-.2.493.846.846,0,0,1-1.077,0,.651.651,0,0,1-.2-.493Zm1.4,6.228h-1.325V413.5h1.325Z" transform="translate(-1519.319 -411.427)" fill="#12263f"/>
      <path id="Trazado_751341" data-name="Trazado 751341" d="M1537.677,422.482a2.435,2.435,0,0,1-1.773-.667,2.377,2.377,0,0,1-.684-1.78v-.129a3,3,0,0,1,.287-1.331,2.142,2.142,0,0,1,.816-.906,2.285,2.285,0,0,1,1.206-.319,2.051,2.051,0,0,1,1.6.642,2.593,2.593,0,0,1,.583,1.815v.538h-3.15a1.216,1.216,0,0,0,.387.777,1.162,1.162,0,0,0,.816.293,1.421,1.421,0,0,0,1.193-.555l.648.729a1.988,1.988,0,0,1-.806.658,2.624,2.624,0,0,1-1.125.235Zm-.152-4.065a.832.832,0,0,0-.638.268,1.364,1.364,0,0,0-.313.764h1.838v-.106a.981.981,0,0,0-.239-.683A.847.847,0,0,0,1537.525,418.417Z" transform="translate(-1524.191 -415.364)" fill="#12263f"/>
      <path id="Trazado_751342" data-name="Trazado 751342" d="M1552.628,417.434l.042.571a1.732,1.732,0,0,1,1.422-.664,1.436,1.436,0,0,1,1.17.461,2.165,2.165,0,0,1,.393,1.38v3.2h-1.322v-3.166a.851.851,0,0,0-.184-.609.825.825,0,0,0-.609-.19.911.911,0,0,0-.838.477v3.488h-1.322V417.43h1.244Z" transform="translate(-1535.142 -415.357)" fill="#12263f"/>
      <path id="Trazado_751343" data-name="Trazado 751343" d="M1568.371,413.86v1.215h.845v.97h-.845v2.469a.586.586,0,0,0,.106.393.523.523,0,0,0,.4.119,2.027,2.027,0,0,0,.39-.032v1a2.668,2.668,0,0,1-.8.119,1.263,1.263,0,0,1-1.418-1.4v-2.666h-.722v-.97h.722v-1.215h1.322Z" transform="translate(-1545.272 -412.999)" fill="#12263f"/>
      <path id="Trazado_751344" data-name="Trazado 751344" d="M1579.467,422.482a2.436,2.436,0,0,1-1.773-.667,2.378,2.378,0,0,1-.683-1.78v-.129a3,3,0,0,1,.287-1.331,2.143,2.143,0,0,1,.816-.906,2.284,2.284,0,0,1,1.206-.319,2.051,2.051,0,0,1,1.6.642,2.593,2.593,0,0,1,.583,1.815v.538h-3.15a1.216,1.216,0,0,0,.387.777,1.162,1.162,0,0,0,.815.293,1.421,1.421,0,0,0,1.193-.555l.648.729a2.009,2.009,0,0,1-.806.658,2.624,2.624,0,0,1-1.125.235Zm-.152-4.065a.832.832,0,0,0-.638.268,1.365,1.365,0,0,0-.313.764h1.838v-.106a.981.981,0,0,0-.239-.683A.846.846,0,0,0,1579.315,418.417Z" transform="translate(-1552.509 -415.364)" fill="#12263f"/>
      <path id="Trazado_751345" data-name="Trazado 751345" d="M1595.42,421.029a.423.423,0,0,0-.239-.38,2.647,2.647,0,0,0-.771-.248q-1.765-.372-1.767-1.5a1.36,1.36,0,0,1,.548-1.1,2.209,2.209,0,0,1,1.428-.442,2.358,2.358,0,0,1,1.505.445,1.4,1.4,0,0,1,.564,1.151h-1.322a.631.631,0,0,0-.184-.467.778.778,0,0,0-.571-.184.787.787,0,0,0-.516.152.484.484,0,0,0-.184.384.4.4,0,0,0,.21.355,2.12,2.12,0,0,0,.7.232,5.424,5.424,0,0,1,.832.222,1.369,1.369,0,0,1,1.048,1.331,1.294,1.294,0,0,1-.58,1.1,2.493,2.493,0,0,1-1.5.419,2.615,2.615,0,0,1-1.106-.222,1.859,1.859,0,0,1-.758-.609,1.407,1.407,0,0,1-.274-.835h1.254a.687.687,0,0,0,.261.538,1.025,1.025,0,0,0,.648.187.947.947,0,0,0,.574-.145.451.451,0,0,0,.193-.377Z" transform="translate(-1562.999 -415.371)" fill="#12263f"/>
      <path id="Trazado_751346" data-name="Trazado 751346" d="M1616.6,421.515h2.418v1.067h-4.107v-.806l2.328-3.079h-2.26V417.63h3.965v.78l-2.347,3.1Z" transform="translate(-1578.191 -415.554)" fill="#12263f"/>
      <path id="Trazado_751347" data-name="Trazado 751347" d="M1629.35,419.871a2.918,2.918,0,0,1,.284-1.312,2.105,2.105,0,0,1,.816-.893,2.358,2.358,0,0,1,1.238-.316,2.249,2.249,0,0,1,1.634.613,2.459,2.459,0,0,1,.706,1.663l.01.339a2.6,2.6,0,0,1-.635,1.828,2.465,2.465,0,0,1-3.414,0,2.633,2.633,0,0,1-.638-1.867v-.058Zm1.322.093a1.855,1.855,0,0,0,.264,1.08.953.953,0,0,0,1.509.006,2.016,2.016,0,0,0,.271-1.18,1.817,1.817,0,0,0-.271-1.07.873.873,0,0,0-.757-.38.863.863,0,0,0-.751.377,2.052,2.052,0,0,0-.264,1.17Z" transform="translate(-1587.976 -415.364)" fill="#12263f"/>
      <path id="Trazado_751348" data-name="Trazado 751348" d="M1647.568,417.434l.042.571a1.731,1.731,0,0,1,1.422-.664,1.436,1.436,0,0,1,1.17.461,2.165,2.165,0,0,1,.393,1.38v3.2h-1.322v-3.166a.851.851,0,0,0-.184-.609.826.826,0,0,0-.609-.19.911.911,0,0,0-.838.477v3.488h-1.322V417.43h1.244Z" transform="translate(-1599.475 -415.357)" fill="#12263f"/>
      <path id="Trazado_751349" data-name="Trazado 751349" d="M1665.142,422.382a1.428,1.428,0,0,1-.132-.445,1.592,1.592,0,0,1-1.248.535,1.748,1.748,0,0,1-1.206-.422,1.351,1.351,0,0,1-.477-1.061,1.391,1.391,0,0,1,.583-1.206,2.884,2.884,0,0,1,1.686-.426h.609v-.284a.8.8,0,0,0-.177-.548.7.7,0,0,0-.554-.206.784.784,0,0,0-.522.161.548.548,0,0,0-.19.438h-1.322a1.327,1.327,0,0,1,.264-.8,1.736,1.736,0,0,1,.751-.574,2.736,2.736,0,0,1,1.09-.21,2.157,2.157,0,0,1,1.451.461,1.612,1.612,0,0,1,.538,1.293v2.144a2.32,2.32,0,0,0,.2,1.067v.077h-1.335Zm-1.093-.919a1.136,1.136,0,0,0,.539-.129.836.836,0,0,0,.364-.351v-.851h-.493c-.661,0-1.012.229-1.057.687v.077a.511.511,0,0,0,.168.406.678.678,0,0,0,.477.161Z" transform="translate(-1610.155 -415.357)" fill="#12263f"/>
      <path id="Trazado_751350" data-name="Trazado 751350" d="M1685.756,418.987V412.33h2.331a3.053,3.053,0,0,1,1.838.464,1.584,1.584,0,0,1,.625,1.36,1.5,1.5,0,0,1-.251.861,1.453,1.453,0,0,1-.7.548,1.415,1.415,0,0,1,.806.516,1.526,1.526,0,0,1,.293.951,1.752,1.752,0,0,1-.613,1.454,2.764,2.764,0,0,1-1.747.5h-2.589Zm1.373-3.869h1.016c.693-.013,1.038-.287,1.038-.829a.757.757,0,0,0-.264-.651,1.386,1.386,0,0,0-.828-.2h-.961Zm0,.97v1.8h1.177a1.132,1.132,0,0,0,.758-.232.8.8,0,0,0,.271-.638.837.837,0,0,0-.948-.928h-1.257Z" transform="translate(-1626.194 -411.962)" fill="#12263f"/>
    </g>
    <g id="Grupo_1020212" data-name="Grupo 1020212" transform="translate(704.292 3929.508)">
      <path id="Trazado_751351" data-name="Trazado 751351" d="M1506.2,569.6a2.359,2.359,0,0,1-.793,1.693,2.779,2.779,0,0,1-1.886.616,2.509,2.509,0,0,1-2.015-.861,3.529,3.529,0,0,1-.735-2.366v-.406a3.987,3.987,0,0,1,.339-1.693,2.542,2.542,0,0,1,.967-1.122,3.028,3.028,0,0,1,3.317.226,2.52,2.52,0,0,1,.812,1.734h-1.373a1.4,1.4,0,0,0-.358-.935,1.332,1.332,0,0,0-.941-.29,1.164,1.164,0,0,0-1.025.49,2.769,2.769,0,0,0-.351,1.525v.5a2.963,2.963,0,0,0,.326,1.576,1.146,1.146,0,0,0,1.031.5,1.35,1.35,0,0,0,.948-.29,1.3,1.3,0,0,0,.358-.9h1.373Z" transform="translate(-1500.77 -564.793)" fill="#12263f"/>
      <path id="Trazado_751352" data-name="Trazado 751352" d="M1521.675,571.235h-1.325V564.21h1.325Z" transform="translate(-1514.038 -564.21)" fill="#12263f"/>
      <path id="Trazado_751353" data-name="Trazado 751353" d="M1527.8,565.243a.658.658,0,0,1,.2-.49.742.742,0,0,1,.542-.193.734.734,0,0,1,.538.193.642.642,0,0,1,.2.49.652.652,0,0,1-.2.493.846.846,0,0,1-1.077,0,.652.652,0,0,1-.2-.493Zm1.4,6.228h-1.325v-4.949h1.325Z" transform="translate(-1519.086 -564.447)" fill="#12263f"/>
      <path id="Trazado_751354" data-name="Trazado 751354" d="M1537.447,575.5a2.436,2.436,0,0,1-1.773-.667,2.378,2.378,0,0,1-.683-1.78v-.129a3,3,0,0,1,.287-1.331,2.142,2.142,0,0,1,.816-.906,2.284,2.284,0,0,1,1.206-.319,2.051,2.051,0,0,1,1.6.641,2.592,2.592,0,0,1,.583,1.815v.538h-3.15a1.216,1.216,0,0,0,.387.777,1.162,1.162,0,0,0,.816.293,1.421,1.421,0,0,0,1.193-.554l.648.729a1.988,1.988,0,0,1-.806.658,2.624,2.624,0,0,1-1.125.235Zm-.152-4.065a.833.833,0,0,0-.638.268,1.367,1.367,0,0,0-.313.764h1.838v-.106a.98.98,0,0,0-.239-.683A.847.847,0,0,0,1537.295,571.437Z" transform="translate(-1523.958 -568.384)" fill="#12263f"/>
      <path id="Trazado_751355" data-name="Trazado 751355" d="M1552.4,570.453l.042.571a1.731,1.731,0,0,1,1.422-.664,1.436,1.436,0,0,1,1.17.461,2.165,2.165,0,0,1,.393,1.38v3.2H1554.1v-3.166a.851.851,0,0,0-.184-.609.825.825,0,0,0-.609-.19.911.911,0,0,0-.838.477V575.4h-1.322V570.45h1.244Z" transform="translate(-1534.909 -568.378)" fill="#12263f"/>
      <path id="Trazado_751356" data-name="Trazado 751356" d="M1568.131,566.88V568.1h.845v.97h-.845v2.469a.586.586,0,0,0,.106.393.523.523,0,0,0,.4.119,2.028,2.028,0,0,0,.39-.032v1a2.669,2.669,0,0,1-.8.119,1.263,1.263,0,0,1-1.418-1.4v-2.666h-.722v-.97h.722v-1.215h1.322Z" transform="translate(-1545.032 -566.019)" fill="#12263f"/>
      <path id="Trazado_751357" data-name="Trazado 751357" d="M1579.227,575.5a2.436,2.436,0,0,1-1.773-.667,2.378,2.378,0,0,1-.683-1.78v-.129a3,3,0,0,1,.287-1.331,2.142,2.142,0,0,1,.816-.906,2.284,2.284,0,0,1,1.206-.319,2.051,2.051,0,0,1,1.6.641,2.592,2.592,0,0,1,.583,1.815v.538h-3.15a1.216,1.216,0,0,0,.387.777,1.162,1.162,0,0,0,.816.293,1.421,1.421,0,0,0,1.193-.554l.648.729a2.009,2.009,0,0,1-.806.658,2.624,2.624,0,0,1-1.125.235Zm-.152-4.065a.833.833,0,0,0-.638.268,1.367,1.367,0,0,0-.313.764h1.838v-.106a.98.98,0,0,0-.239-.683A.847.847,0,0,0,1579.075,571.437Z" transform="translate(-1552.269 -568.384)" fill="#12263f"/>
      <path id="Trazado_751358" data-name="Trazado 751358" d="M1595.19,574.049a.423.423,0,0,0-.239-.38,2.643,2.643,0,0,0-.77-.248q-1.765-.372-1.767-1.5a1.36,1.36,0,0,1,.548-1.1,2.21,2.21,0,0,1,1.428-.442,2.358,2.358,0,0,1,1.506.445,1.4,1.4,0,0,1,.564,1.151h-1.322a.631.631,0,0,0-.184-.467.779.779,0,0,0-.571-.184.787.787,0,0,0-.516.152.484.484,0,0,0-.184.384.4.4,0,0,0,.21.355,2.122,2.122,0,0,0,.7.232,5.422,5.422,0,0,1,.832.222,1.369,1.369,0,0,1,1.048,1.331,1.294,1.294,0,0,1-.58,1.1,2.493,2.493,0,0,1-1.5.419,2.615,2.615,0,0,1-1.106-.222,1.859,1.859,0,0,1-.758-.609,1.407,1.407,0,0,1-.274-.835h1.254a.686.686,0,0,0,.261.538,1.025,1.025,0,0,0,.648.187.948.948,0,0,0,.574-.145.451.451,0,0,0,.193-.377Z" transform="translate(-1562.766 -568.391)" fill="#12263f"/>
      <path id="Trazado_751359" data-name="Trazado 751359" d="M1616.359,574.535h2.418V575.6h-4.107V574.8l2.328-3.079h-2.26V570.65h3.965v.78l-2.347,3.1Z" transform="translate(-1577.951 -568.574)" fill="#12263f"/>
      <path id="Trazado_751360" data-name="Trazado 751360" d="M1629.12,572.891a2.92,2.92,0,0,1,.284-1.312,2.1,2.1,0,0,1,.816-.893,2.359,2.359,0,0,1,1.238-.316,2.249,2.249,0,0,1,1.635.613,2.458,2.458,0,0,1,.706,1.663l.01.339a2.6,2.6,0,0,1-.635,1.828,2.465,2.465,0,0,1-3.414,0,2.634,2.634,0,0,1-.638-1.867v-.058Zm1.322.094a1.857,1.857,0,0,0,.264,1.08.953.953,0,0,0,1.509.006,2.017,2.017,0,0,0,.271-1.18,1.818,1.818,0,0,0-.271-1.07.873.873,0,0,0-.758-.38.863.863,0,0,0-.751.377,2.053,2.053,0,0,0-.264,1.17Z" transform="translate(-1587.743 -568.384)" fill="#12263f"/>
      <path id="Trazado_751361" data-name="Trazado 751361" d="M1647.338,570.453l.042.571a1.731,1.731,0,0,1,1.422-.664,1.436,1.436,0,0,1,1.17.461,2.165,2.165,0,0,1,.393,1.38v3.2h-1.322v-3.166a.85.85,0,0,0-.184-.609.825.825,0,0,0-.609-.19.911.911,0,0,0-.838.477V575.4h-1.322V570.45h1.244Z" transform="translate(-1599.242 -568.378)" fill="#12263f"/>
      <path id="Trazado_751362" data-name="Trazado 751362" d="M1664.913,575.4a1.422,1.422,0,0,1-.132-.445,1.592,1.592,0,0,1-1.248.535,1.747,1.747,0,0,1-1.206-.422,1.352,1.352,0,0,1-.477-1.061,1.391,1.391,0,0,1,.583-1.206,2.885,2.885,0,0,1,1.686-.426h.609v-.284a.8.8,0,0,0-.177-.548.7.7,0,0,0-.555-.206.784.784,0,0,0-.522.161.548.548,0,0,0-.19.438h-1.322a1.326,1.326,0,0,1,.264-.8,1.735,1.735,0,0,1,.751-.574,2.737,2.737,0,0,1,1.09-.21,2.157,2.157,0,0,1,1.451.461,1.612,1.612,0,0,1,.538,1.293v2.144a2.318,2.318,0,0,0,.2,1.067v.077h-1.335Zm-1.093-.919a1.135,1.135,0,0,0,.538-.129.836.836,0,0,0,.364-.351v-.851h-.493c-.661,0-1.012.229-1.057.687v.077a.511.511,0,0,0,.167.406.678.678,0,0,0,.477.161Z" transform="translate(-1609.922 -568.377)" fill="#12263f"/>
      <path id="Trazado_751363" data-name="Trazado 751363" d="M1690.339,569.6a2.359,2.359,0,0,1-.793,1.693,2.78,2.78,0,0,1-1.886.616,2.509,2.509,0,0,1-2.015-.861,3.53,3.53,0,0,1-.735-2.366v-.406a3.987,3.987,0,0,1,.339-1.693,2.543,2.543,0,0,1,.967-1.122,3.028,3.028,0,0,1,3.317.226,2.513,2.513,0,0,1,.813,1.734h-1.373a1.4,1.4,0,0,0-.358-.935,1.332,1.332,0,0,0-.941-.29,1.165,1.165,0,0,0-1.025.49,2.771,2.771,0,0,0-.351,1.525v.5a2.964,2.964,0,0,0,.326,1.576,1.146,1.146,0,0,0,1.032.5,1.35,1.35,0,0,0,.948-.29,1.3,1.3,0,0,0,.358-.9h1.373Z" transform="translate(-1625.547 -564.793)" fill="#12263f"/>
    </g>
    <path id="Trazado_751364" data-name="Trazado 751364" d="M1396.95,259.306l-7.163-4.136V257.7H1364.28v3.063h25.506v2.676Z" transform="translate(-703.989 3574.711)" fill="#576b96"/>
    <path id="Trazado_751365" data-name="Trazado 751365" d="M1396.95,412.929l-7.163-4.139v2.537H1364.28v3.059h25.506v2.679Z" transform="translate(-703.989 3470.613)" fill="#576b96"/>
    <path id="Trazado_751366" data-name="Trazado 751366" d="M1396.95,566.556l-7.163-4.136v2.534H1364.28v3.063h25.506v2.676Z" transform="translate(-703.989 3366.51)" fill="#576b96"/>
    <g id="Grupo_1020213" data-name="Grupo 1020213" transform="translate(549.274 3931)">
      <path id="Trazado_751367" data-name="Trazado 751367" d="M1048.844,574.17a2.367,2.367,0,0,1-.761,1.586,2.481,2.481,0,0,1-1.7.558,2.276,2.276,0,0,1-1.841-.825,3.315,3.315,0,0,1-.693-2.205v-.622a3.683,3.683,0,0,1,.322-1.589,2.407,2.407,0,0,1,.916-1.054,2.54,2.54,0,0,1,1.37-.367,2.346,2.346,0,0,1,1.657.577,2.4,2.4,0,0,1,.725,1.6h-.861a1.856,1.856,0,0,0-.484-1.125,1.462,1.462,0,0,0-1.041-.348,1.54,1.54,0,0,0-1.286.606,2.787,2.787,0,0,0-.464,1.725v.629a2.864,2.864,0,0,0,.442,1.68,1.427,1.427,0,0,0,1.235.625,1.644,1.644,0,0,0,1.093-.322,1.793,1.793,0,0,0,.506-1.125h.861Z" transform="translate(-1036.132 -569.389)" fill="#12263f"/>
      <path id="Trazado_751368" data-name="Trazado 751368" d="M1064.112,579.82a2.1,2.1,0,0,1-1.6-.645,2.39,2.39,0,0,1-.616-1.721V577.3a2.872,2.872,0,0,1,.274-1.28,2.159,2.159,0,0,1,.767-.883,1.925,1.925,0,0,1,1.067-.319,1.807,1.807,0,0,1,1.46.619,2.675,2.675,0,0,1,.522,1.773v.342h-3.266a1.728,1.728,0,0,0,.416,1.151,1.3,1.3,0,0,0,1.012.438,1.422,1.422,0,0,0,.738-.177,1.88,1.88,0,0,0,.529-.471l.5.393a2.02,2.02,0,0,1-1.818.932Zm-.1-4.32a1.1,1.1,0,0,0-.838.364,1.771,1.771,0,0,0-.419,1.019h2.415v-.061a1.56,1.56,0,0,0-.339-.974,1.038,1.038,0,0,0-.819-.345Z" transform="translate(-1048.363 -572.892)" fill="#12263f"/>
      <path id="Trazado_751369" data-name="Trazado 751369" d="M1078.32,574.917l.026.606a1.75,1.75,0,0,1,1.444-.693q1.528,0,1.541,1.725v3.185h-.825v-3.188a1.1,1.1,0,0,0-.239-.77.95.95,0,0,0-.729-.248,1.185,1.185,0,0,0-.7.213,1.43,1.43,0,0,0-.471.561v3.433h-.825v-4.82h.78Z" transform="translate(-1058.961 -572.899)" fill="#12263f"/>
      <path id="Trazado_751370" data-name="Trazado 751370" d="M1093.049,571.473v1.167h.9v.638h-.9v2.992a.667.667,0,0,0,.119.435.5.5,0,0,0,.409.145,2.069,2.069,0,0,0,.393-.055v.664a2.441,2.441,0,0,1-.632.087,1.026,1.026,0,0,1-.832-.335,1.433,1.433,0,0,1-.281-.948v-2.988h-.877v-.638h.877V571.47h.825Z" transform="translate(-1068.319 -570.622)" fill="#12263f"/>
      <path id="Trazado_751371" data-name="Trazado 751371" d="M1104.721,575.659a2.659,2.659,0,0,0-.406-.032,1.083,1.083,0,0,0-1.1.69v3.42h-.825v-4.82h.8l.013.558a1.287,1.287,0,0,1,1.148-.645.834.834,0,0,1,.364.061v.767Z" transform="translate(-1075.8 -572.899)" fill="#12263f"/>
      <path id="Trazado_751372" data-name="Trazado 751372" d="M1111.02,577.283a2.874,2.874,0,0,1,.277-1.273,2.039,2.039,0,0,1,1.908-1.18,2.035,2.035,0,0,1,1.593.68,2.616,2.616,0,0,1,.609,1.812v.058a2.865,2.865,0,0,1-.271,1.264,2.027,2.027,0,0,1-.77.87,2.154,2.154,0,0,1-1.151.313,2.017,2.017,0,0,1-1.586-.68,2.6,2.6,0,0,1-.609-1.8v-.058Zm.828.1a2.053,2.053,0,0,0,.371,1.286,1.2,1.2,0,0,0,1,.487,1.181,1.181,0,0,0,1-.493,2.264,2.264,0,0,0,.371-1.38,2.059,2.059,0,0,0-.377-1.286,1.2,1.2,0,0,0-1-.493,1.165,1.165,0,0,0-.983.487,2.242,2.242,0,0,0-.374,1.389Z" transform="translate(-1081.648 -572.899)" fill="#12263f"/>
      <path id="Trazado_751373" data-name="Trazado 751373" d="M1134.21,573.228a2.812,2.812,0,0,1,.526-1.783,1.788,1.788,0,0,1,2.718-.094V568.84h.825v6.841h-.758l-.039-.516a1.682,1.682,0,0,1-1.376.606,1.606,1.606,0,0,1-1.364-.687,2.858,2.858,0,0,1-.529-1.789v-.061Zm.825.094a2.143,2.143,0,0,0,.339,1.283,1.094,1.094,0,0,0,.935.464,1.205,1.205,0,0,0,1.144-.7v-2.215a1.208,1.208,0,0,0-1.135-.68,1.1,1.1,0,0,0-.945.468,2.357,2.357,0,0,0-.339,1.386Z" transform="translate(-1097.362 -568.84)" fill="#12263f"/>
      <path id="Trazado_751374" data-name="Trazado 751374" d="M1152.342,579.82a2.1,2.1,0,0,1-1.6-.645,2.39,2.39,0,0,1-.616-1.721V577.3a2.87,2.87,0,0,1,.274-1.28,2.159,2.159,0,0,1,.767-.883,1.925,1.925,0,0,1,1.067-.319,1.807,1.807,0,0,1,1.46.619,2.675,2.675,0,0,1,.522,1.773v.342h-3.266a1.728,1.728,0,0,0,.416,1.151,1.3,1.3,0,0,0,1.012.438,1.422,1.422,0,0,0,.738-.177,1.88,1.88,0,0,0,.529-.471l.5.393a2.02,2.02,0,0,1-1.818.932Zm-.1-4.32a1.1,1.1,0,0,0-.838.364,1.77,1.77,0,0,0-.419,1.019h2.415v-.061a1.559,1.559,0,0,0-.339-.974,1.038,1.038,0,0,0-.819-.345Z" transform="translate(-1108.15 -572.892)" fill="#12263f"/>
      <path id="Trazado_751375" data-name="Trazado 751375" d="M1022.057,613.1a1.192,1.192,0,0,0,.771-.268.933.933,0,0,0,.364-.667h.78a1.521,1.521,0,0,1-.284.79,1.874,1.874,0,0,1-.7.6,2.032,2.032,0,0,1-.928.222,1.988,1.988,0,0,1-1.567-.658,2.62,2.62,0,0,1-.58-1.8v-.139a2.921,2.921,0,0,1,.258-1.251,1.97,1.97,0,0,1,.741-.851,2.1,2.1,0,0,1,1.141-.3,1.924,1.924,0,0,1,1.348.487,1.743,1.743,0,0,1,.574,1.26h-.78a1.123,1.123,0,0,0-.355-.767,1.1,1.1,0,0,0-.787-.3,1.156,1.156,0,0,0-.974.451,2.135,2.135,0,0,0-.345,1.306v.155a2.081,2.081,0,0,0,.342,1.283,1.159,1.159,0,0,0,.98.451Z" transform="translate(-1019.91 -595.904)" fill="#12263f"/>
      <path id="Trazado_751376" data-name="Trazado 751376" d="M1034.71,611.233a2.874,2.874,0,0,1,.277-1.273,2.04,2.04,0,0,1,1.908-1.18,2.035,2.035,0,0,1,1.593.68,2.616,2.616,0,0,1,.609,1.812v.058a2.863,2.863,0,0,1-.271,1.264,2.027,2.027,0,0,1-.771.87,2.154,2.154,0,0,1-1.151.313,2.017,2.017,0,0,1-1.586-.68,2.616,2.616,0,0,1-.609-1.8v-.058Zm.828.1a2.053,2.053,0,0,0,.371,1.286,1.2,1.2,0,0,0,1,.487,1.181,1.181,0,0,0,1-.493,2.265,2.265,0,0,0,.371-1.38,2.06,2.06,0,0,0-.377-1.286,1.2,1.2,0,0,0-1-.493,1.165,1.165,0,0,0-.983.487,2.243,2.243,0,0,0-.374,1.389Z" transform="translate(-1029.939 -595.904)" fill="#12263f"/>
      <path id="Trazado_751377" data-name="Trazado 751377" d="M1052.3,608.867l.026.606a1.75,1.75,0,0,1,1.444-.693q1.528,0,1.541,1.725v3.185h-.825V610.5a1.1,1.1,0,0,0-.239-.771.95.95,0,0,0-.729-.248,1.185,1.185,0,0,0-.7.213,1.428,1.428,0,0,0-.471.561v3.433h-.825v-4.82h.78Z" transform="translate(-1041.33 -595.904)" fill="#12263f"/>
      <path id="Trazado_751378" data-name="Trazado 751378" d="M1069.5,612.4a.607.607,0,0,0-.251-.519,2.463,2.463,0,0,0-.877-.319,4.337,4.337,0,0,1-.993-.319,1.425,1.425,0,0,1-.545-.445,1.073,1.073,0,0,1-.177-.616,1.258,1.258,0,0,1,.5-1,1.953,1.953,0,0,1,1.28-.409,2.018,2.018,0,0,1,1.328.422,1.349,1.349,0,0,1,.509,1.083h-.828a.749.749,0,0,0-.287-.583,1.066,1.066,0,0,0-.722-.245,1.13,1.13,0,0,0-.7.2.626.626,0,0,0-.255.513.5.5,0,0,0,.235.451,2.978,2.978,0,0,0,.854.29,4.58,4.58,0,0,1,1,.329,1.46,1.46,0,0,1,.567.461,1.144,1.144,0,0,1,.184.658,1.226,1.226,0,0,1-.516,1.035,2.158,2.158,0,0,1-1.341.39,2.4,2.4,0,0,1-1.025-.206,1.658,1.658,0,0,1-.7-.574,1.38,1.38,0,0,1-.251-.8h.825a.856.856,0,0,0,.332.658,1.286,1.286,0,0,0,.816.242,1.336,1.336,0,0,0,.751-.19.584.584,0,0,0,.284-.506Z" transform="translate(-1051.474 -595.898)" fill="#12263f"/>
      <path id="Trazado_751379" data-name="Trazado 751379" d="M1081.04,611.233a2.874,2.874,0,0,1,.277-1.273,2.04,2.04,0,0,1,1.908-1.18,2.035,2.035,0,0,1,1.593.68,2.616,2.616,0,0,1,.609,1.812v.058a2.863,2.863,0,0,1-.271,1.264,2.027,2.027,0,0,1-.77.87,2.154,2.154,0,0,1-1.151.313,2.017,2.017,0,0,1-1.586-.68,2.6,2.6,0,0,1-.609-1.8v-.058Zm.828.1a2.052,2.052,0,0,0,.371,1.286,1.2,1.2,0,0,0,1,.487,1.181,1.181,0,0,0,1-.493,2.265,2.265,0,0,0,.371-1.38,2.059,2.059,0,0,0-.377-1.286,1.2,1.2,0,0,0-1-.493,1.165,1.165,0,0,0-.983.487,2.243,2.243,0,0,0-.374,1.389Z" transform="translate(-1061.333 -595.904)" fill="#12263f"/>
      <path id="Trazado_751380" data-name="Trazado 751380" d="M1098.9,609.621h-.825V602.78h.825Z" transform="translate(-1072.873 -591.839)" fill="#12263f"/>
      <path id="Trazado_751381" data-name="Trazado 751381" d="M1104.73,604.087a.5.5,0,0,1,.123-.338.466.466,0,0,1,.364-.139.46.46,0,0,1,.364.139.489.489,0,0,1,.126.338.445.445,0,0,1-.49.467.441.441,0,0,1-.487-.467Zm.89,6.1h-.825v-4.82h.825Z" transform="translate(-1077.386 -592.401)" fill="#12263f"/>
      <path id="Trazado_751382" data-name="Trazado 751382" d="M1110.96,607.178a2.812,2.812,0,0,1,.526-1.783,1.788,1.788,0,0,1,2.718-.093V602.79h.825v6.841h-.758l-.039-.516a1.682,1.682,0,0,1-1.376.606,1.606,1.606,0,0,1-1.364-.687,2.859,2.859,0,0,1-.529-1.789v-.061Zm.825.094a2.143,2.143,0,0,0,.339,1.283,1.094,1.094,0,0,0,.935.464,1.2,1.2,0,0,0,1.144-.7V606.1a1.208,1.208,0,0,0-1.135-.68,1.1,1.1,0,0,0-.945.467,2.357,2.357,0,0,0-.339,1.386Z" transform="translate(-1081.608 -591.845)" fill="#12263f"/>
      <path id="Trazado_751383" data-name="Trazado 751383" d="M1130.214,613.693a1.67,1.67,0,0,1-.116-.506,1.844,1.844,0,0,1-1.37.6,1.715,1.715,0,0,1-1.17-.4,1.307,1.307,0,0,1-.458-1.022,1.363,1.363,0,0,1,.574-1.17,2.7,2.7,0,0,1,1.609-.416h.8V610.4a.929.929,0,0,0-.258-.687,1.033,1.033,0,0,0-.761-.255,1.2,1.2,0,0,0-.738.222.656.656,0,0,0-.3.538h-.828a1.126,1.126,0,0,1,.255-.7,1.76,1.76,0,0,1,.693-.532,2.363,2.363,0,0,1,.964-.2,1.912,1.912,0,0,1,1.306.416,1.5,1.5,0,0,1,.49,1.148v2.218a2.712,2.712,0,0,0,.168,1.054v.071h-.864Zm-1.367-.629a1.465,1.465,0,0,0,.735-.2,1.188,1.188,0,0,0,.5-.522v-.99h-.645q-1.513,0-1.515.887a.754.754,0,0,0,.258.606.993.993,0,0,0,.664.219Z" transform="translate(-1092.544 -595.911)" fill="#12263f"/>
      <path id="Trazado_751384" data-name="Trazado 751384" d="M1144.407,613.1a1.192,1.192,0,0,0,.77-.268.933.933,0,0,0,.364-.667h.78a1.52,1.52,0,0,1-.284.79,1.874,1.874,0,0,1-.7.6,2.031,2.031,0,0,1-.928.222,1.988,1.988,0,0,1-1.567-.658,2.621,2.621,0,0,1-.58-1.8v-.139a2.92,2.92,0,0,1,.258-1.251,1.971,1.971,0,0,1,.741-.851,2.1,2.1,0,0,1,1.141-.3,1.923,1.923,0,0,1,1.348.487,1.743,1.743,0,0,1,.574,1.26h-.78a1.124,1.124,0,0,0-.355-.767,1.1,1.1,0,0,0-.787-.3,1.156,1.156,0,0,0-.974.451,2.135,2.135,0,0,0-.345,1.306v.155a2.081,2.081,0,0,0,.342,1.283,1.159,1.159,0,0,0,.98.451Z" transform="translate(-1102.817 -595.904)" fill="#12263f"/>
      <path id="Trazado_751385" data-name="Trazado 751385" d="M1157.75,604.087a.5.5,0,0,1,.122-.338.467.467,0,0,1,.364-.139.46.46,0,0,1,.364.139.49.49,0,0,1,.126.338.445.445,0,0,1-.49.467.441.441,0,0,1-.487-.467Zm.89,6.1h-.825v-4.82h.825Z" transform="translate(-1113.313 -592.401)" fill="#12263f"/>
      <path id="Trazado_751386" data-name="Trazado 751386" d="M1163.92,607.168a2.876,2.876,0,0,1,.277-1.273,2.04,2.04,0,0,1,1.908-1.18,2.035,2.035,0,0,1,1.593.68,2.615,2.615,0,0,1,.609,1.812v.058a2.865,2.865,0,0,1-.271,1.264,2.028,2.028,0,0,1-.771.87,2.153,2.153,0,0,1-1.151.313,2.017,2.017,0,0,1-1.586-.68,2.6,2.6,0,0,1-.609-1.8v-.058Zm.829.1a2.053,2.053,0,0,0,.371,1.286,1.2,1.2,0,0,0,1,.487,1.181,1.181,0,0,0,1-.493,2.264,2.264,0,0,0,.371-1.38,2.06,2.06,0,0,0-.377-1.286,1.2,1.2,0,0,0-1-.493,1.164,1.164,0,0,0-.983.487,2.242,2.242,0,0,0-.374,1.389Zm1.731-4.484h1l-1.193,1.309h-.664Z" transform="translate(-1117.494 -591.839)" fill="#12263f"/>
      <path id="Trazado_751387" data-name="Trazado 751387" d="M1181.51,608.867l.026.606a1.75,1.75,0,0,1,1.444-.693q1.528,0,1.541,1.725v3.185h-.825V610.5a1.1,1.1,0,0,0-.239-.771.95.95,0,0,0-.729-.248,1.186,1.186,0,0,0-.7.213,1.429,1.429,0,0,0-.471.561v3.433h-.825v-4.82h.78Z" transform="translate(-1128.885 -595.904)" fill="#12263f"/>
    </g>
    <g id="Grupo_1020215" data-name="Grupo 1020215" transform="translate(220.478 3757.619)">
      <path id="Trazado_751388" data-name="Trazado 751388" d="M26.241,41.06V24.19H11.96V83.23H92.367V41.06Z" transform="translate(-8.104 -16.392)" fill="#57dbd8"/>
      <g id="Grupo_1020214" data-name="Grupo 1020214" transform="translate(6.628 29.459)">
        <rect id="Rectángulo_356374" data-name="Rectángulo 356374" width="7.476" height="5.081" fill="#45afac"/>
        <rect id="Rectángulo_356375" data-name="Rectángulo 356375" width="7.476" height="5.081" transform="translate(13.514)" fill="#45afac"/>
        <rect id="Rectángulo_356376" data-name="Rectángulo 356376" width="7.476" height="5.081" transform="translate(27.028)" fill="#45afac"/>
        <rect id="Rectángulo_356377" data-name="Rectángulo 356377" width="7.476" height="5.081" transform="translate(40.542)" fill="#45afac"/>
        <rect id="Rectángulo_356378" data-name="Rectángulo 356378" width="7.476" height="5.081" transform="translate(54.056)" fill="#45afac"/>
        <rect id="Rectángulo_356379" data-name="Rectángulo 356379" width="7.476" height="5.081" transform="translate(67.57)" fill="#45afac"/>
        <rect id="Rectángulo_356380" data-name="Rectángulo 356380" width="7.476" height="5.081" transform="translate(0 8.627)" fill="#45afac"/>
        <rect id="Rectángulo_356381" data-name="Rectángulo 356381" width="7.476" height="5.081" transform="translate(13.514 8.627)" fill="#45afac"/>
        <rect id="Rectángulo_356382" data-name="Rectángulo 356382" width="7.476" height="5.081" transform="translate(27.028 8.627)" fill="#45afac"/>
        <rect id="Rectángulo_356383" data-name="Rectángulo 356383" width="7.476" height="5.081" transform="translate(40.542 8.627)" fill="#45afac"/>
        <rect id="Rectángulo_356384" data-name="Rectángulo 356384" width="7.476" height="5.081" transform="translate(54.056 8.627)" fill="#45afac"/>
        <rect id="Rectángulo_356385" data-name="Rectángulo 356385" width="7.476" height="5.081" transform="translate(67.57 8.627)" fill="#45afac"/>
        <rect id="Rectángulo_356386" data-name="Rectángulo 356386" width="7.476" height="5.081" transform="translate(0 17.254)" fill="#45afac"/>
        <rect id="Rectángulo_356387" data-name="Rectángulo 356387" width="7.476" height="5.081" transform="translate(13.514 17.254)" fill="#45afac"/>
        <rect id="Rectángulo_356388" data-name="Rectángulo 356388" width="7.476" height="5.081" transform="translate(27.028 17.254)" fill="#45afac"/>
        <rect id="Rectángulo_356389" data-name="Rectángulo 356389" width="7.476" height="5.081" transform="translate(0 25.88)" fill="#45afac"/>
        <rect id="Rectángulo_356390" data-name="Rectángulo 356390" width="7.476" height="5.081" transform="translate(13.514 25.88)" fill="#45afac"/>
        <rect id="Rectángulo_356391" data-name="Rectángulo 356391" width="7.476" height="5.081" transform="translate(27.028 25.88)" fill="#45afac"/>
        <rect id="Rectángulo_356392" data-name="Rectángulo 356392" width="7.476" height="5.081" transform="translate(40.542 17.254)" fill="#45afac"/>
        <rect id="Rectángulo_356393" data-name="Rectángulo 356393" width="7.476" height="5.081" transform="translate(54.056 17.254)" fill="#45afac"/>
        <rect id="Rectángulo_356394" data-name="Rectángulo 356394" width="7.476" height="5.081" transform="translate(67.57 17.254)" fill="#45afac"/>
      </g>
      <rect id="Rectángulo_356395" data-name="Rectángulo 356395" width="33.45" height="11.406" transform="translate(47.17 55.339)" fill="#348381"/>
      <path id="Trazado_751389" data-name="Trazado 751389" d="M10.909,7.8H0L5.455,3.9,10.909,0l5.455,3.9,5.455,3.9Z" fill="#348381"/>
      <path id="Trazado_751390" data-name="Trazado 751390" d="M89.323,59.139H56.26l16.532-4.133L89.323,50.87l16.532,4.136,16.532,4.133Z" transform="translate(-38.123 -34.471)" fill="#348381"/>
    </g>
    <path id="Trazado_751391" data-name="Trazado 751391" d="M332.7,125.05l-7.292-4.21v2.582H299.44v3.114H325.4v2.724Z" transform="translate(17.57 3675.734)" fill="#576b96"/>
    <g id="Grupo_1020217" data-name="Grupo 1020217" transform="translate(361.602 3774.018)">
      <g id="Grupo_1020216" data-name="Grupo 1020216">
        <path id="Trazado_751392" data-name="Trazado 751392" d="M507.742,59.065l-17.5-4.1-17.5-4.1-17.5,4.1-17.5,4.1h0v41.226h70.008V59.065Z" transform="translate(-437.76 -50.87)" fill="#57dbd8"/>
        <path id="Trazado_751393" data-name="Trazado 751393" d="M510.766,130.194H446.22V95h64.546Z" transform="translate(-443.493 -80.773)" fill="#45afac"/>
        <rect id="Rectángulo_356396" data-name="Rectángulo 356396" width="58.608" height="32.012" transform="translate(5.7 17.408)" fill="#348381"/>
        <rect id="Rectángulo_356397" data-name="Rectángulo 356397" width="27.45" height="13.014" transform="translate(7.692 36.406)" fill="#ffcdc8"/>
        <rect id="Rectángulo_356398" data-name="Rectángulo 356398" width="9.687" height="8.549" transform="translate(35.146 40.871)" fill="#fe7062"/>
        <rect id="Rectángulo_356399" data-name="Rectángulo 356399" width="9.687" height="8.549" transform="translate(24.53 27.857)" fill="#fe7062"/>
        <rect id="Rectángulo_356400" data-name="Rectángulo 356400" width="9.687" height="8.549" transform="translate(14.842 27.857)" fill="#cb594e"/>
        <rect id="Rectángulo_356401" data-name="Rectángulo 356401" width="7.837" height="6.915" transform="translate(53.241 42.506)" fill="#fe7062"/>
        <rect id="Rectángulo_356402" data-name="Rectángulo 356402" width="8.408" height="9.687" transform="translate(44.833 39.73)" fill="#ffcdc8"/>
      </g>
      <path id="Trazado_751394" data-name="Trazado 751394" d="M472.764,59.065h-35l17.5-4.1,17.5-4.1,17.5,4.1,17.5,4.1Z" transform="translate(-437.76 -50.87)" fill="#348381"/>
    </g>
    <g id="Grupo_1020219" data-name="Grupo 1020219" transform="translate(220.478 3836.34)">
      <path id="Trazado_751395" data-name="Trazado 751395" d="M26.241,316.27V299.4H11.96v59.04H92.367V316.27Z" transform="translate(-8.104 -291.602)" fill="#57dbd8"/>
      <g id="Grupo_1020218" data-name="Grupo 1020218" transform="translate(6.628 29.459)">
        <rect id="Rectángulo_356403" data-name="Rectángulo 356403" width="7.476" height="5.081" fill="#45afac"/>
        <rect id="Rectángulo_356404" data-name="Rectángulo 356404" width="7.476" height="5.081" transform="translate(13.514)" fill="#45afac"/>
        <rect id="Rectángulo_356405" data-name="Rectángulo 356405" width="7.476" height="5.081" transform="translate(27.028)" fill="#45afac"/>
        <rect id="Rectángulo_356406" data-name="Rectángulo 356406" width="7.476" height="5.081" transform="translate(40.542)" fill="#45afac"/>
        <rect id="Rectángulo_356407" data-name="Rectángulo 356407" width="7.476" height="5.081" transform="translate(54.056)" fill="#45afac"/>
        <rect id="Rectángulo_356408" data-name="Rectángulo 356408" width="7.476" height="5.081" transform="translate(67.57)" fill="#45afac"/>
        <rect id="Rectángulo_356409" data-name="Rectángulo 356409" width="7.476" height="5.081" transform="translate(0 8.627)" fill="#45afac"/>
        <rect id="Rectángulo_356410" data-name="Rectángulo 356410" width="7.476" height="5.081" transform="translate(13.514 8.627)" fill="#45afac"/>
        <rect id="Rectángulo_356411" data-name="Rectángulo 356411" width="7.476" height="5.081" transform="translate(27.028 8.627)" fill="#45afac"/>
        <rect id="Rectángulo_356412" data-name="Rectángulo 356412" width="7.476" height="5.081" transform="translate(40.542 8.627)" fill="#45afac"/>
        <rect id="Rectángulo_356413" data-name="Rectángulo 356413" width="7.476" height="5.081" transform="translate(54.056 8.627)" fill="#45afac"/>
        <rect id="Rectángulo_356414" data-name="Rectángulo 356414" width="7.476" height="5.081" transform="translate(67.57 8.627)" fill="#45afac"/>
        <rect id="Rectángulo_356415" data-name="Rectángulo 356415" width="7.476" height="5.081" transform="translate(0 17.254)" fill="#45afac"/>
        <rect id="Rectángulo_356416" data-name="Rectángulo 356416" width="7.476" height="5.081" transform="translate(13.514 17.254)" fill="#45afac"/>
        <rect id="Rectángulo_356417" data-name="Rectángulo 356417" width="7.476" height="5.081" transform="translate(27.028 17.254)" fill="#45afac"/>
        <rect id="Rectángulo_356418" data-name="Rectángulo 356418" width="7.476" height="5.081" transform="translate(0 25.88)" fill="#45afac"/>
        <rect id="Rectángulo_356419" data-name="Rectángulo 356419" width="7.476" height="5.081" transform="translate(13.514 25.88)" fill="#45afac"/>
        <rect id="Rectángulo_356420" data-name="Rectángulo 356420" width="7.476" height="5.081" transform="translate(27.028 25.88)" fill="#45afac"/>
        <rect id="Rectángulo_356421" data-name="Rectángulo 356421" width="7.476" height="5.081" transform="translate(40.542 17.254)" fill="#45afac"/>
        <rect id="Rectángulo_356422" data-name="Rectángulo 356422" width="7.476" height="5.081" transform="translate(54.056 17.254)" fill="#45afac"/>
        <rect id="Rectángulo_356423" data-name="Rectángulo 356423" width="7.476" height="5.081" transform="translate(67.57 17.254)" fill="#45afac"/>
      </g>
      <rect id="Rectángulo_356424" data-name="Rectángulo 356424" width="33.45" height="11.406" transform="translate(47.17 55.339)" fill="#348381"/>
      <path id="Trazado_751396" data-name="Trazado 751396" d="M10.909,283.008H0l5.455-3.9,5.455-3.9,5.455,3.9,5.455,3.9Z" transform="translate(0 -275.21)" fill="#348381"/>
      <path id="Trazado_751397" data-name="Trazado 751397" d="M89.323,334.349H56.26l16.532-4.136,16.532-4.133,16.532,4.133,16.532,4.136Z" transform="translate(-38.123 -309.681)" fill="#348381"/>
    </g>
    <path id="Trazado_751398" data-name="Trazado 751398" d="M332.7,400.26l-7.292-4.21v2.579H299.44v3.117H325.4v2.724Z" transform="translate(17.57 3479.246)" fill="#576b96"/>
    <path id="Trazado_751399" data-name="Trazado 751399" d="M739.16,400.26l-7.292-4.21v2.579H705.9v3.117h25.968v2.724Z" transform="translate(-257.855 3479.246)" fill="#576b96"/>
    <path id="Trazado_751400" data-name="Trazado 751400" d="M742.108,621.09l-8.134,2.179,1.825,1.825L717.44,643.453l2.2,2.2L738,627.3l1.928,1.928Z" transform="translate(-265.676 3316.754)" fill="#576b96"/>
    <path id="Trazado_751401" data-name="Trazado 751401" d="M742.318,145.278l-2.179-8.134-1.825,1.825L719.955,120.61l-2.205,2.2,18.363,18.359-1.928,1.928Z" transform="translate(-265.886 3675.891)" fill="#576b96"/>
    <g id="Grupo_1020221" data-name="Grupo 1020221" transform="translate(361.602 3852.74)">
      <g id="Grupo_1020220" data-name="Grupo 1020220">
        <path id="Trazado_751402" data-name="Trazado 751402" d="M507.742,334.275l-17.5-4.1-17.5-4.1-17.5,4.1-17.5,4.1h0V375.5h70.008V334.275Z" transform="translate(-437.76 -326.08)" fill="#57dbd8"/>
        <path id="Trazado_751403" data-name="Trazado 751403" d="M510.766,405.4H446.22V370.21h64.546Z" transform="translate(-443.493 -355.983)" fill="#45afac"/>
        <rect id="Rectángulo_356425" data-name="Rectángulo 356425" width="58.608" height="32.012" transform="translate(5.7 17.408)" fill="#348381"/>
        <rect id="Rectángulo_356426" data-name="Rectángulo 356426" width="27.45" height="13.014" transform="translate(7.692 36.406)" fill="#ffcdc8"/>
        <rect id="Rectángulo_356427" data-name="Rectángulo 356427" width="9.687" height="8.549" transform="translate(35.146 40.871)" fill="#fe7062"/>
        <rect id="Rectángulo_356428" data-name="Rectángulo 356428" width="9.687" height="8.549" transform="translate(24.53 27.857)" fill="#fe7062"/>
        <rect id="Rectángulo_356429" data-name="Rectángulo 356429" width="9.687" height="8.549" transform="translate(14.842 27.857)" fill="#cb594e"/>
        <rect id="Rectángulo_356430" data-name="Rectángulo 356430" width="7.837" height="6.915" transform="translate(53.241 42.506)" fill="#fe7062"/>
        <rect id="Rectángulo_356431" data-name="Rectángulo 356431" width="8.408" height="9.687" transform="translate(44.833 39.73)" fill="#ffcdc8"/>
      </g>
      <path id="Trazado_751404" data-name="Trazado 751404" d="M472.764,334.275h-35l17.5-4.1,17.5-4.1,17.5,4.1,17.5,4.1Z" transform="translate(-437.76 -326.08)" fill="#348381"/>
    </g>
    <g id="Grupo_1020223" data-name="Grupo 1020223" transform="translate(220.478 3915.063)">
      <path id="Trazado_751405" data-name="Trazado 751405" d="M26.241,591.48V574.61H11.96v59.04H92.367V591.48Z" transform="translate(-8.104 -566.812)" fill="#57dbd8"/>
      <g id="Grupo_1020222" data-name="Grupo 1020222" transform="translate(6.628 29.459)">
        <rect id="Rectángulo_356432" data-name="Rectángulo 356432" width="7.476" height="5.081" fill="#45afac"/>
        <rect id="Rectángulo_356433" data-name="Rectángulo 356433" width="7.476" height="5.081" transform="translate(13.514)" fill="#45afac"/>
        <rect id="Rectángulo_356434" data-name="Rectángulo 356434" width="7.476" height="5.081" transform="translate(27.028)" fill="#45afac"/>
        <rect id="Rectángulo_356435" data-name="Rectángulo 356435" width="7.476" height="5.081" transform="translate(40.542)" fill="#45afac"/>
        <rect id="Rectángulo_356436" data-name="Rectángulo 356436" width="7.476" height="5.081" transform="translate(54.056)" fill="#45afac"/>
        <rect id="Rectángulo_356437" data-name="Rectángulo 356437" width="7.476" height="5.081" transform="translate(67.57)" fill="#45afac"/>
        <rect id="Rectángulo_356438" data-name="Rectángulo 356438" width="7.476" height="5.081" transform="translate(0 8.627)" fill="#45afac"/>
        <rect id="Rectángulo_356439" data-name="Rectángulo 356439" width="7.476" height="5.081" transform="translate(13.514 8.627)" fill="#45afac"/>
        <rect id="Rectángulo_356440" data-name="Rectángulo 356440" width="7.476" height="5.081" transform="translate(27.028 8.627)" fill="#45afac"/>
        <rect id="Rectángulo_356441" data-name="Rectángulo 356441" width="7.476" height="5.081" transform="translate(40.542 8.627)" fill="#45afac"/>
        <rect id="Rectángulo_356442" data-name="Rectángulo 356442" width="7.476" height="5.081" transform="translate(54.056 8.627)" fill="#45afac"/>
        <rect id="Rectángulo_356443" data-name="Rectángulo 356443" width="7.476" height="5.081" transform="translate(67.57 8.627)" fill="#45afac"/>
        <rect id="Rectángulo_356444" data-name="Rectángulo 356444" width="7.476" height="5.081" transform="translate(0 17.254)" fill="#45afac"/>
        <rect id="Rectángulo_356445" data-name="Rectángulo 356445" width="7.476" height="5.081" transform="translate(13.514 17.254)" fill="#45afac"/>
        <rect id="Rectángulo_356446" data-name="Rectángulo 356446" width="7.476" height="5.081" transform="translate(27.028 17.254)" fill="#45afac"/>
        <rect id="Rectángulo_356447" data-name="Rectángulo 356447" width="7.476" height="5.081" transform="translate(0 25.88)" fill="#45afac"/>
        <rect id="Rectángulo_356448" data-name="Rectángulo 356448" width="7.476" height="5.081" transform="translate(13.514 25.88)" fill="#45afac"/>
        <rect id="Rectángulo_356449" data-name="Rectángulo 356449" width="7.476" height="5.081" transform="translate(27.028 25.88)" fill="#45afac"/>
        <rect id="Rectángulo_356450" data-name="Rectángulo 356450" width="7.476" height="5.081" transform="translate(40.542 17.254)" fill="#45afac"/>
        <rect id="Rectángulo_356451" data-name="Rectángulo 356451" width="7.476" height="5.081" transform="translate(54.056 17.254)" fill="#45afac"/>
        <rect id="Rectángulo_356452" data-name="Rectángulo 356452" width="7.476" height="5.081" transform="translate(67.57 17.254)" fill="#45afac"/>
      </g>
      <rect id="Rectángulo_356453" data-name="Rectángulo 356453" width="33.45" height="11.406" transform="translate(47.17 55.339)" fill="#348381"/>
      <path id="Trazado_751406" data-name="Trazado 751406" d="M10.909,558.218H0l5.455-3.9,5.455-3.9,5.455,3.9,5.455,3.9Z" transform="translate(0 -550.42)" fill="#348381"/>
      <path id="Trazado_751407" data-name="Trazado 751407" d="M89.323,609.559H56.26l16.532-4.136,16.532-4.133,16.532,4.133,16.532,4.136Z" transform="translate(-38.123 -584.891)" fill="#348381"/>
    </g>
    <path id="Trazado_751408" data-name="Trazado 751408" d="M332.7,675.47l-7.292-4.21v2.579H299.44v3.117H325.4v2.724Z" transform="translate(17.57 3282.758)" fill="#576b96"/>
    <g id="Grupo_1020225" data-name="Grupo 1020225" transform="translate(361.602 3931.461)">
      <g id="Grupo_1020224" data-name="Grupo 1020224">
        <path id="Trazado_751409" data-name="Trazado 751409" d="M507.742,609.485l-17.5-4.1-17.5-4.1-17.5,4.1-17.5,4.1h0V650.71h70.008V609.485Z" transform="translate(-437.76 -601.29)" fill="#57dbd8"/>
        <path id="Trazado_751410" data-name="Trazado 751410" d="M510.766,680.614H446.22V645.42h64.546Z" transform="translate(-443.493 -631.194)" fill="#45afac"/>
        <rect id="Rectángulo_356454" data-name="Rectángulo 356454" width="58.608" height="32.012" transform="translate(5.7 17.408)" fill="#348381"/>
        <rect id="Rectángulo_356455" data-name="Rectángulo 356455" width="27.45" height="13.014" transform="translate(7.692 36.406)" fill="#ffcdc8"/>
        <rect id="Rectángulo_356456" data-name="Rectángulo 356456" width="9.687" height="8.549" transform="translate(35.146 40.871)" fill="#fe7062"/>
        <rect id="Rectángulo_356457" data-name="Rectángulo 356457" width="9.687" height="8.549" transform="translate(24.53 27.857)" fill="#fe7062"/>
        <rect id="Rectángulo_356458" data-name="Rectángulo 356458" width="9.687" height="8.549" transform="translate(14.842 27.857)" fill="#cb594e"/>
        <rect id="Rectángulo_356459" data-name="Rectángulo 356459" width="7.837" height="6.915" transform="translate(53.241 42.506)" fill="#fe7062"/>
        <rect id="Rectángulo_356460" data-name="Rectángulo 356460" width="8.408" height="9.687" transform="translate(44.833 39.73)" fill="#ffcdc8"/>
      </g>
      <path id="Trazado_751411" data-name="Trazado 751411" d="M472.764,609.485h-35l17.5-4.1,17.5-4.1,17.5,4.1,17.5,4.1Z" transform="translate(-437.76 -601.29)" fill="#348381"/>
    </g>
    <g id="Grupo_1020226" data-name="Grupo 1020226" transform="translate(249.302 3998.709)">
      <path id="Trazado_751412" data-name="Trazado 751412" d="M93.133,814.819H90.3V817.8h-.89V811.05h4.181v.729H90.3v2.315h2.834v.729Z" transform="translate(-89.41 -810.676)" fill="#12263f"/>
      <path id="Trazado_751413" data-name="Trazado 751413" d="M107.587,817.011a1.786,1.786,0,0,1-.119-.529,1.909,1.909,0,0,1-1.428.622,1.763,1.763,0,0,1-1.215-.419,1.361,1.361,0,0,1-.474-1.064,1.415,1.415,0,0,1,.6-1.215,2.8,2.8,0,0,1,1.676-.432h.835v-.393a.968.968,0,0,0-.268-.716,1.087,1.087,0,0,0-.793-.268,1.256,1.256,0,0,0-.77.232.684.684,0,0,0-.309.561h-.861a1.182,1.182,0,0,1,.268-.725,1.83,1.83,0,0,1,.722-.555,2.435,2.435,0,0,1,1-.2,1.988,1.988,0,0,1,1.357.432,1.562,1.562,0,0,1,.509,1.193v2.308a2.784,2.784,0,0,0,.177,1.1v.074h-.9Zm-1.422-.654a1.515,1.515,0,0,0,.764-.21,1.241,1.241,0,0,0,.522-.542v-1.028h-.674q-1.576,0-1.576.922a.791.791,0,0,0,.268.632,1.034,1.034,0,0,0,.69.226Zm.793-6.467H108l-1.241,1.364h-.69l.9-1.364Z" transform="translate(-99.534 -809.89)" fill="#12263f"/>
      <path id="Trazado_751414" data-name="Trazado 751414" d="M125.046,814.561a2.984,2.984,0,0,1-.529,1.847,1.689,1.689,0,0,1-1.418.7,1.743,1.743,0,0,1-1.47-.674l-.042.58H120.8V809.89h.858v2.656a1.737,1.737,0,0,1,1.431-.645,1.7,1.7,0,0,1,1.435.69,3.068,3.068,0,0,1,.522,1.892v.074Zm-.858-.1a2.321,2.321,0,0,0-.339-1.354,1.12,1.12,0,0,0-.974-.477,1.264,1.264,0,0,0-1.219.787v2.17a1.293,1.293,0,0,0,1.228.787,1.116,1.116,0,0,0,.961-.477,2.464,2.464,0,0,0,.342-1.438Z" transform="translate(-110.681 -809.89)" fill="#12263f"/>
      <path id="Trazado_751415" data-name="Trazado 751415" d="M139.744,816.994a2.469,2.469,0,0,0-.422-.032,1.126,1.126,0,0,0-1.144.719v3.559h-.858v-5.016h.835l.013.58a1.336,1.336,0,0,1,1.2-.674.9.9,0,0,1,.38.064v.8Z" transform="translate(-121.875 -814.118)" fill="#12263f"/>
      <path id="Trazado_751416" data-name="Trazado 751416" d="M147.3,811.256a.5.5,0,0,1,.129-.351.472.472,0,0,1,.377-.145.484.484,0,0,1,.38.145.5.5,0,0,1,.129.351.462.462,0,0,1-.509.487.48.48,0,0,1-.377-.139A.5.5,0,0,1,147.3,811.256Zm.928,6.348h-.857v-5.016h.857Z" transform="translate(-128.638 -810.479)" fill="#12263f"/>
      <path id="Trazado_751417" data-name="Trazado 751417" d="M155.991,820.64a1.245,1.245,0,0,0,.8-.277.983.983,0,0,0,.38-.7h.812a1.587,1.587,0,0,1-.3.822,1.961,1.961,0,0,1-.729.622,2.1,2.1,0,0,1-.967.232,2.066,2.066,0,0,1-1.628-.683,2.724,2.724,0,0,1-.606-1.87v-.145a3.053,3.053,0,0,1,.268-1.3,2.071,2.071,0,0,1,.77-.887,2.2,2.2,0,0,1,1.19-.316,2.01,2.01,0,0,1,1.4.506,1.819,1.819,0,0,1,.6,1.312h-.812a1.192,1.192,0,0,0-.368-.8,1.144,1.144,0,0,0-.819-.313,1.2,1.2,0,0,0-1.012.471,2.214,2.214,0,0,0-.358,1.36v.161a2.163,2.163,0,0,0,.358,1.335,1.2,1.2,0,0,0,1.019.467Z" transform="translate(-133.015 -814.125)" fill="#12263f"/>
      <path id="Trazado_751418" data-name="Trazado 751418" d="M172.657,821.253a1.786,1.786,0,0,1-.119-.529,1.909,1.909,0,0,1-1.428.622,1.763,1.763,0,0,1-1.215-.419,1.361,1.361,0,0,1-.474-1.064,1.415,1.415,0,0,1,.6-1.215,2.8,2.8,0,0,1,1.676-.432h.835v-.393a.968.968,0,0,0-.268-.716,1.087,1.087,0,0,0-.793-.268,1.25,1.25,0,0,0-.77.232.684.684,0,0,0-.309.561h-.861a1.182,1.182,0,0,1,.268-.725,1.83,1.83,0,0,1,.722-.554,2.434,2.434,0,0,1,1-.2,1.988,1.988,0,0,1,1.357.432,1.562,1.562,0,0,1,.509,1.193v2.308a2.784,2.784,0,0,0,.177,1.1v.074h-.9Zm-1.422-.654a1.515,1.515,0,0,0,.764-.21,1.24,1.24,0,0,0,.522-.542v-1.028h-.674q-1.576,0-1.576.922a.791.791,0,0,0,.268.632,1.033,1.033,0,0,0,.69.226Z" transform="translate(-143.627 -814.132)" fill="#12263f"/>
    </g>
    <g id="Grupo_1020227" data-name="Grupo 1020227" transform="translate(376.618 3998.709)">
      <path id="Trazado_751419" data-name="Trazado 751419" d="M488.721,816.024h-2.827l-.635,1.767h-.919l2.579-6.751h.78l2.582,6.751h-.912l-.645-1.767Zm-2.56-.729h2.3l-1.151-3.156Z" transform="translate(-484.34 -810.669)" fill="#12263f"/>
      <path id="Trazado_751420" data-name="Trazado 751420" d="M506.258,817.011H505.4V809.89h.858Z" transform="translate(-498.611 -809.89)" fill="#12263f"/>
      <path id="Trazado_751421" data-name="Trazado 751421" d="M513.109,816.23l.023.558a1.854,1.854,0,0,1,1.489-.648,1.428,1.428,0,0,1,1.431.806,1.894,1.894,0,0,1,.651-.583,1.925,1.925,0,0,1,.948-.222q1.649,0,1.68,1.747v3.362h-.858v-3.311a1.145,1.145,0,0,0-.245-.8,1.084,1.084,0,0,0-.825-.268,1.134,1.134,0,0,0-.793.284,1.165,1.165,0,0,0-.367.767v3.327h-.861v-3.288a.957.957,0,0,0-1.07-1.093,1.146,1.146,0,0,0-1.154.719v3.662H512.3V816.23h.812Z" transform="translate(-503.286 -814.125)" fill="#12263f"/>
      <path id="Trazado_751422" data-name="Trazado 751422" d="M540.927,821.253a1.787,1.787,0,0,1-.119-.529,1.909,1.909,0,0,1-1.428.622,1.763,1.763,0,0,1-1.215-.419,1.361,1.361,0,0,1-.474-1.064,1.415,1.415,0,0,1,.6-1.215,2.8,2.8,0,0,1,1.676-.432h.835v-.393a.968.968,0,0,0-.268-.716,1.088,1.088,0,0,0-.793-.268,1.25,1.25,0,0,0-.771.232.684.684,0,0,0-.309.561H537.8a1.183,1.183,0,0,1,.268-.725,1.83,1.83,0,0,1,.722-.554,2.434,2.434,0,0,1,1-.2,1.988,1.988,0,0,1,1.357.432,1.562,1.562,0,0,1,.509,1.193v2.308a2.785,2.785,0,0,0,.177,1.1v.074h-.9Zm-1.422-.654a1.514,1.514,0,0,0,.764-.21,1.24,1.24,0,0,0,.522-.542v-1.028h-.674q-1.576,0-1.576.922a.791.791,0,0,0,.268.632,1.033,1.033,0,0,0,.69.226Z" transform="translate(-520.491 -814.132)" fill="#12263f"/>
      <path id="Trazado_751423" data-name="Trazado 751423" d="M555.691,820.64a1.245,1.245,0,0,0,.8-.277.982.982,0,0,0,.38-.7h.812a1.587,1.587,0,0,1-.3.822,1.961,1.961,0,0,1-.729.622,2.1,2.1,0,0,1-.967.232,2.066,2.066,0,0,1-1.628-.683,2.724,2.724,0,0,1-.606-1.87v-.145a3.053,3.053,0,0,1,.268-1.3,2.07,2.07,0,0,1,.771-.887,2.2,2.2,0,0,1,1.19-.316,2.01,2.01,0,0,1,1.4.506,1.819,1.819,0,0,1,.6,1.312h-.812a1.192,1.192,0,0,0-.367-.8,1.144,1.144,0,0,0-.819-.313,1.2,1.2,0,0,0-1.012.471,2.214,2.214,0,0,0-.358,1.36v.161a2.164,2.164,0,0,0,.358,1.335,1.2,1.2,0,0,0,1.019.467Z" transform="translate(-531.177 -814.125)" fill="#12263f"/>
      <path id="Trazado_751424" data-name="Trazado 751424" d="M571.189,817.1a2.186,2.186,0,0,1-1.66-.671,2.488,2.488,0,0,1-.638-1.792v-.158a3,3,0,0,1,.284-1.331,2.239,2.239,0,0,1,.8-.919,2.021,2.021,0,0,1,1.109-.332,1.884,1.884,0,0,1,1.522.645,2.79,2.79,0,0,1,.542,1.844v.358h-3.4a1.806,1.806,0,0,0,.432,1.2,1.37,1.37,0,0,0,1.054.458,1.484,1.484,0,0,0,.771-.187,1.938,1.938,0,0,0,.551-.49l.522.409a2.109,2.109,0,0,1-1.892.97Zm-.106-4.5a1.14,1.14,0,0,0-.87.377,1.831,1.831,0,0,0-.435,1.061h2.511v-.064a1.64,1.64,0,0,0-.351-1.012,1.077,1.077,0,0,0-.854-.358Zm.416-2.718h1.038l-1.241,1.364h-.69l.9-1.364Z" transform="translate(-541.633 -809.89)" fill="#12263f"/>
      <path id="Trazado_751425" data-name="Trazado 751425" d="M585.986,816.23l.029.632a1.823,1.823,0,0,1,1.5-.722q1.591,0,1.605,1.8v3.314h-.858v-3.32a1.15,1.15,0,0,0-.248-.8.99.99,0,0,0-.758-.261,1.237,1.237,0,0,0-.732.222,1.494,1.494,0,0,0-.49.583v3.575h-.858V816.23h.812Z" transform="translate(-552.671 -814.125)" fill="#12263f"/>
    </g>
  </g>
</svg>
