<svg xmlns="http://www.w3.org/2000/svg" xmlns:xlink="http://www.w3.org/1999/xlink" width="400" height="326" viewBox="0 0 400 326">
  <defs>
    <clipPath id="clip-path">
      <rect id="Rectángulo_358424" data-name="Rectángulo 358424" width="400" height="326" transform="translate(180 398)" fill="none"/>
    </clipPath>
    <clipPath id="clip-path-2">
      <rect id="Rectángulo_358423" data-name="Rectángulo 358423" width="332" height="299.937" fill="none"/>
    </clipPath>
    <clipPath id="clip-path-3">
      <rect id="Rectángulo_358419" data-name="Rectángulo 358419" width="9.615" height="4.885" fill="none"/>
    </clipPath>
    <clipPath id="clip-path-5">
      <rect id="Rectángulo_358421" data-name="Rectángulo 358421" width="14.616" height="13.987" fill="none"/>
    </clipPath>
    <clipPath id="clip-path-6">
      <rect id="Rectángulo_358422" data-name="Rectángulo 358422" width="13.62" height="20.171" fill="none"/>
    </clipPath>
  </defs>
  <g id="Enmascarar_grupo_998588" data-name="Enmascarar grupo 998588" transform="translate(-180 -398)" clip-path="url(#clip-path)">
    <g id="Grupo_1023919" data-name="Grupo 1023919" transform="translate(180 393.283)">
      <g id="Grupo_1023918" data-name="Grupo 1023918" transform="translate(34 17.716)" clip-path="url(#clip-path-2)">
        <path id="Trazado_755705" data-name="Trazado 755705" d="M3749.262,3196.839c.372,0,.708.348.863,1.051v1.789c-.155.7-.491,1.051-.873,1.051s-.708-.348-.872-1.051v-1.789c.163-.7.49-1.051.881-1.051" transform="translate(-3447.329 -2940.085)" fill="#d1dcf8"/>
        <path id="Trazado_755706" data-name="Trazado 755706" d="M3749.262,3003.181c.372,0,.708.7.863,2.1v3.574c-.155,1.4-.491,2.1-.873,2.1s-.708-.7-.872-2.1v-3.574c.163-1.407.49-2.1.881-2.1" transform="translate(-3447.329 -2761.98)" fill="#d1dcf8"/>
        <path id="Trazado_755707" data-name="Trazado 755707" d="M3749.262,2809.526c.372,0,.708.7.863,2.1v3.574c-.155,1.405-.491,2.1-.873,2.1s-.708-.7-.872-2.1v-3.574c.163-1.406.49-2.1.881-2.1" transform="translate(-3447.329 -2583.879)" fill="#d1dcf8"/>
        <path id="Trazado_755708" data-name="Trazado 755708" d="M3749.262,2615.872c.372,0,.708.7.863,2.1v3.574c-.155,1.4-.491,2.1-.873,2.1s-.708-.7-.872-2.1v-3.574c.163-1.406.49-2.1.881-2.1" transform="translate(-3447.329 -2405.778)" fill="#d1dcf8"/>
        <path id="Trazado_755709" data-name="Trazado 755709" d="M3710.8,2460.607c0-.373.7-.709,2.1-.863h2.66v2.661c-.154,1.406-.491,2.1-.872,2.1s-.709-.7-.872-2.1v-.917h-.916c-1.407-.163-2.1-.49-2.1-.881" transform="translate(-3412.766 -2262.19)" fill="#d1dcf8"/>
        <path id="Trazado_755710" data-name="Trazado 755710" d="M3575.285,2464.507c-.372,0-.709-.7-.863-2.1v-2.659h2.662c1.406.154,2.1.49,2.1.872s-.7.709-2.1.872h-.917v.916c-.164,1.407-.491,2.1-.882,2.1" transform="translate(-3287.342 -2262.19)" fill="#d1dcf8"/>
        <path id="Trazado_755711" data-name="Trazado 755711" d="M3579.185,2651.176c0,.372-.7.709-2.1.863h-2.66v-2.661c.155-1.406.491-2.1.873-2.1s.708.7.872,2.1v.916h.916c1.407.164,2.1.491,2.1.882" transform="translate(-3287.342 -2434.66)" fill="#d1dcf8"/>
        <path id="Trazado_755712" data-name="Trazado 755712" d="M3708.184,2685.739c0,.372-.5.708-1.5.863h-2.544c-1-.155-1.5-.491-1.5-.872s.5-.709,1.5-.872h2.544c1,.164,1.5.49,1.5.882" transform="translate(-3405.27 -2469.223)" fill="#d1dcf8"/>
        <path id="Trazado_755713" data-name="Trazado 755713" d="M3844.4,2647.276c.373,0,.708.7.863,2.1v2.659H3842.6c-1.406-.154-2.1-.491-2.1-.872s.7-.709,2.1-.873h.916v-.915c.164-1.408.491-2.1.882-2.1" transform="translate(-3532.047 -2434.66)" fill="#d1dcf8"/>
        <path id="Trazado_755714" data-name="Trazado 755714" d="M3878.958,2445.3c.372,0,.708.725.863,2.193v3.728c-.154,1.465-.491,2.191-.872,2.191s-.709-.725-.873-2.191V2447.5c.164-1.467.491-2.193.882-2.193" transform="translate(-3566.609 -2248.909)" fill="#d1dcf8"/>
        <path id="Trazado_755715" data-name="Trazado 755715" d="M3878.958,2243.331c.372,0,.708.725.863,2.192v3.728c-.154,1.465-.491,2.191-.872,2.191s-.709-.726-.873-2.191v-3.728c.164-1.467.491-2.192.882-2.192" transform="translate(-3566.609 -2063.158)" fill="#d1dcf8"/>
        <path id="Trazado_755716" data-name="Trazado 755716" d="M3878.958,2041.359c.372,0,.708.725.863,2.192v3.728c-.154,1.465-.491,2.191-.872,2.191s-.709-.725-.873-2.191v-3.728c.164-1.467.491-2.192.882-2.192" transform="translate(-3566.609 -1877.407)" fill="#d1dcf8"/>
        <path id="Trazado_755717" data-name="Trazado 755717" d="M3878.958,1839.387c.372,0,.708.725.863,2.192v3.728c-.154,1.465-.491,2.191-.872,2.191s-.709-.725-.873-2.191v-3.728c.164-1.467.491-2.192.882-2.192" transform="translate(-3566.609 -1691.656)" fill="#d1dcf8"/>
        <path id="Trazado_755718" data-name="Trazado 755718" d="M3878.958,1637.414c.372,0,.708.725.863,2.192v3.728c-.154,1.465-.491,2.191-.872,2.191s-.709-.725-.873-2.191v-3.728c.164-1.467.491-2.192.882-2.192" transform="translate(-3566.609 -1505.905)" fill="#d1dcf8"/>
        <path id="Trazado_755719" data-name="Trazado 755719" d="M3878.958,1435.442c.372,0,.708.725.863,2.192v3.728c-.154,1.465-.491,2.191-.872,2.191s-.709-.725-.873-2.191v-3.728c.164-1.467.491-2.192.882-2.192" transform="translate(-3566.609 -1320.154)" fill="#d1dcf8"/>
        <path id="Trazado_755720" data-name="Trazado 755720" d="M3878.958,1233.47c.372,0,.708.725.863,2.192v3.728c-.154,1.465-.491,2.191-.872,2.191s-.709-.726-.873-2.191v-3.728c.164-1.467.491-2.192.882-2.192" transform="translate(-3566.609 -1134.404)" fill="#d1dcf8"/>
        <path id="Trazado_755721" data-name="Trazado 755721" d="M3878.958,1031.5c.372,0,.708.725.863,2.192v3.727c-.154,1.466-.491,2.191-.872,2.191s-.709-.725-.873-2.191v-3.727c.164-1.467.491-2.192.882-2.192" transform="translate(-3566.609 -948.652)" fill="#d1dcf8"/>
        <path id="Trazado_755722" data-name="Trazado 755722" d="M3878.958,829.525c.372,0,.708.725.863,2.192v3.728c-.154,1.466-.491,2.191-.872,2.191s-.709-.725-.873-2.191v-3.728c.164-1.467.491-2.192.882-2.192" transform="translate(-3566.609 -762.901)" fill="#d1dcf8"/>
        <path id="Trazado_755723" data-name="Trazado 755723" d="M3878.958,627.552c.372,0,.708.725.863,2.192v3.728c-.154,1.466-.491,2.191-.872,2.191s-.709-.725-.873-2.191v-3.728c.164-1.467.491-2.192.882-2.192" transform="translate(-3566.609 -577.15)" fill="#d1dcf8"/>
        <path id="Trazado_755724" data-name="Trazado 755724" d="M3878.958,425.58c.372,0,.708.725.863,2.192V431.5c-.154,1.466-.491,2.191-.872,2.191s-.709-.725-.873-2.191v-3.728c.164-1.467.491-2.192.882-2.192" transform="translate(-3566.609 -391.399)" fill="#d1dcf8"/>
        <path id="Trazado_755725" data-name="Trazado 755725" d="M3840.5,266.157c0-.372.7-.709,2.1-.863h2.659v2.661c-.154,1.406-.49,2.1-.872,2.1s-.709-.7-.873-2.1v-.916h-.915c-1.407-.164-2.1-.491-2.1-.881" transform="translate(-3532.047 -243.987)" fill="#d1dcf8"/>
        <path id="Trazado_755726" data-name="Trazado 755726" d="M3648.1,266.157c0-.372.691-.709,2.088-.863h3.551c1.4.154,2.087.491,2.087.872s-.691.709-2.087.872h-3.551c-1.4-.164-2.088-.491-2.088-.881" transform="translate(-3355.103 -243.987)" fill="#d1dcf8"/>
        <path id="Trazado_755727" data-name="Trazado 755727" d="M3455.7,266.157c0-.372.691-.709,2.089-.863h3.551c1.4.154,2.087.491,2.087.872s-.691.709-2.087.872h-3.551c-1.4-.164-2.089-.491-2.089-.881" transform="translate(-3178.156 -243.987)" fill="#d1dcf8"/>
        <path id="Trazado_755728" data-name="Trazado 755728" d="M3263.3,266.157c0-.372.691-.709,2.088-.863h3.552c1.4.154,2.086.491,2.086.872s-.691.709-2.086.872h-3.552c-1.4-.164-2.088-.491-2.088-.881" transform="translate(-3001.212 -243.987)" fill="#d1dcf8"/>
        <path id="Trazado_755729" data-name="Trazado 755729" d="M3070.907,266.157c0-.372.691-.709,2.088-.863h3.551c1.4.154,2.087.491,2.087.872s-.691.709-2.087.872H3073c-1.4-.164-2.088-.491-2.088-.881" transform="translate(-2824.268 -243.987)" fill="#d1dcf8"/>
        <path id="Trazado_755730" data-name="Trazado 755730" d="M2878.51,266.157c0-.372.691-.709,2.088-.863h3.551c1.4.154,2.087.491,2.087.872s-.691.709-2.087.872H2880.6c-1.4-.164-2.088-.491-2.088-.881" transform="translate(-2647.323 -243.987)" fill="#d1dcf8"/>
        <path id="Trazado_755731" data-name="Trazado 755731" d="M2686.113,266.157c0-.372.691-.709,2.088-.863h3.551c1.4.154,2.087.491,2.087.872s-.691.709-2.087.872H2688.2c-1.4-.164-2.088-.491-2.088-.881" transform="translate(-2470.378 -243.987)" fill="#d1dcf8"/>
        <path id="Trazado_755732" data-name="Trazado 755732" d="M2493.715,266.157c0-.372.691-.709,2.088-.863h3.551c1.4.154,2.087.491,2.087.872s-.691.709-2.087.872H2495.8c-1.4-.164-2.088-.491-2.088-.881" transform="translate(-2293.432 -243.987)" fill="#d1dcf8"/>
        <path id="Trazado_755733" data-name="Trazado 755733" d="M2301.318,266.157c0-.372.691-.709,2.089-.863h3.551c1.4.154,2.087.491,2.087.872s-.691.709-2.087.872h-3.551c-1.4-.164-2.089-.491-2.089-.881" transform="translate(-2116.488 -243.987)" fill="#d1dcf8"/>
        <path id="Trazado_755734" data-name="Trazado 755734" d="M2108.921,266.157c0-.372.691-.709,2.088-.863h3.551c1.4.154,2.087.491,2.087.872s-.691.709-2.087.872h-3.551c-1.4-.164-2.088-.491-2.088-.881" transform="translate(-1939.543 -243.987)" fill="#d1dcf8"/>
        <path id="Trazado_755735" data-name="Trazado 755735" d="M1916.523,266.157c0-.372.691-.709,2.088-.863h3.551c1.4.154,2.087.491,2.087.872s-.691.709-2.087.872h-3.551c-1.4-.164-2.088-.491-2.088-.881" transform="translate(-1762.598 -243.987)" fill="#d1dcf8"/>
        <path id="Trazado_755736" data-name="Trazado 755736" d="M1724.126,266.157c0-.372.691-.709,2.088-.863h3.551c1.4.154,2.087.491,2.087.872s-.691.709-2.087.872h-3.551c-1.4-.164-2.088-.491-2.088-.881" transform="translate(-1585.653 -243.987)" fill="#d1dcf8"/>
        <path id="Trazado_755737" data-name="Trazado 755737" d="M1531.729,266.157c0-.372.691-.709,2.088-.863h3.551c1.4.154,2.087.491,2.087.872s-.691.709-2.087.872h-3.551c-1.4-.164-2.088-.491-2.088-.881" transform="translate(-1408.708 -243.987)" fill="#d1dcf8"/>
        <path id="Trazado_755738" data-name="Trazado 755738" d="M1339.332,266.157c0-.372.691-.709,2.088-.863h3.551c1.4.154,2.087.491,2.087.872s-.691.709-2.087.872h-3.551c-1.4-.164-2.088-.491-2.088-.881" transform="translate(-1231.764 -243.987)" fill="#d1dcf8"/>
        <path id="Trazado_755739" data-name="Trazado 755739" d="M1146.935,266.157c0-.372.691-.709,2.088-.863h3.551c1.4.154,2.087.491,2.087.872s-.691.709-2.087.872h-3.551c-1.4-.164-2.088-.491-2.088-.881" transform="translate(-1054.819 -243.987)" fill="#d1dcf8"/>
        <path id="Trazado_755740" data-name="Trazado 755740" d="M1002.294,266.157c0-.372.348-.709,1.051-.863h1.788c.7.154,1.051.491,1.051.872s-.348.709-1.051.872h-1.788c-.7-.164-1.051-.491-1.051-.881" transform="translate(-921.795 -243.987)" fill="#d1dcf8"/>
        <path id="Trazado_755741" data-name="Trazado 755741" d="M1176.546,824.417H997.581a8.883,8.883,0,0,1-8.883-8.883v-155.9a8.883,8.883,0,0,1,8.883-8.883h178.965a8.883,8.883,0,0,1,8.883,8.883v155.9a8.883,8.883,0,0,1-8.883,8.883" transform="translate(-909.291 -598.485)" fill="#dcdbef"/>
        <path id="Trazado_755742" data-name="Trazado 755742" d="M1029.815,853.941V696.864a4.993,4.993,0,0,1,4.992-4.992h180.141a4.993,4.993,0,0,1,4.993,4.993V853.941a4.993,4.993,0,0,1-4.993,4.993H1034.807a4.992,4.992,0,0,1-4.992-4.992" transform="translate(-947.105 -636.304)" fill="#fff"/>
        <path id="Trazado_755743" data-name="Trazado 755743" d="M1563.607,1935.342H1442.454a1.463,1.463,0,0,1-1.463-1.463v-8.059a1.463,1.463,0,0,1,1.463-1.463h121.153a1.464,1.464,0,0,1,1.463,1.463v8.059a1.463,1.463,0,0,1-1.463,1.463" transform="translate(-1325.258 -1769.802)" fill="#dcdbef"/>
        <path id="Trazado_755744" data-name="Trazado 755744" d="M3261.155,790.768a2.729,2.729,0,1,1-2.734-2.734,2.734,2.734,0,0,1,2.734,2.734" transform="translate(-2994.216 -724.743)" fill="#fe7062"/>
        <path id="Trazado_755745" data-name="Trazado 755745" d="M3160.971,790.768a2.729,2.729,0,1,1-2.734-2.734,2.734,2.734,0,0,1,2.734,2.734" transform="translate(-2902.078 -724.743)" fill="#ffd964"/>
        <path id="Trazado_755746" data-name="Trazado 755746" d="M3060.788,790.78a2.729,2.729,0,1,1-2.734-2.734,2.734,2.734,0,0,1,2.734,2.734" transform="translate(-2809.941 -724.754)" fill="#7cd194"/>
        <rect id="Rectángulo_358413" data-name="Rectángulo 358413" width="22.454" height="64.084" transform="translate(195.322 77.908)" fill="#ffab90"/>
        <rect id="Rectángulo_358414" data-name="Rectángulo 358414" width="75.669" height="64.084" transform="translate(129.365 77.908)" fill="#fec9ac"/>
        <path id="Trazado_755747" data-name="Trazado 755747" d="M1999.019,986.932,1991.1,978l-7.921,8.93V970.023h15.842Z" transform="translate(-1823.898 -892.116)" fill="#4a5258"/>
        <path id="Trazado_755748" data-name="Trazado 755748" d="M1711.125,1604.926v6.308a.731.731,0,0,1-.734.733h-12.983a.731.731,0,0,1-.734-.733v-6.308a.732.732,0,0,1,.734-.734h12.983a.732.732,0,0,1,.734.734" transform="translate(-1560.407 -1475.351)" fill="#fff"/>
        <path id="Trazado_755749" data-name="Trazado 755749" d="M2281.106,1576.9h-2.233v3.813a.2.2,0,0,1-.2.207h-2.263a.2.2,0,0,1-.2-.207V1576.9h-2.233a.206.206,0,0,1-.155-.34l3.569-4.1a.2.2,0,0,1,.31,0l3.565,4.1a.206.206,0,0,1-.155.34" transform="translate(-2091.151 -1446.101)" fill="#4a5258"/>
        <path id="Trazado_755750" data-name="Trazado 755750" d="M2389.453,1576.9h-2.233v3.813a.2.2,0,0,1-.2.207h-2.263a.2.2,0,0,1-.2-.207V1576.9h-2.233a.206.206,0,0,1-.156-.34l3.569-4.1a.205.205,0,0,1,.311,0l3.564,4.1a.206.206,0,0,1-.155.34" transform="translate(-2190.796 -1446.101)" fill="#4a5258"/>
        <rect id="Rectángulo_358415" data-name="Rectángulo 358415" width="109.095" height="2.363" transform="translate(123.225 174.082)" fill="#dcdbef"/>
        <rect id="Rectángulo_358416" data-name="Rectángulo 358416" width="109.095" height="2.363" transform="translate(123.225 184.144)" fill="#dcdbef"/>
        <rect id="Rectángulo_358417" data-name="Rectángulo 358417" width="109.095" height="2.363" transform="translate(123.225 194.205)" fill="#dcdbef"/>
        <rect id="Rectángulo_358418" data-name="Rectángulo 358418" width="65.449" height="2.363" transform="translate(123.226 204.267)" fill="#dcdbef"/>
        <path id="Trazado_755751" data-name="Trazado 755751" d="M246.222,3534.784a6.6,6.6,0,0,0,4.825,2.183c4.209.018,3.962-2.958,4.667-4.455v-.017c.018-.124.035-1.426.053-2.87.035-1.427.07-3.011.106-3.751a38.181,38.181,0,0,1-9.615-1.092v9.791Z" transform="translate(-226.447 -3241.689)" fill="#fec9ac"/>
        <g id="Grupo_1023908" data-name="Grupo 1023908" transform="translate(19.811 283.093)" opacity="0.5">
          <g id="Grupo_1023907" data-name="Grupo 1023907">
            <g id="Grupo_1023906" data-name="Grupo 1023906" clip-path="url(#clip-path-3)">
              <path id="Trazado_755752" data-name="Trazado 755752" d="M246.661,3524.782v2.325a6.973,6.973,0,0,0,.986.757,8.946,8.946,0,0,0,1.338.74,13.275,13.275,0,0,0,5.23,1.057c.652.018,1.3,0,1.955-.035.035-1.427.07-3.011.106-3.751a38.181,38.181,0,0,1-9.615-1.092" transform="translate(-246.661 -3524.782)" fill="#ffab90"/>
            </g>
          </g>
        </g>
        <path id="Trazado_755753" data-name="Trazado 755753" d="M202.861,3594.538a1.4,1.4,0,0,0,1.281.845h27.307a.524.524,0,0,0,.525-.516,5.332,5.332,0,0,0-.818-2.837,5.022,5.022,0,0,0-2.206-1.957c-4.812-2.108-10.033-8.37-13.413-6.493a1.344,1.344,0,0,0-.534.614v.018c-.658,1.387-.427,4.163-4.341,4.145a5.324,5.324,0,0,1-4.111-2.049c-.543-.569-.855-1.048-1.182-1.02a7.733,7.733,0,0,0-2.508,9.25" transform="translate(-185.958 -3295.445)" fill="#2e363a"/>
        <path id="Trazado_755754" data-name="Trazado 755754" d="M582.709,3534.784a6.6,6.6,0,0,0,4.825,2.183c4.209.018,3.962-2.958,4.667-4.455v-.017c.017-.124.035-1.426.053-2.87.035-1.427.071-3.011.106-3.751a38.18,38.18,0,0,1-9.615-1.092v9.791Z" transform="translate(-535.909 -3241.689)" fill="#fec9ac"/>
        <g id="Grupo_1023911" data-name="Grupo 1023911" transform="translate(46.835 283.093)" opacity="0.5">
          <g id="Grupo_1023910" data-name="Grupo 1023910">
            <g id="Grupo_1023909" data-name="Grupo 1023909" clip-path="url(#clip-path-3)">
              <path id="Trazado_755755" data-name="Trazado 755755" d="M583.148,3524.782v2.325a6.969,6.969,0,0,0,.986.757,8.945,8.945,0,0,0,1.338.74,13.276,13.276,0,0,0,5.23,1.057c.651.018,1.3,0,1.955-.035.035-1.427.071-3.011.106-3.751a38.181,38.181,0,0,1-9.615-1.092" transform="translate(-583.148 -3524.782)" fill="#ffab90"/>
            </g>
          </g>
        </g>
        <path id="Trazado_755756" data-name="Trazado 755756" d="M539.349,3594.538a1.4,1.4,0,0,0,1.281.845h27.307a.524.524,0,0,0,.525-.516,5.332,5.332,0,0,0-.818-2.837,5.023,5.023,0,0,0-2.206-1.957c-4.812-2.108-10.033-8.37-13.413-6.493a1.345,1.345,0,0,0-.534.614v.018c-.658,1.387-.427,4.163-4.341,4.145a5.324,5.324,0,0,1-4.111-2.049c-.543-.569-.855-1.048-1.182-1.02a7.733,7.733,0,0,0-2.508,9.25" transform="translate(-495.421 -3295.445)" fill="#3a4146"/>
        <path id="Trazado_755757" data-name="Trazado 755757" d="M21.784,1752.549V1762.6S2.962,1759.567.4,1750.5c-1.284-4.485.767-9.069,3.184-12.57.383-.534.767-1.051,1.15-1.534v-.017A34.947,34.947,0,0,1,8.9,1731.91l5.168,3.768s5.852,5.835,5.235,7.385a22.314,22.314,0,0,1-1.55,2.834c-.834,1.367-1.667,2.6-1.667,2.6Z" transform="translate(0 -1592.811)" fill="#fec9ac"/>
        <g id="Grupo_1023914" data-name="Grupo 1023914" transform="translate(4.73 139.099)" opacity="0.5">
          <g id="Grupo_1023913" data-name="Grupo 1023913">
            <g id="Grupo_1023912" data-name="Grupo 1023912" clip-path="url(#clip-path-5)">
              <path id="Trazado_755758" data-name="Trazado 755758" d="M73.457,1743.063a22.318,22.318,0,0,1-1.55,2.834c-3.651-.1-13.02-6.751-13.02-9.5v-.017a34.937,34.937,0,0,1,4.168-4.468l5.168,3.768s5.851,5.835,5.235,7.385" transform="translate(-58.887 -1731.91)" fill="#ffab90"/>
            </g>
          </g>
        </g>
        <path id="Trazado_755759" data-name="Trazado 755759" d="M937.18,1310.277a164.781,164.781,0,0,1-3.984,16.037c-3.2,10.553-8.252,22.739-14.837,24.573-3.267.9-7.719-2.334-10.8-5.135a46.071,46.071,0,0,1-3.651-3.668l7.919-13.57,1.7-2.934c.334.216,3.034,2.484,4,3.3.217.184.35.3.35.3s11.686-20.839,11.686-21.105-1.4-9.019.667-8.752c2.084.267,2.484,3.668,2.484,3.668s4.068-10.886,6.735-10.219c2.6.65-3.018,8.152-3.318,8.535,4.118-2.1,7.1,6.168,1.05,8.969" transform="translate(-831.308 -1188.917)" fill="#fec9ac"/>
        <g id="Grupo_1023917" data-name="Grupo 1023917" transform="translate(72.597 136.665)" opacity="0.5">
          <g id="Grupo_1023916" data-name="Grupo 1023916">
            <g id="Grupo_1023915" data-name="Grupo 1023915" clip-path="url(#clip-path-6)">
              <path id="Trazado_755760" data-name="Trazado 755760" d="M917.525,1704.907a18.738,18.738,0,0,1-1.15,1.834,13.28,13.28,0,0,0-1.217,2.935c-.517,1.733-.8,3.534-1.267,5.285a11.718,11.718,0,0,1-2.417,4.834,5.994,5.994,0,0,1-3.918,1.984,46.1,46.1,0,0,1-3.651-3.668l7.919-13.57,1.7-2.934c.333.216,3.034,2.484,4,3.3" transform="translate(-903.905 -1701.606)" fill="#ffab90"/>
            </g>
          </g>
        </g>
        <path id="Trazado_755761" data-name="Trazado 755761" d="M149,1446.474l-9.019-7.671s.013.053.04.146c.344,2.235,4.4,21.093,3.862,25.656-.78,7-45.81,6.494-49.209,1.825-2.182-3,1.071-22.125,1.071-22.125-4.734.33-15.222-14.164-12.92-17.708a59.622,59.622,0,0,1,10.8-12.643c5.713-5.052,13.5-9.852,22.866-10.461,23.924-1.56,41.856,22.006,41.856,22.006a1.532,1.532,0,0,1,.291.4c2.023,3.861-6.4,21.873-9.641,20.578" transform="translate(-75.87 -1290.703)" fill="#57dbd8"/>
        <path id="Trazado_755762" data-name="Trazado 755762" d="M294.224,2117.664s0,1.967-.033,5.335c-7.219,4.251-35.876,4.134-44.962,1.25.417-5.151.767-8.669,1.017-9.653,1.367-5.617,43.978,3.068,43.978,3.068" transform="translate(-229.212 -1943.023)" fill="#022e4f"/>
        <path id="Trazado_755763" data-name="Trazado 755763" d="M250.949,2117.664s0,1.967-.033,5.335v.216c-.1,17.1-.517,84.644-1.784,102.465,0,2.134-8.886,2.833-14.721,2.1-2.867-.35-4.985-1.067-4.985-2.1-.817-17.355-1.484-79.976-1.484-79.976a.758.758,0,0,1-.017.134v.033c-.233,2.968-4.168,62.888-6.918,79.809,0,1.017-2.8,1.65-6.218,1.884-5.418.35-12.436-.267-12.436-1.884-.684-9.336.717-57.887,2.2-81.326.467-7.686.967-14.687,1.4-20.105.417-5.151.767-8.669,1.017-9.653,1.367-5.617,43.978,3.068,43.978,3.068" transform="translate(-185.938 -1943.023)" fill="#003567"/>
        <path id="Trazado_755764" data-name="Trazado 755764" d="M278.189,2117.664s0,1.967-.033,5.335v.216a25.939,25.939,0,0,1-14.52,4.635c-6.268,0-12.937-2.234-18.588.5-6.3,3.034-8.536,10.886-13.253,16,.467-7.686.967-14.687,1.4-20.105.417-5.151.767-8.669,1.017-9.653,1.367-5.617,43.978,3.068,43.978,3.068" transform="translate(-213.177 -1943.023)" fill="#022e4f"/>
        <path id="Trazado_755765" data-name="Trazado 755765" d="M372.378,2525.657c-.233,2.967-4.168,62.887-6.918,79.809,0,1.017-2.8,1.651-6.218,1.884,5.885-18.638,12.67-78.659,13.137-81.693" transform="translate(-330.389 -2322.809)" fill="#022e4f"/>
        <path id="Trazado_755766" data-name="Trazado 755766" d="M529.482,2605.655c-2.867-.35-4.985-1.067-4.985-2.1-.817-17.354-1.484-79.976-1.484-79.976s4.868,62.938,6.468,82.076" transform="translate(-481.008 -2320.898)" fill="#022e4f"/>
        <path id="Trazado_755767" data-name="Trazado 755767" d="M506.837,1020.7l-.608-10.226s6.787,1.291,7.462-2.322a14.313,14.313,0,0,0,0-5.528s2.432-1.769,1.99-2.487-4.256-2.874-4.256-2.874,0-12.6-8.015-11.553-10.337,16.638-10.337,16.638l1.824,7.739-.663,10.613c0,.914,12.6.914,12.6,0" transform="translate(-453.472 -906.489)" fill="#fec9ac"/>
        <path id="Trazado_755768" data-name="Trazado 755768" d="M268.028,922.981a11.3,11.3,0,0,0-2.834,2.618c-2.634,3.451-2.884,7.668-2.517,8.169.467.65-3.168,5.885-3.168,5.885a12.416,12.416,0,0,0,3.617,6.3,5.489,5.489,0,0,1,1.4,5.284,6.654,6.654,0,0,1-2.117,3.5c-1.634,1.517-4.284,2.667-8.252,2.967-11.82.884-21.972-1.534-22.506-8.569-.534-7.018,6.085-9.919,7.385-18.588a20.4,20.4,0,0,1,5.1-10.536,20.815,20.815,0,0,1,2.151-2.051,17.3,17.3,0,0,1,13.12-3.951c6.752.751,9.7,3.185,10.2,5.435a3.3,3.3,0,0,1-1.584,3.534" transform="translate(-213.019 -840.497)" fill="#ad4f36"/>
        <path id="Trazado_755769" data-name="Trazado 755769" d="M709.628,1219.582c.067.033-.038.468-.736.879a2.739,2.739,0,0,1-1.957.106c-.773-.267-.922-.76-.836-.783.088-.063.3.219.957.364a2.3,2.3,0,0,0,1.646-.08c.6-.266.839-.557.926-.487" transform="translate(-649.369 -1121.622)" fill="#4f2d2b"/>
        <path id="Trazado_755770" data-name="Trazado 755770" d="M694.466,1111.645c.086.573-.1,1.11-.407,1.2s-.632-.3-.718-.873.1-1.11.407-1.2.632.3.718.873" transform="translate(-637.636 -1021.548)" fill="#4f2d2b"/>
        <path id="Trazado_755771" data-name="Trazado 755771" d="M678.533,1069.5c-.076-.011-.126-.418.292-1.048a2.844,2.844,0,0,1,1.558-1.022c.744-.132,1.1.075,1.077.152-.013.107-.36.084-.969.271a2.406,2.406,0,0,0-1.321.867c-.414.484-.531.812-.637.781" transform="translate(-623.989 -981.659)" fill="#4f2d2b"/>
        <path id="Trazado_755772" data-name="Trazado 755772" d="M143.833,1585.174c-.784,6.985-45.812,6.485-49.213,1.817-2.184-3,1.067-22.122,1.067-22.122-4.735.334-15.221-14.17-12.92-17.7a60.208,60.208,0,0,1,10.8-12.653,108.5,108.5,0,0,0,11.236,13.737,46.524,46.524,0,0,0,16.638,11.153,25.627,25.627,0,0,0,18.522.117c.35,2.234,4.4,21.089,3.868,25.656" transform="translate(-75.821 -1411.267)" fill="#45afac"/>
        <path id="Trazado_755773" data-name="Trazado 755773" d="M551.144,1151.374a3.446,3.446,0,1,1-2.738-4.1,3.488,3.488,0,0,1,2.738,4.1" transform="translate(-500.593 -1055.075)" fill="#fec9ac"/>
        <path id="Trazado_755774" data-name="Trazado 755774" d="M262.41,1024.781c-1.634,1.517-4.284,2.667-8.252,2.967-11.82.884-21.972-1.534-22.506-8.569-.534-7.019,6.085-9.919,7.385-18.588a20.4,20.4,0,0,1,5.1-10.536c.6.917.267,2.984.233,3.834a26.209,26.209,0,0,1-3,10.7,24.893,24.893,0,0,1-3.7,5.218c-1.75,1.85-3.918,3.784-3.918,6.334.017,2.3,1.867,4.184,3.784,5.452a27.406,27.406,0,0,0,14.67,4.051,58.344,58.344,0,0,0,10.2-.867" transform="translate(-213.019 -910.538)" fill="#c16244"/>
        <path id="Trazado_755775" data-name="Trazado 755775" d="M570.4,1166.4c.025.031-.069.182-.38.306a1.6,1.6,0,0,1-1.448-.219,1.7,1.7,0,0,1-.783-1.494,2.545,2.545,0,0,1,.759-1.478,1.274,1.274,0,0,1,1.423-.357c.32.163.351.372.316.385-.043.033-.146-.087-.4-.139a1.075,1.075,0,0,0-1.028.419,2.134,2.134,0,0,0-.634,1.206,1.271,1.271,0,0,0,.6,1.1,1.526,1.526,0,0,0,1.132.322c.274-.034.414-.1.444-.054" transform="translate(-522.184 -1069.65)" fill="#ffab90"/>
        <path id="Trazado_755776" data-name="Trazado 755776" d="M2236.243,2700.361v68.222h-86.588a2.912,2.912,0,0,1-2.912-2.912v-65.31a4.64,4.64,0,0,1,4.64-4.64h80.227a3.744,3.744,0,0,1,.53.032,4.636,4.636,0,0,1,4.1,4.608" transform="translate(-1974.328 -2479.214)" fill="#fe7062"/>
        <path id="Trazado_755777" data-name="Trazado 755777" d="M2280.7,2700.735v68.222h-85.618a155.987,155.987,0,0,0,36.839-16.588c20.723-13.041,37.981-32.8,44.677-56.241a4.636,4.636,0,0,1,4.1,4.608" transform="translate(-2018.781 -2479.587)" fill="#cb594e"/>
        <path id="Trazado_755778" data-name="Trazado 755778" d="M2236.29,3492.683v8.861h-86.582a2.912,2.912,0,0,1-2.909-2.922v-5.938Z" transform="translate(-1974.378 -3212.168)" fill="#3a4146"/>
        <path id="Trazado_755779" data-name="Trazado 755779" d="M3314.284,2962.918v19.527h-53.152v-54.188h20.63l21.5,23.639a11.022,11.022,0,0,1,11.022,11.022" transform="translate(-2999.215 -2693.074)" fill="#8d7ea3"/>
        <path id="Trazado_755780" data-name="Trazado 755780" d="M3500.048,3438.79c0,.387-.015.769-.052,1.151h-26.063c-.037-.382-.052-.764-.052-1.151a13.084,13.084,0,0,1,26.168,0" transform="translate(-3194.875 -3150.571)" fill="#2e363a"/>
        <path id="Trazado_755781" data-name="Trazado 755781" d="M2421.524,3438.79c0,.387-.016.769-.052,1.151h-26.063c-.037-.382-.052-.764-.052-1.151a13.084,13.084,0,1,1,26.167,0" transform="translate(-2202.974 -3150.571)" fill="#2e363a"/>
        <path id="Trazado_755782" data-name="Trazado 755782" d="M3300.2,2985.489v-17.658a.445.445,0,0,1,.446-.446h15.409a.446.446,0,0,1,.345.164l14.423,17.658a.446.446,0,0,1-.346.728h-29.831a.445.445,0,0,1-.446-.446" transform="translate(-3035.144 -2729.06)" fill="#fff"/>
        <path id="Trazado_755783" data-name="Trazado 755783" d="M3841.927,3507.751v3.986a2.176,2.176,0,0,1-2.177,2.177H3833.5a.567.567,0,0,1-.57-.565v-7.209a.567.567,0,0,1,.57-.565h6.249a2.176,2.176,0,0,1,2.177,2.177" transform="translate(-3525.09 -3224.024)" fill="#2e363a"/>
        <path id="Trazado_755784" data-name="Trazado 755784" d="M3873.666,3337.79v6.117c-.09.008-.179.008-.277.008a4.025,4.025,0,0,1,0-8.05.558.558,0,0,1,.114.008,11.666,11.666,0,0,1,.155,1.42c.008.163.008.334.008.5" transform="translate(-3558.6 -3067.945)" fill="#ffcf3d"/>
        <path id="Trazado_755785" data-name="Trazado 755785" d="M3895.8,3354.133v4.706a2.614,2.614,0,0,1-.008-5.2c.008.163.008.334.008.5" transform="translate(-3580.733 -3084.288)" fill="#fcc230"/>
        <path id="Trazado_755786" data-name="Trazado 755786" d="M3517.477,3457.919a11.415,11.415,0,1,1-11.415-11.415,11.415,11.415,0,0,1,11.415,11.415" transform="translate(-3213.975 -3169.699)" fill="#4a5258"/>
        <path id="Trazado_755787" data-name="Trazado 755787" d="M3554.863,3498.885a7.838,7.838,0,1,1-7.838-7.838,7.838,7.838,0,0,1,7.838,7.838" transform="translate(-3254.938 -3210.663)" fill="#fff"/>
        <path id="Trazado_755788" data-name="Trazado 755788" d="M3593.554,3541.275a4.135,4.135,0,1,1-4.135-4.135,4.136,4.136,0,0,1,4.135,4.135" transform="translate(-3297.331 -3253.055)" fill="#4a5258"/>
        <path id="Trazado_755789" data-name="Trazado 755789" d="M2438.954,3457.919a11.415,11.415,0,1,1-11.415-11.415,11.415,11.415,0,0,1,11.415,11.415" transform="translate(-2222.073 -3169.699)" fill="#4a5258"/>
        <path id="Trazado_755790" data-name="Trazado 755790" d="M2476.341,3498.885a7.838,7.838,0,1,1-7.838-7.838,7.838,7.838,0,0,1,7.838,7.838" transform="translate(-2263.038 -3210.663)" fill="#fff"/>
        <path id="Trazado_755791" data-name="Trazado 755791" d="M2515.031,3541.275a4.136,4.136,0,1,1-4.136-4.135,4.136,4.136,0,0,1,4.136,4.135" transform="translate(-2305.429 -3253.055)" fill="#4a5258"/>
        <path id="Trazado_755792" data-name="Trazado 755792" d="M921.618,209.992a5.778,5.778,0,1,1-5.778-5.778,5.778,5.778,0,0,1,5.778,5.778" transform="translate(-836.97 -187.812)" fill="#bbcaea"/>
        <path id="Trazado_755793" data-name="Trazado 755793" d="M3681.451,1671.485a19.656,19.656,0,1,1-8.983-26.306,19.656,19.656,0,0,1,8.983,26.306" transform="translate(-3351.468 -1511.193)" fill="#91b3fa"/>
        <path id="Trazado_755794" data-name="Trazado 755794" d="M3661.923,135.871a17.009,17.009,0,1,1-7.773-22.764,17.01,17.01,0,0,1,7.773,22.764" transform="translate(-3338.127 -102.418)" fill="#fe7062"/>
        <path id="Trazado_755795" data-name="Trazado 755795" d="M3768.036,1760.694a11.569,11.569,0,1,1-11.569-11.568,11.569,11.569,0,0,1,11.569,11.568" transform="translate(-3444.128 -1608.645)" fill="#fff"/>
        <path id="Trazado_755796" data-name="Trazado 755796" d="M3787.511,1786.255a11.9,11.9,0,0,1-8.636-3.676.5.5,0,0,1,.714-.688,11.006,11.006,0,0,0,15.857,0,.5.5,0,1,1,.714.688,11.914,11.914,0,0,1-8.649,3.676" transform="translate(-3475.247 -1638.638)" fill="#91b3fa"/>
        <path id="Trazado_755797" data-name="Trazado 755797" d="M3795.8,1940.491a.493.493,0,0,1-.358-.153,10.976,10.976,0,0,0-15.854,0,.5.5,0,1,1-.717-.686,11.968,11.968,0,0,1,17.287,0,.5.5,0,0,1-.359.839" transform="translate(-3475.244 -1780.475)" fill="#91b3fa"/>
        <path id="Trazado_755798" data-name="Trazado 755798" d="M3762.2,1881.782h-22.975a.5.5,0,0,1,0-.992H3762.2a.5.5,0,0,1,0,.992" transform="translate(-3438.451 -1729.734)" fill="#91b3fa"/>
        <path id="Trazado_755799" data-name="Trazado 755799" d="M3829.275,1761.87c-2.922,0-5.211-5.3-5.211-12.064s2.289-12.064,5.211-12.064,5.21,5.3,5.21,12.064-2.288,12.064-5.21,12.064m0-23.137c-2.037,0-4.219,4.449-4.219,11.072s2.181,11.073,4.219,11.073,4.219-4.449,4.219-11.073-2.181-11.072-4.219-11.072" transform="translate(-3516.935 -1598.174)" fill="#91b3fa"/>
        <path id="Trazado_755800" data-name="Trazado 755800" d="M3793.83,209.682a4.249,4.249,0,1,0,4.249-4.249,4.249,4.249,0,0,0-4.249,4.249" transform="translate(-3489.129 -188.933)" fill="#fff"/>
        <path id="Trazado_755801" data-name="Trazado 755801" d="M3729.048,341.1h16.65a.746.746,0,0,0,.738-.94,9.415,9.415,0,0,0-18.125,0,.758.758,0,0,0,.738.94" transform="translate(-3428.849 -306.53)" fill="#fff"/>
        <path id="Trazado_755802" data-name="Trazado 755802" d="M1705.491,22.176A22.179,22.179,0,1,1,1683.311,0a22.18,22.18,0,0,1,22.179,22.18" transform="translate(-1527.718 0.004)" fill="#dcdbef"/>
        <path id="Trazado_755803" data-name="Trazado 755803" d="M1807.038,133.44a12.463,12.463,0,1,1-12.463-12.463,12.463,12.463,0,0,1,12.463,12.463" transform="translate(-1638.982 -111.26)" fill="#bbcaea"/>
        <path id="Trazado_755804" data-name="Trazado 755804" d="M1763.235,85.444A16.654,16.654,0,1,1,1746.58,68.79a16.654,16.654,0,0,1,16.654,16.654" transform="translate(-1590.987 -63.265)" fill="#bbcaea"/>
        <path id="Trazado_755805" data-name="Trazado 755805" d="M1797.4,122.878a13.385,13.385,0,1,1-13.385-13.385,13.386,13.386,0,0,1,13.385,13.385" transform="translate(-1628.42 -100.699)" fill="#fff"/>
        <path id="Trazado_755806" data-name="Trazado 755806" d="M1930.523,162.362h-6.959a.733.733,0,0,1-.733-.733v-9.8a.733.733,0,1,1,1.467,0V160.9h6.225a.733.733,0,0,1,0,1.467" transform="translate(-1768.399 -138.96)" fill="#4a5258"/>
        <path id="Trazado_755807" data-name="Trazado 755807" d="M2455.415,2831v11.84a2.721,2.721,0,0,1-2.721,2.721h-42.116a2.721,2.721,0,0,1-2.721-2.721V2831a2.721,2.721,0,0,1,2.721-2.721h42.116a2.721,2.721,0,0,1,2.721,2.721" transform="translate(-2214.47 -2601.126)" fill="#cb594e"/>
      </g>
    </g>
  </g>
</svg>
