<svg xmlns="http://www.w3.org/2000/svg" xmlns:xlink="http://www.w3.org/1999/xlink" width="169.867" height="170.878" viewBox="0 0 169.867 170.878">
  <defs>
    <clipPath id="clip-path">
      <path id="Trazado_756267" data-name="Trazado 756267" d="M24.957,0h76.03a24.957,24.957,0,0,1,24.957,24.957V80.035a24.957,24.957,0,0,1-24.957,24.957H24.957A24.957,24.957,0,0,1,0,80.035V24.957A24.957,24.957,0,0,1,24.957,0Z" fill="none" stroke="#707070" stroke-width="1"/>
    </clipPath>
  </defs>
  <g id="Grupo_1024070" data-name="Grupo 1024070" transform="translate(12904.867 12335.473)">
    <path id="Trazado_756114" data-name="Trazado 756114" d="M95.5,10.8a10.639,10.639,0,0,1,2.6-1.131l.38-1.828a.955.955,0,0,1,.919-.76l2.825-.049a.954.954,0,0,1,.945.727l.444,1.813a10.641,10.641,0,0,1,2.64,1.038l1.582-1.037a.922.922,0,0,1,1.147.108l2.069,2a.924.924,0,0,1,.149,1.143l-.981,1.617a10.676,10.676,0,0,1,1.131,2.6l2,.416a.735.735,0,0,1,.585.706l.056,3.178a.736.736,0,0,1-.56.727l-1.985.486a10.654,10.654,0,0,1-1.038,2.64l.949,1.447a1.125,1.125,0,0,1-.132,1.4l-1.773,1.837a1.125,1.125,0,0,1-1.393.181l-1.479-.9a10.642,10.642,0,0,1-2.6,1.13l-.4,1.944a.807.807,0,0,1-.776.643l-3.062.053a.807.807,0,0,1-.8-.615l-.473-1.929a10.7,10.7,0,0,1-2.64-1.038L94.26,30.374a.946.946,0,0,1-1.177-.111L91.04,28.291a.947.947,0,0,1-.151-1.172l.971-1.6a10.659,10.659,0,0,1-1.131-2.6l-2.035-.424a.69.69,0,0,1-.55-.663l-.057-3.248a.691.691,0,0,1,.526-.683l2.019-.5a10.686,10.686,0,0,1,1.038-2.64l-1-1.527a1,1,0,0,1,.118-1.25l1.906-1.974a1.007,1.007,0,0,1,1.246-.162Zm2.768,5.386a4.669,4.669,0,1,0,5.688-.1,4.671,4.671,0,0,0-5.688.1" transform="translate(-12928.608 -12342.501)" fill="#45afac"/>
    <g id="Grupo_1024062" data-name="Grupo 1024062" transform="translate(-12861.524 -12301)">
      <g id="Enmascarar_grupo_998590" data-name="Enmascarar grupo 998590" clip-path="url(#clip-path)">
        <path id="Trazado_756186" data-name="Trazado 756186" d="M167.969,153.786H83.095A20.535,20.535,0,0,1,62.56,133.251V69.329A20.535,20.535,0,0,1,83.095,48.794h84.874A20.535,20.535,0,0,1,188.5,69.329v63.922a20.535,20.535,0,0,1-20.535,20.535" transform="translate(-62.56 -48.794)" fill="#fff" stroke="#fff" stroke-width="1"/>
        <path id="Trazado_756187" data-name="Trazado 756187" d="M58.377,58.737l26.7,33.544,35.143-25.989L93.044,32.747Z" transform="translate(-61.819 -45.951)" fill="#57dbd8"/>
        <path id="Trazado_756188" data-name="Trazado 756188" d="M125.623,42.981,153.54,78.527,193.71,49.252,162.181,15.574Z" transform="translate(-73.734 -42.908)" fill="#dcdbef"/>
        <path id="Trazado_756189" data-name="Trazado 756189" d="M166.814,92.829l15.411,18.107,36.869-27.463L206.6,64.1Z" transform="translate(-81.033 -51.506)" fill="#57dbd8"/>
        <path id="Trazado_756190" data-name="Trazado 756190" d="M16.372,109l14.615,17.17L65.948,100.13,51.667,81.964Z" transform="translate(-54.376 -54.671)" fill="#dcdbef"/>
        <path id="Trazado_756191" data-name="Trazado 756191" d="M38.147,137.314,57,160.153,91.966,134.11,73.443,110.276Z" transform="translate(-58.234 -59.688)" fill="#57dbd8"/>
        <path id="Trazado_756192" data-name="Trazado 756192" d="M89.831,157.37l18.856,22.839,14.5-11.115-18.125-23.321Z" transform="translate(-67.392 -65.977)" fill="#4a4ac6"/>
        <path id="Trazado_756193" data-name="Trazado 756193" d="M66.184,175.857,85.041,198.7l14.5-11.115L81.419,164.259Z" transform="translate(-63.202 -69.253)" fill="#dcdbef"/>
        <path id="Trazado_756194" data-name="Trazado 756194" d="M95.954,106.585l33.03,43.221,34.467-27.214-32.829-42Z" transform="translate(-68.477 -54.429)" fill="#dcdbef"/>
        <path id="Trazado_756195" data-name="Trazado 756195" d="M132.135,175.117C132.55,174.87,173.168,142,173.168,142L194.409,167l-24.125,18.572Z" transform="translate(-74.888 -65.308)" fill="#dcdbef"/>
        <path id="Trazado_756196" data-name="Trazado 756196" d="M211.474,156.47,190.444,132.2V125.83s25.253-18.549,25.527-18.195,5.216,28.417,5.216,28.417Z" transform="translate(-85.22 -59.219)" fill="#57dbd8"/>
      </g>
    </g>
    <path id="Trazado_756197" data-name="Trazado 756197" d="M167.365,171.653a24.417,24.417,0,0,0,16.5,21.918,55.429,55.429,0,0,1-.915-27.04" transform="translate(-12942.655 -12370.764)" fill="#dcdbef"/>
    <path id="Trazado_756256" data-name="Trazado 756256" d="M21.389,109.992a16.559,16.559,0,0,1,4.037-1.754l.591-2.836a1.482,1.482,0,0,1,1.425-1.181l4.384-.077a1.482,1.482,0,0,1,1.465,1.129l.69,2.814a16.549,16.549,0,0,1,4.1,1.612l2.454-1.609a1.434,1.434,0,0,1,1.781.167l3.211,3.1a1.433,1.433,0,0,1,.23,1.773l-1.522,2.51a16.507,16.507,0,0,1,1.754,4.038l3.105.646a1.14,1.14,0,0,1,.907,1.1l.087,4.931a1.141,1.141,0,0,1-.869,1.127l-3.08.755a16.579,16.579,0,0,1-1.611,4.1L46,134.576a1.745,1.745,0,0,1-.2,2.17L43.041,139.6a1.746,1.746,0,0,1-2.162.28l-2.3-1.392a16.541,16.541,0,0,1-4.038,1.755l-.628,3.016a1.253,1.253,0,0,1-1.2,1l-4.751.083a1.253,1.253,0,0,1-1.238-.954l-.734-2.993a16.561,16.561,0,0,1-4.1-1.611l-2.431,1.593a1.468,1.468,0,0,1-1.825-.172l-3.17-3.06a1.468,1.468,0,0,1-.235-1.818l1.507-2.485a16.549,16.549,0,0,1-1.755-4.038l-3.157-.657a1.071,1.071,0,0,1-.853-1.03l-.089-5.04a1.072,1.072,0,0,1,.816-1.06l3.133-.769a16.563,16.563,0,0,1,1.612-4.1l-1.553-2.37a1.561,1.561,0,0,1,.183-1.94l2.958-3.063a1.561,1.561,0,0,1,1.932-.251Zm4.3,8.359a7.246,7.246,0,1,0,8.827-.156,7.249,7.249,0,0,0-8.827.156" transform="translate(-12914.752 -12359.709)" fill="#45afac"/>
    <path id="Trazado_756257" data-name="Trazado 756257" d="M56.044,187a10.67,10.67,0,0,1,2.6-1.131l.38-1.828a.955.955,0,0,1,.919-.76l2.825-.049a.954.954,0,0,1,.945.727l.444,1.813a10.641,10.641,0,0,1,2.64,1.038l1.582-1.037a.922.922,0,0,1,1.147.108l2.069,2a.923.923,0,0,1,.149,1.143l-.981,1.618a10.67,10.67,0,0,1,1.131,2.6l2,.416a.735.735,0,0,1,.585.706l.056,3.178a.736.736,0,0,1-.56.727l-1.985.486a10.641,10.641,0,0,1-1.038,2.64l.949,1.447a1.125,1.125,0,0,1-.132,1.4L70,206.072a1.125,1.125,0,0,1-1.393.181l-1.479-.9a10.676,10.676,0,0,1-2.6,1.131l-.4,1.943a.807.807,0,0,1-.776.643l-3.062.053a.807.807,0,0,1-.8-.615l-.473-1.929a10.666,10.666,0,0,1-2.64-1.038L54.8,206.572a.947.947,0,0,1-1.177-.11l-2.043-1.972a.947.947,0,0,1-.151-1.172l.971-1.6a10.644,10.644,0,0,1-1.131-2.6l-2.035-.423a.691.691,0,0,1-.55-.664l-.057-3.248a.691.691,0,0,1,.527-.683l2.018-.5a10.686,10.686,0,0,1,1.038-2.64l-1-1.527a1,1,0,0,1,.118-1.25l1.906-1.974a1,1,0,0,1,1.245-.162Zm2.768,5.386a4.669,4.669,0,1,0,5.688-.1,4.671,4.671,0,0,0-5.688.1" transform="translate(-12921.617 -12373.722)" fill="#45afac"/>
    <path id="Unión_23" data-name="Unión 23" d="M13915.029,11805H13853a24,24,0,0,1-24-24v-56a24,24,0,0,1,24-24h77a24,24,0,0,1,24,24v56a24,24,0,0,1-24,24h-.85a55.469,55.469,0,0,0,2.058,18.81A24.527,24.527,0,0,1,13915.029,11805Z" transform="translate(-26690 -24002.5)" fill="none" stroke="#fff" stroke-width="2"/>
    <path id="Trazado_756271" data-name="Trazado 756271" d="M159.175,15.754c-8.012.886-14.556,7.627-15.489,15.958a18.87,18.87,0,0,0,2.137,11.162,15.073,15.073,0,0,0,1.524,2.2l10.641,13.283a4.14,4.14,0,0,0,6.5-.049l7.449-9.588c.7-.9,2.012-2.675,3.152-4.28a18.359,18.359,0,0,0,3.534-10.383v-.086c.049-10.765-8.866-19.393-19.448-18.222M162.761,41.1c-5.435,1.228-10.144-3.717-8.915-9.364a7.543,7.543,0,0,1,5.577-5.754c5.436-1.228,10.144,3.718,8.915,9.365a7.542,7.542,0,0,1-5.577,5.753" transform="translate(-12937.438 -12348.028)" fill="#fe7062"/>
  </g>
</svg>
