<svg xmlns="http://www.w3.org/2000/svg" width="90.573" height="64.562" viewBox="0 0 90.573 64.562">
  <g id="Grupo_1024068" data-name="Grupo 1024068" transform="translate(12707.957 12099.803)">
    <rect id="Rect치ngulo_358680" data-name="Rect치ngulo 358680" width="90.429" height="63.568" transform="translate(-12707.813 -12099.305)" fill="#b28f42"/>
    <path id="Trazado_756240" data-name="Trazado 756240" d="M249.495,327.546c5.873-.031,12.219-1.952,15.975-6.724,4.276-5.432,3.473-13.043,7.413-18.675a22.521,22.521,0,0,1,8.592-6.995c.355-.178.044-.71-.311-.533a24.607,24.607,0,0,0-7.278,5.3,19.79,19.79,0,0,0-4.28,7.839c-.989,3.337-1.465,6.864-2.979,10.029a14.9,14.9,0,0,1-6.658,6.731,22.879,22.879,0,0,1-10.474,2.414.309.309,0,0,0,0,.617" transform="translate(-12957.154 -12393.452)" fill="#846323"/>
    <path id="Trazado_756241" data-name="Trazado 756241" d="M249.666,345.838c14.45-.666,25.575-11.152,33.672-22.208,4.2-5.738,7.608-12.861,14.271-16.13a32.534,32.534,0,0,1,10.553-2.757,57.328,57.328,0,0,1,9.79-.352c7.475.4,15.012,2.568,20.647,7.691.293.267.731-.169.436-.436a31.625,31.625,0,0,0-17.2-7.5,51.361,51.361,0,0,0-20,1.146,21.512,21.512,0,0,0-8.817,4.557,41.633,41.633,0,0,0-6.424,8.051c-4.218,6.26-8.745,12.4-14.441,17.4-6.253,5.5-14.052,9.534-22.485,9.922-.4.018-.4.635,0,.617" transform="translate(-12957.186 -12395.06)" fill="#846323"/>
    <path id="Trazado_756242" data-name="Trazado 756242" d="M350.916,332.419c-.09,3.628-4.384,4.089-7.094,3.5a61.775,61.775,0,0,1-8.649-2.956c-4.915-1.856-11.184-3.8-16.2-1.152-1.767.935-3.382,2.653-3.156,4.791.216,2.055,2.013,3.472,3.741,4.325,5.237,2.587,11.439,2.645,17.043,3.954,6,1.4,12.489,4.613,14,11.152.09.387.685.223.595-.164-1.113-4.809-5.1-8.21-9.5-10.039-5.477-2.275-11.5-2.455-17.2-3.875-2.55-.634-5.823-1.458-7.425-3.755-1.913-2.743.7-5.4,3.234-6.308,5.858-2.111,12.135.7,17.569,2.765,2.816,1.069,6.071,2.473,9.155,2.1,2.277-.277,4.439-1.9,4.5-4.341a.309.309,0,0,0-.617,0" transform="translate(-12968.955 -12399.82)" fill="#846323"/>
    <path id="Trazado_756243" data-name="Trazado 756243" d="M267.323,368.514c9,2.083,17.213-3.281,24.749-7.386,4.1-2.235,8.449-4.316,13.157-4.782a20.963,20.963,0,0,1,11.333,2.166,21.261,21.261,0,0,1,9.341,9.014c.186.351.718.04.532-.311a22.229,22.229,0,0,0-18.209-11.551c-9.137-.488-16.667,5.46-24.455,9.275-5.022,2.46-10.674,4.28-16.284,2.981-.386-.09-.551.505-.164.595" transform="translate(-12960.327 -12404.271)" fill="#846323"/>
    <rect id="Rect치ngulo_358681" data-name="Rect치ngulo 358681" width="17.391" height="21.874" transform="translate(-12693.764 -12099.306)" fill="#846323"/>
    <path id="Trazado_756244" data-name="Trazado 756244" d="M308.706,293.946v63.568a.515.515,0,0,0,1.029,0V293.946a.515.515,0,0,0-1.029,0" transform="translate(-12967.699 -12393.252)" fill="#26244a"/>
  </g>
</svg>
