<svg xmlns="http://www.w3.org/2000/svg" width="43.618" height="33.189" viewBox="0 0 43.618 33.189">
  <g id="Grupo_1024073" data-name="Grupo 1024073" transform="translate(12519.343 12317.843)">
    <path id="Trazado_756177" data-name="Trazado 756177" d="M518.14,60.86H482.768a3.123,3.123,0,0,1-3.123-3.123V32.793a3.123,3.123,0,0,1,3.123-3.123H518.14a3.123,3.123,0,0,1,3.123,3.123V57.736a3.123,3.123,0,0,1-3.123,3.123" transform="translate(-12997.987 -12346.513)" fill="#d8e4fd"/>
    <rect id="Rectángulo_358662" data-name="Rectángulo 358662" width="41.618" height="31.189" rx="3.796" transform="translate(-12518.343 -12316.843)" fill="none" stroke="#1a0f91" stroke-miterlimit="10" stroke-width="2"/>
    <path id="Trazado_756178" data-name="Trazado 756178" d="M481.049,31.837l15.605,15.914c.828.844,1.644,1.891,2.841,2.183,1.632.4,2.748-.626,3.807-1.655l9.022-8.765,7.761-7.539c.476-.462-.252-1.189-.727-.727L503.722,46.438c-.643.625-1.268,1.285-1.939,1.883-1.632,1.456-2.964.169-4.1-.993l-8.635-8.806-7.269-7.413c-.464-.473-1.191.254-.727.727" transform="translate(-12998.21 -12346.741)" fill="#1a0f91"/>
    <path id="Trazado_756179" data-name="Trazado 756179" d="M481.051,63.5l13.831-15.3c.443-.49-.282-1.219-.727-.727l-13.831,15.3c-.443.49.282,1.219.727.727" transform="translate(-12998.083 -12349.639)" fill="#1a0f91"/>
    <path id="Trazado_756180" data-name="Trazado 756180" d="M525.943,62.295c-.481-.648-1.067-1.228-1.609-1.823q-1.637-1.8-3.288-3.578-3.63-3.931-7.277-7.848-.825-.886-1.65-1.772c-.452-.485-1.178.243-.727.727,3.927,4.217,7.856,8.432,11.745,12.684q.665.727,1.324,1.458c.147.164.295.327.439.493.059.069.264.324.156.178.39.526,1.283.013.888-.519" transform="translate(-13003.588 -12349.604)" fill="#1a0f91"/>
  </g>
</svg>
