<svg xmlns="http://www.w3.org/2000/svg" width="76.135" height="76.135" viewBox="0 0 76.135 76.135">
  <g id="Grupo_1024072" data-name="Grupo 1024072" transform="translate(12564.556 12212.033)">
    <g id="Grupo_1024067" data-name="Grupo 1024067">
      <path id="Trazado_756155" data-name="Trazado 756155" d="M499.614,195.117a38.067,38.067,0,1,1-38.067-38.067,38.068,38.068,0,0,1,38.067,38.067" transform="translate(-12988.035 -12369.083)" fill="#57dbd8"/>
      <path id="Trazado_756156" data-name="Trazado 756156" d="M427.107,182.839a12.369,12.369,0,0,0,10.784,1.014c3.825-1.3,7-3.936,9.9-6.667,3.272-3.081,6.375-6.363,10.312-8.614a31.723,31.723,0,0,1,11.382-3.792,38.249,38.249,0,0,1,13.985.725c.387.091.551-.5.165-.595a36.841,36.841,0,0,0-22.612,1.536,33.767,33.767,0,0,0-9.9,6.7c-3.2,2.993-6.216,6.285-10.027,8.533-4.124,2.433-9.468,3.417-13.679.625-.332-.22-.642.314-.312.533" transform="translate(-12988.653 -12370.284)" fill="#fff"/>
      <path id="Trazado_756157" data-name="Trazado 756157" d="M434.484,205.694a3.431,3.431,0,0,0-2.886,2.34,3.206,3.206,0,0,0,1.1,3.452,3.151,3.151,0,0,0,3.663.283,3.306,3.306,0,0,0,1.605-3.262,3.418,3.418,0,0,0-3-2.813c-.395-.038-.392.579,0,.617a2.79,2.79,0,0,1,2.306,1.923,2.6,2.6,0,0,1-.914,2.787,2.526,2.526,0,0,1-2.947.216,2.675,2.675,0,0,1-1.312-2.643,2.8,2.8,0,0,1,2.391-2.283c.392-.038.4-.656,0-.617" transform="translate(-12989.448 -12377.702)" fill="#fff"/>
      <path id="Trazado_756158" data-name="Trazado 756158" d="M458.169,244.512A35.972,35.972,0,0,1,496.389,232a.309.309,0,0,0,.164-.595A36.175,36.175,0,0,0,457.636,244.2c-.242.314.294.622.533.312" transform="translate(-12994.077 -12382.005)" fill="#fff"/>
      <path id="Trazado_756162" data-name="Trazado 756162" d="M447.756,197.991l8.032,14.6a4.147,4.147,0,0,0,5.629,1.476L482.238,199.9l2.919-1.985a4.2,4.2,0,0,0,1.476-5.629c-1.14-1.768-3.726-2.77-5.629-1.475l-20.821,14.16-2.919,1.985,5.629,1.476-8.032-14.6a4.154,4.154,0,0,0-5.629-1.476,4.2,4.2,0,0,0-1.476,5.629" transform="translate(-12992.242 -12374.962)" fill="#fe7062"/>
      <path id="Trazado_756166" data-name="Trazado 756166" d="M426.244,219.7a54.049,54.049,0,0,0,28.442,2.621,64.779,64.779,0,0,0,13.883-4.4c4.687-1.982,9.37-4.146,14.385-5.164,5.214-1.059,10.837-.882,15.51,1.895a.309.309,0,0,0,.311-.533c-8.291-4.927-18.216-1.909-26.429,1.532-4.739,1.985-9.416,4.116-14.423,5.352a53.236,53.236,0,0,1-31.516-1.9c-.372-.141-.532.456-.164.595" transform="translate(-12988.488 -12378.737)" fill="#fff"/>
      <path id="Trazado_756167" data-name="Trazado 756167" d="M495.408,170.083,482.044,173.9c-2.047.586-4.161,1.069-6.157,1.81a5.659,5.659,0,0,0-3.424,2.8c-1.422,3.171,1.971,5.014,4.7,4.486a59.108,59.108,0,0,0,5.8-1.962,42.546,42.546,0,0,1,21.143-.941c.388.081.553-.514.164-.595a43.48,43.48,0,0,0-21.826,1.052c-1.711.538-3.36,1.369-5.107,1.777-1.73.4-4.538.015-4.591-2.3-.051-2.187,2.127-3.351,3.912-3.926,1.828-.59,3.7-1.071,5.543-1.6l13.364-3.822a.309.309,0,0,0-.164-.595" transform="translate(-12996.655 -12371.391)" fill="#fff"/>
    </g>
  </g>
</svg>
