<svg xmlns="http://www.w3.org/2000/svg" width="549" height="196.486" viewBox="0 0 549 196.486">
  <g id="graficos_01" transform="translate(-133.89 -244.33)">
    <path id="Trazado_756595" data-name="Trazado 756595" d="M164.433,405.517V385.61H147.58v69.679h94.9V405.517Z" transform="translate(-9.141 -94.336)" fill="#57dbd8"/>
    <rect id="Rectángulo_358917" data-name="Rectángulo 358917" width="8.822" height="5.994" transform="translate(141.712 316.836)" fill="#45afac"/>
    <rect id="Rectángulo_358918" data-name="Rectángulo 358918" width="8.822" height="5.994" transform="translate(157.661 316.836)" fill="#45afac"/>
    <rect id="Rectángulo_358919" data-name="Rectángulo 358919" width="8.822" height="5.994" transform="translate(173.611 316.836)" fill="#45afac"/>
    <rect id="Rectángulo_358920" data-name="Rectángulo 358920" width="8.822" height="5.994" transform="translate(189.56 316.836)" fill="#45afac"/>
    <rect id="Rectángulo_358921" data-name="Rectángulo 358921" width="8.822" height="5.994" transform="translate(205.509 316.836)" fill="#45afac"/>
    <rect id="Rectángulo_358922" data-name="Rectángulo 358922" width="8.822" height="5.994" transform="translate(221.459 316.836)" fill="#45afac"/>
    <rect id="Rectángulo_358923" data-name="Rectángulo 358923" width="8.822" height="5.994" transform="translate(141.712 327.017)" fill="#45afac"/>
    <rect id="Rectángulo_358924" data-name="Rectángulo 358924" width="8.822" height="5.994" transform="translate(157.661 327.017)" fill="#45afac"/>
    <rect id="Rectángulo_358925" data-name="Rectángulo 358925" width="8.822" height="5.994" transform="translate(173.611 327.017)" fill="#45afac"/>
    <rect id="Rectángulo_358926" data-name="Rectángulo 358926" width="8.822" height="5.994" transform="translate(189.56 327.017)" fill="#45afac"/>
    <rect id="Rectángulo_358927" data-name="Rectángulo 358927" width="8.822" height="5.994" transform="translate(205.509 327.017)" fill="#45afac"/>
    <rect id="Rectángulo_358928" data-name="Rectángulo 358928" width="8.822" height="5.994" transform="translate(221.459 327.017)" fill="#45afac"/>
    <rect id="Rectángulo_358929" data-name="Rectángulo 358929" width="8.822" height="5.994" transform="translate(141.712 337.198)" fill="#45afac"/>
    <rect id="Rectángulo_358930" data-name="Rectángulo 358930" width="8.822" height="5.994" transform="translate(157.661 337.198)" fill="#45afac"/>
    <rect id="Rectángulo_358931" data-name="Rectángulo 358931" width="8.822" height="5.994" transform="translate(173.611 337.198)" fill="#45afac"/>
    <rect id="Rectángulo_358932" data-name="Rectángulo 358932" width="8.822" height="5.994" transform="translate(141.712 347.379)" fill="#45afac"/>
    <rect id="Rectángulo_358933" data-name="Rectángulo 358933" width="8.822" height="5.994" transform="translate(157.661 347.379)" fill="#45afac"/>
    <rect id="Rectángulo_358934" data-name="Rectángulo 358934" width="8.822" height="5.994" transform="translate(173.611 347.379)" fill="#45afac"/>
    <rect id="Rectángulo_358935" data-name="Rectángulo 358935" width="8.822" height="5.994" transform="translate(189.56 337.198)" fill="#45afac"/>
    <rect id="Rectángulo_358936" data-name="Rectángulo 358936" width="8.822" height="5.994" transform="translate(205.509 337.198)" fill="#45afac"/>
    <rect id="Rectángulo_358937" data-name="Rectángulo 358937" width="8.822" height="5.994" transform="translate(221.459 337.198)" fill="#45afac"/>
    <rect id="Rectángulo_358938" data-name="Rectángulo 358938" width="39.478" height="13.461" transform="translate(189.56 347.379)" fill="#348381"/>
    <path id="Trazado_756596" data-name="Trazado 756596" d="M146.766,367.114H133.89l6.436-4.6,6.44-4.6,6.436,4.6,6.44,4.6Z" transform="translate(0 -75.84)" fill="#348381"/>
    <path id="Trazado_756597" data-name="Trazado 756597" d="M237.323,425.916H198.3l19.511-4.878,19.511-4.878,19.511,4.878,19.511,4.878Z" transform="translate(-43.008 -114.735)" fill="#348381"/>
    <rect id="Rectángulo_358939" data-name="Rectángulo 358939" width="53.503" height="17.308" transform="translate(470.089 397.716)" fill="#748fc8"/>
    <rect id="Rectángulo_358940" data-name="Rectángulo 358940" width="70.499" height="24.658" transform="translate(461.746 373.058)" fill="#576b96"/>
    <rect id="Rectángulo_358941" data-name="Rectángulo 358941" width="46.718" height="4.526" transform="translate(473.482 368.532)" fill="#748fc8"/>
    <rect id="Rectángulo_358942" data-name="Rectángulo 358942" width="61.265" height="6.463" transform="translate(466.404 376.753)" fill="#d8e4fd"/>
    <path id="Trazado_756598" data-name="Trazado 756598" d="M1194.865,642.524v5.8h-60.6v-5.8h60.6m.665-.664H1133.6v7.127h61.93V641.86Z" transform="translate(-667.528 -265.439)" fill="#1a0f91"/>
    <rect id="Rectángulo_358943" data-name="Rectángulo 358943" width="61.265" height="6.463" transform="translate(466.404 387.402)" fill="#d8e4fd"/>
    <path id="Trazado_756599" data-name="Trazado 756599" d="M1194.865,674.575v5.8h-60.6v-5.8h60.6m.665-.665H1133.6v7.127h61.93V673.91Z" transform="translate(-667.528 -286.84)" fill="#1a0f91"/>
    <line id="Línea_3320" data-name="Línea 3320" y2="5.994" transform="translate(473.764 376.989)" fill="none" stroke="#1a0f91" stroke-miterlimit="10" stroke-width="2"/>
    <line id="Línea_3321" data-name="Línea 3321" y2="5.994" transform="translate(481.513 376.989)" fill="none" stroke="#1a0f91" stroke-miterlimit="10" stroke-width="2"/>
    <line id="Línea_3322" data-name="Línea 3322" y2="5.994" transform="translate(489.262 376.989)" fill="none" stroke="#1a0f91" stroke-miterlimit="10" stroke-width="2"/>
    <line id="Línea_3323" data-name="Línea 3323" y2="5.994" transform="translate(497.01 376.989)" fill="none" stroke="#1a0f91" stroke-miterlimit="10" stroke-width="2"/>
    <line id="Línea_3324" data-name="Línea 3324" y2="5.994" transform="translate(504.759 376.989)" fill="none" stroke="#1a0f91" stroke-miterlimit="10" stroke-width="2"/>
    <line id="Línea_3325" data-name="Línea 3325" y2="5.994" transform="translate(512.508 376.989)" fill="none" stroke="#1a0f91" stroke-miterlimit="10" stroke-width="2"/>
    <line id="Línea_3326" data-name="Línea 3326" y2="5.994" transform="translate(520.253 376.989)" fill="none" stroke="#1a0f91" stroke-miterlimit="10" stroke-width="2"/>
    <line id="Línea_3327" data-name="Línea 3327" y2="5.994" transform="translate(473.764 387.635)" fill="none" stroke="#1a0f91" stroke-miterlimit="10" stroke-width="2"/>
    <line id="Línea_3328" data-name="Línea 3328" y2="5.994" transform="translate(481.513 387.635)" fill="none" stroke="#1a0f91" stroke-miterlimit="10" stroke-width="2"/>
    <line id="Línea_3329" data-name="Línea 3329" y2="5.994" transform="translate(489.262 387.635)" fill="none" stroke="#1a0f91" stroke-miterlimit="10" stroke-width="2"/>
    <line id="Línea_3330" data-name="Línea 3330" y2="5.994" transform="translate(497.01 387.635)" fill="none" stroke="#1a0f91" stroke-miterlimit="10" stroke-width="2"/>
    <line id="Línea_3331" data-name="Línea 3331" y2="5.994" transform="translate(504.759 387.635)" fill="none" stroke="#1a0f91" stroke-miterlimit="10" stroke-width="2"/>
    <line id="Línea_3332" data-name="Línea 3332" y2="5.994" transform="translate(512.508 387.635)" fill="none" stroke="#1a0f91" stroke-miterlimit="10" stroke-width="2"/>
    <line id="Línea_3333" data-name="Línea 3333" y2="5.994" transform="translate(520.253 387.635)" fill="none" stroke="#1a0f91" stroke-miterlimit="10" stroke-width="2"/>
    <rect id="Rectángulo_358944" data-name="Rectángulo 358944" width="4.2" height="5.768" transform="translate(463.314 397.716)" fill="#748fc8"/>
    <rect id="Rectángulo_358945" data-name="Rectángulo 358945" width="2.419" height="6.446" transform="translate(464.205 403.485)" fill="#576b96"/>
    <rect id="Rectángulo_358946" data-name="Rectángulo 358946" width="4.2" height="5.768" transform="translate(463.314 409.931)" fill="#748fc8"/>
    <rect id="Rectángulo_358947" data-name="Rectángulo 358947" width="4.2" height="5.768" transform="translate(526.547 397.716)" fill="#748fc8"/>
    <rect id="Rectángulo_358948" data-name="Rectángulo 358948" width="2.419" height="6.446" transform="translate(527.437 403.485)" fill="#576b96"/>
    <rect id="Rectángulo_358949" data-name="Rectángulo 358949" width="4.2" height="5.768" transform="translate(526.547 409.931)" fill="#748fc8"/>
    <rect id="Rectángulo_358950" data-name="Rectángulo 358950" width="5.768" height="9.417" transform="translate(475.063 405.605)" fill="#576b96"/>
    <rect id="Rectángulo_358951" data-name="Rectángulo 358951" width="9.503" height="3.479" transform="translate(473.199 400.218)" fill="#576b96"/>
    <rect id="Rectángulo_358952" data-name="Rectángulo 358952" width="5.768" height="9.417" transform="translate(494.11 405.605)" fill="#576b96"/>
    <rect id="Rectángulo_358953" data-name="Rectángulo 358953" width="9.503" height="3.479" transform="translate(492.246 400.218)" fill="#576b96"/>
    <rect id="Rectángulo_358954" data-name="Rectángulo 358954" width="5.768" height="9.417" transform="translate(512.86 405.605)" fill="#576b96"/>
    <rect id="Rectángulo_358955" data-name="Rectángulo 358955" width="9.503" height="3.479" transform="translate(510.993 400.218)" fill="#576b96"/>
    <rect id="Rectángulo_358956" data-name="Rectángulo 358956" width="53.503" height="17.308" transform="translate(470.089 335.613)" fill="#748fc8"/>
    <rect id="Rectángulo_358957" data-name="Rectángulo 358957" width="70.499" height="24.658" transform="translate(461.746 310.955)" fill="#576b96"/>
    <rect id="Rectángulo_358958" data-name="Rectángulo 358958" width="46.718" height="4.526" transform="translate(473.482 306.43)" fill="#748fc8"/>
    <rect id="Rectángulo_358959" data-name="Rectángulo 358959" width="61.265" height="6.463" transform="translate(466.404 314.653)" fill="#d8e4fd"/>
    <path id="Trazado_756600" data-name="Trazado 756600" d="M1194.865,455.635v5.8h-60.6v-5.8h60.6m.665-.665H1133.6V462.1h61.93V454.97Z" transform="translate(-667.528 -140.649)" fill="#1a0f91"/>
    <rect id="Rectángulo_358960" data-name="Rectángulo 358960" width="61.265" height="6.463" transform="translate(466.404 325.3)" fill="#d8e4fd"/>
    <path id="Trazado_756601" data-name="Trazado 756601" d="M1194.865,487.675v5.8h-60.6v-5.8h60.6m.665-.665H1133.6v7.127h61.93V487.01Z" transform="translate(-667.528 -162.043)" fill="#1a0f91"/>
    <line id="Línea_3334" data-name="Línea 3334" y2="5.994" transform="translate(473.764 314.886)" fill="none" stroke="#1a0f91" stroke-miterlimit="10" stroke-width="2"/>
    <line id="Línea_3335" data-name="Línea 3335" y2="5.994" transform="translate(481.513 314.886)" fill="none" stroke="#1a0f91" stroke-miterlimit="10" stroke-width="2"/>
    <line id="Línea_3336" data-name="Línea 3336" y2="5.994" transform="translate(489.262 314.886)" fill="none" stroke="#1a0f91" stroke-miterlimit="10" stroke-width="2"/>
    <line id="Línea_3337" data-name="Línea 3337" y2="5.994" transform="translate(497.01 314.886)" fill="none" stroke="#1a0f91" stroke-miterlimit="10" stroke-width="2"/>
    <line id="Línea_3338" data-name="Línea 3338" y2="5.994" transform="translate(504.759 314.886)" fill="none" stroke="#1a0f91" stroke-miterlimit="10" stroke-width="2"/>
    <line id="Línea_3339" data-name="Línea 3339" y2="5.994" transform="translate(512.508 314.886)" fill="none" stroke="#1a0f91" stroke-miterlimit="10" stroke-width="2"/>
    <line id="Línea_3340" data-name="Línea 3340" y2="5.994" transform="translate(520.253 314.886)" fill="none" stroke="#1a0f91" stroke-miterlimit="10" stroke-width="2"/>
    <line id="Línea_3341" data-name="Línea 3341" y2="5.998" transform="translate(473.764 325.532)" fill="none" stroke="#1a0f91" stroke-miterlimit="10" stroke-width="2"/>
    <line id="Línea_3342" data-name="Línea 3342" y2="5.998" transform="translate(481.513 325.532)" fill="none" stroke="#1a0f91" stroke-miterlimit="10" stroke-width="2"/>
    <line id="Línea_3343" data-name="Línea 3343" y2="5.998" transform="translate(489.262 325.532)" fill="none" stroke="#1a0f91" stroke-miterlimit="10" stroke-width="2"/>
    <line id="Línea_3344" data-name="Línea 3344" y2="5.998" transform="translate(497.01 325.532)" fill="none" stroke="#1a0f91" stroke-miterlimit="10" stroke-width="2"/>
    <line id="Línea_3345" data-name="Línea 3345" y2="5.998" transform="translate(504.759 325.532)" fill="none" stroke="#1a0f91" stroke-miterlimit="10" stroke-width="2"/>
    <line id="Línea_3346" data-name="Línea 3346" y2="5.998" transform="translate(512.508 325.532)" fill="none" stroke="#1a0f91" stroke-miterlimit="10" stroke-width="2"/>
    <line id="Línea_3347" data-name="Línea 3347" y2="5.998" transform="translate(520.253 325.532)" fill="none" stroke="#1a0f91" stroke-miterlimit="10" stroke-width="2"/>
    <rect id="Rectángulo_358961" data-name="Rectángulo 358961" width="4.2" height="5.768" transform="translate(463.314 335.613)" fill="#748fc8"/>
    <rect id="Rectángulo_358962" data-name="Rectángulo 358962" width="2.419" height="6.446" transform="translate(464.205 341.385)" fill="#576b96"/>
    <rect id="Rectángulo_358963" data-name="Rectángulo 358963" width="4.2" height="5.768" transform="translate(463.314 347.831)" fill="#748fc8"/>
    <rect id="Rectángulo_358964" data-name="Rectángulo 358964" width="4.2" height="5.768" transform="translate(526.547 335.613)" fill="#748fc8"/>
    <rect id="Rectángulo_358965" data-name="Rectángulo 358965" width="2.419" height="6.446" transform="translate(527.437 341.385)" fill="#576b96"/>
    <rect id="Rectángulo_358966" data-name="Rectángulo 358966" width="4.2" height="5.768" transform="translate(526.547 347.831)" fill="#748fc8"/>
    <rect id="Rectángulo_358967" data-name="Rectángulo 358967" width="5.768" height="9.417" transform="translate(475.063 343.505)" fill="#576b96"/>
    <rect id="Rectángulo_358968" data-name="Rectángulo 358968" width="9.503" height="3.479" transform="translate(473.199 338.119)" fill="#576b96"/>
    <rect id="Rectángulo_358969" data-name="Rectángulo 358969" width="5.768" height="9.417" transform="translate(494.11 343.505)" fill="#576b96"/>
    <rect id="Rectángulo_358970" data-name="Rectángulo 358970" width="9.503" height="3.479" transform="translate(492.246 338.119)" fill="#576b96"/>
    <rect id="Rectángulo_358971" data-name="Rectángulo 358971" width="5.768" height="9.417" transform="translate(512.86 343.505)" fill="#576b96"/>
    <rect id="Rectángulo_358972" data-name="Rectángulo 358972" width="9.503" height="3.479" transform="translate(510.993 338.119)" fill="#576b96"/>
    <rect id="Rectángulo_358973" data-name="Rectángulo 358973" width="53.503" height="17.308" transform="translate(470.089 273.514)" fill="#748fc8"/>
    <rect id="Rectángulo_358974" data-name="Rectángulo 358974" width="70.499" height="24.658" transform="translate(461.746 248.856)" fill="#576b96"/>
    <rect id="Rectángulo_358975" data-name="Rectángulo 358975" width="46.718" height="4.526" transform="translate(473.482 244.33)" fill="#748fc8"/>
    <rect id="Rectángulo_358976" data-name="Rectángulo 358976" width="61.265" height="6.463" transform="translate(466.404 252.554)" fill="#d8e4fd"/>
    <path id="Trazado_756602" data-name="Trazado 756602" d="M1194.865,268.745v5.8h-60.6v-5.8h60.6m.665-.665H1133.6v7.127h61.93V268.08Z" transform="translate(-667.528 -15.858)" fill="#1a0f91"/>
    <rect id="Rectángulo_358977" data-name="Rectángulo 358977" width="61.265" height="6.463" transform="translate(466.404 263.2)" fill="#d8e4fd"/>
    <path id="Trazado_756603" data-name="Trazado 756603" d="M1194.865,300.785v5.8h-60.6v-5.8h60.6m.665-.665H1133.6v7.127h61.93V300.12Z" transform="translate(-667.528 -37.252)" fill="#1a0f91"/>
    <line id="Línea_3348" data-name="Línea 3348" y2="5.994" transform="translate(473.764 252.786)" fill="none" stroke="#1a0f91" stroke-miterlimit="10" stroke-width="2"/>
    <line id="Línea_3349" data-name="Línea 3349" y2="5.994" transform="translate(481.513 252.786)" fill="none" stroke="#1a0f91" stroke-miterlimit="10" stroke-width="2"/>
    <line id="Línea_3350" data-name="Línea 3350" y2="5.994" transform="translate(489.262 252.786)" fill="none" stroke="#1a0f91" stroke-miterlimit="10" stroke-width="2"/>
    <line id="Línea_3351" data-name="Línea 3351" y2="5.994" transform="translate(497.01 252.786)" fill="none" stroke="#1a0f91" stroke-miterlimit="10" stroke-width="2"/>
    <line id="Línea_3352" data-name="Línea 3352" y2="5.994" transform="translate(504.759 252.786)" fill="none" stroke="#1a0f91" stroke-miterlimit="10" stroke-width="2"/>
    <line id="Línea_3353" data-name="Línea 3353" y2="5.994" transform="translate(512.508 252.786)" fill="none" stroke="#1a0f91" stroke-miterlimit="10" stroke-width="2"/>
    <line id="Línea_3354" data-name="Línea 3354" y2="5.994" transform="translate(520.253 252.786)" fill="none" stroke="#1a0f91" stroke-miterlimit="10" stroke-width="2"/>
    <line id="Línea_3355" data-name="Línea 3355" y2="5.994" transform="translate(473.764 263.433)" fill="none" stroke="#1a0f91" stroke-miterlimit="10" stroke-width="2"/>
    <line id="Línea_3356" data-name="Línea 3356" y2="5.994" transform="translate(481.513 263.433)" fill="none" stroke="#1a0f91" stroke-miterlimit="10" stroke-width="2"/>
    <line id="Línea_3357" data-name="Línea 3357" y2="5.994" transform="translate(489.262 263.433)" fill="none" stroke="#1a0f91" stroke-miterlimit="10" stroke-width="2"/>
    <line id="Línea_3358" data-name="Línea 3358" y2="5.994" transform="translate(497.01 263.433)" fill="none" stroke="#1a0f91" stroke-miterlimit="10" stroke-width="2"/>
    <line id="Línea_3359" data-name="Línea 3359" y2="5.994" transform="translate(504.759 263.433)" fill="none" stroke="#1a0f91" stroke-miterlimit="10" stroke-width="2"/>
    <line id="Línea_3360" data-name="Línea 3360" y2="5.994" transform="translate(512.508 263.433)" fill="none" stroke="#1a0f91" stroke-miterlimit="10" stroke-width="2"/>
    <line id="Línea_3361" data-name="Línea 3361" y2="5.994" transform="translate(520.253 263.433)" fill="none" stroke="#1a0f91" stroke-miterlimit="10" stroke-width="2"/>
    <rect id="Rectángulo_358978" data-name="Rectángulo 358978" width="4.2" height="5.768" transform="translate(463.314 273.514)" fill="#748fc8"/>
    <rect id="Rectángulo_358979" data-name="Rectángulo 358979" width="2.419" height="6.446" transform="translate(464.205 279.282)" fill="#576b96"/>
    <rect id="Rectángulo_358980" data-name="Rectángulo 358980" width="4.2" height="5.768" transform="translate(463.314 285.732)" fill="#748fc8"/>
    <rect id="Rectángulo_358981" data-name="Rectángulo 358981" width="4.2" height="5.768" transform="translate(526.547 273.514)" fill="#748fc8"/>
    <rect id="Rectángulo_358982" data-name="Rectángulo 358982" width="2.419" height="6.446" transform="translate(527.437 279.282)" fill="#576b96"/>
    <rect id="Rectángulo_358983" data-name="Rectángulo 358983" width="4.2" height="5.768" transform="translate(526.547 285.732)" fill="#748fc8"/>
    <rect id="Rectángulo_358984" data-name="Rectángulo 358984" width="5.768" height="9.417" transform="translate(475.063 281.406)" fill="#576b96"/>
    <rect id="Rectángulo_358985" data-name="Rectángulo 358985" width="9.503" height="3.479" transform="translate(473.199 276.016)" fill="#576b96"/>
    <rect id="Rectángulo_358986" data-name="Rectángulo 358986" width="5.768" height="9.417" transform="translate(494.11 281.406)" fill="#576b96"/>
    <rect id="Rectángulo_358987" data-name="Rectángulo 358987" width="9.503" height="3.479" transform="translate(492.246 276.016)" fill="#576b96"/>
    <rect id="Rectángulo_358988" data-name="Rectángulo 358988" width="5.768" height="9.417" transform="translate(512.86 281.406)" fill="#576b96"/>
    <rect id="Rectángulo_358989" data-name="Rectángulo 358989" width="9.503" height="3.479" transform="translate(510.993 276.016)" fill="#576b96"/>
    <path id="Trazado_756604" data-name="Trazado 756604" d="M244.55,639.59h-3.173v3.339h-1V635.37h4.682v.814h-3.685v2.592h3.173Z" transform="translate(-71.106 -261.106)" fill="#12263f"/>
    <path id="Trazado_756605" data-name="Trazado 756605" d="M260.238,642.095a2.037,2.037,0,0,1-.136-.591,2.135,2.135,0,0,1-1.6.695,1.985,1.985,0,0,1-1.362-.469,1.518,1.518,0,0,1-.532-1.193,1.585,1.585,0,0,1,.668-1.362,3.155,3.155,0,0,1,1.877-.485h.934v-.442a1.07,1.07,0,0,0-.3-.8,1.209,1.209,0,0,0-.887-.3,1.393,1.393,0,0,0-.861.259.763.763,0,0,0-.349.628h-.967a1.333,1.333,0,0,1,.3-.814,2.03,2.03,0,0,1,.811-.621,2.715,2.715,0,0,1,1.123-.229,2.231,2.231,0,0,1,1.522.485,1.754,1.754,0,0,1,.571,1.336v2.585a3.189,3.189,0,0,0,.2,1.229v.083h-1.007Zm-1.595-.731a1.679,1.679,0,0,0,.857-.233,1.435,1.435,0,0,0,.588-.608V639.37h-.754q-1.764,0-1.764,1.033a.86.86,0,0,0,.3.7,1.157,1.157,0,0,0,.774.256Zm.887-7.244h1.163l-1.392,1.525h-.774Z" transform="translate(-81.943 -260.271)" fill="#12263f"/>
    <path id="Trazado_756606" data-name="Trazado 756606" d="M279.255,639.34a3.342,3.342,0,0,1-.591,2.07,1.889,1.889,0,0,1-1.588.781,1.948,1.948,0,0,1-1.645-.754l-.047.648H274.5V634.11h.96v2.974a1.948,1.948,0,0,1,1.6-.721,1.912,1.912,0,0,1,1.608.774,3.447,3.447,0,0,1,.585,2.12v.083Zm-.96-.11a2.591,2.591,0,0,0-.379-1.515,1.255,1.255,0,0,0-1.09-.535,1.41,1.41,0,0,0-1.366.884v2.429a1.451,1.451,0,0,0,1.376.884,1.249,1.249,0,0,0,1.073-.535,2.76,2.76,0,0,0,.385-1.608Z" transform="translate(-93.888 -260.264)" fill="#12263f"/>
    <path id="Trazado_756607" data-name="Trazado 756607" d="M295.165,641.86a2.99,2.99,0,0,0-.472-.036,1.267,1.267,0,0,0-1.283.8v3.987h-.96V641h.934l.017.648a1.5,1.5,0,0,1,1.339-.754.958.958,0,0,1,.425.073v.894Z" transform="translate(-105.874 -264.792)" fill="#12263f"/>
    <path id="Trazado_756608" data-name="Trazado 756608" d="M303.29,635.615a.573.573,0,0,1,.143-.4.539.539,0,0,1,.422-.159.546.546,0,0,1,.425.159.57.57,0,0,1,.146.4.548.548,0,0,1-.146.389.557.557,0,0,1-.425.156.516.516,0,0,1-.565-.545Zm1.037,7.107h-.96V637.1h.96Z" transform="translate(-113.112 -260.899)" fill="#12263f"/>
    <path id="Trazado_756609" data-name="Trazado 756609" d="M312.785,645.954a1.373,1.373,0,0,0,.9-.312,1.091,1.091,0,0,0,.425-.777h.907a1.758,1.758,0,0,1-.332.92,2.2,2.2,0,0,1-.817.694,2.365,2.365,0,0,1-1.083.259,2.32,2.32,0,0,1-1.824-.764,3.051,3.051,0,0,1-.678-2.093v-.159a3.349,3.349,0,0,1,.3-1.459,2.268,2.268,0,0,1,.864-.99,2.454,2.454,0,0,1,1.332-.352,2.264,2.264,0,0,1,1.572.565,2.041,2.041,0,0,1,.668,1.469h-.907a1.336,1.336,0,0,0-.412-.9,1.288,1.288,0,0,0-.917-.349,1.337,1.337,0,0,0-1.133.528,2.475,2.475,0,0,0-.4,1.525v.183a2.428,2.428,0,0,0,.4,1.5,1.354,1.354,0,0,0,1.143.525Z" transform="translate(-117.779 -264.812)" fill="#12263f"/>
    <path id="Trazado_756610" data-name="Trazado 756610" d="M330.938,646.615a2.036,2.036,0,0,1-.136-.592,2.135,2.135,0,0,1-1.6.695,1.984,1.984,0,0,1-1.362-.469,1.518,1.518,0,0,1-.532-1.193,1.585,1.585,0,0,1,.668-1.362,3.156,3.156,0,0,1,1.877-.485h.934v-.442a1.07,1.07,0,0,0-.3-.8,1.209,1.209,0,0,0-.887-.3,1.393,1.393,0,0,0-.861.259.763.763,0,0,0-.349.628h-.967a1.333,1.333,0,0,1,.3-.814,2.031,2.031,0,0,1,.811-.621,2.716,2.716,0,0,1,1.123-.229,2.231,2.231,0,0,1,1.522.485,1.754,1.754,0,0,1,.572,1.336V645.3a3.189,3.189,0,0,0,.2,1.229v.083h-1.007Zm-1.595-.731a1.679,1.679,0,0,0,.857-.233,1.435,1.435,0,0,0,.588-.608V643.89h-.754q-1.764,0-1.764,1.033a.86.86,0,0,0,.3.7,1.156,1.156,0,0,0,.774.256Z" transform="translate(-129.151 -264.792)" fill="#12263f"/>
    <path id="Trazado_756611" data-name="Trazado 756611" d="M704.474,640.952h-3.167l-.711,1.977H699.57l2.887-7.559h.871l2.891,7.559H705.2Zm-2.864-.814h2.568l-1.289-3.536-1.283,3.536Z" transform="translate(-377.717 -261.106)" fill="#12263f"/>
    <path id="Trazado_756612" data-name="Trazado 756612" d="M723.4,642.095h-.96V634.12h.96Z" transform="translate(-392.988 -260.271)" fill="#12263f"/>
    <path id="Trazado_756613" data-name="Trazado 756613" d="M730.87,641l.027.625a2.074,2.074,0,0,1,1.668-.728,1.612,1.612,0,0,1,1.6.9,2.108,2.108,0,0,1,.731-.654,2.158,2.158,0,0,1,1.063-.249c1.233,0,1.857.651,1.881,1.957v3.765h-.96v-3.708a1.292,1.292,0,0,0-.276-.9,1.21,1.21,0,0,0-.924-.3,1.243,1.243,0,0,0-1.3,1.18v3.728h-.967V642.94a1.072,1.072,0,0,0-1.2-1.226,1.286,1.286,0,0,0-1.293.8v4.1h-.96V641h.907Z" transform="translate(-398.016 -264.798)" fill="#12263f"/>
    <path id="Trazado_756614" data-name="Trazado 756614" d="M761.148,646.615a2.04,2.04,0,0,1-.136-.592,2.135,2.135,0,0,1-1.6.695,1.984,1.984,0,0,1-1.362-.469,1.518,1.518,0,0,1-.532-1.193,1.585,1.585,0,0,1,.668-1.362,3.156,3.156,0,0,1,1.877-.485H761v-.442a1.07,1.07,0,0,0-.3-.8,1.209,1.209,0,0,0-.887-.3,1.393,1.393,0,0,0-.861.259.763.763,0,0,0-.349.628h-.967a1.333,1.333,0,0,1,.3-.814,2.031,2.031,0,0,1,.811-.621,2.716,2.716,0,0,1,1.123-.229,2.232,2.232,0,0,1,1.522.485,1.755,1.755,0,0,1,.572,1.336V645.3a3.188,3.188,0,0,0,.2,1.229v.083h-1.007Zm-1.595-.731a1.679,1.679,0,0,0,.857-.233,1.435,1.435,0,0,0,.588-.608V643.89h-.754q-1.764,0-1.764,1.033a.86.86,0,0,0,.3.7,1.156,1.156,0,0,0,.774.256Z" transform="translate(-416.411 -264.792)" fill="#12263f"/>
    <path id="Trazado_756615" data-name="Trazado 756615" d="M777.155,645.954a1.373,1.373,0,0,0,.9-.312,1.092,1.092,0,0,0,.425-.777h.907a1.757,1.757,0,0,1-.332.92,2.2,2.2,0,0,1-.817.694,2.365,2.365,0,0,1-1.083.259,2.32,2.32,0,0,1-1.824-.764,3.051,3.051,0,0,1-.678-2.093v-.159a3.349,3.349,0,0,1,.3-1.459,2.268,2.268,0,0,1,.864-.99,2.454,2.454,0,0,1,1.332-.352,2.264,2.264,0,0,1,1.572.565,2.04,2.04,0,0,1,.668,1.469h-.907a1.336,1.336,0,0,0-.412-.9,1.288,1.288,0,0,0-.917-.349,1.337,1.337,0,0,0-1.133.528,2.475,2.475,0,0,0-.4,1.525v.183a2.427,2.427,0,0,0,.4,1.5,1.353,1.353,0,0,0,1.143.525Z" transform="translate(-427.849 -264.812)" fill="#12263f"/>
    <path id="Trazado_756616" data-name="Trazado 756616" d="M794.005,642.191a2.444,2.444,0,0,1-1.857-.751,2.78,2.78,0,0,1-.718-2.007v-.176a3.369,3.369,0,0,1,.319-1.492,2.474,2.474,0,0,1,.894-1.027,2.258,2.258,0,0,1,1.243-.372,2.093,2.093,0,0,1,1.7.721,3.124,3.124,0,0,1,.608,2.067v.4h-3.8a2,2,0,0,0,.485,1.342,1.521,1.521,0,0,0,1.18.512,1.692,1.692,0,0,0,.861-.206,2.16,2.16,0,0,0,.618-.552l.588.459a2.36,2.36,0,0,1-2.12,1.087Zm-.12-5.037a1.278,1.278,0,0,0-.977.422,2.067,2.067,0,0,0-.488,1.186h2.814v-.073a1.809,1.809,0,0,0-.4-1.133,1.207,1.207,0,0,0-.957-.4Zm.468-3.044h1.163l-1.392,1.525h-.774Z" transform="translate(-439.054 -260.265)" fill="#12263f"/>
    <path id="Trazado_756617" data-name="Trazado 756617" d="M810.02,641l.03.7a2.051,2.051,0,0,1,1.681-.811c1.186,0,1.788.671,1.8,2.01v3.712h-.96v-3.718a1.282,1.282,0,0,0-.279-.9,1.119,1.119,0,0,0-.847-.292,1.386,1.386,0,0,0-.821.249,1.709,1.709,0,0,0-.552.655v4h-.96v-5.619h.907Z" transform="translate(-450.859 -264.792)" fill="#12263f"/>
    <path id="Trazado_756618" data-name="Trazado 756618" d="M1132.883,813.819V806.26h2.133a3.45,3.45,0,0,1,1.744.435,2.948,2.948,0,0,1,1.17,1.239,4.035,4.035,0,0,1,.419,1.847v.482a4.036,4.036,0,0,1-.412,1.874,2.9,2.9,0,0,1-1.18,1.236,3.64,3.64,0,0,1-1.784.442h-2.093Zm1-6.745V813h1.05a2.285,2.285,0,0,0,1.794-.718,2.961,2.961,0,0,0,.641-2.044V809.8a3.025,3.025,0,0,0-.6-2,2.154,2.154,0,0,0-1.715-.724h-1.163Z" transform="translate(-667.047 -375.213)" fill="#12263f"/>
    <path id="Trazado_756619" data-name="Trazado 756619" d="M1155.265,817.615a2.444,2.444,0,0,1-1.857-.751,2.78,2.78,0,0,1-.718-2.007v-.176a3.369,3.369,0,0,1,.319-1.492,2.476,2.476,0,0,1,.894-1.027,2.258,2.258,0,0,1,1.243-.372,2.093,2.093,0,0,1,1.7.721,3.124,3.124,0,0,1,.608,2.067v.4h-3.8a2,2,0,0,0,.485,1.342,1.522,1.522,0,0,0,1.18.512,1.692,1.692,0,0,0,.861-.206,2.162,2.162,0,0,0,.618-.552l.588.459a2.36,2.36,0,0,1-2.12,1.087Zm-.12-5.037a1.278,1.278,0,0,0-.977.422,2.065,2.065,0,0,0-.488,1.186h2.814v-.073a1.81,1.81,0,0,0-.4-1.133,1.207,1.207,0,0,0-.957-.4Z" transform="translate(-680.275 -378.905)" fill="#12263f"/>
    <path id="Trazado_756620" data-name="Trazado 756620" d="M1171.59,812.985h-.96V805.01h.96Z" transform="translate(-692.254 -374.378)" fill="#12263f"/>
    <path id="Trazado_756621" data-name="Trazado 756621" d="M1179.985,817.615a2.443,2.443,0,0,1-1.857-.751,2.78,2.78,0,0,1-.718-2.007v-.176a3.37,3.37,0,0,1,.319-1.492,2.476,2.476,0,0,1,.894-1.027,2.258,2.258,0,0,1,1.243-.372,2.093,2.093,0,0,1,1.7.721,3.124,3.124,0,0,1,.608,2.067v.4h-3.8a2,2,0,0,0,.485,1.342,1.522,1.522,0,0,0,1.18.512,1.692,1.692,0,0,0,.86-.206,2.162,2.162,0,0,0,.618-.552l.588.459a2.36,2.36,0,0,1-2.12,1.087Zm-.12-5.037a1.278,1.278,0,0,0-.977.422,2.067,2.067,0,0,0-.488,1.186h2.814v-.073a1.81,1.81,0,0,0-.4-1.133,1.207,1.207,0,0,0-.957-.4Z" transform="translate(-696.781 -378.905)" fill="#12263f"/>
    <path id="Trazado_756622" data-name="Trazado 756622" d="M1194.41,814.657a3.305,3.305,0,0,1,.608-2.09,2.092,2.092,0,0,1,3.213-.05l.046-.625h.877v5.483a2.279,2.279,0,0,1-.648,1.718,2.388,2.388,0,0,1-1.738.628,2.9,2.9,0,0,1-1.19-.259,2.017,2.017,0,0,1-.887-.711l.5-.575a1.879,1.879,0,0,0,1.512.764,1.474,1.474,0,0,0,1.093-.4,1.5,1.5,0,0,0,.392-1.11v-.482a1.976,1.976,0,0,1-1.572.665,1.909,1.909,0,0,1-1.595-.794A3.483,3.483,0,0,1,1194.41,814.657Zm.967.11a2.517,2.517,0,0,0,.389,1.492,1.264,1.264,0,0,0,1.09.542,1.414,1.414,0,0,0,1.336-.824v-2.565a1.425,1.425,0,0,0-1.322-.8,1.279,1.279,0,0,0-1.1.545A2.742,2.742,0,0,0,1195.377,814.767Z" transform="translate(-708.132 -378.905)" fill="#12263f"/>
    <path id="Trazado_756623" data-name="Trazado 756623" d="M1216.2,817.505a2.032,2.032,0,0,1-.136-.591,2.135,2.135,0,0,1-1.6.694,1.985,1.985,0,0,1-1.362-.469,1.518,1.518,0,0,1-.531-1.193,1.585,1.585,0,0,1,.668-1.362,3.156,3.156,0,0,1,1.877-.485h.934v-.442a1.069,1.069,0,0,0-.3-.8,1.209,1.209,0,0,0-.887-.3,1.393,1.393,0,0,0-.861.259.763.763,0,0,0-.349.628h-.967a1.333,1.333,0,0,1,.3-.814,2.031,2.031,0,0,1,.811-.621,2.715,2.715,0,0,1,1.123-.229,2.231,2.231,0,0,1,1.522.485,1.754,1.754,0,0,1,.572,1.336v2.585a3.2,3.2,0,0,0,.2,1.229v.083H1216.2Zm-1.6-.731a1.678,1.678,0,0,0,.857-.233,1.435,1.435,0,0,0,.588-.608V814.78h-.754q-1.764,0-1.764,1.033a.86.86,0,0,0,.3.7,1.157,1.157,0,0,0,.774.256Z" transform="translate(-720.258 -378.899)" fill="#12263f"/>
    <path id="Trazado_756624" data-name="Trazado 756624" d="M1232.205,816.854a1.372,1.372,0,0,0,.9-.312,1.092,1.092,0,0,0,.425-.777h.907a1.758,1.758,0,0,1-.332.92,2.2,2.2,0,0,1-.817.694,2.366,2.366,0,0,1-1.083.259,2.32,2.32,0,0,1-1.824-.764,3.051,3.051,0,0,1-.678-2.093v-.16a3.348,3.348,0,0,1,.3-1.459,2.267,2.267,0,0,1,.864-.99,2.454,2.454,0,0,1,1.333-.352,2.264,2.264,0,0,1,1.572.565,2.041,2.041,0,0,1,.668,1.469h-.907a1.336,1.336,0,0,0-.412-.9,1.288,1.288,0,0,0-.917-.349,1.336,1.336,0,0,0-1.133.528,2.473,2.473,0,0,0-.4,1.525v.183a2.427,2.427,0,0,0,.4,1.5,1.353,1.353,0,0,0,1.143.525Z" transform="translate(-731.696 -378.925)" fill="#12263f"/>
    <path id="Trazado_756625" data-name="Trazado 756625" d="M1247.22,806.5a.573.573,0,0,1,.143-.4.539.539,0,0,1,.422-.159.547.547,0,0,1,.425.159.57.57,0,0,1,.146.4.548.548,0,0,1-.146.389.558.558,0,0,1-.425.156.516.516,0,0,1-.565-.545Zm1.037,7.107h-.96v-5.619h.96Z" transform="translate(-743.395 -375.006)" fill="#12263f"/>
    <path id="Trazado_756626" data-name="Trazado 756626" d="M1254.2,814.651a3.315,3.315,0,0,1,.326-1.485,2.428,2.428,0,0,1,.9-1.017,2.458,2.458,0,0,1,1.323-.359,2.381,2.381,0,0,1,1.857.794,3.039,3.039,0,0,1,.708,2.113v.066a3.349,3.349,0,0,1-.315,1.472,2.361,2.361,0,0,1-.9,1.013,2.485,2.485,0,0,1-1.343.362,2.366,2.366,0,0,1-1.851-.794,3.039,3.039,0,0,1-.708-2.1v-.066Zm.967.113a2.407,2.407,0,0,0,.432,1.5,1.468,1.468,0,0,0,2.323-.01,2.636,2.636,0,0,0,.432-1.608,2.4,2.4,0,0,0-.439-1.5,1.4,1.4,0,0,0-1.166-.575,1.365,1.365,0,0,0-1.146.565,2.6,2.6,0,0,0-.435,1.622Z" transform="translate(-748.055 -378.905)" fill="#12263f"/>
    <path id="Trazado_756627" data-name="Trazado 756627" d="M1274.12,811.9l.03.7a2.051,2.051,0,0,1,1.681-.811q1.78,0,1.8,2.01v3.711h-.96v-3.718a1.282,1.282,0,0,0-.279-.9,1.119,1.119,0,0,0-.847-.292,1.387,1.387,0,0,0-.821.249,1.712,1.712,0,0,0-.552.655v4h-.96v-5.619h.907Z" transform="translate(-760.749 -378.905)" fill="#12263f"/>
    <path id="Trazado_756628" data-name="Trazado 756628" d="M1292.715,817.615a2.443,2.443,0,0,1-1.857-.751,2.779,2.779,0,0,1-.718-2.007v-.176a3.37,3.37,0,0,1,.319-1.492,2.475,2.475,0,0,1,.894-1.027,2.258,2.258,0,0,1,1.243-.372,2.093,2.093,0,0,1,1.7.721,3.123,3.123,0,0,1,.608,2.067v.4h-3.8a2,2,0,0,0,.485,1.342,1.521,1.521,0,0,0,1.18.512,1.692,1.692,0,0,0,.86-.206,2.164,2.164,0,0,0,.618-.552l.588.459a2.36,2.36,0,0,1-2.12,1.087Zm-.12-5.037a1.278,1.278,0,0,0-.977.422,2.067,2.067,0,0,0-.488,1.186h2.814v-.073a1.809,1.809,0,0,0-.4-1.133,1.206,1.206,0,0,0-.957-.4Z" transform="translate(-772.053 -378.905)" fill="#12263f"/>
    <path id="Trazado_756629" data-name="Trazado 756629" d="M1310.625,816.023a.7.7,0,0,0-.292-.6,2.9,2.9,0,0,0-1.023-.372,4.925,4.925,0,0,1-1.156-.372,1.634,1.634,0,0,1-.635-.518,1.241,1.241,0,0,1-.206-.718,1.465,1.465,0,0,1,.585-1.17,2.277,2.277,0,0,1,1.492-.479,2.357,2.357,0,0,1,1.548.492,1.573,1.573,0,0,1,.595,1.263h-.967a.876.876,0,0,0-.335-.681,1.26,1.26,0,0,0-.844-.286,1.33,1.33,0,0,0-.821.229.725.725,0,0,0-.3.6.587.587,0,0,0,.276.525,3.486,3.486,0,0,0,.993.339,5.139,5.139,0,0,1,1.166.385,1.69,1.69,0,0,1,.661.538,1.326,1.326,0,0,1,.216.764,1.434,1.434,0,0,1-.6,1.206,2.533,2.533,0,0,1-1.562.455,2.82,2.82,0,0,1-1.193-.239,1.955,1.955,0,0,1-.814-.668,1.6,1.6,0,0,1-.292-.927h.96a.988.988,0,0,0,.385.764,1.5,1.5,0,0,0,.954.282,1.555,1.555,0,0,0,.874-.219.675.675,0,0,0,.329-.588Z" transform="translate(-783.391 -378.905)" fill="#12263f"/>
    <path id="Trazado_756630" data-name="Trazado 756630" d="M1569.354,324.68a2.672,2.672,0,0,1-.9,1.921,3.16,3.16,0,0,1-2.143.7,2.835,2.835,0,0,1-2.286-.98,4.016,4.016,0,0,1-.834-2.688v-.462a4.485,4.485,0,0,1,.386-1.921,2.875,2.875,0,0,1,1.1-1.276,3.423,3.423,0,0,1,3.765.256,2.882,2.882,0,0,1,.924,1.967H1567.8a1.586,1.586,0,0,0-.409-1.063,1.508,1.508,0,0,0-1.067-.329,1.327,1.327,0,0,0-1.166.558,3.114,3.114,0,0,0-.4,1.731v.572a3.324,3.324,0,0,0,.372,1.791,1.292,1.292,0,0,0,1.17.565,1.535,1.535,0,0,0,1.077-.329,1.5,1.5,0,0,0,.409-1.02h1.558Z" transform="translate(-954.375 -50.213)" fill="#12263f"/>
    <path id="Trazado_756631" data-name="Trazado 756631" d="M1586.255,326.585h-1.505V318.61h1.505Z" transform="translate(-968.771 -49.598)" fill="#12263f"/>
    <path id="Trazado_756632" data-name="Trazado 756632" d="M1592.957,319.774a.741.741,0,0,1,.226-.555.966.966,0,0,1,1.226,0,.79.79,0,0,1,0,1.116.962.962,0,0,1-1.223,0,.744.744,0,0,1-.233-.562Zm1.595,7.071h-1.505v-5.619h1.505Z" transform="translate(-974.246 -49.859)" fill="#12263f"/>
    <path id="Trazado_756633" data-name="Trazado 756633" d="M1603.668,331.215a2.751,2.751,0,0,1-2.01-.758,2.694,2.694,0,0,1-.778-2.02v-.146a3.4,3.4,0,0,1,.326-1.512,2.4,2.4,0,0,1,.927-1.027,2.608,2.608,0,0,1,1.369-.362,2.331,2.331,0,0,1,1.814.728,2.952,2.952,0,0,1,.661,2.06v.611H1602.4a1.4,1.4,0,0,0,.439.884,1.316,1.316,0,0,0,.927.332,1.621,1.621,0,0,0,1.356-.628l.738.824a2.227,2.227,0,0,1-.914.744,3.035,3.035,0,0,1-1.276.266Zm-.173-4.615a.933.933,0,0,0-.724.3,1.575,1.575,0,0,0-.355.867h2.086v-.12a1.119,1.119,0,0,0-.269-.774.966.966,0,0,0-.738-.272Z" transform="translate(-979.541 -54.126)" fill="#12263f"/>
    <path id="Trazado_756634" data-name="Trazado 756634" d="M1620.1,325.486l.046.648a1.965,1.965,0,0,1,1.615-.754,1.635,1.635,0,0,1,1.329.525,2.432,2.432,0,0,1,.445,1.568V331.1h-1.5V327.51a.991.991,0,0,0-.206-.694.936.936,0,0,0-.691-.216,1.035,1.035,0,0,0-.95.538V331.1h-1.5V325.48h1.412Z" transform="translate(-991.426 -54.119)" fill="#12263f"/>
    <path id="Trazado_756635" data-name="Trazado 756635" d="M1637.456,321.54v1.382h.96v1.1h-.96v2.8a.667.667,0,0,0,.12.445.6.6,0,0,0,.458.136,2.5,2.5,0,0,0,.442-.037v1.136a3.109,3.109,0,0,1-.907.136,1.431,1.431,0,0,1-1.608-1.595v-3.027h-.821v-1.1h.821V321.54h1.5Z" transform="translate(-1002.417 -51.555)" fill="#12263f"/>
    <path id="Trazado_756636" data-name="Trazado 756636" d="M1649.7,331.215a2.751,2.751,0,0,1-2.01-.758,2.693,2.693,0,0,1-.777-2.02v-.146a3.4,3.4,0,0,1,.326-1.512,2.4,2.4,0,0,1,.927-1.027,2.608,2.608,0,0,1,1.369-.362,2.331,2.331,0,0,1,1.814.728,2.952,2.952,0,0,1,.661,2.06v.611h-3.579a1.4,1.4,0,0,0,.438.884,1.317,1.317,0,0,0,.927.332,1.621,1.621,0,0,0,1.356-.628l.738.824a2.228,2.228,0,0,1-.914.744,3.035,3.035,0,0,1-1.276.266Zm-.173-4.615a.933.933,0,0,0-.724.3,1.578,1.578,0,0,0-.355.867h2.087v-.12a1.118,1.118,0,0,0-.269-.774.965.965,0,0,0-.738-.272Z" transform="translate(-1010.276 -54.126)" fill="#12263f"/>
    <path id="Trazado_756637" data-name="Trazado 756637" d="M1667.293,329.567a.477.477,0,0,0-.272-.432,3.106,3.106,0,0,0-.874-.282q-2-.419-2-1.7a1.543,1.543,0,0,1,.621-1.249,2.507,2.507,0,0,1,1.621-.5,2.7,2.7,0,0,1,1.711.505,1.583,1.583,0,0,1,.641,1.309h-1.5a.729.729,0,0,0-.206-.532.883.883,0,0,0-.648-.209.893.893,0,0,0-.588.173.533.533,0,0,0-.206.435.465.465,0,0,0,.236.4,2.429,2.429,0,0,0,.8.266,6.414,6.414,0,0,1,.944.253,1.556,1.556,0,0,1,1.19,1.512,1.464,1.464,0,0,1-.658,1.243,2.847,2.847,0,0,1-1.7.475,2.929,2.929,0,0,1-1.253-.253,2.106,2.106,0,0,1-.86-.691,1.616,1.616,0,0,1-.312-.947h1.422a.779.779,0,0,0,.3.611,1.166,1.166,0,0,0,.738.213,1.082,1.082,0,0,0,.651-.163.511.511,0,0,0,.219-.429Z" transform="translate(-1021.668 -54.132)" fill="#12263f"/>
    <path id="Trazado_756638" data-name="Trazado 756638" d="M1690.584,330.109h2.748v1.21h-4.662v-.914l2.642-3.5h-2.565V325.7h4.5v.884Z" transform="translate(-1038.16 -54.333)" fill="#12263f"/>
    <path id="Trazado_756639" data-name="Trazado 756639" d="M1704.57,328.251a3.3,3.3,0,0,1,.322-1.489,2.342,2.342,0,0,1,.927-1.013,2.7,2.7,0,0,1,1.406-.359,2.573,2.573,0,0,1,1.857.694,2.787,2.787,0,0,1,.8,1.891l.01.385a2.934,2.934,0,0,1-.721,2.073,2.8,2.8,0,0,1-3.878,0,2.979,2.979,0,0,1-.724-2.12Zm1.5.106a2.088,2.088,0,0,0,.3,1.226.993.993,0,0,0,.861.425.982.982,0,0,0,.851-.419,2.307,2.307,0,0,0,.306-1.339,2.079,2.079,0,0,0-.306-1.216,1,1,0,0,0-.86-.432.975.975,0,0,0-.851.429,2.318,2.318,0,0,0-.3,1.329Z" transform="translate(-1048.777 -54.126)" fill="#12263f"/>
    <path id="Trazado_756640" data-name="Trazado 756640" d="M1724.676,325.486l.047.648a1.965,1.965,0,0,1,1.615-.754,1.635,1.635,0,0,1,1.329.525,2.431,2.431,0,0,1,.445,1.568V331.1h-1.5V327.51a.991.991,0,0,0-.206-.694.936.936,0,0,0-.691-.216,1.035,1.035,0,0,0-.95.538V331.1h-1.5V325.48h1.412Z" transform="translate(-1061.257 -54.119)" fill="#12263f"/>
    <path id="Trazado_756641" data-name="Trazado 756641" d="M1744.089,331.118a1.62,1.62,0,0,1-.15-.505,1.815,1.815,0,0,1-1.419.608,1.993,1.993,0,0,1-1.369-.478,1.535,1.535,0,0,1-.542-1.2,1.58,1.58,0,0,1,.661-1.369,3.266,3.266,0,0,1,1.914-.482h.691v-.322a.933.933,0,0,0-.2-.625.787.787,0,0,0-.631-.233.885.885,0,0,0-.595.183.624.624,0,0,0-.216.5h-1.5a1.5,1.5,0,0,1,.3-.9,1.985,1.985,0,0,1,.851-.651,3.118,3.118,0,0,1,1.236-.236,2.445,2.445,0,0,1,1.648.522,1.832,1.832,0,0,1,.611,1.465v2.436a2.627,2.627,0,0,0,.223,1.209v.09h-1.515Zm-1.239-1.043a1.272,1.272,0,0,0,.611-.15.986.986,0,0,0,.415-.4v-.967h-.562c-.751,0-1.15.259-1.2.778l-.007.09a.605.605,0,0,0,.2.462.755.755,0,0,0,.538.183Z" transform="translate(-1072.842 -54.132)" fill="#12263f"/>
    <path id="Trazado_756642" data-name="Trazado 756642" d="M1769.694,325.861h-2.731l-.518,1.558h-1.655l2.814-7.559h1.442l2.831,7.559h-1.655l-.525-1.558Zm-2.309-1.263h1.891l-.95-2.831Z" transform="translate(-1088.987 -50.433)" fill="#12263f"/>
    <path id="Trazado_756643" data-name="Trazado 756643" d="M1569.654,503.74a2.672,2.672,0,0,1-.9,1.921,3.16,3.16,0,0,1-2.143.7,2.835,2.835,0,0,1-2.286-.98,4.016,4.016,0,0,1-.834-2.688v-.462a4.485,4.485,0,0,1,.385-1.921,2.877,2.877,0,0,1,1.1-1.276,3.424,3.424,0,0,1,3.765.256,2.883,2.883,0,0,1,.924,1.967H1568.1a1.587,1.587,0,0,0-.409-1.063,1.508,1.508,0,0,0-1.067-.329,1.327,1.327,0,0,0-1.166.558,3.142,3.142,0,0,0-.4,1.731v.572a3.324,3.324,0,0,0,.372,1.791,1.293,1.293,0,0,0,1.17.565,1.535,1.535,0,0,0,1.077-.329,1.5,1.5,0,0,0,.408-1.02h1.558Z" transform="translate(-954.575 -169.775)" fill="#12263f"/>
    <path id="Trazado_756644" data-name="Trazado 756644" d="M1586.555,505.645h-1.505V497.67h1.505Z" transform="translate(-968.971 -169.161)" fill="#12263f"/>
    <path id="Trazado_756645" data-name="Trazado 756645" d="M1593.257,498.834a.741.741,0,0,1,.226-.555.967.967,0,0,1,1.226,0,.79.79,0,0,1,0,1.116.962.962,0,0,1-1.223,0,.744.744,0,0,1-.232-.562Zm1.595,7.071h-1.505v-5.619h1.505Z" transform="translate(-974.447 -169.421)" fill="#12263f"/>
    <path id="Trazado_756646" data-name="Trazado 756646" d="M1603.968,510.275a2.751,2.751,0,0,1-2.01-.758,2.694,2.694,0,0,1-.778-2.02v-.146a3.4,3.4,0,0,1,.326-1.512,2.4,2.4,0,0,1,.927-1.027,2.616,2.616,0,0,1,1.369-.362,2.331,2.331,0,0,1,1.814.728,2.952,2.952,0,0,1,.661,2.06v.611H1602.7a1.418,1.418,0,0,0,.439.884,1.317,1.317,0,0,0,.927.332,1.621,1.621,0,0,0,1.356-.628l.738.824a2.227,2.227,0,0,1-.914.744,3.035,3.035,0,0,1-1.276.266Zm-.173-4.615a.933.933,0,0,0-.724.3,1.576,1.576,0,0,0-.356.867h2.087v-.12a1.12,1.12,0,0,0-.269-.774.966.966,0,0,0-.738-.272Z" transform="translate(-979.741 -173.688)" fill="#12263f"/>
    <path id="Trazado_756647" data-name="Trazado 756647" d="M1620.4,504.556l.047.648a1.964,1.964,0,0,1,1.615-.754,1.635,1.635,0,0,1,1.329.525,2.431,2.431,0,0,1,.445,1.568v3.629h-1.5V506.58a.991.991,0,0,0-.206-.695.936.936,0,0,0-.691-.216,1.035,1.035,0,0,0-.95.538v3.961h-1.5V504.55h1.412Z" transform="translate(-991.627 -173.688)" fill="#12263f"/>
    <path id="Trazado_756648" data-name="Trazado 756648" d="M1637.756,500.61v1.382h.96v1.1h-.96v2.8a.668.668,0,0,0,.12.445.6.6,0,0,0,.458.136,2.5,2.5,0,0,0,.442-.037v1.136a3.109,3.109,0,0,1-.907.136,1.431,1.431,0,0,1-1.608-1.595v-3.027h-.821v-1.1h.821V500.61h1.5Z" transform="translate(-1002.617 -171.124)" fill="#12263f"/>
    <path id="Trazado_756649" data-name="Trazado 756649" d="M1650,510.275a2.75,2.75,0,0,1-2.01-.758,2.693,2.693,0,0,1-.777-2.02v-.146a3.4,3.4,0,0,1,.326-1.512,2.4,2.4,0,0,1,.927-1.027,2.616,2.616,0,0,1,1.369-.362,2.332,2.332,0,0,1,1.814.728,2.953,2.953,0,0,1,.661,2.06v.611h-3.579a1.417,1.417,0,0,0,.439.884,1.316,1.316,0,0,0,.927.332,1.621,1.621,0,0,0,1.356-.628l.738.824a2.227,2.227,0,0,1-.914.744,3.034,3.034,0,0,1-1.276.266Zm-.173-4.615a.933.933,0,0,0-.724.3,1.577,1.577,0,0,0-.356.867h2.087v-.12a1.119,1.119,0,0,0-.269-.774.966.966,0,0,0-.738-.272Z" transform="translate(-1010.477 -173.688)" fill="#12263f"/>
    <path id="Trazado_756650" data-name="Trazado 756650" d="M1667.593,508.627a.477.477,0,0,0-.272-.432,3.072,3.072,0,0,0-.874-.282q-2-.419-2-1.7a1.543,1.543,0,0,1,.621-1.249,2.508,2.508,0,0,1,1.622-.5,2.7,2.7,0,0,1,1.711.505,1.583,1.583,0,0,1,.641,1.309h-1.5a.729.729,0,0,0-.206-.532.884.884,0,0,0-.648-.209.894.894,0,0,0-.588.173.534.534,0,0,0-.206.435.465.465,0,0,0,.236.4,2.428,2.428,0,0,0,.8.266,6.418,6.418,0,0,1,.944.253,1.557,1.557,0,0,1,1.19,1.512,1.465,1.465,0,0,1-.658,1.243,2.847,2.847,0,0,1-1.7.475,2.939,2.939,0,0,1-1.253-.253,2.1,2.1,0,0,1-.861-.691,1.617,1.617,0,0,1-.312-.947h1.422a.779.779,0,0,0,.3.611,1.166,1.166,0,0,0,.738.213,1.082,1.082,0,0,0,.651-.163.512.512,0,0,0,.219-.429Z" transform="translate(-1021.868 -173.694)" fill="#12263f"/>
    <path id="Trazado_756651" data-name="Trazado 756651" d="M1690.874,509.169h2.748v1.209h-4.662v-.914l2.641-3.5h-2.565v-1.21h4.5v.884Z" transform="translate(-1038.354 -173.895)" fill="#12263f"/>
    <path id="Trazado_756652" data-name="Trazado 756652" d="M1704.86,507.311a3.3,3.3,0,0,1,.322-1.489,2.384,2.384,0,0,1,.927-1.013,2.7,2.7,0,0,1,1.406-.359,2.573,2.573,0,0,1,1.857.694,2.788,2.788,0,0,1,.8,1.891l.01.385a2.934,2.934,0,0,1-.721,2.073,2.8,2.8,0,0,1-3.878,0,2.979,2.979,0,0,1-.724-2.12Zm1.5.106a2.089,2.089,0,0,0,.3,1.226.993.993,0,0,0,.861.425.982.982,0,0,0,.851-.419,2.308,2.308,0,0,0,.306-1.339,2.08,2.08,0,0,0-.306-1.216.994.994,0,0,0-.861-.432.975.975,0,0,0-.851.429,2.345,2.345,0,0,0-.3,1.329Z" transform="translate(-1048.971 -173.688)" fill="#12263f"/>
    <path id="Trazado_756653" data-name="Trazado 756653" d="M1724.975,504.556l.047.648a1.965,1.965,0,0,1,1.615-.754,1.636,1.636,0,0,1,1.329.525,2.43,2.43,0,0,1,.445,1.568v3.629h-1.5V506.58a.993.993,0,0,0-.206-.695.937.937,0,0,0-.691-.216,1.035,1.035,0,0,0-.95.538v3.961h-1.5V504.55h1.412Z" transform="translate(-1061.457 -173.688)" fill="#12263f"/>
    <path id="Trazado_756654" data-name="Trazado 756654" d="M1744.389,510.178a1.62,1.62,0,0,1-.149-.505,1.816,1.816,0,0,1-1.419.608,1.993,1.993,0,0,1-1.369-.478,1.535,1.535,0,0,1-.542-1.2,1.58,1.58,0,0,1,.661-1.369,3.265,3.265,0,0,1,1.914-.482h.691v-.322a.933.933,0,0,0-.2-.625.783.783,0,0,0-.631-.233.884.884,0,0,0-.595.183.625.625,0,0,0-.216.5h-1.5a1.5,1.5,0,0,1,.3-.9,1.985,1.985,0,0,1,.851-.651,3.116,3.116,0,0,1,1.236-.236,2.444,2.444,0,0,1,1.648.522,1.831,1.831,0,0,1,.612,1.465v2.436a2.63,2.63,0,0,0,.222,1.21v.09h-1.515Zm-1.239-1.043a1.272,1.272,0,0,0,.611-.15.984.984,0,0,0,.415-.4v-.967h-.561q-1.126,0-1.2.778l-.007.09a.606.606,0,0,0,.2.462.762.762,0,0,0,.538.183Z" transform="translate(-1073.042 -173.694)" fill="#12263f"/>
    <path id="Trazado_756655" data-name="Trazado 756655" d="M1767.01,506.479V498.92h2.648a3.471,3.471,0,0,1,2.087.528,1.8,1.8,0,0,1,.711,1.545,1.717,1.717,0,0,1-.286.98,1.653,1.653,0,0,1-.794.621,1.584,1.584,0,0,1,.917.588,1.744,1.744,0,0,1,.336,1.08,2,2,0,0,1-.695,1.651,3.148,3.148,0,0,1-1.984.571h-2.937Zm1.558-4.393h1.153c.784-.013,1.18-.326,1.18-.94a.873.873,0,0,0-.3-.741,1.577,1.577,0,0,0-.944-.226h-1.09v1.9Zm0,1.1v2.04h1.336a1.287,1.287,0,0,0,.861-.262.9.9,0,0,0,.309-.724.949.949,0,0,0-1.073-1.053h-1.429Z" transform="translate(-1090.47 -169.995)" fill="#12263f"/>
    <path id="Trazado_756656" data-name="Trazado 756656" d="M1569.394,682.81a2.672,2.672,0,0,1-.9,1.921,3.159,3.159,0,0,1-2.143.7,2.835,2.835,0,0,1-2.286-.98,4.016,4.016,0,0,1-.834-2.688V681.3a4.483,4.483,0,0,1,.385-1.921,2.874,2.874,0,0,1,1.1-1.276,3.424,3.424,0,0,1,3.765.256,2.883,2.883,0,0,1,.924,1.967h-1.558a1.586,1.586,0,0,0-.409-1.063,1.508,1.508,0,0,0-1.067-.329,1.327,1.327,0,0,0-1.166.558,3.141,3.141,0,0,0-.4,1.731v.572a3.325,3.325,0,0,0,.372,1.791,1.293,1.293,0,0,0,1.17.565,1.535,1.535,0,0,0,1.076-.329,1.5,1.5,0,0,0,.409-1.02h1.558Z" transform="translate(-954.401 -289.344)" fill="#12263f"/>
    <path id="Trazado_756657" data-name="Trazado 756657" d="M1586.305,684.715H1584.8V676.74h1.505Z" transform="translate(-968.804 -288.73)" fill="#12263f"/>
    <path id="Trazado_756658" data-name="Trazado 756658" d="M1593,677.894a.741.741,0,0,1,.226-.555.966.966,0,0,1,1.226,0,.79.79,0,0,1,0,1.116.962.962,0,0,1-1.223,0,.744.744,0,0,1-.233-.562Zm1.595,7.071h-1.505v-5.619h1.505Z" transform="translate(-974.273 -288.983)" fill="#12263f"/>
    <path id="Trazado_756659" data-name="Trazado 756659" d="M1603.708,689.345a2.75,2.75,0,0,1-2.01-.758,2.693,2.693,0,0,1-.777-2.02v-.146a3.406,3.406,0,0,1,.326-1.512,2.4,2.4,0,0,1,.927-1.027,2.617,2.617,0,0,1,1.369-.362,2.332,2.332,0,0,1,1.814.728,2.953,2.953,0,0,1,.661,2.06v.611h-3.579a1.418,1.418,0,0,0,.439.884,1.317,1.317,0,0,0,.927.332,1.621,1.621,0,0,0,1.356-.628l.738.824a2.225,2.225,0,0,1-.914.744,3.033,3.033,0,0,1-1.276.266Zm-.173-4.615a.933.933,0,0,0-.724.3,1.575,1.575,0,0,0-.356.867h2.087v-.12a1.119,1.119,0,0,0-.269-.774.966.966,0,0,0-.738-.272Z" transform="translate(-979.568 -293.257)" fill="#12263f"/>
    <path id="Trazado_756660" data-name="Trazado 756660" d="M1620.135,683.616l.047.648a1.964,1.964,0,0,1,1.615-.754,1.636,1.636,0,0,1,1.329.525,2.433,2.433,0,0,1,.445,1.568v3.628h-1.5V685.64a.99.99,0,0,0-.206-.694.935.935,0,0,0-.691-.216,1.034,1.034,0,0,0-.95.538v3.961h-1.5V683.61h1.412Z" transform="translate(-991.453 -293.25)" fill="#12263f"/>
    <path id="Trazado_756661" data-name="Trazado 756661" d="M1637.5,679.67v1.382h.96v1.1h-.96v2.8a.668.668,0,0,0,.12.445.6.6,0,0,0,.459.136,2.5,2.5,0,0,0,.442-.036v1.136a3.108,3.108,0,0,1-.907.136,1.432,1.432,0,0,1-1.608-1.595v-3.027h-.821v-1.1H1636V679.67h1.5Z" transform="translate(-1002.444 -290.686)" fill="#12263f"/>
    <path id="Trazado_756662" data-name="Trazado 756662" d="M1649.738,689.345a2.75,2.75,0,0,1-2.01-.758,2.694,2.694,0,0,1-.778-2.02v-.146a3.4,3.4,0,0,1,.326-1.512,2.4,2.4,0,0,1,.927-1.027,2.616,2.616,0,0,1,1.369-.362,2.332,2.332,0,0,1,1.814.728,2.954,2.954,0,0,1,.661,2.06v.611h-3.579a1.417,1.417,0,0,0,.439.884,1.316,1.316,0,0,0,.927.332,1.621,1.621,0,0,0,1.356-.628l.738.824a2.226,2.226,0,0,1-.914.744,3.035,3.035,0,0,1-1.276.266Zm-.173-4.615a.933.933,0,0,0-.724.3,1.577,1.577,0,0,0-.355.867h2.087v-.12a1.12,1.12,0,0,0-.269-.774.966.966,0,0,0-.738-.272Z" transform="translate(-1010.303 -293.257)" fill="#12263f"/>
    <path id="Trazado_756663" data-name="Trazado 756663" d="M1667.333,687.687a.477.477,0,0,0-.272-.432,3.069,3.069,0,0,0-.874-.282q-2-.419-2-1.7a1.543,1.543,0,0,1,.621-1.249,2.507,2.507,0,0,1,1.622-.5,2.7,2.7,0,0,1,1.711.505,1.583,1.583,0,0,1,.641,1.309h-1.5a.73.73,0,0,0-.206-.532.884.884,0,0,0-.648-.209.893.893,0,0,0-.588.173.533.533,0,0,0-.206.435.465.465,0,0,0,.236.4,2.431,2.431,0,0,0,.8.266,6.407,6.407,0,0,1,.944.253,1.557,1.557,0,0,1,1.19,1.512,1.464,1.464,0,0,1-.658,1.243,2.846,2.846,0,0,1-1.7.475,2.939,2.939,0,0,1-1.253-.253,2.1,2.1,0,0,1-.861-.691,1.617,1.617,0,0,1-.312-.947h1.422a.778.778,0,0,0,.3.611,1.166,1.166,0,0,0,.738.213,1.083,1.083,0,0,0,.651-.163.512.512,0,0,0,.219-.429Z" transform="translate(-1021.694 -293.257)" fill="#12263f"/>
    <path id="Trazado_756664" data-name="Trazado 756664" d="M1690.624,688.239h2.748v1.209h-4.662v-.914l2.642-3.5h-2.565V683.83h4.5v.884l-2.665,3.525Z" transform="translate(-1038.187 -293.464)" fill="#12263f"/>
    <path id="Trazado_756665" data-name="Trazado 756665" d="M1704.61,686.381a3.305,3.305,0,0,1,.322-1.489,2.383,2.383,0,0,1,.927-1.013,2.7,2.7,0,0,1,1.406-.359,2.572,2.572,0,0,1,1.857.694,2.787,2.787,0,0,1,.8,1.891l.01.385a2.934,2.934,0,0,1-.721,2.073,2.8,2.8,0,0,1-3.878,0,2.98,2.98,0,0,1-.724-2.12v-.067Zm1.5.106a2.088,2.088,0,0,0,.3,1.226.993.993,0,0,0,.861.425.982.982,0,0,0,.851-.419,2.309,2.309,0,0,0,.306-1.339,2.081,2.081,0,0,0-.306-1.216.994.994,0,0,0-.861-.432.974.974,0,0,0-.851.429,2.345,2.345,0,0,0-.3,1.329Z" transform="translate(-1048.804 -293.257)" fill="#12263f"/>
    <path id="Trazado_756666" data-name="Trazado 756666" d="M1724.716,683.616l.047.648a1.964,1.964,0,0,1,1.615-.754,1.636,1.636,0,0,1,1.329.525,2.432,2.432,0,0,1,.445,1.568v3.628h-1.5V685.64a.99.99,0,0,0-.206-.694.935.935,0,0,0-.691-.216,1.035,1.035,0,0,0-.95.538v3.961h-1.5V683.61h1.412Z" transform="translate(-1061.284 -293.25)" fill="#12263f"/>
    <path id="Trazado_756667" data-name="Trazado 756667" d="M1744.129,689.248a1.617,1.617,0,0,1-.15-.505,1.816,1.816,0,0,1-1.419.608,1.994,1.994,0,0,1-1.369-.478,1.535,1.535,0,0,1-.542-1.2,1.58,1.58,0,0,1,.661-1.369,3.267,3.267,0,0,1,1.914-.482h.691V685.5a.934.934,0,0,0-.2-.625.783.783,0,0,0-.631-.233.885.885,0,0,0-.595.183.625.625,0,0,0-.216.5h-1.5a1.5,1.5,0,0,1,.3-.9,1.986,1.986,0,0,1,.851-.651,3.118,3.118,0,0,1,1.236-.236,2.445,2.445,0,0,1,1.648.522,1.831,1.831,0,0,1,.611,1.465v2.436a2.631,2.631,0,0,0,.223,1.209v.09h-1.515Zm-1.24-1.043a1.271,1.271,0,0,0,.611-.15.984.984,0,0,0,.415-.4v-.967h-.561c-.751,0-1.15.259-1.2.778l-.007.09a.6.6,0,0,0,.2.462.76.76,0,0,0,.538.183Z" transform="translate(-1072.869 -293.263)" fill="#12263f"/>
    <path id="Trazado_756668" data-name="Trazado 756668" d="M1772.224,682.81a2.673,2.673,0,0,1-.9,1.921,3.159,3.159,0,0,1-2.143.7,2.835,2.835,0,0,1-2.286-.98,4.016,4.016,0,0,1-.834-2.688V681.3a4.485,4.485,0,0,1,.385-1.921,2.876,2.876,0,0,1,1.1-1.276,3.424,3.424,0,0,1,3.765.256,2.882,2.882,0,0,1,.924,1.967h-1.558a1.587,1.587,0,0,0-.409-1.063,1.508,1.508,0,0,0-1.067-.329,1.327,1.327,0,0,0-1.166.558,3.144,3.144,0,0,0-.4,1.731v.572a3.325,3.325,0,0,0,.372,1.791,1.293,1.293,0,0,0,1.17.565,1.535,1.535,0,0,0,1.077-.329,1.5,1.5,0,0,0,.409-1.02h1.558Z" transform="translate(-1089.835 -289.344)" fill="#12263f"/>
    <path id="Trazado_756669" data-name="Trazado 756669" d="M516,501.241l-8.609-4.971v3.047H476.75v3.675h30.643v3.216Z" transform="translate(-228.935 -168.226)" fill="#576b96"/>
    <path id="Trazado_756670" data-name="Trazado 756670" d="M1003.152,322.171l-8.609-4.971v3.047H963.9v3.678h30.643v3.216Z" transform="translate(-554.216 -48.657)" fill="#576b96"/>
    <path id="Trazado_756671" data-name="Trazado 756671" d="M1003.152,501.241l-8.609-4.971v3.047H963.9v3.675h30.643v3.216Z" transform="translate(-554.216 -168.226)" fill="#576b96"/>
    <path id="Trazado_756672" data-name="Trazado 756672" d="M1003.152,680.3l-8.609-4.971v3.047H963.9v3.678h30.643v3.216Z" transform="translate(-554.216 -287.788)" fill="#576b96"/>
    <path id="Trazado_756673" data-name="Trazado 756673" d="M1426.212,322.171l-8.606-4.971v3.047H1386.96v3.678h30.646v3.216Z" transform="translate(-836.702 -48.657)" fill="#576b96"/>
    <path id="Trazado_756674" data-name="Trazado 756674" d="M1426.212,501.241l-8.606-4.971v3.047H1386.96v3.675h30.646v3.216Z" transform="translate(-836.702 -168.226)" fill="#576b96"/>
    <path id="Trazado_756675" data-name="Trazado 756675" d="M1426.212,680.3l-8.606-4.971v3.047H1386.96v3.678h30.646v3.216Z" transform="translate(-836.702 -287.788)" fill="#576b96"/>
    <rect id="Rectángulo_358990" data-name="Rectángulo 358990" width="117.769" height="3.675" transform="translate(413.359 274.747) rotate(90)" fill="#576b96"/>
    <rect id="Rectángulo_358991" data-name="Rectángulo 358991" width="22.396" height="3.675" transform="translate(411.834 334.766) rotate(180)" fill="#576b96"/>
    <path id="Trazado_756676" data-name="Trazado 756676" d="M719.749,428.3l-20.834-4.881-20.837-4.878-20.834,4.878L636.41,428.3h0V477.39h83.365V428.3Z" transform="translate(-335.543 -116.324)" fill="#57dbd8"/>
    <path id="Trazado_756677" data-name="Trazado 756677" d="M723.063,511.43H646.2V469.52h76.862Z" transform="translate(-342.081 -150.364)" fill="#45afac"/>
    <rect id="Rectángulo_358992" data-name="Rectángulo 358992" width="69.792" height="38.119" transform="translate(307.652 322.947)" fill="#348381"/>
    <rect id="Rectángulo_358993" data-name="Rectángulo 358993" width="32.69" height="15.497" transform="translate(310.027 345.569)" fill="#ffcdc8"/>
    <rect id="Rectángulo_358994" data-name="Rectángulo 358994" width="11.537" height="10.181" transform="translate(342.72 350.885)" fill="#fe7062"/>
    <rect id="Rectángulo_358995" data-name="Rectángulo 358995" width="11.537" height="10.181" transform="translate(330.077 335.388)" fill="#fe7062"/>
    <rect id="Rectángulo_358996" data-name="Rectángulo 358996" width="11.537" height="10.181" transform="translate(318.54 335.388)" fill="#cb594e"/>
    <rect id="Rectángulo_358997" data-name="Rectángulo 358997" width="9.334" height="8.234" transform="translate(364.269 352.832)" fill="#fe7062"/>
    <rect id="Rectángulo_358998" data-name="Rectángulo 358998" width="10.012" height="11.537" transform="translate(354.257 349.529)" fill="#ffcdc8"/>
    <path id="Trazado_756678" data-name="Trazado 756678" d="M678.094,428.3H636.41l20.841-4.881,20.844-4.878,20.841,4.878,20.84,4.881Z" transform="translate(-335.543 -116.324)" fill="#348381"/>
  </g>
</svg>
