<svg xmlns="http://www.w3.org/2000/svg" xmlns:xlink="http://www.w3.org/1999/xlink" width="1328" height="600" viewBox="0 0 1328 600">
  <defs>
    <linearGradient id="linear-gradient" x1="0.5" x2="0.5" y2="1" gradientUnits="objectBoundingBox">
      <stop offset="0" stop-color="#fff"/>
      <stop offset="0.463" stop-color="#e9fffe"/>
      <stop offset="1" stop-color="#fff"/>
    </linearGradient>
    <clipPath id="clip-path">
      <rect id="Rectángulo_358397" data-name="Rectángulo 358397" width="1240" height="581.377" fill="none"/>
    </clipPath>
    <clipPath id="clip-path-2">
      <rect id="Rectángulo_358407" data-name="Rectángulo 358407" width="105" height="89.854" fill="none"/>
    </clipPath>
  </defs>
  <g id="Grupo_1024070" data-name="Grupo 1024070" transform="translate(-134 -3217)">
    <rect id="Rectángulo_358409" data-name="Rectángulo 358409" width="1328" height="600" transform="translate(134 3217)" fill="url(#linear-gradient)"/>
    <path id="Trazado_755704" data-name="Trazado 755704" d="M148.541,197.38c2.043,0,2.3.74,4.049,0s6.924-4.152,8.675-4.62,2.875.153.295,1.59-7.764,4.548-6.84,4.313a64.614,64.614,0,0,0,7.257-3.105c3.712-1.75,3.374-.972,4.332-2.835l1.462-2.838s5.879,6.021,6.421,6.256.755-.04,1.045-.778.916-1.788,1.753-1.438.121,1.785.62,1.98,1.334-.037,2.878-.542.752-1.627.752-1.627-.164-.045,1.629-.2,7.421,1.9,9.089,2.563,6.719,1.206,8.137,1.668,1.954-.813,3.92.235,3.421,2.447,1.957,3.183-5.129,1.285-3.252,1.75a28.712,28.712,0,0,0,7.426.972c2.709-.081,7.587-1.087,9.086-1.087s2.421.932,3.839,3.3,2.542,3.3,3.084,3.495-.542-1.125-.253-2.291a9.113,9.113,0,0,0-.623-4.232c-.33-.778,0-1.165-.668-2.3s-1.748-.932.253-1.9,3.377-2.4,5.8-2.1,3.084,3.38,5.171,3.607,2.465,1.05,6.048,1.325,2.086.04,6.09.312,2.545-.433,3.377-2.487,1.753-2.45,2.711-2.368,4.333.542,4.333.971-1.415,2.637-.708,3.725,3.595,2.875,3.595,2.875-.628-2.485-.628-2.758-.209-2.21.209-2.563,2.795.195,4.293-2.721-1-2.758-1-2.758-.916.043-.457-1.162,3.128-1.94,3.128-1.94.169.542-.169-.433-2.08-.774-3.96-.892-3.165-.385-3.5-1.978a46.191,46.191,0,0,1-.459-7.225c0-2.292,1.838-1.478,2.168-2.758a33.18,33.18,0,0,0-.539-8.815c-.462-1.28.663-4.041.921-5.863.241-1.827,2.123-1.013,2.123-1.013-.335-.623.539-2.37,3.042-3.107s7.26.037,7.26.037-.42.04-1.587,1.555-.414,4.2-2.17,6.1-6.212,1.283-6.212,1.283,1.375,3.147.792,4.152a12.462,12.462,0,0,0-.956,3.073s3.92,1.085,4.127,3.57,2.164,2.912,2.626,5.2-1.917,4.2-1.418,4.543.666.507,2.089.583,3.334.349,3.334.349a2.392,2.392,0,0,0-.084,2.408c.71,1.244.167,2.022.248,3.342s.877,2.445,1.207,2.215a20.022,20.022,0,0,0,2.213-5.127c.332-1.518.584-2.333,1.248-2.333s2.922,2.061,3.171,2.8.419,1.75-.832,3.767-1.125,2.951-.04,3.728,1.127.547,3.084,1.478,1.587.852,2.795.5-.5-3.418-.378-3.493,2.883-.39,2.259-1.945-1.257-2.328.037-3.105,2.212-1.4,2.212-1.4a15.043,15.043,0,0,1-1.624-3.653c-.918-2.6.787-1.9,4.382-1.631s3.748,1.513,5.668,2.485.708,1.32,1.331,2.875-1.584,1.785-1.584,1.785-1.46.272-1.125,1.475a21.611,21.611,0,0,0,2.046,4.506c1.042,1.867-.29,3.147-1.922,4.662a7.836,7.836,0,0,1-5.459,1.98c-1.922.035-2.754.813-2.875.27a1.744,1.744,0,0,0-2.086-.815c-1.05.232-3.426,1.167-2.59,1.475s3.044.235,2.127,1.943-1.711,1.71-3.545,1.515-3.543-.193-4.717-.274-6.922-.427-6.922-.427a39.508,39.508,0,0,0,6.97,3.342,15.056,15.056,0,0,0,6.339.388s-1.254,2.328-2.758,4.815-2.919,1.4-4.164,1.555-2.006,1.165-4.338,1.473-7.217-.66-6.468-.307,1.085.967,2.42,1.165a5.684,5.684,0,0,1,3.337,1.4c1.167.972-.752,1.207-2.291,1.475a3.253,3.253,0,0,0-2.671,1.515c-.712.976-3.34,4.738-4.173,5.9a12.848,12.848,0,0,0-1.917,5.4c-.338,2.3-2.292,5.05-1.417,5.633s4.166.66,5.546,1.515,2.922,5.048,3.96,6.64,1.877,2.8,3.042,1.555,3.466-.932,5.633-.155a33.016,33.016,0,0,1,7.968,5.2c1.375,1.36,3.791,1.13,6.5,1.518s3.017,1.409,3.017,1.409,2.824.147,1.658,1.349-1.5.037-.338,2.057a9.143,9.143,0,0,1,.8,6.1c-.338,1.36,3.736.676,5.449,1.684s1.8,5.116,2.684,4.609,2.333-1.4,2.5-2.485a21.2,21.2,0,0,0-.209-4.39c-.169-1.866-.628-5.283-1.544-6.64s1.653-1.9,1.235-2.487-.319-1.745,1.434-2.215,1.877-.035,2.835-.776,1.125-4.192,1.291-5.435a13.565,13.565,0,0,0-.705-4.932,32.135,32.135,0,0,0-2.749-4.932c-.634-.7-1.42-.9.293-3.068s.705-1.71.456-2.37-.625-2.291-.958-3.765.708-3.11.081-5.208-1.291-1.627-1.165-2.1,4.084-.348,7.007-.037a16.663,16.663,0,0,0,4.916-.311c.837,0,2.341.818,3.965,1.866s2.252.778,3.088,2.057,1.291,1.98,3,1.9a9.171,9.171,0,0,1,3.553.737s-1.214.7-1,2.993a34.174,34.174,0,0,1-.212,4.892c.04.93.507.971,1.291,1.088s2.927,2.017,5.13,2.795,2.795.542,3.5-1.243.881-1.632,1.756-1.745,1.167.193,1.541-.195-.666-1.165-.419-2.4a8.688,8.688,0,0,1,2.465-3.81c1-.932,1.71.935,2.585,2.643s3.92,7.26,4.8,9.082,2,1.945.956,3.656-1.544,2.444.085,3.22,3.086,2.139,2.965,3.418-.465,1.322.082,1.673,2.5-.7,3.918-.077a13.792,13.792,0,0,1,4.129,2.212c1,1.013.921,1.36-.5,1.863a24.869,24.869,0,0,0-3.545,1.438c-.712.43-1.834,1.248-1.793,1.908s-.293,1.745.835.89a15.072,15.072,0,0,1,4.295-2.1c1.335-.385.333-.04,1.542-.195s2.376.584,4.049,1.05,1.207,1.515.789,2.486a2.964,2.964,0,0,0-.124,2.993c.67,1.085-.29,2.057-1.753,3.377s-2.542,1.515-4.918,1.826-3.509,1.747-5.174,3.3-2.5,1.167-4.921,1.285-1.458-1.2-2.207-.932a10.205,10.205,0,0,1-3.253,1.248c-1.547.153-6.761.23-8.764.813s-1.371,1.94-1.874,3.065-1.294.662-2.795,1.167-3.3,2.72-5.045,5.75a18.848,18.848,0,0,1-4.129,4.89,13.07,13.07,0,0,0,4.169-3.108c1.211-1.475,6.256-4.969,7.8-6.054s4.878-2.68,5.67-2.45,2.758,1.75,2.758,2.527-.588,1.4-2,2.717-3.3,0-3.171.542a3.661,3.661,0,0,0,2.21,2.057c1.085.27,1.038,1.6,1.038,2.255s-.623,1.513,1.877,3.611a7.616,7.616,0,0,0,6.095,2.135c1.833-.114.872.623,1.624.546s.918-1.515,1.165-2.68a4.844,4.844,0,0,1,1.336-2.758c.671-.505,1.165-1.437,1.378.353s-.752,4.23-1.716,4.775-.744,1.243-.744,1.785-1.087.583-3.675,2.02-3.418,1.785-3.876,1.592-1.418.235-2.664,1.36-2.587,2.643-3.5,2.6-1.713-.425-.462-1.708,1.673-3.067,2.919-3.69a5.057,5.057,0,0,1,2.878-.542c1.042,0,.543-.625,1.376-1.24s-.628-.433-2.046-.663-.332-1.479-.332-1.479l-1.463.777a18.509,18.509,0,0,1-2.793,1.248c-.579.072-.456.462-.623.7a8.644,8.644,0,0,1-2.252.388s-1.085,2.212-2.714,2.523-.494.195-1.668.7-.953-.58-1.206-.27a7.721,7.721,0,0,1-1.75,1.555c-1.294.974-2.049,1.283-2.964,4.818s.166,4.813.126,5.361-1.629-.353-2.083.072a7.4,7.4,0,0,1-2.883,2.138c-1.375.39-4.084,1.09-4.712,1.75s-.666,1.592-.959,2.947a29.511,29.511,0,0,1-1.919,4.548,2.192,2.192,0,0,0-.752-2.215c-1.125-.93-.953-1.785-.953-1.785a5.794,5.794,0,0,0,.166,2.6c.422,1.32,1.246,2.643.876,4.078s-1.09,3.226-1.959,3.728.206-.971.206-2.133-.583-1.244-.961-1.822-.377-2.062.29-4.045-.623-.774-1.375.547-1.288,3.765-.124,5.361-.749,1.434.043,3.725-.958,3.418-.631,3.77,1.254-.155,1.673.967-.832.623-1.251.935-.212.737.04,1.36.752.227.543.425a4.477,4.477,0,0,1-1.877,1.32c-1.082.349-1.17-.2-1.837.584s-1.162,1.473-1.874,2.365-1.207.586-1.959,1.206-1.04,1.127-1.966,1.9-3,1.98-4.124,3.493-.835,1.9-1.38,4.353,1.38,6.718,2.59,10.76,1.708,2.91,1.539,4.19a6.927,6.927,0,0,1-1.587,3.73c-.869.9-1.368-.625-2.577-1.518s-.254-1.512-1.42-3.374a6.546,6.546,0,0,1-1.211-3.888,17.124,17.124,0,0,0-.956-4.773c-.628-1.483-1.966-3.345-3.965-2.6s-1.5.39-2.584.074-3.962-1.471-5.425-.7-6.083-.235-7.048,0-1.671.315-1.671.976-.412.769,1.3,1.24,1.46.972,1.338,1.708-1.381-.388-2.049-.66-1.291.544-2.457.544-1.38-1.127-2.424-1.28a8.833,8.833,0,0,1-2.46-.39,8.948,8.948,0,0,0-3.5-.972c-1.165.082-5.673,3.07-7.8,4.662s-3.754,3.146-4.25,4.425-.546,1.4,1.165,3.3.918,1.594.584,2.68-1.334,2.4-2.542,5.2-.5,4.155.953,6.835a25.009,25.009,0,0,0,3.925,5.745c1.169,1.127,2,2.333,3,2.758a4.005,4.005,0,0,1,1.669,1.05c.459.47.333.66,1.92.235s2.746-1.05,3.876-1.05a4.11,4.11,0,0,1,2.795.623c.623.579.707.235.707-.08a7.759,7.759,0,0,1,.668-1.785,16.76,16.76,0,0,0,1.917-3.612c.25-1.165.25-3.5,1.713-3.651a38.231,38.231,0,0,1,7.423-.7c2.833.19,1.584,1.59.835,3.065s-1.048,1.632-1.048,2.758.336,1.13-.576,1.79-.338-.39-.712.27a5.879,5.879,0,0,1-1.544,1.438c.164-.155.583,1.122.583,1.745s-.124.932-.124,2.45-2.964,3.067-2.964,3.067a5.812,5.812,0,0,0,2.669.623,12.169,12.169,0,0,1,5.171.778c1.669.773,4.837-.625,7.176.543s1.5,1.863,1.664,2.951a33.672,33.672,0,0,1,.258,5.67c-.172.855-1.257,3.26-1.842,4.973s1.669,2.952,3.759,4.35a17.452,17.452,0,0,0,5,2.328c1.075.312,3.081-1.632,6.755-1.4a5.78,5.78,0,0,1,4.918,3.34,15.822,15.822,0,0,1,2.086-4.583c1.673-2.64,1.75-3.418,4-4.272s3.007-1.008,6.677-2.175,3-.307,4.915-.155a53.411,53.411,0,0,1,10.766,1.864c4.419,1.32,11.18,1.708,13.762,2.795s3.754,4.121,6.425,6.6,6,4.738,7.421,5.9,9.343,2.255,11.1,2.952,4.169,3.572,4.333,5.28,1.919,2.564,4.335,3.572,3.171,2.178,4.76,5.283,1.08,3.962,3.249,4.738,17.186,4.815,20.933,6.293,8.511,5.438,9.762,5.9,3.506-.393,4.507.153-.588,3.495.666,5.592,1.334,2.255.583,3.807-3.754,5.283-4.916,7.146-3.675,3.03-5.09,3.81-2.674,0-1.42,1.552.085,2.87-1,4.271.084,1.239-.254,5.75,0,9.395-.5,11.338-3.413-1.708-6.755,2.487-4.25,7.378-6.251,7.843a26.647,26.647,0,0,0-8.258,4.272,10.059,10.059,0,0,0-2.923,4.2c-1,2.17-2,6.6-3.083,9.321s-2.835,4.272-6.84,7.922-5.757,7.381-8.345,10.256-1.919,2.247-2.457,2.795c-1.383,1.386-7.075-2.238-5.6-.232,1.085,1.475-.612,0,.3,1.394s1.587,1.943-.414,4.428-4.313,2-5.9,2.384-3.95-1.632-4.115-.62-1.082,3.521-2.336,4.14-4.583,1.555-4.5,1.943c1.576,7.36,4.815,8.126,1.386,7.788-9.406-.916-2.695-3.149-9.234,10.539-1,2.1-2,1.013-1.834,3.5s0,4.35,1.339,5.9.414,1.473-1.837,3.57-2.421,1.79-4.5,4.973-4.089,3.028-3.34,5.438.921,5.98,2.17,9.552,3.836,2.949,7.925,5.438,4.588,1.162,6.59,1.787-1.42.776-5.01,1.4-5.919,1.32-8.424.781-8.419-3.963-10.423-5.441-5.251-4.115-6.421-6.677-2-5.125-3.5-8.62-.422-5.673.248-13.363,1.17-13.67,2.252-17.785,4.422-22.448,5.335-27.189,5.175-24,5.509-27.03a72.542,72.542,0,0,1,1.251-8.39c.666-3.028.253-9.166.253-9.475s-.253-.543-1.173-3.416a8.568,8.568,0,0,0-4.5-5.282c-2.083-1.246-4.258-2.8-5.922-3.963a25.3,25.3,0,0,1-5.34-4.892c-1.671-2.1-3.255-6.37-4.087-8.158a109.539,109.539,0,0,0-6.755-12.035c-2.835-4.2-3-4.276-4.424-8.706s1.251-4.5,1.753-6.99,2.168-4.971,4.005-8.463,4.253-4.507,5.673-7.613.333-3.11-.169-6.138.169-2.56-.755-4.2-1.412-3.645-2.249-4.192-2.083-.934-2.833-.076-2.088,3.335-2.92,3.493-1.169-.781-1.668-1.323-2.919-.542-3.421-1.085-1.75-.625-2.582-1.009a37.655,37.655,0,0,1-5.01-2.873,6.657,6.657,0,0,1-2.083-4.662c0-2.017-1.748-2.8-5.668-5.591s-5.592-3.187-10.348-4.354-6.671-4.5-8.258-5.433-1.415-1.943-4.921-1.555-7.756-1.555-10.428-2.64S242,401.743,240,400.423s-5.5-1.79-7-4.973-1.254-1.943-.668-4.738-3.421-5.127-5.842-7.767-4.253-3.028-5.5-6.293-3.083-3.108-5.5-5.438-2.5-5.283-3.5-7.923-7.669-6.447-7.669-6.447,1.747,4.43,2.5,6.215a67.587,67.587,0,0,0,4.507,9.245c2,3.182,3.756,3.96,5.589,7.143s.084,5.127-.588,3.888-3.337-1.79-3.337-3.265a7.377,7.377,0,0,0-1.249-3.57c-.58-1.167-3.17-2.49-5.673-4.511s-4.25-2.949-2.671-2.949,3.839,1.475,3.421.542-3.252-3.805-4.586-5.826-1.756-4.272-3.088-7.69-6.252-6.681-8.677-6.912-3.083-1.4-3.915-3.883-1-5.125-2.086-7.07-5.758-8.463-5.839-10.948-1.418-9.71.249-13.752,1.251-13.047,1-14.836-3.257-5.2-3.257-6.523,1.756-.544,3.091-.158,4.166,1.553,4.166,1.553a36.294,36.294,0,0,0-3.5-5.433c-1.338-1.4-5.259-3.187-7.007-3.575s-4-1.009-4.921-2.482-1.917-3.419-2.589-4.665-3.506-2.712-4.166-4.037-.5-3.883-1.42-5.2-2.254-2.1-3.757-1.555-1.994-.778-3.165-2.721-3.756-2.872-4.507-3.1-3.332-3.653-3.5-4.507-4.258-5.361-5.589-6.293-14.264-5.125-14.594-5.125-4.092.542-5.088.233-4.422-3.263-6.169-3.883-3.01.7-3.839,2.64-4.924,5.28-7.176,6.755-4.087,1.636-3.923.858a14.607,14.607,0,0,1,.84-3.886c.747-1.862,1.165-2.407,3.5-3.572s2.25-1.243,1.338-1.165-1.587-.155.25-1.24,2.585-1.248,2.5-2.178-4.005,1.246-6.51,3.263a22.793,22.793,0,0,0-6.167,6.988c-2.17,3.577.25,2.252-1.587,4.585s-8.089,7.07-9.923,8.855-9.425,5.747-12.516,6.681-4.333,1.32-5.837,2.564-5.251,1.628-4.005.777,3.587-2.8,5.175-3.733a66.643,66.643,0,0,1,7.088-3.1,23.008,23.008,0,0,0,6.508-4.585,40.621,40.621,0,0,0,4.084-6.058c1.167-1.866,1.42-2.721-1-1.943a10.262,10.262,0,0,1-6.175,0c-1.251-.465-4.507,1.473-5.673.623s.084-2.643-.671-3.5-3.334-.307-5-.623-4-1.629-4-3.96-1.668-4.35-.755-6.135,2.258-2.255,3.754-3.26a21.744,21.744,0,0,1,6.505-2.333,4.884,4.884,0,0,0,2.754-1.632c.752-.773-1.753-3.575-1.753-3.575s.419-.307,1.42-.93.253-1.94-1.5-1.71-5.5,2.025-7.841,2.64-5.5.235-5.418-.773.583-1.632-.25-2.41-1.5-1.632-.668-2.017,6.008-3.263,6.008-3.263a7.51,7.51,0,0,0,3.834,2.25c2,.235,6.252-3.493,6.252-3.493-2.666-1.632-2.083-2.1-2.083-2.1s-4.338-.077-5.338-.7a4.413,4.413,0,0,1-1.586-2.947c-.248-1.088-4.5-1.943-3.332-3.733s3.332-2.4,4.752-4.19,2.669-5.13,6.758-6.993,9.01-3.572,11.177-5.127,3.168-.072,4.005.155,6.006-.227,8.005-.227,2.334,2.247,3,2.79,18.268,1.09,18.268,1.09,14.924.235,17.931,1.088,8.424,3.107,8.424,3.107c3.3-.427,3.007-4.43,5.045-4.43m200.561-90.1s-1.5,6.215-7.5,7.923a160.461,160.461,0,0,0-17.521,6.835c-.5.309.668,3.727,2.167,5.435s2.92,2.875,4.255,4.583,3.67,1.555,5.507,3.342,3.165,1.162,8.174,1.243,3.67.465,9.258.778,11.429.777,13.348,2.485,4.668,8.39,6.421,12.427,4.839,10.718,4.839,11.341-1.92,5.517-1.92,6.289,1,2.1,1.92,3.186.415,1.941.246,2.949,1,3.575,1.17,3.888,2.666-2.487,4.253-2.952,5.507,2.8,5.507,5.05c0,5.1,1.391,3.366-6.922,9.4-1.1.8-2.167,6.912-1.334,9.86s2.833,6.45,4.419,10.645,6.254,10.095,7.754,12.815,1.922,6.447,5.254,7.305,6.51,2.015,8.926,2.56,4,1.32,5.171-.932,3.5-10.8,5.427-17.01-.172-8.078,4.335-9.475,11.674-4.2,13.593-5.05,1.587-6.99,5.84-9.013,4.837-1.859,9.007-3.183a56.793,56.793,0,0,0,14.184-6.912c4.169-2.952,5.335-1.4,6.838-4.118s-1.5-6.681-1.834-10.718,1.335-4.272,2.164-7.925,1.254-6.058,4.507-8.543,5-3.88,4.422-6.212-2.252-5.827-2.252-8.39.583-1.085-.752-4.657-1.335-4.041-.089-7.381,4.591-2.484,4.342-3.965-5.338-3.725-5.418-7.843.916-5.357,1.748-6.37,9.343-7.767,9.926-8.39-.164-2.328,4.005-4.348,5.587-3.337,7.171-3.96,4.09-.542-.75-1.945-5.919-2.017-9.09-1.627-4.25,2.175-9.927,2.721a50.348,50.348,0,0,0-12.1,3.183s1.92-1.708.253-3.343,4.337-6.99,5.343-7.613S465.543,78.852,460.952,78s-13.593-3.575-18.763-3.191-12.761.316-15.349,1.165-2.247,4.2-5.171,4.353-8.339-1.71-12.511-1.088-10.847,3.5-11.594,3.651,2.587,2.175,4.755,2.642,5,4.973,5,4.973-5.834-1.945-11.759-3.577-12.849,0-15.265.7a38.7,38.7,0,0,1-10.425,2.25c-4.841.235-10.341,4.2-13.1,6.058s-11.341,6.835-13.512,8-1.335,1.71,1,2.333,4.837,1.009,4.837,1.009m-123.611,64.21c.663,2.846.663,6.938-.9,5.177s-2.835-5.335-5.335-3.886-5.225,1.042-4.783.729-.055-1.866-1.338-2.333-2.054.261-3.385,1.038-5.562,1.811-3.839.462,1.167-2.069.554-3.624-5,1.087-7.341,2.748-3.722,4.19-5.116,5.9-.388,2.8,1.724,3.418,5.507,1.038,2.669,2.075-5,1.756-3.556,2.64,3.949,1.033,6.449.723,4.617-.979,8.622.106a25.084,25.084,0,0,0,6.391,1.033,12.669,12.669,0,0,1-4.169,1.4c-2.669.462-7.564,0-10.069.462s-6.445,1.138-5.444,2.072a10.245,10.245,0,0,0,5.224,3.469c3.448,1.09,4.063.056,6.117.568s.95,2.849,1.5,3.213,4.451-.309,8.342-1.033,2.445-1.351,5.507-2.128,3.165-3.1,4.947-3.622.5,1.191,2.611,1.708.947.674,3.228,1.038,1.834,1.243,4.06,1.085,4.836-1.653,4.5-1.917a1.939,1.939,0,0,1-.441-1.966c.221-1.033-2.233.2-3.117.726s-.832-1.4,1.053-2.333,3.567,0,4.675,0,.114-3.212-1.891-3.725-2.89-1.764-5.9-3.418-1.446-2.384-2.333-4.554-2.783-8.6-4.451-9.739-3.447-.829-5.113-1.966a11.351,11.351,0,0,0,.335,4.451m-46.155-4.4c.726,2.067.832.773-.613,3.051s-.612,3.108-1.613,4.818-3.667,3.989-2.835,5.125,3.5,1.813,4.617,2.692,2.223,2.692,4.221,2.02a21.937,21.937,0,0,0,4.063-1.866c1.394-.723,2.56-1.552,2.5-3.366s-.109-2.688.452-2.534,1.441.982,1.885-.209a10.923,10.923,0,0,1,2.17-3.675c.943-.93,3.667-1.866,4.947-2.951s3.45-2.278,4.058-3.208-1.114-1.658-2.167-2.077-2.276-2.067-4.726-2.067-3.78,1.862-3.67,1.033-1.669-1.243-2.666-1.607a8.622,8.622,0,0,0-5.119-.568A35.836,35.836,0,0,0,177.832,163c-2.167.62.781,2.017,1.5,4.094m72.4,24.8c-.33.462-1.779.932-2.666,1.966s1.888.47,2.775.778,1.558,1.188,2.281,1.452,4.617.411,6.23-.367,1.776-1.033,1.61-1.392a24.378,24.378,0,0,0-5.673-4.717c-2.336-1.243-2.39-1.289-2.89-.982s-1.335,2.795-1.668,3.263m-10.513-24.233c-1.507.75-2.6,1.653-.052,2.951s3.392,2.384,5.116,3.469,2.445,4.2,6.061,2.8,5.061-3.054,5.567-4.506-.505-1.761-1.394-3.11-1.111-1.914-2.947-1.71-2.45.209-2.45.209a10.272,10.272,0,0,1,3.228-2.537c2-.987.33-1.658,1.275-2.589s-2.387-1.4-3.831-1.038-1.5-.1-3.894-.2-6.172,2.072-6.006,2.844,1.946.47,3.616,1.4,2.167.829.5,3.469-2.556-.62-3.113-1.037-.111-1.188-1.673-.41M230.551,162.9c-2.5.233-3.34,1.964-2.39,2.225s1.555-.261,3.055,1.346,2.838,2.487,3.447-.155-.275-3.783-4.111-3.416M190.4,142.854c-2.787,2.228-3.332,3.989-5.5,5.39s-1.671,2.589-.945,3.36,2.89-.048,3.891-.565,1.832-1.811,2.445-1.033,3.171-2.642,4.173-3.785a8.609,8.609,0,0,1,2.838-2.275c.278.052-.953,1.346-.5,2.432s2.442,1.14,4.224-.723.169-3.575,1.558-5.024,2.556-1.246-.164-2.54a3.958,3.958,0,0,0-5.01.832c-.554.671-1.555-.419-7.007,3.931m16.961,3.524c-1.578.072-2.278.311-4.892,1.447s-3.725,4.094-4.333,5.7.274,1.607,2.669,2.539,5.728-.258,6.5-2.487,1.732.518,1.285,1.658,1.668.1,2.669-.419a16.018,16.018,0,0,1,4.224-.721,15.231,15.231,0,0,1-5.064,2.9,36.87,36.87,0,0,1-5.447,1.449c-.723.106.674,1.191,3.725,1.816s4.9-1.867,9.292-3.524,4.169-1.97,5.613-1.552,3-.726,4.783-1.145,2.5.264,3.286-2.379,2.164-5.179-.338-5.336-2.669-.153-3,2.7-.559,1.088-.559,1.088-1.668-2.485-2.669-3.785-1.724-3.31-2.835-4.4-1.613.465-3.337,2.384-.333,2.64,1.391,3.467,2.948,2.952,2.115,3.521-1.782-.1-4.95.261-3.059-.982-3.949-1.4,1.5-1.294-1.9-2.692-3.162-1.145-4.279-1.088m-10.286,2.695c.353-.6-4.221,2.692-4.918,3.751s.7.881,2.086.829,1.669-2.589,2.832-4.58m8.789-6.864c-1.145.514-1.145.9.72,1.111s2.952-.62,2.56-1.4-2.362-.129-3.279.287m9.48-9.836c-1.222.2-4.837,1.475-5.035,2.091a4.915,4.915,0,0,0,.586,3.033c.559,1.059.757,1.217,3.862.388s5.259-2.436,4.224-2.721a21.74,21.74,0,0,0-2.577-.877c-.921-.132.8-.623,2.861-1.268s2.753-1.764-3.92-.646M204.806,134c-.881.4-1.2.41.637,1.114s3.81.646,3.558.077a3.058,3.058,0,0,0-4.2-1.191m7.17-5.1a5.048,5.048,0,0,0-2.527,2.431c-.388.5,1.972-.359,3.054-.62s1.336.386,2.4-.546,3.142.029,5.034-.388,2.194-1.655,1.779-2.74-4.755-.106-9.734,1.863m18.85,4.686c-.514.246-.333,1.061.114,2.022s.557.721,1.5,1.085a7.269,7.269,0,0,1,2.114,1.346c.227.235.359.311.75-.62s-.193-.778-1.249-2.02-1.89-2.461-3.228-1.813m6.425,8.131a3.283,3.283,0,0,0-2.783.7c-.528.261.278.855.642,1.966s.055,1.483,2.167,1.636,2.754-.235,2.919-1.581-1.61-2.353-2.944-2.716m8.2,2.434c-1.31-.961-1.948-1.739-3.282-1.191s-.224,1.214-.224,1.579,1.613-.052,1.642.829.525,1.24-1.418,1.346-2.479.026-3.228.594,1.449-.077,2.117.8,1.808.984,3.667.7,4.393-.7,4.393-.7a14.841,14.841,0,0,0-1.919,2.2c-.554.9-.778,2.2.195,2.844s1.085-.666,3.785-.721,3.5-1.449,3.5-1.449a2.538,2.538,0,0,1-.528-1.943,5.435,5.435,0,0,0-.029-1.658,11.182,11.182,0,0,1,1.335,1.09s-.195-.8-.583-2.255-.08-1.555-.5-3.521-.335-2.384-2.362-2.333-3.422.757-5.093.757-2.391.307-1.162.93,1.392,1.372,1.972,2.069a4.582,4.582,0,0,1,.5,2.305c.026-.076-2.778-2.276-2.778-2.276M235.3,151.529a.7.7,0,0,0-.087.037,2.415,2.415,0,0,0-1.193,2.009c-.055.675,1.116.283,2.978-.362s.947-2.534-1.7-1.684m26.249-3.521a13.622,13.622,0,0,0-3.67,2.978c-.889,1.009-.111,1.136,2.2,2.3s4.781,1.4,5.863.179-.5-7.587-4.388-5.46m10.729-9.034c-2.96.293-2.043.732-5.464-.39a32.109,32.109,0,0,0-8.881-1.248c-1.17,0-.625.547.586,2.531s1.541,2.677,4.045,2.054,4.543-1.045,6.38,1.592,2.795,3.461,1.291,4.428-.8,2.523.084,4.548,2.875,1.937,5.673,1.937,20.476-.269,23.231-.774,5.209-2.835,6.672-3.883,2.252-2.68.25-3.888a15.459,15.459,0,0,0-7.091-2.328c-2.255,0-4.169,1.165-7.59,1.513s-2.666,1.985-5.753,2.062-1.589,1.438-5.383-.118-6.59-3.5-4.789-3.77,3.249-.5,2.247-1.357-2.754-3.186-5.507-2.91m-35.363-14.448c1.832.62,2.3,1.085.25,1.627s-3.63,1.98-1.584,1.71,3.794.193,6.42.623,2.416.153,3.587,1.631,2.419,1.475,4.218,1.05,2.038-.546.876-1.83-2.379-3.645-3.965-4.58-2.919-2.255-4.506-2.094-1.957.192-3.337-1.671-2.456-.976-4.462-.47-2.64,1.937-3.418,2.568c-1.584,1.283,4.089.813,5.922,1.438m24.024-19.032c-2.17,2.717-3.923,5.01-1.466,5.282s3.546-.195,3.715.586-.419,1.317-4.089,1.317-2.542.818-.5,3.223,2.255,1.592,5.38,1.515,4.169-1.207,6.758-.539,3.377,1.32,1.042,2.017-7.843,2.017-6.589,3.183,5.129,3.96,6.882,4.235,2.123-1.165,5.922-.74,2.878.818,3.292-.232,2.5-3.725,2.92-4.7,1.462-1.592,3.545-2.057,2.754-1.125.792-1.825-4.169-1.009-3.96-1.552,1.42-2.138.58-2.956-2.164-.778-3.252-1.2-2.292-2.4-3.67-3.26-2.582-.935-4.255-2.215-4.333-4.408-7.671-4.23c-2.249.113-3.211,1.433-5.377,4.153m-4.259,22.72c-.834.425-2.915.5-1.372,1.782s1.125,1.325,3.079.588,4.8-2.568,5.053-3.11-1.962-1.59-3.466-2.057-2.54-1.668-5.673-2.526c-4.546-1.24,3.213,4.89,2.378,5.323m102.037-40.4c-3.447-.934-15.789-3.318-19.794-2.387s-3.783-2.067-9.343-1.341-14.121.307-16.79.723,1.331,1.553,2.78,2.485-6.895-1.033-13.239.726-10.454,2.692-3.662,5.28,7.671,3.315,7.671,3.315-8.675-1.553-12.347-3-1.665-1.346-8.566.62-13.564,3.007-13.229,5.074,5.562,4.87,9.005,5.592,10.568-1.033,11.125-1.243-2.783,2.8-2.783,2.8,3.558-.726,7.561-1.764,7.118-2.17,10.9-3.521a33.244,33.244,0,0,0,4.449-1.759s-6.561,5.079-11.122,6.835A49.872,49.872,0,0,1,288.1,109.25c-2.78.1-2.341,1.862.443,3.314s4.892,4.554,6.341,5.589a4.367,4.367,0,0,1,1.668,2.695,7.709,7.709,0,0,0-9.119,0c-4.786,3.414-4.118,5.177-2.893,5.592s5.449.827,6.227,2.276,6.339-1.346,6.339-1.346-2.775,3.521-5.447,3.521-2.556-2.278-6.45-1.863-3.672,1.349-2,2.692,3,1.764.111,3.11-4.229,1.759-4.338,3.416,3.78,1.658,6.227,1.658,4.781-.212,9.232-.311,3.891-1.555,5.56-1.555,3.337.517,2.669,2.175.663.623,5.562-1.138,2.663-4.459,2.337-5.386-2.117-1.243-3.228-1.759,3.337-5.079,2.666-6.626,5.452-.316,8.229-3.939,1.782-6.318-.221-6.938,3.673-.2,5.449-1.246,5.676-2.273,7.231-4.243,2.112-2.695-1.664-2.276,5.441-1.658,9.892-4.562,9.568-6.313,10.674-7.143,2.12-.419-3.113-.1-11.455-.414-8-.829,13.681-1.656,16.35-3.622a31.89,31.89,0,0,1,3.886-2.59m-62.274,71.871c-5.567-.52-13.678-1.863-15.349,2.9a148.338,148.338,0,0,0-4.448,17.3c-.22,1.966,6.674,4.865,11.455,5.071s12.569.517,11.011-.62-.224-1.759,4.226-1.555,4.894-.93,4.894-1.863.777,1.137,3.891,2.795,5.787,6.322,8.567,9.013,9.005,6.315,7.783,8.39,1.331,9.321-8.236,10.979-10.117.514-10,2.692.551,3.105,4.335,3.105,9.008-3.105,10.787-.829a11.416,11.416,0,0,0,5.787,3.627c1.553.517-1.893,1.446-2.783,1.761s1.891.62,7.341,3.208,12.009,2.9,8.783,1.037-4.778-5.28-6.227-6.423-.111-.206,2.45.417,4.89,2.692,6,3.624,1.668-.309,2.445-3.939-.33-3.622-4.672-6.52-5.67-5.177-6.117-7.252,2.226-2.487,3.342-3.939,4.227,2.593,6.339,4.973,3.886,6.526,5.558,3.524a37.881,37.881,0,0,0,3.22-11.291c0-1.55-1.665.1-8.778-3.418s-10.792-4.866-11.455-4.866,1.888-1.344,5-2.9,4.445-1.343-2.229-7.664-8.562-7.664-12.9-8.078-5.56-4.973-8.673-6.524-10.344,1.864-12.46,2.384-1.444,1.343-4.115-2.487-4.778-6.629-4.778-6.629m5,0c-2.764.33,1.668,5.383,5.225,5.6s6.563-1.555,7.342-1.764-8.229-4.351-12.567-3.831M288.964,211.05a26.561,26.561,0,0,0-1.753,6.373,11.416,11.416,0,0,1-.916,3.725c-.415,1.32,1.334-.23,2.5,1.71s.66,2.485,2.749.233,4.422-3.028,7.337-2.1,5.174,1.322,4.173-.46-2.336-1.637-4.337-4.042-3.5-3.028-6-3.963-2.758-3.883-3.756-1.478m20.985,181.474c-.861-1.8-2.155-4.709-7.564-5.713s-7.234,1-9.232,1.679,1.866,1,4.44,0,4.533-.216,4.884.246-.869.744-1.306.253-.523,1.207,2.384,2.255,3.616,1.55,3.908,2.8a7.839,7.839,0,0,0,.927,2.956c.665,1.042.914,1.481-.307,1.937s-.792.4.106.953a11.91,11.91,0,0,0,5.259,1.693c2.54.217,3.381.691,1.613-1.635s-4.841-6.856-5.113-7.421m8.079,11.375a4.049,4.049,0,0,1,.9,3.842c-.1.829-1.616.187-4.411-.549s-2.365-.378.061.93,4,.99,3.892,2.735,2.228.163,3.258-.85.961-.113,5.274.536,5.2,1.43,4.514-.462,1.977-1.739-1.856-3.543-13.232-4.282-11.634-2.64m-12.281,1.078c-1.624-1.8-3.653-2.057-3.67-.528s.551,1.437,2.046,1.854,2.663-.184,1.624-1.326m31.326,7.791c-1.763-.605-2.126.723-.953,1.83s2.978.723,4.752.637-.718-1.407-3.8-2.468M316.781,196.023c-2.339.987-3.711,1.668-1.668,4.35s3.257,4.348,4.04,2.408,1.587-8.43-2.373-6.758m-18.723,28.752c-3.524.568-4.675.671-4.118,2.643s1.5,1.655,3.891.462,4.063-3.725.227-3.105m7.337,3c-.6.184-.778,1.553,0,2.793s2.278-.41,2.949-1.914-.723-1.553-2.949-.879m-38.48-95.59c-3.332.111-8.342,1.291-5.562,1.343s5.063.623,9.57.367,4.944-.571,5.056-2.746-2.944.829-9.065,1.037m-20.85-18.279c-3.4,1.056-2.56,1.759,1.441,3.521s4.118.93,3.675-2.384-3.113-1.759-5.116-1.137m237.695,86.675c-4.214,1.177-5.625.473-6.425,2.611s-2.45.99-3.4,1.254-2.3,6.227-2.967,5.338a16.173,16.173,0,0,1-1.88-3.418c-.969-2.049.319-1.685-1.534-3.846s-5.513-1.914-5.774-1.03,2.531,1.627,1.584,2.626-3.216,2.228-4.078,2.951,1.65.407,3.226.037,2.656,1.185,3.3,2.284-.721,2.175-1.4,2.711,2.292.407,3.48.626,1.811,1.222,1,2.568,3.535.19,5.943.052,3.036,1.65,6.674.509,5.372-1.059,8.686-3.513,3.059-1.882,5.259-3.466,1.671-2.067,1.763-3.82,1.452.491.935-2.155-3.229-1.93-5.125-2.135-1.83-1.7-2.783-2.163-2.207.787-6.479,1.98M765.289,428.738a8.28,8.28,0,0,0-.447,2.743c0,1.4-.166,2.9-.055,4.3s.193,2.384.971,2.695a2.579,2.579,0,0,0,2.588.026c1.28-.594,2.476-1.656,1.838-3.263a44.256,44.256,0,0,0-2.534-4.994c-.694-1.19-2.028-2.693-2.362-1.505m-1.021-1.92c.137.594.327.47.608.881s.584.05.195-.493-.341-.608-.341-.608-.494-.167-.494.324m120.1,82.555c-.019.063-.092.1-.137.147-2.284,2.312-4.359,1.666-8.282,2.883-4,1.24-10.927,5.28-11.429,7.07s0,2.015-.5,1.782a6.126,6.126,0,0,1-1.339-1.32,8.48,8.48,0,0,0-.832,4.118c.25,1.94,1.167,3.105,1.086,5.591s-1,3.962-.917,5.67,2.915,4.973,3.67,7,1.251,1.475,1.665,5.127,2.336,5.665.415,7.608-3.334,1.552-1,3.572,4.258,3.34,8.005,2.02,2.757-2.485,5.676-3.108,3.5-1.239,6-1.4,4.253.077,5.177-1.7.246-1.71,2.746-2.956,2.252-1.555,3.925-1.864,2.749.858,5-.93.583-1.945,5.588-1.945a23.9,23.9,0,0,1,8.926,1.32c1.837.625,4.841,2.252,5.587,3.419s1.753,2.566,2.083,2.566.755.074,1.922-1.088a49.854,49.854,0,0,1,4.5-3.495s-.169,2.486-.918,3.417a4.387,4.387,0,0,0-.755,2.721c0,.462,1.922-1.481,2.175-1.555s.5,3.418.749,3.725,1,.155,1.753,1.167a12.853,12.853,0,0,1,2.5,3.728c.747,1.941,3.92,3.884,5.921,4.192a16.525,16.525,0,0,0,5.254-.077c1.5-.23,1.586-2.02,3.17-1.317s-.082,2.172,3.67,1.864,4.755-1.555,6.256-2.568,1.668,1.4,3.585-1.239,2.252-2.02,2.587-5.206.248-3.807,2.082-6.835,2.258-1.555,3.509-5.979,2.835-8.623,2.671-12.273.077-1.243-.757-5.364-.248-3.645-2.918-5.354-3.332-1.246-4-3.653.167-3.108-1.087-3.108-2.336.542-3.083-1.087-.665-2.25-2.083-3.805-2.75-1.243-5.34-2.405-1.257-1.478-1.257-3.5.146-4.166-1.914-5.1-.832.517-.832-2.8,0-2.846-1.669-3.414-2.225-.517-3.281-2.54-2.447-5.332-2.946-6.674-1.111.155-1.782,1.137a10.427,10.427,0,0,0-1.613,5.177c0,2.017.892,3.162.892,5.853s-1.888,5.383-3.058,6.938-2.112.153-3.117-.261-1.222-1.917-3.334-2.952-6-1.966-7.785-3.57-.557-1.658,0-3.316a8.452,8.452,0,0,1,2.671-4.092c1.334-1.085.945-1.5-.723-2.434s-4.005-.984-6.843-.984-4.5-.2-4.338,1.4,1.834,2.221-.549,1.759-4.453-.674-5.509.462-1.283,1.819-1.891,4.25.169,2.585-.832,2.585-4.95-1.914-6.284-2.479-2.054-.522-3.612.932-6.953,6.159-8.955,7.3-1.9.881-3.923,7.254m-74.2-70.007c-1.18-.163-1.837-.47-.393,1.392a22.123,22.123,0,0,0,3.228,3.524c1.389,1.294,1.891-.935,2.949,1.552s.666,2.537,1.722,3.469,1.948,1.194,2.223,2.127a6.483,6.483,0,0,0,1.837,3.418c1.225,1.034,1.225.881,1.943,2.9s1.837,3.467,2.394,5.177,3.727,3.315,5.336,5.386,4.342,5.076,4.786,4.247,1.61,0,2.445-.307,1.111-1.5,1.668-4.4-.5-4.247-1.283-4.921-2.221-.826-2.606-1.449-1.058-2.743-2-3.418-1.174.052-1.174-1.607,1.114-1.5-.275-2.431a7.43,7.43,0,0,1-2.006-2.072c-.439-.465-3.443-1.191-4.224-2.02s-4.055-2.333-5.615-3.886-3.281-2.795-3.78-3.931-2.06-2.077-7.173-2.743m32.361,33.4c-1.331,0-2-.777-2.89.829s-.778,1.6.612,1.6,1.111.726,1.053.932-.663-.158,2.17.982,4.841.676,5.618.258,1.056,1.037,4.95,1.656,5.948-.359,8.45.261,1.895-.311.113-1.653-1.613-.625-3.395-1.919-4.28-1.346-5.446-1.553,1,1.243-2.555.773-2.281.315-4.119-.876-1.837-1.4-3.062-1.607-1.5.312-1.5.312m28.25,5.694c-1,.312-3.058.884-2.114,1.294s.217.676,3.17.415,5.507-.62,5.892-1.243-.5-.206-1.726-.573-1.112.261-2.78.47a3.59,3.59,0,0,1-2.442-.364m10.344-.209c-1.974.243-1.727.676-.169,1.145a8.033,8.033,0,0,0,4.169.359,19.17,19.17,0,0,1,3.5-.982c2.168-.364,2.89-.312,4.61-.522l1.73-.2s-.169-.359-1.339-.307-1.995.1-3.168.1-3.168,1.035-4,.984-2.442-.568-2.835-.312-.385-.517-2.5-.261m11.12,2.539a.384.384,0,0,0-.073.052c-1.375.942-1.434,1.2-1.309,1.949a1.411,1.411,0,0,1-.151,1.087,5.906,5.906,0,0,0,3.569-1.65,5.825,5.825,0,0,1,3.186-2.1,12.049,12.049,0,0,0,3.381-2.289,9.924,9.924,0,0,1-2.626.155,4.935,4.935,0,0,0-3.171,1.085c-.436.37.433.47-2.806,1.71m-11.623.818c-1.449-1.038-2.854-.892-2.96-.253s-1.254.6.789,1.36,3.986,1.748,3.839.715-1.042-1.38-1.668-1.822M867.3,438.533c-.837,1.191.776.879-.449,1.917s-2.162.568-3.384,2.12a17.471,17.471,0,0,1-3.839,3.211c-.777.571-3.286,1.24-4.4,2.746a1.483,1.483,0,0,0,.393,2.329s-.671.307-2.45-.364-1.888-1.5-1.888-1.5-1.28-.05-2,1.864-1.117,2.118.158,3.263-.884,1.188-.608,1.966.283,2.229,1.056,2.384.946-.726,1.9.465.166,4.554,1.386,4.712,2.112-.364,3.168.1a3.814,3.814,0,0,0,3.228.414,4.766,4.766,0,0,1,3.616.415,11.873,11.873,0,0,0,4.612,1.191c1.285-.1,1.5.209,1.724-1.607s.058-3.521,1.613-4.916,1.613-1.4,1.724-2.7a7.286,7.286,0,0,1,1.059-3.986c.939-1.349,1.5.777,2-.259s1-1.03.718-1.552-1.722-.522-2.276-1.5.167-1.5-.5-3.521-1.053-1.243-.111-2.382,1.724-1.346,1.833-2.226.5-.935,1.673-1.759-.187-.441-1.3-1.27-3.194-3.934-4.488-3.909c-.7.011-3.337,3.157-4.168,4.35m164.309,109.933c-.536-.393-.995-.1.23,1.346s1.331,1.033,2.109,1.085,1.449,2.9,1.888,3.632a12.634,12.634,0,0,0,1.28,1.6,15.729,15.729,0,0,1,.06,4.507c-.39,1.4-1.225,2.015-1.5,3.314s1.277.93,2.281,1.346.832.414.443,1.55-1.558,1.658-1.558,1.867,2.281,1.5,3.451.1,3-3.471,3.5-4.969-.893-.832.72-1.917,1.389-.573,2.226-1.919,1.719-2.743.778-3.469-2,.881-2.843,1.193a2.922,2.922,0,0,1-2.666-.209c-1.166-.568-1.389-.568-1.833-1.607a5.815,5.815,0,0,0-1-1.607s-.336,1.761-1.165,1.2-.617-1.2-1.225-2.178a21,21,0,0,1-1-2.017c-.385-.726-.055-2.126-2-2.333s-1.671-.154-2.173-.517m.336,18.8a21.1,21.1,0,0,0-2.944,3.26,14.33,14.33,0,0,0-2.057,3.678c-.443,1.033-2.057,2.276-4.726,3.674s-3.673,1.969-4.562,3.263-4.058,5.333-4.445,5.8,1.5.932,3.448.932,5,1.76,6.669-.051,3.337-6.112,4.393-7.664,2.057-2.123,3.727-3.627,4.448-4.3,4.448-5.386a10.043,10.043,0,0,0-.723-2.846,2.094,2.094,0,0,1-2.062,1.035c-1.444-.154-1.166-2.069-1.166-2.069m-13.113,19.889c-1.954-1.033-2.336.892-2.65,2.867s.842.3,2.54-.594.855-1.877.109-2.273M952.707,573.58c-2.2-.732-1.834,1.351-1.5,2.9a11.457,11.457,0,0,0,1.613,4.089c.832,1.3,3.945,1.76,5.174,1.2s2.109-2.487,3.334-4.3a7.825,7.825,0,0,0,1.558-4.969c-.224-1.088-1.779.984-2.783,1.449s-2.336,1.656-4.224,1.14-2.391-1.243-3.173-1.5M925.019,462.4c-1.779.414-2.669-1.141-4.118-4.144s-2.556-3.414-6.227-2.072-3.113,1.037-.668,1.969a33.163,33.163,0,0,0,3.113,1.243c.335,0,3.894.517,3.113,1.035s-4.115,1.033-2,2.485,1.225.415,6.788,3.211,6.45.728,8.232,4.35,1.774,3,.33,3.937-3.337,1.864-2.556,1.967a51.656,51.656,0,0,0,6,.623c3.785.2.224,2.379,4.448,2.379s5.339-1.346,7.007-3.314,2-.932,5.559-.1,4.786,3.934,9.234,5.179,6.336,2.9,3.557.311-3.781-4.451-7.566-7.458-4-3.315-5.111-5.592-5-4.973-9.34-6.732-6.821-2.006-11.9-3.418c-5.229-1.449-6.116,3.73-7.894,4.144M895.76,452.049c-1.664,1.162-1.869.451-3.116-.319s-.9,1.61-3.67.319-3.805-1.937-6.787.261-1.107,3.094-1.182,4.643-2.493,5.932-3.395,7.545-.89,2.194-.206,3.228,1.666.642,2.08,1.159,0,4.58-.488,5.934,1.182,1.613,2.912,1.223.208-.514.208-1.932.829-2.065.829-4.712v-3.865s.488-.261,1.112.641,1.524,3.422,2.284,4.713,1.521,2.255,2.7,1.349,2.281-1.933,2.281-1.933-2.281-.707-2.281-1.484.969-1.415-.626-4-2.42-2.709-.411-2.838,1.94-2.131,3.113-2.711a5.937,5.937,0,0,1,2.841-.385,3.094,3.094,0,0,0-2.978-.71,22.564,22.564,0,0,0-4.921,1.613c-1.521.835-2.841,1.357-3.117-.195a10.673,10.673,0,0,1-.275-4.066c.209-2.127,2.63-.513,4.433-1.027s1.8-.388,5.75-.132,4.224-.646,5.4-2.255a16.49,16.49,0,0,0,1.867-3.487s-2.7,2.258-4.361,3.421m9.351-5.644c.353-.646-2.893,2.223-3.5,2.795s0,1.4.44,2.23.338,3.675.5,4.295,1.837,1.191,1.837,1.191a6.022,6.022,0,0,1,.554-2.795c.613-.881,0-1.969,0-3.572s-.887-2.228.169-4.144m-6.394,17c-2.553-.976-3.506-.333-3.506,1s-.283,2,2.434,2,5.8-1.2,1.072-3m5.082-.866c-.628.2-1.288,2.2-.929,3.4s.786.4,2.218.135,1.211-1.4,3-1.533,5.51,1.264,5.51,1.264.789-.93-2.067-2.727-4.163-1.669-7.733-.536m-50.875-65.872s-2.556.074-2.948.074-1.28.99-1.919,1.378-.638.927-.19,1.937,1.191,1.062,2.442,1.4.807-.542,1.727-.881a2.394,2.394,0,0,0,1.363-1.914,2.9,2.9,0,0,1,1.027-1.349c.22-.258-.723-1.137-.723-1.217s-.781.572-.781.572m30.112,3.6c-1-.745-1.558,1.866-1.837,3.208s-.612,2.23-.109,3.211.278,1.3.278,1.3l-1.449-1.093a9.284,9.284,0,0,0-.388,2.331c0,1.09-.448,1.555,1.223,2.332s2.226.359,2.442,1.555.224,1.7,1.339,1.914a4.473,4.473,0,0,1,2.835,1.4c.443.723.219-1.921,1-1.763a4.5,4.5,0,0,1,2.225,2.02,1.924,1.924,0,0,0,1.386.93s-1.276-2.122-.718-2.382.718-.462-.726-1.346-2.611-.671-3.722-.829-1.112.777-1.948-1.4a6.384,6.384,0,0,1-.164-3.989c0-.462.609.726,1.278-.778a7.892,7.892,0,0,0,.72-4.14c-.109-1.449,1-2.02.166-2.072s-3.279,0-3.833-.414m13.231,27.828c.167,1.048-1-.295-1.438.307s-.668.485-1.375.778a14.835,14.835,0,0,0-2.416,1.885s-.023-1.027.018-1.262-.521-1.438-1.041-.623a4.767,4.767,0,0,1-2.193,1.92,3.363,3.363,0,0,0-2.04,2.487c-.15,1.048.708,1.013.708,1.013a6.667,6.667,0,0,0,1.232-1.555c.771-1.2.914-1.167,2.31-1.343s1.291-.155,1.735.6.1,1.906.143,2.741-.042,1.842,1.392,2.329.755.04,2.069-.077,1.294-.081,1.1-.741a11.436,11.436,0,0,1-.671-2.017c-.08-.778.758-1.108,1.027-1.26s.439.776.835,1.745.562.932.729.195a11.123,11.123,0,0,0,.459-3.419,12.991,12.991,0,0,1-.25-2.426,3.021,3.021,0,0,0-1.022-1.98c-.378-.275-1.669-1.417-1.669-1.417s.19,1.067.353,2.117m-6.4-6.341s.029-.66-1.177-1.845-1.24-1.529-3.084-1.848-3.682.161-2.9,2.138,1,2.267,2.563,2.5a3.2,3.2,0,0,0,2.5-.608s.117.315-1.352,1.24-1.639,2.688-.488,3.374,1.122,1.737,1.785,1.209,1.148-2.342,2.5-3.607,1.438-1.449,1.613-2.795a10.636,10.636,0,0,0,.029-2.424Zm3.15-3.794c-.169.13-1.13-.1-.129.871s1.917,1.185,1.793,1.9-.04.858-.6.776-.732-.212-.982-.23-.287.465-.122.913.122-.058.6.7a3.681,3.681,0,0,1,.5,1.885c.146.872.521.448.521.448s-.126-2.1-.063-2.524-.169-1.458.539-1.128.52,1.576.939.411a5.366,5.366,0,0,0,.026-3.128c-.209-.935-.942-.972-1.8-.972a6.486,6.486,0,0,0-1.228.082m-14.386,3.59c-.414.1-.67.505-.919,1.925a5.251,5.251,0,0,1-1.9,2.988,28.051,28.051,0,0,0-3.3,3.516c-.132.444-.15.174,1.584-.645s3.105-1.9,3.308-3.005-.2-.427,1.323-1.145.749-.953.811-2.083-.151-1.745-.914-1.55M970.7,463.955c-.187,1.442.414,1.87-.921,2.927s-2.835,1.064-4.258,1.3-.38-.235-2.136-.287-2.2.077-1.391.956.609,1.735,3.194,1.632,4.726-1.5,6.4-2.017,1.529-1.866,1.668-2.485-2.365-3.575-2.555-2.025m7.223,3.11c.715,1.016.444.858,1.36,2.2s2.37,1.581,3.451,1.943,0-.388-.8-1.474a12.759,12.759,0,0,0-2.06-2.772c-1.2-1.085-3.2-1.682-1.948.1m-93.915-87.074c-3.566,2.267-5.171,2.1-3.752,4.973s2.307,4.092,2.5,4.635.918-.362,1.885-2.64,1.088-5.258,1.478-6.161-.892-1.584-2.112-.806m61.028-111.718c.393,1.5.777,3.831-.111,4.087s-1.5,1.919-1.722,3.63-.668,3.88.275,5.23.279,1.444.279,2.589.333,4.037-.224,5.745-.887,2.125-.663,3.936a34.109,34.109,0,0,1,0,4.767c0,2.589-.166,4.657-.055,5.691s.663-.514,1.051-.876a2.289,2.289,0,0,1,2.725.311l.839.881s1.331.568-.5-3.366-2.167-3.105-1.668-6.681.778-3.624,2.666-3.991,2.89,2.229,3.117,2.487-.169-.881-.836-2.9-1.28-2.692-1.5-5.229-1-4.665-2-5.386-.5-1.919-.055-2.9a8.159,8.159,0,0,0,.393-4.2,44.476,44.476,0,0,0-1-5.024c-.282-.93-1.394.568-1.394.568Zm-1.668,39.668a4.971,4.971,0,0,1-.554,3.464c-.782,1.3-.225,1.607-.668,3.418s-2.614,0-2.614.367a3.777,3.777,0,0,1-.892,2.12c-.554.465-2.448.571-1.891,2.382a25.6,25.6,0,0,0,1.561,3.727,8.869,8.869,0,0,1,1.441-1.137c.338-.1,1.225-.361,1.225-.361s-.164-.52-1.389-1.088a1.673,1.673,0,0,1-.947-2.123c.169-.367,1.724.1,2.725,0s1.837-.623,3.062.359a8.12,8.12,0,0,0,3,1.351,9.14,9.14,0,0,1,.774-2.487c.557-1.033,2.172-.571,3.784-1.033s2.833-.726,2.281-1.4-.5-2.175-.84-3.316-1.389-.051-2.221.364-1.89.1-3-.62-3.113-3.469-3.836-4.557c0,0-1.114-.57-1,.571m-4.981,16.981a3.635,3.635,0,0,0-1.082,3.146c.126,1.515,1.415-.118-.253,4.543s-2.5,5.71-4.129,6.917-3.125,1.2-3.751.89.169-1.36.626-1.673-1.421-.425-2.21-.307-.045,1.013-.129,1.745-1.624,2.72-1.455,3.616.164,1.167-.837,1.475-1.664-.74-1.957-.9-1.793.275-3.756.542-2.456.932-3.292,2.373-2.8,1.669-4.214,2.212-.876,2.566-2.419,3.263-1.544,1.98-1.668,3.03.956.311,1.125.233.169-1.478,1.13-1.32,1.08.192.578,1.28-.787,1.632-1.286,2.564.164,1.36.913,2.3,1.463-.275,3.044-1.945,1.713-2.061,1.587-3.963-.755-1.945-1.917-2.482-1.423,0-.129-1.483,1.877-.035,2.753-.7,3-.623,5.047-1.127,4.008-1.162,4.089-.505.711,2.875.787,3.34,1.428-.66,2.8-1.165.087-.734-.042-1.629a1.528,1.528,0,0,1,.628-1.4s.712,1.478,2.918.43,2.379-1.478,2.964-1.325.959.742,1.874.158,1.088-.04.919.43,2.671-.9,3.294-1.32.293-.04.04-1.673-1.042-1.745-.58-3.842a18.542,18.542,0,0,0,.459-3.616c.121-1.32.623-1.512.956-1.592s.338-1.826,1.041-2.753.543-1.362.543-3.5-1.169-1.75-1.246-3.26a11.355,11.355,0,0,1,.285-2.993s-2.376.893-2.621,1.436l-.258.544s-.37-.39-1.166,0m-15.566,23.34a43.653,43.653,0,0,0-5.662,1.14c-1.463.468-1.774,1.111-1.547,2.571a30.431,30.431,0,0,0,1,3.682c.2.758,1,0,2.376-.731s1.288-2.864,2.6-2.864.829,1.523,2.6-.612.43-2.31.485-3.389-1.856.2-1.856.2m155.835-115.019c-2.635-.514-3.4-1.087-3.641-.132s-.531,1.272,1.138,1.866,2.5-.439,4.063.726,2,1.111,3.194.958a2.578,2.578,0,0,0,1.668-.752,37.6,37.6,0,0,0-6.421-2.666m-30.119-41.492c-.969.272-1.756-.66-1.5,1.71s.789,2.64,3.831,2.21a37.886,37.886,0,0,1,4.924-.425c4.169-.307,5.043-.9,5.043-.9a7.346,7.346,0,0,0-2-2.25c-1.418-1.085-3.3.74-6.508.193a35.291,35.291,0,0,0-3.788-.542m-93.964-34.993c.04.91,4.169,3.455,5.668,4.2s2.666.427,5.842.077,3.421-1.7,3.791-2.482-1.5-.505-3.622-.932-3.88.386-4.631,0,1.125-.776-.752-1.478-2.336.232-2.754-.076-.5-.976-1.415-1.05-2.172.9-2.126,1.745m-16.352,5.322c-1.437.575-1.334,1.088.29,2.445s1.09,1.05.378,2.02,0-.04,2.336,1.008,3.3,2.956,4.755,3.382a3.447,3.447,0,0,0,2.461-.118,13.32,13.32,0,0,0-1.877-3.418c-1.376-1.862-4.342-2.4-4.886-4.037s-1.415-2.1-3.458-1.283m14.889-7.609s-2.123-1.283-5.34-3.3-4.419-2.564-5.5-2.717-.913,1.128-1.334,2.133-.708.815-2.381,0-3.335-2.056-5.042-2.448-2.75,1.013-4.712,2.956-.832,2.485,1.544,5.357,3.422,3.033,5.336,1.9,1.375-1.863,2.753-1.32,6.132-.542,6.3-.542-.295,2.64,1.793,1.943,4-1.048,4.961-2.1,1.624-1.863,1.624-1.863M808.687,99c-.61.514-4.169.2-6.006,3.1s-3.11.884-4.06,2.645a36.358,36.358,0,0,0-1.724,3.883s1.673,1.969,3.451,1.814a7.9,7.9,0,0,1,6.615,3c1.724,2.379,3,2.379,7.171,3.051s2.278,1.248,4.453,1.042,5.166.258,4.5-.832a4.69,4.69,0,0,1-.887-3.883c.275-2.123,2.218-2.02-.058-3.418s-3.9-.258-3.781-.518,2.057-1.037,1.28-1.088-4.617-.256-5.061-2.431,1.053-2.336,1.83-2.49.56-.41-1.668-2.017a61.429,61.429,0,0,0-5.222-3.263c-1.391.726-.224.879-.835,1.4m20.908,15.687c-1.613.311-2.947,1.917-3.891,3.315a25.236,25.236,0,0,1-4,4.451c-1.17.932-.835,1.2,1.056,1.871s5.225-1.194,6.172-1.246,1.668,1.4,4.672,1.033,7.561-.932,5.338-2.537a46.862,46.862,0,0,1-3.894-2.795,10.752,10.752,0,0,0-5.558-2.123s5.06-1.708,3.839-1.811-3.73-.158-3.73-.158M701.037,89.156c-2.91,1.045-1.891,1.555-3.785,3.059s-.615,1.914,3.451.93a25.51,25.51,0,0,0,6.895-2.588c2.609-1.194-2.223-2.956-6.561-1.4m6.447,7.305c-2.732,1.209-2,2.485-1.277,3.519s2.721-.623,3.274.522.726.666,3.286-1.042,1.615-1.188.616-3-1.225-2.072-5.9,0m-15.193-.752c-1.748.832-1.748.736-.087,1.513s5.716,1.4,7.8.037,1.925-1.085-.708-1.473-5.048-1.013-7-.077m-25.774,3.142a40.057,40.057,0,0,1,7.386-.114c2.164.235,1.372,2.1-2.634,2.527s.378,1.048,3.213.93,1-2.448,3.381-3.263,3.876-.312,6.711-1.32-1.624-1.98-4.923-1.9a65.34,65.34,0,0,1-7.171.077c-2.795-.195-5.05,1.062-7.925,1.553-5.921,1.009-.747,1.745,1.962,1.512m21.265.74c-2.384,0-8.131,1.32-3.294,1.785s4.467.777,6.465.04-.663-1.825-3.171-1.825m16.856,1.013c-3.4-1.122-3.469-.665-6.095-.547s-3.667,1.75-1.954,2.447a6.871,6.871,0,0,0,4.29.2c1.417-.233,1.334-.66.419-1.011s5.34-.425,3.34-1.085m14.261-4.2c-2.6.322-2.754.778-3,1.627s.373.66,3.128.312a14.259,14.259,0,0,0,5.837-1.71c1.793-.971-.375-3.34-.375-3.768s-2.54,1.286-3.252,1.9.745,1.246-2.336,1.636M514.662,245.38c-1.314,3.622-3.477,5.295-.918,4.29s5.116-4.123,4.987-1.449-2.626,2.284-1.84,4.9.2,2.4,4.462,3.343.784.617,1.837,3.125,1.768,3.286.654,4.012-4.393-2.284-4.588-1.006.454,2.231,1.243,4.013-.525,2.786-3.013,3.957-.33,1.895,1.573,1.785,6.689-1,5.9.666-3.08-.278-4.715,2.508-7.683,5.182-4.533,5.018,2.692-1.006,12.075-2.341,2.878-.113,9.047-2.009,4.2-2.4.789-1.837,2.233-3.348,1.444-6.964-3.013-.169-4.462-2.456-1.248-2.952,1.51-2.12,2.5-.554-2.823-3.952-2.032-2.732-4.459-5.575-6.555-2.508-6.555-2.508a8.357,8.357,0,0,0,2.815-3.12c1.048-2.062,1.248-1.9,2.362-4.4s-1.114-2.284-3.931-1.676-3.744.9-3.15-.221a11.691,11.691,0,0,1,2.3-2.956c1.314-1.392,1.57-2.115-.853-1.557a17.787,17.787,0,0,0-4.852,1.447c-3.15,1.449-.987,3.455-2.3,7.078m-6.626,8.525c-4.287,1.69-3.081,2.79-2.358,3.4s2.032-.557-1.97,1.732-4.066,4.787-1.969,5.29,1.838-1.223-.388,2.956-3.741,7.023.789,5.963,5.768-3.4,7.931-3.677,2.56-2.006,2.56-4.628-1.441-2.674.264-4.849,1.834-4.459-1.515-5.513-.652-1.732-3.344-.671m53.872,58.486c-.23.588.283,2.175-1.447,3.26s.836,2.077,1.389,3.11,1.28-3.521,1.111-5.7-.33-2.537-1.053-.671m-.832,8.6c-2.827,1.338-3,2.328-3.34,4.454s2.284.411,1.613,2.273-.05,2.849,2.894,1.093,1.28-3.366,1.722-5.6.836-3.986-2.89-2.225m43.593,22.884c-2.485-.241-3.587,1.32.666,1.788s6.172.544,7.759.155.246-.077-1.84-1.475-3.418-.156-6.586-.468m23.685,1.32c-3.426-.737-2.5,3.421,1,2.8s2.167.232,3.755-2.333-1.17.309-4.76-.468M543.167,325.9c-2.783.356-3,1.3-.832,1.867s1.888-.1,3.113-.987-1.053-1.033-2.281-.881M374.707,275.209c-1.708,1.357-3.67,3.342-6.09,7.69s-2.164,3.888-4.5,6.293-1.165,1.863,6.091,3.263,6.669,2.487,8.342,2.02,2,.927,2,2.41,1.581.615,2.333-1.71-.752-6.526-2.249-8.931-1.84-2.413-4.173-1.79-1.587-.542-2.416-2.4-2.175-.39-.169-3.187,2.5-4.969.832-3.653m-222-4.968c0,2.31,2.444,6.262,4.28,7.561s1.449.571.612-2.178-.164-2.743-.557-4.5-4.335-1.708-4.335-.879m12.178,12.635a21.42,21.42,0,0,0,4.5,4.3,15.864,15.864,0,0,0,5.9,2.691c2.671.778,3.836-.261,2.112-1.811s-.279-1.4-3.392-2.126-3.777-.462-5.338-1.449-4.837-2.692-3.778-1.6m-67.8-25.763c-2.006-.456-2.795-.543-4.173.542s-1.75,2.02-1,3.226.29.544,2.04-.66.924-1.36,3.131-1.906,1.753-1.283,1.753-1.283a2.425,2.425,0,0,1-1.753.081m-.707-2.677c-1.351.81-1.8,1.475-.295,1.162s1.291-1.162,2.252-.972,1.294-.19,1.294-.19a3.866,3.866,0,0,0-3.252,0m-38.5-6.178c-1.834.9-3.572-.155-2.439.523a6.934,6.934,0,0,0,3.876,1.185c1.211-.135,2.006-.155,1.566-.737a1.885,1.885,0,0,1-.583-1.338c-.045-.818-.584-.525-2.421.367M673.456,501.343c-2.115,4.664-6.568,2.382-10.124,5.8s-3,2.382-.335,7.146-2.218,4.247-3.45,9.839,1.449,4.557,2.893,9.321,2.115,3.315,4.786,2.692a15.547,15.547,0,0,0,4.557-1.863,66.712,66.712,0,0,1,2.223-10.253c1.782-6.109,3-10.565,3.337-14.6s.666-6.938,1.561-5.7,1,1.244,1-.724-1.066-7.5-2.778-8.8c-3.007-2.281-1.558,2.485-3.667,7.143m3.117-318.565c-2.915.668-4.3,2.45-2.175,3.147s1.919.316,5.425-.932-.378-2.875-3.25-2.215m54.486-52.919c-.993-1.555-1.883.52-12.115,4.973s-10.124.618-19.687,8.181-7.45,6.626-8.009,11.186-2.779,2.585-3.67,6.729-5.779,4.353-3.337,7.77,5.67,5.383,10.785,6.835,6.563-.1,5.455-.623-5-6.629-4.227-13.567,3.337-5.9,5.562-8.493,8.005-9.321,11.79-11.6c3.673-2.215,13.456-5.311,18.385-7,.14-.052.316-.04.407-.14,3.891-4.348-.333-2.69-1.339-4.245M703.484,176.41c-1.211.172-1.779.209.448,2.382s4.168,3.833,3.442.932-2.779-3.469-3.889-3.315m36.529-21.075c-1.624-.758-2.5-1.553-2.89-.311s1.837,2.9,4,3.315.444-2.276-1.114-3M357.162,285.671c-2.473-1.24-4.889-2.226-6.5-2.226s.333,1.706,2.89,3.107,5.059-.155,3.612-.881m-5.89,10.41c.132-2.054-1.367,2.358.47,3.34s2.786,1.24,3.952.048.217-.439-1.392-.723-3.139-.956-3.03-2.666m728.581-71.358a12.509,12.509,0,0,1-5.254-.546,8.116,8.116,0,0,1-1.082,3.575,2.286,2.286,0,0,0-.257,2.408s-3-1.32-4.747-1.943-3.337-.077-4.343-2.721-4-2.172-6.336-2.172-1.665-3.028-1.665-3.028l-1.42.072c-1.422.082-1.169,3.5-3,4.585s-7.595,1.788-7.595,1.788,3.672,2.64,4.427,4.815a20.923,20.923,0,0,0,2.167,4.272s-.338,1.013-4.76.155-4.165.858-8.921,2.793a66.244,66.244,0,0,0-11.51,5.985c-1.339,1.085-1.42.465-5.589-.543s-5,1.162-6.09,1.708-.665-2.485-.665-2.485a8.155,8.155,0,0,0-3.34.93c-19.013,9.659-5.9,9.15-6.5,11.1,0,.008-2.006,7.535-2.006,7.539-2.795,8.324-4.731,3.965-7.089,10.562-7.5,20.97-11.846-3.236-11.846-8.775,0-3.422-.749-7.844,1.421-8.857,18.662-8.69,1.75-1.206,19.266-13.2,5.678-3.884,2.585-6.215,3.836-7.3a7.529,7.529,0,0,1,3.257-1.4l-3.087-.307c-3.088-.307-3.173.388-5.592,3.03s-4.334,3.108-3.836,1.085.584-4.115-1.246-3.025-2.588.927-6.006,1.631a16.777,16.777,0,0,0-10.177,6.212c-3.086,3.888-1.333,3.418-.333,4.348s-4.924.7-7.756.47-1.341-.778.33-1.323-2.5-1.009-6.173-1.787-2.252.625-4.416,1.475-2.086-.774-3.171-1.008-5.922-.543-9.34-.935-3.173.235-4.089,1.4-7.257,6.761-10.011,9.945-6.17,3.883-9.258,6.835-3.587,2.793-1.087,3.263,2.84.227,3.253,2.56,1.587,3.105,4.256,3.105,1.919.7,2.418-1.32-.668-4.345,1.587-2.563,4.086,3.11,4.752,5.673-.169,4.425-1.334,8.7-1.584,10.406-3.171,13.512-2.835,5.436-4.588,8.855-10.261,12.038-12.175,12.815-3.168.855-4.089-.855-1.584-1.4-3.754.543-3.168,3.11-4,6.212-2.674,3.11-4.591,5.438-2.416,1.79-1,4.43,3.751,5.438,4,8-1.169,6.293-2.083,7.928-5.254,2.4-5.174,1.628a61.055,61.055,0,0,0,0-6.912c-.167-2.25-1.837-2.25-1.254-2.951s3.007-1.864,1.254-3.5-3-.23-3.751-2.17.335-3.5-.081-4.2-1.673-1.475-4.258-1.71-3.171,2.329-3.759.074.258-2.482-.913-3.414-2.17-.311-5.166,2.252-3.593,2.02-6.095,3.105-2.5,1.71-1.917,2.568,2.669,4.58,4.419,4.969,3.005-.779,5.671-.779,3.173.39,2.5,1.4-2.5,2.025-5.753,5.285-2.259,2.643-1.169,3.963a23.1,23.1,0,0,1,3.835,5.515c1.17,2.56,0,3.492-.164,4.965a6.8,6.8,0,0,0,1.753,6.066c2.167,2.324.663,1.552.414,2.4s-3.92,7.532-5.589,10.877-1.673,3.648-7.088,7.455-7.843,4.193-10.761,4.733a36.261,36.261,0,0,0-6.924,2.025c-1.5.623-.921,1.863-1.079,2.64-.175.778-1.587.077-1.341-1.09s.087-2.02-.665-2.328a4.731,4.731,0,0,0-5.5,1.085c-2.419,2.333-5.343,2.487-6.344,5.443s-.829,1.943.258,3.183,6.336,6.293,7.587,9.005a17.546,17.546,0,0,1,1.587,7.693c.081,2.952-6.009,8.39-8.677,10.177s-3.255,3.493-2.838.7-1.165-4.425-3.083-6.523-7.756-3.807-8.846-4.041.419-1.936-.336-1.864-2.5-.388-2.247,2.333-1.75,1.863-2.168,4.583-.919,5.512.832,5.282,1.42,2.408,2.754,5.361.829,1.32,4.169,4.037,2.5,2.252,3.257,4.973.5,4.271,2.17,6.758,1.75,3.03-1,1.628a15.736,15.736,0,0,1-6.09-4.815c-1.087-1.708-1.747-6.061-2.416-8.231s-5.17-4.738-6.671-6.293-.588-2.795.166-6.37-.335-6.993-.588-9.164a63.64,63.64,0,0,0-2.838-10.331c-.832-2.059-.5-1.787-1.793,0s-2.287,2.873-3.541,2.873-3.084-.193-2.92-1.011,1.42-3.921,1.046-5.087-1.549-4.9-3.3-6.215a13.392,13.392,0,0,1-4.881-6.212c-1.125-3.065-1.42-2.173-3.587-.583s-7.136,1.787-9.512,1.98-.414,1.36-1,2.527-3.377,2.677-9.007,8.543-6.479,6.058-7.939,6.682-2.368.425-2.32,2.83a35.937,35.937,0,0,1-.019,5.868,12.5,12.5,0,0,1-1.533,4.4,25.836,25.836,0,0,0-1.466,5.156c-.195,1.291-1.449,2.795-3.282,4.115s-1.834,1.085-2.669-.855-5.17-9.4-8.672-16.387-2.671-8.236-3.007-10.256-.4-14.143-.25-15.067c.089-.517-1.693,1.423-2.2,2.405s-.472,2.178-2.471,2.358-2.421.209-4.309-1.684-2.756-2.947-2.426-2.9a10.467,10.467,0,0,0,3.762-.829c1.246-.623.829-1.3.829-1.3s-1.357.153-2.975.233-.89-.362-3.028-1.217-2.619-.932-2.978-1.888-.887-2.307-1.2-3.033-.554-.778-.913-1.679-1.389.155-3.7.2-1.782.155-4.562,1.244-3.2.7-6.339.6-5.336-1.452-6.924-1.994-1.833-.312-4.169-.649-1.833-1.526-2.421-2.513-1.553-1.217-4.615-.982-3.17.08-4.889-.39-1.866-1.085-3.311-2.537-.971-.307-1.917-1.064a8.048,8.048,0,0,1-2.64-3.8c-.752-2.02-.583-2.46-1.449-3.392s-.8-.7-3.506-.7-1.466.18-1.8.364a18.135,18.135,0,0,0-1.919,2.3c-.747.932.61,2.23,1.7,3.5s.138,1.136,1.866,3.055,1.136,1.734,2.362,4.4,2,3.34,2.278,4.144.531-.311.81-1.037a11.875,11.875,0,0,0-.109-3.316,16.583,16.583,0,0,1,1,3.007c.473,1.914.14,1.94.473,3.162s0,1.056,2.086,1.056a20.739,20.739,0,0,0,5.673-.462c2.31-.543,3.3-2.64,4.39-3.265s1.088-2.8,1.808-2.563.032,2.563.7,4.089.832.984,2.448,1.658,2.054,1.062,3.693,1.682.528.7,1.42,2.333.836.723,1.7,1.294.53.155-.084,2.1-.723,1.966-2.167,3.546-1.449,1.088-1.669,1.037-.666-1.165-.666-1.165a12.191,12.191,0,0,0-1.056,4.092c-.14,2.2.723,1.394-1.922,2.457s-4.227,1.5-5.251,2.384-1.027,2.046-1.613,2.614-1.394.052-3.168.671-1.285.491-2.783,1.636-.169,1.033-2.083,1.756-5.394,2.41-7.147,2.593-1.389.644-1.833,1.289-.477.984-2.7,1.322-5,.652-6.37,1.323-3.363,2.175-4.807,1.888-1.056-.338-1.529-1.632a15.535,15.535,0,0,1-.947-4.348,20.361,20.361,0,0,0-2.2-7.4c-1.222-2.048-1.2-2.18-2.527-4.327s-2.226-3.96-3.392-4.789-1.748-.881-2.31-1.5-.224-2.746-.8-4.557-.976-3.572-1.837-4.585a22.272,22.272,0,0,1-3.392-4.319c-1.193-2.152-1.277-2.387-3-5.7s-2.344-3.73-3.48-5.954-.393-1.79-.807-3.11-1.5,2.149-2.362,2.824-1.306.336-2-1.632-1.283-3.7-1.808-2.922-.945,1.552-.227,3.653,1.064,1.65,2.006,3.645,3.527,7,4.583,9.065.642,1.059,1.618,4.2,1.526,3.521,2.83,4.81,1.09.625,1.672,2.748a26.337,26.337,0,0,1,.448,5.906c.081,1.291.8,1.965,2.362,3.26s.778.829,1.5,2.2a30.818,30.818,0,0,1,1.866,4.66,4.112,4.112,0,0,0,2.138,2.875,21.144,21.144,0,0,0,2.783,1.116c1.222.439.8.747,1.636,1.811s2.45,1.862,3.455,3.55.33,1.188.27,2.82-.58.879.143,1.734,1.974,1.555,4.081,2.947.427.419,2.312.367,2.284-.546,4.311-.987,4.642-1.191,7.144-1.785,4.945-.982,6.23-1.4,1.309.99.33,3.162-1.441,3.986-2.278,5.749-1.143,1.914-1.753,3.34-4.729,7.246-5.584,9.087a22.653,22.653,0,0,1-3.142,4.844c-1.254,1.526-5.174,4.295-7.007,5.771s-1.363,1.475-2.724,3.213-5.5,6.549-6.623,8.258a35.032,35.032,0,0,0-2.582,4.012c-.832,1.682-3.194,4.063-3.337,5.28s-1.47,1.375-.473,2.439,1.529,1.24,1.893,2.585-1.116,2.873-.166,5.335.275.7,1.7,2.666,1.36,3.211,1.5,6.087a31.537,31.537,0,0,1-.164,7.584,35.239,35.239,0,0,1-1.7,4.767c-.637,1.681-4.143,2.824-6.2,3.727s-1.969.542-2.919,1.682-3.667,3.521-4.583,5.28-1.615,1.581-1.251,2.7,1.133,2.563,2.083,4.635.279,1.914.055,3.7-.195,1.5-.444,3.673-2.809,2.226-5.728,3.366-1.862.573-2.2,2.149-.132,4.686-.248,6.549-1,1.116-2.587,3.418-2.221,3.4-3.92,6.165-1.555,2.382-3.7,4.118-3.836,2.17-4.778,4.164-2.032.676-6.619,2.149-1.249.755-5.613,1.243-5.926.832-8.232,1.243-2.006-.124-3.421-1.679-1.64-1.429-2.275-2.721-.167-1.607-.365-3.937a6.175,6.175,0,0,0-1.248-3.859,22.564,22.564,0,0,1-1.753-3.986,18.9,18.9,0,0,0-2.423-4.5c-1.053-1.555-1.36-1.059-2.333-2.072s-1-1.893-1.225-3.315-.557-4.789-1.027-8.339-.055-1.658-.615-3.158-1.222-3.315-2.168-5.306a28.516,28.516,0,0,0-2.057-3.937,23.8,23.8,0,0,1-2.225-4.268c-.918-2.154-1.053-1.2-1.108-2.025s.469-2.328.528-3.777.528-3.131.884-5.362-.5-2.2.447-3.728a24.434,24.434,0,0,0,2.534-4.66c.612-1.731.525-1.813.525-4.012s-.224-2.017-.889-3.859-.916-3.989-1.722-6.936a17.44,17.44,0,0,1-.9-3.991,27.643,27.643,0,0,0-1.222-5.254c-.552-1.552-.832-.932-2.052-1.94s-.419-.571-1.475-1.687-.861-1.475-1.891-2.692a14.868,14.868,0,0,1-2.006-2.64c-.829-1.372-.381-.543-.272-2.849s.774-6.706,1.2-9.245.5-2.4-.473-3.467-1.673-2.59-2.419-2.846-2.561.256-5.2.206-2.529-.646-3.667-1.969-2.647-3.158-3.174-3.649-1.446-.47-5.945-.132-1.782.417-4.789.884-4.169,2.041-6.476,2.849-2.973.594-7.031-.209-6.088.935-8.149,1.814-3.059.462-4.557-.571a29.343,29.343,0,0,0-4.7-3.028c-2.3-1.141-1.777-1.761-4.055-2.875s-1.533-1.167-3.421-2.952-2.028-3.6-3.337-5.464-2.424-4.477-4.173-6.447-3.474-5.929-4.335-7.117-1.524-1.3-1.5-1.866,1.7-3.91,2.4-5.644.887-1.5,1.191-2.589-.414-4.221-1.082-5.93-1.42-5.309-1.943-6.993.27-1.708.916-2.661a57.793,57.793,0,0,0,3.751-5.9c1.586-2.956,2.476-4.4,3.308-5.779s2.751-5.588,4.008-6.729a39.835,39.835,0,0,1,5.8-4.118c1.36-.7,2.474-1.085,2.7-1.708s.8-5.747,1.2-7.9-.135-3.34,1.42-4.168,4.058-2.384,5.367-3.11,1.5-1.813,2.164-3.389.95-3.572,1.951-4.224.723.287,2.028,1.165a5.358,5.358,0,0,0,2.141,1.09c.613.158,1.165-.5,2.7-.517a3.776,3.776,0,0,1,2.609.674c.914.488.415.491,3.033-1.116a41.423,41.423,0,0,1,8.12-3.857,35.432,35.432,0,0,1,7.337-2.149c1.584-.184.778.022,2.56.726s1.863,1.008,2.221.488,1.529-1.969,2.281-1.914,1.613.362,3.53.7,2.725.155,3.506-.261,1.776-1.243,1.969-1.243a32.65,32.65,0,0,1,3.173,1.064c1.335.491,1.36.568,1.085.9a6.977,6.977,0,0,0-1.305,2.149c-.641,1.452-.336.674.275,2.2s1.056,1.449.778,2.563-1.529,2.149-2.447,3.234-.692,1.269,1.56,2.542a31.644,31.644,0,0,0,4.253,2.2c2.531,1.141,2.64.726,5.587,1.607s2.585.982,3.612,2.178,1.085,2.329,2.864,2.947,3.67.625,4.7,1.27,1.863,1.579,3.255,1.84,1.383.439,2.054-.571,1.22-1.914.975-2.436-1-1.32-.84-1.811,1.339-2.456,1.7-3.051,1.283-.755,3.48-.858,3.722-.415,4.084.879.278.7,1.974,1.4,1.866.7,3.281,1.243.7,1.317,1.42,1.265a8.708,8.708,0,0,1,3.223.233c1.336.39,3.781,1.555,6.367,1.658a6.512,6.512,0,0,0,3.978-.858c.39-.175,2.223-2.428,3.311-.876s2.5,1.579,5.222,1.421,2.753-.567,3.366-1.268a18.965,18.965,0,0,0,2.783-5.151c.525-1.813,1.969-5.771,2.358-7.561a10.69,10.69,0,0,0-.166-4.243,5.89,5.89,0,0,1,.531-2.98c.415-1.19-1.309-.467-2.006-.232s-.887-.364-1.524-.547-1.309-.336-1.782.86-.254,1.785-2.809,1.656-2.083-.287-2.918-1.194-2.252-1.138-3.4-1.475-1.246-.287-1.331.439-.109,1.217-.942,1.5a7.255,7.255,0,0,1-4.313-.8,10.425,10.425,0,0,1-3.615-2.643c-1.558-1.526-1.331-1.526-1.972-3.88a10.3,10.3,0,0,1-.361-5.076c.272-.7.723-.9-.472-.542s-2.007.565-1.2-1.217,1.555-1.867,2.394-2.1a22.384,22.384,0,0,1,3.7-.361,9.035,9.035,0,0,0,3.363-1.14c.557-.235,1.7-.623,1.116-.778s-2.336-.336-2.033-.829.5-.465,1.446-.568,2.419-.158,3.675-.23,2,.153,2.42-.6a6.077,6.077,0,0,1,1.914-2.46c.975-.594,2.031-.287,4.591-.39s2.164.517,3,1.116,1.391.307,2.479.517.415.855,1.248,1.191,2.365.676,4.224,1.27.641.336,2.919.336a15.772,15.772,0,0,0,4.008-.285,8.05,8.05,0,0,0,3.834-1.893c1.28-.9.39-2.875-.081-4.4s-2.479-2.508-3.395-3.21-2.89-2.93-3.946-3.831a18.067,18.067,0,0,0-3.45-1.811c-1.167-.654-3.253-1.713-3.448-2.568s.448-.876,2.172-1.291,1.169-.778,1.5-1.685.477-.881,1.893-1.4-1.635-1.607-2.057-2.2.945-.417,2.365-.755a1.919,1.919,0,0,0,1.722-1.607c.2-.594.137-.879-1.528-.85s-3.781.723-6.59,1.475-1.526.776-3.223,2.1-1.808.747-1.584,1.473.33,1.423,2.052,2.333,1,.932,1.478,1.062,1.64.309,1.112.467-1,.979-1.782.979-1.116.8-2.447,1.555a7.066,7.066,0,0,1-2.889,1.013c-.971.153-1.668-.158-1.533-1.816s-.5-.539-1.529-.927a3.822,3.822,0,0,1-1.418-.834,11.662,11.662,0,0,0,2.06-1.008,3.981,3.981,0,0,0,2-2.3c.5-1.27-1.116-.573-2.281-.726s-.837-.261-1.974-.415a2.134,2.134,0,0,1-1.584-1.059,3.463,3.463,0,0,0,1.5.1c.972-.1.755-.364,1.111-.625s.646-.491.362-.491-1.473.129-2.276.077a8.574,8.574,0,0,0-2.45,0c-1.169.18-.7.62-1.529,1.162a2.986,2.986,0,0,0-1.306,1.533c-.443.8-.586.671-.89,1.188a7.21,7.21,0,0,0-.279,2.7,2.623,2.623,0,0,1-.752,1.888c-.528.726-.528.414-1.42.85s-.3.755-.414,1.636a23.779,23.779,0,0,0-.5,2.358c-.081,1.137-.528,1.188-1.22,1.991s-1.087.8-1.141,1.631a9.908,9.908,0,0,0,0,2.795c.195,1.607.637,1.191,1.892,2.824s1.919,1.013,1.471,1.837-.361.522-1.893.338-1.774.052-2.885,1.114-1.342,1.658-1.922,2.046-.388-.776-.608-1.323-2.783-.723-4.536-1.243a21.348,21.348,0,0,0-2.669-.829,4.964,4.964,0,0,0-2.959.91c-1.834,1.008-1.42,1.592-1.291,2.912s1.581,1.59,1.166,4.7,1.544,1.671,2.376,3.575.085,1.745-.414,1.98-1,1.862-1.38,3.418.04,1.748-.417,1.671-1,.272-1.874-1.011-1.584-.074-1.713-.815-1.211-1.98-.792-3.69,1.085-1.866-.419-2.758-1.122-1.011-1.833-2.838a10.255,10.255,0,0,0-2.247-3.843c-1.383-1.668-1.257-1.2-.881-2.875s.668-3.842-.169-5.008a27.878,27.878,0,0,0-7.131-5.9c-2.835-1.51-3.418-.348-4.672-2.758s-1.827-4.931-3.917-6.41-1.042-1.59-3.044-.85-2.046,1.05-1.877,1.627a4.989,4.989,0,0,1,.33,2.956c-.293,1.589-.707,1.087,1.38,2.326s1.209.975,2.25,3.263,1.211,2.721,2.046,3.653,1.127,1.745,3.213,2.215,1.748-.117,2.287.388-1.46.7-1.082.932a19.264,19.264,0,0,0,2.585,1.98c1.753,1.085,3.55,2.215,4.008,3.068s2,4.074-.253,1.7-2.292-1.275-2.92.353.58,2.875.5,4.078-1.128.74-1.84,1.71-1.082,2.133-1.917,2.758-.584-.7-1.038-.7-.626.579-1.211,1.7,0,1.6.246,3.11.671,1.631-.958,1.555-1.254-1.6-2.749-2.6-2.376-.66-3.63-1.441.542-.967,3.67-1.357,3.5-.7,4.462-1.433.623-.935,1.669-2.41,0-2.06-.712-3.851a6.526,6.526,0,0,0-2.5-2.948,25.169,25.169,0,0,1-2.416-2.407c-.921-1.011-1.88-1.165-3.466-1.553s-1.289-1.827-2.167-2.252-1.753-1.673-3.754-3.535-1.247-3.263-2.168-4.892-1.832-2.873-3.839-2.873-3.5,1.4-5.5,3.337-1.584,2.873-3.92,1.4-3.165-1.32-4.841.076c-1.66,1.4-2,2.8-2,5.592s-2,1.632-3.587,2.407-3,2.721-5.419,7.3.164,2.405-.338,3.96.169,2.8-2.083,4.815-1.254-.232-2.585,1.4a6.511,6.511,0,0,1-6.339,2.563c-3.173-.388-2.255.855-4.258,1.322s-3.084,1.165-2.585-1.09.085-1.94-3.751-1.785-5.174,1.165-4.841.623a13.446,13.446,0,0,0,.924-3.653c.419-2.175,1-2.875.419-2.875s-1.842.316-.921-3.57,1.251-4.585.832-6.835.161-5.285-.33-6.6,1-2.637.33-3.34-1.42-1.628-.916-1.628a34.855,34.855,0,0,1,5.254.543c2.672.465,5.42-.39,7.007-.235s4.921.855,8.255,1.4,3.252-.47,2.922-5.361.25-7.144-.755-8.155-2.08-.932-3.165-2.252-.254-3.263-2.585-3.963-4.928-.155-3.67-.62,1.748-.623.417-1.632-1.674-2.094-.67-2.255,3.834-.155,3.834-.155.253,1.4,1.756.778,3.417-1.238,3-2.25-1.17-2.252-.924-2.252a5.055,5.055,0,0,0,4,1.4c3.173,0,2.92-.465,2.674-1.785s2.086-1.244,3.67-2.333-.586-2.329-.249-3.337,2.167-1.636,5.42-1.862,2.666-.781,2.336-1.167.084-2.023.33-4.118-.246-2.8,1.423-3.805,1.165-.62,4.586-.935,1.331-1.085,1.914-1.239,4.673-1.165,5.425-1.481.67-.227,0-1.71-1.584-2.324-2.333-9.16-.588-6.835,3.582-8.078,3.257-.855,2.92,2.952-2.168,3.805-2.587,6.6-.079,4.5,1.669,7.458,1.587,1.475,5.34,1.475,2.919.93,5.419,1.785,1.669-1.55,4.094-2.408,1.914.546,7.587-.309c2.162-.327,2.9-.4,3.068-.417-.172.011-.8.018-.15-.361,1.334-.778,1.668-2.173,3.59-2.408s3.249.546,3.163-2.41-1.165-2.482-.831-4.738.414-1.24.583-3.028-.246-2.1,2.17-2.717.752,2.173,3.667,2.795,2.5,1.088,3.007-1.162,2.086-5.208.663-5.05-1.748-.077-3.168-2.175-2.247-2.564-1.331-2.564a48.586,48.586,0,0,1,8.419-.7c4.419.153,5.678.542,5.922.076s-.749-.927.752-1.862,6.425.467,5.673-.388-5.085-2.02-8.005-1.552-10.009,1.32-11.094,1.24a7.742,7.742,0,0,1-3.587-1.392c-.5-.547-2.086-.935-2.086-3.5s.919-3.572-.583-6.059,2.749-4.583,5.671-7.223,2.172-4.818,3.917-4.973,2.427-1.085,1.587-1.943S604,204.6,602.5,204.3s-3.751-2.02-6.087,2.02.164,4.427.586,6.524-3.255,3.651-6.009,5.591-3.747,1.478-4.586,6.447-1.669,5.13,1.418,6.835,3.67,2.563,2.255,4.037-4.422,1.4-6.259,4.9-1.082,5.2-1.834,6.755-3.084,2.25-3.755,3.805-.663,4.5-3.5,4.042-1.251-4.276-2.5-6.22-2.252-3.57-3.751-5.977-.332-4.738-1.753-5.984a6.925,6.925,0,0,1-1.753-3.725l-.5,1.165c-.5,1.165-.25,1.863-3.084,5.361a8.426,8.426,0,0,1-9.177,2.872c-2.083-.855-1.75-2.872-1.75-5.438s-.5-5.982-.084-10.019,1.587-3.728,6.009-6.368,4.5-2.487,5.586-4.2,4.256-4.118,6.087-5.673,5.008-7.455,6.674-11.65,4.752-6.758,7.754-11.26,8.343-8.467,15.182-11.339,5.676-3.186,7.252-5.441,2.26-.932,4.926-1.475,2.25,0-.419,2.64-3.831,5.439-1.584,3.342,4-4.585,7.506-4.427,2.086,0,5.507,1.555,4.005,1.7,2.091,2.947c-1.93,1.243-5.179.935-5.179.935a5.392,5.392,0,0,0,4.255,2.952c3.171.388,4.921-2.487,7.007-1.4s2.669,1.862-.169,1.632-3.667,1.55-.164,2.793a29.214,29.214,0,0,0,8.422,2.02c4.586.623,6.592,3.96,10.09,5.438s7.592.232,6.429,3.422.913,6.288-5.174,7.766-5.926-.468-11.009-2.023a90.117,90.117,0,0,1-8.672-3.107,32.926,32.926,0,0,0,3.667,3.965c2.333,2.17,2.585,4.192,2.333,8.155s-1.334,5.05,2.672,6.99,3.422,1.4,4.668,1.088,3.337-.7,2.835-1.323a5.961,5.961,0,0,0-2.252-2.4,1.48,1.48,0,0,1-.081-2.8c1.331-.7,2.582.621,5.5.467s0-1.087,1.417-2.56,1.507-3.96,4.924-5.288,7.085.623,8.009-.85,1.917-3.184,0-5.439-3.422-3.025-2.255-4.118,3.5-3.96,4.591-2.328,3.834,3.421.333,3.105-1.09,5.208,2.083,4.9,2.918-1.32,5.507-2.563,7.672-5.361,11.257-6.6,4.338-.932,5.753-.309,1.42,1.787,5.343,1.009,5.087-1.71,8.757-2.333-.25,1.323,1.415,1.863,1.837,1.013,3.091.161,5.256-2.254,3.422-3.653-3.176-2.331-3.176-2.331a4.99,4.99,0,0,1,4.841-2.717c3.5.23,8.838,3.495,12.262,5.826s7.59,7.3,7.59,7.3,1.5-2.56.246-6.837-4.419-3.26-4.419-7.3-2.922-2.956-1.917-5.826,3.834-3.965,4.591-7.616,1.415-6.674,4-6.674,8.174.774,8.174.774a23.77,23.77,0,0,1-2.088,8.311c-2.083,4.969,1.085,5.517.588,11.574s-.588,6.835.832,8.231,4.092,3.11,3.088,5.747-1.5,4.276-5.256,5.75-8.506.623-6.761,1.788a16.655,16.655,0,0,0,6.508,2.56c2.5.39,1.251-.153,3.253-1.785s6.508-4.9,6.339-6.45-2.585-3.96-.916-5.126,2.333-2.949,4.921-1.475,5.09,6.993,5.09,6.758-.5-5.438-3.587-8.54-8.174-.161-8.174-2.875,1.417-6.45,1.082-9.4-1.5-5.9.419-8.463a9.142,9.142,0,0,0,2-4.583,10.94,10.94,0,0,1,.164,5.433c-.663,3.03.338,4.82,1.753,4.82s7.756.08,4.338-.932-4.419-1.943-1-3.805,3.253-.623,8.253.542,6.172,2.02,7.844,1.943,1.418-.235.832-1.71a6.647,6.647,0,0,0-2.919-3.5c-1.587-1.008-2.666.235-3.168-1.32s-1.417-5.438-1.838-6.912,1.254-.311,3.921-.311,9.926-.388,15.518-.542.084-5.98-.338-10.1,10.344-4.271,15.6-5.045,11.346-.542,21.186-2.875,3.506-1.943,4.923-4.738,3.838-3.263,6.758-3.263,5.591.542,4.506.93-4.338,2.017.749,3.11,3.759,1,1.085,1.94-.414,2.64,4.752,2.64,2.086-.465,1.251-2.175.755-1.088,5.01-.388,5.921,1.4,8.258,3.57,2.749,1.637,3.582,4.665-.08,2.56-3.667,5.357-5.753,2.8-10.927,6.061-3.923,4.969-6.755,7.144-2.086,1.555,3.917,0,9.259-2.563,12.35-2.252,4.583,1.475,6.919,1.475-.164.388,7.176.388,6.247,0,3.583,2.1.5,2.722,3.754,2.722a74.281,74.281,0,0,0,10.256-.312c3.012-.467.422-2.717,4.008-2.875s4.752-.465,8.588-.465,2.669,1.555,4.005,2.951,3.168,2.329,1.917,5.127-1.917,2.87-1.17,6.677,2.674,4.35,5.01,5.05,2.331-3.414,4.586-4.815,2.754,2.793,5.34,2.175a15.332,15.332,0,0,1,7.756.385,12.586,12.586,0,0,0,7.341.391c3.168-.7,2.167-1.94,1.087-3.883s-1.17-1.79.831-3.805,3.337-1.013,9.842.7,4.424,1.71,8.089,2.722,2.5.778,8.094,3.34,4.506,5.592,7.088,7.22,2.754,0,7.928-.462,5.085.62,10.758,2.1,4.166,3.337,4.166,4.973-1.581,2.875,1.922,3.648,4.919,1.475,7.923.7.333.774,7.007.852,4.422-.774,6.424.623,2.5,4.2,5.753,3.888,3-.235,1.668-3.11-2.17-3.343-.25-3.263,5.839.93,13.091,2.1,7.506,2.486,13.437,6.215,7.582,4.037,11.924,7.378a10,10,0,0,1,2.017,1.734,10.479,10.479,0,0,1,2.241.906c4.663,2.175,3.836,1.478,7.84,3.418a45.572,45.572,0,0,1,7.415,4.66s.257.39-2.746.7m-389.16,78.945s-.443.594,1.893-1.273-1.09-.076-2.424-.465-1.753-1.011-1.331-2.717-.169-1.713-1.587-3.963c0,0-.752-.462-2.333.465s-2.5-.927-4.422-.23-4,.388-5.174,3.263-2.5,1.008-2.915,3.337-4.008,3.572-4.008,3.572,1.423,1.4,2.5,2.72.333.468,1.415,4.818,1.842,3.96,3.34,4.58a32.859,32.859,0,0,1,3.836,2.1s-1.415-.858-1.415,1.475-2.255,3.96-2.006,7.378-3.084,6.6-.415,6.916,1.833,1.475,4.754,2.252a27.472,27.472,0,0,0,8.844,1.32c4.25,0,1.914-1.632,1.331-4.041a32.8,32.8,0,0,1-1.082-6.6c-.169-2.638-1.17-1.943-1.838-3.57s.335-2.568,2.333-2.568,2.258-.077,1.17-1.863-.41-2.486-1.756-3.263c-1.328-.778-1.914,2.566-1.914,2.566s-.832-.777-.5-4.041.583-1.708-.414-2.333-1.592.155-2.923-2.017-.164-1.708-1.748-4.348-.757-1.248,1-1.248.832-.388,0-1.24-1.415-2.178.832-2.02,5.174.62,6.256.7.7.338.7.338M379.51,183.989c-.769,1.328,1.305,3.03,2.809,2.5s1.995.058,2.849-.628.935-1.684-.08-2.669-.605-1.563-.774-1.669c-1.917-1.174-4.029,1.137-4.8,2.465m412.331-85.64c-2.255.077-4.76.158-2.671.853s1.251,4.2,5.253,2.252,3.171-2.1,5.926-3.263,1.159-.605-2.168-1.475c-2.086-.542-4.087,1.555-6.339,1.632" transform="translate(227.922 3150.483)" fill="#91b3fa" opacity="0.2"/>
    <rect id="Rectángulo_358399" data-name="Rectángulo 358399" width="1240" height="581.377" transform="translate(178 3217)" fill="none"/>
    <rect id="Rectángulo_358404" data-name="Rectángulo 358404" width="1240" height="581.377" transform="translate(178 3217)" fill="none"/>
    <rect id="Rectángulo_358406" data-name="Rectángulo 358406" width="1240" height="581.377" transform="translate(178 3217)" fill="none"/>
    <g id="Grupo_1021907" data-name="Grupo 1021907" transform="translate(1228 3254.682)">
      <g id="Grupo_1021906" data-name="Grupo 1021906" clip-path="url(#clip-path-2)">
        <path id="Trazado_755690" data-name="Trazado 755690" d="M319.745,47.447a1.538,1.538,0,0,0,1.538-1.538V44.92a1.538,1.538,0,0,0-3.076,0v.988a1.538,1.538,0,0,0,1.538,1.538" transform="translate(-252.95 -34.485)" fill="#fff"/>
        <path id="Trazado_755691" data-name="Trazado 755691" d="M310.831,87.125a1.538,1.538,0,0,0,1.538,1.538h3.025a1.538,1.538,0,0,0,.026-3.075V76.251a1.538,1.538,0,0,0-1.538-1.538h-1.512a1.538,1.538,0,0,0-.026,3.076v7.8a1.538,1.538,0,0,0-1.512,1.537" transform="translate(-247.087 -59.391)" fill="#fff"/>
        <path id="Trazado_755692" data-name="Trazado 755692" d="M44.82,255.591h5.157a1.538,1.538,0,0,0,0-3.076H44.82a1.538,1.538,0,0,0,0,3.076" transform="translate(-34.406 -200.73)" fill="#fff"/>
        <path id="Trazado_755693" data-name="Trazado 755693" d="M44.82,281.832h5.157a1.538,1.538,0,0,0,0-3.076H44.82a1.538,1.538,0,1,0,0,3.076" transform="translate(-34.406 -221.59)" fill="#fff"/>
        <path id="Trazado_755694" data-name="Trazado 755694" d="M89.559,19.723a15.444,15.444,0,0,0-2.941.284c0-.06,0-.12,0-.18a19.862,19.862,0,0,0-2.354-9.374,1.538,1.538,0,0,0-2.71,1.456,16.778,16.778,0,0,1,1.987,7.918c0,.38-.017.758-.043,1.135a15.462,15.462,0,0,0-9.377,13.917,16.55,16.55,0,0,1-3.709,1.3,2.716,2.716,0,0,0-1.768,1.286l-1.854,3.212L64.94,37.467a2.716,2.716,0,0,0-1.768-1.286,16.79,16.79,0,0,1-2.03-.585V32.96A2.662,2.662,0,0,0,58.484,30.3H55.121a2.638,2.638,0,0,0-1.185.282A16.758,16.758,0,0,1,77.348,6.819a1.538,1.538,0,0,0,1.94-2.388A19.826,19.826,0,0,0,51.514,32.459c.3.365.62.714.947,1.054v.616L22.982,45.721H8.414A8.424,8.424,0,0,0,0,54.135v3.758a8.423,8.423,0,0,0,8.414,8.414h3.91V86.265a3.593,3.593,0,0,0,3.589,3.589H19.1a3.575,3.575,0,0,0,3.423-2.511l2.349-7.459a1.538,1.538,0,0,0-2.934-.924l-2.349,7.459a.511.511,0,0,1-.489.359H15.913a.513.513,0,0,1-.513-.513V66.307h7.582l2.62,1.03L24.1,72.1a1.538,1.538,0,0,0,2.934.924l1.435-4.558L52.462,77.9v1.169a2.662,2.662,0,0,0,2.659,2.659h3.363a2.662,2.662,0,0,0,2.659-2.659V66.258a10.292,10.292,0,0,0,0-20.489V38.826c.4.121.808.231,1.218.325l2.5,4.334a2.23,2.23,0,0,0,3.863,0l2.5-4.334a19.59,19.59,0,0,0,3.177-1.021,15.357,15.357,0,0,0,1.788,4.764l-2.4,5.82A1.538,1.538,0,0,0,75.8,50.722l5.736-2.364a15.441,15.441,0,1,0,8.019-28.635ZM21.735,63.23H8.414a5.344,5.344,0,0,1-5.338-5.338V54.135A5.344,5.344,0,0,1,8.414,48.8H21.735V63.23ZM58.067,78.651h-2.53V51.284a1.538,1.538,0,0,0-3.076,0V74.593L24.811,63.72V48.307l27.65-10.872v6.672a1.538,1.538,0,1,0,3.076,0V33.377h2.53Zm9.306-22.637a7.226,7.226,0,0,1-6.229,7.148V48.866a7.226,7.226,0,0,1,6.229,7.147m22.186-8.486a12.294,12.294,0,0,1-6.99-2.166,1.539,1.539,0,0,0-1.457-.154L78.047,46.47l1.289-3.128a1.538,1.538,0,0,0-.134-1.427,12.363,12.363,0,1,1,10.356,5.613" transform="translate(0 0)" fill="#fff"/>
        <path id="Trazado_755695" data-name="Trazado 755695" d="M415.913,139.908H405.6a1.538,1.538,0,0,0,0,3.076h10.315a1.538,1.538,0,0,0,0-3.076" transform="translate(-321.197 -111.216)" fill="#fff"/>
        <path id="Trazado_755696" data-name="Trazado 755696" d="M415.913,163.964H405.6a1.538,1.538,0,0,0,0,3.076h10.315a1.538,1.538,0,0,0,0-3.076" transform="translate(-321.197 -130.339)" fill="#fff"/>
        <path id="Trazado_755697" data-name="Trazado 755697" d="M415.913,188.019H405.6a1.538,1.538,0,0,0,0,3.076h10.315a1.538,1.538,0,0,0,0-3.076" transform="translate(-321.197 -149.461)" fill="#fff"/>
        <path id="Trazado_755698" data-name="Trazado 755698" d="M340.146,334.47h-1.8v-1.8a1.538,1.538,0,0,0-3.076,0v1.8h-1.8a1.538,1.538,0,0,0,0,3.076h1.8v1.8a1.538,1.538,0,1,0,3.076,0v-1.8h1.8a1.538,1.538,0,0,0,0-3.076" transform="translate(-263.865 -263.227)" fill="#fff"/>
        <path id="Trazado_755699" data-name="Trazado 755699" d="M146.538,109.405l-.482,2.811a2.154,2.154,0,0,0,3.125,2.27l2.524-1.327,2.525,1.327a2.154,2.154,0,0,0,3.124-2.27l-.482-2.811,2.043-1.991a2.154,2.154,0,0,0-1.194-3.673l-2.822-.41-1.262-2.557a2.14,2.14,0,0,0-1.931-1.2h0a2.14,2.14,0,0,0-1.931,1.2l-1.262,2.558-2.822.41a2.153,2.153,0,0,0-1.193,3.673Zm2.9-3.1a2.153,2.153,0,0,0,1.622-1.178l.649-1.316.649,1.316a2.151,2.151,0,0,0,1.621,1.178l1.452.211-1.05,1.024a2.152,2.152,0,0,0-.62,1.906l.248,1.446-1.3-.682a2.152,2.152,0,0,0-2,0l-1.3.683.248-1.447a2.152,2.152,0,0,0-.62-1.905l-1.051-1.024Z" transform="translate(-114.345 -79.153)" fill="#fff"/>
        <path id="Trazado_755700" data-name="Trazado 755700" d="M383.718,262.813l-2.822-.41-1.262-2.557a2.14,2.14,0,0,0-1.931-1.2h0a2.14,2.14,0,0,0-1.931,1.2L374.51,262.4l-2.822.41a2.153,2.153,0,0,0-1.194,3.673l2.042,1.991-.482,2.811a2.154,2.154,0,0,0,3.125,2.27l2.524-1.327,2.524,1.327a2.153,2.153,0,0,0,3.124-2.27l-.482-2.811,2.042-1.991a2.153,2.153,0,0,0-1.193-3.673Zm-3.344,3.8a2.153,2.153,0,0,0-.619,1.906l.248,1.446-1.3-.683a2.155,2.155,0,0,0-2,0l-1.3.683.248-1.447a2.154,2.154,0,0,0-.62-1.906l-1.051-1.024,1.451-.211a2.154,2.154,0,0,0,1.622-1.178l.649-1.316.65,1.316a2.152,2.152,0,0,0,1.621,1.177l1.452.211Z" transform="translate(-293.996 -205.603)" fill="#fff"/>
      </g>
    </g>
  </g>
</svg>
