<svg xmlns="http://www.w3.org/2000/svg" width="550" height="150.534" viewBox="0 0 550 150.534">
  <g id="graficos-02" transform="translate(-114.55 -308.6)">
    <path id="Trazado_756272" data-name="Trazado 756272" d="M1588.564,351.562a2.616,2.616,0,0,1-.881,1.88,3.093,3.093,0,0,1-2.1.686,2.774,2.774,0,0,1-2.238-.96,3.93,3.93,0,0,1-.817-2.631v-.452a4.391,4.391,0,0,1,.377-1.88,2.814,2.814,0,0,1,1.073-1.249,3.351,3.351,0,0,1,3.685.25,2.822,2.822,0,0,1,.9,1.926h-1.525a1.555,1.555,0,0,0-.4-1.041,1.476,1.476,0,0,0-1.044-.322,1.3,1.3,0,0,0-1.142.546,3.078,3.078,0,0,0-.39,1.695v.559a3.256,3.256,0,0,0,.364,1.753,1.266,1.266,0,0,0,1.145.553,1.5,1.5,0,0,0,1.054-.322,1.468,1.468,0,0,0,.4-1h1.525Z" transform="translate(-990.492 -25.586)" fill="#12263f"/>
    <path id="Trazado_756273" data-name="Trazado 756273" d="M1605.563,353.4h-1.474V345.59h1.474Z" transform="translate(-1005.04 -24.958)" fill="#12263f"/>
    <path id="Trazado_756274" data-name="Trazado 756274" d="M1612.3,346.738a.726.726,0,0,1,.221-.543.946.946,0,0,1,1.2,0,.774.774,0,0,1,0,1.093.942.942,0,0,1-1.2,0,.728.728,0,0,1-.228-.55Zm1.561,6.922h-1.473v-5.5h1.473Z" transform="translate(-1010.573 -25.221)" fill="#12263f"/>
    <path id="Trazado_756275" data-name="Trazado 756275" d="M1622.949,358.082a2.692,2.692,0,0,1-1.968-.742,2.637,2.637,0,0,1-.761-1.978v-.143a3.33,3.33,0,0,1,.319-1.48,2.35,2.35,0,0,1,.907-1.005,2.561,2.561,0,0,1,1.34-.355,2.282,2.282,0,0,1,1.776.712,2.891,2.891,0,0,1,.647,2.017v.6h-3.5a1.388,1.388,0,0,0,.429.865,1.289,1.289,0,0,0,.907.325,1.586,1.586,0,0,0,1.327-.615l.722.807a2.181,2.181,0,0,1-.894.729,2.971,2.971,0,0,1-1.249.26Zm-.169-4.518a.914.914,0,0,0-.709.3,1.546,1.546,0,0,0-.348.849h2.043v-.117a1.1,1.1,0,0,0-.264-.758.945.945,0,0,0-.722-.267Z" transform="translate(-1015.923 -29.54)" fill="#12263f"/>
    <path id="Trazado_756276" data-name="Trazado 756276" d="M1639.406,352.474l.045.634a1.923,1.923,0,0,1,1.581-.738,1.6,1.6,0,0,1,1.3.514,2.382,2.382,0,0,1,.436,1.535v3.552h-1.47v-3.516a.97.97,0,0,0-.2-.68.916.916,0,0,0-.677-.211,1.012,1.012,0,0,0-.93.527v3.877h-1.47v-5.5h1.383Z" transform="translate(-1027.933 -29.533)" fill="#12263f"/>
    <path id="Trazado_756277" data-name="Trazado 756277" d="M1656.747,348.53v1.353h.94v1.077h-.94v2.745a.653.653,0,0,0,.117.436.59.59,0,0,0,.449.133,2.44,2.44,0,0,0,.432-.036v1.112a3.042,3.042,0,0,1-.888.133,1.4,1.4,0,0,1-1.574-1.561V350.96h-.8v-1.077h.8V348.53h1.47Z" transform="translate(-1039.039 -26.942)" fill="#12263f"/>
    <path id="Trazado_756278" data-name="Trazado 756278" d="M1668.979,358.082a2.693,2.693,0,0,1-1.968-.742,2.637,2.637,0,0,1-.761-1.978v-.143a3.33,3.33,0,0,1,.319-1.48,2.352,2.352,0,0,1,.907-1.005,2.562,2.562,0,0,1,1.34-.355,2.283,2.283,0,0,1,1.776.712,2.891,2.891,0,0,1,.647,2.017v.6h-3.5a1.388,1.388,0,0,0,.429.865,1.289,1.289,0,0,0,.908.325,1.587,1.587,0,0,0,1.327-.615l.722.807a2.18,2.18,0,0,1-.894.729,2.972,2.972,0,0,1-1.249.26Zm-.169-4.518a.914.914,0,0,0-.709.3,1.545,1.545,0,0,0-.348.849h2.043v-.117a1.1,1.1,0,0,0-.263-.758.946.946,0,0,0-.722-.267Z" transform="translate(-1046.981 -29.54)" fill="#12263f"/>
    <path id="Trazado_756279" data-name="Trazado 756279" d="M1686.563,356.459a.467.467,0,0,0-.266-.423,3.012,3.012,0,0,0-.856-.277q-1.961-.41-1.961-1.665a1.511,1.511,0,0,1,.608-1.223,2.455,2.455,0,0,1,1.587-.491,2.638,2.638,0,0,1,1.675.494,1.549,1.549,0,0,1,.628,1.282h-1.47a.714.714,0,0,0-.2-.52.864.864,0,0,0-.634-.2.875.875,0,0,0-.576.169.522.522,0,0,0-.2.426.455.455,0,0,0,.231.394,2.378,2.378,0,0,0,.781.26,6.279,6.279,0,0,1,.924.247,1.523,1.523,0,0,1,1.164,1.48,1.433,1.433,0,0,1-.644,1.216,2.786,2.786,0,0,1-1.665.465,2.877,2.877,0,0,1-1.226-.247,2.059,2.059,0,0,1-.843-.677,1.583,1.583,0,0,1-.306-.927h1.392a.762.762,0,0,0,.289.6,1.142,1.142,0,0,0,.722.208,1.06,1.06,0,0,0,.637-.159.5.5,0,0,0,.215-.42Z" transform="translate(-1058.492 -29.54)" fill="#12263f"/>
    <path id="Trazado_756280" data-name="Trazado 756280" d="M1709.884,357h2.69v1.184h-4.563v-.894l2.586-3.422h-2.511V352.68h4.407v.865Z" transform="translate(-1075.158 -29.742)" fill="#12263f"/>
    <path id="Trazado_756281" data-name="Trazado 756281" d="M1723.91,355.181a3.233,3.233,0,0,1,.315-1.457,2.332,2.332,0,0,1,.907-.992,2.64,2.64,0,0,1,1.376-.351,2.519,2.519,0,0,1,1.818.68,2.728,2.728,0,0,1,.784,1.851l.01.377a2.872,2.872,0,0,1-.706,2.03,2.743,2.743,0,0,1-3.8,0,2.917,2.917,0,0,1-.709-2.075Zm1.47.1a2.043,2.043,0,0,0,.3,1.2.972.972,0,0,0,.842.416.961.961,0,0,0,.833-.41,2.26,2.26,0,0,0,.3-1.311,2.037,2.037,0,0,0-.3-1.191.973.973,0,0,0-.842-.423.954.954,0,0,0-.833.42,2.3,2.3,0,0,0-.3,1.3Z" transform="translate(-1085.886 -29.54)" fill="#12263f"/>
    <path id="Trazado_756282" data-name="Trazado 756282" d="M1743.985,352.474l.046.634a1.923,1.923,0,0,1,1.581-.738,1.6,1.6,0,0,1,1.3.514,2.38,2.38,0,0,1,.436,1.535v3.552h-1.47v-3.516a.97.97,0,0,0-.2-.68.916.916,0,0,0-.677-.211,1.013,1.013,0,0,0-.93.527v3.877h-1.47v-5.5h1.383Z" transform="translate(-1098.497 -29.533)" fill="#12263f"/>
    <path id="Trazado_756283" data-name="Trazado 756283" d="M1763.356,357.978a1.58,1.58,0,0,1-.146-.494,1.778,1.778,0,0,1-1.389.6,1.951,1.951,0,0,1-1.34-.468,1.5,1.5,0,0,1-.53-1.177,1.547,1.547,0,0,1,.647-1.34,3.2,3.2,0,0,1,1.874-.472h.676v-.316a.913.913,0,0,0-.2-.611.765.765,0,0,0-.618-.228.866.866,0,0,0-.582.179.612.612,0,0,0-.212.488h-1.47a1.47,1.47,0,0,1,.3-.885,1.943,1.943,0,0,1,.833-.637,3.052,3.052,0,0,1,1.21-.231,2.393,2.393,0,0,1,1.614.511,1.793,1.793,0,0,1,.6,1.434v2.384a2.573,2.573,0,0,0,.218,1.184v.088h-1.483Zm-1.213-1.021a1.244,1.244,0,0,0,.6-.146.961.961,0,0,0,.406-.39v-.946h-.549c-.735,0-1.125.254-1.174.761l-.006.088a.592.592,0,0,0,.192.452.745.745,0,0,0,.527.179Z" transform="translate(-1110.203 -29.54)" fill="#12263f"/>
    <path id="Trazado_756284" data-name="Trazado 756284" d="M1788.931,352.724h-2.674l-.507,1.526h-1.62l2.755-7.4h1.412l2.771,7.4h-1.62l-.514-1.526Zm-2.26-1.236h1.851l-.93-2.771Z" transform="translate(-1126.518 -25.808)" fill="#12263f"/>
    <path id="Trazado_756285" data-name="Trazado 756285" d="M1588.864,530.622a2.616,2.616,0,0,1-.881,1.88,3.11,3.11,0,0,1-2.1.686,2.775,2.775,0,0,1-2.238-.96,3.932,3.932,0,0,1-.816-2.631v-.452a4.435,4.435,0,0,1,.377-1.88,2.813,2.813,0,0,1,1.073-1.249,3.352,3.352,0,0,1,3.685.25,2.821,2.821,0,0,1,.9,1.926h-1.525a1.537,1.537,0,0,0-.4-1.041,1.476,1.476,0,0,0-1.044-.322,1.3,1.3,0,0,0-1.142.546,3.076,3.076,0,0,0-.39,1.695v.559a3.253,3.253,0,0,0,.364,1.753,1.269,1.269,0,0,0,1.145.553,1.5,1.5,0,0,0,1.054-.322,1.468,1.468,0,0,0,.4-1h1.526Z" transform="translate(-990.695 -146.403)" fill="#12263f"/>
    <path id="Trazado_756286" data-name="Trazado 756286" d="M1605.863,532.466h-1.473V524.66h1.473Z" transform="translate(-1005.242 -145.782)" fill="#12263f"/>
    <path id="Trazado_756287" data-name="Trazado 756287" d="M1612.6,525.808a.725.725,0,0,1,.221-.543.946.946,0,0,1,1.2,0,.774.774,0,0,1,0,1.093.941.941,0,0,1-1.2,0,.717.717,0,0,1-.228-.55Zm1.561,6.922h-1.474v-5.5h1.474Z" transform="translate(-1010.775 -146.046)" fill="#12263f"/>
    <path id="Trazado_756288" data-name="Trazado 756288" d="M1623.249,537.142a2.693,2.693,0,0,1-1.968-.742,2.637,2.637,0,0,1-.761-1.978v-.143a3.332,3.332,0,0,1,.319-1.48,2.351,2.351,0,0,1,.907-1.005,2.561,2.561,0,0,1,1.34-.354,2.283,2.283,0,0,1,1.776.712,2.891,2.891,0,0,1,.647,2.017v.6h-3.5a1.389,1.389,0,0,0,.429.865,1.289,1.289,0,0,0,.908.325,1.586,1.586,0,0,0,1.327-.615l.722.807a2.179,2.179,0,0,1-.894.729,2.971,2.971,0,0,1-1.249.26Zm-.169-4.518a.914.914,0,0,0-.709.3,1.544,1.544,0,0,0-.348.849h2.043v-.117a1.1,1.1,0,0,0-.263-.758.946.946,0,0,0-.722-.267Z" transform="translate(-1016.125 -150.357)" fill="#12263f"/>
    <path id="Trazado_756289" data-name="Trazado 756289" d="M1639.706,531.534l.046.634a1.923,1.923,0,0,1,1.581-.738,1.6,1.6,0,0,1,1.3.514,2.38,2.38,0,0,1,.436,1.535v3.552h-1.47v-3.516a.97.97,0,0,0-.2-.68.916.916,0,0,0-.677-.211,1.013,1.013,0,0,0-.93.527v3.877h-1.47v-5.5h1.382Z" transform="translate(-1028.136 -150.35)" fill="#12263f"/>
    <path id="Trazado_756290" data-name="Trazado 756290" d="M1657.047,527.6v1.353h.94v1.077h-.94v2.745a.654.654,0,0,0,.117.436.592.592,0,0,0,.449.133,2.438,2.438,0,0,0,.432-.036v1.112a3.044,3.044,0,0,1-.888.133,1.4,1.4,0,0,1-1.574-1.561V530.03h-.8v-1.077h.8V527.6h1.47Z" transform="translate(-1039.242 -147.766)" fill="#12263f"/>
    <path id="Trazado_756291" data-name="Trazado 756291" d="M1669.279,537.142a2.692,2.692,0,0,1-1.968-.742,2.636,2.636,0,0,1-.761-1.978v-.143a3.333,3.333,0,0,1,.319-1.48,2.351,2.351,0,0,1,.907-1.005,2.561,2.561,0,0,1,1.34-.354,2.282,2.282,0,0,1,1.776.712,2.89,2.89,0,0,1,.647,2.017v.6h-3.5a1.387,1.387,0,0,0,.429.865,1.289,1.289,0,0,0,.907.325,1.587,1.587,0,0,0,1.327-.615l.722.807a2.182,2.182,0,0,1-.895.729,2.97,2.97,0,0,1-1.249.26Zm-.169-4.518a.914.914,0,0,0-.709.3,1.545,1.545,0,0,0-.348.849h2.043v-.117a1.1,1.1,0,0,0-.264-.758.945.945,0,0,0-.722-.267Z" transform="translate(-1047.183 -150.357)" fill="#12263f"/>
    <path id="Trazado_756292" data-name="Trazado 756292" d="M1686.863,535.529a.467.467,0,0,0-.267-.423,3,3,0,0,0-.855-.277q-1.961-.41-1.961-1.665a1.511,1.511,0,0,1,.608-1.223,2.455,2.455,0,0,1,1.587-.491,2.64,2.64,0,0,1,1.675.494,1.55,1.55,0,0,1,.628,1.282h-1.47a.713.713,0,0,0-.2-.52.864.864,0,0,0-.634-.205.874.874,0,0,0-.576.169.522.522,0,0,0-.2.426.456.456,0,0,0,.231.394,2.383,2.383,0,0,0,.781.26,6.27,6.27,0,0,1,.924.247,1.524,1.524,0,0,1,1.165,1.48,1.434,1.434,0,0,1-.644,1.216,2.787,2.787,0,0,1-1.666.465,2.876,2.876,0,0,1-1.226-.247,2.059,2.059,0,0,1-.842-.676,1.582,1.582,0,0,1-.306-.927H1685a.762.762,0,0,0,.289.6,1.142,1.142,0,0,0,.722.208,1.06,1.06,0,0,0,.638-.159.5.5,0,0,0,.214-.42Z" transform="translate(-1058.694 -150.364)" fill="#12263f"/>
    <path id="Trazado_756293" data-name="Trazado 756293" d="M1710.173,536.066h2.69v1.184H1708.3v-.894l2.586-3.422h-2.511V531.75h4.407v.865l-2.609,3.451Z" transform="translate(-1075.353 -150.566)" fill="#12263f"/>
    <path id="Trazado_756294" data-name="Trazado 756294" d="M1724.2,534.24a3.233,3.233,0,0,1,.315-1.457,2.333,2.333,0,0,1,.907-.992,2.64,2.64,0,0,1,1.376-.351,2.518,2.518,0,0,1,1.818.68,2.729,2.729,0,0,1,.784,1.851l.01.377a2.872,2.872,0,0,1-.706,2.03,2.742,2.742,0,0,1-3.8,0,2.917,2.917,0,0,1-.709-2.075Zm1.47.1a2.043,2.043,0,0,0,.3,1.2.972.972,0,0,0,.842.416.961.961,0,0,0,.833-.41,2.26,2.26,0,0,0,.3-1.311,2.037,2.037,0,0,0-.3-1.19.974.974,0,0,0-.842-.423.954.954,0,0,0-.833.42,2.3,2.3,0,0,0-.3,1.3Z" transform="translate(-1086.082 -150.357)" fill="#12263f"/>
    <path id="Trazado_756295" data-name="Trazado 756295" d="M1744.286,531.534l.046.634a1.923,1.923,0,0,1,1.581-.738,1.6,1.6,0,0,1,1.3.514,2.379,2.379,0,0,1,.436,1.535v3.552h-1.47v-3.516a.971.971,0,0,0-.2-.68.917.917,0,0,0-.677-.211,1.013,1.013,0,0,0-.93.527v3.877h-1.47v-5.5h1.382Z" transform="translate(-1098.699 -150.35)" fill="#12263f"/>
    <path id="Trazado_756296" data-name="Trazado 756296" d="M1763.656,537.048a1.582,1.582,0,0,1-.146-.494,1.778,1.778,0,0,1-1.389.6,1.951,1.951,0,0,1-1.34-.468,1.5,1.5,0,0,1-.53-1.177,1.546,1.546,0,0,1,.647-1.34,3.2,3.2,0,0,1,1.873-.472h.677v-.315a.914.914,0,0,0-.2-.612.766.766,0,0,0-.618-.228.866.866,0,0,0-.582.179.611.611,0,0,0-.211.488h-1.47a1.47,1.47,0,0,1,.3-.885,1.945,1.945,0,0,1,.833-.638,3.053,3.053,0,0,1,1.21-.231,2.393,2.393,0,0,1,1.613.511,1.793,1.793,0,0,1,.6,1.434v2.384a2.573,2.573,0,0,0,.218,1.184v.088h-1.483Zm-1.213-1.021a1.243,1.243,0,0,0,.6-.146.964.964,0,0,0,.407-.39v-.947h-.55q-1.1,0-1.174.761l-.006.088a.592.592,0,0,0,.192.452.745.745,0,0,0,.527.179Z" transform="translate(-1110.406 -150.364)" fill="#12263f"/>
    <path id="Trazado_756297" data-name="Trazado 756297" d="M1786.35,533.31v-7.4h2.592a3.4,3.4,0,0,1,2.043.517,1.764,1.764,0,0,1,.7,1.513,1.681,1.681,0,0,1-.28.96,1.619,1.619,0,0,1-.777.608,1.551,1.551,0,0,1,.9.576,1.705,1.705,0,0,1,.328,1.057,1.959,1.959,0,0,1-.68,1.617,3.08,3.08,0,0,1-1.942.56h-2.875Zm1.526-4.3H1789c.768-.013,1.155-.319,1.155-.92a.855.855,0,0,0-.293-.725,1.544,1.544,0,0,0-.924-.221h-1.067v1.864Zm0,1.077v2h1.308a1.261,1.261,0,0,0,.843-.257.881.881,0,0,0,.3-.709.929.929,0,0,0-1.051-1.031h-1.4Z" transform="translate(-1128.016 -146.626)" fill="#12263f"/>
    <path id="Trazado_756298" data-name="Trazado 756298" d="M1588.6,709.692a2.616,2.616,0,0,1-.882,1.88,3.109,3.109,0,0,1-2.1.686,2.775,2.775,0,0,1-2.238-.96,3.932,3.932,0,0,1-.817-2.631v-.452a4.437,4.437,0,0,1,.377-1.88,2.813,2.813,0,0,1,1.073-1.249,3.351,3.351,0,0,1,3.685.25,2.822,2.822,0,0,1,.9,1.926h-1.525a1.539,1.539,0,0,0-.4-1.041,1.476,1.476,0,0,0-1.044-.322,1.3,1.3,0,0,0-1.142.547,3.078,3.078,0,0,0-.39,1.695v.559a3.255,3.255,0,0,0,.364,1.753,1.27,1.27,0,0,0,1.145.553,1.5,1.5,0,0,0,1.054-.322,1.468,1.468,0,0,0,.4-1h1.525Z" transform="translate(-990.519 -267.227)" fill="#12263f"/>
    <path id="Trazado_756299" data-name="Trazado 756299" d="M1605.614,711.526h-1.474V703.72h1.474Z" transform="translate(-1005.073 -266.6)" fill="#12263f"/>
    <path id="Trazado_756300" data-name="Trazado 756300" d="M1612.337,704.868a.725.725,0,0,1,.221-.543.946.946,0,0,1,1.2,0,.773.773,0,0,1,0,1.093.942.942,0,0,1-1.2,0,.717.717,0,0,1-.228-.55Zm1.561,6.922h-1.473v-5.5h1.473Z" transform="translate(-1010.599 -266.863)" fill="#12263f"/>
    <path id="Trazado_756301" data-name="Trazado 756301" d="M1622.989,716.212a2.693,2.693,0,0,1-1.968-.742,2.637,2.637,0,0,1-.761-1.978v-.143a3.33,3.33,0,0,1,.319-1.48,2.352,2.352,0,0,1,.907-1.005,2.562,2.562,0,0,1,1.34-.355,2.283,2.283,0,0,1,1.776.712,2.891,2.891,0,0,1,.647,2.017v.6h-3.5a1.388,1.388,0,0,0,.429.865,1.289,1.289,0,0,0,.908.325,1.587,1.587,0,0,0,1.327-.615l.722.807a2.179,2.179,0,0,1-.894.729,2.973,2.973,0,0,1-1.249.26Zm-.169-4.518a.914.914,0,0,0-.709.3,1.543,1.543,0,0,0-.348.849h2.043v-.117a1.1,1.1,0,0,0-.263-.758.945.945,0,0,0-.722-.267Z" transform="translate(-1015.95 -271.181)" fill="#12263f"/>
    <path id="Trazado_756302" data-name="Trazado 756302" d="M1639.445,710.6l.046.634a1.924,1.924,0,0,1,1.581-.738,1.6,1.6,0,0,1,1.3.514,2.38,2.38,0,0,1,.436,1.535V716.1h-1.47v-3.516a.97.97,0,0,0-.2-.68.917.917,0,0,0-.677-.211,1.013,1.013,0,0,0-.93.527V716.1h-1.47v-5.5h1.382Z" transform="translate(-1027.96 -271.175)" fill="#12263f"/>
    <path id="Trazado_756303" data-name="Trazado 756303" d="M1656.787,706.66v1.353h.94v1.077h-.94v2.745a.653.653,0,0,0,.117.436.591.591,0,0,0,.449.133,2.446,2.446,0,0,0,.433-.036v1.112a3.042,3.042,0,0,1-.888.133,1.4,1.4,0,0,1-1.574-1.561V709.09h-.8v-1.077h.8V706.66h1.47Z" transform="translate(-1039.066 -268.584)" fill="#12263f"/>
    <path id="Trazado_756304" data-name="Trazado 756304" d="M1669.019,716.212a2.692,2.692,0,0,1-1.968-.742,2.637,2.637,0,0,1-.761-1.978v-.143a3.332,3.332,0,0,1,.319-1.48,2.351,2.351,0,0,1,.908-1.005,2.561,2.561,0,0,1,1.34-.355,2.282,2.282,0,0,1,1.776.712,2.89,2.89,0,0,1,.647,2.017v.6h-3.5a1.388,1.388,0,0,0,.429.865,1.289,1.289,0,0,0,.908.325,1.587,1.587,0,0,0,1.327-.615l.722.807a2.18,2.18,0,0,1-.894.729,2.971,2.971,0,0,1-1.249.26Zm-.169-4.518a.914.914,0,0,0-.709.3,1.544,1.544,0,0,0-.348.849h2.043v-.117a1.1,1.1,0,0,0-.264-.758.945.945,0,0,0-.722-.267Z" transform="translate(-1047.008 -271.181)" fill="#12263f"/>
    <path id="Trazado_756305" data-name="Trazado 756305" d="M1686.6,714.589a.467.467,0,0,0-.267-.423,3.007,3.007,0,0,0-.855-.277q-1.961-.41-1.961-1.665a1.511,1.511,0,0,1,.608-1.223,2.455,2.455,0,0,1,1.587-.491,2.639,2.639,0,0,1,1.675.494,1.549,1.549,0,0,1,.628,1.282h-1.47a.713.713,0,0,0-.2-.52.864.864,0,0,0-.634-.2.874.874,0,0,0-.576.169.523.523,0,0,0-.2.426.456.456,0,0,0,.231.394,2.379,2.379,0,0,0,.781.26,6.284,6.284,0,0,1,.924.247,1.524,1.524,0,0,1,1.164,1.48,1.434,1.434,0,0,1-.644,1.216,2.787,2.787,0,0,1-1.665.465,2.877,2.877,0,0,1-1.226-.247,2.06,2.06,0,0,1-.842-.677,1.581,1.581,0,0,1-.306-.927h1.392a.762.762,0,0,0,.29.6,1.14,1.14,0,0,0,.722.208,1.059,1.059,0,0,0,.638-.159.5.5,0,0,0,.215-.42Z" transform="translate(-1058.519 -271.181)" fill="#12263f"/>
    <path id="Trazado_756306" data-name="Trazado 756306" d="M1709.924,715.126h2.69v1.184h-4.563v-.894l2.586-3.422h-2.511V710.81h4.407v.865Z" transform="translate(-1075.185 -271.384)" fill="#12263f"/>
    <path id="Trazado_756307" data-name="Trazado 756307" d="M1723.95,713.3a3.232,3.232,0,0,1,.315-1.457,2.334,2.334,0,0,1,.908-.992,2.64,2.64,0,0,1,1.376-.351,2.518,2.518,0,0,1,1.818.68,2.729,2.729,0,0,1,.784,1.851l.01.377a2.872,2.872,0,0,1-.706,2.03,2.742,2.742,0,0,1-3.8,0,2.916,2.916,0,0,1-.709-2.075Zm1.47.1a2.045,2.045,0,0,0,.3,1.2.972.972,0,0,0,.843.416.961.961,0,0,0,.833-.41,2.26,2.26,0,0,0,.3-1.311,2.037,2.037,0,0,0-.3-1.19.974.974,0,0,0-.842-.423.954.954,0,0,0-.833.42,2.3,2.3,0,0,0-.3,1.3Z" transform="translate(-1085.913 -271.175)" fill="#12263f"/>
    <path id="Trazado_756308" data-name="Trazado 756308" d="M1744.026,710.6l.045.634a1.924,1.924,0,0,1,1.581-.738,1.6,1.6,0,0,1,1.3.514,2.38,2.38,0,0,1,.436,1.535V716.1h-1.47v-3.516a.97.97,0,0,0-.2-.68.917.917,0,0,0-.677-.211,1.013,1.013,0,0,0-.93.527V716.1h-1.47v-5.5h1.382Z" transform="translate(-1098.524 -271.175)" fill="#12263f"/>
    <path id="Trazado_756309" data-name="Trazado 756309" d="M1763.4,716.108a1.593,1.593,0,0,1-.146-.494,1.778,1.778,0,0,1-1.389.6,1.952,1.952,0,0,1-1.34-.468,1.5,1.5,0,0,1-.53-1.178,1.546,1.546,0,0,1,.647-1.34,3.2,3.2,0,0,1,1.873-.472h.677v-.316a.914.914,0,0,0-.2-.611.766.766,0,0,0-.618-.228.866.866,0,0,0-.582.179.612.612,0,0,0-.212.488h-1.47a1.47,1.47,0,0,1,.3-.885,1.943,1.943,0,0,1,.833-.638,3.053,3.053,0,0,1,1.21-.231,2.394,2.394,0,0,1,1.613.511,1.793,1.793,0,0,1,.6,1.434v2.384a2.575,2.575,0,0,0,.218,1.184v.088H1763.4Zm-1.213-1.021a1.243,1.243,0,0,0,.6-.146.965.965,0,0,0,.407-.39V713.6h-.55q-1.1,0-1.174.761l-.006.088a.593.593,0,0,0,.192.452.744.744,0,0,0,.527.179Z" transform="translate(-1110.23 -271.181)" fill="#12263f"/>
    <path id="Trazado_756310" data-name="Trazado 756310" d="M1791.434,709.692a2.616,2.616,0,0,1-.882,1.88,3.092,3.092,0,0,1-2.1.686,2.775,2.775,0,0,1-2.238-.96,3.932,3.932,0,0,1-.816-2.631v-.452a4.391,4.391,0,0,1,.377-1.88,2.817,2.817,0,0,1,1.073-1.249,3.352,3.352,0,0,1,3.685.25,2.823,2.823,0,0,1,.9,1.926h-1.525a1.553,1.553,0,0,0-.4-1.041,1.476,1.476,0,0,0-1.044-.322,1.3,1.3,0,0,0-1.142.547,3.074,3.074,0,0,0-.39,1.695v.559a3.254,3.254,0,0,0,.364,1.753,1.265,1.265,0,0,0,1.145.553,1.5,1.5,0,0,0,1.054-.322,1.468,1.468,0,0,0,.4-1h1.525Z" transform="translate(-1127.375 -267.227)" fill="#12263f"/>
    <path id="Trazado_756311" data-name="Trazado 756311" d="M1683.276,428.041l4.866-8.424h-2.986v-30h-3.6v30h-3.149Z" transform="translate(-1055.186 -54.667)" fill="#576b96"/>
    <path id="Trazado_756312" data-name="Trazado 756312" d="M1683.276,607.1l4.866-8.428h-2.986v-30h-3.6v30h-3.149Z" transform="translate(-1055.186 -175.484)" fill="#576b96"/>
    <path id="Trazado_756313" data-name="Trazado 756313" d="M144.738,432.937V413.45h-16.5v68.209h92.893V432.937Z" transform="translate(-9.237 -70.746)" fill="#57dbd8"/>
    <rect id="Rectángulo_358688" data-name="Rectángulo 358688" width="8.636" height="5.868" transform="translate(122.207 367.727)" fill="#45afac"/>
    <rect id="Rectángulo_358689" data-name="Rectángulo 358689" width="8.636" height="5.868" transform="translate(137.82 367.727)" fill="#45afac"/>
    <rect id="Rectángulo_358690" data-name="Rectángulo 358690" width="8.636" height="5.868" transform="translate(153.433 367.727)" fill="#45afac"/>
    <rect id="Rectángulo_358691" data-name="Rectángulo 358691" width="8.636" height="5.868" transform="translate(169.045 367.727)" fill="#45afac"/>
    <rect id="Rectángulo_358692" data-name="Rectángulo 358692" width="8.636" height="5.868" transform="translate(184.658 367.727)" fill="#45afac"/>
    <rect id="Rectángulo_358693" data-name="Rectángulo 358693" width="8.636" height="5.868" transform="translate(200.271 367.727)" fill="#45afac"/>
    <rect id="Rectángulo_358694" data-name="Rectángulo 358694" width="8.636" height="5.868" transform="translate(122.207 377.694)" fill="#45afac"/>
    <rect id="Rectángulo_358695" data-name="Rectángulo 358695" width="8.636" height="5.868" transform="translate(137.82 377.694)" fill="#45afac"/>
    <rect id="Rectángulo_358696" data-name="Rectángulo 358696" width="8.636" height="5.868" transform="translate(153.433 377.694)" fill="#45afac"/>
    <rect id="Rectángulo_358697" data-name="Rectángulo 358697" width="8.636" height="5.868" transform="translate(169.045 377.694)" fill="#45afac"/>
    <rect id="Rectángulo_358698" data-name="Rectángulo 358698" width="8.636" height="5.868" transform="translate(184.658 377.694)" fill="#45afac"/>
    <rect id="Rectángulo_358699" data-name="Rectángulo 358699" width="8.636" height="5.868" transform="translate(200.271 377.694)" fill="#45afac"/>
    <rect id="Rectángulo_358700" data-name="Rectángulo 358700" width="8.636" height="5.868" transform="translate(122.207 387.66)" fill="#45afac"/>
    <rect id="Rectángulo_358701" data-name="Rectángulo 358701" width="8.636" height="5.868" transform="translate(137.82 387.66)" fill="#45afac"/>
    <rect id="Rectángulo_358702" data-name="Rectángulo 358702" width="8.636" height="5.868" transform="translate(153.433 387.66)" fill="#45afac"/>
    <rect id="Rectángulo_358703" data-name="Rectángulo 358703" width="8.636" height="5.868" transform="translate(122.207 397.626)" fill="#45afac"/>
    <rect id="Rectángulo_358704" data-name="Rectángulo 358704" width="8.636" height="5.868" transform="translate(137.82 397.626)" fill="#45afac"/>
    <rect id="Rectángulo_358705" data-name="Rectángulo 358705" width="8.636" height="5.868" transform="translate(153.433 397.626)" fill="#45afac"/>
    <rect id="Rectángulo_358706" data-name="Rectángulo 358706" width="8.636" height="5.868" transform="translate(169.045 387.66)" fill="#45afac"/>
    <rect id="Rectángulo_358707" data-name="Rectángulo 358707" width="8.636" height="5.868" transform="translate(184.658 387.66)" fill="#45afac"/>
    <rect id="Rectángulo_358708" data-name="Rectángulo 358708" width="8.636" height="5.868" transform="translate(200.271 387.66)" fill="#45afac"/>
    <rect id="Rectángulo_358709" data-name="Rectángulo 358709" width="38.645" height="13.177" transform="translate(169.045 397.626)" fill="#348381"/>
    <path id="Trazado_756314" data-name="Trazado 756314" d="M127.154,394.753h-12.6l6.3-4.508,6.3-4.5,6.3,4.5,6.3,4.508Z" transform="translate(0 -52.049)" fill="#348381"/>
    <path id="Trazado_756315" data-name="Trazado 756315" d="M217.16,453.55h-38.2l19.1-4.775L217.16,444l19.1,4.775,19.1,4.775Z" transform="translate(-43.459 -91.359)" fill="#348381"/>
    <path id="Trazado_756316" data-name="Trazado 756316" d="M225.122,667.341h-3.106v3.269h-.976v-7.4h4.583v.8h-3.607v2.537h3.106Z" transform="translate(-71.852 -239.267)" fill="#12263f"/>
    <path id="Trazado_756317" data-name="Trazado 756317" d="M240.822,669.767a1.993,1.993,0,0,1-.133-.579,2.09,2.09,0,0,1-1.565.68,1.943,1.943,0,0,1-1.334-.459,1.486,1.486,0,0,1-.52-1.168,1.552,1.552,0,0,1,.654-1.334,3.089,3.089,0,0,1,1.838-.475h.914V666a1.047,1.047,0,0,0-.3-.784,1.183,1.183,0,0,0-.868-.293,1.365,1.365,0,0,0-.842.254.747.747,0,0,0-.342.615h-.947a1.306,1.306,0,0,1,.293-.8,1.987,1.987,0,0,1,.794-.608,2.658,2.658,0,0,1,1.1-.224,2.184,2.184,0,0,1,1.49.475,1.717,1.717,0,0,1,.559,1.308v2.531a3.123,3.123,0,0,0,.192,1.2v.081h-.986Zm-1.561-.716a1.644,1.644,0,0,0,.839-.228,1.406,1.406,0,0,0,.576-.6V667.1h-.738q-1.727,0-1.727,1.012a.842.842,0,0,0,.3.69,1.133,1.133,0,0,0,.758.25Zm.868-7.091h1.138l-1.363,1.493h-.758Z" transform="translate(-82.803 -238.423)" fill="#12263f"/>
    <path id="Trazado_756318" data-name="Trazado 756318" d="M259.815,667.07a3.272,3.272,0,0,1-.579,2.026,1.849,1.849,0,0,1-1.555.764,1.907,1.907,0,0,1-1.61-.738l-.046.634h-.865V661.95h.94v2.911a1.907,1.907,0,0,1,1.571-.706,1.871,1.871,0,0,1,1.574.758,3.374,3.374,0,0,1,.572,2.075v.081Zm-.94-.107a2.536,2.536,0,0,0-.371-1.483,1.229,1.229,0,0,0-1.067-.524,1.38,1.38,0,0,0-1.337.865V668.2a1.42,1.42,0,0,0,1.347.865,1.223,1.223,0,0,0,1.051-.524,2.7,2.7,0,0,0,.377-1.574Z" transform="translate(-94.874 -238.416)" fill="#12263f"/>
    <path id="Trazado_756319" data-name="Trazado 756319" d="M275.767,669.67a2.927,2.927,0,0,0-.462-.036,1.24,1.24,0,0,0-1.255.787v3.9h-.94v-5.5h.914l.016.634a1.465,1.465,0,0,1,1.311-.738.94.94,0,0,1,.416.071v.875Z" transform="translate(-106.985 -242.984)" fill="#12263f"/>
    <path id="Trazado_756320" data-name="Trazado 756320" d="M283.95,663.443a.561.561,0,0,1,.14-.387.527.527,0,0,1,.413-.156.535.535,0,0,1,.416.156.558.558,0,0,1,.143.387.536.536,0,0,1-.143.381.545.545,0,0,1-.416.153.505.505,0,0,1-.553-.533Zm1.015,6.957h-.94v-5.5h.94Z" transform="translate(-114.3 -239.057)" fill="#12263f"/>
    <path id="Trazado_756321" data-name="Trazado 756321" d="M293.393,673.688a1.344,1.344,0,0,0,.878-.306,1.069,1.069,0,0,0,.416-.761h.888a1.72,1.72,0,0,1-.325.9,2.15,2.15,0,0,1-.8.68,2.315,2.315,0,0,1-1.06.254,2.271,2.271,0,0,1-1.786-.748,2.987,2.987,0,0,1-.664-2.049V671.5a3.277,3.277,0,0,1,.3-1.428,2.218,2.218,0,0,1,.846-.969,2.4,2.4,0,0,1,1.3-.345,2.216,2.216,0,0,1,1.539.553,2,2,0,0,1,.654,1.438h-.888a1.308,1.308,0,0,0-.4-.878,1.261,1.261,0,0,0-.9-.341,1.309,1.309,0,0,0-1.109.517,2.423,2.423,0,0,0-.394,1.493v.179a2.376,2.376,0,0,0,.39,1.464,1.325,1.325,0,0,0,1.119.514Z" transform="translate(-119.016 -243.011)" fill="#12263f"/>
    <path id="Trazado_756322" data-name="Trazado 756322" d="M311.522,674.334a1.992,1.992,0,0,1-.133-.579,2.09,2.09,0,0,1-1.565.68,1.943,1.943,0,0,1-1.334-.459,1.486,1.486,0,0,1-.52-1.168,1.552,1.552,0,0,1,.654-1.334,3.089,3.089,0,0,1,1.838-.475h.914v-.433a1.047,1.047,0,0,0-.3-.784,1.184,1.184,0,0,0-.868-.293,1.365,1.365,0,0,0-.842.254.747.747,0,0,0-.341.615h-.947a1.305,1.305,0,0,1,.293-.8,1.988,1.988,0,0,1,.794-.608,2.658,2.658,0,0,1,1.1-.224,2.184,2.184,0,0,1,1.49.475,1.717,1.717,0,0,1,.559,1.308v2.531a3.122,3.122,0,0,0,.192,1.2v.081h-.986Zm-1.561-.716a1.644,1.644,0,0,0,.839-.228,1.405,1.405,0,0,0,.576-.6v-1.129h-.738q-1.727,0-1.727,1.012a.841.841,0,0,0,.3.69,1.132,1.132,0,0,0,.758.25Z" transform="translate(-130.507 -242.991)" fill="#12263f"/>
    <path id="Trazado_756323" data-name="Trazado 756323" d="M657.9,667.712v2.9h-.976v-7.4h2.729a2.741,2.741,0,0,1,1.9.621,2.1,2.1,0,0,1,.69,1.643,2.072,2.072,0,0,1-.673,1.659,2.871,2.871,0,0,1-1.929.582H657.9Zm0-.8h1.753a1.772,1.772,0,0,0,1.2-.368,1.567,1.567,0,0,0,0-2.127,1.648,1.648,0,0,0-1.145-.413H657.9Z" transform="translate(-365.954 -239.267)" fill="#12263f"/>
    <path id="Trazado_756324" data-name="Trazado 756324" d="M677.85,669.767h-.94V661.96h.94Z" transform="translate(-379.442 -238.423)" fill="#12263f"/>
    <path id="Trazado_756325" data-name="Trazado 756325" d="M687.492,674.334a1.991,1.991,0,0,1-.133-.579,2.091,2.091,0,0,1-1.565.68,1.943,1.943,0,0,1-1.334-.459,1.486,1.486,0,0,1-.52-1.168,1.552,1.552,0,0,1,.654-1.334,3.089,3.089,0,0,1,1.838-.475h.914v-.433a1.047,1.047,0,0,0-.3-.784,1.184,1.184,0,0,0-.868-.293,1.365,1.365,0,0,0-.843.254.747.747,0,0,0-.341.615h-.947a1.305,1.305,0,0,1,.293-.8,1.987,1.987,0,0,1,.794-.608,2.658,2.658,0,0,1,1.1-.224,2.184,2.184,0,0,1,1.49.475,1.717,1.717,0,0,1,.559,1.308v2.531a3.122,3.122,0,0,0,.192,1.2v.081h-.985Zm-1.561-.716a1.644,1.644,0,0,0,.839-.228,1.406,1.406,0,0,0,.576-.6v-1.129h-.738q-1.727,0-1.727,1.012a.841.841,0,0,0,.3.69,1.132,1.132,0,0,0,.758.25Z" transform="translate(-384.185 -242.991)" fill="#12263f"/>
    <path id="Trazado_756326" data-name="Trazado 756326" d="M702.711,668.834l.029.69a2.008,2.008,0,0,1,1.646-.794q1.742,0,1.76,1.968v3.633h-.94v-3.64a1.255,1.255,0,0,0-.273-.878,1.1,1.1,0,0,0-.829-.286,1.358,1.358,0,0,0-.8.244,1.676,1.676,0,0,0-.54.641v3.92h-.94v-5.5h.888Z" transform="translate(-396.25 -242.991)" fill="#12263f"/>
    <path id="Trazado_756327" data-name="Trazado 756327" d="M719.108,669.557v-4.772h-.868v-.725h.868V663.5a1.869,1.869,0,0,1,.472-1.366,1.786,1.786,0,0,1,1.337-.481,2.537,2.537,0,0,1,.644.085l-.052.758a2.8,2.8,0,0,0-.507-.045.913.913,0,0,0-.706.267,1.085,1.085,0,0,0-.25.768v.582h1.174v.725h-1.174v4.772h-.94Z" transform="translate(-407.329 -238.214)" fill="#12263f"/>
    <path id="Trazado_756328" data-name="Trazado 756328" d="M730.61,663.443a.562.562,0,0,1,.14-.387.528.528,0,0,1,.413-.156.535.535,0,0,1,.416.156.558.558,0,0,1,.143.387.537.537,0,0,1-.143.381.545.545,0,0,1-.416.153.505.505,0,0,1-.553-.533Zm1.015,6.957h-.94v-5.5h.94Z" transform="translate(-415.675 -239.057)" fill="#12263f"/>
    <path id="Trazado_756329" data-name="Trazado 756329" d="M740.053,673.688a1.344,1.344,0,0,0,.878-.306,1.069,1.069,0,0,0,.416-.761h.888a1.721,1.721,0,0,1-.325.9,2.15,2.15,0,0,1-.8.68,2.315,2.315,0,0,1-1.06.254,2.271,2.271,0,0,1-1.786-.748,2.987,2.987,0,0,1-.664-2.049V671.5a3.278,3.278,0,0,1,.3-1.428,2.219,2.219,0,0,1,.846-.969,2.4,2.4,0,0,1,1.3-.345,2.216,2.216,0,0,1,1.538.553,2,2,0,0,1,.654,1.438h-.888a1.308,1.308,0,0,0-.4-.878,1.261,1.261,0,0,0-.9-.341,1.309,1.309,0,0,0-1.109.517,2.423,2.423,0,0,0-.394,1.493v.179a2.376,2.376,0,0,0,.39,1.464,1.325,1.325,0,0,0,1.119.514Z" transform="translate(-420.391 -243.011)" fill="#12263f"/>
    <path id="Trazado_756330" data-name="Trazado 756330" d="M758.182,674.334a2,2,0,0,1-.133-.579,2.09,2.09,0,0,1-1.565.68,1.942,1.942,0,0,1-1.334-.459,1.486,1.486,0,0,1-.52-1.168,1.552,1.552,0,0,1,.654-1.334,3.089,3.089,0,0,1,1.838-.475h.914v-.433a1.048,1.048,0,0,0-.3-.784,1.184,1.184,0,0,0-.868-.293,1.364,1.364,0,0,0-.842.254.747.747,0,0,0-.342.615h-.946a1.306,1.306,0,0,1,.293-.8,1.988,1.988,0,0,1,.794-.608,2.659,2.659,0,0,1,1.1-.224,2.184,2.184,0,0,1,1.49.475,1.717,1.717,0,0,1,.56,1.308v2.531a3.122,3.122,0,0,0,.192,1.2v.081h-.986Zm-1.561-.716a1.644,1.644,0,0,0,.839-.228,1.406,1.406,0,0,0,.576-.6v-1.129H757.3q-1.727,0-1.727,1.012a.842.842,0,0,0,.3.69,1.132,1.132,0,0,0,.758.25Z" transform="translate(-431.882 -242.991)" fill="#12263f"/>
    <path id="Trazado_756331" data-name="Trazado 756331" d="M774.213,673.688a1.344,1.344,0,0,0,.878-.306,1.069,1.069,0,0,0,.416-.761h.888a1.722,1.722,0,0,1-.325.9,2.15,2.15,0,0,1-.8.68,2.315,2.315,0,0,1-1.06.254,2.271,2.271,0,0,1-1.786-.748,2.987,2.987,0,0,1-.664-2.049V671.5a3.277,3.277,0,0,1,.3-1.428,2.218,2.218,0,0,1,.846-.969,2.4,2.4,0,0,1,1.3-.345,2.215,2.215,0,0,1,1.538.553,2,2,0,0,1,.654,1.438h-.888a1.308,1.308,0,0,0-.4-.878,1.261,1.261,0,0,0-.9-.341,1.309,1.309,0,0,0-1.109.517,2.423,2.423,0,0,0-.394,1.493v.179a2.377,2.377,0,0,0,.39,1.464,1.325,1.325,0,0,0,1.119.514Z" transform="translate(-443.44 -243.011)" fill="#12263f"/>
    <path id="Trazado_756332" data-name="Trazado 756332" d="M789.28,663.443a.561.561,0,0,1,.14-.387.527.527,0,0,1,.413-.156.535.535,0,0,1,.416.156.558.558,0,0,1,.143.387.537.537,0,0,1-.143.381.545.545,0,0,1-.416.153.505.505,0,0,1-.553-.533Zm1.015,6.957h-.94v-5.5h.94Z" transform="translate(-455.262 -239.057)" fill="#12263f"/>
    <path id="Trazado_756333" data-name="Trazado 756333" d="M796.27,666.966a3.248,3.248,0,0,1,.319-1.454,2.376,2.376,0,0,1,.885-1,2.406,2.406,0,0,1,1.294-.351,2.33,2.33,0,0,1,1.818.777,2.975,2.975,0,0,1,.693,2.069v.065a3.277,3.277,0,0,1-.309,1.441,2.311,2.311,0,0,1-.878.992,2.433,2.433,0,0,1-1.314.354,2.317,2.317,0,0,1-1.812-.777,2.976,2.976,0,0,1-.693-2.059v-.065Zm.946.111a2.356,2.356,0,0,0,.423,1.47,1.437,1.437,0,0,0,2.274-.01,2.582,2.582,0,0,0,.423-1.574,2.353,2.353,0,0,0-.429-1.467,1.368,1.368,0,0,0-1.142-.563,1.336,1.336,0,0,0-1.122.553,2.548,2.548,0,0,0-.426,1.587Zm1.978-5.116h1.139l-1.363,1.493h-.758Z" transform="translate(-459.978 -238.423)" fill="#12263f"/>
    <path id="Trazado_756334" data-name="Trazado 756334" d="M816.171,668.834l.029.69a2.008,2.008,0,0,1,1.646-.794c1.161,0,1.75.657,1.76,1.968v3.633h-.94v-3.64a1.255,1.255,0,0,0-.273-.878,1.1,1.1,0,0,0-.829-.286,1.358,1.358,0,0,0-.8.244,1.675,1.675,0,0,0-.54.641v3.92h-.94v-5.5h.888Z" transform="translate(-472.805 -242.991)" fill="#12263f"/>
    <path id="Trazado_756335" data-name="Trazado 756335" d="M686.113,705.362a3.225,3.225,0,0,1,.6-2.036,2.04,2.04,0,0,1,3.1-.111V700.35h.94v7.806h-.865l-.046-.589a1.914,1.914,0,0,1-1.571.69,1.835,1.835,0,0,1-1.558-.784,3.265,3.265,0,0,1-.6-2.043v-.072Zm.94.107a2.439,2.439,0,0,0,.387,1.464,1.251,1.251,0,0,0,1.067.527,1.375,1.375,0,0,0,1.308-.8V704.13a1.381,1.381,0,0,0-1.295-.777,1.254,1.254,0,0,0-1.077.533,2.685,2.685,0,0,0-.387,1.581Z" transform="translate(-385.65 -264.326)" fill="#12263f"/>
    <path id="Trazado_756336" data-name="Trazado 756336" d="M706.661,712.842a2.392,2.392,0,0,1-1.818-.735,2.721,2.721,0,0,1-.7-1.965v-.172a3.3,3.3,0,0,1,.312-1.46,2.424,2.424,0,0,1,.875-1.005,2.211,2.211,0,0,1,1.217-.364,2.049,2.049,0,0,1,1.665.706,3.057,3.057,0,0,1,.6,2.023v.39H705.08a1.956,1.956,0,0,0,.475,1.314,1.489,1.489,0,0,0,1.155.5,1.648,1.648,0,0,0,.842-.2,2.115,2.115,0,0,0,.605-.54l.576.449a2.31,2.31,0,0,1-2.075,1.064Zm-.117-4.931a1.251,1.251,0,0,0-.956.413,2.023,2.023,0,0,0-.478,1.161h2.755v-.072a1.771,1.771,0,0,0-.387-1.109,1.181,1.181,0,0,0-.937-.394Z" transform="translate(-397.815 -268.907)" fill="#12263f"/>
    <path id="Trazado_756337" data-name="Trazado 756337" d="M732.407,708.07a2.934,2.934,0,0,0-.462-.036,1.24,1.24,0,0,0-1.256.787v3.9h-.94v-5.5h.914l.016.634a1.465,1.465,0,0,1,1.311-.738.939.939,0,0,1,.416.072v.875Z" transform="translate(-415.095 -268.894)" fill="#12263f"/>
    <path id="Trazado_756338" data-name="Trazado 756338" d="M743.935,712.4a2,2,0,0,1-1.61.644,1.713,1.713,0,0,1-1.34-.511,2.219,2.219,0,0,1-.465-1.512v-3.578h.94V711q0,1.249,1.015,1.249a1.407,1.407,0,0,0,1.434-.8v-4h.94v5.5h-.895l-.019-.543Z" transform="translate(-422.362 -269.11)" fill="#12263f"/>
    <path id="Trazado_756339" data-name="Trazado 756339" d="M758.119,703.36v1.33h1.028v.725h-1.028v3.415a.77.77,0,0,0,.137.5.577.577,0,0,0,.468.166,2.212,2.212,0,0,0,.449-.062v.758a2.7,2.7,0,0,1-.722.1,1.168,1.168,0,0,1-.95-.381,1.648,1.648,0,0,1-.319-1.083v-3.409h-1v-.725h1v-1.33h.94Z" transform="translate(-432.928 -266.357)" fill="#12263f"/>
    <path id="Trazado_756340" data-name="Trazado 756340" d="M771.742,712.734a2,2,0,0,1-.133-.579,2.09,2.09,0,0,1-1.565.68,1.943,1.943,0,0,1-1.334-.458,1.486,1.486,0,0,1-.52-1.168,1.552,1.552,0,0,1,.654-1.334,3.089,3.089,0,0,1,1.838-.475h.914v-.433a1.047,1.047,0,0,0-.3-.784,1.183,1.183,0,0,0-.868-.293,1.364,1.364,0,0,0-.842.254.747.747,0,0,0-.342.615H768.3a1.305,1.305,0,0,1,.293-.8,1.987,1.987,0,0,1,.794-.608,2.657,2.657,0,0,1,1.1-.224,2.184,2.184,0,0,1,1.49.475,1.717,1.717,0,0,1,.559,1.308v2.531a3.121,3.121,0,0,0,.192,1.2v.081h-.986Zm-1.561-.716a1.644,1.644,0,0,0,.839-.228,1.405,1.405,0,0,0,.576-.6v-1.129h-.738q-1.727,0-1.727,1.012a.842.842,0,0,0,.3.69,1.133,1.133,0,0,0,.758.25Z" transform="translate(-441.032 -268.901)" fill="#12263f"/>
    <path id="Trazado_756341" data-name="Trazado 756341" d="M788.8,711.274a.69.69,0,0,0-.286-.592,2.842,2.842,0,0,0-1-.364,4.821,4.821,0,0,1-1.132-.364,1.6,1.6,0,0,1-.621-.507,1.216,1.216,0,0,1-.2-.7,1.435,1.435,0,0,1,.572-1.145,2.229,2.229,0,0,1,1.461-.468,2.307,2.307,0,0,1,1.516.481,1.539,1.539,0,0,1,.582,1.236h-.947a.857.857,0,0,0-.328-.667,1.233,1.233,0,0,0-.826-.28,1.3,1.3,0,0,0-.8.224.709.709,0,0,0-.289.585.575.575,0,0,0,.27.514,3.413,3.413,0,0,0,.972.332,5.027,5.027,0,0,1,1.142.377,1.653,1.653,0,0,1,.647.527,1.3,1.3,0,0,1,.211.748,1.4,1.4,0,0,1-.589,1.181,2.478,2.478,0,0,1-1.529.446,2.761,2.761,0,0,1-1.168-.234,1.914,1.914,0,0,1-.8-.654,1.571,1.571,0,0,1-.286-.907h.94a.966.966,0,0,0,.377.748,1.462,1.462,0,0,0,.934.277,1.522,1.522,0,0,0,.855-.215.661.661,0,0,0,.322-.576Z" transform="translate(-452.623 -268.901)" fill="#12263f"/>
    <path id="Trazado_756342" data-name="Trazado 756342" d="M495.834,528.973l-8.428-4.863v2.983h-30v3.6h30v3.149Z" transform="translate(-231.338 -145.411)" fill="#576b96"/>
    <path id="Trazado_756343" data-name="Trazado 756343" d="M982.984,349.906l-8.428-4.866v2.983h-30v3.6h30v3.149Z" transform="translate(-560.034 -24.587)" fill="#576b96"/>
    <path id="Trazado_756344" data-name="Trazado 756344" d="M982.984,528.973l-8.428-4.863v2.983h-30v3.6h30v3.149Z" transform="translate(-560.034 -145.411)" fill="#576b96"/>
    <path id="Trazado_756345" data-name="Trazado 756345" d="M982.984,708.036l-8.428-4.866v2.983h-30v3.6h30V712.9Z" transform="translate(-560.034 -266.229)" fill="#576b96"/>
    <rect id="Rectángulo_358710" data-name="Rectángulo 358710" width="115.285" height="3.597" transform="translate(388.124 326.522) rotate(90)" fill="#576b96"/>
    <rect id="Rectángulo_358711" data-name="Rectángulo 358711" width="21.923" height="3.597" transform="translate(386.631 385.279) rotate(180)" fill="#576b96"/>
    <rect id="Rectángulo_358712" data-name="Rectángulo 358712" width="14.783" height="17.773" transform="translate(466.796 374.399)" fill="#576b96"/>
    <rect id="Rectángulo_358713" data-name="Rectángulo 358713" width="38.147" height="24.86" transform="translate(435.018 366.758)" fill="#748fc8"/>
    <path id="Trazado_756346" data-name="Trazado 756346" d="M1240.8,525.829h-17.6V501.19h10.408l7.2,11.388Z" transform="translate(-748.041 -129.947)" fill="#748fc8"/>
    <rect id="Rectángulo_358714" data-name="Rectángulo 358714" width="50.771" height="4.541" transform="translate(432.802 391.342)" fill="#576b96"/>
    <path id="Trazado_756347" data-name="Trazado 756347" d="M1119.049,561.549H1104.21a7.419,7.419,0,1,1,14.839,0Z" transform="translate(-667.755 -165.667)" fill="#d8e4fd"/>
    <path id="Trazado_756348" data-name="Trazado 756348" d="M1226.629,561.549H1211.79a7.419,7.419,0,0,1,14.839,0Z" transform="translate(-740.342 -165.667)" fill="#d8e4fd"/>
    <circle id="Elipse_8534" data-name="Elipse 8534" cx="5.094" cy="5.094" r="5.094" transform="translate(438.784 390.789)" fill="#576b96"/>
    <circle id="Elipse_8535" data-name="Elipse 8535" cx="2.713" cy="2.713" r="2.713" transform="translate(441.165 393.17)" fill="#748fc8"/>
    <circle id="Elipse_8536" data-name="Elipse 8536" cx="5.094" cy="5.094" r="5.094" transform="translate(473.773 390.789)" fill="#576b96"/>
    <circle id="Elipse_8537" data-name="Elipse 8537" cx="2.713" cy="2.713" r="2.713" transform="translate(476.154 393.17)" fill="#748fc8"/>
    <path id="Trazado_756349" data-name="Trazado 756349" d="M1241.808,519.057H1228.13V506.85h7.683l5.995,9.55Z" transform="translate(-751.368 -133.766)" fill="#d8e4fd"/>
    <rect id="Rectángulo_358715" data-name="Rectángulo 358715" width="14.783" height="17.773" transform="translate(466.796 316.241)" fill="#98433a"/>
    <rect id="Rectángulo_358716" data-name="Rectángulo 358716" width="38.147" height="24.86" transform="translate(435.018 308.6)" fill="#cb594e"/>
    <path id="Trazado_756350" data-name="Trazado 756350" d="M1240.8,347.019h-17.6V322.38h10.408l7.2,11.388Z" transform="translate(-748.041 -9.298)" fill="#cb594e"/>
    <rect id="Rectángulo_358717" data-name="Rectángulo 358717" width="50.771" height="4.541" transform="translate(432.802 333.181)" fill="#98433a"/>
    <path id="Trazado_756351" data-name="Trazado 756351" d="M1119.049,382.739H1104.21a7.419,7.419,0,1,1,14.839,0Z" transform="translate(-667.755 -45.018)" fill="#ffcdc8"/>
    <path id="Trazado_756352" data-name="Trazado 756352" d="M1226.629,382.739H1211.79a7.419,7.419,0,0,1,14.839,0Z" transform="translate(-740.342 -45.018)" fill="#ffcdc8"/>
    <circle id="Elipse_8538" data-name="Elipse 8538" cx="5.094" cy="5.094" r="5.094" transform="translate(438.784 332.628)" fill="#98433a"/>
    <circle id="Elipse_8539" data-name="Elipse 8539" cx="2.713" cy="2.713" r="2.713" transform="translate(441.165 335.009)" fill="#cb594e"/>
    <circle id="Elipse_8540" data-name="Elipse 8540" cx="5.094" cy="5.094" r="5.094" transform="translate(473.773 332.628)" fill="#98433a"/>
    <circle id="Elipse_8541" data-name="Elipse 8541" cx="2.713" cy="2.713" r="2.713" transform="translate(476.154 335.009)" fill="#cb594e"/>
    <path id="Trazado_756353" data-name="Trazado 756353" d="M1241.808,340.247H1228.13V328.04h7.683l5.995,9.55Z" transform="translate(-751.368 -13.117)" fill="#ffcdc8"/>
    <rect id="Rectángulo_358718" data-name="Rectángulo 358718" width="14.783" height="17.773" transform="translate(466.796 432.56)" fill="#348381"/>
    <rect id="Rectángulo_358719" data-name="Rectángulo 358719" width="38.147" height="24.86" transform="translate(435.018 424.919)" fill="#45afac"/>
    <path id="Trazado_756354" data-name="Trazado 756354" d="M1240.8,704.636h-17.6V680h10.408l7.2,11.388Z" transform="translate(-748.041 -250.595)" fill="#45afac"/>
    <rect id="Rectángulo_358720" data-name="Rectángulo 358720" width="50.771" height="4.541" transform="translate(432.802 449.503)" fill="#348381"/>
    <path id="Trazado_756355" data-name="Trazado 756355" d="M1119.049,740.349H1104.21a7.419,7.419,0,1,1,14.839,0Z" transform="translate(-667.755 -286.309)" fill="#c4f2f1"/>
    <path id="Trazado_756356" data-name="Trazado 756356" d="M1226.629,740.349H1211.79a7.419,7.419,0,0,1,14.839,0Z" transform="translate(-740.342 -286.309)" fill="#c4f2f1"/>
    <circle id="Elipse_8542" data-name="Elipse 8542" cx="5.094" cy="5.094" r="5.094" transform="translate(438.784 448.947)" fill="#348381"/>
    <circle id="Elipse_8543" data-name="Elipse 8543" cx="2.713" cy="2.713" r="2.713" transform="translate(441.165 451.328)" fill="#45afac"/>
    <circle id="Elipse_8544" data-name="Elipse 8544" cx="5.094" cy="5.094" r="5.094" transform="translate(473.773 448.947)" fill="#348381"/>
    <circle id="Elipse_8545" data-name="Elipse 8545" cx="2.713" cy="2.713" r="2.713" transform="translate(476.154 451.328)" fill="#45afac"/>
    <path id="Trazado_756357" data-name="Trazado 756357" d="M1241.808,697.867H1228.13V685.66h7.683l5.995,9.55Z" transform="translate(-751.368 -254.414)" fill="#c4f2f1"/>
    <path id="Trazado_756358" data-name="Trazado 756358" d="M1370.623,360.26H1309.83l65.444,58.077" transform="translate(-806.493 -34.857)" fill="none" stroke="#cb594e" stroke-linejoin="round" stroke-width="7"/>
    <path id="Trazado_756359" data-name="Trazado 756359" d="M1377.2,362.3l-61.235,56.138,61.235,63.733" transform="translate(-810.629 -36.233)" fill="none" stroke="#748fc8" stroke-linejoin="round" stroke-width="7"/>
    <line id="Línea_3305" data-name="Línea 3305" x2="61.235" transform="translate(505.331 382.205)" fill="none" stroke="#748fc8" stroke-linejoin="round" stroke-width="7"/>
    <path id="Trazado_756360" data-name="Trazado 756360" d="M1375.274,534.89,1309.83,596.9h64.114" transform="translate(-806.493 -152.685)" fill="none" stroke="#45afac" stroke-linejoin="round" stroke-width="7"/>
    <path id="Trazado_756361" data-name="Trazado 756361" d="M1494.08,339.68v13.385l11.589-6.691Z" transform="translate(-930.812 -20.971)" fill="#576b96"/>
    <path id="Trazado_756362" data-name="Trazado 756362" d="M1494.08,514.32V527.7l11.589-6.694Z" transform="translate(-930.812 -138.806)" fill="#576b96"/>
    <path id="Trazado_756363" data-name="Trazado 756363" d="M1494.08,704.96v13.382l11.589-6.691Z" transform="translate(-930.812 -267.437)" fill="#576b96"/>
    <path id="Trazado_756364" data-name="Trazado 756364" d="M698.651,460.06l-20.394-4.775-20.4-4.775-20.394,4.775L617.07,460.06h0v48.058h81.607V460.06Z" transform="translate(-339.066 -95.751)" fill="#57dbd8"/>
    <path id="Trazado_756365" data-name="Trazado 756365" d="M702.1,542.516H626.86V501.49H702.1Z" transform="translate(-345.672 -130.149)" fill="#45afac"/>
    <rect id="Rectángulo_358721" data-name="Rectángulo 358721" width="68.319" height="37.315" transform="translate(284.646 375.049)" fill="#348381"/>
    <rect id="Rectángulo_358722" data-name="Rectángulo 358722" width="32" height="15.171" transform="translate(286.972 397.197)" fill="#ffcdc8"/>
    <rect id="Rectángulo_358723" data-name="Rectángulo 358723" width="11.293" height="9.966" transform="translate(318.975 402.401)" fill="#fe7062"/>
    <rect id="Rectángulo_358724" data-name="Rectángulo 358724" width="11.293" height="9.966" transform="translate(306.598 387.23)" fill="#fe7062"/>
    <rect id="Rectángulo_358725" data-name="Rectángulo 358725" width="11.293" height="9.966" transform="translate(295.305 387.23)" fill="#cb594e"/>
    <rect id="Rectángulo_358726" data-name="Rectángulo 358726" width="9.137" height="8.06" transform="translate(340.068 404.307)" fill="#fe7062"/>
    <rect id="Rectángulo_358727" data-name="Rectángulo 358727" width="9.8" height="11.293" transform="translate(330.268 401.071)" fill="#ffcdc8"/>
    <path id="Trazado_756366" data-name="Trazado 756366" d="M657.875,460.06h-40.8l20.4-4.775,20.4-4.775,20.4,4.775,20.4,4.775Z" transform="translate(-339.066 -95.751)" fill="#348381"/>
  </g>
</svg>
