<svg xmlns="http://www.w3.org/2000/svg" width="550" height="199.13" viewBox="0 0 550 199.13">
  <g id="graficos-03" transform="translate(-111.28 -232.715)">
    <path id="Trazado_756367" data-name="Trazado 756367" d="M1643.505,398.34a1.993,1.993,0,0,1-.667,1.426,2.353,2.353,0,0,1-1.591.522,2.116,2.116,0,0,1-1.7-.726,2.99,2.99,0,0,1-.619-2v-.343a3.343,3.343,0,0,1,.285-1.426,2.148,2.148,0,0,1,.817-.946,2.542,2.542,0,0,1,2.8.191,2.14,2.14,0,0,1,.687,1.461h-1.157a1.178,1.178,0,0,0-.3-.787,1.131,1.131,0,0,0-.794-.246.983.983,0,0,0-.865.415,2.336,2.336,0,0,0-.295,1.286v.424a2.491,2.491,0,0,0,.275,1.332.961.961,0,0,0,.868.421,1.133,1.133,0,0,0,.8-.246,1.107,1.107,0,0,0,.3-.758h1.157Z" transform="translate(-1032.664 -109.377)" fill="#12263f"/>
    <path id="Trazado_756368" data-name="Trazado 756368" d="M1656.468,399.733h-1.118V393.81h1.118Z" transform="translate(-1043.764 -108.897)" fill="#12263f"/>
    <path id="Trazado_756369" data-name="Trazado 756369" d="M1661.6,394.684a.537.537,0,0,1,.169-.411.639.639,0,0,1,.457-.162.631.631,0,0,1,.454.162.542.542,0,0,1,.169.411.565.565,0,0,1-.172.418.716.716,0,0,1-.907,0,.549.549,0,0,1-.172-.418Zm1.182,5.252h-1.118v-4.173h1.118Z" transform="translate(-1047.989 -109.1)" fill="#12263f"/>
    <path id="Trazado_756370" data-name="Trazado 756370" d="M1669.7,403.289a2.041,2.041,0,0,1-1.494-.564,2,2,0,0,1-.577-1.5v-.107a2.525,2.525,0,0,1,.243-1.124,1.812,1.812,0,0,1,.687-.765,1.941,1.941,0,0,1,1.018-.269,1.733,1.733,0,0,1,1.348.541,2.2,2.2,0,0,1,.493,1.529v.454h-2.657a1.027,1.027,0,0,0,.327.655.982.982,0,0,0,.687.246,1.209,1.209,0,0,0,1.008-.467l.547.612a1.684,1.684,0,0,1-.677.554,2.224,2.224,0,0,1-.95.2Zm-.126-3.428a.7.7,0,0,0-.538.224,1.17,1.17,0,0,0-.266.642h1.549v-.091a.824.824,0,0,0-.2-.574.719.719,0,0,0-.548-.2Z" transform="translate(-1052.065 -112.379)" fill="#12263f"/>
    <path id="Trazado_756371" data-name="Trazado 756371" d="M1682.25,399.048l.036.483a1.456,1.456,0,0,1,1.2-.561,1.217,1.217,0,0,1,.988.389,1.8,1.8,0,0,1,.331,1.163v2.7h-1.115v-2.67a.721.721,0,0,0-.155-.515.687.687,0,0,0-.512-.159.767.767,0,0,0-.707.4v2.942H1681.2v-4.173h1.05Z" transform="translate(-1061.238 -112.385)" fill="#12263f"/>
    <path id="Trazado_756372" data-name="Trazado 756372" d="M1695.444,396.04v1.027h.713v.817h-.713v2.083a.492.492,0,0,0,.088.33.44.44,0,0,0,.34.1,1.943,1.943,0,0,0,.327-.026v.846a2.251,2.251,0,0,1-.674.1,1.065,1.065,0,0,1-1.2-1.183v-2.249h-.609v-.816h.609v-1.027h1.115Z" transform="translate(-1069.702 -110.405)" fill="#12263f"/>
    <path id="Trazado_756373" data-name="Trazado 756373" d="M1704.76,403.289a2.041,2.041,0,0,1-1.494-.564,2,2,0,0,1-.577-1.5v-.107a2.525,2.525,0,0,1,.243-1.124,1.811,1.811,0,0,1,.687-.765,1.94,1.94,0,0,1,1.017-.269,1.734,1.734,0,0,1,1.348.541,2.2,2.2,0,0,1,.493,1.529v.454h-2.657a1.026,1.026,0,0,0,.327.655.982.982,0,0,0,.687.246,1.209,1.209,0,0,0,1.008-.467l.548.612a1.684,1.684,0,0,1-.677.554,2.224,2.224,0,0,1-.95.2Zm-.126-3.428a.7.7,0,0,0-.538.224,1.17,1.17,0,0,0-.266.642h1.549v-.091a.825.825,0,0,0-.2-.574.719.719,0,0,0-.548-.2Z" transform="translate(-1075.765 -112.379)" fill="#12263f"/>
    <path id="Trazado_756374" data-name="Trazado 756374" d="M1718.166,402.074a.359.359,0,0,0-.2-.321,2.339,2.339,0,0,0-.651-.211q-1.487-.311-1.487-1.264a1.141,1.141,0,0,1,.46-.927,1.854,1.854,0,0,1,1.206-.373,2.021,2.021,0,0,1,1.27.373,1.179,1.179,0,0,1,.476.972h-1.115a.537.537,0,0,0-.156-.4.654.654,0,0,0-.483-.156.661.661,0,0,0-.434.126.4.4,0,0,0-.156.324.341.341,0,0,0,.175.3,1.824,1.824,0,0,0,.593.2,4.591,4.591,0,0,1,.7.188,1.154,1.154,0,0,1,.885,1.121,1.09,1.09,0,0,1-.489.924,2.1,2.1,0,0,1-1.264.353,2.166,2.166,0,0,1-.93-.188,1.552,1.552,0,0,1-.638-.512,1.178,1.178,0,0,1-.23-.7h1.056a.575.575,0,0,0,.22.454.86.86,0,0,0,.548.159.8.8,0,0,0,.483-.12.378.378,0,0,0,.165-.318Z" transform="translate(-1084.56 -112.392)" fill="#12263f"/>
    <path id="Trazado_756375" data-name="Trazado 756375" d="M1735.912,402.483h2.042v.9h-3.464V402.7l1.964-2.6h-1.905v-.9h3.344v.658l-1.98,2.618Z" transform="translate(-1097.261 -112.548)" fill="#12263f"/>
    <path id="Trazado_756376" data-name="Trazado 756376" d="M1746.6,401.1a2.486,2.486,0,0,1,.24-1.108,1.755,1.755,0,0,1,.687-.752,2,2,0,0,1,1.043-.266,1.893,1.893,0,0,1,1.377.515,2.074,2.074,0,0,1,.6,1.4l.006.285a2.176,2.176,0,0,1-.535,1.539,2.078,2.078,0,0,1-2.88,0,2.215,2.215,0,0,1-.538-1.575v-.049Zm1.115.078a1.567,1.567,0,0,0,.224.91.737.737,0,0,0,.641.314.728.728,0,0,0,.632-.311,1.7,1.7,0,0,0,.227-.995,1.54,1.54,0,0,0-.227-.9.742.742,0,0,0-.641-.321.726.726,0,0,0-.632.318A1.74,1.74,0,0,0,1747.718,401.173Z" transform="translate(-1105.447 -112.385)" fill="#12263f"/>
    <path id="Trazado_756377" data-name="Trazado 756377" d="M1761.9,399.048l.036.483a1.456,1.456,0,0,1,1.2-.561,1.217,1.217,0,0,1,.988.389,1.8,1.8,0,0,1,.33,1.163v2.7h-1.115v-2.67a.72.72,0,0,0-.156-.515.686.686,0,0,0-.512-.159.767.767,0,0,0-.706.4v2.942h-1.115v-4.173h1.05Z" transform="translate(-1115.08 -112.385)" fill="#12263f"/>
    <path id="Trazado_756378" data-name="Trazado 756378" d="M1776.646,403.228a1.308,1.308,0,0,1-.113-.373,1.347,1.347,0,0,1-1.053.45,1.486,1.486,0,0,1-1.018-.353,1.139,1.139,0,0,1-.4-.894,1.181,1.181,0,0,1,.492-1.017,2.429,2.429,0,0,1,1.422-.36h.512v-.24a.681.681,0,0,0-.149-.463.586.586,0,0,0-.47-.175.658.658,0,0,0-.441.136.458.458,0,0,0-.159.369h-1.115a1.113,1.113,0,0,1,.223-.671,1.486,1.486,0,0,1,.632-.483,2.315,2.315,0,0,1,.917-.175,1.816,1.816,0,0,1,1.225.389,1.36,1.36,0,0,1,.454,1.089v1.808a1.97,1.97,0,0,0,.165.9v.065h-1.128Zm-.92-.774a.932.932,0,0,0,.454-.11.733.733,0,0,0,.308-.295v-.716h-.418c-.557,0-.855.194-.891.58v.065a.433.433,0,0,0,.143.343.563.563,0,0,0,.4.136Z" transform="translate(-1124.01 -112.392)" fill="#12263f"/>
    <path id="Trazado_756379" data-name="Trazado 756379" d="M1796.115,399.218h-2.029l-.385,1.157h-1.231l2.09-5.615h1.073l2.1,5.615H1796.5Zm-1.717-.936h1.4l-.706-2.1-.7,2.1Z" transform="translate(-1136.455 -109.54)" fill="#12263f"/>
    <path id="Trazado_756380" data-name="Trazado 756380" d="M1643.735,527.74a1.981,1.981,0,0,1-.668,1.426,2.353,2.353,0,0,1-1.591.522,2.116,2.116,0,0,1-1.7-.726,2.99,2.99,0,0,1-.619-2v-.343a3.347,3.347,0,0,1,.285-1.426,2.148,2.148,0,0,1,.817-.946,2.542,2.542,0,0,1,2.8.191,2.14,2.14,0,0,1,.687,1.461h-1.157a1.179,1.179,0,0,0-.3-.787,1.13,1.13,0,0,0-.794-.246.984.984,0,0,0-.865.415,2.338,2.338,0,0,0-.295,1.286v.424a2.488,2.488,0,0,0,.276,1.332.961.961,0,0,0,.868.421,1.133,1.133,0,0,0,.8-.246,1.094,1.094,0,0,0,.3-.758h1.157Z" transform="translate(-1032.82 -196.849)" fill="#12263f"/>
    <path id="Trazado_756381" data-name="Trazado 756381" d="M1656.7,529.123h-1.118V523.2h1.118Z" transform="translate(-1043.92 -196.363)" fill="#12263f"/>
    <path id="Trazado_756382" data-name="Trazado 756382" d="M1661.833,524.073a.538.538,0,0,1,.168-.411.64.64,0,0,1,.457-.162.626.626,0,0,1,.454.162.542.542,0,0,1,.168.411.565.565,0,0,1-.172.418.716.716,0,0,1-.907,0,.55.55,0,0,1-.172-.418Zm1.183,5.252H1661.9v-4.173h1.118Z" transform="translate(-1048.144 -196.565)" fill="#12263f"/>
    <path id="Trazado_756383" data-name="Trazado 756383" d="M1669.931,532.689a2.041,2.041,0,0,1-1.494-.564,2,2,0,0,1-.577-1.5v-.107a2.527,2.527,0,0,1,.243-1.124,1.813,1.813,0,0,1,.687-.765,1.941,1.941,0,0,1,1.018-.269,1.734,1.734,0,0,1,1.348.541,2.2,2.2,0,0,1,.493,1.529v.454h-2.657a1.027,1.027,0,0,0,.327.654.982.982,0,0,0,.687.246,1.205,1.205,0,0,0,1.008-.466l.548.612a1.682,1.682,0,0,1-.677.554,2.222,2.222,0,0,1-.949.2Zm-.126-3.428a.7.7,0,0,0-.538.224,1.169,1.169,0,0,0-.266.641h1.549v-.091a.825.825,0,0,0-.2-.573.719.719,0,0,0-.548-.2Z" transform="translate(-1052.221 -199.851)" fill="#12263f"/>
    <path id="Trazado_756384" data-name="Trazado 756384" d="M1682.47,528.448l.036.483a1.456,1.456,0,0,1,1.2-.56,1.218,1.218,0,0,1,.988.389,1.8,1.8,0,0,1,.331,1.163v2.7h-1.115v-2.67a.72.72,0,0,0-.156-.515.687.687,0,0,0-.512-.159.767.767,0,0,0-.707.4v2.942h-1.114v-4.173h1.05Z" transform="translate(-1061.387 -199.858)" fill="#12263f"/>
    <path id="Trazado_756385" data-name="Trazado 756385" d="M1695.674,525.44v1.027h.713v.817h-.713v2.083a.493.493,0,0,0,.087.331.44.44,0,0,0,.34.1,1.952,1.952,0,0,0,.327-.026v.846a2.246,2.246,0,0,1-.674.1,1.065,1.065,0,0,1-1.2-1.183v-2.249h-.609v-.817h.609v-1.027h1.115Z" transform="translate(-1069.857 -197.877)" fill="#12263f"/>
    <path id="Trazado_756386" data-name="Trazado 756386" d="M1704.99,532.689a2.041,2.041,0,0,1-1.494-.564,2,2,0,0,1-.577-1.5v-.107a2.524,2.524,0,0,1,.243-1.124,1.811,1.811,0,0,1,.687-.765,1.939,1.939,0,0,1,1.017-.269,1.734,1.734,0,0,1,1.348.541,2.2,2.2,0,0,1,.493,1.529v.454h-2.657a1.026,1.026,0,0,0,.327.654.983.983,0,0,0,.687.246,1.205,1.205,0,0,0,1.008-.466l.548.612a1.685,1.685,0,0,1-.677.554,2.223,2.223,0,0,1-.949.2Zm-.126-3.428a.7.7,0,0,0-.538.224,1.171,1.171,0,0,0-.266.641h1.549v-.091a.825.825,0,0,0-.2-.573.718.718,0,0,0-.548-.2Z" transform="translate(-1075.921 -199.851)" fill="#12263f"/>
    <path id="Trazado_756387" data-name="Trazado 756387" d="M1718.386,531.474a.359.359,0,0,0-.2-.321,2.3,2.3,0,0,0-.652-.211q-1.487-.311-1.487-1.264a1.141,1.141,0,0,1,.46-.927,1.853,1.853,0,0,1,1.205-.373,2.021,2.021,0,0,1,1.27.373,1.18,1.18,0,0,1,.476.972h-1.115a.538.538,0,0,0-.156-.4.819.819,0,0,0-.917-.029.412.412,0,0,0-.156.324.341.341,0,0,0,.175.3,1.826,1.826,0,0,0,.593.2,4.593,4.593,0,0,1,.7.188,1.154,1.154,0,0,1,.885,1.121,1.089,1.089,0,0,1-.49.924,2.1,2.1,0,0,1-1.264.353,2.166,2.166,0,0,1-.93-.188,1.6,1.6,0,0,1-.638-.512,1.178,1.178,0,0,1-.23-.7h1.056a.576.576,0,0,0,.22.454.86.86,0,0,0,.548.159.8.8,0,0,0,.483-.12.386.386,0,0,0,.165-.318Z" transform="translate(-1084.708 -199.864)" fill="#12263f"/>
    <path id="Trazado_756388" data-name="Trazado 756388" d="M1736.142,531.883h2.041v.9h-3.464V532.1l1.964-2.6h-1.9v-.9h3.344v.658l-1.98,2.618Z" transform="translate(-1097.417 -200.02)" fill="#12263f"/>
    <path id="Trazado_756389" data-name="Trazado 756389" d="M1746.833,530.5a2.488,2.488,0,0,1,.24-1.108,1.755,1.755,0,0,1,.687-.752,2,2,0,0,1,1.043-.266,1.894,1.894,0,0,1,1.377.515,2.077,2.077,0,0,1,.6,1.4l.006.285a2.176,2.176,0,0,1-.535,1.539,2.078,2.078,0,0,1-2.88,0,2.217,2.217,0,0,1-.538-1.575v-.049Zm1.115.078a1.568,1.568,0,0,0,.224.911.737.737,0,0,0,.641.314.729.729,0,0,0,.632-.311,1.7,1.7,0,0,0,.227-.995,1.541,1.541,0,0,0-.227-.9.743.743,0,0,0-.642-.321.726.726,0,0,0-.632.318A1.741,1.741,0,0,0,1747.948,530.573Z" transform="translate(-1105.603 -199.858)" fill="#12263f"/>
    <path id="Trazado_756390" data-name="Trazado 756390" d="M1762.13,528.448l.036.483a1.456,1.456,0,0,1,1.2-.56,1.218,1.218,0,0,1,.988.389,1.8,1.8,0,0,1,.33,1.163v2.7h-1.115v-2.67a.72.72,0,0,0-.156-.515.687.687,0,0,0-.512-.159.767.767,0,0,0-.706.4v2.942h-1.115v-4.173h1.05Z" transform="translate(-1115.236 -199.858)" fill="#12263f"/>
    <path id="Trazado_756391" data-name="Trazado 756391" d="M1776.876,532.618a1.3,1.3,0,0,1-.113-.373,1.347,1.347,0,0,1-1.053.45,1.484,1.484,0,0,1-1.017-.353,1.138,1.138,0,0,1-.4-.894,1.181,1.181,0,0,1,.492-1.017,2.43,2.43,0,0,1,1.422-.36h.512v-.24a.681.681,0,0,0-.149-.463.586.586,0,0,0-.47-.175.658.658,0,0,0-.441.136.458.458,0,0,0-.159.369h-1.115a1.114,1.114,0,0,1,.223-.671,1.487,1.487,0,0,1,.632-.483,2.315,2.315,0,0,1,.917-.175,1.816,1.816,0,0,1,1.225.389,1.36,1.36,0,0,1,.453,1.089v1.808a1.967,1.967,0,0,0,.165.9v.065h-1.128Zm-.92-.774a.931.931,0,0,0,.454-.11.734.734,0,0,0,.308-.295v-.716h-.418c-.557,0-.855.194-.891.58v.065a.434.434,0,0,0,.142.344.565.565,0,0,0,.4.136Z" transform="translate(-1124.166 -199.858)" fill="#12263f"/>
    <path id="Trazado_756392" data-name="Trazado 756392" d="M1794.17,529.765V524.15h1.967a2.565,2.565,0,0,1,1.549.392,1.339,1.339,0,0,1,.528,1.147,1.274,1.274,0,0,1-.211.726,1.215,1.215,0,0,1-.59.46,1.183,1.183,0,0,1,.68.434,1.29,1.29,0,0,1,.25.8,1.477,1.477,0,0,1-.515,1.225,2.328,2.328,0,0,1-1.474.424h-2.184Zm1.157-3.263h.855c.583-.01.875-.243.875-.7a.653.653,0,0,0-.22-.551,1.153,1.153,0,0,0-.7-.169h-.81V526.5Zm0,.816v1.516h.991a.956.956,0,0,0,.638-.195.668.668,0,0,0,.23-.538.706.706,0,0,0-.8-.784h-1.059Z" transform="translate(-1137.604 -197.005)" fill="#12263f"/>
    <path id="Trazado_756393" data-name="Trazado 756393" d="M1643.535,656.12a1.982,1.982,0,0,1-.667,1.426,2.353,2.353,0,0,1-1.591.522,2.115,2.115,0,0,1-1.7-.726,2.99,2.99,0,0,1-.619-2V655a3.343,3.343,0,0,1,.285-1.426,2.149,2.149,0,0,1,.817-.946,2.541,2.541,0,0,1,2.8.191,2.14,2.14,0,0,1,.687,1.461h-1.157a1.179,1.179,0,0,0-.3-.787,1.13,1.13,0,0,0-.794-.246.984.984,0,0,0-.865.415,2.336,2.336,0,0,0-.295,1.286v.424a2.492,2.492,0,0,0,.275,1.332.961.961,0,0,0,.869.421,1.132,1.132,0,0,0,.8-.246,1.093,1.093,0,0,0,.3-.758h1.157Z" transform="translate(-1032.685 -283.632)" fill="#12263f"/>
    <path id="Trazado_756394" data-name="Trazado 756394" d="M1656.5,657.5h-1.118V651.58h1.118Z" transform="translate(-1043.785 -283.145)" fill="#12263f"/>
    <path id="Trazado_756395" data-name="Trazado 756395" d="M1661.633,652.464a.538.538,0,0,1,.168-.412.64.64,0,0,1,.457-.162.626.626,0,0,1,.454.162.542.542,0,0,1,.168.412.564.564,0,0,1-.172.418.716.716,0,0,1-.907,0,.55.55,0,0,1-.172-.418Zm1.183,5.252H1661.7v-4.173h1.118Z" transform="translate(-1048.009 -283.355)" fill="#12263f"/>
    <path id="Trazado_756396" data-name="Trazado 756396" d="M1669.73,661.069a2.042,2.042,0,0,1-1.494-.564,2,2,0,0,1-.577-1.5V658.9a2.527,2.527,0,0,1,.243-1.124,1.812,1.812,0,0,1,.687-.765,1.94,1.94,0,0,1,1.018-.269,1.734,1.734,0,0,1,1.348.541,2.2,2.2,0,0,1,.492,1.529v.454h-2.657a1.027,1.027,0,0,0,.327.655.982.982,0,0,0,.687.246,1.2,1.2,0,0,0,1.008-.467l.548.612a1.687,1.687,0,0,1-.677.554,2.222,2.222,0,0,1-.949.2Zm-.126-3.428a.7.7,0,0,0-.538.224,1.17,1.17,0,0,0-.266.641h1.549v-.091a.825.825,0,0,0-.2-.574.718.718,0,0,0-.547-.2Z" transform="translate(-1052.085 -286.633)" fill="#12263f"/>
    <path id="Trazado_756397" data-name="Trazado 756397" d="M1682.28,656.828l.036.483a1.456,1.456,0,0,1,1.2-.56,1.218,1.218,0,0,1,.988.389,1.8,1.8,0,0,1,.33,1.163V661h-1.115v-2.67a.72.72,0,0,0-.156-.515.688.688,0,0,0-.512-.159.767.767,0,0,0-.706.4V661h-1.115v-4.173h1.05Z" transform="translate(-1061.259 -286.64)" fill="#12263f"/>
    <path id="Trazado_756398" data-name="Trazado 756398" d="M1695.474,653.82v1.027h.713v.817h-.713v2.083a.493.493,0,0,0,.087.331.44.44,0,0,0,.34.1,1.937,1.937,0,0,0,.327-.026V659a2.246,2.246,0,0,1-.674.1,1.065,1.065,0,0,1-1.2-1.183v-2.249h-.609v-.817h.609v-1.027h1.115Z" transform="translate(-1069.722 -284.66)" fill="#12263f"/>
    <path id="Trazado_756399" data-name="Trazado 756399" d="M1704.8,661.069a2.041,2.041,0,0,1-1.494-.564,2,2,0,0,1-.577-1.5V658.9a2.524,2.524,0,0,1,.243-1.124,1.812,1.812,0,0,1,.687-.765,1.94,1.94,0,0,1,1.017-.269,1.734,1.734,0,0,1,1.348.541,2.2,2.2,0,0,1,.493,1.529v.454h-2.657a1.026,1.026,0,0,0,.327.655.982.982,0,0,0,.687.246,1.2,1.2,0,0,0,1.008-.467l.548.612a1.685,1.685,0,0,1-.677.554,2.222,2.222,0,0,1-.949.2Zm-.126-3.428a.7.7,0,0,0-.538.224,1.171,1.171,0,0,0-.266.641h1.549v-.091a.824.824,0,0,0-.2-.574.718.718,0,0,0-.547-.2Z" transform="translate(-1075.792 -286.633)" fill="#12263f"/>
    <path id="Trazado_756400" data-name="Trazado 756400" d="M1718.2,659.854a.359.359,0,0,0-.2-.321,2.3,2.3,0,0,0-.651-.211q-1.487-.311-1.487-1.264a1.142,1.142,0,0,1,.46-.927,1.853,1.853,0,0,1,1.205-.373,2.021,2.021,0,0,1,1.27.373,1.179,1.179,0,0,1,.476.972h-1.115a.537.537,0,0,0-.155-.4.819.819,0,0,0-.917-.029.411.411,0,0,0-.155.324.341.341,0,0,0,.175.3,1.823,1.823,0,0,0,.593.2,4.6,4.6,0,0,1,.7.188,1.154,1.154,0,0,1,.885,1.121,1.09,1.09,0,0,1-.489.923,2.105,2.105,0,0,1-1.264.353,2.164,2.164,0,0,1-.93-.188,1.6,1.6,0,0,1-.638-.512,1.176,1.176,0,0,1-.23-.7h1.056a.576.576,0,0,0,.221.454.859.859,0,0,0,.547.159.8.8,0,0,0,.483-.12.386.386,0,0,0,.165-.318Z" transform="translate(-1084.58 -286.647)" fill="#12263f"/>
    <path id="Trazado_756401" data-name="Trazado 756401" d="M1735.953,660.263h2.041v.9h-3.464v-.677l1.964-2.6h-1.905v-.9h3.344v.658l-1.98,2.618Z" transform="translate(-1097.289 -286.802)" fill="#12263f"/>
    <path id="Trazado_756402" data-name="Trazado 756402" d="M1746.633,658.876a2.489,2.489,0,0,1,.24-1.108,1.753,1.753,0,0,1,.687-.752,2,2,0,0,1,1.043-.266,1.894,1.894,0,0,1,1.377.515,2.078,2.078,0,0,1,.6,1.4l.006.285a2.175,2.175,0,0,1-.535,1.539,2.078,2.078,0,0,1-2.88,0,2.217,2.217,0,0,1-.538-1.575v-.049Zm1.115.078a1.568,1.568,0,0,0,.224.911.738.738,0,0,0,.642.314.729.729,0,0,0,.632-.311,1.7,1.7,0,0,0,.227-.995,1.542,1.542,0,0,0-.227-.9.743.743,0,0,0-.642-.321.727.727,0,0,0-.632.318A1.741,1.741,0,0,0,1747.748,658.953Z" transform="translate(-1105.468 -286.64)" fill="#12263f"/>
    <path id="Trazado_756403" data-name="Trazado 756403" d="M1761.93,656.828l.036.483a1.456,1.456,0,0,1,1.2-.56,1.217,1.217,0,0,1,.988.389,1.8,1.8,0,0,1,.331,1.163V661h-1.115v-2.67a.72.72,0,0,0-.155-.515.687.687,0,0,0-.512-.159.767.767,0,0,0-.706.4V661h-1.115v-4.173h1.05Z" transform="translate(-1115.101 -286.64)" fill="#12263f"/>
    <path id="Trazado_756404" data-name="Trazado 756404" d="M1776.676,661a1.3,1.3,0,0,1-.113-.373,1.347,1.347,0,0,1-1.053.451,1.485,1.485,0,0,1-1.017-.353,1.139,1.139,0,0,1-.4-.894,1.182,1.182,0,0,1,.493-1.017,2.43,2.43,0,0,1,1.422-.36h.512v-.24a.68.68,0,0,0-.149-.463.585.585,0,0,0-.47-.175.658.658,0,0,0-.441.136.458.458,0,0,0-.159.369h-1.115a1.112,1.112,0,0,1,.224-.671,1.486,1.486,0,0,1,.632-.483,2.313,2.313,0,0,1,.917-.175,1.815,1.815,0,0,1,1.225.389,1.36,1.36,0,0,1,.454,1.089v1.808a1.968,1.968,0,0,0,.165.9V661h-1.128Zm-.92-.775a.933.933,0,0,0,.454-.11.735.735,0,0,0,.308-.295V659.1h-.418c-.557,0-.855.194-.891.58v.065a.435.435,0,0,0,.143.343.564.564,0,0,0,.4.136Z" transform="translate(-1124.03 -286.64)" fill="#12263f"/>
    <path id="Trazado_756405" data-name="Trazado 756405" d="M1798.025,656.12a1.994,1.994,0,0,1-.667,1.426,2.352,2.352,0,0,1-1.591.522,2.116,2.116,0,0,1-1.7-.726,2.99,2.99,0,0,1-.619-2V655a3.348,3.348,0,0,1,.285-1.426,2.152,2.152,0,0,1,.817-.946,2.542,2.542,0,0,1,2.8.191,2.14,2.14,0,0,1,.687,1.461h-1.157a1.179,1.179,0,0,0-.3-.787,1.132,1.132,0,0,0-.794-.246.984.984,0,0,0-.865.415,2.339,2.339,0,0,0-.3,1.286v.424a2.491,2.491,0,0,0,.276,1.332.961.961,0,0,0,.869.421,1.132,1.132,0,0,0,.8-.246,1.094,1.094,0,0,0,.3-.758h1.157Z" transform="translate(-1137.117 -283.632)" fill="#12263f"/>
    <path id="Trazado_756406" data-name="Trazado 756406" d="M1551.991,395.79l-6.043-3.49v2.139H1524.44v2.579h21.508v2.258Z" transform="translate(-955.271 -107.877)" fill="#576b96"/>
    <path id="Trazado_756407" data-name="Trazado 756407" d="M1551.991,524.68l-6.043-3.49v2.138H1524.44v2.579h21.508v2.258Z" transform="translate(-955.271 -195.004)" fill="#576b96"/>
    <path id="Trazado_756408" data-name="Trazado 756408" d="M1551.991,653.566l-6.043-3.486v2.138H1524.44V654.8h21.508v2.258Z" transform="translate(-955.271 -282.131)" fill="#576b96"/>
    <path id="Trazado_756409" data-name="Trazado 756409" d="M1056.165,797.489v2.268h-.765v-5.8h2.138a2.146,2.146,0,0,1,1.491.486,1.645,1.645,0,0,1,.538,1.286,1.619,1.619,0,0,1-.528,1.3,2.242,2.242,0,0,1-1.51.457Zm0-.625h1.374a1.381,1.381,0,0,0,.94-.288,1.223,1.223,0,0,0,0-1.665,1.291,1.291,0,0,0-.894-.324h-1.416v2.278Z" transform="translate(-638.208 -379.392)" fill="#12263f"/>
    <path id="Trazado_756410" data-name="Trazado 756410" d="M1071.855,799.094h-.735V792.98h.735Z" transform="translate(-648.835 -378.729)" fill="#12263f"/>
    <path id="Trazado_756411" data-name="Trazado 756411" d="M1079.433,802.7a1.528,1.528,0,0,1-.1-.454,1.643,1.643,0,0,1-1.225.535,1.527,1.527,0,0,1-1.047-.36,1.164,1.164,0,0,1-.408-.914,1.226,1.226,0,0,1,.512-1.047,2.4,2.4,0,0,1,1.439-.373h.716v-.337a.837.837,0,0,0-.23-.616.935.935,0,0,0-.681-.23,1.1,1.1,0,0,0-.661.2.587.587,0,0,0-.266.483h-.742a1,1,0,0,1,.23-.622,1.55,1.55,0,0,1,.622-.476,2.09,2.09,0,0,1,.862-.175,1.7,1.7,0,0,1,1.166.373,1.34,1.34,0,0,1,.438,1.024v1.983a2.429,2.429,0,0,0,.152.943v.065h-.771Zm-1.222-.561a1.3,1.3,0,0,0,.658-.178,1.093,1.093,0,0,0,.45-.467v-.885h-.577q-1.356,0-1.354.794a.675.675,0,0,0,.23.541A.889.889,0,0,0,1078.212,802.137Z" transform="translate(-652.573 -382.332)" fill="#12263f"/>
    <path id="Trazado_756412" data-name="Trazado 756412" d="M1090.63,795.34v1.043h.8v.57h-.8v2.676a.6.6,0,0,0,.107.389.449.449,0,0,0,.366.13,1.765,1.765,0,0,0,.35-.049v.593a2.186,2.186,0,0,1-.564.078.923.923,0,0,1-.745-.3,1.276,1.276,0,0,1-.249-.849v-2.67h-.784v-.57h.784V795.34h.735Z" transform="translate(-660.996 -380.324)" fill="#12263f"/>
    <path id="Trazado_756413" data-name="Trazado 756413" d="M1101.333,802.7a1.533,1.533,0,0,1-.1-.454,1.644,1.644,0,0,1-1.225.535,1.527,1.527,0,0,1-1.047-.36,1.164,1.164,0,0,1-.408-.914,1.226,1.226,0,0,1,.512-1.047,2.4,2.4,0,0,1,1.439-.373h.716v-.337a.837.837,0,0,0-.23-.616.934.934,0,0,0-.68-.23,1.1,1.1,0,0,0-.661.2.587.587,0,0,0-.266.483h-.742a1,1,0,0,1,.23-.622,1.551,1.551,0,0,1,.622-.476,2.088,2.088,0,0,1,.862-.175,1.7,1.7,0,0,1,1.166.373,1.338,1.338,0,0,1,.438,1.024v1.983a2.431,2.431,0,0,0,.152.943v.065h-.771Zm-1.222-.561a1.3,1.3,0,0,0,.658-.178,1.093,1.093,0,0,0,.45-.467v-.885h-.577q-1.356,0-1.354.794a.675.675,0,0,0,.23.541A.888.888,0,0,0,1100.112,802.137Z" transform="translate(-667.377 -382.332)" fill="#12263f"/>
    <path id="Trazado_756414" data-name="Trazado 756414" d="M1112.32,798.912v-3.739h-.68v-.57h.68v-.441a1.472,1.472,0,0,1,.369-1.072,1.4,1.4,0,0,1,1.047-.379,1.939,1.939,0,0,1,.506.068l-.039.593a2.256,2.256,0,0,0-.4-.036.72.72,0,0,0-.554.211.85.85,0,0,0-.194.6v.457h.92v.57h-.92v3.739h-.736Z" transform="translate(-676.226 -378.547)" fill="#12263f"/>
    <path id="Trazado_756415" data-name="Trazado 756415" d="M1120.76,800.5a2.5,2.5,0,0,1,.25-1.137,1.848,1.848,0,0,1,.693-.781,1.875,1.875,0,0,1,1.014-.275,1.819,1.819,0,0,1,1.422.609,2.338,2.338,0,0,1,.544,1.62v.052a2.582,2.582,0,0,1-.24,1.128,1.812,1.812,0,0,1-.69.778,1.916,1.916,0,0,1-1.03.279,1.817,1.817,0,0,1-1.419-.609,2.327,2.327,0,0,1-.544-1.613V800.5Zm.742.087a1.832,1.832,0,0,0,.334,1.15,1.066,1.066,0,0,0,.891.434,1.055,1.055,0,0,0,.891-.441,2.009,2.009,0,0,0,.331-1.231,1.836,1.836,0,0,0-.337-1.147,1.073,1.073,0,0,0-.894-.44,1.052,1.052,0,0,0-.881.434A1.993,1.993,0,0,0,1121.5,800.591Z" transform="translate(-682.391 -382.332)" fill="#12263f"/>
    <path id="Trazado_756416" data-name="Trazado 756416" d="M1137.8,799.059a2.11,2.11,0,0,0-.363-.029.971.971,0,0,0-.982.616V802.7h-.735V798.4h.716l.013.5a1.142,1.142,0,0,1,1.027-.577.781.781,0,0,1,.327.055v.684Z" transform="translate(-692.504 -382.339)" fill="#12263f"/>
    <path id="Trazado_756417" data-name="Trazado 756417" d="M1144.907,798.391l.019.476a1.585,1.585,0,0,1,1.277-.557,1.234,1.234,0,0,1,1.231.693,1.644,1.644,0,0,1,.561-.5,1.666,1.666,0,0,1,.813-.191q1.419,0,1.442,1.5V802.7h-.736v-2.842a.994.994,0,0,0-.211-.69.928.928,0,0,0-.71-.23.967.967,0,0,0-.681.246.985.985,0,0,0-.314.658V802.7h-.742v-2.822a.823.823,0,0,0-.92-.94.989.989,0,0,0-.992.616V802.7h-.736v-4.306Z" transform="translate(-698.242 -382.332)" fill="#12263f"/>
    <path id="Trazado_756418" data-name="Trazado 756418" d="M1168.683,802.7a1.528,1.528,0,0,1-.1-.454,1.643,1.643,0,0,1-1.225.535,1.527,1.527,0,0,1-1.047-.36,1.164,1.164,0,0,1-.408-.914,1.226,1.226,0,0,1,.512-1.047,2.4,2.4,0,0,1,1.439-.373h.716v-.337a.837.837,0,0,0-.23-.616.935.935,0,0,0-.681-.23,1.1,1.1,0,0,0-.661.2.587.587,0,0,0-.266.483h-.742a1,1,0,0,1,.23-.622,1.55,1.55,0,0,1,.622-.476,2.09,2.09,0,0,1,.862-.175,1.7,1.7,0,0,1,1.167.373,1.34,1.34,0,0,1,.437,1.024v1.983a2.424,2.424,0,0,0,.152.943v.065h-.771Zm-1.222-.561a1.3,1.3,0,0,0,.658-.178,1.092,1.092,0,0,0,.45-.467v-.885h-.577q-1.356,0-1.354.794a.675.675,0,0,0,.23.541A.882.882,0,0,0,1167.462,802.137Z" transform="translate(-712.905 -382.332)" fill="#12263f"/>
    <path id="Trazado_756419" data-name="Trazado 756419" d="M1182.1,801.563a.544.544,0,0,0-.224-.463,2.182,2.182,0,0,0-.784-.285,3.867,3.867,0,0,1-.888-.285,1.222,1.222,0,0,1-.486-.4.96.96,0,0,1-.159-.551,1.114,1.114,0,0,1,.447-.894,1.755,1.755,0,0,1,1.144-.366,1.8,1.8,0,0,1,1.189.379,1.2,1.2,0,0,1,.457.969h-.742a.664.664,0,0,0-.256-.522.964.964,0,0,0-.648-.22,1.018,1.018,0,0,0-.628.175.547.547,0,0,0-.227.457.449.449,0,0,0,.211.4,2.537,2.537,0,0,0,.761.259,4,4,0,0,1,.894.295,1.329,1.329,0,0,1,.509.411,1.015,1.015,0,0,1,.165.587,1.106,1.106,0,0,1-.463.927,1.93,1.93,0,0,1-1.2.35,2.157,2.157,0,0,1-.917-.185,1.478,1.478,0,0,1-.622-.512,1.243,1.243,0,0,1-.223-.71h.735a.758.758,0,0,0,.3.587,1.142,1.142,0,0,0,.729.217,1.182,1.182,0,0,0,.671-.169.519.519,0,0,0,.253-.45Z" transform="translate(-722.037 -382.339)" fill="#12263f"/>
    <path id="Trazado_756420" data-name="Trazado 756420" d="M1046.7,832.369a1.071,1.071,0,0,0,.69-.24.843.843,0,0,0,.327-.6h.7a1.3,1.3,0,0,1-.256.7,1.663,1.663,0,0,1-.629.535,1.807,1.807,0,0,1-.829.2,1.773,1.773,0,0,1-1.4-.586,2.338,2.338,0,0,1-.518-1.607v-.123a2.609,2.609,0,0,1,.23-1.118,1.751,1.751,0,0,1,.664-.761,1.875,1.875,0,0,1,1.021-.272,1.737,1.737,0,0,1,1.205.434,1.551,1.551,0,0,1,.512,1.128h-.7a1.015,1.015,0,0,0-.318-.687.992.992,0,0,0-.7-.269,1.03,1.03,0,0,0-.868.405,1.884,1.884,0,0,0-.308,1.17v.139a1.845,1.845,0,0,0,.308,1.147,1.031,1.031,0,0,0,.875.4Z" transform="translate(-631.03 -402.74)" fill="#12263f"/>
    <path id="Trazado_756421" data-name="Trazado 756421" d="M1060.62,829.249a2.113,2.113,0,0,0-.363-.029.971.971,0,0,0-.982.616v3.059h-.735v-4.306h.716l.013.5a1.143,1.143,0,0,1,1.027-.577.784.784,0,0,1,.327.055v.684Z" transform="translate(-640.331 -402.747)" fill="#12263f"/>
    <path id="Trazado_756422" data-name="Trazado 756422" d="M1066.2,830.7a2.551,2.551,0,0,1,.249-1.137,1.852,1.852,0,0,1,.693-.781,1.876,1.876,0,0,1,1.014-.275,1.819,1.819,0,0,1,1.422.609,2.339,2.339,0,0,1,.544,1.62v.052a2.582,2.582,0,0,1-.24,1.128,1.812,1.812,0,0,1-.69.778,1.917,1.917,0,0,1-1.03.279,1.818,1.818,0,0,1-1.419-.609,2.328,2.328,0,0,1-.544-1.614V830.7Zm.742.087a1.832,1.832,0,0,0,.334,1.15,1.066,1.066,0,0,0,.891.434,1.055,1.055,0,0,0,.891-.441,2.009,2.009,0,0,0,.33-1.231,1.834,1.834,0,0,0-.337-1.147,1.073,1.073,0,0,0-.894-.441,1.053,1.053,0,0,0-.881.434A1.994,1.994,0,0,0,1066.942,830.791Z" transform="translate(-645.509 -402.747)" fill="#12263f"/>
    <path id="Trazado_756423" data-name="Trazado 756423" d="M1083.29,831.753a.544.544,0,0,0-.224-.463,2.182,2.182,0,0,0-.784-.285,3.861,3.861,0,0,1-.888-.285,1.223,1.223,0,0,1-.486-.4.96.96,0,0,1-.159-.551,1.113,1.113,0,0,1,.447-.894,1.754,1.754,0,0,1,1.144-.366,1.8,1.8,0,0,1,1.189.379,1.2,1.2,0,0,1,.457.969h-.742a.663.663,0,0,0-.256-.522.963.963,0,0,0-.648-.22,1.02,1.02,0,0,0-.629.175.548.548,0,0,0-.227.457.449.449,0,0,0,.211.4,2.535,2.535,0,0,0,.761.259,4.007,4.007,0,0,1,.894.295,1.327,1.327,0,0,1,.509.412,1.017,1.017,0,0,1,.165.586,1.106,1.106,0,0,1-.463.927,1.928,1.928,0,0,1-1.2.35,2.155,2.155,0,0,1-.917-.185,1.479,1.479,0,0,1-.622-.512,1.243,1.243,0,0,1-.224-.71h.736a.758.758,0,0,0,.3.586,1.142,1.142,0,0,0,.729.217,1.182,1.182,0,0,0,.671-.168.519.519,0,0,0,.253-.45Z" transform="translate(-655.243 -402.747)" fill="#12263f"/>
    <path id="Trazado_756424" data-name="Trazado 756424" d="M1096.26,831.753a.544.544,0,0,0-.224-.463,2.182,2.182,0,0,0-.784-.285,3.867,3.867,0,0,1-.888-.285,1.222,1.222,0,0,1-.486-.4.959.959,0,0,1-.159-.551,1.113,1.113,0,0,1,.447-.894,1.754,1.754,0,0,1,1.144-.366,1.8,1.8,0,0,1,1.189.379,1.2,1.2,0,0,1,.457.969h-.742a.664.664,0,0,0-.256-.522.963.963,0,0,0-.648-.22,1.019,1.019,0,0,0-.629.175.548.548,0,0,0-.227.457.449.449,0,0,0,.211.4,2.54,2.54,0,0,0,.761.259,4,4,0,0,1,.894.295,1.326,1.326,0,0,1,.509.412,1.015,1.015,0,0,1,.165.586,1.106,1.106,0,0,1-.463.927,1.929,1.929,0,0,1-1.2.35,2.155,2.155,0,0,1-.917-.185,1.477,1.477,0,0,1-.622-.512,1.244,1.244,0,0,1-.224-.71h.736a.758.758,0,0,0,.3.586,1.142,1.142,0,0,0,.729.217,1.182,1.182,0,0,0,.671-.168.519.519,0,0,0,.253-.45Z" transform="translate(-664.011 -402.747)" fill="#12263f"/>
    <path id="Trazado_756425" data-name="Trazado 756425" d="M1107.784,834.123h-1.944v-.6h1.944Z" transform="translate(-672.305 -406.134)" fill="#12263f"/>
    <path id="Trazado_756426" data-name="Trazado 756426" d="M1113.493,827.1a2.516,2.516,0,0,1,.47-1.594,1.6,1.6,0,0,1,2.43-.084V823.18h.735v6.114h-.677l-.036-.463a1.5,1.5,0,0,1-1.231.541,1.437,1.437,0,0,1-1.222-.612,2.555,2.555,0,0,1-.473-1.6V827.1Zm.736.084a1.914,1.914,0,0,0,.3,1.147.978.978,0,0,0,.836.415,1.08,1.08,0,0,0,1.024-.628v-1.98a1.083,1.083,0,0,0-1.014-.609.977.977,0,0,0-.842.418,2.106,2.106,0,0,0-.3,1.238Z" transform="translate(-677.476 -399.144)" fill="#12263f"/>
    <path id="Trazado_756427" data-name="Trazado 756427" d="M1127.64,830.7a2.508,2.508,0,0,1,.249-1.137,1.85,1.85,0,0,1,.693-.781,1.876,1.876,0,0,1,1.014-.275,1.819,1.819,0,0,1,1.422.609,2.338,2.338,0,0,1,.544,1.62v.052a2.582,2.582,0,0,1-.24,1.128,1.813,1.813,0,0,1-.69.778,1.917,1.917,0,0,1-1.03.279,1.818,1.818,0,0,1-1.419-.609,2.328,2.328,0,0,1-.544-1.614V830.7Zm.742.087a1.831,1.831,0,0,0,.334,1.15,1.066,1.066,0,0,0,.891.434,1.055,1.055,0,0,0,.891-.441,2.01,2.01,0,0,0,.33-1.231,1.835,1.835,0,0,0-.337-1.147,1.073,1.073,0,0,0-.894-.441,1.052,1.052,0,0,0-.881.434A1.993,1.993,0,0,0,1128.382,830.791Z" transform="translate(-687.042 -402.747)" fill="#12263f"/>
    <path id="Trazado_756428" data-name="Trazado 756428" d="M1143.918,832.369a1.07,1.07,0,0,0,.69-.24.844.844,0,0,0,.327-.6h.7a1.3,1.3,0,0,1-.256.7,1.666,1.666,0,0,1-.629.535,1.807,1.807,0,0,1-.83.2,1.773,1.773,0,0,1-1.4-.586,2.339,2.339,0,0,1-.518-1.607v-.123a2.609,2.609,0,0,1,.23-1.118,1.751,1.751,0,0,1,.664-.761,1.875,1.875,0,0,1,1.021-.272,1.737,1.737,0,0,1,1.205.434,1.551,1.551,0,0,1,.512,1.128h-.7a1.016,1.016,0,0,0-.318-.687.992.992,0,0,0-.7-.269,1.03,1.03,0,0,0-.868.405,1.884,1.884,0,0,0-.308,1.17v.139a1.844,1.844,0,0,0,.308,1.147,1.032,1.032,0,0,0,.875.4Z" transform="translate(-696.748 -402.74)" fill="#12263f"/>
    <path id="Trazado_756429" data-name="Trazado 756429" d="M1156.969,827.3l-.463.483v1.513h-.736V823.18h.736v3.7l.4-.473,1.341-1.416h.894l-1.675,1.8,1.87,2.508h-.865l-1.5-2Z" transform="translate(-706.057 -399.144)" fill="#12263f"/>
    <path id="Trazado_756430" data-name="Trazado 756430" d="M1168.53,824.344a.428.428,0,0,1,.11-.3.414.414,0,0,1,.324-.123.424.424,0,0,1,.327.123.463.463,0,0,1,0,.6.423.423,0,0,1-.327.12.412.412,0,0,1-.324-.12A.42.42,0,0,1,1168.53,824.344Zm.8,5.45h-.736v-4.306h.736Z" transform="translate(-714.682 -399.644)" fill="#12263f"/>
    <path id="Trazado_756431" data-name="Trazado 756431" d="M1175.317,828.591l.023.541a1.569,1.569,0,0,1,1.289-.622q1.366,0,1.377,1.542V832.9h-.736v-2.851a.982.982,0,0,0-.214-.69.853.853,0,0,0-.651-.224,1.062,1.062,0,0,0-.629.191,1.274,1.274,0,0,0-.421.5V832.9h-.736v-4.306Z" transform="translate(-718.799 -402.747)" fill="#12263f"/>
    <path id="Trazado_756432" data-name="Trazado 756432" d="M1187.97,830.7a2.539,2.539,0,0,1,.466-1.6,1.607,1.607,0,0,1,2.466-.039l.036-.476h.674v4.2a1.754,1.754,0,0,1-.5,1.319,1.831,1.831,0,0,1-1.332.483,2.25,2.25,0,0,1-.911-.2,1.564,1.564,0,0,1-.68-.544l.382-.441a1.445,1.445,0,0,0,1.16.586,1.133,1.133,0,0,0,.839-.3,1.154,1.154,0,0,0,.3-.852v-.369a1.511,1.511,0,0,1-1.205.509,1.468,1.468,0,0,1-1.225-.609,2.663,2.663,0,0,1-.467-1.659Zm.742.084a1.934,1.934,0,0,0,.3,1.144.962.962,0,0,0,.836.415,1.081,1.081,0,0,0,1.024-.632v-1.967a1.091,1.091,0,0,0-1.014-.616.975.975,0,0,0-.839.418,2.106,2.106,0,0,0-.3,1.238Z" transform="translate(-727.823 -402.74)" fill="#12263f"/>
    <path id="Trazado_756433" data-name="Trazado 756433" d="M132.7,425.263v-13.8H121.02v48.314h65.8V425.263Z" transform="translate(-6.584 -120.828)" fill="#57dbd8"/>
    <rect id="Rectángulo_358728" data-name="Rectángulo 358728" width="6.117" height="4.157" transform="translate(116.704 308.359)" fill="#45afac"/>
    <rect id="Rectángulo_358729" data-name="Rectángulo 358729" width="6.117" height="4.157" transform="translate(127.763 308.359)" fill="#45afac"/>
    <rect id="Rectángulo_358730" data-name="Rectángulo 358730" width="6.117" height="4.157" transform="translate(138.822 308.359)" fill="#45afac"/>
    <rect id="Rectángulo_358731" data-name="Rectángulo 358731" width="6.117" height="4.157" transform="translate(149.883 308.359)" fill="#45afac"/>
    <rect id="Rectángulo_358732" data-name="Rectángulo 358732" width="6.117" height="4.157" transform="translate(160.942 308.359)" fill="#45afac"/>
    <rect id="Rectángulo_358733" data-name="Rectángulo 358733" width="6.117" height="4.157" transform="translate(172.001 308.359)" fill="#45afac"/>
    <rect id="Rectángulo_358734" data-name="Rectángulo 358734" width="6.117" height="4.157" transform="translate(116.704 315.416)" fill="#45afac"/>
    <rect id="Rectángulo_358735" data-name="Rectángulo 358735" width="6.117" height="4.157" transform="translate(127.763 315.416)" fill="#45afac"/>
    <rect id="Rectángulo_358736" data-name="Rectángulo 358736" width="6.117" height="4.157" transform="translate(138.822 315.416)" fill="#45afac"/>
    <rect id="Rectángulo_358737" data-name="Rectángulo 358737" width="6.117" height="4.157" transform="translate(149.883 315.416)" fill="#45afac"/>
    <rect id="Rectángulo_358738" data-name="Rectángulo 358738" width="6.117" height="4.157" transform="translate(160.942 315.416)" fill="#45afac"/>
    <rect id="Rectángulo_358739" data-name="Rectángulo 358739" width="6.117" height="4.157" transform="translate(172.001 315.416)" fill="#45afac"/>
    <rect id="Rectángulo_358740" data-name="Rectángulo 358740" width="6.117" height="4.157" transform="translate(116.704 322.476)" fill="#45afac"/>
    <rect id="Rectángulo_358741" data-name="Rectángulo 358741" width="6.117" height="4.157" transform="translate(127.763 322.476)" fill="#45afac"/>
    <rect id="Rectángulo_358742" data-name="Rectángulo 358742" width="6.117" height="4.157" transform="translate(138.822 322.476)" fill="#45afac"/>
    <rect id="Rectángulo_358743" data-name="Rectángulo 358743" width="6.117" height="4.157" transform="translate(116.704 329.536)" fill="#45afac"/>
    <rect id="Rectángulo_358744" data-name="Rectángulo 358744" width="6.117" height="4.157" transform="translate(127.763 329.536)" fill="#45afac"/>
    <rect id="Rectángulo_358745" data-name="Rectángulo 358745" width="6.117" height="4.157" transform="translate(138.822 329.536)" fill="#45afac"/>
    <rect id="Rectángulo_358746" data-name="Rectángulo 358746" width="6.117" height="4.157" transform="translate(149.883 322.476)" fill="#45afac"/>
    <rect id="Rectángulo_358747" data-name="Rectángulo 358747" width="6.117" height="4.157" transform="translate(160.942 322.476)" fill="#45afac"/>
    <rect id="Rectángulo_358748" data-name="Rectángulo 358748" width="6.117" height="4.157" transform="translate(172.001 322.476)" fill="#45afac"/>
    <rect id="Rectángulo_358749" data-name="Rectángulo 358749" width="27.373" height="9.335" transform="translate(149.883 329.536)" fill="#348381"/>
    <path id="Trazado_756434" data-name="Trazado 756434" d="M120.207,398.143H111.28l4.465-3.192,4.462-3.192,4.465,3.192,4.465,3.192Z" transform="translate(0 -107.512)" fill="#348381"/>
    <path id="Trazado_756435" data-name="Trazado 756435" d="M184.139,439.945H157.08l13.531-3.383,13.528-3.383,13.528,3.383,13.531,3.383Z" transform="translate(-30.96 -135.511)" fill="#348381"/>
    <path id="Trazado_756436" data-name="Trazado 756436" d="M189.9,591.979h-2.2v2.313h-.69V589.05h3.247v.564H187.7v1.8h2.2v.564Z" transform="translate(-51.192 -240.876)" fill="#12263f"/>
    <path id="Trazado_756437" data-name="Trazado 756437" d="M201.058,593.7a1.455,1.455,0,0,1-.094-.411,1.493,1.493,0,0,1-1.108.483,1.362,1.362,0,0,1-.946-.327,1.053,1.053,0,0,1-.369-.826,1.109,1.109,0,0,1,.463-.946,2.187,2.187,0,0,1,1.3-.337h.648v-.3a.75.75,0,0,0-.207-.557.832.832,0,0,0-.616-.207.967.967,0,0,0-.6.181.526.526,0,0,0-.24.434h-.671a.913.913,0,0,1,.207-.564,1.429,1.429,0,0,1,.561-.431,1.871,1.871,0,0,1,.781-.159,1.554,1.554,0,0,1,1.056.337,1.209,1.209,0,0,1,.4.927v1.792a2.2,2.2,0,0,0,.136.852v.058h-.7Zm-1.1-.509a1.175,1.175,0,0,0,.593-.162,1,1,0,0,0,.408-.421v-.8h-.522q-1.225,0-1.225.716a.6.6,0,0,0,.207.489.808.808,0,0,0,.538.175Zm.616-5.022h.807l-.966,1.06h-.538l.693-1.06Z" transform="translate(-58.986 -240.281)" fill="#12263f"/>
    <path id="Trazado_756438" data-name="Trazado 756438" d="M214.559,591.8a2.309,2.309,0,0,1-.411,1.435,1.306,1.306,0,0,1-1.1.541,1.36,1.36,0,0,1-1.141-.522l-.032.45h-.612V588.17h.667v2.064a1.346,1.346,0,0,1,1.111-.5,1.314,1.314,0,0,1,1.115.538,2.392,2.392,0,0,1,.405,1.468v.058Zm-.667-.075a1.8,1.8,0,0,0-.262-1.05.871.871,0,0,0-.755-.369.975.975,0,0,0-.946.612V592.6a1,1,0,0,0,.953.612.869.869,0,0,0,.745-.369,1.905,1.905,0,0,0,.266-1.115Z" transform="translate(-67.585 -240.281)" fill="#12263f"/>
    <path id="Trazado_756439" data-name="Trazado 756439" d="M225.913,593.661a2.058,2.058,0,0,0-.327-.026.874.874,0,0,0-.888.557v2.764h-.667v-3.895h.648l.01.45a1.039,1.039,0,0,1,.93-.522.649.649,0,0,1,.295.052Z" transform="translate(-76.217 -243.539)" fill="#12263f"/>
    <path id="Trazado_756440" data-name="Trazado 756440" d="M231.74,589.232a.387.387,0,0,1,.1-.272.372.372,0,0,1,.295-.11.363.363,0,0,1,.4.382.374.374,0,0,1-.1.269.4.4,0,0,1-.69-.269Zm.719,4.928h-.667v-3.895h.667Z" transform="translate(-81.429 -240.741)" fill="#12263f"/>
    <path id="Trazado_756441" data-name="Trazado 756441" d="M238.44,596.493a.952.952,0,0,0,.622-.217.756.756,0,0,0,.295-.541h.629a1.217,1.217,0,0,1-.23.638,1.53,1.53,0,0,1-.567.483,1.639,1.639,0,0,1-.752.182,1.611,1.611,0,0,1-1.267-.531,2.109,2.109,0,0,1-.47-1.452v-.11a2.34,2.34,0,0,1,.207-1.011,1.592,1.592,0,0,1,.6-.687,1.708,1.708,0,0,1,.923-.246,1.555,1.555,0,0,1,1.089.392,1.41,1.41,0,0,1,.463,1.017h-.629a.919.919,0,0,0-.285-.622.889.889,0,0,0-.635-.243.94.94,0,0,0-.787.366,1.724,1.724,0,0,0-.279,1.056v.126a1.66,1.66,0,0,0,.279,1.037.931.931,0,0,0,.791.363Z" transform="translate(-84.782 -243.546)" fill="#12263f"/>
    <path id="Trazado_756442" data-name="Trazado 756442" d="M251.328,596.952a1.349,1.349,0,0,1-.094-.411,1.493,1.493,0,0,1-1.108.483,1.362,1.362,0,0,1-.946-.327,1.053,1.053,0,0,1-.369-.826,1.109,1.109,0,0,1,.463-.946,2.186,2.186,0,0,1,1.3-.337h.648v-.3a.764.764,0,0,0-.207-.557.833.833,0,0,0-.616-.207.966.966,0,0,0-.6.181.526.526,0,0,0-.24.434h-.671a.913.913,0,0,1,.207-.564,1.427,1.427,0,0,1,.561-.431,1.869,1.869,0,0,1,.781-.159,1.554,1.554,0,0,1,1.056.337,1.22,1.22,0,0,1,.4.927v1.792a2.2,2.2,0,0,0,.136.852v.058h-.7Zm-1.1-.509a1.174,1.174,0,0,0,.593-.162,1,1,0,0,0,.408-.421v-.8H250.7q-1.225,0-1.225.716a.6.6,0,0,0,.207.489.807.807,0,0,0,.538.175Z" transform="translate(-92.968 -243.533)" fill="#12263f"/>
    <path id="Trazado_756443" data-name="Trazado 756443" d="M516.922,592.922h-2.2l-.492,1.371h-.713l2-5.243h.606l2.006,5.243h-.709l-.5-1.371Zm-1.986-.564h1.782l-.894-2.453Z" transform="translate(-271.907 -240.876)" fill="#12263f"/>
    <path id="Trazado_756444" data-name="Trazado 756444" d="M530.448,593.7h-.667V588.17h.667Z" transform="translate(-282.899 -240.281)" fill="#12263f"/>
    <path id="Trazado_756445" data-name="Trazado 756445" d="M535.728,593.055l.019.431a1.437,1.437,0,0,1,1.157-.506,1.109,1.109,0,0,1,1.111.625,1.444,1.444,0,0,1,1.241-.625q1.283,0,1.3,1.358v2.611h-.668V594.38a.9.9,0,0,0-.191-.625.834.834,0,0,0-.642-.207.891.891,0,0,0-.616.22.907.907,0,0,0-.285.6v2.586h-.671V594.4a.743.743,0,0,0-.833-.849.892.892,0,0,0-.9.557v2.845h-.667v-3.895h.629Z" transform="translate(-286.488 -243.533)" fill="#12263f"/>
    <path id="Trazado_756446" data-name="Trazado 756446" d="M557.238,596.952a1.349,1.349,0,0,1-.094-.411,1.493,1.493,0,0,1-1.108.483,1.361,1.361,0,0,1-.946-.327,1.053,1.053,0,0,1-.369-.826,1.109,1.109,0,0,1,.463-.946,2.186,2.186,0,0,1,1.3-.337h.648v-.3a.764.764,0,0,0-.207-.557.833.833,0,0,0-.616-.207.967.967,0,0,0-.6.181.526.526,0,0,0-.24.434H554.8a.913.913,0,0,1,.207-.564,1.427,1.427,0,0,1,.561-.431,1.869,1.869,0,0,1,.781-.159,1.554,1.554,0,0,1,1.056.337,1.221,1.221,0,0,1,.4.927v1.792a2.2,2.2,0,0,0,.136.852v.058h-.7Zm-1.1-.509a1.173,1.173,0,0,0,.593-.162,1,1,0,0,0,.408-.421v-.8h-.522q-1.225,0-1.225.716a.6.6,0,0,0,.207.489.807.807,0,0,0,.538.175Z" transform="translate(-299.758 -243.533)" fill="#12263f"/>
    <path id="Trazado_756447" data-name="Trazado 756447" d="M568.64,596.493a.952.952,0,0,0,.622-.217.756.756,0,0,0,.295-.541h.629a1.218,1.218,0,0,1-.23.638,1.529,1.529,0,0,1-.567.483,1.639,1.639,0,0,1-.752.182,1.611,1.611,0,0,1-1.267-.531,2.109,2.109,0,0,1-.47-1.452v-.11a2.339,2.339,0,0,1,.207-1.011,1.592,1.592,0,0,1,.6-.687,1.708,1.708,0,0,1,.923-.246,1.554,1.554,0,0,1,1.089.392,1.41,1.41,0,0,1,.463,1.017h-.629a.919.919,0,0,0-.285-.622.889.889,0,0,0-.635-.243.94.94,0,0,0-.787.366,1.725,1.725,0,0,0-.279,1.056v.126a1.661,1.661,0,0,0,.279,1.037.931.931,0,0,0,.791.363Z" transform="translate(-307.991 -243.546)" fill="#12263f"/>
    <path id="Trazado_756448" data-name="Trazado 756448" d="M580.625,593.772a1.693,1.693,0,0,1-1.29-.522,1.93,1.93,0,0,1-.5-1.39v-.123a2.353,2.353,0,0,1,.22-1.034,1.728,1.728,0,0,1,.619-.713,1.558,1.558,0,0,1,.862-.256,1.463,1.463,0,0,1,1.18.5,2.158,2.158,0,0,1,.421,1.432v.279H579.5a1.386,1.386,0,0,0,.337.93,1.058,1.058,0,0,0,.82.353,1.168,1.168,0,0,0,.6-.143,1.544,1.544,0,0,0,.428-.382l.408.318A1.635,1.635,0,0,1,580.625,593.772Zm-.084-3.493a.882.882,0,0,0-.677.295,1.422,1.422,0,0,0-.337.823h1.951v-.052a1.287,1.287,0,0,0-.272-.787.84.84,0,0,0-.661-.279Zm.324-2.109h.807l-.966,1.06h-.538l.693-1.06Z" transform="translate(-316.062 -240.281)" fill="#12263f"/>
    <path id="Trazado_756449" data-name="Trazado 756449" d="M592.035,593.061l.023.489a1.416,1.416,0,0,1,1.166-.561q1.235,0,1.244,1.393v2.573H593.8v-2.579a.892.892,0,0,0-.191-.622.778.778,0,0,0-.59-.2.98.98,0,0,0-.57.172,1.187,1.187,0,0,0-.382.454v2.777H591.4v-3.895h.629Z" transform="translate(-324.553 -243.539)" fill="#12263f"/>
    <path id="Trazado_756450" data-name="Trazado 756450" d="M382.3,493.594l-5.968-3.444v2.113H355.08v2.55h21.249v2.229Z" transform="translate(-164.804 -174.022)" fill="#576b96"/>
    <path id="Trazado_756451" data-name="Trazado 756451" d="M872.522,341.942l-6.085-3.512v2.151H844.78v2.6h21.657v2.275Z" transform="translate(-495.833 -71.461)" fill="#576b96"/>
    <path id="Trazado_756452" data-name="Trazado 756452" d="M872.522,521.762l-6.085-3.512V520.4H844.78V523h21.657v2.271Z" transform="translate(-495.833 -193.017)" fill="#576b96"/>
    <path id="Trazado_756453" data-name="Trazado 756453" d="M872.522,717.652l-6.085-3.512v2.155H844.78v2.6h21.657v2.275Z" transform="translate(-495.833 -325.435)" fill="#576b96"/>
    <rect id="Rectángulo_358750" data-name="Rectángulo 358750" width="122.096" height="2.599" transform="translate(351.546 271.349) rotate(90)" fill="#576b96"/>
    <rect id="Rectángulo_358751" data-name="Rectángulo 358751" width="15.828" height="2.599" transform="translate(350.467 329.984) rotate(180)" fill="#576b96"/>
    <rect id="Rectángulo_358752" data-name="Rectángulo 358752" width="10.625" height="12.773" transform="translate(320.142 319.903)" fill="#348381"/>
    <rect id="Rectángulo_358753" data-name="Rectángulo 358753" width="27.418" height="17.87" transform="translate(297.299 314.411)" fill="#45afac"/>
    <path id="Trazado_756454" data-name="Trazado 756454" d="M787.083,512.511H774.43V494.8h7.482l5.171,8.188Z" transform="translate(-448.278 -177.165)" fill="#45afac"/>
    <rect id="Rectángulo_358754" data-name="Rectángulo 358754" width="36.494" height="3.263" transform="translate(295.708 332.083)" fill="#348381"/>
    <path id="Trazado_756455" data-name="Trazado 756455" d="M699.237,538.333H688.57a5.333,5.333,0,0,1,10.667,0Z" transform="translate(-390.238 -202.987)" fill="#c4f2f1"/>
    <path id="Trazado_756456" data-name="Trazado 756456" d="M776.857,538.333H766.19a5.333,5.333,0,0,1,10.667,0Z" transform="translate(-442.708 -202.987)" fill="#c4f2f1"/>
    <circle id="Elipse_8546" data-name="Elipse 8546" cx="3.661" cy="3.661" r="3.661" transform="translate(300.004 331.685)" fill="#348381"/>
    <circle id="Elipse_8547" data-name="Elipse 8547" cx="1.951" cy="1.951" r="1.951" transform="translate(301.715 333.395)" fill="#45afac"/>
    <circle id="Elipse_8548" data-name="Elipse 8548" cx="3.661" cy="3.661" r="3.661" transform="translate(325.154 331.685)" fill="#348381"/>
    <circle id="Elipse_8549" data-name="Elipse 8549" cx="1.951" cy="1.951" r="1.951" transform="translate(326.865 333.395)" fill="#45afac"/>
    <path id="Trazado_756457" data-name="Trazado 756457" d="M787.817,507.664H777.99V498.89h5.521l4.306,6.863Z" transform="translate(-450.684 -179.93)" fill="#c4f2f1"/>
    <rect id="Rectángulo_358755" data-name="Rectángulo 358755" width="10.625" height="12.773" transform="translate(535.202 319.903)" fill="#348381"/>
    <rect id="Rectángulo_358756" data-name="Rectángulo 358756" width="27.418" height="17.87" transform="translate(512.362 314.411)" fill="#45afac"/>
    <path id="Trazado_756458" data-name="Trazado 756458" d="M1450.816,512.511H1438.16V494.8h7.482l5.175,8.188Z" transform="translate(-896.947 -177.165)" fill="#45afac"/>
    <rect id="Rectángulo_358757" data-name="Rectángulo 358757" width="36.494" height="3.263" transform="translate(510.768 332.083)" fill="#348381"/>
    <path id="Trazado_756459" data-name="Trazado 756459" d="M1362.967,538.333H1352.3a5.333,5.333,0,1,1,10.667,0Z" transform="translate(-838.908 -202.987)" fill="#c4f2f1"/>
    <path id="Trazado_756460" data-name="Trazado 756460" d="M1440.6,538.333H1429.93a5.333,5.333,0,0,1,10.667,0Z" transform="translate(-891.384 -202.987)" fill="#c4f2f1"/>
    <circle id="Elipse_8550" data-name="Elipse 8550" cx="3.661" cy="3.661" r="3.661" transform="translate(515.068 331.685)" fill="#348381"/>
    <circle id="Elipse_8551" data-name="Elipse 8551" cx="1.951" cy="1.951" r="1.951" transform="translate(516.778 333.395)" fill="#45afac"/>
    <circle id="Elipse_8552" data-name="Elipse 8552" cx="3.661" cy="3.661" r="3.661" transform="translate(540.218 331.685)" fill="#348381"/>
    <circle id="Elipse_8553" data-name="Elipse 8553" cx="1.951" cy="1.951" r="1.951" transform="translate(541.929 333.395)" fill="#45afac"/>
    <path id="Trazado_756461" data-name="Trazado 756461" d="M1451.551,507.664h-9.831V498.89h5.521l4.309,6.863Z" transform="translate(-899.354 -179.93)" fill="#c4f2f1"/>
    <path id="Trazado_756462" data-name="Trazado 756462" d="M524.97,439.887l-14.318-3.354-14.315-3.354-14.318,3.354L467.7,439.887h0v33.737h57.29V439.887Z" transform="translate(-240.934 -135.511)" fill="#57dbd8"/>
    <path id="Trazado_756463" data-name="Trazado 756463" d="M527.411,497.912H474.59v-28.8h52.821Z" transform="translate(-245.591 -159.799)" fill="#45afac"/>
    <rect id="Rectángulo_358758" data-name="Rectángulo 358758" width="47.961" height="26.197" transform="translate(231.432 311.916)" fill="#348381"/>
    <rect id="Rectángulo_358759" data-name="Rectángulo 358759" width="22.464" height="10.65" transform="translate(233.062 327.463)" fill="#ffcdc8"/>
    <rect id="Rectángulo_358760" data-name="Rectángulo 358760" width="7.929" height="6.996" transform="translate(255.529 331.114)" fill="#fe7062"/>
    <rect id="Rectángulo_358761" data-name="Rectángulo 358761" width="7.929" height="6.996" transform="translate(246.843 320.467)" fill="#fe7062"/>
    <rect id="Rectángulo_358762" data-name="Rectángulo 358762" width="7.929" height="6.996" transform="translate(238.914 320.467)" fill="#cb594e"/>
    <rect id="Rectángulo_358763" data-name="Rectángulo 358763" width="6.412" height="5.657" transform="translate(270.337 332.453)" fill="#fe7062"/>
    <rect id="Rectángulo_358764" data-name="Rectángulo 358764" width="6.879" height="7.929" transform="translate(263.458 330.181)" fill="#ffcdc8"/>
    <path id="Trazado_756464" data-name="Trazado 756464" d="M496.346,439.887H467.7l14.322-3.354,14.325-3.354,14.322,3.354,14.322,3.354Z" transform="translate(-240.934 -135.511)" fill="#348381"/>
    <rect id="Rectángulo_358765" data-name="Rectángulo 358765" width="6.594" height="7.929" transform="translate(482.779 262.785)" fill="#348381"/>
    <rect id="Rectángulo_358766" data-name="Rectángulo 358766" width="17.017" height="11.091" transform="translate(468.6 259.377)" fill="#45afac"/>
    <path id="Trazado_756465" data-name="Trazado 756465" d="M1277.184,332.171h-7.854V321.18h4.643l3.211,5.081Z" transform="translate(-782.821 -59.801)" fill="#45afac"/>
    <rect id="Rectángulo_358767" data-name="Rectángulo 358767" width="22.649" height="2.025" transform="translate(467.612 270.345)" fill="#348381"/>
    <path id="Trazado_756466" data-name="Trazado 756466" d="M1222.66,348.2h-6.62a3.308,3.308,0,1,1,6.616,0Z" transform="translate(-746.798 -75.828)" fill="#c4f2f1"/>
    <path id="Trazado_756467" data-name="Trazado 756467" d="M1270.84,348.2h-6.62a3.308,3.308,0,0,1,6.616,0Z" transform="translate(-779.367 -75.828)" fill="#c4f2f1"/>
    <circle id="Elipse_8554" data-name="Elipse 8554" cx="2.271" cy="2.271" r="2.271" transform="translate(470.282 270.099)" fill="#348381"/>
    <circle id="Elipse_8555" data-name="Elipse 8555" cx="1.212" cy="1.212" r="1.212" transform="translate(471.341 271.158)" fill="#45afac"/>
    <circle id="Elipse_8556" data-name="Elipse 8556" cx="2.271" cy="2.271" r="2.271" transform="translate(485.89 270.099)" fill="#348381"/>
    <circle id="Elipse_8557" data-name="Elipse 8557" cx="1.212" cy="1.212" r="1.212" transform="translate(486.949 271.158)" fill="#45afac"/>
    <path id="Trazado_756468" data-name="Trazado 756468" d="M1277.641,329.157h-6.1V323.71h3.425l2.676,4.261Z" transform="translate(-784.315 -61.511)" fill="#c4f2f1"/>
    <rect id="Rectángulo_358768" data-name="Rectángulo 358768" width="55.592" height="32.635" transform="translate(411.11 240.895)" fill="#57dbd8"/>
    <rect id="Rectángulo_358769" data-name="Rectángulo 358769" width="47.32" height="24.94" transform="translate(415.247 248.587)" fill="#45afac"/>
    <rect id="Rectángulo_358770" data-name="Rectángulo 358770" width="39.213" height="19.049" transform="translate(419.301 251.853)" fill="#348381"/>
    <rect id="Rectángulo_358771" data-name="Rectángulo 358771" width="19.516" height="2.968" transform="translate(411.764 271.054) rotate(180)" fill="#348381"/>
    <path id="Trazado_756469" data-name="Trazado 756469" d="M964.66,335.121h7.018V325.3h-4.151l-2.868,4.539Z" transform="translate(-576.87 -62.586)" fill="#45afac"/>
    <rect id="Rectángulo_358772" data-name="Rectángulo 358772" width="20.238" height="1.808" transform="translate(411.69 272.535) rotate(180)" fill="#348381"/>
    <path id="Trazado_756470" data-name="Trazado 756470" d="M1018.635,346.48a2.959,2.959,0,0,1,2.958,2.958h-5.913a2.959,2.959,0,0,1,2.958-2.958Z" transform="translate(-611.358 -76.903)" fill="#c4f2f1"/>
    <path id="Trazado_756471" data-name="Trazado 756471" d="M975.585,346.48a2.959,2.959,0,0,1,2.958,2.958H972.63a2.959,2.959,0,0,1,2.958-2.958Z" transform="translate(-582.257 -76.903)" fill="#c4f2f1"/>
    <circle id="Elipse_8558" data-name="Elipse 8558" cx="2.032" cy="2.032" r="2.032" transform="translate(405.245 270.504)" fill="#348381"/>
    <circle id="Elipse_8559" data-name="Elipse 8559" cx="1.082" cy="1.082" r="1.082" transform="translate(406.194 271.453)" fill="#45afac"/>
    <circle id="Elipse_8560" data-name="Elipse 8560" cx="2.032" cy="2.032" r="2.032" transform="translate(391.296 270.504)" fill="#348381"/>
    <circle id="Elipse_8561" data-name="Elipse 8561" cx="1.082" cy="1.082" r="1.082" transform="translate(392.245 271.453)" fill="#45afac"/>
    <path id="Trazado_756472" data-name="Trazado 756472" d="M967.52,332.427h5.45V327.56h-3.062l-2.388,3.807Z" transform="translate(-578.803 -64.114)" fill="#c4f2f1"/>
    <rect id="Rectángulo_358773" data-name="Rectángulo 358773" width="5.515" height="5.019" transform="translate(395.586 263.012)" fill="#ffcdc8"/>
    <rect id="Rectángulo_358774" data-name="Rectángulo 358774" width="6.811" height="5.019" transform="translate(401.101 263.012)" fill="#fe7062"/>
    <rect id="Rectángulo_358775" data-name="Rectángulo 358775" width="6.432" height="6.176" transform="translate(397.887 256.833)" fill="#cb594e"/>
    <rect id="Rectángulo_358776" data-name="Rectángulo 358776" width="13.32" height="6.286" transform="translate(399.776 268.278)" fill="#91b3fa"/>
    <rect id="Rectángulo_358777" data-name="Rectángulo 358777" width="46.328" height="6.286" transform="translate(415.743 268.278)" fill="#d8e4fd"/>
    <rect id="Rectángulo_358778" data-name="Rectángulo 358778" width="2.647" height="6.286" transform="translate(413.096 268.278)" fill="#0f0957"/>
    <rect id="Rectángulo_358779" data-name="Rectángulo 358779" width="13.32" height="6.286" transform="translate(478.036 274.564) rotate(180)" fill="#91b3fa"/>
    <rect id="Rectángulo_358780" data-name="Rectángulo 358780" width="2.647" height="6.286" transform="translate(464.715 274.564) rotate(180)" fill="#0f0957"/>
    <path id="Trazado_756473" data-name="Trazado 756473" d="M1048.725,234.858c-4.666,1.3-9.28,3.221-12.1,6.033h55.592c-2.816-2.816-7.427-4.734-12.1-6.033a58.587,58.587,0,0,0-31.4,0Z" transform="translate(-625.52 0)" fill="#348381"/>
    <rect id="Rectángulo_358781" data-name="Rectángulo 358781" width="6.594" height="7.929" transform="translate(482.779 325.308)" fill="#348381"/>
    <rect id="Rectángulo_358782" data-name="Rectángulo 358782" width="17.017" height="11.091" transform="translate(468.6 321.899)" fill="#45afac"/>
    <path id="Trazado_756474" data-name="Trazado 756474" d="M1277.184,525.121h-7.854V514.13h4.643l3.211,5.081Z" transform="translate(-782.821 -190.232)" fill="#45afac"/>
    <rect id="Rectángulo_358783" data-name="Rectángulo 358783" width="22.649" height="2.025" transform="translate(467.612 332.864)" fill="#348381"/>
    <path id="Trazado_756475" data-name="Trazado 756475" d="M1222.66,541.148h-6.62a3.308,3.308,0,1,1,6.616,0Z" transform="translate(-746.798 -206.259)" fill="#c4f2f1"/>
    <path id="Trazado_756476" data-name="Trazado 756476" d="M1270.84,541.148h-6.62a3.308,3.308,0,1,1,6.616,0Z" transform="translate(-779.367 -206.259)" fill="#c4f2f1"/>
    <circle id="Elipse_8562" data-name="Elipse 8562" cx="2.271" cy="2.271" r="2.271" transform="translate(470.282 332.618)" fill="#348381"/>
    <circle id="Elipse_8563" data-name="Elipse 8563" cx="1.212" cy="1.212" r="1.212" transform="translate(471.341 333.677)" fill="#45afac"/>
    <circle id="Elipse_8564" data-name="Elipse 8564" cx="2.271" cy="2.271" r="2.271" transform="translate(485.89 332.618)" fill="#348381"/>
    <circle id="Elipse_8565" data-name="Elipse 8565" cx="1.212" cy="1.212" r="1.212" transform="translate(486.949 333.677)" fill="#45afac"/>
    <path id="Trazado_756477" data-name="Trazado 756477" d="M1277.641,522.113h-6.1V516.67h3.425l2.676,4.261Z" transform="translate(-784.315 -191.949)" fill="#c4f2f1"/>
    <rect id="Rectángulo_358784" data-name="Rectángulo 358784" width="55.592" height="32.635" transform="translate(411.11 303.414)" fill="#57dbd8"/>
    <rect id="Rectángulo_358785" data-name="Rectángulo 358785" width="47.32" height="24.94" transform="translate(415.247 311.109)" fill="#45afac"/>
    <rect id="Rectángulo_358786" data-name="Rectángulo 358786" width="39.213" height="19.049" transform="translate(419.301 314.372)" fill="#348381"/>
    <rect id="Rectángulo_358787" data-name="Rectángulo 358787" width="19.516" height="2.968" transform="translate(411.764 333.577) rotate(180)" fill="#348381"/>
    <path id="Trazado_756478" data-name="Trazado 756478" d="M964.66,528.071h7.018V518.25h-4.151l-2.868,4.539Z" transform="translate(-576.87 -193.017)" fill="#45afac"/>
    <rect id="Rectángulo_358788" data-name="Rectángulo 358788" width="20.238" height="1.808" transform="translate(411.69 335.054) rotate(180)" fill="#348381"/>
    <path id="Trazado_756479" data-name="Trazado 756479" d="M1018.635,539.43a2.959,2.959,0,0,1,2.958,2.958h-5.913a2.959,2.959,0,0,1,2.958-2.958Z" transform="translate(-611.358 -207.334)" fill="#c4f2f1"/>
    <path id="Trazado_756480" data-name="Trazado 756480" d="M975.585,539.43a2.959,2.959,0,0,1,2.958,2.958H972.63a2.959,2.959,0,0,1,2.958-2.958Z" transform="translate(-582.257 -207.334)" fill="#c4f2f1"/>
    <circle id="Elipse_8566" data-name="Elipse 8566" cx="2.032" cy="2.032" r="2.032" transform="translate(405.245 333.023)" fill="#348381"/>
    <circle id="Elipse_8567" data-name="Elipse 8567" cx="1.082" cy="1.082" r="1.082" transform="translate(406.194 333.972)" fill="#45afac"/>
    <circle id="Elipse_8568" data-name="Elipse 8568" cx="2.032" cy="2.032" r="2.032" transform="translate(391.296 333.023)" fill="#348381"/>
    <circle id="Elipse_8569" data-name="Elipse 8569" cx="1.082" cy="1.082" r="1.082" transform="translate(392.245 333.972)" fill="#45afac"/>
    <path id="Trazado_756481" data-name="Trazado 756481" d="M967.52,525.384h5.45V520.52h-3.062l-2.388,3.807Z" transform="translate(-578.803 -194.551)" fill="#c4f2f1"/>
    <rect id="Rectángulo_358789" data-name="Rectángulo 358789" width="5.515" height="5.019" transform="translate(395.586 325.531)" fill="#ffcdc8"/>
    <rect id="Rectángulo_358790" data-name="Rectángulo 358790" width="6.811" height="5.019" transform="translate(401.101 325.531)" fill="#fe7062"/>
    <rect id="Rectángulo_358791" data-name="Rectángulo 358791" width="6.432" height="6.176" transform="translate(397.887 319.356)" fill="#cb594e"/>
    <rect id="Rectángulo_358792" data-name="Rectángulo 358792" width="13.32" height="6.286" transform="translate(399.776 330.797)" fill="#91b3fa"/>
    <rect id="Rectángulo_358793" data-name="Rectángulo 358793" width="46.328" height="6.286" transform="translate(415.743 330.797)" fill="#d8e4fd"/>
    <rect id="Rectángulo_358794" data-name="Rectángulo 358794" width="2.647" height="6.286" transform="translate(413.096 330.797)" fill="#0f0957"/>
    <rect id="Rectángulo_358795" data-name="Rectángulo 358795" width="13.32" height="6.286" transform="translate(478.036 337.086) rotate(180)" fill="#91b3fa"/>
    <rect id="Rectángulo_358796" data-name="Rectángulo 358796" width="2.647" height="6.286" transform="translate(464.715 337.086) rotate(180)" fill="#0f0957"/>
    <path id="Trazado_756482" data-name="Trazado 756482" d="M1048.725,427.818c-4.666,1.3-9.28,3.221-12.1,6.033h55.592c-2.816-2.816-7.427-4.734-12.1-6.033a58.587,58.587,0,0,0-31.4,0Z" transform="translate(-625.52 -130.438)" fill="#348381"/>
    <rect id="Rectángulo_358797" data-name="Rectángulo 358797" width="6.594" height="7.929" transform="translate(482.779 389.123)" fill="#348381"/>
    <rect id="Rectángulo_358798" data-name="Rectángulo 358798" width="17.017" height="11.091" transform="translate(468.6 385.715)" fill="#45afac"/>
    <path id="Trazado_756483" data-name="Trazado 756483" d="M1277.184,722.081h-7.854V711.09h4.643l3.211,5.081Z" transform="translate(-782.821 -323.373)" fill="#45afac"/>
    <rect id="Rectángulo_358799" data-name="Rectángulo 358799" width="22.649" height="2.025" transform="translate(467.612 396.683)" fill="#348381"/>
    <path id="Trazado_756484" data-name="Trazado 756484" d="M1222.66,738.108h-6.62a3.308,3.308,0,1,1,6.616,0Z" transform="translate(-746.798 -339.401)" fill="#c4f2f1"/>
    <path id="Trazado_756485" data-name="Trazado 756485" d="M1270.84,738.108h-6.62a3.308,3.308,0,0,1,6.616,0Z" transform="translate(-779.367 -339.401)" fill="#c4f2f1"/>
    <circle id="Elipse_8570" data-name="Elipse 8570" cx="2.271" cy="2.271" r="2.271" transform="translate(470.282 396.436)" fill="#348381"/>
    <circle id="Elipse_8571" data-name="Elipse 8571" cx="1.212" cy="1.212" r="1.212" transform="translate(471.341 397.496)" fill="#45afac"/>
    <circle id="Elipse_8572" data-name="Elipse 8572" cx="2.271" cy="2.271" r="2.271" transform="translate(485.89 396.436)" fill="#348381"/>
    <circle id="Elipse_8573" data-name="Elipse 8573" cx="1.212" cy="1.212" r="1.212" transform="translate(486.949 397.496)" fill="#45afac"/>
    <path id="Trazado_756486" data-name="Trazado 756486" d="M1277.641,719.067h-6.1V713.62h3.425l2.676,4.261Z" transform="translate(-784.315 -325.083)" fill="#c4f2f1"/>
    <rect id="Rectángulo_358800" data-name="Rectángulo 358800" width="55.592" height="32.635" transform="translate(411.11 367.233)" fill="#57dbd8"/>
    <rect id="Rectángulo_358801" data-name="Rectángulo 358801" width="47.32" height="24.94" transform="translate(415.247 374.925)" fill="#45afac"/>
    <rect id="Rectángulo_358802" data-name="Rectángulo 358802" width="39.213" height="19.049" transform="translate(419.301 378.191)" fill="#348381"/>
    <rect id="Rectángulo_358803" data-name="Rectángulo 358803" width="19.516" height="2.968" transform="translate(411.764 397.392) rotate(180)" fill="#348381"/>
    <path id="Trazado_756487" data-name="Trazado 756487" d="M964.66,725.028h7.018V715.21h-4.151l-2.868,4.539Z" transform="translate(-576.87 -326.158)" fill="#45afac"/>
    <rect id="Rectángulo_358804" data-name="Rectángulo 358804" width="20.238" height="1.808" transform="translate(411.69 398.873) rotate(180)" fill="#348381"/>
    <path id="Trazado_756488" data-name="Trazado 756488" d="M1018.635,736.39a2.959,2.959,0,0,1,2.958,2.958h-5.913a2.959,2.959,0,0,1,2.958-2.958Z" transform="translate(-611.358 -340.475)" fill="#c4f2f1"/>
    <path id="Trazado_756489" data-name="Trazado 756489" d="M975.585,736.39a2.959,2.959,0,0,1,2.958,2.958H972.63a2.959,2.959,0,0,1,2.958-2.958Z" transform="translate(-582.257 -340.475)" fill="#c4f2f1"/>
    <circle id="Elipse_8574" data-name="Elipse 8574" cx="2.032" cy="2.032" r="2.032" transform="translate(405.245 396.838)" fill="#348381"/>
    <circle id="Elipse_8575" data-name="Elipse 8575" cx="1.082" cy="1.082" r="1.082" transform="translate(406.194 397.787)" fill="#45afac"/>
    <circle id="Elipse_8576" data-name="Elipse 8576" cx="2.032" cy="2.032" r="2.032" transform="translate(391.296 396.838)" fill="#348381"/>
    <circle id="Elipse_8577" data-name="Elipse 8577" cx="1.082" cy="1.082" r="1.082" transform="translate(392.245 397.787)" fill="#45afac"/>
    <path id="Trazado_756490" data-name="Trazado 756490" d="M967.52,722.337h5.45V717.47h-3.062l-2.388,3.807Z" transform="translate(-578.803 -327.686)" fill="#c4f2f1"/>
    <rect id="Rectángulo_358805" data-name="Rectángulo 358805" width="5.515" height="5.019" transform="translate(395.586 389.35)" fill="#ffcdc8"/>
    <rect id="Rectángulo_358806" data-name="Rectángulo 358806" width="6.811" height="5.019" transform="translate(401.101 389.35)" fill="#fe7062"/>
    <rect id="Rectángulo_358807" data-name="Rectángulo 358807" width="6.432" height="6.176" transform="translate(397.887 383.171)" fill="#cb594e"/>
    <rect id="Rectángulo_358808" data-name="Rectángulo 358808" width="13.32" height="6.286" transform="translate(399.776 394.615)" fill="#91b3fa"/>
    <rect id="Rectángulo_358809" data-name="Rectángulo 358809" width="46.328" height="6.286" transform="translate(415.743 394.615)" fill="#d8e4fd"/>
    <rect id="Rectángulo_358810" data-name="Rectángulo 358810" width="2.647" height="6.286" transform="translate(413.096 394.615)" fill="#0f0957"/>
    <rect id="Rectángulo_358811" data-name="Rectángulo 358811" width="13.32" height="6.286" transform="translate(478.036 400.901) rotate(180)" fill="#91b3fa"/>
    <rect id="Rectángulo_358812" data-name="Rectángulo 358812" width="2.647" height="6.286" transform="translate(464.715 400.901) rotate(180)" fill="#0f0957"/>
    <path id="Trazado_756491" data-name="Trazado 756491" d="M1048.725,624.768c-4.666,1.3-9.28,3.221-12.1,6.033h55.592c-2.816-2.816-7.427-4.734-12.1-6.033a58.584,58.584,0,0,0-31.4,0Z" transform="translate(-625.52 -263.572)" fill="#348381"/>
  </g>
</svg>
