<svg xmlns="http://www.w3.org/2000/svg" xmlns:xlink="http://www.w3.org/1999/xlink" width="145.415" height="100.115" viewBox="0 0 145.415 100.115">
  <defs>
    <clipPath id="clip-path">
      <rect id="Rectángulo_358408" data-name="Rectángulo 358408" width="40.415" height="43.115" fill="none" stroke="#fff" stroke-width="1"/>
    </clipPath>
  </defs>
  <g id="Grupo_1024071" data-name="Grupo 1024071" transform="translate(-580 -3246.442)">
    <g id="Grupo_1021910" data-name="Grupo 1021910" transform="translate(-229.761 9)">
      <g id="Grupo_1021909" data-name="Grupo 1021909" transform="translate(809.761 3294.442)">
        <g id="Grupo_1021908" data-name="Grupo 1021908" clip-path="url(#clip-path)">
          <path id="Trazado_755701" data-name="Trazado 755701" d="M40.058,9.513,20.482.062a.632.632,0,0,0-.549,0L.357,9.513A.632.632,0,0,0,0,10.081V33.032a.632.632,0,0,0,.357.569l19.576,9.45a.632.632,0,0,0,.549,0L40.058,33.6a.632.632,0,0,0,.357-.569V10.081a.632.632,0,0,0-.357-.569m-19.85-8.18L38.33,10.081l-5.254,2.536a.626.626,0,0,0-.107-.067l-18-8.689ZM13.544,4.575l18.1,8.736L27.934,15.1,9.845,6.368Zm18.52,9.934v6.614L28.6,22.795V16.181Zm7.088,18.127-18.313,8.84V19.928l4.368-2.109a.632.632,0,1,0-.549-1.137l-4.45,2.149-1.751-.845a.632.632,0,0,0-.549,1.137l1.669.806V41.476L1.263,32.636V11.088L15.208,17.82a.632.632,0,0,0,.549-1.137l-13.673-6.6L8.358,7.053,27.33,16.211l.009.011V23.8a.632.632,0,0,0,.906.569l4.725-2.281a.631.631,0,0,0,.357-.569V13.9l5.825-2.812Z" transform="translate(0 0)" fill="#fff" stroke="#fff" stroke-width="1"/>
          <path id="Trazado_755702" data-name="Trazado 755702" d="M35.8,342.711l-2.873-1.387a.632.632,0,1,0-.549,1.137l2.873,1.387a.632.632,0,0,0,.549-1.137" transform="translate(-29.32 -312.524)" fill="#fff" stroke="#fff" stroke-width="1"/>
          <path id="Trazado_755703" data-name="Trazado 755703" d="M38.483,308.415l-5.513-2.661a.632.632,0,1,0-.549,1.138l5.513,2.661a.632.632,0,0,0,.549-1.138" transform="translate(-29.364 -279.949)" fill="#fff" stroke="#fff" stroke-width="1"/>
        </g>
      </g>
    </g>
    <g id="Grupo_1021913" data-name="Grupo 1021913" transform="translate(-207.761 -27)">
      <g id="Grupo_1021909-2" data-name="Grupo 1021909" transform="translate(809.761 3294.442)">
        <g id="Grupo_1021908-2" data-name="Grupo 1021908" clip-path="url(#clip-path)">
          <path id="Trazado_755701-2" data-name="Trazado 755701" d="M40.058,9.513,20.482.062a.632.632,0,0,0-.549,0L.357,9.513A.632.632,0,0,0,0,10.081V33.032a.632.632,0,0,0,.357.569l19.576,9.45a.632.632,0,0,0,.549,0L40.058,33.6a.632.632,0,0,0,.357-.569V10.081a.632.632,0,0,0-.357-.569m-19.85-8.18L38.33,10.081l-5.254,2.536a.626.626,0,0,0-.107-.067l-18-8.689ZM13.544,4.575l18.1,8.736L27.934,15.1,9.845,6.368Zm18.52,9.934v6.614L28.6,22.795V16.181Zm7.088,18.127-18.313,8.84V19.928l4.368-2.109a.632.632,0,1,0-.549-1.137l-4.45,2.149-1.751-.845a.632.632,0,0,0-.549,1.137l1.669.806V41.476L1.263,32.636V11.088L15.208,17.82a.632.632,0,0,0,.549-1.137l-13.673-6.6L8.358,7.053,27.33,16.211l.009.011V23.8a.632.632,0,0,0,.906.569l4.725-2.281a.631.631,0,0,0,.357-.569V13.9l5.825-2.812Z" transform="translate(0 0)" fill="#fff" stroke="#fff" stroke-width="1"/>
          <path id="Trazado_755702-2" data-name="Trazado 755702" d="M35.8,342.711l-2.873-1.387a.632.632,0,1,0-.549,1.137l2.873,1.387a.632.632,0,0,0,.549-1.137" transform="translate(-29.32 -312.524)" fill="#fff" stroke="#fff" stroke-width="1"/>
          <path id="Trazado_755703-2" data-name="Trazado 755703" d="M38.483,308.415l-5.513-2.661a.632.632,0,1,0-.549,1.138l5.513,2.661a.632.632,0,0,0,.549-1.138" transform="translate(-29.364 -279.949)" fill="#fff" stroke="#fff" stroke-width="1"/>
        </g>
      </g>
    </g>
    <g id="Grupo_1021914" data-name="Grupo 1021914" transform="translate(-186.761 9)">
      <g id="Grupo_1021909-3" data-name="Grupo 1021909" transform="translate(809.761 3294.442)">
        <g id="Grupo_1021908-3" data-name="Grupo 1021908" clip-path="url(#clip-path)">
          <path id="Trazado_755701-3" data-name="Trazado 755701" d="M40.058,9.513,20.482.062a.632.632,0,0,0-.549,0L.357,9.513A.632.632,0,0,0,0,10.081V33.032a.632.632,0,0,0,.357.569l19.576,9.45a.632.632,0,0,0,.549,0L40.058,33.6a.632.632,0,0,0,.357-.569V10.081a.632.632,0,0,0-.357-.569m-19.85-8.18L38.33,10.081l-5.254,2.536a.626.626,0,0,0-.107-.067l-18-8.689ZM13.544,4.575l18.1,8.736L27.934,15.1,9.845,6.368Zm18.52,9.934v6.614L28.6,22.795V16.181Zm7.088,18.127-18.313,8.84V19.928l4.368-2.109a.632.632,0,1,0-.549-1.137l-4.45,2.149-1.751-.845a.632.632,0,0,0-.549,1.137l1.669.806V41.476L1.263,32.636V11.088L15.208,17.82a.632.632,0,0,0,.549-1.137l-13.673-6.6L8.358,7.053,27.33,16.211l.009.011V23.8a.632.632,0,0,0,.906.569l4.725-2.281a.631.631,0,0,0,.357-.569V13.9l5.825-2.812Z" transform="translate(0 0)" fill="#fff" stroke="#fff" stroke-width="1"/>
          <path id="Trazado_755702-3" data-name="Trazado 755702" d="M35.8,342.711l-2.873-1.387a.632.632,0,1,0-.549,1.137l2.873,1.387a.632.632,0,0,0,.549-1.137" transform="translate(-29.32 -312.524)" fill="#fff" stroke="#fff" stroke-width="1"/>
          <path id="Trazado_755703-3" data-name="Trazado 755703" d="M38.483,308.415l-5.513-2.661a.632.632,0,1,0-.549,1.138l5.513,2.661a.632.632,0,0,0,.549-1.138" transform="translate(-29.364 -279.949)" fill="#fff" stroke="#fff" stroke-width="1"/>
        </g>
      </g>
    </g>
    <g id="Grupo_1021912" data-name="Grupo 1021912" transform="translate(-124.761 9)">
      <g id="Grupo_1021909-4" data-name="Grupo 1021909" transform="translate(809.761 3294.442)">
        <g id="Grupo_1021908-4" data-name="Grupo 1021908" clip-path="url(#clip-path)">
          <path id="Trazado_755701-4" data-name="Trazado 755701" d="M40.058,9.513,20.482.062a.632.632,0,0,0-.549,0L.357,9.513A.632.632,0,0,0,0,10.081V33.032a.632.632,0,0,0,.357.569l19.576,9.45a.632.632,0,0,0,.549,0L40.058,33.6a.632.632,0,0,0,.357-.569V10.081a.632.632,0,0,0-.357-.569m-19.85-8.18L38.33,10.081l-5.254,2.536a.626.626,0,0,0-.107-.067l-18-8.689ZM13.544,4.575l18.1,8.736L27.934,15.1,9.845,6.368Zm18.52,9.934v6.614L28.6,22.795V16.181Zm7.088,18.127-18.313,8.84V19.928l4.368-2.109a.632.632,0,1,0-.549-1.137l-4.45,2.149-1.751-.845a.632.632,0,0,0-.549,1.137l1.669.806V41.476L1.263,32.636V11.088L15.208,17.82a.632.632,0,0,0,.549-1.137l-13.673-6.6L8.358,7.053,27.33,16.211l.009.011V23.8a.632.632,0,0,0,.906.569l4.725-2.281a.631.631,0,0,0,.357-.569V13.9l5.825-2.812Z" transform="translate(0 0)" fill="#fff" stroke="#fff" stroke-width="1"/>
          <path id="Trazado_755702-4" data-name="Trazado 755702" d="M35.8,342.711l-2.873-1.387a.632.632,0,1,0-.549,1.137l2.873,1.387a.632.632,0,0,0,.549-1.137" transform="translate(-29.32 -312.524)" fill="#fff" stroke="#fff" stroke-width="1"/>
          <path id="Trazado_755703-4" data-name="Trazado 755703" d="M38.483,308.415l-5.513-2.661a.632.632,0,1,0-.549,1.138l5.513,2.661a.632.632,0,0,0,.549-1.138" transform="translate(-29.364 -279.949)" fill="#fff" stroke="#fff" stroke-width="1"/>
        </g>
      </g>
    </g>
    <g id="Grupo_1021911" data-name="Grupo 1021911" transform="translate(-154.761 -48)">
      <g id="Grupo_1021909-5" data-name="Grupo 1021909" transform="translate(809.761 3294.442)">
        <g id="Grupo_1021908-5" data-name="Grupo 1021908" clip-path="url(#clip-path)">
          <path id="Trazado_755701-5" data-name="Trazado 755701" d="M40.058,9.513,20.482.062a.632.632,0,0,0-.549,0L.357,9.513A.632.632,0,0,0,0,10.081V33.032a.632.632,0,0,0,.357.569l19.576,9.45a.632.632,0,0,0,.549,0L40.058,33.6a.632.632,0,0,0,.357-.569V10.081a.632.632,0,0,0-.357-.569m-19.85-8.18L38.33,10.081l-5.254,2.536a.626.626,0,0,0-.107-.067l-18-8.689ZM13.544,4.575l18.1,8.736L27.934,15.1,9.845,6.368Zm18.52,9.934v6.614L28.6,22.795V16.181Zm7.088,18.127-18.313,8.84V19.928l4.368-2.109a.632.632,0,1,0-.549-1.137l-4.45,2.149-1.751-.845a.632.632,0,0,0-.549,1.137l1.669.806V41.476L1.263,32.636V11.088L15.208,17.82a.632.632,0,0,0,.549-1.137l-13.673-6.6L8.358,7.053,27.33,16.211l.009.011V23.8a.632.632,0,0,0,.906.569l4.725-2.281a.631.631,0,0,0,.357-.569V13.9l5.825-2.812Z" transform="translate(0 0)" fill="#fff" stroke="#fff" stroke-width="1"/>
          <path id="Trazado_755702-5" data-name="Trazado 755702" d="M35.8,342.711l-2.873-1.387a.632.632,0,1,0-.549,1.137l2.873,1.387a.632.632,0,0,0,.549-1.137" transform="translate(-29.32 -312.524)" fill="#fff" stroke="#fff" stroke-width="1"/>
          <path id="Trazado_755703-5" data-name="Trazado 755703" d="M38.483,308.415l-5.513-2.661a.632.632,0,1,0-.549,1.138l5.513,2.661a.632.632,0,0,0,.549-1.138" transform="translate(-29.364 -279.949)" fill="#fff" stroke="#fff" stroke-width="1"/>
        </g>
      </g>
    </g>
  </g>
</svg>
