<svg xmlns="http://www.w3.org/2000/svg" width="72.667" height="58.409" viewBox="0 0 72.667 58.409">
  <g id="open-book" transform="translate(-6 -56.86)">
    <path id="Trazado_751731" data-name="Trazado 751731" d="M47.5,376.189v4.462a.7.7,0,0,0,.7.7h57.051a.7.7,0,0,0,.7-.7v-4.462" transform="translate(-34.393 -273.277)" fill="none" stroke="#fe7062" stroke-linecap="round" stroke-linejoin="round" stroke-miterlimit="10" stroke-width="3"/>
    <path id="Trazado_751732" data-name="Trazado 751732" d="M12.939,108.36H10.3a2.8,2.8,0,0,0-2.8,2.8v42.793a2.8,2.8,0,0,0,2.8,2.8H21.07" transform="translate(0 -42.991)" fill="none" stroke="#fe7062" stroke-linecap="round" stroke-linejoin="round" stroke-miterlimit="10" stroke-width="3"/>
    <path id="Trazado_751733" data-name="Trazado 751733" d="M185.609,108.36h2.69a2.8,2.8,0,0,1,2.8,2.8v42.793a2.8,2.8,0,0,1-2.8,2.8H160.886a1.865,1.865,0,0,1-1.372-.624c-.045-.048-.09-.1-.136-.142a4.4,4.4,0,0,0-6.375.168,1.841,1.841,0,0,1-1.37.6H140.01" transform="translate(-113.935 -42.991)" fill="none" stroke="#fe7062" stroke-linecap="round" stroke-linejoin="round" stroke-miterlimit="10" stroke-width="3"/>
    <path id="Trazado_751734" data-name="Trazado 751734" d="M411.561,223.35v22.065H406.9a28.54,28.54,0,0,1-3.974-.492" transform="translate(-340.001 -141.863)" fill="none" stroke="#fe7062" stroke-linecap="round" stroke-linejoin="round" stroke-miterlimit="10" stroke-width="3"/>
    <path id="Trazado_751735" data-name="Trazado 751735" d="M271.78,110.727c-1.56-.327-2.682-.579-2.69-.58-5.271-1.113-11.281,2.261-13.09,6.527V74.44c1.808-4.266,7.819-6.939,13.09-5.827.021,0,8.879,2.007,11.48,2.006a17.922,17.922,0,0,0,3.789-.387.7.7,0,0,1,.868.68v14.17" transform="translate(-213.667 -8.598)" fill="none" stroke="#fe7062" stroke-linecap="round" stroke-linejoin="round" stroke-miterlimit="10" stroke-width="3"/>
    <path id="Trazado_751736" data-name="Trazado 751736" d="M209.638,73.117a10.438,10.438,0,0,1,6.5,5.413" transform="translate(-173.803 -12.688)" fill="none" stroke="#fe7062" stroke-linecap="round" stroke-linejoin="round" stroke-miterlimit="10" stroke-width="3"/>
    <path id="Trazado_751737" data-name="Trazado 751737" d="M76.727,123.163c-1.808-4.266-7.819-7.64-13.089-6.528-.021,0-8.879,2.007-11.48,2.006H47.5V77.4a.7.7,0,0,1,.868-.68,17.9,17.9,0,0,0,3.789.387,55.972,55.972,0,0,0,7.7-1.2" transform="translate(-34.393 -15.088)" fill="none" stroke="#fe7062" stroke-linecap="round" stroke-linejoin="round" stroke-miterlimit="10" stroke-width="3"/>
    <path id="Trazado_751738" data-name="Trazado 751738" d="M146.893,68.523v2.03a.7.7,0,0,1-1.016.627l-4.01-2.027-4.01,2.027a.7.7,0,0,1-1.016-.627v-9.42a2.191,2.191,0,0,1,1.731-2.14c.523-.112,1.037-.224,1.532-.335l.062-.014a13.345,13.345,0,0,1,2.754-.283,14.346,14.346,0,0,1,2.117.16,2.186,2.186,0,0,1,1.857,2.164v2.834" transform="translate(-111.21 0)" fill="none" stroke="#fe7062" stroke-linecap="round" stroke-linejoin="round" stroke-miterlimit="10" stroke-width="3"/>
    <g id="Grupo_1020316" data-name="Grupo 1020316" transform="translate(47.243 71.358)">
      <line id="Línea_3271" data-name="Línea 3271" x2="19.408" fill="none" stroke="#fe7062" stroke-linecap="round" stroke-linejoin="round" stroke-miterlimit="10" stroke-width="3"/>
      <line id="Línea_3272" data-name="Línea 3272" x2="19.408" transform="translate(0 6.949)" fill="none" stroke="#fe7062" stroke-linecap="round" stroke-linejoin="round" stroke-miterlimit="10" stroke-width="3"/>
      <line id="Línea_3273" data-name="Línea 3273" x2="19.408" transform="translate(0 13.898)" fill="none" stroke="#fe7062" stroke-linecap="round" stroke-linejoin="round" stroke-miterlimit="10" stroke-width="3"/>
      <line id="Línea_3274" data-name="Línea 3274" x2="19.408" transform="translate(0 20.847)" fill="none" stroke="#fe7062" stroke-linecap="round" stroke-linejoin="round" stroke-miterlimit="10" stroke-width="3"/>
      <line id="Línea_3275" data-name="Línea 3275" x2="19.408" transform="translate(0 20.847)" fill="none" stroke="#fe7062" stroke-linecap="round" stroke-linejoin="round" stroke-miterlimit="10" stroke-width="3"/>
    </g>
    <g id="Grupo_1020317" data-name="Grupo 1020317" transform="translate(18.016 78.307)">
      <line id="Línea_3276" data-name="Línea 3276" x1="19.408" transform="translate(0)" fill="none" stroke="#fe7062" stroke-linecap="round" stroke-linejoin="round" stroke-miterlimit="10" stroke-width="3"/>
      <line id="Línea_3277" data-name="Línea 3277" x1="19.408" transform="translate(0 6.949)" fill="none" stroke="#fe7062" stroke-linecap="round" stroke-linejoin="round" stroke-miterlimit="10" stroke-width="3"/>
      <line id="Línea_3278" data-name="Línea 3278" x1="19.408" transform="translate(0 13.898)" fill="none" stroke="#fe7062" stroke-linecap="round" stroke-linejoin="round" stroke-miterlimit="10" stroke-width="3"/>
      <line id="Línea_3279" data-name="Línea 3279" x1="19.408" transform="translate(0 13.898)" fill="none" stroke="#fe7062" stroke-linecap="round" stroke-linejoin="round" stroke-miterlimit="10" stroke-width="3"/>
    </g>
  </g>
</svg>
