<svg xmlns="http://www.w3.org/2000/svg" width="23.04" height="42.782" viewBox="0 0 23.04 42.782">
  <g id="Grupo_1024074" data-name="Grupo 1024074" transform="translate(12445.018 12300.29)">
    <path id="Trazado_756262" data-name="Trazado 756262" d="M568.76,79.362v.057a12.067,12.067,0,0,0,2.322,6.824c.75,1.054,1.609,2.218,2.072,2.812l3.969,5.109a3.911,3.911,0,0,0,6.141.046l6.092-7.605a9.4,9.4,0,0,0,.923-1.33,12.394,12.394,0,0,0,1.44-7.4,11.505,11.505,0,0,0-22.959,1.488m6.118.868a5.49,5.49,0,1,1,4.1,4.226,5.595,5.595,0,0,1-4.1-4.226" transform="translate(-13013.777 -12353.184)" fill="#1a0f91"/>
    <path id="Trazado_756264" data-name="Trazado 756264" d="M588.817,56.628q-1.066,1.685-2.132,3.369a1.038,1.038,0,0,0,.369,1.408,1.051,1.051,0,0,0,1.407-.369l2.132-3.369a1.037,1.037,0,0,0-.37-1.407,1.05,1.05,0,0,0-1.407.369" transform="translate(-13016.929 -12351.201)" fill="#140c74"/>
    <path id="Trazado_756265" data-name="Trazado 756265" d="M583.478,59.277q.147-4.249.294-8.5c.045-1.324-2.012-1.321-2.057,0q-.148,4.249-.295,8.5c-.046,1.324,2.011,1.322,2.057,0" transform="translate(-13016.021 -12350.077)" fill="#140c74"/>
    <path id="Trazado_756266" data-name="Trazado 756266" d="M578.294,60.124l-2.5-3.5a1.107,1.107,0,0,0-.615-.473,1.053,1.053,0,0,0-.792.1,1.04,1.04,0,0,0-.369,1.407l2.5,3.5a1.111,1.111,0,0,0,.615.472,1.051,1.051,0,0,0,.793-.1,1.04,1.04,0,0,0,.369-1.407" transform="translate(-13014.683 -12351.199)" fill="#140c74"/>
  </g>
</svg>
