<svg xmlns="http://www.w3.org/2000/svg" xmlns:xlink="http://www.w3.org/1999/xlink" width="499" height="356.379" viewBox="0 0 499 356.379">
  <defs>
    <clipPath id="clip-path">
      <rect id="Rectángulo_358683" data-name="Rectángulo 358683" width="499" height="356.379" fill="none"/>
    </clipPath>
    <clipPath id="clip-path-3">
      <rect id="Rectángulo_358650" data-name="Rectángulo 358650" width="37.667" height="69.489" fill="none"/>
    </clipPath>
    <clipPath id="clip-path-4">
      <rect id="Rectángulo_358651" data-name="Rectángulo 358651" width="37.667" height="53.609" fill="none"/>
    </clipPath>
    <clipPath id="clip-path-5">
      <rect id="Rectángulo_358653" data-name="Rectángulo 358653" width="52.196" height="94.859" fill="none"/>
    </clipPath>
    <clipPath id="clip-path-6">
      <rect id="Rectángulo_358654" data-name="Rectángulo 358654" width="52.536" height="74.771" fill="none"/>
    </clipPath>
    <clipPath id="clip-path-7">
      <rect id="Rectángulo_358656" data-name="Rectángulo 358656" width="44.454" height="82.01" fill="none"/>
    </clipPath>
    <clipPath id="clip-path-8">
      <rect id="Rectángulo_358657" data-name="Rectángulo 358657" width="44.454" height="63.268" fill="none"/>
    </clipPath>
  </defs>
  <g id="Grupo_1024069" data-name="Grupo 1024069" transform="translate(-915 -156.744)">
    <g id="Grupo_1024066" data-name="Grupo 1024066" transform="translate(915 156.744)">
      <g id="Grupo_1024065" data-name="Grupo 1024065" clip-path="url(#clip-path)">
        <g id="Grupo_1024060" data-name="Grupo 1024060">
          <g id="Grupo_1024059" data-name="Grupo 1024059" clip-path="url(#clip-path)">
            <rect id="Rectángulo_358649" data-name="Rectángulo 358649" width="37.667" height="189.652" transform="translate(146.342 165.016)" fill="#d8e4fd"/>
            <path id="Trazado_756115" data-name="Trazado 756115" d="M215.221,214.386H178.366a.515.515,0,0,0,0,1.029h36.855a.515.515,0,0,0,0-1.029" transform="translate(-31.516 -37.987)" fill="#edf3f6"/>
            <path id="Trazado_756116" data-name="Trazado 756116" d="M178.366,247.228h36.855a.515.515,0,0,0,0-1.029H178.366a.515.515,0,0,0,0,1.029" transform="translate(-31.516 -43.624)" fill="#edf3f6"/>
            <path id="Trazado_756117" data-name="Trazado 756117" d="M215.221,278.012H178.366a.515.515,0,0,0,0,1.029h36.855a.515.515,0,0,0,0-1.029" transform="translate(-31.516 -49.26)" fill="#edf3f6"/>
            <path id="Trazado_756118" data-name="Trazado 756118" d="M215.221,309.825H178.366a.515.515,0,0,0,0,1.029h36.855a.515.515,0,0,0,0-1.029" transform="translate(-31.516 -54.897)" fill="#edf3f6"/>
            <path id="Trazado_756119" data-name="Trazado 756119" d="M208.489,214.9V330.449a.515.515,0,0,0,1.029,0V214.9a.515.515,0,0,0-1.029,0" transform="translate(-36.942 -37.99)" fill="#edf3f6"/>
            <path id="Trazado_756120" data-name="Trazado 756120" d="M189.684,214.9V330.449a.515.515,0,0,0,1.029,0V214.9a.515.515,0,0,0-1.029,0" transform="translate(-33.61 -37.99)" fill="#edf3f6"/>
            <g id="Grupo_1024043" data-name="Grupo 1024043" transform="translate(146.342 184.635)" opacity="0.3">
              <g id="Grupo_1024042" data-name="Grupo 1024042">
                <g id="Grupo_1024041" data-name="Grupo 1024041" clip-path="url(#clip-path-3)">
                  <path id="Trazado_756121" data-name="Trazado 756121" d="M177.856,224.4l37.667,51.831v17.658l-37.667-47.452Z" transform="translate(-177.856 -224.395)" fill="#fff"/>
                </g>
              </g>
            </g>
            <g id="Grupo_1024046" data-name="Grupo 1024046" transform="translate(146.342 218.165)" opacity="0.3">
              <g id="Grupo_1024045" data-name="Grupo 1024045">
                <g id="Grupo_1024044" data-name="Grupo 1024044" clip-path="url(#clip-path-4)">
                  <path id="Trazado_756122" data-name="Trazado 756122" d="M215.523,311.5c-.058-.185-37.667-46.359-37.667-46.359v6.3l37.667,47.306Z" transform="translate(-177.856 -265.146)" fill="#fff"/>
                </g>
              </g>
            </g>
            <rect id="Rectángulo_358652" data-name="Rectángulo 358652" width="52.196" height="178.015" transform="translate(276.602 81.62)" fill="#d8e4fd"/>
            <path id="Trazado_756123" data-name="Trazado 756123" d="M387.986,116.838h-51.07a.515.515,0,0,0,0,1.029h51.07a.515.515,0,0,0,0-1.029" transform="translate(-59.609 -20.702)" fill="#edf3f6"/>
            <path id="Trazado_756124" data-name="Trazado 756124" d="M387.986,160.923h-51.07a.515.515,0,0,0,0,1.029h51.07a.515.515,0,0,0,0-1.029" transform="translate(-59.609 -28.514)" fill="#edf3f6"/>
            <path id="Trazado_756125" data-name="Trazado 756125" d="M387.986,205.007h-51.07a.515.515,0,0,0,0,1.029h51.07a.515.515,0,0,0,0-1.029" transform="translate(-59.609 -36.325)" fill="#edf3f6"/>
            <path id="Trazado_756126" data-name="Trazado 756126" d="M387.986,249.092h-51.07a.515.515,0,0,0,0,1.029h51.07a.515.515,0,0,0,0-1.029" transform="translate(-59.609 -44.136)" fill="#edf3f6"/>
            <path id="Trazado_756127" data-name="Trazado 756127" d="M378.858,117.356V277.471a.515.515,0,0,0,1.029,0V117.356a.515.515,0,0,0-1.029,0" transform="translate(-67.129 -20.706)" fill="#edf3f6"/>
            <path id="Trazado_756128" data-name="Trazado 756128" d="M352.8,117.356V277.471a.515.515,0,0,0,1.028,0V117.356a.515.515,0,0,0-1.028,0" transform="translate(-62.512 -20.706)" fill="#edf3f6"/>
            <g id="Grupo_1024049" data-name="Grupo 1024049" transform="translate(276.602 81.62)" opacity="0.3">
              <g id="Grupo_1024048" data-name="Grupo 1024048">
                <g id="Grupo_1024047" data-name="Grupo 1024047" clip-path="url(#clip-path-5)">
                  <path id="Trazado_756129" data-name="Trazado 756129" d="M336.167,99.2l52.2,70.23v24.628l-51.78-65.233Z" transform="translate(-336.167 -99.197)" fill="#fff"/>
                </g>
              </g>
            </g>
            <g id="Grupo_1024052" data-name="Grupo 1024052" transform="translate(276.262 126.325)" opacity="0.3">
              <g id="Grupo_1024051" data-name="Grupo 1024051">
                <g id="Grupo_1024050" data-name="Grupo 1024050" clip-path="url(#clip-path-6)">
                  <path id="Trazado_756130" data-name="Trazado 756130" d="M388.29,218.19c-.081-.258-52.536-64.66-52.536-64.66v8.79L388.29,228.3Z" transform="translate(-335.754 -153.529)" fill="#fff"/>
                </g>
              </g>
            </g>
            <rect id="Rectángulo_358655" data-name="Rectángulo 358655" width="44.206" height="229.072" transform="translate(187.386 125.596)" fill="#d8e4fd"/>
            <path id="Trazado_756131" data-name="Trazado 756131" d="M271.609,168.988H228.356a.515.515,0,0,0,0,1.029h43.253a.515.515,0,0,0,0-1.029" transform="translate(-40.374 -29.943)" fill="#edf3f6"/>
            <path id="Trazado_756132" data-name="Trazado 756132" d="M271.609,206.324H228.356a.515.515,0,0,0,0,1.029h43.253a.515.515,0,0,0,0-1.029" transform="translate(-40.374 -36.558)" fill="#edf3f6"/>
            <path id="Trazado_756133" data-name="Trazado 756133" d="M271.609,243.661H228.356a.515.515,0,0,0,0,1.029h43.253a.515.515,0,0,0,0-1.029" transform="translate(-40.374 -43.174)" fill="#edf3f6"/>
            <path id="Trazado_756134" data-name="Trazado 756134" d="M271.609,281H228.356a.515.515,0,0,0,0,1.029h43.253a.515.515,0,0,0,0-1.029" transform="translate(-40.374 -49.789)" fill="#edf3f6"/>
            <path id="Trazado_756135" data-name="Trazado 756135" d="M263.8,169.506V305.112a.515.515,0,0,0,1.029,0V169.506a.515.515,0,0,0-1.029,0" transform="translate(-46.742 -29.946)" fill="#edf3f6"/>
            <path id="Trazado_756136" data-name="Trazado 756136" d="M241.729,169.506V305.112a.515.515,0,0,0,1.029,0V169.506a.515.515,0,0,0-1.029,0" transform="translate(-42.832 -29.946)" fill="#edf3f6"/>
            <g id="Grupo_1024055" data-name="Grupo 1024055" transform="translate(187.386 145.792)" opacity="0.3">
              <g id="Grupo_1024054" data-name="Grupo 1024054">
                <g id="Grupo_1024053" data-name="Grupo 1024053" clip-path="url(#clip-path-7)">
                  <path id="Trazado_756137" data-name="Trazado 756137" d="M227.738,177.188l44.454,61.17V259.2l-44.454-56Z" transform="translate(-227.738 -177.188)" fill="#fff"/>
                </g>
              </g>
            </g>
            <g id="Grupo_1024058" data-name="Grupo 1024058" transform="translate(187.386 185.365)" opacity="0.3">
              <g id="Grupo_1024057" data-name="Grupo 1024057">
                <g id="Grupo_1024056" data-name="Grupo 1024056" clip-path="url(#clip-path-8)">
                  <path id="Trazado_756138" data-name="Trazado 756138" d="M272.192,279.995c-.068-.218-44.454-54.713-44.454-54.713v7.437l44.454,55.831Z" transform="translate(-227.738 -225.282)" fill="#fff"/>
                </g>
              </g>
            </g>
            <rect id="Rectángulo_358658" data-name="Rectángulo 358658" width="44.206" height="150.766" transform="translate(306.274 205.612)" fill="#d8e4fd"/>
            <path id="Trazado_756139" data-name="Trazado 756139" d="M416.1,266.236H372.845a.515.515,0,0,0,0,1.029H416.1a.515.515,0,0,0,0-1.029" transform="translate(-65.976 -47.174)" fill="#edf3f6"/>
            <path id="Trazado_756140" data-name="Trazado 756140" d="M416.1,303.573H372.845a.515.515,0,0,0,0,1.029H416.1a.515.515,0,0,0,0-1.029" transform="translate(-65.976 -53.79)" fill="#edf3f6"/>
            <path id="Trazado_756141" data-name="Trazado 756141" d="M416.1,340.909H372.845a.515.515,0,0,0,0,1.029H416.1a.515.515,0,0,0,0-1.029" transform="translate(-65.976 -60.405)" fill="#edf3f6"/>
            <path id="Trazado_756142" data-name="Trazado 756142" d="M416.1,378.246H372.845a.515.515,0,0,0,0,1.029H416.1a.515.515,0,0,0,0-1.029" transform="translate(-65.976 -67.021)" fill="#edf3f6"/>
            <path id="Trazado_756143" data-name="Trazado 756143" d="M408.288,266.754V402.36a.515.515,0,0,0,1.029,0V266.754a.515.515,0,0,0-1.029,0" transform="translate(-72.344 -47.178)" fill="#edf3f6"/>
            <path id="Trazado_756144" data-name="Trazado 756144" d="M386.219,266.754V402.36a.515.515,0,0,0,1.029,0V266.754a.515.515,0,0,0-1.029,0" transform="translate(-68.433 -47.178)" fill="#edf3f6"/>
            <path id="Trazado_756145" data-name="Trazado 756145" d="M592.16,298.9H546.522a3.124,3.124,0,0,1-3.124-3.123V263.139a3.124,3.124,0,0,1,3.124-3.123H592.16a3.123,3.123,0,0,1,3.123,3.123v32.638a3.123,3.123,0,0,1-3.123,3.123" transform="translate(-96.284 -46.072)" fill="#eff4ff"/>
            <path id="Trazado_756146" data-name="Trazado 756146" d="M545.266,262.656l19.423,19.807c1.017,1.037,2.051,2.382,3.527,2.729,2.018.474,3.369-.829,4.671-2.093l11.233-10.913,9.634-9.359c.476-.462-.252-1.189-.727-.727l-19.6,19.041c-.771.749-1.521,1.526-2.316,2.25a2.909,2.909,0,0,1-4.224-.154c-.346-.343-.684-.7-1.025-1.046L555.12,271.237l-9.127-9.308c-.464-.473-1.191.254-.727.727" transform="translate(-96.588 -46.383)" fill="#b8c1ea"/>
            <path id="Trazado_756147" data-name="Trazado 756147" d="M545.088,302.137l17.244-19.079c.443-.49-.282-1.22-.727-.727L544.36,301.409c-.443.49.282,1.219.727.727" transform="translate(-96.43 -49.997)" fill="#b8c1ea"/>
            <path id="Trazado_756148" data-name="Trazado 756148" d="M601.036,300.782c-.592-.8-1.318-1.513-1.985-2.246q-2.04-2.239-4.1-4.46-4.526-4.9-9.072-9.784l-2.057-2.21c-.453-.485-1.178.244-.727.727q7.345,7.884,14.642,15.814c.552.6,1.1,1.208,1.651,1.817.184.2.367.408.546.615.069.08.3.365.214.247.39.526,1.283.013.888-.519" transform="translate(-103.292 -49.953)" fill="#b8c1ea"/>
            <path id="Trazado_756149" data-name="Trazado 756149" d="M541.647,160.575a20.113,20.113,0,0,1,4.911-2.134l.718-3.45a1.8,1.8,0,0,1,1.734-1.436l5.332-.093a1.8,1.8,0,0,1,1.782,1.373l.839,3.422a20.122,20.122,0,0,1,4.982,1.96l2.986-1.957a1.742,1.742,0,0,1,2.166.2L571,162.236a1.743,1.743,0,0,1,.28,2.157l-1.85,3.052a20.1,20.1,0,0,1,2.133,4.911l3.776.786a1.386,1.386,0,0,1,1.1,1.332l.105,6a1.387,1.387,0,0,1-1.056,1.371l-3.746.918a20.116,20.116,0,0,1-1.96,4.981l1.79,2.732a2.123,2.123,0,0,1-.249,2.639l-3.347,3.468a2.124,2.124,0,0,1-2.629.341l-2.793-1.693a20.14,20.14,0,0,1-4.911,2.134l-.763,3.669a1.523,1.523,0,0,1-1.465,1.212l-5.778.1a1.524,1.524,0,0,1-1.507-1.16l-.892-3.64a20.121,20.121,0,0,1-4.982-1.96l-2.956,1.938a1.786,1.786,0,0,1-2.22-.209l-3.856-3.722a1.786,1.786,0,0,1-.286-2.211l1.832-3.022a20.11,20.11,0,0,1-2.134-4.911l-3.841-.8a1.3,1.3,0,0,1-1.038-1.253l-.108-6.129a1.3,1.3,0,0,1,.993-1.289l3.81-.935a20.133,20.133,0,0,1,1.96-4.981l-1.889-2.882a1.9,1.9,0,0,1,.222-2.359l3.6-3.727a1.9,1.9,0,0,1,2.35-.3Zm5.224,10.166a8.812,8.812,0,1,0,10.735-.191,8.817,8.817,0,0,0-10.735.191" transform="translate(-93.495 -27.192)" fill="#45afac"/>
            <path id="Trazado_756150" data-name="Trazado 756150" d="M571.7,122.569a12.181,12.181,0,0,1,2.971-1.291l.434-2.087a1.091,1.091,0,0,1,1.049-.869l3.226-.057a1.092,1.092,0,0,1,1.079.831l.507,2.071a12.17,12.17,0,0,1,3.016,1.186l1.807-1.185a1.055,1.055,0,0,1,1.31.123l2.364,2.282a1.054,1.054,0,0,1,.169,1.3l-1.12,1.847a12.172,12.172,0,0,1,1.291,2.972l2.285.476a.838.838,0,0,1,.667.806l.064,3.629a.84.84,0,0,1-.639.829l-2.267.555a12.2,12.2,0,0,1-1.186,3.015l1.083,1.653a1.286,1.286,0,0,1-.15,1.6l-2.026,2.1a1.286,1.286,0,0,1-1.591.207l-1.689-1.024a12.171,12.171,0,0,1-2.972,1.291l-.462,2.22a.921.921,0,0,1-.886.734l-3.5.062a.921.921,0,0,1-.912-.7l-.54-2.2a12.2,12.2,0,0,1-3.016-1.186l-1.789,1.173a1.081,1.081,0,0,1-1.344-.126l-2.333-2.253a1.08,1.08,0,0,1-.174-1.338l1.109-1.829a12.172,12.172,0,0,1-1.292-2.972l-2.324-.484a.787.787,0,0,1-.628-.758l-.065-3.709a.789.789,0,0,1,.6-.78l2.306-.565a12.163,12.163,0,0,1,1.186-3.015l-1.144-1.744a1.149,1.149,0,0,1,.135-1.428l2.177-2.255a1.147,1.147,0,0,1,1.422-.184Zm3.161,6.152a5.333,5.333,0,1,0,6.5-.115,5.335,5.335,0,0,0-6.5.115" transform="translate(-99.799 -20.955)" fill="#45afac"/>
            <path id="Trazado_756151" data-name="Trazado 756151" d="M388.723,162.977s4.307-9.355,22.234-3.671c4.681,1.484,73.918,23.977,96.067,43.718s35.544,58.26,24.587,94.813-90.57,46.326-90.57,46.326-29.051-.551-32.9-25.589-2.082-40.037-2.082-40.037-30.335-7.7-35.631-18.778-2.889-23.113,12.519-22.631l29.371,16.361,9.63-13.954S389.8,223.06,384.5,221.615s-13.8-18.583-2.624-26.235c8.926-6.109,21,2.426,39.51,8.288q1.213.384,2.483.717c20.223,5.3-17.908-11.315-30.623-21.849-11.152-9.239-4.527-19.56-4.527-19.56" transform="translate(-65.184 -27.903)" fill="#f4b298"/>
            <path id="Trazado_756152" data-name="Trazado 756152" d="M422.077,414.462c1.05-.7,15.224-51.024,15.224-51.024l99.628-30.553-15.437,81.577Z" transform="translate(-74.787 -58.983)" fill="#f4b298"/>
            <path id="Trazado_756153" data-name="Trazado 756153" d="M413.906,82.371l-45.17,178.187a13.3,13.3,0,0,0,9.826,16.207l89.6,21.215a13.3,13.3,0,0,0,15.948-9.65L529.442,110.75A13.3,13.3,0,0,0,519.7,94.54L429.937,72.717a13.3,13.3,0,0,0-16.031,9.653" transform="translate(-65.263 -12.817)" fill="#26244a"/>
            <path id="Trazado_756154" data-name="Trazado 756154" d="M424.617,86.275,380.261,256.358a6.071,6.071,0,0,0,4.476,7.441L472.3,284.53a6.071,6.071,0,0,0,7.271-4.367l43.911-167.245a8.353,8.353,0,0,0-6.106-10.237L431.927,81.908a6.071,6.071,0,0,0-7.31,4.368" transform="translate(-67.343 -14.482)" fill="#eff4ff"/>
            <path id="Trazado_756156" data-name="Trazado 756156" d="M427.107,182.839a12.369,12.369,0,0,0,10.784,1.014c3.825-1.3,7-3.936,9.9-6.667,3.272-3.081,6.375-6.363,10.312-8.614a31.723,31.723,0,0,1,11.382-3.792,38.249,38.249,0,0,1,13.985.725c.387.091.551-.5.165-.595a36.841,36.841,0,0,0-22.612,1.536,33.767,33.767,0,0,0-9.9,6.7c-3.2,2.993-6.216,6.285-10.027,8.533-4.124,2.433-9.468,3.417-13.679.625-.332-.22-.642.314-.312.533" transform="translate(-75.653 -29.029)" fill="#fff"/>
            <path id="Trazado_756157" data-name="Trazado 756157" d="M434.484,205.694a3.431,3.431,0,0,0-2.886,2.34,3.206,3.206,0,0,0,1.1,3.452,3.151,3.151,0,0,0,3.663.283,3.306,3.306,0,0,0,1.605-3.262,3.418,3.418,0,0,0-3-2.813c-.395-.038-.392.579,0,.617a2.79,2.79,0,0,1,2.306,1.923,2.6,2.6,0,0,1-.914,2.787,2.526,2.526,0,0,1-2.947.216,2.675,2.675,0,0,1-1.312-2.643,2.8,2.8,0,0,1,2.391-2.283c.392-.038.4-.656,0-.617" transform="translate(-76.448 -36.446)" fill="#fff"/>
            <path id="Trazado_756158" data-name="Trazado 756158" d="M458.169,244.512A35.972,35.972,0,0,1,496.389,232a.309.309,0,0,0,.164-.595A36.175,36.175,0,0,0,457.636,244.2c-.242.314.294.622.533.312" transform="translate(-81.077 -40.749)" fill="#fff"/>
            <path id="Trazado_756159" data-name="Trazado 756159" d="M549.734,318.606c3.934-20.48-4.529-41.355-21.123-53.986-13.9-10.582-33.466-24.67-39.465-24.971-9.63-.481-17.334,10.112-12.038,25.038s23.593,31.3,23.593,31.3-26.964,17.334-15.889,52.965l43.816,5.778s14.927-8.185,20.705-34.187q.216-.975.4-1.935" transform="translate(-84.232 -42.46)" fill="#f4b298"/>
            <path id="Trazado_756160" data-name="Trazado 756160" d="M481.9,342.909c-.991-13.782,2.894-27.965,11.74-38.713a48.86,48.86,0,0,1,8.579-8.168.521.521,0,0,0,.1-.807,146.567,146.567,0,0,1-17.054-18.562c-4.535-5.89-9.3-12.768-9.313-20.513-.006-6.44,3.587-13.524,10.489-14.606,3.626-.569,7.37.579,10.646,2.055a68.923,68.923,0,0,1,9.512,5.53c12.171,8.019,24.775,16.413,33.167,28.611A35.316,35.316,0,0,1,546.28,293.5a64.235,64.235,0,0,1,.251,17.888c-1.333,11.738-5.01,24-11.968,33.675q-1.107,1.539-2.36,2.962c-.436.5.289,1.225.727.727a52.736,52.736,0,0,0,8.712-14.479,82.6,82.6,0,0,0,5.329-18.656c1.9-11.56,1.948-24.656-4.173-35.043-7.8-13.229-20.583-22.329-33.135-30.658-6.1-4.047-12.731-8.988-20.3-9.508-6.868-.471-12.108,4.374-13.8,10.778-1.943,7.344,1.021,14.635,5.022,20.727A126.055,126.055,0,0,0,496.942,291.5q2.276,2.276,4.651,4.45.052-.4.1-.808c-11.436,8.5-18.582,21.586-20.467,35.629a59.243,59.243,0,0,0-.363,12.141c.047.657,1.076.662,1.029,0" transform="translate(-84.155 -42.592)" fill="#ed796a"/>
            <path id="Trazado_756161" data-name="Trazado 756161" d="M451.943,127.849l42.878,11.468,12.308,3.291a.515.515,0,0,0,.273-.991l-42.877-11.468-12.308-3.291a.515.515,0,0,0-.273.991" transform="translate(-80.014 -22.474)" fill="#26244a"/>
            <path id="Trazado_756163" data-name="Trazado 756163" d="M448.664,298.24a4.813,4.813,0,1,1-4.813-4.813,4.813,4.813,0,0,1,4.813,4.813" transform="translate(-77.792 -51.992)" fill="#dcdbef"/>
            <path id="Trazado_756164" data-name="Trazado 756164" d="M423.883,292.734a4.813,4.813,0,1,1-4.813-4.813,4.813,4.813,0,0,1,4.813,4.813" transform="translate(-73.402 -51.016)" fill="#dcdbef"/>
            <path id="Trazado_756165" data-name="Trazado 756165" d="M471.156,304.09a4.813,4.813,0,1,1-4.813-4.813,4.813,4.813,0,0,1,4.813,4.813" transform="translate(-81.778 -53.028)" fill="#dcdbef"/>
            <path id="Trazado_756166" data-name="Trazado 756166" d="M426.244,219.7a54.049,54.049,0,0,0,28.442,2.621,64.779,64.779,0,0,0,13.883-4.4c4.687-1.982,9.37-4.146,14.385-5.164,5.214-1.059,10.837-.882,15.51,1.895a.309.309,0,0,0,.311-.533c-8.291-4.927-18.216-1.909-26.429,1.532-4.739,1.985-9.416,4.116-14.423,5.352a53.236,53.236,0,0,1-31.516-1.9c-.372-.141-.532.456-.164.595" transform="translate(-75.488 -37.482)" fill="#fff"/>
            <path id="Trazado_756167" data-name="Trazado 756167" d="M495.408,170.083,482.044,173.9c-2.047.586-4.161,1.069-6.157,1.81a5.659,5.659,0,0,0-3.424,2.8c-1.422,3.171,1.971,5.014,4.7,4.486a59.108,59.108,0,0,0,5.8-1.962,42.546,42.546,0,0,1,21.143-.941c.388.081.553-.514.164-.595a43.48,43.48,0,0,0-21.826,1.052c-1.711.538-3.36,1.369-5.107,1.777-1.73.4-4.538.015-4.591-2.3-.051-2.187,2.127-3.351,3.912-3.926,1.828-.59,3.7-1.071,5.543-1.6l13.364-3.822a.309.309,0,0,0-.164-.595" transform="translate(-83.655 -30.134)" fill="#fff"/>
            <path id="Trazado_756168" data-name="Trazado 756168" d="M410.379,136.045h0a4.844,4.844,0,0,1-3.442-5.9l5.2-20.081a4.844,4.844,0,0,1,6.352-3.336l1.029.376Z" transform="translate(-72.077 -18.859)" fill="#26244a"/>
            <path id="Trazado_756169" data-name="Trazado 756169" d="M387.052,230.553h0a4.845,4.845,0,0,1-3.442-5.9l5.2-20.081a4.846,4.846,0,0,1,6.352-3.337l1.029.376Z" transform="translate(-67.944 -35.605)" fill="#26244a"/>
            <path id="Trazado_756170" data-name="Trazado 756170" d="M461.139,342.417c2.96-1.014,6.508-.506,9.511.035a26.8,26.8,0,0,1,9.058,2.953.515.515,0,0,0,.518-.889,27.835,27.835,0,0,0-9.561-3.1c-3.113-.54-6.737-1.038-9.8.012-.623.213-.355,1.207.273.991" transform="translate(-81.597 -60.388)" fill="#ed796a"/>
            <path id="Trazado_756171" data-name="Trazado 756171" d="M505.879,306.9a28.475,28.475,0,0,0,13.27,10.084c.622.229.89-.764.273-.991a27.273,27.273,0,0,1-12.656-9.612c-.383-.532-1.275-.02-.888.519" transform="translate(-89.619 -54.248)" fill="#ed796a"/>
            <path id="Trazado_756172" data-name="Trazado 756172" d="M380.819,55.737H262.749a5.635,5.635,0,0,1-5.635-5.635V6.635A5.636,5.636,0,0,1,262.749,1H380.819a5.636,5.636,0,0,1,5.635,5.635V50.1a5.635,5.635,0,0,1-5.635,5.635" transform="translate(-45.558 -0.177)" fill="#d8e4fd"/>
            <rect id="Rectángulo_358659" data-name="Rectángulo 358659" width="129.34" height="54.737" rx="6.849" transform="translate(211.556 0.823)" fill="none" stroke="#fff" stroke-miterlimit="10" stroke-width="2"/>
            <path id="Trazado_756173" data-name="Trazado 756173" d="M386.347,24.671h-46.6a1.591,1.591,0,0,1-1.591-1.591V21.411a1.592,1.592,0,0,1,1.591-1.592h46.6a1.592,1.592,0,0,1,1.591,1.592V23.08a1.591,1.591,0,0,1-1.591,1.591" transform="translate(-59.917 -3.512)" fill="#91b3fa"/>
            <path id="Trazado_756174" data-name="Trazado 756174" d="M386.347,36.127h-46.6a1.591,1.591,0,0,1-1.591-1.591V32.867a1.592,1.592,0,0,1,1.591-1.592h46.6a1.592,1.592,0,0,1,1.591,1.592v1.669a1.591,1.591,0,0,1-1.591,1.591" transform="translate(-59.917 -5.542)" fill="#91b3fa"/>
            <path id="Trazado_756175" data-name="Trazado 756175" d="M366.5,48.487H339.746a1.591,1.591,0,0,1-1.591-1.591V45.226a1.591,1.591,0,0,1,1.591-1.591H366.5a1.591,1.591,0,0,1,1.591,1.591V46.9a1.591,1.591,0,0,1-1.591,1.591" transform="translate(-59.917 -7.732)" fill="#91b3fa"/>
            <rect id="Rectángulo_358661" data-name="Rectángulo 358661" width="7.861" height="7.861" transform="translate(229.236 16.307)" fill="#edeff7"/>
            <path id="Trazado_756176" data-name="Trazado 756176" d="M297.36,20.252V47.92a.515.515,0,0,0,1.029,0V20.252a.515.515,0,0,0-1.029,0" transform="translate(-52.689 -3.5)" fill="#26244a"/>
            <rect id="Rectángulo_358663" data-name="Rectángulo 358663" width="68.378" height="48.067" transform="translate(19.231 306.6)" fill="#b28f42"/>
            <rect id="Rectángulo_358664" data-name="Rectángulo 358664" width="7.812" height="48.067" transform="translate(68.574 306.6)" fill="#846323"/>
            <rect id="Rectángulo_358665" data-name="Rectángulo 358665" width="13.15" height="16.54" transform="translate(29.855 306.599)" fill="#846323"/>
            <path id="Trazado_756181" data-name="Trazado 756181" d="M68.085,372.518v48.067a.515.515,0,0,0,1.029,0V372.518a.515.515,0,0,0-1.029,0" transform="translate(-12.064 -65.918)" fill="#26244a"/>
            <rect id="Rectángulo_358666" data-name="Rectángulo 358666" width="87.894" height="61.787" transform="translate(91.708 275.707)" fill="#748fc8"/>
            <rect id="Rectángulo_358667" data-name="Rectángulo 358667" width="10.042" height="61.787" transform="translate(155.134 275.707)" fill="#eff4ff"/>
            <rect id="Rectángulo_358668" data-name="Rectángulo 358668" width="16.904" height="21.261" transform="translate(105.364 275.706)" fill="#eff4ff"/>
            <path id="Trazado_756182" data-name="Trazado 756182" d="M169.109,334.971v61.787a.515.515,0,0,0,1.029,0V334.971a.515.515,0,0,0-1.029,0" transform="translate(-29.964 -59.265)" fill="#26244a"/>
            <rect id="Rectángulo_358669" data-name="Rectángulo 358669" width="61.067" height="42.928" transform="translate(428.074 311.74)" fill="#b28f42"/>
            <rect id="Rectángulo_358670" data-name="Rectángulo 358670" width="6.977" height="42.928" transform="translate(472.141 311.74)" fill="#846323"/>
            <rect id="Rectángulo_358671" data-name="Rectángulo 358671" width="11.744" height="14.771" transform="translate(437.563 311.74)" fill="#846323"/>
            <path id="Trazado_756183" data-name="Trazado 756183" d="M560.123,378.764v42.928a.515.515,0,0,0,1.029,0V378.764a.515.515,0,0,0-1.029,0" transform="translate(-99.247 -67.024)" fill="#26244a"/>
            <rect id="Rectángulo_358672" data-name="Rectángulo 358672" width="110.676" height="17.699" transform="translate(78.199 337.039)" fill="#4a4ac6"/>
            <rect id="Rectángulo_358673" data-name="Rectángulo 358673" width="10.042" height="17.699" transform="translate(157.644 337.039)" fill="#eff4ff"/>
            <rect id="Rectángulo_358674" data-name="Rectángulo 358674" width="12.653" height="9.808" transform="translate(95.168 337.04)" fill="#eff4ff"/>
            <path id="Trazado_756184" data-name="Trazado 756184" d="M152.693,409.512v17.7a.515.515,0,0,0,1.029,0v-17.7a.515.515,0,0,0-1.029,0" transform="translate(-27.055 -72.473)" fill="#26244a"/>
            <rect id="Rectángulo_358675" data-name="Rectángulo 358675" width="110.676" height="17.699" transform="translate(312.667 337.039)" fill="#748fc8"/>
            <rect id="Rectángulo_358676" data-name="Rectángulo 358676" width="10.042" height="17.699" transform="translate(392.111 337.039)" fill="#eff4ff"/>
            <rect id="Rectángulo_358677" data-name="Rectángulo 358677" width="12.653" height="9.808" transform="translate(329.635 337.04)" fill="#eff4ff"/>
            <path id="Trazado_756185" data-name="Trazado 756185" d="M437.651,409.512v17.7a.515.515,0,0,0,1.029,0v-17.7a.515.515,0,0,0-1.029,0" transform="translate(-77.547 -72.473)" fill="#26244a"/>
          </g>
        </g>
        <g id="Grupo_1024064" data-name="Grupo 1024064">
          <g id="Grupo_1024063" data-name="Grupo 1024063" clip-path="url(#clip-path)">
            <path id="Trazado_756197" data-name="Trazado 756197" d="M167.365,171.653a24.417,24.417,0,0,0,16.5,21.918,55.429,55.429,0,0,1-.915-27.04" transform="translate(-29.655 -29.507)" fill="#dcdbef"/>
            <path id="Trazado_756199" data-name="Trazado 756199" d="M104.626,284.883H9.987a5.636,5.636,0,0,1-5.635-5.635V245.7a5.636,5.636,0,0,1,5.635-5.635h94.638a5.635,5.635,0,0,1,5.635,5.635v33.549a5.635,5.635,0,0,1-5.635,5.635" transform="translate(-0.771 -42.536)" fill="#eff4ff"/>
            <path id="Trazado_756200" data-name="Trazado 756200" d="M47.722,275.546a6.7,6.7,0,1,1-6.7-6.7,6.7,6.7,0,0,1,6.7,6.7" transform="translate(-6.08 -47.636)" fill="#98433a"/>
            <path id="Trazado_756202" data-name="Trazado 756202" d="M21.775,241.43a6,6,0,0,0,.006,5.783c1.142,2.115,3.281,2.849,5.531,3.2,2.58.4,5.731.643,6.713,3.54a5.767,5.767,0,0,1-3.221,6.936c-3.443,1.7-7.339.577-10.527-1.154-.349-.189-.662.343-.312.533,2.62,1.422,5.61,2.462,8.626,1.965a7.574,7.574,0,0,0,5.843-4.177,5.7,5.7,0,0,0-1.246-6.439c-2.011-1.734-4.874-1.484-7.3-2.108a5.3,5.3,0,0,1-3.579-7.762.309.309,0,0,0-.533-.312" transform="translate(-3.51 -42.752)" fill="#fff"/>
            <path id="Trazado_756203" data-name="Trazado 756203" d="M48.34,256.252a3.533,3.533,0,0,0-2.323,2.332,2.863,2.863,0,0,0,.95,3,2.465,2.465,0,0,0,3-.006,2.793,2.793,0,0,0,.792-2.836,4.287,4.287,0,0,0-2.587-2.64.319.319,0,0,0-.422.11.31.31,0,0,0,.11.422,4.105,4.105,0,0,1,2.106,1.769,2.344,2.344,0,0,1-.08,2.352,1.753,1.753,0,0,1-2.238.523,2.15,2.15,0,0,1-1.1-2.238,2.839,2.839,0,0,1,1.953-2.2c.374-.128.214-.724-.164-.595" transform="translate(-8.136 -45.373)" fill="#fff"/>
            <path id="Trazado_756204" data-name="Trazado 756204" d="M32.581,235.074a8.011,8.011,0,0,0,4.433,6.832,10.932,10.932,0,0,0,9.426-.157c.361-.164.048-.7-.311-.532a10.277,10.277,0,0,1-8.8.157,7.4,7.4,0,0,1-4.128-6.3.309.309,0,0,0-.617,0" transform="translate(-5.773 -41.599)" fill="#fff"/>
            <path id="Trazado_756205" data-name="Trazado 756205" d="M21.643,276.08a16.044,16.044,0,0,1,15.206.807c.339.209.649-.325.312-.533a16.686,16.686,0,0,0-15.829-.807c-.357.172-.044.7.312.533" transform="translate(-3.752 -48.537)" fill="#fff"/>
            <path id="Trazado_756206" data-name="Trazado 756206" d="M20.032,281.637c12.1-3.19,24.189-6.559,35.946-10.869.616-.226.35-1.22-.274-.992-11.756,4.31-23.845,7.678-35.945,10.869a.515.515,0,0,0,.273.991" transform="translate(-3.436 -47.795)" fill="#26244a"/>
            <path id="Trazado_756207" data-name="Trazado 756207" d="M109.885,259.445H72.3a1.591,1.591,0,0,1-1.591-1.591v-.79a1.592,1.592,0,0,1,1.591-1.592h37.582a1.592,1.592,0,0,1,1.591,1.592v.79a1.591,1.591,0,0,1-1.591,1.591" transform="translate(-12.529 -45.267)" fill="#dcdbef"/>
            <path id="Trazado_756208" data-name="Trazado 756208" d="M109.885,268.827H72.3a1.591,1.591,0,0,1-1.591-1.591v-.79a1.591,1.591,0,0,1,1.591-1.591h37.582a1.591,1.591,0,0,1,1.591,1.591v.79a1.591,1.591,0,0,1-1.591,1.591" transform="translate(-12.529 -46.929)" fill="#dcdbef"/>
            <path id="Trazado_756209" data-name="Trazado 756209" d="M93.635,278.947H72.3a1.591,1.591,0,0,1-1.591-1.591v-.79a1.592,1.592,0,0,1,1.591-1.592H93.635a1.592,1.592,0,0,1,1.591,1.592v.79a1.591,1.591,0,0,1-1.591,1.591" transform="translate(-12.529 -48.722)" fill="#dcdbef"/>
            <path id="Trazado_756210" data-name="Trazado 756210" d="M.5,431.533H493.9a.515.515,0,0,0,0-1.029H.5a.515.515,0,0,0,0,1.029" transform="translate(0 -76.28)" fill="#26244a"/>
            <path id="Trazado_756211" data-name="Trazado 756211" d="M280.107,195.1c-.075.889-2.582,30.805-2.582,30.805l37.347,3.13,3.778-45.076Z" transform="translate(-49.174 -32.596)" fill="#d18d7a"/>
            <path id="Trazado_756212" data-name="Trazado 756212" d="M273.491,191.353s-22.382-5.408-20.3-30.593a279.648,279.648,0,0,1,4.6-33.6c3.284-17.067,16.809-23.095,35.206-21.174l1.828.191c19.6,3.139,31.1,14.872,27.465,33.169l-3.7,17.61s-1.636,38.99-45.079,34.425" transform="translate(-44.838 -18.719)" fill="#d18d7a"/>
            <path id="Trazado_756213" data-name="Trazado 756213" d="M265.816,156.366a2.694,2.694,0,0,0,2.327,2.96,2.589,2.589,0,0,0,3.04-2.111,2.7,2.7,0,0,0-2.324-2.962,2.592,2.592,0,0,0-3.044,2.113" transform="translate(-47.095 -27.326)" fill="#26244a"/>
            <path id="Trazado_756214" data-name="Trazado 756214" d="M296.559,159.493a2.7,2.7,0,0,0,2.327,2.96,2.59,2.59,0,0,0,3.041-2.111,2.7,2.7,0,0,0-2.324-2.962,2.592,2.592,0,0,0-3.044,2.114" transform="translate(-52.542 -27.879)" fill="#26244a"/>
            <path id="Trazado_756215" data-name="Trazado 756215" d="M306.324,150.445a9.493,9.493,0,0,0-9.578-1.235.723.723,0,0,0-.258.985.739.739,0,0,0,.985.258,7.982,7.982,0,0,1,7.833,1.01.743.743,0,0,0,1.018,0,.724.724,0,0,0,0-1.018" transform="translate(-52.518 -26.302)" fill="#26244a"/>
            <path id="Trazado_756216" data-name="Trazado 756216" d="M272.407,146.262a9.493,9.493,0,0,0-9.578-1.235.723.723,0,0,0-.258.985.739.739,0,0,0,.985.258,7.982,7.982,0,0,1,7.833,1.01.743.743,0,0,0,1.018,0,.724.724,0,0,0,0-1.018" transform="translate(-46.508 -25.561)" fill="#26244a"/>
            <path id="Trazado_756217" data-name="Trazado 756217" d="M272.455,136.95a20.458,20.458,0,0,0-7.167-.627" transform="translate(-47.006 -24.14)" fill="none" stroke="#26244a" stroke-linecap="round" stroke-linejoin="round" stroke-width="3"/>
            <path id="Trazado_756218" data-name="Trazado 756218" d="M306.993,141.229a20.438,20.438,0,0,0-7.167-.627" transform="translate(-53.126 -24.898)" fill="none" stroke="#26244a" stroke-linecap="round" stroke-linejoin="round" stroke-width="3"/>
            <path id="Trazado_756219" data-name="Trazado 756219" d="M336.006,164.5c-2.91-1.695-6.583-1.251-9.67.115l-2.527,15.762a11.037,11.037,0,0,0,9.842,1.173,10.38,10.38,0,0,0,6.388-7.871,9.16,9.16,0,0,0-4.033-9.179" transform="translate(-57.375 -28.952)" fill="#d18d7a"/>
            <path id="Trazado_756220" data-name="Trazado 756220" d="M329.656,174.484a4.807,4.807,0,0,1,2.562-2.608,4.331,4.331,0,0,1,4.182.246c.677.42,1.3-.648.623-1.066a5.6,5.6,0,0,0-5.329-.291,5.993,5.993,0,0,0-3.227,3.391c-.255.755.936,1.078,1.19.328" transform="translate(-58.194 -30.162)" fill="#822c29"/>
            <path id="Trazado_756221" data-name="Trazado 756221" d="M279.369,209.3a24.768,24.768,0,0,0,19.743-4.549c.623-.476.008-1.549-.623-1.066a23.579,23.579,0,0,1-18.792,4.426c-.776-.154-1.108,1.036-.328,1.19" transform="translate(-49.422 -36.069)" fill="#822c29"/>
            <path id="Trazado_756222" data-name="Trazado 756222" d="M280.069,155.507l-1.528,5.568a19.977,19.977,0,0,1-.741,2.691c-.3.672-1.216.275-1.8.234-1.289-.091-2.531.721-2.182,2.152a7.616,7.616,0,0,0,1.2,2.162l1.631,2.519c.5.776,1.749.054,1.243-.727l-1.4-2.16q-.389-.6-.777-1.2c-.16-.248-.531-.682-.51-.987.039-.572,1.08-.272,1.467-.223a2.061,2.061,0,0,0,2.635-1.852q.346-1.251.687-2.505l1.451-5.29a.72.72,0,0,0-1.388-.383" transform="translate(-48.507 -27.464)" fill="#26244a"/>
            <path id="Trazado_756223" data-name="Trazado 756223" d="M264.674,120.181c9.2,6.369,17.7,2.307,22.876-.6,2.663-1.5,5.676-1.632,8.719-1.437l-22.434-14.912s-13.4,14.009-9.16,16.946" transform="translate(-46.75 -18.292)" fill="#26244a"/>
            <path id="Trazado_756224" data-name="Trazado 756224" d="M318.267,131.483a16.124,16.124,0,0,1,1.242,6.2c.056,8.147-2.671,19.146-2.213,23.7.116,1.156-.131,4.614,3.852,4.948,0,0,1.365,1.051,3.067-2.495s3.849-7.253,11.618-4.3l3.653-13.953Z" transform="translate(-56.212 -23.297)" fill="#26244a"/>
            <path id="Trazado_756225" data-name="Trazado 756225" d="M303.887,121.4c-.212-.016-.424-.027-.636-.04l12.536,8.332a13.58,13.58,0,0,0-11.9-8.291" transform="translate(-53.733 -21.503)" fill="#26244a"/>
            <path id="Trazado_756226" data-name="Trazado 756226" d="M281.2,182.212a8.007,8.007,0,0,0,9.782-5.686.617.617,0,0,0-1.19-.327,6.857,6.857,0,0,1-8.264,4.823.617.617,0,0,0-.328,1.19" transform="translate(-49.748 -31.143)" fill="#822c29"/>
            <path id="Trazado_756227" data-name="Trazado 756227" d="M325.357,96.039a6.923,6.923,0,0,0-5.779-2.443,10.243,10.243,0,0,0-5.9,2.5l12.013,6.026a5.26,5.26,0,0,0-.331-6.079" transform="translate(-55.579 -16.582)" fill="#26244a"/>
            <path id="Trazado_756228" data-name="Trazado 756228" d="M323.116,103a44.864,44.864,0,0,0-28.1-10.04c-9.869.171-19.329,3.517-25.377,11.316L331.1,138.429c5.157-12.179,1.073-27.738-7.98-35.431" transform="translate(-47.778 -16.47)" fill="#fe7062"/>
            <path id="Trazado_756229" data-name="Trazado 756229" d="M256.009,124.6s-23.462-11.985-11.038-23.325,59.97,20.574,81.417,37.928l-.672,1.156s-23.176-14.453-37.568-20.906c-22.018-9.873-32.139,5.148-32.139,5.148" transform="translate(-42.763 -17.523)" fill="#4a4ac6"/>
            <path id="Trazado_756230" data-name="Trazado 756230" d="M237.178,234.188l-7.219.578c-8.553,1.389-13.933,4.462-21.294,13.454-6.329,7.731-35.729,54.893-35.729,54.893l35.836,11.792c4,3.258,8.313,3.67,11.178,4.073l3.877-10.152,40.68-77.744Z" transform="translate(-30.642 -40.945)" fill="#fe7062"/>
            <path id="Trazado_756231" data-name="Trazado 756231" d="M366.656,247.4c-7.664-9.87-18.306-13.88-27.211-15.4l-.01-.145-30.924-3.265c-8.009,5.5-21.112,9.735-38.257,0,0,0-21.408,3.67-34.242,6.868l-1.226,80.692c-.288,10.5-.16,22.146-.16,22.146l-.607,56.953h117.34V325l-.49-11.073,4.037,11.145c3.18,0,4.813,0,8.979-3.578l39.973-13.838s-30.612-51.775-37.2-60.263" transform="translate(-41.465 -40.502)" fill="#fe7062"/>
            <path id="Trazado_756232" data-name="Trazado 756232" d="M234.419,402.964q.1-6.5.2-13,.238-15.605.477-31.21.288-18.76.574-37.52l.5-32.59q.081-5.316.162-10.63c.026-1.7.144-3.421.078-5.118,0-.075,0-.151,0-.225a.515.515,0,0,0-1.029,0q-.1,6.5-.2,13l-.477,31.21q-.288,18.76-.574,37.52-.249,16.294-.5,32.59l-.163,10.63c-.025,1.7-.143,3.421-.078,5.118,0,.074,0,.15,0,.225a.515.515,0,0,0,1.029,0" transform="translate(-41.351 -48.226)" fill="#26244a"/>
            <path id="Trazado_756233" data-name="Trazado 756233" d="M375.83,349.53q.049-3.68.1-7.362.117-8.838.235-17.676l.282-21.275q.122-9.244.245-18.489.04-3.037.08-6.074a22.409,22.409,0,0,0,.039-2.916,1.1,1.1,0,0,1,0-.127.515.515,0,0,0-1.029,0q-.049,3.68-.1,7.362-.117,8.838-.234,17.676l-.282,21.275q-.122,9.244-.245,18.489-.041,3.037-.081,6.074a22.71,22.71,0,0,0-.039,2.916.929.929,0,0,1,0,.127.515.515,0,0,0,1.029,0" transform="translate(-66.403 -48.747)" fill="#26244a"/>
            <path id="Trazado_756234" data-name="Trazado 756234" d="M431.063,322.723c-2.737-3.813-8.154-4.946-12.7-3.764s-7.948,4.719-11.717,7.516c-5.969,4.429-12.243,9.047-16.113,11.7l36.551-1.519c6.246-1.883,6.713-10.12,3.976-13.933" transform="translate(-69.198 -56.437)" fill="#4a4ac6"/>
            <path id="Trazado_756235" data-name="Trazado 756235" d="M338.16,279.69a5.342,5.342,0,1,1-5.343-5.343,5.343,5.343,0,0,1,5.343,5.343" transform="translate(-58.025 -48.611)" fill="#4a4ac6"/>
            <path id="Trazado_756236" data-name="Trazado 756236" d="M173.833,307.864c3.327-3.309,8.858-3.534,13.144-1.618s6.758,6.215,10.014,9.595c5.157,5.352,9.014,12.074,14.528,15.3l-36.062-8.878c-5.85-2.889-4.953-11.088-1.624-14.4" transform="translate(-30.334 -54.048)" fill="#4a4ac6"/>
            <path id="Trazado_756237" data-name="Trazado 756237" d="M332.292,357.439l-19.357-3.889-48.459,13.134c-.614,2.074-1.455,6.66,2.287,8.91a18.039,18.039,0,0,0,5.56,2.125,212.667,212.667,0,0,0,29.621,4.4c10.31.781,20.658,2.1,32.885,1.046-.964-7.33-2.61-18.318-2.537-25.725" transform="translate(-46.767 -62.645)" fill="#d18d7a"/>
            <path id="Trazado_756238" data-name="Trazado 756238" d="M411.731,321.691l-1.649-2.888c-3.758.761-6.389,2.64-9.246,5.034l-19.519,14.39,2.454,6.376-45.258,8,2.92,24.73s55.464-2.714,61.591-3.722c21.652-3.562,22.695-29.479,8.706-51.924" transform="translate(-59.981 -56.488)" fill="#d18d7a"/>
            <path id="Trazado_756239" data-name="Trazado 756239" d="M393.315,350.269a21.364,21.364,0,0,1,19.218,10.692.515.515,0,0,0,.889-.519,22.4,22.4,0,0,0-20.107-11.2c-.66.027-.663,1.056,0,1.028" transform="translate(-69.603 -61.878)" fill="#822c29"/>
            <path id="Trazado_756240" data-name="Trazado 756240" d="M249.495,327.546c5.873-.031,12.219-1.952,15.975-6.724,4.276-5.432,3.473-13.043,7.413-18.675a22.521,22.521,0,0,1,8.592-6.995c.355-.178.044-.71-.311-.533a24.607,24.607,0,0,0-7.278,5.3,19.79,19.79,0,0,0-4.28,7.839c-.989,3.337-1.465,6.864-2.979,10.029a14.9,14.9,0,0,1-6.658,6.731,22.879,22.879,0,0,1-10.474,2.414.309.309,0,0,0,0,.617" transform="translate(-44.155 -52.197)" fill="#846323"/>
            <path id="Trazado_756241" data-name="Trazado 756241" d="M249.666,345.838c14.45-.666,25.575-11.152,33.672-22.208,4.2-5.738,7.608-12.861,14.271-16.13a32.534,32.534,0,0,1,10.553-2.757,57.328,57.328,0,0,1,9.79-.352c7.475.4,15.012,2.568,20.647,7.691.293.267.731-.169.436-.436a31.625,31.625,0,0,0-17.2-7.5,51.361,51.361,0,0,0-20,1.146,21.512,21.512,0,0,0-8.817,4.557,41.633,41.633,0,0,0-6.424,8.051c-4.218,6.26-8.745,12.4-14.441,17.4-6.253,5.5-14.052,9.534-22.485,9.922-.4.018-.4.635,0,.617" transform="translate(-44.185 -53.804)" fill="#846323"/>
            <path id="Trazado_756242" data-name="Trazado 756242" d="M350.916,332.419c-.09,3.628-4.384,4.089-7.094,3.5a61.775,61.775,0,0,1-8.649-2.956c-4.915-1.856-11.184-3.8-16.2-1.152-1.767.935-3.382,2.653-3.156,4.791.216,2.055,2.013,3.472,3.741,4.325,5.237,2.587,11.439,2.645,17.043,3.954,6,1.4,12.489,4.613,14,11.152.09.387.685.223.595-.164-1.113-4.809-5.1-8.21-9.5-10.039-5.477-2.275-11.5-2.455-17.2-3.875-2.55-.634-5.823-1.458-7.425-3.755-1.913-2.743.7-5.4,3.234-6.308,5.858-2.111,12.135.7,17.569,2.765,2.816,1.069,6.071,2.473,9.155,2.1,2.277-.277,4.439-1.9,4.5-4.341a.309.309,0,0,0-.617,0" transform="translate(-55.956 -58.564)" fill="#846323"/>
            <path id="Trazado_756243" data-name="Trazado 756243" d="M267.323,368.514c9,2.083,17.213-3.281,24.749-7.386,4.1-2.235,8.449-4.316,13.157-4.782a20.963,20.963,0,0,1,11.333,2.166,21.261,21.261,0,0,1,9.341,9.014c.186.351.718.04.532-.311a22.229,22.229,0,0,0-18.209-11.551c-9.137-.488-16.667,5.46-24.455,9.275-5.022,2.46-10.674,4.28-16.284,2.981-.386-.09-.551.505-.164.595" transform="translate(-47.327 -63.014)" fill="#846323"/>
            <rect id="Rectángulo_358681" data-name="Rectángulo 358681" width="17.391" height="21.874" transform="translate(219.237 241.95)" fill="#846323"/>
            <path id="Trazado_756244" data-name="Trazado 756244" d="M308.706,293.946v63.568a.515.515,0,0,0,1.029,0V293.946a.515.515,0,0,0-1.029,0" transform="translate(-54.699 -51.996)" fill="#26244a"/>
            <path id="Trazado_756245" data-name="Trazado 756245" d="M305.343,380.513c-4.69,0-20.981-1.368-22.678-2.245a7.233,7.233,0,0,1-3.7-4.169,4.882,4.882,0,0,1,1.471-5.185,5.814,5.814,0,0,1,3.936-.991,31.739,31.739,0,0,1,4.079.738,25.205,25.205,0,0,0,12.646-.768c3.852-1.26,7.475-3.47,11.52-3.722A12.252,12.252,0,0,1,325.582,375.3" transform="translate(-49.391 -64.522)" fill="#d18d7a"/>
            <path id="Trazado_756246" data-name="Trazado 756246" d="M305.236,379.887c-3.869-.009-7.755-.372-11.606-.716-2.174-.194-4.347-.41-6.513-.683a21.718,21.718,0,0,1-4.062-.694,5.827,5.827,0,0,1-3.776-6.372c.983-4.165,5.713-3.03,8.74-2.417a25.948,25.948,0,0,0,10.19.03c3.372-.668,6.4-2.224,9.606-3.378,3.749-1.347,7.673-1.589,11.245.423a11.884,11.884,0,0,1,5.9,9.111c.067.652,1.1.658,1.029,0a12.922,12.922,0,0,0-13.84-11.621c-3.711.336-7.006,2.174-10.455,3.42a24.9,24.9,0,0,1-12.1,1.255c-3.149-.471-7.1-2.108-9.848.375-2.241,2.025-1.948,5.506-.206,7.725a7.141,7.141,0,0,0,4.477,2.715c1.991.365,4.013.578,6.025.791a149.28,149.28,0,0,0,15.2,1.064.515.515,0,0,0,0-1.029" transform="translate(-49.284 -64.411)" fill="#822c29"/>
            <path id="Trazado_756247" data-name="Trazado 756247" d="M211.61,327.322c-7.572,12.889-20.658,32.956-27.019,35.9-28.913,13.4-40.976-9.216-39.528-31.111.41-6.2,6.206-50.382,6.206-50.382l26.109.378L176.2,316.757l6.932-14.244s2.684,1.257,7.077,5.984c2.791,3,8.912,11.558,12.515,14.544a20.494,20.494,0,0,0,8.881,4.279" transform="translate(-25.683 -49.92)" fill="#d18d7a"/>
            <path id="Trazado_756248" data-name="Trazado 756248" d="M190.837,242.369c-1.239-1.423-3.589-2.005-5.051-.812-1.747,1.426-1.282,4.218-2.271,6.244a7.124,7.124,0,0,1-4.384,3.283c-.5.164-1.015.3-1.53.431-4.428-1.573-4.112-5.355-4.324-7.878s1.5-5.291,4.021-5.555c1.855-.194,5.119,2.074,6.954,1.741,2.73-.5,3.3-4.491,1.826-6.843s-5.259-4.393-9.331-3.7c-2.736.465-3.991,2.16-6.247,3.776a29.831,29.831,0,0,0,3.061-11.833c.094-2.048-.421-4.627-2.412-5.116-2.248-.554-3.888,2.043-4.738,4.2q-2.738,6.938-5.477,13.876c-.389-3.748.548-7.782.158-11.531a3.618,3.618,0,0,0-3.193-3.31c-1.977-.149-3.327,1.7-3.858,3.608a65.3,65.3,0,0,0-1.713,11.9,41.218,41.218,0,0,1-1.226-5.124c-.16-1.523-1.04-3.3-2.572-3.3-1.939,0-2.552,2.594-2.556,4.532q-.02,10.2-.04,20.408c-.009,4.652.632,7.437,1.166,12.06.328,2.844,2.756,8.713,4.018,9.974,0,0-.214,6.664-.791,10.562l27.885-14.393a23.308,23.308,0,0,0,14.289-21.9,8.425,8.425,0,0,0-1.665-5.294" transform="translate(-25.858 -38.278)" fill="#d18d7a"/>
            <path id="Trazado_756249" data-name="Trazado 756249" d="M170.4,267.555A20.124,20.124,0,0,0,158.968,256c-.616-.241-.884.753-.273.991a19,19,0,0,1,10.718,10.839c.232.613,1.227.347.992-.273" transform="translate(-28.058 -45.353)" fill="#822c29"/>
            <path id="Trazado_756250" data-name="Trazado 756250" d="M170.237,245.288a51.186,51.186,0,0,0-19.336,4.544c-.6.273-.08,1.159.519.889a49.859,49.859,0,0,1,18.817-4.4c.66-.023.663-1.052,0-1.029" transform="translate(-26.691 -43.462)" fill="#822c29"/>
            <path id="Trazado_756251" data-name="Trazado 756251" d="M153.109,237.371q.45,4.59.9,9.179c.064.652,1.094.659,1.029,0q-.449-4.59-.9-9.179c-.064-.652-1.094-.659-1.029,0" transform="translate(-27.129 -41.972)" fill="#822c29"/>
            <path id="Trazado_756252" data-name="Trazado 756252" d="M175.525,264.171c.339-4.015,5.156-5.031,8.22-6.135,2.97-1.07,6.355-3.225,6.031-6.852-.058-.653-1.087-.66-1.029,0,.374,4.186-4.484,5.584-7.576,6.633-3.029,1.026-6.374,2.781-6.675,6.354-.056.66.973.656,1.029,0" transform="translate(-30.918 -44.42)" fill="#822c29"/>
            <path id="Trazado_756253" data-name="Trazado 756253" d="M164.223,244.649q.263-4.627.525-9.254c.038-.662-.991-.659-1.029,0q-.263,4.627-.525,9.254c-.038.662.991.659,1.029,0" transform="translate(-28.916 -41.621)" fill="#822c29"/>
            <path id="Trazado_756254" data-name="Trazado 756254" d="M173.352,243.371a10.5,10.5,0,0,1,4.923-9.062c.564-.346.047-1.236-.519-.888a11.545,11.545,0,0,0-5.432,9.95.515.515,0,0,0,1.029,0" transform="translate(-30.533 -41.345)" fill="#822c29"/>
            <path id="Trazado_756255" data-name="Trazado 756255" d="M182.555,324.144c4.114,9.518,9.043,21.247,3.24,31.152a.515.515,0,0,0,.889.519c6.015-10.268,1.029-22.311-3.241-32.19-.262-.606-1.148-.082-.888.519" transform="translate(-32.338 -57.295)" fill="#822c29"/>
            <path id="Trazado_756258" data-name="Trazado 756258" d="M51.19,331.239v.057a12.062,12.062,0,0,0,2.322,6.823c.75,1.055,1.609,2.219,2.072,2.813l5.012,6.45a2.57,2.57,0,0,0,4.036.03l7.154-8.931a9.368,9.368,0,0,0,.923-1.331,12.391,12.391,0,0,0,1.44-7.4,11.505,11.505,0,0,0-22.959,1.488m6.118.868a5.49,5.49,0,1,1,4.1,4.226,5.6,5.6,0,0,1-4.1-4.226" transform="translate(-9.07 -56.558)" fill="#dcdbef"/>
            <path id="Trazado_756259" data-name="Trazado 756259" d="M71.8,308.874l-2.132,3.369a.515.515,0,0,0,.889.519l2.131-3.369a.514.514,0,1,0-.888-.519" transform="translate(-12.332 -54.684)" fill="#b8c1ea"/>
            <path id="Trazado_756260" data-name="Trazado 756260" d="M65.5,311.261l.294-8.5c.023-.662-1.005-.662-1.029,0l-.294,8.5c-.023.662,1.005.661,1.029,0" transform="translate(-11.424 -53.558)" fill="#b8c1ea"/>
            <path id="Trazado_756261" data-name="Trazado 756261" d="M60.392,312.371l-2.5-3.5a.528.528,0,0,0-.7-.185.519.519,0,0,0-.184.7l2.5,3.5a.528.528,0,0,0,.7.184.518.518,0,0,0,.184-.7" transform="translate(-10.087 -54.684)" fill="#b8c1ea"/>
          </g>
        </g>
      </g>
    </g>
  </g>
</svg>
