<svg xmlns="http://www.w3.org/2000/svg" width="39.431" height="44.479" viewBox="0 0 39.431 44.479">
  <g id="Grupo_1024069" data-name="Grupo 1024069" transform="translate(12899.464 12151.12)">
    <path id="Trazado_756200" data-name="Trazado 756200" d="M47.722,275.546a6.7,6.7,0,1,1-6.7-6.7,6.7,6.7,0,0,1,6.7,6.7" transform="translate(-12919.08 -12388.892)" fill="#98433a"/>
    <path id="Trazado_756201" data-name="Trazado 756201" d="M55.461,262.122l-2.209-1.349a9.544,9.544,0,0,1-4.209-5.445l-3.133-10.646a14.651,14.651,0,0,0-16.279-10.094l-.766-2.126a2.029,2.029,0,0,0-3.889,1.145l.749,2.064a14.673,14.673,0,0,0-8.7,17.514l3.011,10.228a9.521,9.521,0,0,1-.381,6.4l-1.391,3.294a.894.894,0,0,0,1.115,1.183L32.242,270.5a6.378,6.378,0,0,0,4.3,2.343,6.747,6.747,0,0,0,6.169-2.975,6.032,6.032,0,0,0,.9-2.714L55.2,263.745a.893.893,0,0,0,.258-1.623" transform="translate(-12915.915 -12382.201)" fill="#fe7062"/>
    <path id="Trazado_756202" data-name="Trazado 756202" d="M21.775,241.43a6,6,0,0,0,.006,5.783c1.142,2.115,3.281,2.849,5.531,3.2,2.58.4,5.731.643,6.713,3.54a5.767,5.767,0,0,1-3.221,6.936c-3.443,1.7-7.339.577-10.527-1.154-.349-.189-.662.343-.312.533,2.62,1.422,5.61,2.462,8.626,1.965a7.574,7.574,0,0,0,5.843-4.177,5.7,5.7,0,0,0-1.246-6.439c-2.011-1.734-4.874-1.484-7.3-2.108a5.3,5.3,0,0,1-3.579-7.762.309.309,0,0,0-.533-.312" transform="translate(-12916.511 -12384.008)" fill="#fff"/>
    <path id="Trazado_756203" data-name="Trazado 756203" d="M48.34,256.252a3.533,3.533,0,0,0-2.323,2.332,2.863,2.863,0,0,0,.95,3,2.465,2.465,0,0,0,3-.006,2.793,2.793,0,0,0,.792-2.836,4.287,4.287,0,0,0-2.587-2.64.319.319,0,0,0-.422.11.31.31,0,0,0,.11.422,4.105,4.105,0,0,1,2.106,1.769,2.344,2.344,0,0,1-.08,2.352,1.753,1.753,0,0,1-2.238.523,2.15,2.15,0,0,1-1.1-2.238,2.839,2.839,0,0,1,1.953-2.2c.374-.128.214-.724-.164-.595" transform="translate(-12921.136 -12386.629)" fill="#fff"/>
    <path id="Trazado_756204" data-name="Trazado 756204" d="M32.581,235.074a8.011,8.011,0,0,0,4.433,6.832,10.932,10.932,0,0,0,9.426-.157c.361-.164.048-.7-.311-.532a10.277,10.277,0,0,1-8.8.157,7.4,7.4,0,0,1-4.128-6.3.309.309,0,0,0-.617,0" transform="translate(-12918.773 -12382.855)" fill="#fff"/>
    <path id="Trazado_756206" data-name="Trazado 756206" d="M20.032,281.637c12.1-3.19,24.189-6.559,35.946-10.869.616-.226.35-1.22-.274-.992-11.756,4.31-23.845,7.678-35.945,10.869a.515.515,0,0,0,.273.991" transform="translate(-12916.437 -12389.051)" fill="#26244a"/>
  </g>
</svg>
